<?xml version="1.0" encoding="utf-8" standalone="no"?>
<!DOCTYPE svg PUBLIC "-//W3C//DTD SVG 1.1//EN"
  "http://www.w3.org/Graphics/SVG/1.1/DTD/svg11.dtd">
<!-- Created with matplotlib (https://matplotlib.org/) -->
<svg height="165.6pt" version="1.1" viewBox="0 0 444 165.6" width="444pt" xmlns="http://www.w3.org/2000/svg" xmlns:xlink="http://www.w3.org/1999/xlink">
 <metadata>
  <rdf:RDF xmlns:cc="http://creativecommons.org/ns#" xmlns:dc="http://purl.org/dc/elements/1.1/" xmlns:rdf="http://www.w3.org/1999/02/22-rdf-syntax-ns#">
   <cc:Work>
    <dc:type rdf:resource="http://purl.org/dc/dcmitype/StillImage"/>
    <dc:date>2021-05-03T12:23:03.340403</dc:date>
    <dc:format>image/svg+xml</dc:format>
    <dc:creator>
     <cc:Agent>
      <dc:title>Matplotlib v3.3.2, https://matplotlib.org/</dc:title>
     </cc:Agent>
    </dc:creator>
   </cc:Work>
  </rdf:RDF>
 </metadata>
 <defs>
  <style type="text/css">*{stroke-linecap:butt;stroke-linejoin:round;}</style>
 </defs>
 <g id="figure_1">
  <g id="patch_1">
   <path d="M 0 165.6 
L 444 165.6 
L 444 0 
L 0 0 
z
" style="fill:#ffffff;"/>
  </g>
  <g id="axes_1">
   <g id="patch_2">
    <path d="M 52.456884 137.932 
L 359.88 137.932 
L 359.88 23.368 
L 52.456884 23.368 
z
" style="fill:#ffffff;"/>
   </g>
   <g id="matplotlib.axis_1">
    <g id="xtick_1">
     <g id="line2d_1">
      <path clip-path="url(#pef3e1d5e23)" d="M 58.008111 137.932 
L 58.008111 23.368 
" style="fill:none;stroke:#cccccc;stroke-linecap:round;stroke-width:0.8;"/>
     </g>
     <g id="text_1">
      <!-- 0 -->
      <g style="fill:#262626;" transform="translate(55.561298 146.030875)scale(0.088 -0.088)">
       <defs>
        <path d="M 4.15625 35.296875 
Q 4.15625 48 6.765625 55.734375 
Q 9.375 63.484375 14.515625 67.671875 
Q 19.671875 71.875 27.484375 71.875 
Q 33.25 71.875 37.59375 69.546875 
Q 41.9375 67.234375 44.765625 62.859375 
Q 47.609375 58.5 49.21875 52.21875 
Q 50.828125 45.953125 50.828125 35.296875 
Q 50.828125 22.703125 48.234375 14.96875 
Q 45.65625 7.234375 40.5 3 
Q 35.359375 -1.21875 27.484375 -1.21875 
Q 17.140625 -1.21875 11.234375 6.203125 
Q 4.15625 15.140625 4.15625 35.296875 
z
M 13.1875 35.296875 
Q 13.1875 17.671875 17.3125 11.828125 
Q 21.4375 6 27.484375 6 
Q 33.546875 6 37.671875 11.859375 
Q 41.796875 17.71875 41.796875 35.296875 
Q 41.796875 52.984375 37.671875 58.78125 
Q 33.546875 64.59375 27.390625 64.59375 
Q 21.34375 64.59375 17.71875 59.46875 
Q 13.1875 52.9375 13.1875 35.296875 
z
" id="ArialMT-48"/>
       </defs>
       <use xlink:href="#ArialMT-48"/>
      </g>
     </g>
    </g>
    <g id="xtick_2">
     <g id="line2d_2">
      <path clip-path="url(#pef3e1d5e23)" d="M 96.292434 137.932 
L 96.292434 23.368 
" style="fill:none;stroke:#cccccc;stroke-linecap:round;stroke-width:0.8;"/>
     </g>
     <g id="text_2">
      <!-- 100 -->
      <g style="fill:#262626;" transform="translate(88.951997 146.030875)scale(0.088 -0.088)">
       <defs>
        <path d="M 37.25 0 
L 28.46875 0 
L 28.46875 56 
Q 25.296875 52.984375 20.140625 49.953125 
Q 14.984375 46.921875 10.890625 45.40625 
L 10.890625 53.90625 
Q 18.265625 57.375 23.78125 62.296875 
Q 29.296875 67.234375 31.59375 71.875 
L 37.25 71.875 
z
" id="ArialMT-49"/>
       </defs>
       <use xlink:href="#ArialMT-49"/>
       <use x="55.615234" xlink:href="#ArialMT-48"/>
       <use x="111.230469" xlink:href="#ArialMT-48"/>
      </g>
     </g>
    </g>
    <g id="xtick_3">
     <g id="line2d_3">
      <path clip-path="url(#pef3e1d5e23)" d="M 134.576757 137.932 
L 134.576757 23.368 
" style="fill:none;stroke:#cccccc;stroke-linecap:round;stroke-width:0.8;"/>
     </g>
     <g id="text_3">
      <!-- 200 -->
      <g style="fill:#262626;" transform="translate(127.23632 146.030875)scale(0.088 -0.088)">
       <defs>
        <path d="M 50.34375 8.453125 
L 50.34375 0 
L 3.03125 0 
Q 2.9375 3.171875 4.046875 6.109375 
Q 5.859375 10.9375 9.828125 15.625 
Q 13.8125 20.3125 21.34375 26.46875 
Q 33.015625 36.03125 37.109375 41.625 
Q 41.21875 47.21875 41.21875 52.203125 
Q 41.21875 57.421875 37.46875 61 
Q 33.734375 64.59375 27.734375 64.59375 
Q 21.390625 64.59375 17.578125 60.78125 
Q 13.765625 56.984375 13.71875 50.25 
L 4.6875 51.171875 
Q 5.609375 61.28125 11.65625 66.578125 
Q 17.71875 71.875 27.9375 71.875 
Q 38.234375 71.875 44.234375 66.15625 
Q 50.25 60.453125 50.25 52 
Q 50.25 47.703125 48.484375 43.546875 
Q 46.734375 39.40625 42.65625 34.8125 
Q 38.578125 30.21875 29.109375 22.21875 
Q 21.1875 15.578125 18.9375 13.203125 
Q 16.703125 10.84375 15.234375 8.453125 
z
" id="ArialMT-50"/>
       </defs>
       <use xlink:href="#ArialMT-50"/>
       <use x="55.615234" xlink:href="#ArialMT-48"/>
       <use x="111.230469" xlink:href="#ArialMT-48"/>
      </g>
     </g>
    </g>
    <g id="xtick_4">
     <g id="line2d_4">
      <path clip-path="url(#pef3e1d5e23)" d="M 172.861081 137.932 
L 172.861081 23.368 
" style="fill:none;stroke:#cccccc;stroke-linecap:round;stroke-width:0.8;"/>
     </g>
     <g id="text_4">
      <!-- 300 -->
      <g style="fill:#262626;" transform="translate(165.520643 146.030875)scale(0.088 -0.088)">
       <defs>
        <path d="M 4.203125 18.890625 
L 12.984375 20.0625 
Q 14.5 12.59375 18.140625 9.296875 
Q 21.78125 6 27 6 
Q 33.203125 6 37.46875 10.296875 
Q 41.75 14.59375 41.75 20.953125 
Q 41.75 27 37.796875 30.921875 
Q 33.84375 34.859375 27.734375 34.859375 
Q 25.25 34.859375 21.53125 33.890625 
L 22.515625 41.609375 
Q 23.390625 41.5 23.921875 41.5 
Q 29.546875 41.5 34.03125 44.421875 
Q 38.53125 47.359375 38.53125 53.46875 
Q 38.53125 58.296875 35.25 61.46875 
Q 31.984375 64.65625 26.8125 64.65625 
Q 21.6875 64.65625 18.265625 61.421875 
Q 14.84375 58.203125 13.875 51.765625 
L 5.078125 53.328125 
Q 6.6875 62.15625 12.390625 67.015625 
Q 18.109375 71.875 26.609375 71.875 
Q 32.46875 71.875 37.390625 69.359375 
Q 42.328125 66.84375 44.9375 62.5 
Q 47.5625 58.15625 47.5625 53.265625 
Q 47.5625 48.640625 45.0625 44.828125 
Q 42.578125 41.015625 37.703125 38.765625 
Q 44.046875 37.3125 47.5625 32.6875 
Q 51.078125 28.078125 51.078125 21.140625 
Q 51.078125 11.765625 44.234375 5.25 
Q 37.40625 -1.265625 26.953125 -1.265625 
Q 17.53125 -1.265625 11.296875 4.34375 
Q 5.078125 9.96875 4.203125 18.890625 
z
" id="ArialMT-51"/>
       </defs>
       <use xlink:href="#ArialMT-51"/>
       <use x="55.615234" xlink:href="#ArialMT-48"/>
       <use x="111.230469" xlink:href="#ArialMT-48"/>
      </g>
     </g>
    </g>
    <g id="xtick_5">
     <g id="line2d_5">
      <path clip-path="url(#pef3e1d5e23)" d="M 211.145404 137.932 
L 211.145404 23.368 
" style="fill:none;stroke:#cccccc;stroke-linecap:round;stroke-width:0.8;"/>
     </g>
     <g id="text_5">
      <!-- 400 -->
      <g style="fill:#262626;" transform="translate(203.804967 146.030875)scale(0.088 -0.088)">
       <defs>
        <path d="M 32.328125 0 
L 32.328125 17.140625 
L 1.265625 17.140625 
L 1.265625 25.203125 
L 33.9375 71.578125 
L 41.109375 71.578125 
L 41.109375 25.203125 
L 50.78125 25.203125 
L 50.78125 17.140625 
L 41.109375 17.140625 
L 41.109375 0 
z
M 32.328125 25.203125 
L 32.328125 57.46875 
L 9.90625 25.203125 
z
" id="ArialMT-52"/>
       </defs>
       <use xlink:href="#ArialMT-52"/>
       <use x="55.615234" xlink:href="#ArialMT-48"/>
       <use x="111.230469" xlink:href="#ArialMT-48"/>
      </g>
     </g>
    </g>
    <g id="xtick_6">
     <g id="line2d_6">
      <path clip-path="url(#pef3e1d5e23)" d="M 249.429727 137.932 
L 249.429727 23.368 
" style="fill:none;stroke:#cccccc;stroke-linecap:round;stroke-width:0.8;"/>
     </g>
     <g id="text_6">
      <!-- 500 -->
      <g style="fill:#262626;" transform="translate(242.08929 146.030875)scale(0.088 -0.088)">
       <defs>
        <path d="M 4.15625 18.75 
L 13.375 19.53125 
Q 14.40625 12.796875 18.140625 9.390625 
Q 21.875 6 27.15625 6 
Q 33.5 6 37.890625 10.78125 
Q 42.28125 15.578125 42.28125 23.484375 
Q 42.28125 31 38.0625 35.34375 
Q 33.84375 39.703125 27 39.703125 
Q 22.75 39.703125 19.328125 37.765625 
Q 15.921875 35.84375 13.96875 32.765625 
L 5.71875 33.84375 
L 12.640625 70.609375 
L 48.25 70.609375 
L 48.25 62.203125 
L 19.671875 62.203125 
L 15.828125 42.96875 
Q 22.265625 47.46875 29.34375 47.46875 
Q 38.71875 47.46875 45.15625 40.96875 
Q 51.609375 34.46875 51.609375 24.265625 
Q 51.609375 14.546875 45.953125 7.46875 
Q 39.0625 -1.21875 27.15625 -1.21875 
Q 17.390625 -1.21875 11.203125 4.25 
Q 5.03125 9.71875 4.15625 18.75 
z
" id="ArialMT-53"/>
       </defs>
       <use xlink:href="#ArialMT-53"/>
       <use x="55.615234" xlink:href="#ArialMT-48"/>
       <use x="111.230469" xlink:href="#ArialMT-48"/>
      </g>
     </g>
    </g>
    <g id="xtick_7">
     <g id="line2d_7">
      <path clip-path="url(#pef3e1d5e23)" d="M 287.714051 137.932 
L 287.714051 23.368 
" style="fill:none;stroke:#cccccc;stroke-linecap:round;stroke-width:0.8;"/>
     </g>
     <g id="text_7">
      <!-- 600 -->
      <g style="fill:#262626;" transform="translate(280.373613 146.030875)scale(0.088 -0.088)">
       <defs>
        <path d="M 49.75 54.046875 
L 41.015625 53.375 
Q 39.84375 58.546875 37.703125 60.890625 
Q 34.125 64.65625 28.90625 64.65625 
Q 24.703125 64.65625 21.53125 62.3125 
Q 17.390625 59.28125 14.984375 53.46875 
Q 12.59375 47.65625 12.5 36.921875 
Q 15.671875 41.75 20.265625 44.09375 
Q 24.859375 46.4375 29.890625 46.4375 
Q 38.671875 46.4375 44.84375 39.96875 
Q 51.03125 33.5 51.03125 23.25 
Q 51.03125 16.5 48.125 10.71875 
Q 45.21875 4.9375 40.140625 1.859375 
Q 35.0625 -1.21875 28.609375 -1.21875 
Q 17.625 -1.21875 10.6875 6.859375 
Q 3.765625 14.9375 3.765625 33.5 
Q 3.765625 54.25 11.421875 63.671875 
Q 18.109375 71.875 29.4375 71.875 
Q 37.890625 71.875 43.28125 67.140625 
Q 48.6875 62.40625 49.75 54.046875 
z
M 13.875 23.1875 
Q 13.875 18.65625 15.796875 14.5 
Q 17.71875 10.359375 21.1875 8.171875 
Q 24.65625 6 28.46875 6 
Q 34.03125 6 38.03125 10.484375 
Q 42.046875 14.984375 42.046875 22.703125 
Q 42.046875 30.125 38.078125 34.390625 
Q 34.125 38.671875 28.125 38.671875 
Q 22.171875 38.671875 18.015625 34.390625 
Q 13.875 30.125 13.875 23.1875 
z
" id="ArialMT-54"/>
       </defs>
       <use xlink:href="#ArialMT-54"/>
       <use x="55.615234" xlink:href="#ArialMT-48"/>
       <use x="111.230469" xlink:href="#ArialMT-48"/>
      </g>
     </g>
    </g>
    <g id="xtick_8">
     <g id="line2d_8">
      <path clip-path="url(#pef3e1d5e23)" d="M 325.998374 137.932 
L 325.998374 23.368 
" style="fill:none;stroke:#cccccc;stroke-linecap:round;stroke-width:0.8;"/>
     </g>
     <g id="text_8">
      <!-- 700 -->
      <g style="fill:#262626;" transform="translate(318.657936 146.030875)scale(0.088 -0.088)">
       <defs>
        <path d="M 4.734375 62.203125 
L 4.734375 70.65625 
L 51.078125 70.65625 
L 51.078125 63.8125 
Q 44.234375 56.546875 37.515625 44.484375 
Q 30.8125 32.421875 27.15625 19.671875 
Q 24.515625 10.6875 23.78125 0 
L 14.75 0 
Q 14.890625 8.453125 18.0625 20.40625 
Q 21.234375 32.375 27.171875 43.484375 
Q 33.109375 54.59375 39.796875 62.203125 
z
" id="ArialMT-55"/>
       </defs>
       <use xlink:href="#ArialMT-55"/>
       <use x="55.615234" xlink:href="#ArialMT-48"/>
       <use x="111.230469" xlink:href="#ArialMT-48"/>
      </g>
     </g>
    </g>
    <g id="text_9">
     <!-- Number of Cores -->
     <g style="fill:#262626;" transform="translate(169.624692 158.651375)scale(0.096 -0.096)">
      <defs>
       <path d="M 7.625 0 
L 7.625 71.578125 
L 17.328125 71.578125 
L 54.9375 15.375 
L 54.9375 71.578125 
L 64.015625 71.578125 
L 64.015625 0 
L 54.296875 0 
L 16.703125 56.25 
L 16.703125 0 
z
" id="ArialMT-78"/>
       <path d="M 40.578125 0 
L 40.578125 7.625 
Q 34.515625 -1.171875 24.125 -1.171875 
Q 19.53125 -1.171875 15.546875 0.578125 
Q 11.578125 2.34375 9.640625 5 
Q 7.71875 7.671875 6.9375 11.53125 
Q 6.390625 14.109375 6.390625 19.734375 
L 6.390625 51.859375 
L 15.1875 51.859375 
L 15.1875 23.09375 
Q 15.1875 16.21875 15.71875 13.8125 
Q 16.546875 10.359375 19.234375 8.375 
Q 21.921875 6.390625 25.875 6.390625 
Q 29.828125 6.390625 33.296875 8.421875 
Q 36.765625 10.453125 38.203125 13.9375 
Q 39.65625 17.4375 39.65625 24.078125 
L 39.65625 51.859375 
L 48.4375 51.859375 
L 48.4375 0 
z
" id="ArialMT-117"/>
       <path d="M 6.59375 0 
L 6.59375 51.859375 
L 14.453125 51.859375 
L 14.453125 44.578125 
Q 16.890625 48.390625 20.9375 50.703125 
Q 25 53.03125 30.171875 53.03125 
Q 35.9375 53.03125 39.625 50.640625 
Q 43.3125 48.25 44.828125 43.953125 
Q 50.984375 53.03125 60.84375 53.03125 
Q 68.5625 53.03125 72.703125 48.75 
Q 76.859375 44.484375 76.859375 35.59375 
L 76.859375 0 
L 68.109375 0 
L 68.109375 32.671875 
Q 68.109375 37.9375 67.25 40.25 
Q 66.40625 42.578125 64.15625 43.984375 
Q 61.921875 45.40625 58.890625 45.40625 
Q 53.421875 45.40625 49.796875 41.765625 
Q 46.1875 38.140625 46.1875 30.125 
L 46.1875 0 
L 37.40625 0 
L 37.40625 33.6875 
Q 37.40625 39.546875 35.25 42.46875 
Q 33.109375 45.40625 28.21875 45.40625 
Q 24.515625 45.40625 21.359375 43.453125 
Q 18.21875 41.5 16.796875 37.734375 
Q 15.375 33.984375 15.375 26.90625 
L 15.375 0 
z
" id="ArialMT-109"/>
       <path d="M 14.703125 0 
L 6.546875 0 
L 6.546875 71.578125 
L 15.328125 71.578125 
L 15.328125 46.046875 
Q 20.90625 53.03125 29.546875 53.03125 
Q 34.328125 53.03125 38.59375 51.09375 
Q 42.875 49.171875 45.625 45.671875 
Q 48.390625 42.1875 49.953125 37.25 
Q 51.515625 32.328125 51.515625 26.703125 
Q 51.515625 13.375 44.921875 6.09375 
Q 38.328125 -1.171875 29.109375 -1.171875 
Q 19.921875 -1.171875 14.703125 6.5 
z
M 14.59375 26.3125 
Q 14.59375 17 17.140625 12.84375 
Q 21.296875 6.0625 28.375 6.0625 
Q 34.125 6.0625 38.328125 11.0625 
Q 42.53125 16.0625 42.53125 25.984375 
Q 42.53125 36.140625 38.5 40.96875 
Q 34.46875 45.796875 28.765625 45.796875 
Q 23 45.796875 18.796875 40.796875 
Q 14.59375 35.796875 14.59375 26.3125 
z
" id="ArialMT-98"/>
       <path d="M 42.09375 16.703125 
L 51.171875 15.578125 
Q 49.03125 7.625 43.21875 3.21875 
Q 37.40625 -1.171875 28.375 -1.171875 
Q 17 -1.171875 10.328125 5.828125 
Q 3.65625 12.84375 3.65625 25.484375 
Q 3.65625 38.578125 10.390625 45.796875 
Q 17.140625 53.03125 27.875 53.03125 
Q 38.28125 53.03125 44.875 45.953125 
Q 51.46875 38.875 51.46875 26.03125 
Q 51.46875 25.25 51.421875 23.6875 
L 12.75 23.6875 
Q 13.234375 15.140625 17.578125 10.59375 
Q 21.921875 6.0625 28.421875 6.0625 
Q 33.25 6.0625 36.671875 8.59375 
Q 40.09375 11.140625 42.09375 16.703125 
z
M 13.234375 30.90625 
L 42.1875 30.90625 
Q 41.609375 37.453125 38.875 40.71875 
Q 34.671875 45.796875 27.984375 45.796875 
Q 21.921875 45.796875 17.796875 41.75 
Q 13.671875 37.703125 13.234375 30.90625 
z
" id="ArialMT-101"/>
       <path d="M 6.5 0 
L 6.5 51.859375 
L 14.40625 51.859375 
L 14.40625 44 
Q 17.4375 49.515625 20 51.265625 
Q 22.5625 53.03125 25.640625 53.03125 
Q 30.078125 53.03125 34.671875 50.203125 
L 31.640625 42.046875 
Q 28.421875 43.953125 25.203125 43.953125 
Q 22.3125 43.953125 20.015625 42.21875 
Q 17.71875 40.484375 16.75 37.40625 
Q 15.28125 32.71875 15.28125 27.15625 
L 15.28125 0 
z
" id="ArialMT-114"/>
       <path id="ArialMT-32"/>
       <path d="M 3.328125 25.921875 
Q 3.328125 40.328125 11.328125 47.265625 
Q 18.015625 53.03125 27.640625 53.03125 
Q 38.328125 53.03125 45.109375 46.015625 
Q 51.90625 39.015625 51.90625 26.65625 
Q 51.90625 16.65625 48.90625 10.90625 
Q 45.90625 5.171875 40.15625 2 
Q 34.421875 -1.171875 27.640625 -1.171875 
Q 16.75 -1.171875 10.03125 5.8125 
Q 3.328125 12.796875 3.328125 25.921875 
z
M 12.359375 25.921875 
Q 12.359375 15.96875 16.703125 11.015625 
Q 21.046875 6.0625 27.640625 6.0625 
Q 34.1875 6.0625 38.53125 11.03125 
Q 42.875 16.015625 42.875 26.21875 
Q 42.875 35.84375 38.5 40.796875 
Q 34.125 45.75 27.640625 45.75 
Q 21.046875 45.75 16.703125 40.8125 
Q 12.359375 35.890625 12.359375 25.921875 
z
" id="ArialMT-111"/>
       <path d="M 8.6875 0 
L 8.6875 45.015625 
L 0.921875 45.015625 
L 0.921875 51.859375 
L 8.6875 51.859375 
L 8.6875 57.375 
Q 8.6875 62.59375 9.625 65.140625 
Q 10.890625 68.5625 14.078125 70.671875 
Q 17.28125 72.796875 23.046875 72.796875 
Q 26.765625 72.796875 31.25 71.921875 
L 29.9375 64.265625 
Q 27.203125 64.75 24.75 64.75 
Q 20.75 64.75 19.09375 63.03125 
Q 17.4375 61.328125 17.4375 56.640625 
L 17.4375 51.859375 
L 27.546875 51.859375 
L 27.546875 45.015625 
L 17.4375 45.015625 
L 17.4375 0 
z
" id="ArialMT-102"/>
       <path d="M 58.796875 25.09375 
L 68.265625 22.703125 
Q 65.28125 11.03125 57.546875 4.90625 
Q 49.8125 -1.21875 38.625 -1.21875 
Q 27.046875 -1.21875 19.796875 3.484375 
Q 12.546875 8.203125 8.765625 17.140625 
Q 4.984375 26.078125 4.984375 36.328125 
Q 4.984375 47.515625 9.25 55.828125 
Q 13.53125 64.15625 21.40625 68.46875 
Q 29.296875 72.796875 38.765625 72.796875 
Q 49.515625 72.796875 56.828125 67.328125 
Q 64.15625 61.859375 67.046875 51.953125 
L 57.71875 49.75 
Q 55.21875 57.5625 50.484375 61.125 
Q 45.75 64.703125 38.578125 64.703125 
Q 30.328125 64.703125 24.78125 60.734375 
Q 19.234375 56.78125 16.984375 50.109375 
Q 14.75 43.453125 14.75 36.375 
Q 14.75 27.25 17.40625 20.4375 
Q 20.0625 13.625 25.671875 10.25 
Q 31.296875 6.890625 37.84375 6.890625 
Q 45.796875 6.890625 51.3125 11.46875 
Q 56.84375 16.0625 58.796875 25.09375 
z
" id="ArialMT-67"/>
       <path d="M 3.078125 15.484375 
L 11.765625 16.84375 
Q 12.5 11.625 15.84375 8.84375 
Q 19.1875 6.0625 25.203125 6.0625 
Q 31.25 6.0625 34.171875 8.515625 
Q 37.109375 10.984375 37.109375 14.3125 
Q 37.109375 17.28125 34.515625 19 
Q 32.71875 20.171875 25.53125 21.96875 
Q 15.875 24.421875 12.140625 26.203125 
Q 8.40625 27.984375 6.46875 31.125 
Q 4.546875 34.28125 4.546875 38.09375 
Q 4.546875 41.546875 6.125 44.5 
Q 7.71875 47.46875 10.453125 49.421875 
Q 12.5 50.921875 16.03125 51.96875 
Q 19.578125 53.03125 23.640625 53.03125 
Q 29.734375 53.03125 34.34375 51.265625 
Q 38.96875 49.515625 41.15625 46.5 
Q 43.359375 43.5 44.1875 38.484375 
L 35.59375 37.3125 
Q 35.015625 41.3125 32.203125 43.546875 
Q 29.390625 45.796875 24.265625 45.796875 
Q 18.21875 45.796875 15.625 43.796875 
Q 13.03125 41.796875 13.03125 39.109375 
Q 13.03125 37.40625 14.109375 36.03125 
Q 15.1875 34.625 17.484375 33.6875 
Q 18.796875 33.203125 25.25 31.453125 
Q 34.578125 28.953125 38.25 27.359375 
Q 41.9375 25.78125 44.03125 22.75 
Q 46.140625 19.734375 46.140625 15.234375 
Q 46.140625 10.84375 43.578125 6.953125 
Q 41.015625 3.078125 36.171875 0.953125 
Q 31.34375 -1.171875 25.25 -1.171875 
Q 15.140625 -1.171875 9.84375 3.03125 
Q 4.546875 7.234375 3.078125 15.484375 
z
" id="ArialMT-115"/>
      </defs>
      <use xlink:href="#ArialMT-78"/>
      <use x="72.216797" xlink:href="#ArialMT-117"/>
      <use x="127.832031" xlink:href="#ArialMT-109"/>
      <use x="211.132812" xlink:href="#ArialMT-98"/>
      <use x="266.748047" xlink:href="#ArialMT-101"/>
      <use x="322.363281" xlink:href="#ArialMT-114"/>
      <use x="355.664062" xlink:href="#ArialMT-32"/>
      <use x="383.447266" xlink:href="#ArialMT-111"/>
      <use x="439.0625" xlink:href="#ArialMT-102"/>
      <use x="466.845703" xlink:href="#ArialMT-32"/>
      <use x="494.628906" xlink:href="#ArialMT-67"/>
      <use x="566.845703" xlink:href="#ArialMT-111"/>
      <use x="622.460938" xlink:href="#ArialMT-114"/>
      <use x="655.761719" xlink:href="#ArialMT-101"/>
      <use x="711.376953" xlink:href="#ArialMT-115"/>
     </g>
    </g>
   </g>
   <g id="matplotlib.axis_2">
    <g id="ytick_1">
     <g id="line2d_9">
      <path clip-path="url(#pef3e1d5e23)" d="M 52.456884 104.651116 
L 359.88 104.651116 
" style="fill:none;stroke:#cccccc;stroke-linecap:round;stroke-width:0.8;"/>
     </g>
     <g id="text_10">
      <!-- 1.00 -->
      <g style="fill:#262626;" transform="translate(27.031259 107.800553)scale(0.088 -0.088)">
       <defs>
        <path d="M 9.078125 0 
L 9.078125 10.015625 
L 19.09375 10.015625 
L 19.09375 0 
z
" id="ArialMT-46"/>
       </defs>
       <use xlink:href="#ArialMT-49"/>
       <use x="55.615234" xlink:href="#ArialMT-46"/>
       <use x="83.398438" xlink:href="#ArialMT-48"/>
       <use x="139.013672" xlink:href="#ArialMT-48"/>
      </g>
     </g>
    </g>
    <g id="ytick_2">
     <g id="line2d_10">
      <path clip-path="url(#pef3e1d5e23)" d="M 52.456884 51.929939 
L 359.88 51.929939 
" style="fill:none;stroke:#cccccc;stroke-linecap:round;stroke-width:0.8;"/>
     </g>
     <g id="text_11">
      <!-- 10.00 -->
      <g style="fill:#262626;" transform="translate(22.137634 55.079377)scale(0.088 -0.088)">
       <use xlink:href="#ArialMT-49"/>
       <use x="55.615234" xlink:href="#ArialMT-48"/>
       <use x="111.230469" xlink:href="#ArialMT-46"/>
       <use x="139.013672" xlink:href="#ArialMT-48"/>
       <use x="194.628906" xlink:href="#ArialMT-48"/>
      </g>
     </g>
    </g>
    <g id="ytick_3">
     <g id="line2d_11">
      <path clip-path="url(#pef3e1d5e23)" d="M 52.456884 132.217899 
L 359.88 132.217899 
" style="fill:none;stroke:#cccccc;stroke-linecap:round;stroke-width:0.8;"/>
     </g>
    </g>
    <g id="ytick_4">
     <g id="line2d_12">
      <path clip-path="url(#pef3e1d5e23)" d="M 52.456884 125.630982 
L 359.88 125.630982 
" style="fill:none;stroke:#cccccc;stroke-linecap:round;stroke-width:0.8;"/>
     </g>
    </g>
    <g id="ytick_5">
     <g id="line2d_13">
      <path clip-path="url(#pef3e1d5e23)" d="M 52.456884 120.521772 
L 359.88 120.521772 
" style="fill:none;stroke:#cccccc;stroke-linecap:round;stroke-width:0.8;"/>
     </g>
    </g>
    <g id="ytick_6">
     <g id="line2d_14">
      <path clip-path="url(#pef3e1d5e23)" d="M 52.456884 116.347243 
L 359.88 116.347243 
" style="fill:none;stroke:#cccccc;stroke-linecap:round;stroke-width:0.8;"/>
     </g>
    </g>
    <g id="ytick_7">
     <g id="line2d_15">
      <path clip-path="url(#pef3e1d5e23)" d="M 52.456884 112.81773 
L 359.88 112.81773 
" style="fill:none;stroke:#cccccc;stroke-linecap:round;stroke-width:0.8;"/>
     </g>
    </g>
    <g id="ytick_8">
     <g id="line2d_16">
      <path clip-path="url(#pef3e1d5e23)" d="M 52.456884 109.760326 
L 359.88 109.760326 
" style="fill:none;stroke:#cccccc;stroke-linecap:round;stroke-width:0.8;"/>
     </g>
    </g>
    <g id="ytick_9">
     <g id="line2d_17">
      <path clip-path="url(#pef3e1d5e23)" d="M 52.456884 107.063505 
L 359.88 107.063505 
" style="fill:none;stroke:#cccccc;stroke-linecap:round;stroke-width:0.8;"/>
     </g>
    </g>
    <g id="ytick_10">
     <g id="line2d_18">
      <path clip-path="url(#pef3e1d5e23)" d="M 52.456884 88.78046 
L 359.88 88.78046 
" style="fill:none;stroke:#cccccc;stroke-linecap:round;stroke-width:0.8;"/>
     </g>
    </g>
    <g id="ytick_11">
     <g id="line2d_19">
      <path clip-path="url(#pef3e1d5e23)" d="M 52.456884 79.496722 
L 359.88 79.496722 
" style="fill:none;stroke:#cccccc;stroke-linecap:round;stroke-width:0.8;"/>
     </g>
    </g>
    <g id="ytick_12">
     <g id="line2d_20">
      <path clip-path="url(#pef3e1d5e23)" d="M 52.456884 72.909805 
L 359.88 72.909805 
" style="fill:none;stroke:#cccccc;stroke-linecap:round;stroke-width:0.8;"/>
     </g>
    </g>
    <g id="ytick_13">
     <g id="line2d_21">
      <path clip-path="url(#pef3e1d5e23)" d="M 52.456884 67.800595 
L 359.88 67.800595 
" style="fill:none;stroke:#cccccc;stroke-linecap:round;stroke-width:0.8;"/>
     </g>
    </g>
    <g id="ytick_14">
     <g id="line2d_22">
      <path clip-path="url(#pef3e1d5e23)" d="M 52.456884 63.626066 
L 359.88 63.626066 
" style="fill:none;stroke:#cccccc;stroke-linecap:round;stroke-width:0.8;"/>
     </g>
    </g>
    <g id="ytick_15">
     <g id="line2d_23">
      <path clip-path="url(#pef3e1d5e23)" d="M 52.456884 60.096553 
L 359.88 60.096553 
" style="fill:none;stroke:#cccccc;stroke-linecap:round;stroke-width:0.8;"/>
     </g>
    </g>
    <g id="ytick_16">
     <g id="line2d_24">
      <path clip-path="url(#pef3e1d5e23)" d="M 52.456884 57.039149 
L 359.88 57.039149 
" style="fill:none;stroke:#cccccc;stroke-linecap:round;stroke-width:0.8;"/>
     </g>
    </g>
    <g id="ytick_17">
     <g id="line2d_25">
      <path clip-path="url(#pef3e1d5e23)" d="M 52.456884 54.342328 
L 359.88 54.342328 
" style="fill:none;stroke:#cccccc;stroke-linecap:round;stroke-width:0.8;"/>
     </g>
    </g>
    <g id="ytick_18">
     <g id="line2d_26">
      <path clip-path="url(#pef3e1d5e23)" d="M 52.456884 36.059283 
L 359.88 36.059283 
" style="fill:none;stroke:#cccccc;stroke-linecap:round;stroke-width:0.8;"/>
     </g>
    </g>
    <g id="ytick_19">
     <g id="line2d_27">
      <path clip-path="url(#pef3e1d5e23)" d="M 52.456884 26.775545 
L 359.88 26.775545 
" style="fill:none;stroke:#cccccc;stroke-linecap:round;stroke-width:0.8;"/>
     </g>
    </g>
    <g id="text_12">
     <!-- Million txn/s ($\log_{10}$) -->
     <g style="fill:#262626;" transform="translate(16.025634 122.026)rotate(-90)scale(0.096 -0.096)">
      <defs>
       <path d="M 7.421875 0 
L 7.421875 71.578125 
L 21.6875 71.578125 
L 38.625 20.90625 
Q 40.96875 13.8125 42.046875 10.296875 
Q 43.265625 14.203125 45.84375 21.78125 
L 62.984375 71.578125 
L 75.734375 71.578125 
L 75.734375 0 
L 66.609375 0 
L 66.609375 59.90625 
L 45.796875 0 
L 37.25 0 
L 16.546875 60.9375 
L 16.546875 0 
z
" id="ArialMT-77"/>
       <path d="M 6.640625 61.46875 
L 6.640625 71.578125 
L 15.4375 71.578125 
L 15.4375 61.46875 
z
M 6.640625 0 
L 6.640625 51.859375 
L 15.4375 51.859375 
L 15.4375 0 
z
" id="ArialMT-105"/>
       <path d="M 6.390625 0 
L 6.390625 71.578125 
L 15.1875 71.578125 
L 15.1875 0 
z
" id="ArialMT-108"/>
       <path d="M 6.59375 0 
L 6.59375 51.859375 
L 14.5 51.859375 
L 14.5 44.484375 
Q 20.21875 53.03125 31 53.03125 
Q 35.6875 53.03125 39.625 51.34375 
Q 43.5625 49.65625 45.515625 46.921875 
Q 47.46875 44.1875 48.25 40.4375 
Q 48.734375 37.984375 48.734375 31.890625 
L 48.734375 0 
L 39.9375 0 
L 39.9375 31.546875 
Q 39.9375 36.921875 38.90625 39.578125 
Q 37.890625 42.234375 35.28125 43.8125 
Q 32.671875 45.40625 29.15625 45.40625 
Q 23.53125 45.40625 19.453125 41.84375 
Q 15.375 38.28125 15.375 28.328125 
L 15.375 0 
z
" id="ArialMT-110"/>
       <path d="M 25.78125 7.859375 
L 27.046875 0.09375 
Q 23.34375 -0.6875 20.40625 -0.6875 
Q 15.625 -0.6875 12.984375 0.828125 
Q 10.359375 2.34375 9.28125 4.8125 
Q 8.203125 7.28125 8.203125 15.1875 
L 8.203125 45.015625 
L 1.765625 45.015625 
L 1.765625 51.859375 
L 8.203125 51.859375 
L 8.203125 64.703125 
L 16.9375 69.96875 
L 16.9375 51.859375 
L 25.78125 51.859375 
L 25.78125 45.015625 
L 16.9375 45.015625 
L 16.9375 14.703125 
Q 16.9375 10.9375 17.40625 9.859375 
Q 17.875 8.796875 18.921875 8.15625 
Q 19.96875 7.515625 21.921875 7.515625 
Q 23.390625 7.515625 25.78125 7.859375 
z
" id="ArialMT-116"/>
       <path d="M 0.734375 0 
L 19.671875 26.953125 
L 2.15625 51.859375 
L 13.140625 51.859375 
L 21.09375 39.703125 
Q 23.34375 36.234375 24.703125 33.890625 
Q 26.859375 37.109375 28.65625 39.59375 
L 37.40625 51.859375 
L 47.90625 51.859375 
L 29.984375 27.4375 
L 49.265625 0 
L 38.484375 0 
L 27.828125 16.109375 
L 25 20.453125 
L 11.375 0 
z
" id="ArialMT-120"/>
       <path d="M 0 -1.21875 
L 20.75 72.796875 
L 27.78125 72.796875 
L 7.078125 -1.21875 
z
" id="ArialMT-47"/>
       <path d="M 23.390625 -21.046875 
Q 16.109375 -11.859375 11.078125 0.4375 
Q 6.0625 12.75 6.0625 25.921875 
Q 6.0625 37.546875 9.8125 48.1875 
Q 14.203125 60.546875 23.390625 72.796875 
L 29.6875 72.796875 
Q 23.78125 62.640625 21.875 58.296875 
Q 18.890625 51.5625 17.1875 44.234375 
Q 15.09375 35.109375 15.09375 25.875 
Q 15.09375 2.390625 29.6875 -21.046875 
z
" id="ArialMT-40"/>
       <path d="M 9.421875 75.984375 
L 18.40625 75.984375 
L 18.40625 0 
L 9.421875 0 
z
" id="DejaVuSans-108"/>
       <path d="M 30.609375 48.390625 
Q 23.390625 48.390625 19.1875 42.75 
Q 14.984375 37.109375 14.984375 27.296875 
Q 14.984375 17.484375 19.15625 11.84375 
Q 23.34375 6.203125 30.609375 6.203125 
Q 37.796875 6.203125 41.984375 11.859375 
Q 46.1875 17.53125 46.1875 27.296875 
Q 46.1875 37.015625 41.984375 42.703125 
Q 37.796875 48.390625 30.609375 48.390625 
z
M 30.609375 56 
Q 42.328125 56 49.015625 48.375 
Q 55.71875 40.765625 55.71875 27.296875 
Q 55.71875 13.875 49.015625 6.21875 
Q 42.328125 -1.421875 30.609375 -1.421875 
Q 18.84375 -1.421875 12.171875 6.21875 
Q 5.515625 13.875 5.515625 27.296875 
Q 5.515625 40.765625 12.171875 48.375 
Q 18.84375 56 30.609375 56 
z
" id="DejaVuSans-111"/>
       <path d="M 45.40625 27.984375 
Q 45.40625 37.75 41.375 43.109375 
Q 37.359375 48.484375 30.078125 48.484375 
Q 22.859375 48.484375 18.828125 43.109375 
Q 14.796875 37.75 14.796875 27.984375 
Q 14.796875 18.265625 18.828125 12.890625 
Q 22.859375 7.515625 30.078125 7.515625 
Q 37.359375 7.515625 41.375 12.890625 
Q 45.40625 18.265625 45.40625 27.984375 
z
M 54.390625 6.78125 
Q 54.390625 -7.171875 48.1875 -13.984375 
Q 42 -20.796875 29.203125 -20.796875 
Q 24.46875 -20.796875 20.265625 -20.09375 
Q 16.0625 -19.390625 12.109375 -17.921875 
L 12.109375 -9.1875 
Q 16.0625 -11.328125 19.921875 -12.34375 
Q 23.78125 -13.375 27.78125 -13.375 
Q 36.625 -13.375 41.015625 -8.765625 
Q 45.40625 -4.15625 45.40625 5.171875 
L 45.40625 9.625 
Q 42.625 4.78125 38.28125 2.390625 
Q 33.9375 0 27.875 0 
Q 17.828125 0 11.671875 7.65625 
Q 5.515625 15.328125 5.515625 27.984375 
Q 5.515625 40.671875 11.671875 48.328125 
Q 17.828125 56 27.875 56 
Q 33.9375 56 38.28125 53.609375 
Q 42.625 51.21875 45.40625 46.390625 
L 45.40625 54.6875 
L 54.390625 54.6875 
z
" id="DejaVuSans-103"/>
       <path d="M 12.40625 8.296875 
L 28.515625 8.296875 
L 28.515625 63.921875 
L 10.984375 60.40625 
L 10.984375 69.390625 
L 28.421875 72.90625 
L 38.28125 72.90625 
L 38.28125 8.296875 
L 54.390625 8.296875 
L 54.390625 0 
L 12.40625 0 
z
" id="DejaVuSans-49"/>
       <path d="M 31.78125 66.40625 
Q 24.171875 66.40625 20.328125 58.90625 
Q 16.5 51.421875 16.5 36.375 
Q 16.5 21.390625 20.328125 13.890625 
Q 24.171875 6.390625 31.78125 6.390625 
Q 39.453125 6.390625 43.28125 13.890625 
Q 47.125 21.390625 47.125 36.375 
Q 47.125 51.421875 43.28125 58.90625 
Q 39.453125 66.40625 31.78125 66.40625 
z
M 31.78125 74.21875 
Q 44.046875 74.21875 50.515625 64.515625 
Q 56.984375 54.828125 56.984375 36.375 
Q 56.984375 17.96875 50.515625 8.265625 
Q 44.046875 -1.421875 31.78125 -1.421875 
Q 19.53125 -1.421875 13.0625 8.265625 
Q 6.59375 17.96875 6.59375 36.375 
Q 6.59375 54.828125 13.0625 64.515625 
Q 19.53125 74.21875 31.78125 74.21875 
z
" id="DejaVuSans-48"/>
       <path d="M 12.359375 -21.046875 
L 6.0625 -21.046875 
Q 20.65625 2.390625 20.65625 25.875 
Q 20.65625 35.0625 18.5625 44.09375 
Q 16.890625 51.421875 13.921875 58.15625 
Q 12.015625 62.546875 6.0625 72.796875 
L 12.359375 72.796875 
Q 21.53125 60.546875 25.921875 48.1875 
Q 29.6875 37.546875 29.6875 25.921875 
Q 29.6875 12.75 24.625 0.4375 
Q 19.578125 -11.859375 12.359375 -21.046875 
z
" id="ArialMT-41"/>
      </defs>
      <use transform="translate(0 0.015625)" xlink:href="#ArialMT-77"/>
      <use transform="translate(83.300781 0.015625)" xlink:href="#ArialMT-105"/>
      <use transform="translate(105.517578 0.015625)" xlink:href="#ArialMT-108"/>
      <use transform="translate(127.734375 0.015625)" xlink:href="#ArialMT-108"/>
      <use transform="translate(149.951172 0.015625)" xlink:href="#ArialMT-105"/>
      <use transform="translate(172.167969 0.015625)" xlink:href="#ArialMT-111"/>
      <use transform="translate(227.783203 0.015625)" xlink:href="#ArialMT-110"/>
      <use transform="translate(283.398438 0.015625)" xlink:href="#ArialMT-32"/>
      <use transform="translate(311.181641 0.015625)" xlink:href="#ArialMT-116"/>
      <use transform="translate(338.964844 0.015625)" xlink:href="#ArialMT-120"/>
      <use transform="translate(388.964844 0.015625)" xlink:href="#ArialMT-110"/>
      <use transform="translate(444.580078 0.015625)" xlink:href="#ArialMT-47"/>
      <use transform="translate(472.363281 0.015625)" xlink:href="#ArialMT-115"/>
      <use transform="translate(522.363281 0.015625)" xlink:href="#ArialMT-32"/>
      <use transform="translate(550.146484 0.015625)" xlink:href="#ArialMT-40"/>
      <use transform="translate(583.447266 0.015625)" xlink:href="#DejaVuSans-108"/>
      <use transform="translate(611.230469 0.015625)" xlink:href="#DejaVuSans-111"/>
      <use transform="translate(672.412109 0.015625)" xlink:href="#DejaVuSans-103"/>
      <use transform="translate(736.845703 -16.390625)scale(0.7)" xlink:href="#DejaVuSans-49"/>
      <use transform="translate(781.381836 -16.390625)scale(0.7)" xlink:href="#DejaVuSans-48"/>
      <use transform="translate(828.652344 0.015625)" xlink:href="#ArialMT-41"/>
     </g>
    </g>
   </g>
   <g id="line2d_28">
    <path clip-path="url(#pef3e1d5e23)" d="M 66.430662 121.366236 
L 74.853213 105.540949 
L 91.698315 92.77046 
L 128.451266 74.237659 
L 201.957166 59.209195 
L 345.906222 45.41648 
" style="fill:none;stroke:#f15854;stroke-linecap:round;stroke-width:1.2;"/>
    <defs>
     <path d="M 0 2.4 
C 0.636487 2.4 1.246992 2.147121 1.697056 1.697056 
C 2.147121 1.246992 2.4 0.636487 2.4 0 
C 2.4 -0.636487 2.147121 -1.246992 1.697056 -1.697056 
C 1.246992 -2.147121 0.636487 -2.4 0 -2.4 
C -0.636487 -2.4 -1.246992 -2.147121 -1.697056 -1.697056 
C -2.147121 -1.246992 -2.4 -0.636487 -2.4 0 
C -2.4 0.636487 -2.147121 1.246992 -1.697056 1.697056 
C -1.246992 2.147121 -0.636487 2.4 0 2.4 
z
" id="m6030901e4e" style="stroke:#ffffff;stroke-width:0.75;"/>
    </defs>
    <g clip-path="url(#pef3e1d5e23)">
     <use style="fill:#f15854;stroke:#ffffff;stroke-width:0.75;" x="66.430662" xlink:href="#m6030901e4e" y="121.366236"/>
     <use style="fill:#f15854;stroke:#ffffff;stroke-width:0.75;" x="74.853213" xlink:href="#m6030901e4e" y="105.540949"/>
     <use style="fill:#f15854;stroke:#ffffff;stroke-width:0.75;" x="91.698315" xlink:href="#m6030901e4e" y="92.77046"/>
     <use style="fill:#f15854;stroke:#ffffff;stroke-width:0.75;" x="128.451266" xlink:href="#m6030901e4e" y="74.237659"/>
     <use style="fill:#f15854;stroke:#ffffff;stroke-width:0.75;" x="201.957166" xlink:href="#m6030901e4e" y="59.209195"/>
     <use style="fill:#f15854;stroke:#ffffff;stroke-width:0.75;" x="345.906222" xlink:href="#m6030901e4e" y="45.41648"/>
    </g>
   </g>
   <g id="line2d_29">
    <path clip-path="url(#pef3e1d5e23)" d="M 66.430662 121.243383 
L 74.853213 105.930202 
L 91.698315 92.312347 
L 128.451266 74.243692 
L 201.957166 59.294241 
L 345.906222 45.376287 
" style="fill:none;stroke:#decf3f;stroke-linecap:round;stroke-width:1.2;"/>
    <defs>
     <path d="M -2.4 2.4 
L 2.4 2.4 
L 2.4 -2.4 
L -2.4 -2.4 
z
" id="mfdda7e9d45" style="stroke:#ffffff;stroke-linejoin:miter;stroke-width:0.75;"/>
    </defs>
    <g clip-path="url(#pef3e1d5e23)">
     <use style="fill:#decf3f;stroke:#ffffff;stroke-linejoin:miter;stroke-width:0.75;" x="66.430662" xlink:href="#mfdda7e9d45" y="121.243383"/>
     <use style="fill:#decf3f;stroke:#ffffff;stroke-linejoin:miter;stroke-width:0.75;" x="74.853213" xlink:href="#mfdda7e9d45" y="105.930202"/>
     <use style="fill:#decf3f;stroke:#ffffff;stroke-linejoin:miter;stroke-width:0.75;" x="91.698315" xlink:href="#mfdda7e9d45" y="92.312347"/>
     <use style="fill:#decf3f;stroke:#ffffff;stroke-linejoin:miter;stroke-width:0.75;" x="128.451266" xlink:href="#mfdda7e9d45" y="74.243692"/>
     <use style="fill:#decf3f;stroke:#ffffff;stroke-linejoin:miter;stroke-width:0.75;" x="201.957166" xlink:href="#mfdda7e9d45" y="59.294241"/>
     <use style="fill:#decf3f;stroke:#ffffff;stroke-linejoin:miter;stroke-width:0.75;" x="345.906222" xlink:href="#mfdda7e9d45" y="45.376287"/>
    </g>
   </g>
   <g id="line2d_30">
    <path clip-path="url(#pef3e1d5e23)" d="M 66.430662 120.539323 
L 74.853213 105.402004 
L 91.698315 93.260155 
L 128.451266 74.201553 
L 201.957166 59.039141 
L 345.906222 45.089553 
" style="fill:none;stroke:#faa43a;stroke-linecap:round;stroke-width:1.2;"/>
    <defs>
     <path d="M 0 3.394113 
L 2.036468 0 
L 0 -3.394113 
L -2.036468 0 
z
" id="m06459db293" style="stroke:#ffffff;stroke-linejoin:miter;stroke-width:0.75;"/>
    </defs>
    <g clip-path="url(#pef3e1d5e23)">
     <use style="fill:#faa43a;stroke:#ffffff;stroke-linejoin:miter;stroke-width:0.75;" x="66.430662" xlink:href="#m06459db293" y="120.539323"/>
     <use style="fill:#faa43a;stroke:#ffffff;stroke-linejoin:miter;stroke-width:0.75;" x="74.853213" xlink:href="#m06459db293" y="105.402004"/>
     <use style="fill:#faa43a;stroke:#ffffff;stroke-linejoin:miter;stroke-width:0.75;" x="91.698315" xlink:href="#m06459db293" y="93.260155"/>
     <use style="fill:#faa43a;stroke:#ffffff;stroke-linejoin:miter;stroke-width:0.75;" x="128.451266" xlink:href="#m06459db293" y="74.201553"/>
     <use style="fill:#faa43a;stroke:#ffffff;stroke-linejoin:miter;stroke-width:0.75;" x="201.957166" xlink:href="#m06459db293" y="59.039141"/>
     <use style="fill:#faa43a;stroke:#ffffff;stroke-linejoin:miter;stroke-width:0.75;" x="345.906222" xlink:href="#m06459db293" y="45.089553"/>
    </g>
   </g>
   <g id="line2d_31">
    <path clip-path="url(#pef3e1d5e23)" d="M 66.430662 103.024018 
L 74.853213 95.562657 
L 91.698315 92.062098 
L 128.451266 76.363628 
L 201.957166 62.606201 
L 272.400321 58.566982 
L 345.906222 53.900051 
" style="fill:none;stroke:#5da5da;stroke-linecap:round;stroke-width:1.2;"/>
    <defs>
     <path d="M 0 -2.4 
L -2.282536 -0.741641 
L -1.410685 1.941641 
L 1.410685 1.941641 
L 2.282536 -0.741641 
z
" id="m6e4db47405" style="stroke:#ffffff;stroke-linejoin:miter;stroke-width:0.75;"/>
    </defs>
    <g clip-path="url(#pef3e1d5e23)">
     <use style="fill:#5da5da;stroke:#ffffff;stroke-linejoin:miter;stroke-width:0.75;" x="66.430662" xlink:href="#m6e4db47405" y="103.024018"/>
     <use style="fill:#5da5da;stroke:#ffffff;stroke-linejoin:miter;stroke-width:0.75;" x="74.853213" xlink:href="#m6e4db47405" y="95.562657"/>
     <use style="fill:#5da5da;stroke:#ffffff;stroke-linejoin:miter;stroke-width:0.75;" x="91.698315" xlink:href="#m6e4db47405" y="92.062098"/>
     <use style="fill:#5da5da;stroke:#ffffff;stroke-linejoin:miter;stroke-width:0.75;" x="128.451266" xlink:href="#m6e4db47405" y="76.363628"/>
     <use style="fill:#5da5da;stroke:#ffffff;stroke-linejoin:miter;stroke-width:0.75;" x="201.957166" xlink:href="#m6e4db47405" y="62.606201"/>
     <use style="fill:#5da5da;stroke:#ffffff;stroke-linejoin:miter;stroke-width:0.75;" x="272.400321" xlink:href="#m6e4db47405" y="58.566982"/>
     <use style="fill:#5da5da;stroke:#ffffff;stroke-linejoin:miter;stroke-width:0.75;" x="345.906222" xlink:href="#m6e4db47405" y="53.900051"/>
    </g>
   </g>
   <g id="line2d_32">
    <path clip-path="url(#pef3e1d5e23)" d="M 66.430662 132.724545 
L 74.853213 117.607061 
L 91.698315 107.652925 
L 128.451266 90.093165 
L 201.957166 73.929328 
L 345.906222 56.26012 
" style="fill:none;stroke:#b276b2;stroke-linecap:round;stroke-width:1.2;"/>
    <defs>
     <path d="M 0 2.4 
C 0.636487 2.4 1.246992 2.147121 1.697056 1.697056 
C 2.147121 1.246992 2.4 0.636487 2.4 0 
C 2.4 -0.636487 2.147121 -1.246992 1.697056 -1.697056 
C 1.246992 -2.147121 0.636487 -2.4 0 -2.4 
C -0.636487 -2.4 -1.246992 -2.147121 -1.697056 -1.697056 
C -2.147121 -1.246992 -2.4 -0.636487 -2.4 0 
C -2.4 0.636487 -2.147121 1.246992 -1.697056 1.697056 
C -1.246992 2.147121 -0.636487 2.4 0 2.4 
z
" id="m7cb1a65be8" style="stroke:#ffffff;stroke-width:0.75;"/>
    </defs>
    <g clip-path="url(#pef3e1d5e23)">
     <use style="fill:#b276b2;stroke:#ffffff;stroke-width:0.75;" x="66.430662" xlink:href="#m7cb1a65be8" y="132.724545"/>
     <use style="fill:#b276b2;stroke:#ffffff;stroke-width:0.75;" x="74.853213" xlink:href="#m7cb1a65be8" y="117.607061"/>
     <use style="fill:#b276b2;stroke:#ffffff;stroke-width:0.75;" x="91.698315" xlink:href="#m7cb1a65be8" y="107.652925"/>
     <use style="fill:#b276b2;stroke:#ffffff;stroke-width:0.75;" x="128.451266" xlink:href="#m7cb1a65be8" y="90.093165"/>
     <use style="fill:#b276b2;stroke:#ffffff;stroke-width:0.75;" x="201.957166" xlink:href="#m7cb1a65be8" y="73.929328"/>
     <use style="fill:#b276b2;stroke:#ffffff;stroke-width:0.75;" x="345.906222" xlink:href="#m7cb1a65be8" y="56.26012"/>
    </g>
   </g>
   <g id="line2d_33">
    <path clip-path="url(#pef3e1d5e23)" d="M 66.430662 94.028052 
L 74.853213 79.217389 
L 91.698315 65.533657 
L 128.451266 49.206818 
L 201.957166 35.612155 
L 345.906222 28.575455 
" style="fill:none;stroke:#4d4d4d;stroke-linecap:round;stroke-width:1.2;"/>
    <defs>
     <path d="M -2.4 2.4 
L 2.4 2.4 
L 2.4 -2.4 
L -2.4 -2.4 
z
" id="ma20ec69388" style="stroke:#ffffff;stroke-linejoin:miter;stroke-width:0.75;"/>
    </defs>
    <g clip-path="url(#pef3e1d5e23)">
     <use style="fill:#4d4d4d;stroke:#ffffff;stroke-linejoin:miter;stroke-width:0.75;" x="66.430662" xlink:href="#ma20ec69388" y="94.028052"/>
     <use style="fill:#4d4d4d;stroke:#ffffff;stroke-linejoin:miter;stroke-width:0.75;" x="74.853213" xlink:href="#ma20ec69388" y="79.217389"/>
     <use style="fill:#4d4d4d;stroke:#ffffff;stroke-linejoin:miter;stroke-width:0.75;" x="91.698315" xlink:href="#ma20ec69388" y="65.533657"/>
     <use style="fill:#4d4d4d;stroke:#ffffff;stroke-linejoin:miter;stroke-width:0.75;" x="128.451266" xlink:href="#ma20ec69388" y="49.206818"/>
     <use style="fill:#4d4d4d;stroke:#ffffff;stroke-linejoin:miter;stroke-width:0.75;" x="201.957166" xlink:href="#ma20ec69388" y="35.612155"/>
     <use style="fill:#4d4d4d;stroke:#ffffff;stroke-linejoin:miter;stroke-width:0.75;" x="345.906222" xlink:href="#ma20ec69388" y="28.575455"/>
    </g>
   </g>
   <g id="line2d_34">
    <path clip-path="url(#pef3e1d5e23)" d="M 66.430662 116.262167 
L 74.853213 101.305148 
L 91.698315 91.573174 
L 128.451266 77.438498 
L 201.957166 66.721731 
L 345.906222 54.388756 
" style="fill:none;stroke:#ff0080;stroke-linecap:round;stroke-width:1.2;"/>
    <defs>
     <path d="M 0 -2.4 
L -2.282536 -0.741641 
L -1.410685 1.941641 
L 1.410685 1.941641 
L 2.282536 -0.741641 
z
" id="mc13aa620df" style="stroke:#ffffff;stroke-linejoin:miter;stroke-width:0.75;"/>
    </defs>
    <g clip-path="url(#pef3e1d5e23)">
     <use style="fill:#ff0080;stroke:#ffffff;stroke-linejoin:miter;stroke-width:0.75;" x="66.430662" xlink:href="#mc13aa620df" y="116.262167"/>
     <use style="fill:#ff0080;stroke:#ffffff;stroke-linejoin:miter;stroke-width:0.75;" x="74.853213" xlink:href="#mc13aa620df" y="101.305148"/>
     <use style="fill:#ff0080;stroke:#ffffff;stroke-linejoin:miter;stroke-width:0.75;" x="91.698315" xlink:href="#mc13aa620df" y="91.573174"/>
     <use style="fill:#ff0080;stroke:#ffffff;stroke-linejoin:miter;stroke-width:0.75;" x="128.451266" xlink:href="#mc13aa620df" y="77.438498"/>
     <use style="fill:#ff0080;stroke:#ffffff;stroke-linejoin:miter;stroke-width:0.75;" x="201.957166" xlink:href="#mc13aa620df" y="66.721731"/>
     <use style="fill:#ff0080;stroke:#ffffff;stroke-linejoin:miter;stroke-width:0.75;" x="345.906222" xlink:href="#mc13aa620df" y="54.388756"/>
    </g>
   </g>
   <g id="line2d_35">
    <path clip-path="url(#pef3e1d5e23)" d="M 66.430662 113.567508 
L 74.853213 97.375444 
L 91.698315 86.996191 
L 128.451266 73.794471 
L 201.957166 62.304423 
L 345.906222 49.564671 
" style="fill:none;stroke:#a1a1a1;stroke-linecap:round;stroke-width:1.2;"/>
    <defs>
     <path d="M 0 -2.4 
L -2.4 2.4 
L 2.4 2.4 
z
" id="mc0c7364f98" style="stroke:#ffffff;stroke-linejoin:miter;stroke-width:0.75;"/>
    </defs>
    <g clip-path="url(#pef3e1d5e23)">
     <use style="fill:#a1a1a1;stroke:#ffffff;stroke-linejoin:miter;stroke-width:0.75;" x="66.430662" xlink:href="#mc0c7364f98" y="113.567508"/>
     <use style="fill:#a1a1a1;stroke:#ffffff;stroke-linejoin:miter;stroke-width:0.75;" x="74.853213" xlink:href="#mc0c7364f98" y="97.375444"/>
     <use style="fill:#a1a1a1;stroke:#ffffff;stroke-linejoin:miter;stroke-width:0.75;" x="91.698315" xlink:href="#mc0c7364f98" y="86.996191"/>
     <use style="fill:#a1a1a1;stroke:#ffffff;stroke-linejoin:miter;stroke-width:0.75;" x="128.451266" xlink:href="#mc0c7364f98" y="73.794471"/>
     <use style="fill:#a1a1a1;stroke:#ffffff;stroke-linejoin:miter;stroke-width:0.75;" x="201.957166" xlink:href="#mc0c7364f98" y="62.304423"/>
     <use style="fill:#a1a1a1;stroke:#ffffff;stroke-linejoin:miter;stroke-width:0.75;" x="345.906222" xlink:href="#mc0c7364f98" y="49.564671"/>
    </g>
   </g>
   <g id="line2d_36"/>
   <g id="line2d_37"/>
   <g id="line2d_38"/>
   <g id="line2d_39"/>
   <g id="line2d_40"/>
   <g id="line2d_41"/>
   <g id="line2d_42"/>
   <g id="line2d_43"/>
   <g id="patch_3">
    <path d="M 52.456884 137.932 
L 52.456884 23.368 
" style="fill:none;stroke:#cccccc;stroke-linecap:square;stroke-linejoin:miter;"/>
   </g>
   <g id="patch_4">
    <path d="M 359.88 137.932 
L 359.88 23.368 
" style="fill:none;stroke:#cccccc;stroke-linecap:square;stroke-linejoin:miter;"/>
   </g>
   <g id="patch_5">
    <path d="M 52.456884 137.932 
L 359.88 137.932 
" style="fill:none;stroke:#cccccc;stroke-linecap:square;stroke-linejoin:miter;"/>
   </g>
   <g id="patch_6">
    <path d="M 52.456884 23.368 
L 359.88 23.368 
" style="fill:none;stroke:#cccccc;stroke-linecap:square;stroke-linejoin:miter;"/>
   </g>
   <g id="text_13">
    <!-- All Txn -->
    <g style="fill:#262626;" transform="translate(191.583192 17.368)scale(0.096 -0.096)">
     <defs>
      <path d="M -0.140625 0 
L 27.34375 71.578125 
L 37.546875 71.578125 
L 66.84375 0 
L 56.0625 0 
L 47.703125 21.6875 
L 17.78125 21.6875 
L 9.90625 0 
z
M 20.515625 29.390625 
L 44.78125 29.390625 
L 37.3125 49.21875 
Q 33.890625 58.25 32.234375 64.0625 
Q 30.859375 57.171875 28.375 50.390625 
z
" id="ArialMT-65"/>
      <path d="M 25.921875 0 
L 25.921875 63.140625 
L 2.34375 63.140625 
L 2.34375 71.578125 
L 59.078125 71.578125 
L 59.078125 63.140625 
L 35.40625 63.140625 
L 35.40625 0 
z
" id="ArialMT-84"/>
     </defs>
     <use xlink:href="#ArialMT-65"/>
     <use x="66.699219" xlink:href="#ArialMT-108"/>
     <use x="88.916016" xlink:href="#ArialMT-108"/>
     <use x="111.132812" xlink:href="#ArialMT-32"/>
     <use x="137.166016" xlink:href="#ArialMT-84"/>
     <use x="198.25" xlink:href="#ArialMT-120"/>
     <use x="248.25" xlink:href="#ArialMT-110"/>
    </g>
   </g>
  </g>
  <g id="legend_1">
   <g id="text_14">
    <!-- CC -->
    <g style="fill:#262626;" transform="translate(392.545187 35.49025)scale(0.096 -0.096)">
     <use xlink:href="#ArialMT-67"/>
     <use x="72.216797" xlink:href="#ArialMT-67"/>
    </g>
   </g>
   <g id="line2d_44">
    <path d="M 362.876375 45.017125 
L 380.476375 45.017125 
" style="fill:none;stroke:#f15854;stroke-linecap:round;stroke-width:1.2;"/>
   </g>
   <g id="line2d_45">
    <defs>
     <path d="M 0 2.4 
C 0.636487 2.4 1.246992 2.147121 1.697056 1.697056 
C 2.147121 1.246992 2.4 0.636487 2.4 0 
C 2.4 -0.636487 2.147121 -1.246992 1.697056 -1.697056 
C 1.246992 -2.147121 0.636487 -2.4 0 -2.4 
C -0.636487 -2.4 -1.246992 -2.147121 -1.697056 -1.697056 
C -2.147121 -1.246992 -2.4 -0.636487 -2.4 0 
C -2.4 0.636487 -2.147121 1.246992 -1.697056 1.697056 
C -1.246992 2.147121 -0.636487 2.4 0 2.4 
z
" id="mb2b3b030e6" style="stroke:#f15854;"/>
    </defs>
    <g>
     <use style="fill:#f15854;stroke:#f15854;" x="371.676375" xlink:href="#mb2b3b030e6" y="45.017125"/>
    </g>
   </g>
   <g id="text_15">
    <!-- DL DETECT -->
    <g style="fill:#262626;" transform="translate(387.516375 48.097125)scale(0.088 -0.088)">
     <defs>
      <path d="M 7.71875 0 
L 7.71875 71.578125 
L 32.375 71.578125 
Q 40.71875 71.578125 45.125 70.5625 
Q 51.265625 69.140625 55.609375 65.4375 
Q 61.28125 60.640625 64.078125 53.1875 
Q 66.890625 45.75 66.890625 36.1875 
Q 66.890625 28.03125 64.984375 21.734375 
Q 63.09375 15.4375 60.109375 11.296875 
Q 57.125 7.171875 53.578125 4.796875 
Q 50.046875 2.4375 45.046875 1.21875 
Q 40.046875 0 33.546875 0 
z
M 17.1875 8.453125 
L 32.46875 8.453125 
Q 39.546875 8.453125 43.578125 9.765625 
Q 47.609375 11.078125 50 13.484375 
Q 53.375 16.84375 55.25 22.53125 
Q 57.125 28.21875 57.125 36.328125 
Q 57.125 47.5625 53.4375 53.59375 
Q 49.75 59.625 44.484375 61.671875 
Q 40.671875 63.140625 32.234375 63.140625 
L 17.1875 63.140625 
z
" id="ArialMT-68"/>
      <path d="M 7.328125 0 
L 7.328125 71.578125 
L 16.796875 71.578125 
L 16.796875 8.453125 
L 52.046875 8.453125 
L 52.046875 0 
z
" id="ArialMT-76"/>
      <path d="M 7.90625 0 
L 7.90625 71.578125 
L 59.671875 71.578125 
L 59.671875 63.140625 
L 17.390625 63.140625 
L 17.390625 41.21875 
L 56.984375 41.21875 
L 56.984375 32.8125 
L 17.390625 32.8125 
L 17.390625 8.453125 
L 61.328125 8.453125 
L 61.328125 0 
z
" id="ArialMT-69"/>
     </defs>
     <use xlink:href="#ArialMT-68"/>
     <use x="72.216797" xlink:href="#ArialMT-76"/>
     <use x="124.082031" xlink:href="#ArialMT-32"/>
     <use x="151.865234" xlink:href="#ArialMT-68"/>
     <use x="224.082031" xlink:href="#ArialMT-69"/>
     <use x="290.78125" xlink:href="#ArialMT-84"/>
     <use x="351.865234" xlink:href="#ArialMT-69"/>
     <use x="418.564453" xlink:href="#ArialMT-67"/>
     <use x="490.78125" xlink:href="#ArialMT-84"/>
    </g>
   </g>
   <g id="line2d_46">
    <path d="M 362.876375 57.465 
L 380.476375 57.465 
" style="fill:none;stroke:#decf3f;stroke-linecap:round;stroke-width:1.2;"/>
   </g>
   <g id="line2d_47">
    <defs>
     <path d="M -2.4 2.4 
L 2.4 2.4 
L 2.4 -2.4 
L -2.4 -2.4 
z
" id="m18a71dc869" style="stroke:#decf3f;stroke-linejoin:miter;"/>
    </defs>
    <g>
     <use style="fill:#decf3f;stroke:#decf3f;stroke-linejoin:miter;" x="371.676375" xlink:href="#m18a71dc869" y="57.465"/>
    </g>
   </g>
   <g id="text_16">
    <!-- WAIT DIE -->
    <g style="fill:#262626;" transform="translate(387.516375 60.545)scale(0.088 -0.088)">
     <defs>
      <path d="M 20.21875 0 
L 1.21875 71.578125 
L 10.9375 71.578125 
L 21.828125 24.65625 
Q 23.578125 17.28125 24.859375 10.015625 
Q 27.59375 21.484375 28.078125 23.25 
L 41.703125 71.578125 
L 53.125 71.578125 
L 63.375 35.359375 
Q 67.234375 21.875 68.953125 10.015625 
Q 70.3125 16.796875 72.515625 25.59375 
L 83.734375 71.578125 
L 93.265625 71.578125 
L 73.640625 0 
L 64.5 0 
L 49.421875 54.546875 
Q 47.515625 61.375 47.171875 62.9375 
Q 46.046875 58.015625 45.0625 54.546875 
L 29.890625 0 
z
" id="ArialMT-87"/>
      <path d="M 9.328125 0 
L 9.328125 71.578125 
L 18.796875 71.578125 
L 18.796875 0 
z
" id="ArialMT-73"/>
     </defs>
     <use xlink:href="#ArialMT-87"/>
     <use x="90.634766" xlink:href="#ArialMT-65"/>
     <use x="157.333984" xlink:href="#ArialMT-73"/>
     <use x="185.117188" xlink:href="#ArialMT-84"/>
     <use x="244.451172" xlink:href="#ArialMT-32"/>
     <use x="272.234375" xlink:href="#ArialMT-68"/>
     <use x="344.451172" xlink:href="#ArialMT-73"/>
     <use x="372.234375" xlink:href="#ArialMT-69"/>
    </g>
   </g>
   <g id="line2d_48">
    <path d="M 362.876375 69.912875 
L 380.476375 69.912875 
" style="fill:none;stroke:#faa43a;stroke-linecap:round;stroke-width:1.2;"/>
   </g>
   <g id="line2d_49">
    <defs>
     <path d="M 0 3.394113 
L 2.036468 0 
L 0 -3.394113 
L -2.036468 0 
z
" id="md8cab4b762" style="stroke:#faa43a;stroke-linejoin:miter;"/>
    </defs>
    <g>
     <use style="fill:#faa43a;stroke:#faa43a;stroke-linejoin:miter;" x="371.676375" xlink:href="#md8cab4b762" y="69.912875"/>
    </g>
   </g>
   <g id="text_17">
    <!-- NO WAIT -->
    <g style="fill:#262626;" transform="translate(387.516375 72.992875)scale(0.088 -0.088)">
     <defs>
      <path d="M 4.828125 34.859375 
Q 4.828125 52.6875 14.390625 62.765625 
Q 23.96875 72.859375 39.109375 72.859375 
Q 49.03125 72.859375 56.984375 68.109375 
Q 64.9375 63.375 69.109375 54.90625 
Q 73.296875 46.4375 73.296875 35.6875 
Q 73.296875 24.8125 68.890625 16.21875 
Q 64.5 7.625 56.4375 3.203125 
Q 48.390625 -1.21875 39.0625 -1.21875 
Q 28.953125 -1.21875 20.984375 3.65625 
Q 13.03125 8.546875 8.921875 16.984375 
Q 4.828125 25.4375 4.828125 34.859375 
z
M 14.59375 34.71875 
Q 14.59375 21.78125 21.546875 14.328125 
Q 28.515625 6.890625 39.015625 6.890625 
Q 49.703125 6.890625 56.609375 14.40625 
Q 63.53125 21.921875 63.53125 35.75 
Q 63.53125 44.484375 60.578125 51 
Q 57.625 57.515625 51.921875 61.109375 
Q 46.234375 64.703125 39.15625 64.703125 
Q 29.109375 64.703125 21.84375 57.78125 
Q 14.59375 50.875 14.59375 34.71875 
z
" id="ArialMT-79"/>
     </defs>
     <use xlink:href="#ArialMT-78"/>
     <use x="72.216797" xlink:href="#ArialMT-79"/>
     <use x="150" xlink:href="#ArialMT-32"/>
     <use x="177.783203" xlink:href="#ArialMT-87"/>
     <use x="268.417969" xlink:href="#ArialMT-65"/>
     <use x="335.117188" xlink:href="#ArialMT-73"/>
     <use x="362.900391" xlink:href="#ArialMT-84"/>
    </g>
   </g>
   <g id="line2d_50">
    <path d="M 362.876375 82.36075 
L 380.476375 82.36075 
" style="fill:none;stroke:#5da5da;stroke-linecap:round;stroke-width:1.2;"/>
   </g>
   <g id="line2d_51">
    <defs>
     <path d="M 0 -2.4 
L -2.282536 -0.741641 
L -1.410685 1.941641 
L 1.410685 1.941641 
L 2.282536 -0.741641 
z
" id="mf9427d2d7e" style="stroke:#5da5da;stroke-linejoin:miter;"/>
    </defs>
    <g>
     <use style="fill:#5da5da;stroke:#5da5da;stroke-linejoin:miter;" x="371.676375" xlink:href="#mf9427d2d7e" y="82.36075"/>
    </g>
   </g>
   <g id="text_18">
    <!-- MVCC -->
    <g style="fill:#262626;" transform="translate(387.516375 85.44075)scale(0.088 -0.088)">
     <defs>
      <path d="M 28.171875 0 
L 0.4375 71.578125 
L 10.6875 71.578125 
L 29.296875 19.578125 
Q 31.546875 13.328125 33.0625 7.859375 
Q 34.71875 13.71875 36.921875 19.578125 
L 56.25 71.578125 
L 65.921875 71.578125 
L 37.890625 0 
z
" id="ArialMT-86"/>
     </defs>
     <use xlink:href="#ArialMT-77"/>
     <use x="83.300781" xlink:href="#ArialMT-86"/>
     <use x="150" xlink:href="#ArialMT-67"/>
     <use x="222.216797" xlink:href="#ArialMT-67"/>
    </g>
   </g>
   <g id="line2d_52">
    <path d="M 362.876375 94.808625 
L 380.476375 94.808625 
" style="fill:none;stroke:#b276b2;stroke-linecap:round;stroke-width:1.2;"/>
   </g>
   <g id="line2d_53">
    <defs>
     <path d="M 0 2.4 
C 0.636487 2.4 1.246992 2.147121 1.697056 1.697056 
C 2.147121 1.246992 2.4 0.636487 2.4 0 
C 2.4 -0.636487 2.147121 -1.246992 1.697056 -1.697056 
C 1.246992 -2.147121 0.636487 -2.4 0 -2.4 
C -0.636487 -2.4 -1.246992 -2.147121 -1.697056 -1.697056 
C -2.147121 -1.246992 -2.4 -0.636487 -2.4 0 
C -2.4 0.636487 -2.147121 1.246992 -1.697056 1.697056 
C -1.246992 2.147121 -0.636487 2.4 0 2.4 
z
" id="ma2efb8b147" style="stroke:#b276b2;"/>
    </defs>
    <g>
     <use style="fill:#b276b2;stroke:#b276b2;" x="371.676375" xlink:href="#ma2efb8b147" y="94.808625"/>
    </g>
   </g>
   <g id="text_19">
    <!-- OCC -->
    <g style="fill:#262626;" transform="translate(387.516375 97.888625)scale(0.088 -0.088)">
     <use xlink:href="#ArialMT-79"/>
     <use x="77.783203" xlink:href="#ArialMT-67"/>
     <use x="150" xlink:href="#ArialMT-67"/>
    </g>
   </g>
   <g id="line2d_54">
    <path d="M 362.876375 107.2565 
L 380.476375 107.2565 
" style="fill:none;stroke:#4d4d4d;stroke-linecap:round;stroke-width:1.2;"/>
   </g>
   <g id="line2d_55">
    <defs>
     <path d="M -2.4 2.4 
L 2.4 2.4 
L 2.4 -2.4 
L -2.4 -2.4 
z
" id="m0a7d2de6f4" style="stroke:#4d4d4d;stroke-linejoin:miter;"/>
    </defs>
    <g>
     <use style="fill:#4d4d4d;stroke:#4d4d4d;stroke-linejoin:miter;" x="371.676375" xlink:href="#m0a7d2de6f4" y="107.2565"/>
    </g>
   </g>
   <g id="text_20">
    <!-- HSTORE -->
    <g style="fill:#262626;" transform="translate(387.516375 110.3365)scale(0.088 -0.088)">
     <defs>
      <path d="M 8.015625 0 
L 8.015625 71.578125 
L 17.484375 71.578125 
L 17.484375 42.1875 
L 54.6875 42.1875 
L 54.6875 71.578125 
L 64.15625 71.578125 
L 64.15625 0 
L 54.6875 0 
L 54.6875 33.734375 
L 17.484375 33.734375 
L 17.484375 0 
z
" id="ArialMT-72"/>
      <path d="M 4.5 23 
L 13.421875 23.78125 
Q 14.0625 18.40625 16.375 14.96875 
Q 18.703125 11.53125 23.578125 9.40625 
Q 28.46875 7.28125 34.578125 7.28125 
Q 39.984375 7.28125 44.140625 8.890625 
Q 48.296875 10.5 50.3125 13.296875 
Q 52.34375 16.109375 52.34375 19.4375 
Q 52.34375 22.796875 50.390625 25.3125 
Q 48.4375 27.828125 43.953125 29.546875 
Q 41.0625 30.671875 31.203125 33.03125 
Q 21.34375 35.40625 17.390625 37.5 
Q 12.25 40.1875 9.734375 44.15625 
Q 7.234375 48.140625 7.234375 53.078125 
Q 7.234375 58.5 10.296875 63.203125 
Q 13.375 67.921875 19.28125 70.359375 
Q 25.203125 72.796875 32.421875 72.796875 
Q 40.375 72.796875 46.453125 70.234375 
Q 52.546875 67.671875 55.8125 62.6875 
Q 59.078125 57.71875 59.328125 51.421875 
L 50.25 50.734375 
Q 49.515625 57.515625 45.28125 60.984375 
Q 41.0625 64.453125 32.8125 64.453125 
Q 24.21875 64.453125 20.28125 61.296875 
Q 16.359375 58.15625 16.359375 53.71875 
Q 16.359375 49.859375 19.140625 47.359375 
Q 21.875 44.875 33.421875 42.265625 
Q 44.96875 39.65625 49.265625 37.703125 
Q 55.515625 34.8125 58.484375 30.390625 
Q 61.46875 25.984375 61.46875 20.21875 
Q 61.46875 14.5 58.203125 9.4375 
Q 54.9375 4.390625 48.796875 1.578125 
Q 42.671875 -1.21875 35.015625 -1.21875 
Q 25.296875 -1.21875 18.71875 1.609375 
Q 12.15625 4.4375 8.421875 10.125 
Q 4.6875 15.828125 4.5 23 
z
" id="ArialMT-83"/>
      <path d="M 7.859375 0 
L 7.859375 71.578125 
L 39.59375 71.578125 
Q 49.171875 71.578125 54.140625 69.640625 
Q 59.125 67.71875 62.109375 62.828125 
Q 65.09375 57.953125 65.09375 52.046875 
Q 65.09375 44.4375 60.15625 39.203125 
Q 55.21875 33.984375 44.921875 32.5625 
Q 48.6875 30.765625 50.640625 29 
Q 54.78125 25.203125 58.5 19.484375 
L 70.953125 0 
L 59.03125 0 
L 49.5625 14.890625 
Q 45.40625 21.34375 42.71875 24.75 
Q 40.046875 28.171875 37.921875 29.53125 
Q 35.796875 30.90625 33.59375 31.453125 
Q 31.984375 31.78125 28.328125 31.78125 
L 17.328125 31.78125 
L 17.328125 0 
z
M 17.328125 39.984375 
L 37.703125 39.984375 
Q 44.1875 39.984375 47.84375 41.328125 
Q 51.515625 42.671875 53.421875 45.625 
Q 55.328125 48.578125 55.328125 52.046875 
Q 55.328125 57.125 51.640625 60.390625 
Q 47.953125 63.671875 39.984375 63.671875 
L 17.328125 63.671875 
z
" id="ArialMT-82"/>
     </defs>
     <use xlink:href="#ArialMT-72"/>
     <use x="72.216797" xlink:href="#ArialMT-83"/>
     <use x="138.916016" xlink:href="#ArialMT-84"/>
     <use x="198.25" xlink:href="#ArialMT-79"/>
     <use x="276.033203" xlink:href="#ArialMT-82"/>
     <use x="348.25" xlink:href="#ArialMT-69"/>
    </g>
   </g>
   <g id="line2d_56">
    <path d="M 362.876375 119.704375 
L 380.476375 119.704375 
" style="fill:none;stroke:#ff0080;stroke-linecap:round;stroke-width:1.2;"/>
   </g>
   <g id="line2d_57">
    <defs>
     <path d="M 0 -2.4 
L -2.282536 -0.741641 
L -1.410685 1.941641 
L 1.410685 1.941641 
L 2.282536 -0.741641 
z
" id="m329548ca0d" style="stroke:#ff0080;stroke-linejoin:miter;"/>
    </defs>
    <g>
     <use style="fill:#ff0080;stroke:#ff0080;stroke-linejoin:miter;" x="371.676375" xlink:href="#m329548ca0d" y="119.704375"/>
    </g>
   </g>
   <g id="text_21">
    <!-- SILO -->
    <g style="fill:#262626;" transform="translate(387.516375 122.784375)scale(0.088 -0.088)">
     <use xlink:href="#ArialMT-83"/>
     <use x="66.699219" xlink:href="#ArialMT-73"/>
     <use x="94.482422" xlink:href="#ArialMT-76"/>
     <use x="150.097656" xlink:href="#ArialMT-79"/>
    </g>
   </g>
   <g id="line2d_58">
    <path d="M 362.876375 132.15225 
L 380.476375 132.15225 
" style="fill:none;stroke:#a1a1a1;stroke-linecap:round;stroke-width:1.2;"/>
   </g>
   <g id="line2d_59">
    <defs>
     <path d="M 0 -2.4 
L -2.4 2.4 
L 2.4 2.4 
z
" id="md1f7693905" style="stroke:#a1a1a1;stroke-linejoin:miter;"/>
    </defs>
    <g>
     <use style="fill:#a1a1a1;stroke:#a1a1a1;stroke-linejoin:miter;" x="371.676375" xlink:href="#md1f7693905" y="132.15225"/>
    </g>
   </g>
   <g id="text_22">
    <!-- TICTOC -->
    <g style="fill:#262626;" transform="translate(387.516375 135.23225)scale(0.088 -0.088)">
     <use xlink:href="#ArialMT-84"/>
     <use x="61.083984" xlink:href="#ArialMT-73"/>
     <use x="88.867188" xlink:href="#ArialMT-67"/>
     <use x="161.083984" xlink:href="#ArialMT-84"/>
     <use x="220.417969" xlink:href="#ArialMT-79"/>
     <use x="298.201172" xlink:href="#ArialMT-67"/>
    </g>
   </g>
  </g>
 </g>
 <defs>
  <clipPath id="pef3e1d5e23">
   <rect height="114.564" width="307.423116" x="52.456884" y="23.368"/>
  </clipPath>
 </defs>
</svg>
