<?xml version="1.0" encoding="utf-8" standalone="no"?>
<!DOCTYPE svg PUBLIC "-//W3C//DTD SVG 1.1//EN"
  "http://www.w3.org/Graphics/SVG/1.1/DTD/svg11.dtd">
<!-- Created with matplotlib (https://matplotlib.org/) -->
<svg height="331.2pt" version="1.1" viewBox="0 0 444 331.2" width="444pt" xmlns="http://www.w3.org/2000/svg" xmlns:xlink="http://www.w3.org/1999/xlink">
 <metadata>
  <rdf:RDF xmlns:cc="http://creativecommons.org/ns#" xmlns:dc="http://purl.org/dc/elements/1.1/" xmlns:rdf="http://www.w3.org/1999/02/22-rdf-syntax-ns#">
   <cc:Work>
    <dc:type rdf:resource="http://purl.org/dc/dcmitype/StillImage"/>
    <dc:date>2021-04-16T18:08:06.574301</dc:date>
    <dc:format>image/svg+xml</dc:format>
    <dc:creator>
     <cc:Agent>
      <dc:title>Matplotlib v3.3.2, https://matplotlib.org/</dc:title>
     </cc:Agent>
    </dc:creator>
   </cc:Work>
  </rdf:RDF>
 </metadata>
 <defs>
  <style type="text/css">*{stroke-linecap:butt;stroke-linejoin:round;}</style>
 </defs>
 <g id="figure_1">
  <g id="patch_1">
   <path d="M 0 331.2 
L 444 331.2 
L 444 0 
L 0 0 
z
" style="fill:#ffffff;"/>
  </g>
  <g id="axes_1">
   <g id="patch_2">
    <path d="M 37.68004 151.766 
L 359.88 151.766 
L 359.88 23.368 
L 37.68004 23.368 
z
" style="fill:#ffffff;"/>
   </g>
   <g id="matplotlib.axis_1">
    <g id="xtick_1">
     <g id="line2d_1">
      <path clip-path="url(#p6eb524afb9)" d="M 51.304903 151.766 
L 51.304903 23.368 
" style="fill:none;stroke:#cccccc;stroke-linecap:round;stroke-width:0.8;"/>
     </g>
     <g id="text_1">
      <!-- 0 -->
      <g style="fill:#262626;" transform="translate(48.858091 159.864875)scale(0.088 -0.088)">
       <defs>
        <path d="M 4.15625 35.296875 
Q 4.15625 48 6.765625 55.734375 
Q 9.375 63.484375 14.515625 67.671875 
Q 19.671875 71.875 27.484375 71.875 
Q 33.25 71.875 37.59375 69.546875 
Q 41.9375 67.234375 44.765625 62.859375 
Q 47.609375 58.5 49.21875 52.21875 
Q 50.828125 45.953125 50.828125 35.296875 
Q 50.828125 22.703125 48.234375 14.96875 
Q 45.65625 7.234375 40.5 3 
Q 35.359375 -1.21875 27.484375 -1.21875 
Q 17.140625 -1.21875 11.234375 6.203125 
Q 4.15625 15.140625 4.15625 35.296875 
z
M 13.1875 35.296875 
Q 13.1875 17.671875 17.3125 11.828125 
Q 21.4375 6 27.484375 6 
Q 33.546875 6 37.671875 11.859375 
Q 41.796875 17.71875 41.796875 35.296875 
Q 41.796875 52.984375 37.671875 58.78125 
Q 33.546875 64.59375 27.390625 64.59375 
Q 21.34375 64.59375 17.71875 59.46875 
Q 13.1875 52.9375 13.1875 35.296875 
z
" id="ArialMT-48"/>
       </defs>
       <use xlink:href="#ArialMT-48"/>
      </g>
     </g>
    </g>
    <g id="xtick_2">
     <g id="line2d_2">
      <path clip-path="url(#p6eb524afb9)" d="M 102.334355 151.766 
L 102.334355 23.368 
" style="fill:none;stroke:#cccccc;stroke-linecap:round;stroke-width:0.8;"/>
     </g>
     <g id="text_2">
      <!-- 50 -->
      <g style="fill:#262626;" transform="translate(97.44073 159.864875)scale(0.088 -0.088)">
       <defs>
        <path d="M 4.15625 18.75 
L 13.375 19.53125 
Q 14.40625 12.796875 18.140625 9.390625 
Q 21.875 6 27.15625 6 
Q 33.5 6 37.890625 10.78125 
Q 42.28125 15.578125 42.28125 23.484375 
Q 42.28125 31 38.0625 35.34375 
Q 33.84375 39.703125 27 39.703125 
Q 22.75 39.703125 19.328125 37.765625 
Q 15.921875 35.84375 13.96875 32.765625 
L 5.71875 33.84375 
L 12.640625 70.609375 
L 48.25 70.609375 
L 48.25 62.203125 
L 19.671875 62.203125 
L 15.828125 42.96875 
Q 22.265625 47.46875 29.34375 47.46875 
Q 38.71875 47.46875 45.15625 40.96875 
Q 51.609375 34.46875 51.609375 24.265625 
Q 51.609375 14.546875 45.953125 7.46875 
Q 39.0625 -1.21875 27.15625 -1.21875 
Q 17.390625 -1.21875 11.203125 4.25 
Q 5.03125 9.71875 4.15625 18.75 
z
" id="ArialMT-53"/>
       </defs>
       <use xlink:href="#ArialMT-53"/>
       <use x="55.615234" xlink:href="#ArialMT-48"/>
      </g>
     </g>
    </g>
    <g id="xtick_3">
     <g id="line2d_3">
      <path clip-path="url(#p6eb524afb9)" d="M 153.363807 151.766 
L 153.363807 23.368 
" style="fill:none;stroke:#cccccc;stroke-linecap:round;stroke-width:0.8;"/>
     </g>
     <g id="text_3">
      <!-- 100 -->
      <g style="fill:#262626;" transform="translate(146.02337 159.864875)scale(0.088 -0.088)">
       <defs>
        <path d="M 37.25 0 
L 28.46875 0 
L 28.46875 56 
Q 25.296875 52.984375 20.140625 49.953125 
Q 14.984375 46.921875 10.890625 45.40625 
L 10.890625 53.90625 
Q 18.265625 57.375 23.78125 62.296875 
Q 29.296875 67.234375 31.59375 71.875 
L 37.25 71.875 
z
" id="ArialMT-49"/>
       </defs>
       <use xlink:href="#ArialMT-49"/>
       <use x="55.615234" xlink:href="#ArialMT-48"/>
       <use x="111.230469" xlink:href="#ArialMT-48"/>
      </g>
     </g>
    </g>
    <g id="xtick_4">
     <g id="line2d_4">
      <path clip-path="url(#p6eb524afb9)" d="M 204.393259 151.766 
L 204.393259 23.368 
" style="fill:none;stroke:#cccccc;stroke-linecap:round;stroke-width:0.8;"/>
     </g>
     <g id="text_4">
      <!-- 150 -->
      <g style="fill:#262626;" transform="translate(197.052822 159.864875)scale(0.088 -0.088)">
       <use xlink:href="#ArialMT-49"/>
       <use x="55.615234" xlink:href="#ArialMT-53"/>
       <use x="111.230469" xlink:href="#ArialMT-48"/>
      </g>
     </g>
    </g>
    <g id="xtick_5">
     <g id="line2d_5">
      <path clip-path="url(#p6eb524afb9)" d="M 255.422712 151.766 
L 255.422712 23.368 
" style="fill:none;stroke:#cccccc;stroke-linecap:round;stroke-width:0.8;"/>
     </g>
     <g id="text_5">
      <!-- 200 -->
      <g style="fill:#262626;" transform="translate(248.082274 159.864875)scale(0.088 -0.088)">
       <defs>
        <path d="M 50.34375 8.453125 
L 50.34375 0 
L 3.03125 0 
Q 2.9375 3.171875 4.046875 6.109375 
Q 5.859375 10.9375 9.828125 15.625 
Q 13.8125 20.3125 21.34375 26.46875 
Q 33.015625 36.03125 37.109375 41.625 
Q 41.21875 47.21875 41.21875 52.203125 
Q 41.21875 57.421875 37.46875 61 
Q 33.734375 64.59375 27.734375 64.59375 
Q 21.390625 64.59375 17.578125 60.78125 
Q 13.765625 56.984375 13.71875 50.25 
L 4.6875 51.171875 
Q 5.609375 61.28125 11.65625 66.578125 
Q 17.71875 71.875 27.9375 71.875 
Q 38.234375 71.875 44.234375 66.15625 
Q 50.25 60.453125 50.25 52 
Q 50.25 47.703125 48.484375 43.546875 
Q 46.734375 39.40625 42.65625 34.8125 
Q 38.578125 30.21875 29.109375 22.21875 
Q 21.1875 15.578125 18.9375 13.203125 
Q 16.703125 10.84375 15.234375 8.453125 
z
" id="ArialMT-50"/>
       </defs>
       <use xlink:href="#ArialMT-50"/>
       <use x="55.615234" xlink:href="#ArialMT-48"/>
       <use x="111.230469" xlink:href="#ArialMT-48"/>
      </g>
     </g>
    </g>
    <g id="xtick_6">
     <g id="line2d_6">
      <path clip-path="url(#p6eb524afb9)" d="M 306.452164 151.766 
L 306.452164 23.368 
" style="fill:none;stroke:#cccccc;stroke-linecap:round;stroke-width:0.8;"/>
     </g>
     <g id="text_6">
      <!-- 250 -->
      <g style="fill:#262626;" transform="translate(299.111726 159.864875)scale(0.088 -0.088)">
       <use xlink:href="#ArialMT-50"/>
       <use x="55.615234" xlink:href="#ArialMT-53"/>
       <use x="111.230469" xlink:href="#ArialMT-48"/>
      </g>
     </g>
    </g>
    <g id="xtick_7">
     <g id="line2d_7">
      <path clip-path="url(#p6eb524afb9)" d="M 357.481616 151.766 
L 357.481616 23.368 
" style="fill:none;stroke:#cccccc;stroke-linecap:round;stroke-width:0.8;"/>
     </g>
     <g id="text_7">
      <!-- 300 -->
      <g style="fill:#262626;" transform="translate(350.141178 159.864875)scale(0.088 -0.088)">
       <defs>
        <path d="M 4.203125 18.890625 
L 12.984375 20.0625 
Q 14.5 12.59375 18.140625 9.296875 
Q 21.78125 6 27 6 
Q 33.203125 6 37.46875 10.296875 
Q 41.75 14.59375 41.75 20.953125 
Q 41.75 27 37.796875 30.921875 
Q 33.84375 34.859375 27.734375 34.859375 
Q 25.25 34.859375 21.53125 33.890625 
L 22.515625 41.609375 
Q 23.390625 41.5 23.921875 41.5 
Q 29.546875 41.5 34.03125 44.421875 
Q 38.53125 47.359375 38.53125 53.46875 
Q 38.53125 58.296875 35.25 61.46875 
Q 31.984375 64.65625 26.8125 64.65625 
Q 21.6875 64.65625 18.265625 61.421875 
Q 14.84375 58.203125 13.875 51.765625 
L 5.078125 53.328125 
Q 6.6875 62.15625 12.390625 67.015625 
Q 18.109375 71.875 26.609375 71.875 
Q 32.46875 71.875 37.390625 69.359375 
Q 42.328125 66.84375 44.9375 62.5 
Q 47.5625 58.15625 47.5625 53.265625 
Q 47.5625 48.640625 45.0625 44.828125 
Q 42.578125 41.015625 37.703125 38.765625 
Q 44.046875 37.3125 47.5625 32.6875 
Q 51.078125 28.078125 51.078125 21.140625 
Q 51.078125 11.765625 44.234375 5.25 
Q 37.40625 -1.265625 26.953125 -1.265625 
Q 17.53125 -1.265625 11.296875 4.34375 
Q 5.078125 9.96875 4.203125 18.890625 
z
" id="ArialMT-51"/>
       </defs>
       <use xlink:href="#ArialMT-51"/>
       <use x="55.615234" xlink:href="#ArialMT-48"/>
       <use x="111.230469" xlink:href="#ArialMT-48"/>
      </g>
     </g>
    </g>
   </g>
   <g id="matplotlib.axis_2">
    <g id="ytick_1">
     <g id="line2d_8">
      <path clip-path="url(#p6eb524afb9)" d="M 37.68004 151.766 
L 359.88 151.766 
" style="fill:none;stroke:#cccccc;stroke-linecap:round;stroke-width:0.8;"/>
     </g>
     <g id="text_8">
      <!-- 0.00% -->
      <g style="fill:#262626;" transform="translate(4.42929 154.915437)scale(0.088 -0.088)">
       <defs>
        <path d="M 9.078125 0 
L 9.078125 10.015625 
L 19.09375 10.015625 
L 19.09375 0 
z
" id="ArialMT-46"/>
        <path d="M 5.8125 54.390625 
Q 5.8125 62.0625 9.671875 67.421875 
Q 13.53125 72.796875 20.84375 72.796875 
Q 27.59375 72.796875 32 67.984375 
Q 36.421875 63.1875 36.421875 53.859375 
Q 36.421875 44.78125 31.953125 39.875 
Q 27.484375 34.96875 20.953125 34.96875 
Q 14.453125 34.96875 10.125 39.796875 
Q 5.8125 44.625 5.8125 54.390625 
z
M 21.09375 66.75 
Q 17.828125 66.75 15.65625 63.90625 
Q 13.484375 61.078125 13.484375 53.515625 
Q 13.484375 46.625 15.671875 43.8125 
Q 17.875 41.015625 21.09375 41.015625 
Q 24.421875 41.015625 26.59375 43.84375 
Q 28.765625 46.6875 28.765625 54.203125 
Q 28.765625 61.140625 26.5625 63.9375 
Q 24.359375 66.75 21.09375 66.75 
z
M 21.140625 -2.640625 
L 60.296875 72.796875 
L 67.4375 72.796875 
L 28.421875 -2.640625 
z
M 52.09375 16.796875 
Q 52.09375 24.515625 55.953125 29.859375 
Q 59.8125 35.203125 67.1875 35.203125 
Q 73.921875 35.203125 78.34375 30.390625 
Q 82.765625 25.59375 82.765625 16.265625 
Q 82.765625 7.171875 78.296875 2.265625 
Q 73.828125 -2.640625 67.234375 -2.640625 
Q 60.75 -2.640625 56.421875 2.21875 
Q 52.09375 7.078125 52.09375 16.796875 
z
M 67.4375 29.15625 
Q 64.109375 29.15625 61.9375 26.3125 
Q 59.765625 23.484375 59.765625 15.921875 
Q 59.765625 9.078125 61.953125 6.25 
Q 64.15625 3.421875 67.390625 3.421875 
Q 70.75 3.421875 72.921875 6.25 
Q 75.09375 9.078125 75.09375 16.609375 
Q 75.09375 23.53125 72.890625 26.34375 
Q 70.703125 29.15625 67.4375 29.15625 
z
" id="ArialMT-37"/>
       </defs>
       <use xlink:href="#ArialMT-48"/>
       <use x="55.615234" xlink:href="#ArialMT-46"/>
       <use x="83.398438" xlink:href="#ArialMT-48"/>
       <use x="139.013672" xlink:href="#ArialMT-48"/>
       <use x="194.628906" xlink:href="#ArialMT-37"/>
      </g>
     </g>
    </g>
    <g id="ytick_2">
     <g id="line2d_9">
      <path clip-path="url(#p6eb524afb9)" d="M 37.68004 126.767998 
L 359.88 126.767998 
" style="fill:none;stroke:#cccccc;stroke-linecap:round;stroke-width:0.8;"/>
     </g>
     <g id="text_9">
      <!-- 20.00% -->
      <g style="fill:#262626;" transform="translate(-0.464335 129.917435)scale(0.088 -0.088)">
       <use xlink:href="#ArialMT-50"/>
       <use x="55.615234" xlink:href="#ArialMT-48"/>
       <use x="111.230469" xlink:href="#ArialMT-46"/>
       <use x="139.013672" xlink:href="#ArialMT-48"/>
       <use x="194.628906" xlink:href="#ArialMT-48"/>
       <use x="250.244141" xlink:href="#ArialMT-37"/>
      </g>
     </g>
    </g>
    <g id="ytick_3">
     <g id="line2d_10">
      <path clip-path="url(#p6eb524afb9)" d="M 37.68004 101.769995 
L 359.88 101.769995 
" style="fill:none;stroke:#cccccc;stroke-linecap:round;stroke-width:0.8;"/>
     </g>
     <g id="text_10">
      <!-- 40.00% -->
      <g style="fill:#262626;" transform="translate(-0.464335 104.919433)scale(0.088 -0.088)">
       <defs>
        <path d="M 32.328125 0 
L 32.328125 17.140625 
L 1.265625 17.140625 
L 1.265625 25.203125 
L 33.9375 71.578125 
L 41.109375 71.578125 
L 41.109375 25.203125 
L 50.78125 25.203125 
L 50.78125 17.140625 
L 41.109375 17.140625 
L 41.109375 0 
z
M 32.328125 25.203125 
L 32.328125 57.46875 
L 9.90625 25.203125 
z
" id="ArialMT-52"/>
       </defs>
       <use xlink:href="#ArialMT-52"/>
       <use x="55.615234" xlink:href="#ArialMT-48"/>
       <use x="111.230469" xlink:href="#ArialMT-46"/>
       <use x="139.013672" xlink:href="#ArialMT-48"/>
       <use x="194.628906" xlink:href="#ArialMT-48"/>
       <use x="250.244141" xlink:href="#ArialMT-37"/>
      </g>
     </g>
    </g>
    <g id="ytick_4">
     <g id="line2d_11">
      <path clip-path="url(#p6eb524afb9)" d="M 37.68004 76.771993 
L 359.88 76.771993 
" style="fill:none;stroke:#cccccc;stroke-linecap:round;stroke-width:0.8;"/>
     </g>
     <g id="text_11">
      <!-- 60.00% -->
      <g style="fill:#262626;" transform="translate(-0.464335 79.921431)scale(0.088 -0.088)">
       <defs>
        <path d="M 49.75 54.046875 
L 41.015625 53.375 
Q 39.84375 58.546875 37.703125 60.890625 
Q 34.125 64.65625 28.90625 64.65625 
Q 24.703125 64.65625 21.53125 62.3125 
Q 17.390625 59.28125 14.984375 53.46875 
Q 12.59375 47.65625 12.5 36.921875 
Q 15.671875 41.75 20.265625 44.09375 
Q 24.859375 46.4375 29.890625 46.4375 
Q 38.671875 46.4375 44.84375 39.96875 
Q 51.03125 33.5 51.03125 23.25 
Q 51.03125 16.5 48.125 10.71875 
Q 45.21875 4.9375 40.140625 1.859375 
Q 35.0625 -1.21875 28.609375 -1.21875 
Q 17.625 -1.21875 10.6875 6.859375 
Q 3.765625 14.9375 3.765625 33.5 
Q 3.765625 54.25 11.421875 63.671875 
Q 18.109375 71.875 29.4375 71.875 
Q 37.890625 71.875 43.28125 67.140625 
Q 48.6875 62.40625 49.75 54.046875 
z
M 13.875 23.1875 
Q 13.875 18.65625 15.796875 14.5 
Q 17.71875 10.359375 21.1875 8.171875 
Q 24.65625 6 28.46875 6 
Q 34.03125 6 38.03125 10.484375 
Q 42.046875 14.984375 42.046875 22.703125 
Q 42.046875 30.125 38.078125 34.390625 
Q 34.125 38.671875 28.125 38.671875 
Q 22.171875 38.671875 18.015625 34.390625 
Q 13.875 30.125 13.875 23.1875 
z
" id="ArialMT-54"/>
       </defs>
       <use xlink:href="#ArialMT-54"/>
       <use x="55.615234" xlink:href="#ArialMT-48"/>
       <use x="111.230469" xlink:href="#ArialMT-46"/>
       <use x="139.013672" xlink:href="#ArialMT-48"/>
       <use x="194.628906" xlink:href="#ArialMT-48"/>
       <use x="250.244141" xlink:href="#ArialMT-37"/>
      </g>
     </g>
    </g>
    <g id="ytick_5">
     <g id="line2d_12">
      <path clip-path="url(#p6eb524afb9)" d="M 37.68004 51.773991 
L 359.88 51.773991 
" style="fill:none;stroke:#cccccc;stroke-linecap:round;stroke-width:0.8;"/>
     </g>
     <g id="text_12">
      <!-- 80.00% -->
      <g style="fill:#262626;" transform="translate(-0.464335 54.923428)scale(0.088 -0.088)">
       <defs>
        <path d="M 17.671875 38.8125 
Q 12.203125 40.828125 9.5625 44.53125 
Q 6.9375 48.25 6.9375 53.421875 
Q 6.9375 61.234375 12.546875 66.546875 
Q 18.171875 71.875 27.484375 71.875 
Q 36.859375 71.875 42.578125 66.421875 
Q 48.296875 60.984375 48.296875 53.171875 
Q 48.296875 48.1875 45.671875 44.5 
Q 43.0625 40.828125 37.75 38.8125 
Q 44.34375 36.671875 47.78125 31.875 
Q 51.21875 27.09375 51.21875 20.453125 
Q 51.21875 11.28125 44.71875 5.03125 
Q 38.234375 -1.21875 27.640625 -1.21875 
Q 17.046875 -1.21875 10.546875 5.046875 
Q 4.046875 11.328125 4.046875 20.703125 
Q 4.046875 27.6875 7.59375 32.390625 
Q 11.140625 37.109375 17.671875 38.8125 
z
M 15.921875 53.71875 
Q 15.921875 48.640625 19.1875 45.40625 
Q 22.46875 42.1875 27.6875 42.1875 
Q 32.765625 42.1875 36.015625 45.375 
Q 39.265625 48.578125 39.265625 53.21875 
Q 39.265625 58.0625 35.90625 61.359375 
Q 32.5625 64.65625 27.59375 64.65625 
Q 22.5625 64.65625 19.234375 61.421875 
Q 15.921875 58.203125 15.921875 53.71875 
z
M 13.09375 20.65625 
Q 13.09375 16.890625 14.875 13.375 
Q 16.65625 9.859375 20.171875 7.921875 
Q 23.6875 6 27.734375 6 
Q 34.03125 6 38.125 10.046875 
Q 42.234375 14.109375 42.234375 20.359375 
Q 42.234375 26.703125 38.015625 30.859375 
Q 33.796875 35.015625 27.4375 35.015625 
Q 21.234375 35.015625 17.15625 30.90625 
Q 13.09375 26.8125 13.09375 20.65625 
z
" id="ArialMT-56"/>
       </defs>
       <use xlink:href="#ArialMT-56"/>
       <use x="55.615234" xlink:href="#ArialMT-48"/>
       <use x="111.230469" xlink:href="#ArialMT-46"/>
       <use x="139.013672" xlink:href="#ArialMT-48"/>
       <use x="194.628906" xlink:href="#ArialMT-48"/>
       <use x="250.244141" xlink:href="#ArialMT-37"/>
      </g>
     </g>
    </g>
    <g id="ytick_6">
     <g id="line2d_13">
      <path clip-path="url(#p6eb524afb9)" d="M 37.68004 26.775989 
L 359.88 26.775989 
" style="fill:none;stroke:#cccccc;stroke-linecap:round;stroke-width:0.8;"/>
     </g>
     <g id="text_13">
      <!-- 100.00% -->
      <g style="fill:#262626;" transform="translate(-5.35796 29.925426)scale(0.088 -0.088)">
       <use xlink:href="#ArialMT-49"/>
       <use x="55.615234" xlink:href="#ArialMT-48"/>
       <use x="111.230469" xlink:href="#ArialMT-48"/>
       <use x="166.845703" xlink:href="#ArialMT-46"/>
       <use x="194.628906" xlink:href="#ArialMT-48"/>
       <use x="250.244141" xlink:href="#ArialMT-48"/>
       <use x="305.859375" xlink:href="#ArialMT-37"/>
      </g>
     </g>
    </g>
    <g id="text_14">
     <!-- Abort/Total -->
     <g style="fill:#262626;" transform="translate(-11.26596 110.50875)rotate(-90)scale(0.096 -0.096)">
      <defs>
       <path d="M -0.140625 0 
L 27.34375 71.578125 
L 37.546875 71.578125 
L 66.84375 0 
L 56.0625 0 
L 47.703125 21.6875 
L 17.78125 21.6875 
L 9.90625 0 
z
M 20.515625 29.390625 
L 44.78125 29.390625 
L 37.3125 49.21875 
Q 33.890625 58.25 32.234375 64.0625 
Q 30.859375 57.171875 28.375 50.390625 
z
" id="ArialMT-65"/>
       <path d="M 14.703125 0 
L 6.546875 0 
L 6.546875 71.578125 
L 15.328125 71.578125 
L 15.328125 46.046875 
Q 20.90625 53.03125 29.546875 53.03125 
Q 34.328125 53.03125 38.59375 51.09375 
Q 42.875 49.171875 45.625 45.671875 
Q 48.390625 42.1875 49.953125 37.25 
Q 51.515625 32.328125 51.515625 26.703125 
Q 51.515625 13.375 44.921875 6.09375 
Q 38.328125 -1.171875 29.109375 -1.171875 
Q 19.921875 -1.171875 14.703125 6.5 
z
M 14.59375 26.3125 
Q 14.59375 17 17.140625 12.84375 
Q 21.296875 6.0625 28.375 6.0625 
Q 34.125 6.0625 38.328125 11.0625 
Q 42.53125 16.0625 42.53125 25.984375 
Q 42.53125 36.140625 38.5 40.96875 
Q 34.46875 45.796875 28.765625 45.796875 
Q 23 45.796875 18.796875 40.796875 
Q 14.59375 35.796875 14.59375 26.3125 
z
" id="ArialMT-98"/>
       <path d="M 3.328125 25.921875 
Q 3.328125 40.328125 11.328125 47.265625 
Q 18.015625 53.03125 27.640625 53.03125 
Q 38.328125 53.03125 45.109375 46.015625 
Q 51.90625 39.015625 51.90625 26.65625 
Q 51.90625 16.65625 48.90625 10.90625 
Q 45.90625 5.171875 40.15625 2 
Q 34.421875 -1.171875 27.640625 -1.171875 
Q 16.75 -1.171875 10.03125 5.8125 
Q 3.328125 12.796875 3.328125 25.921875 
z
M 12.359375 25.921875 
Q 12.359375 15.96875 16.703125 11.015625 
Q 21.046875 6.0625 27.640625 6.0625 
Q 34.1875 6.0625 38.53125 11.03125 
Q 42.875 16.015625 42.875 26.21875 
Q 42.875 35.84375 38.5 40.796875 
Q 34.125 45.75 27.640625 45.75 
Q 21.046875 45.75 16.703125 40.8125 
Q 12.359375 35.890625 12.359375 25.921875 
z
" id="ArialMT-111"/>
       <path d="M 6.5 0 
L 6.5 51.859375 
L 14.40625 51.859375 
L 14.40625 44 
Q 17.4375 49.515625 20 51.265625 
Q 22.5625 53.03125 25.640625 53.03125 
Q 30.078125 53.03125 34.671875 50.203125 
L 31.640625 42.046875 
Q 28.421875 43.953125 25.203125 43.953125 
Q 22.3125 43.953125 20.015625 42.21875 
Q 17.71875 40.484375 16.75 37.40625 
Q 15.28125 32.71875 15.28125 27.15625 
L 15.28125 0 
z
" id="ArialMT-114"/>
       <path d="M 25.78125 7.859375 
L 27.046875 0.09375 
Q 23.34375 -0.6875 20.40625 -0.6875 
Q 15.625 -0.6875 12.984375 0.828125 
Q 10.359375 2.34375 9.28125 4.8125 
Q 8.203125 7.28125 8.203125 15.1875 
L 8.203125 45.015625 
L 1.765625 45.015625 
L 1.765625 51.859375 
L 8.203125 51.859375 
L 8.203125 64.703125 
L 16.9375 69.96875 
L 16.9375 51.859375 
L 25.78125 51.859375 
L 25.78125 45.015625 
L 16.9375 45.015625 
L 16.9375 14.703125 
Q 16.9375 10.9375 17.40625 9.859375 
Q 17.875 8.796875 18.921875 8.15625 
Q 19.96875 7.515625 21.921875 7.515625 
Q 23.390625 7.515625 25.78125 7.859375 
z
" id="ArialMT-116"/>
       <path d="M 0 -1.21875 
L 20.75 72.796875 
L 27.78125 72.796875 
L 7.078125 -1.21875 
z
" id="ArialMT-47"/>
       <path d="M 25.921875 0 
L 25.921875 63.140625 
L 2.34375 63.140625 
L 2.34375 71.578125 
L 59.078125 71.578125 
L 59.078125 63.140625 
L 35.40625 63.140625 
L 35.40625 0 
z
" id="ArialMT-84"/>
       <path d="M 40.4375 6.390625 
Q 35.546875 2.25 31.03125 0.53125 
Q 26.515625 -1.171875 21.34375 -1.171875 
Q 12.796875 -1.171875 8.203125 3 
Q 3.609375 7.171875 3.609375 13.671875 
Q 3.609375 17.484375 5.34375 20.625 
Q 7.078125 23.78125 9.890625 25.6875 
Q 12.703125 27.59375 16.21875 28.5625 
Q 18.796875 29.25 24.03125 29.890625 
Q 34.671875 31.15625 39.703125 32.90625 
Q 39.75 34.71875 39.75 35.203125 
Q 39.75 40.578125 37.25 42.78125 
Q 33.890625 45.75 27.25 45.75 
Q 21.046875 45.75 18.09375 43.578125 
Q 15.140625 41.40625 13.71875 35.890625 
L 5.125 37.0625 
Q 6.296875 42.578125 8.984375 45.96875 
Q 11.671875 49.359375 16.75 51.1875 
Q 21.828125 53.03125 28.515625 53.03125 
Q 35.15625 53.03125 39.296875 51.46875 
Q 43.453125 49.90625 45.40625 47.53125 
Q 47.359375 45.171875 48.140625 41.546875 
Q 48.578125 39.3125 48.578125 33.453125 
L 48.578125 21.734375 
Q 48.578125 9.46875 49.140625 6.21875 
Q 49.703125 2.984375 51.375 0 
L 42.1875 0 
Q 40.828125 2.734375 40.4375 6.390625 
z
M 39.703125 26.03125 
Q 34.90625 24.078125 25.34375 22.703125 
Q 19.921875 21.921875 17.671875 20.9375 
Q 15.4375 19.96875 14.203125 18.09375 
Q 12.984375 16.21875 12.984375 13.921875 
Q 12.984375 10.40625 15.640625 8.0625 
Q 18.3125 5.71875 23.4375 5.71875 
Q 28.515625 5.71875 32.46875 7.9375 
Q 36.421875 10.15625 38.28125 14.015625 
Q 39.703125 17 39.703125 22.796875 
z
" id="ArialMT-97"/>
       <path d="M 6.390625 0 
L 6.390625 71.578125 
L 15.1875 71.578125 
L 15.1875 0 
z
" id="ArialMT-108"/>
      </defs>
      <use xlink:href="#ArialMT-65"/>
      <use x="66.699219" xlink:href="#ArialMT-98"/>
      <use x="122.314453" xlink:href="#ArialMT-111"/>
      <use x="177.929688" xlink:href="#ArialMT-114"/>
      <use x="211.230469" xlink:href="#ArialMT-116"/>
      <use x="239.013672" xlink:href="#ArialMT-47"/>
      <use x="266.796875" xlink:href="#ArialMT-84"/>
      <use x="316.755859" xlink:href="#ArialMT-111"/>
      <use x="372.371094" xlink:href="#ArialMT-116"/>
      <use x="400.154297" xlink:href="#ArialMT-97"/>
      <use x="455.769531" xlink:href="#ArialMT-108"/>
     </g>
    </g>
   </g>
   <g id="line2d_14">
    <path clip-path="url(#p6eb524afb9)" d="M 52.325492 151.766 
L 53.346081 151.766 
L 55.387259 151.766 
L 59.469616 151.73439 
L 67.634328 151.698158 
L 75.79904 151.674299 
L 100.293177 150.467708 
L 149.281451 138.656415 
L 247.257999 54.570949 
L 345.234547 47.40993 
" style="fill:none;stroke:#f15854;stroke-linecap:round;stroke-width:1.2;"/>
    <defs>
     <path d="M 0 2.4 
C 0.636487 2.4 1.246992 2.147121 1.697056 1.697056 
C 2.147121 1.246992 2.4 0.636487 2.4 0 
C 2.4 -0.636487 2.147121 -1.246992 1.697056 -1.697056 
C 1.246992 -2.147121 0.636487 -2.4 0 -2.4 
C -0.636487 -2.4 -1.246992 -2.147121 -1.697056 -1.697056 
C -2.147121 -1.246992 -2.4 -0.636487 -2.4 0 
C -2.4 0.636487 -2.147121 1.246992 -1.697056 1.697056 
C -1.246992 2.147121 -0.636487 2.4 0 2.4 
z
" id="m95c53c2ddf" style="stroke:#ffffff;stroke-width:0.75;"/>
    </defs>
    <g clip-path="url(#p6eb524afb9)">
     <use style="fill:#f15854;stroke:#ffffff;stroke-width:0.75;" x="52.325492" xlink:href="#m95c53c2ddf" y="151.766"/>
     <use style="fill:#f15854;stroke:#ffffff;stroke-width:0.75;" x="53.346081" xlink:href="#m95c53c2ddf" y="151.766"/>
     <use style="fill:#f15854;stroke:#ffffff;stroke-width:0.75;" x="55.387259" xlink:href="#m95c53c2ddf" y="151.766"/>
     <use style="fill:#f15854;stroke:#ffffff;stroke-width:0.75;" x="59.469616" xlink:href="#m95c53c2ddf" y="151.73439"/>
     <use style="fill:#f15854;stroke:#ffffff;stroke-width:0.75;" x="67.634328" xlink:href="#m95c53c2ddf" y="151.698158"/>
     <use style="fill:#f15854;stroke:#ffffff;stroke-width:0.75;" x="75.79904" xlink:href="#m95c53c2ddf" y="151.674299"/>
     <use style="fill:#f15854;stroke:#ffffff;stroke-width:0.75;" x="100.293177" xlink:href="#m95c53c2ddf" y="150.467708"/>
     <use style="fill:#f15854;stroke:#ffffff;stroke-width:0.75;" x="149.281451" xlink:href="#m95c53c2ddf" y="138.656415"/>
     <use style="fill:#f15854;stroke:#ffffff;stroke-width:0.75;" x="247.257999" xlink:href="#m95c53c2ddf" y="54.570949"/>
     <use style="fill:#f15854;stroke:#ffffff;stroke-width:0.75;" x="345.234547" xlink:href="#m95c53c2ddf" y="47.40993"/>
    </g>
   </g>
   <g id="line2d_15">
    <path clip-path="url(#p6eb524afb9)" d="M 52.325492 151.766 
L 53.346081 151.757322 
L 55.387259 151.739079 
L 59.469616 136.454565 
L 67.634328 106.913862 
L 75.79904 79.154503 
L 100.293177 47.13275 
L 149.281451 35.624109 
L 247.257999 33.124509 
L 345.234547 31.739762 
" style="fill:none;stroke:#decf3f;stroke-linecap:round;stroke-width:1.2;"/>
    <defs>
     <path d="M -2.4 2.4 
L 2.4 2.4 
L 2.4 -2.4 
L -2.4 -2.4 
z
" id="mf8220a5750" style="stroke:#ffffff;stroke-linejoin:miter;stroke-width:0.75;"/>
    </defs>
    <g clip-path="url(#p6eb524afb9)">
     <use style="fill:#decf3f;stroke:#ffffff;stroke-linejoin:miter;stroke-width:0.75;" x="52.325492" xlink:href="#mf8220a5750" y="151.766"/>
     <use style="fill:#decf3f;stroke:#ffffff;stroke-linejoin:miter;stroke-width:0.75;" x="53.346081" xlink:href="#mf8220a5750" y="151.757322"/>
     <use style="fill:#decf3f;stroke:#ffffff;stroke-linejoin:miter;stroke-width:0.75;" x="55.387259" xlink:href="#mf8220a5750" y="151.739079"/>
     <use style="fill:#decf3f;stroke:#ffffff;stroke-linejoin:miter;stroke-width:0.75;" x="59.469616" xlink:href="#mf8220a5750" y="136.454565"/>
     <use style="fill:#decf3f;stroke:#ffffff;stroke-linejoin:miter;stroke-width:0.75;" x="67.634328" xlink:href="#mf8220a5750" y="106.913862"/>
     <use style="fill:#decf3f;stroke:#ffffff;stroke-linejoin:miter;stroke-width:0.75;" x="75.79904" xlink:href="#mf8220a5750" y="79.154503"/>
     <use style="fill:#decf3f;stroke:#ffffff;stroke-linejoin:miter;stroke-width:0.75;" x="100.293177" xlink:href="#mf8220a5750" y="47.13275"/>
     <use style="fill:#decf3f;stroke:#ffffff;stroke-linejoin:miter;stroke-width:0.75;" x="149.281451" xlink:href="#mf8220a5750" y="35.624109"/>
     <use style="fill:#decf3f;stroke:#ffffff;stroke-linejoin:miter;stroke-width:0.75;" x="247.257999" xlink:href="#mf8220a5750" y="33.124509"/>
     <use style="fill:#decf3f;stroke:#ffffff;stroke-linejoin:miter;stroke-width:0.75;" x="345.234547" xlink:href="#mf8220a5750" y="31.739762"/>
    </g>
   </g>
   <g id="line2d_16">
    <path clip-path="url(#p6eb524afb9)" d="M 52.325492 151.766 
L 53.346081 151.754747 
L 55.387259 151.73553 
L 59.469616 131.68356 
L 67.634328 99.984486 
L 75.79904 82.625101 
L 100.293177 58.013373 
L 149.281451 34.602054 
L 247.257999 31.010756 
L 345.234547 29.757927 
" style="fill:none;stroke:#faa43a;stroke-linecap:round;stroke-width:1.2;"/>
    <defs>
     <path d="M 0 3.394113 
L 2.036468 0 
L 0 -3.394113 
L -2.036468 0 
z
" id="ma8d557e749" style="stroke:#ffffff;stroke-linejoin:miter;stroke-width:0.75;"/>
    </defs>
    <g clip-path="url(#p6eb524afb9)">
     <use style="fill:#faa43a;stroke:#ffffff;stroke-linejoin:miter;stroke-width:0.75;" x="52.325492" xlink:href="#ma8d557e749" y="151.766"/>
     <use style="fill:#faa43a;stroke:#ffffff;stroke-linejoin:miter;stroke-width:0.75;" x="53.346081" xlink:href="#ma8d557e749" y="151.754747"/>
     <use style="fill:#faa43a;stroke:#ffffff;stroke-linejoin:miter;stroke-width:0.75;" x="55.387259" xlink:href="#ma8d557e749" y="151.73553"/>
     <use style="fill:#faa43a;stroke:#ffffff;stroke-linejoin:miter;stroke-width:0.75;" x="59.469616" xlink:href="#ma8d557e749" y="131.68356"/>
     <use style="fill:#faa43a;stroke:#ffffff;stroke-linejoin:miter;stroke-width:0.75;" x="67.634328" xlink:href="#ma8d557e749" y="99.984486"/>
     <use style="fill:#faa43a;stroke:#ffffff;stroke-linejoin:miter;stroke-width:0.75;" x="75.79904" xlink:href="#ma8d557e749" y="82.625101"/>
     <use style="fill:#faa43a;stroke:#ffffff;stroke-linejoin:miter;stroke-width:0.75;" x="100.293177" xlink:href="#ma8d557e749" y="58.013373"/>
     <use style="fill:#faa43a;stroke:#ffffff;stroke-linejoin:miter;stroke-width:0.75;" x="149.281451" xlink:href="#ma8d557e749" y="34.602054"/>
     <use style="fill:#faa43a;stroke:#ffffff;stroke-linejoin:miter;stroke-width:0.75;" x="247.257999" xlink:href="#ma8d557e749" y="31.010756"/>
     <use style="fill:#faa43a;stroke:#ffffff;stroke-linejoin:miter;stroke-width:0.75;" x="345.234547" xlink:href="#ma8d557e749" y="29.757927"/>
    </g>
   </g>
   <g id="line2d_17">
    <path clip-path="url(#p6eb524afb9)" d="M 52.325492 151.766 
L 53.346081 151.765004 
L 55.387259 151.764683 
L 59.469616 151.602115 
L 67.634328 150.569476 
L 75.79904 148.167383 
L 100.293177 134.002522 
L 149.281451 106.8046 
L 247.257999 85.433254 
L 345.234547 75.986602 
" style="fill:none;stroke:#5da5da;stroke-linecap:round;stroke-width:1.2;"/>
    <defs>
     <path d="M 0 -2.4 
L -2.282536 -0.741641 
L -1.410685 1.941641 
L 1.410685 1.941641 
L 2.282536 -0.741641 
z
" id="mbb434f7012" style="stroke:#ffffff;stroke-linejoin:miter;stroke-width:0.75;"/>
    </defs>
    <g clip-path="url(#p6eb524afb9)">
     <use style="fill:#5da5da;stroke:#ffffff;stroke-linejoin:miter;stroke-width:0.75;" x="52.325492" xlink:href="#mbb434f7012" y="151.766"/>
     <use style="fill:#5da5da;stroke:#ffffff;stroke-linejoin:miter;stroke-width:0.75;" x="53.346081" xlink:href="#mbb434f7012" y="151.765004"/>
     <use style="fill:#5da5da;stroke:#ffffff;stroke-linejoin:miter;stroke-width:0.75;" x="55.387259" xlink:href="#mbb434f7012" y="151.764683"/>
     <use style="fill:#5da5da;stroke:#ffffff;stroke-linejoin:miter;stroke-width:0.75;" x="59.469616" xlink:href="#mbb434f7012" y="151.602115"/>
     <use style="fill:#5da5da;stroke:#ffffff;stroke-linejoin:miter;stroke-width:0.75;" x="67.634328" xlink:href="#mbb434f7012" y="150.569476"/>
     <use style="fill:#5da5da;stroke:#ffffff;stroke-linejoin:miter;stroke-width:0.75;" x="75.79904" xlink:href="#mbb434f7012" y="148.167383"/>
     <use style="fill:#5da5da;stroke:#ffffff;stroke-linejoin:miter;stroke-width:0.75;" x="100.293177" xlink:href="#mbb434f7012" y="134.002522"/>
     <use style="fill:#5da5da;stroke:#ffffff;stroke-linejoin:miter;stroke-width:0.75;" x="149.281451" xlink:href="#mbb434f7012" y="106.8046"/>
     <use style="fill:#5da5da;stroke:#ffffff;stroke-linejoin:miter;stroke-width:0.75;" x="247.257999" xlink:href="#mbb434f7012" y="85.433254"/>
     <use style="fill:#5da5da;stroke:#ffffff;stroke-linejoin:miter;stroke-width:0.75;" x="345.234547" xlink:href="#mbb434f7012" y="75.986602"/>
    </g>
   </g>
   <g id="line2d_18">
    <path clip-path="url(#p6eb524afb9)" d="M 52.325492 151.766 
L 53.346081 151.751814 
L 55.387259 151.717583 
L 59.469616 143.4783 
L 67.634328 132.041296 
L 75.79904 124.357579 
L 100.293177 108.88945 
L 149.281451 93.125273 
L 247.257999 76.85134 
L 345.234547 67.973399 
" style="fill:none;stroke:#b276b2;stroke-linecap:round;stroke-width:1.2;"/>
    <defs>
     <path d="M 0 2.4 
C 0.636487 2.4 1.246992 2.147121 1.697056 1.697056 
C 2.147121 1.246992 2.4 0.636487 2.4 0 
C 2.4 -0.636487 2.147121 -1.246992 1.697056 -1.697056 
C 1.246992 -2.147121 0.636487 -2.4 0 -2.4 
C -0.636487 -2.4 -1.246992 -2.147121 -1.697056 -1.697056 
C -2.147121 -1.246992 -2.4 -0.636487 -2.4 0 
C -2.4 0.636487 -2.147121 1.246992 -1.697056 1.697056 
C -1.246992 2.147121 -0.636487 2.4 0 2.4 
z
" id="m57a6dbdf50" style="stroke:#ffffff;stroke-width:0.75;"/>
    </defs>
    <g clip-path="url(#p6eb524afb9)">
     <use style="fill:#b276b2;stroke:#ffffff;stroke-width:0.75;" x="52.325492" xlink:href="#m57a6dbdf50" y="151.766"/>
     <use style="fill:#b276b2;stroke:#ffffff;stroke-width:0.75;" x="53.346081" xlink:href="#m57a6dbdf50" y="151.751814"/>
     <use style="fill:#b276b2;stroke:#ffffff;stroke-width:0.75;" x="55.387259" xlink:href="#m57a6dbdf50" y="151.717583"/>
     <use style="fill:#b276b2;stroke:#ffffff;stroke-width:0.75;" x="59.469616" xlink:href="#m57a6dbdf50" y="143.4783"/>
     <use style="fill:#b276b2;stroke:#ffffff;stroke-width:0.75;" x="67.634328" xlink:href="#m57a6dbdf50" y="132.041296"/>
     <use style="fill:#b276b2;stroke:#ffffff;stroke-width:0.75;" x="75.79904" xlink:href="#m57a6dbdf50" y="124.357579"/>
     <use style="fill:#b276b2;stroke:#ffffff;stroke-width:0.75;" x="100.293177" xlink:href="#m57a6dbdf50" y="108.88945"/>
     <use style="fill:#b276b2;stroke:#ffffff;stroke-width:0.75;" x="149.281451" xlink:href="#m57a6dbdf50" y="93.125273"/>
     <use style="fill:#b276b2;stroke:#ffffff;stroke-width:0.75;" x="247.257999" xlink:href="#m57a6dbdf50" y="76.85134"/>
     <use style="fill:#b276b2;stroke:#ffffff;stroke-width:0.75;" x="345.234547" xlink:href="#m57a6dbdf50" y="67.973399"/>
    </g>
   </g>
   <g id="line2d_19">
    <path clip-path="url(#p6eb524afb9)" d="M 52.325492 151.766 
L 53.346081 151.694203 
L 55.387259 151.540672 
L 59.469616 151.741347 
L 67.634328 151.758551 
L 75.79904 151.762245 
L 100.293177 151.765176 
L 149.281451 151.765765 
L 247.257999 151.765824 
L 345.234547 151.765972 
" style="fill:none;stroke:#4d4d4d;stroke-linecap:round;stroke-width:1.2;"/>
    <defs>
     <path d="M -2.4 2.4 
L 2.4 2.4 
L 2.4 -2.4 
L -2.4 -2.4 
z
" id="m279af685a1" style="stroke:#ffffff;stroke-linejoin:miter;stroke-width:0.75;"/>
    </defs>
    <g clip-path="url(#p6eb524afb9)">
     <use style="fill:#4d4d4d;stroke:#ffffff;stroke-linejoin:miter;stroke-width:0.75;" x="52.325492" xlink:href="#m279af685a1" y="151.766"/>
     <use style="fill:#4d4d4d;stroke:#ffffff;stroke-linejoin:miter;stroke-width:0.75;" x="53.346081" xlink:href="#m279af685a1" y="151.694203"/>
     <use style="fill:#4d4d4d;stroke:#ffffff;stroke-linejoin:miter;stroke-width:0.75;" x="55.387259" xlink:href="#m279af685a1" y="151.540672"/>
     <use style="fill:#4d4d4d;stroke:#ffffff;stroke-linejoin:miter;stroke-width:0.75;" x="59.469616" xlink:href="#m279af685a1" y="151.741347"/>
     <use style="fill:#4d4d4d;stroke:#ffffff;stroke-linejoin:miter;stroke-width:0.75;" x="67.634328" xlink:href="#m279af685a1" y="151.758551"/>
     <use style="fill:#4d4d4d;stroke:#ffffff;stroke-linejoin:miter;stroke-width:0.75;" x="75.79904" xlink:href="#m279af685a1" y="151.762245"/>
     <use style="fill:#4d4d4d;stroke:#ffffff;stroke-linejoin:miter;stroke-width:0.75;" x="100.293177" xlink:href="#m279af685a1" y="151.765176"/>
     <use style="fill:#4d4d4d;stroke:#ffffff;stroke-linejoin:miter;stroke-width:0.75;" x="149.281451" xlink:href="#m279af685a1" y="151.765765"/>
     <use style="fill:#4d4d4d;stroke:#ffffff;stroke-linejoin:miter;stroke-width:0.75;" x="247.257999" xlink:href="#m279af685a1" y="151.765824"/>
     <use style="fill:#4d4d4d;stroke:#ffffff;stroke-linejoin:miter;stroke-width:0.75;" x="345.234547" xlink:href="#m279af685a1" y="151.765972"/>
    </g>
   </g>
   <g id="line2d_20">
    <path clip-path="url(#p6eb524afb9)" d="M 52.325492 151.766 
L 53.346081 151.765032 
L 55.387259 151.763563 
L 59.469616 145.147473 
L 67.634328 132.295958 
L 75.79904 121.170215 
L 100.293177 96.903157 
L 149.281451 67.922354 
L 247.257999 39.087825 
L 345.234547 35.23576 
" style="fill:none;stroke:#ff0080;stroke-linecap:round;stroke-width:1.2;"/>
    <defs>
     <path d="M 0 -2.4 
L -2.282536 -0.741641 
L -1.410685 1.941641 
L 1.410685 1.941641 
L 2.282536 -0.741641 
z
" id="m151c6ade59" style="stroke:#ffffff;stroke-linejoin:miter;stroke-width:0.75;"/>
    </defs>
    <g clip-path="url(#p6eb524afb9)">
     <use style="fill:#ff0080;stroke:#ffffff;stroke-linejoin:miter;stroke-width:0.75;" x="52.325492" xlink:href="#m151c6ade59" y="151.766"/>
     <use style="fill:#ff0080;stroke:#ffffff;stroke-linejoin:miter;stroke-width:0.75;" x="53.346081" xlink:href="#m151c6ade59" y="151.765032"/>
     <use style="fill:#ff0080;stroke:#ffffff;stroke-linejoin:miter;stroke-width:0.75;" x="55.387259" xlink:href="#m151c6ade59" y="151.763563"/>
     <use style="fill:#ff0080;stroke:#ffffff;stroke-linejoin:miter;stroke-width:0.75;" x="59.469616" xlink:href="#m151c6ade59" y="145.147473"/>
     <use style="fill:#ff0080;stroke:#ffffff;stroke-linejoin:miter;stroke-width:0.75;" x="67.634328" xlink:href="#m151c6ade59" y="132.295958"/>
     <use style="fill:#ff0080;stroke:#ffffff;stroke-linejoin:miter;stroke-width:0.75;" x="75.79904" xlink:href="#m151c6ade59" y="121.170215"/>
     <use style="fill:#ff0080;stroke:#ffffff;stroke-linejoin:miter;stroke-width:0.75;" x="100.293177" xlink:href="#m151c6ade59" y="96.903157"/>
     <use style="fill:#ff0080;stroke:#ffffff;stroke-linejoin:miter;stroke-width:0.75;" x="149.281451" xlink:href="#m151c6ade59" y="67.922354"/>
     <use style="fill:#ff0080;stroke:#ffffff;stroke-linejoin:miter;stroke-width:0.75;" x="247.257999" xlink:href="#m151c6ade59" y="39.087825"/>
     <use style="fill:#ff0080;stroke:#ffffff;stroke-linejoin:miter;stroke-width:0.75;" x="345.234547" xlink:href="#m151c6ade59" y="35.23576"/>
    </g>
   </g>
   <g id="line2d_21">
    <path clip-path="url(#p6eb524afb9)" d="M 52.325492 151.766 
L 53.346081 151.765033 
L 55.387259 151.761292 
L 59.469616 145.709429 
L 67.634328 133.669003 
L 75.79904 122.900803 
L 100.293177 97.831502 
L 149.281451 68.202205 
L 247.257999 39.384317 
L 345.234547 34.832723 
" style="fill:none;stroke:#a1a1a1;stroke-linecap:round;stroke-width:1.2;"/>
    <defs>
     <path d="M 0 -2.4 
L -2.4 2.4 
L 2.4 2.4 
z
" id="m2dd35ca283" style="stroke:#ffffff;stroke-linejoin:miter;stroke-width:0.75;"/>
    </defs>
    <g clip-path="url(#p6eb524afb9)">
     <use style="fill:#a1a1a1;stroke:#ffffff;stroke-linejoin:miter;stroke-width:0.75;" x="52.325492" xlink:href="#m2dd35ca283" y="151.766"/>
     <use style="fill:#a1a1a1;stroke:#ffffff;stroke-linejoin:miter;stroke-width:0.75;" x="53.346081" xlink:href="#m2dd35ca283" y="151.765033"/>
     <use style="fill:#a1a1a1;stroke:#ffffff;stroke-linejoin:miter;stroke-width:0.75;" x="55.387259" xlink:href="#m2dd35ca283" y="151.761292"/>
     <use style="fill:#a1a1a1;stroke:#ffffff;stroke-linejoin:miter;stroke-width:0.75;" x="59.469616" xlink:href="#m2dd35ca283" y="145.709429"/>
     <use style="fill:#a1a1a1;stroke:#ffffff;stroke-linejoin:miter;stroke-width:0.75;" x="67.634328" xlink:href="#m2dd35ca283" y="133.669003"/>
     <use style="fill:#a1a1a1;stroke:#ffffff;stroke-linejoin:miter;stroke-width:0.75;" x="75.79904" xlink:href="#m2dd35ca283" y="122.900803"/>
     <use style="fill:#a1a1a1;stroke:#ffffff;stroke-linejoin:miter;stroke-width:0.75;" x="100.293177" xlink:href="#m2dd35ca283" y="97.831502"/>
     <use style="fill:#a1a1a1;stroke:#ffffff;stroke-linejoin:miter;stroke-width:0.75;" x="149.281451" xlink:href="#m2dd35ca283" y="68.202205"/>
     <use style="fill:#a1a1a1;stroke:#ffffff;stroke-linejoin:miter;stroke-width:0.75;" x="247.257999" xlink:href="#m2dd35ca283" y="39.384317"/>
     <use style="fill:#a1a1a1;stroke:#ffffff;stroke-linejoin:miter;stroke-width:0.75;" x="345.234547" xlink:href="#m2dd35ca283" y="34.832723"/>
    </g>
   </g>
   <g id="line2d_22"/>
   <g id="line2d_23"/>
   <g id="line2d_24"/>
   <g id="line2d_25"/>
   <g id="line2d_26"/>
   <g id="line2d_27"/>
   <g id="line2d_28"/>
   <g id="line2d_29"/>
   <g id="patch_3">
    <path d="M 37.68004 151.766 
L 37.68004 23.368 
" style="fill:none;stroke:#cccccc;stroke-linecap:square;stroke-linejoin:miter;"/>
   </g>
   <g id="patch_4">
    <path d="M 359.88 151.766 
L 359.88 23.368 
" style="fill:none;stroke:#cccccc;stroke-linecap:square;stroke-linejoin:miter;"/>
   </g>
   <g id="patch_5">
    <path d="M 37.68004 151.766 
L 359.88 151.766 
" style="fill:none;stroke:#cccccc;stroke-linecap:square;stroke-linejoin:miter;"/>
   </g>
   <g id="patch_6">
    <path d="M 37.68004 23.368 
L 359.88 23.368 
" style="fill:none;stroke:#cccccc;stroke-linecap:square;stroke-linejoin:miter;"/>
   </g>
   <g id="text_15">
    <!-- All Txn -->
    <g style="fill:#262626;" transform="translate(184.19477 17.368)scale(0.096 -0.096)">
     <defs>
      <path id="ArialMT-32"/>
      <path d="M 0.734375 0 
L 19.671875 26.953125 
L 2.15625 51.859375 
L 13.140625 51.859375 
L 21.09375 39.703125 
Q 23.34375 36.234375 24.703125 33.890625 
Q 26.859375 37.109375 28.65625 39.59375 
L 37.40625 51.859375 
L 47.90625 51.859375 
L 29.984375 27.4375 
L 49.265625 0 
L 38.484375 0 
L 27.828125 16.109375 
L 25 20.453125 
L 11.375 0 
z
" id="ArialMT-120"/>
      <path d="M 6.59375 0 
L 6.59375 51.859375 
L 14.5 51.859375 
L 14.5 44.484375 
Q 20.21875 53.03125 31 53.03125 
Q 35.6875 53.03125 39.625 51.34375 
Q 43.5625 49.65625 45.515625 46.921875 
Q 47.46875 44.1875 48.25 40.4375 
Q 48.734375 37.984375 48.734375 31.890625 
L 48.734375 0 
L 39.9375 0 
L 39.9375 31.546875 
Q 39.9375 36.921875 38.90625 39.578125 
Q 37.890625 42.234375 35.28125 43.8125 
Q 32.671875 45.40625 29.15625 45.40625 
Q 23.53125 45.40625 19.453125 41.84375 
Q 15.375 38.28125 15.375 28.328125 
L 15.375 0 
z
" id="ArialMT-110"/>
     </defs>
     <use xlink:href="#ArialMT-65"/>
     <use x="66.699219" xlink:href="#ArialMT-108"/>
     <use x="88.916016" xlink:href="#ArialMT-108"/>
     <use x="111.132812" xlink:href="#ArialMT-32"/>
     <use x="137.166016" xlink:href="#ArialMT-84"/>
     <use x="198.25" xlink:href="#ArialMT-120"/>
     <use x="248.25" xlink:href="#ArialMT-110"/>
    </g>
   </g>
  </g>
  <g id="axes_2">
   <g id="patch_7">
    <path d="M 37.68004 303.532 
L 359.88 303.532 
L 359.88 175.134 
L 37.68004 175.134 
z
" style="fill:#ffffff;"/>
   </g>
   <g id="matplotlib.axis_3">
    <g id="xtick_8">
     <g id="line2d_30">
      <path clip-path="url(#p82b594f215)" d="M 51.304903 303.532 
L 51.304903 175.134 
" style="fill:none;stroke:#cccccc;stroke-linecap:round;stroke-width:0.8;"/>
     </g>
     <g id="text_16">
      <!-- 0 -->
      <g style="fill:#262626;" transform="translate(48.858091 311.630875)scale(0.088 -0.088)">
       <use xlink:href="#ArialMT-48"/>
      </g>
     </g>
    </g>
    <g id="xtick_9">
     <g id="line2d_31">
      <path clip-path="url(#p82b594f215)" d="M 102.334355 303.532 
L 102.334355 175.134 
" style="fill:none;stroke:#cccccc;stroke-linecap:round;stroke-width:0.8;"/>
     </g>
     <g id="text_17">
      <!-- 50 -->
      <g style="fill:#262626;" transform="translate(97.44073 311.630875)scale(0.088 -0.088)">
       <use xlink:href="#ArialMT-53"/>
       <use x="55.615234" xlink:href="#ArialMT-48"/>
      </g>
     </g>
    </g>
    <g id="xtick_10">
     <g id="line2d_32">
      <path clip-path="url(#p82b594f215)" d="M 153.363807 303.532 
L 153.363807 175.134 
" style="fill:none;stroke:#cccccc;stroke-linecap:round;stroke-width:0.8;"/>
     </g>
     <g id="text_18">
      <!-- 100 -->
      <g style="fill:#262626;" transform="translate(146.02337 311.630875)scale(0.088 -0.088)">
       <use xlink:href="#ArialMT-49"/>
       <use x="55.615234" xlink:href="#ArialMT-48"/>
       <use x="111.230469" xlink:href="#ArialMT-48"/>
      </g>
     </g>
    </g>
    <g id="xtick_11">
     <g id="line2d_33">
      <path clip-path="url(#p82b594f215)" d="M 204.393259 303.532 
L 204.393259 175.134 
" style="fill:none;stroke:#cccccc;stroke-linecap:round;stroke-width:0.8;"/>
     </g>
     <g id="text_19">
      <!-- 150 -->
      <g style="fill:#262626;" transform="translate(197.052822 311.630875)scale(0.088 -0.088)">
       <use xlink:href="#ArialMT-49"/>
       <use x="55.615234" xlink:href="#ArialMT-53"/>
       <use x="111.230469" xlink:href="#ArialMT-48"/>
      </g>
     </g>
    </g>
    <g id="xtick_12">
     <g id="line2d_34">
      <path clip-path="url(#p82b594f215)" d="M 255.422712 303.532 
L 255.422712 175.134 
" style="fill:none;stroke:#cccccc;stroke-linecap:round;stroke-width:0.8;"/>
     </g>
     <g id="text_20">
      <!-- 200 -->
      <g style="fill:#262626;" transform="translate(248.082274 311.630875)scale(0.088 -0.088)">
       <use xlink:href="#ArialMT-50"/>
       <use x="55.615234" xlink:href="#ArialMT-48"/>
       <use x="111.230469" xlink:href="#ArialMT-48"/>
      </g>
     </g>
    </g>
    <g id="xtick_13">
     <g id="line2d_35">
      <path clip-path="url(#p82b594f215)" d="M 306.452164 303.532 
L 306.452164 175.134 
" style="fill:none;stroke:#cccccc;stroke-linecap:round;stroke-width:0.8;"/>
     </g>
     <g id="text_21">
      <!-- 250 -->
      <g style="fill:#262626;" transform="translate(299.111726 311.630875)scale(0.088 -0.088)">
       <use xlink:href="#ArialMT-50"/>
       <use x="55.615234" xlink:href="#ArialMT-53"/>
       <use x="111.230469" xlink:href="#ArialMT-48"/>
      </g>
     </g>
    </g>
    <g id="xtick_14">
     <g id="line2d_36">
      <path clip-path="url(#p82b594f215)" d="M 357.481616 303.532 
L 357.481616 175.134 
" style="fill:none;stroke:#cccccc;stroke-linecap:round;stroke-width:0.8;"/>
     </g>
     <g id="text_22">
      <!-- 300 -->
      <g style="fill:#262626;" transform="translate(350.141178 311.630875)scale(0.088 -0.088)">
       <use xlink:href="#ArialMT-51"/>
       <use x="55.615234" xlink:href="#ArialMT-48"/>
       <use x="111.230469" xlink:href="#ArialMT-48"/>
      </g>
     </g>
    </g>
    <g id="text_23">
     <!-- Number of Cores -->
     <g style="fill:#262626;" transform="translate(162.23627 324.251375)scale(0.096 -0.096)">
      <defs>
       <path d="M 7.625 0 
L 7.625 71.578125 
L 17.328125 71.578125 
L 54.9375 15.375 
L 54.9375 71.578125 
L 64.015625 71.578125 
L 64.015625 0 
L 54.296875 0 
L 16.703125 56.25 
L 16.703125 0 
z
" id="ArialMT-78"/>
       <path d="M 40.578125 0 
L 40.578125 7.625 
Q 34.515625 -1.171875 24.125 -1.171875 
Q 19.53125 -1.171875 15.546875 0.578125 
Q 11.578125 2.34375 9.640625 5 
Q 7.71875 7.671875 6.9375 11.53125 
Q 6.390625 14.109375 6.390625 19.734375 
L 6.390625 51.859375 
L 15.1875 51.859375 
L 15.1875 23.09375 
Q 15.1875 16.21875 15.71875 13.8125 
Q 16.546875 10.359375 19.234375 8.375 
Q 21.921875 6.390625 25.875 6.390625 
Q 29.828125 6.390625 33.296875 8.421875 
Q 36.765625 10.453125 38.203125 13.9375 
Q 39.65625 17.4375 39.65625 24.078125 
L 39.65625 51.859375 
L 48.4375 51.859375 
L 48.4375 0 
z
" id="ArialMT-117"/>
       <path d="M 6.59375 0 
L 6.59375 51.859375 
L 14.453125 51.859375 
L 14.453125 44.578125 
Q 16.890625 48.390625 20.9375 50.703125 
Q 25 53.03125 30.171875 53.03125 
Q 35.9375 53.03125 39.625 50.640625 
Q 43.3125 48.25 44.828125 43.953125 
Q 50.984375 53.03125 60.84375 53.03125 
Q 68.5625 53.03125 72.703125 48.75 
Q 76.859375 44.484375 76.859375 35.59375 
L 76.859375 0 
L 68.109375 0 
L 68.109375 32.671875 
Q 68.109375 37.9375 67.25 40.25 
Q 66.40625 42.578125 64.15625 43.984375 
Q 61.921875 45.40625 58.890625 45.40625 
Q 53.421875 45.40625 49.796875 41.765625 
Q 46.1875 38.140625 46.1875 30.125 
L 46.1875 0 
L 37.40625 0 
L 37.40625 33.6875 
Q 37.40625 39.546875 35.25 42.46875 
Q 33.109375 45.40625 28.21875 45.40625 
Q 24.515625 45.40625 21.359375 43.453125 
Q 18.21875 41.5 16.796875 37.734375 
Q 15.375 33.984375 15.375 26.90625 
L 15.375 0 
z
" id="ArialMT-109"/>
       <path d="M 42.09375 16.703125 
L 51.171875 15.578125 
Q 49.03125 7.625 43.21875 3.21875 
Q 37.40625 -1.171875 28.375 -1.171875 
Q 17 -1.171875 10.328125 5.828125 
Q 3.65625 12.84375 3.65625 25.484375 
Q 3.65625 38.578125 10.390625 45.796875 
Q 17.140625 53.03125 27.875 53.03125 
Q 38.28125 53.03125 44.875 45.953125 
Q 51.46875 38.875 51.46875 26.03125 
Q 51.46875 25.25 51.421875 23.6875 
L 12.75 23.6875 
Q 13.234375 15.140625 17.578125 10.59375 
Q 21.921875 6.0625 28.421875 6.0625 
Q 33.25 6.0625 36.671875 8.59375 
Q 40.09375 11.140625 42.09375 16.703125 
z
M 13.234375 30.90625 
L 42.1875 30.90625 
Q 41.609375 37.453125 38.875 40.71875 
Q 34.671875 45.796875 27.984375 45.796875 
Q 21.921875 45.796875 17.796875 41.75 
Q 13.671875 37.703125 13.234375 30.90625 
z
" id="ArialMT-101"/>
       <path d="M 8.6875 0 
L 8.6875 45.015625 
L 0.921875 45.015625 
L 0.921875 51.859375 
L 8.6875 51.859375 
L 8.6875 57.375 
Q 8.6875 62.59375 9.625 65.140625 
Q 10.890625 68.5625 14.078125 70.671875 
Q 17.28125 72.796875 23.046875 72.796875 
Q 26.765625 72.796875 31.25 71.921875 
L 29.9375 64.265625 
Q 27.203125 64.75 24.75 64.75 
Q 20.75 64.75 19.09375 63.03125 
Q 17.4375 61.328125 17.4375 56.640625 
L 17.4375 51.859375 
L 27.546875 51.859375 
L 27.546875 45.015625 
L 17.4375 45.015625 
L 17.4375 0 
z
" id="ArialMT-102"/>
       <path d="M 58.796875 25.09375 
L 68.265625 22.703125 
Q 65.28125 11.03125 57.546875 4.90625 
Q 49.8125 -1.21875 38.625 -1.21875 
Q 27.046875 -1.21875 19.796875 3.484375 
Q 12.546875 8.203125 8.765625 17.140625 
Q 4.984375 26.078125 4.984375 36.328125 
Q 4.984375 47.515625 9.25 55.828125 
Q 13.53125 64.15625 21.40625 68.46875 
Q 29.296875 72.796875 38.765625 72.796875 
Q 49.515625 72.796875 56.828125 67.328125 
Q 64.15625 61.859375 67.046875 51.953125 
L 57.71875 49.75 
Q 55.21875 57.5625 50.484375 61.125 
Q 45.75 64.703125 38.578125 64.703125 
Q 30.328125 64.703125 24.78125 60.734375 
Q 19.234375 56.78125 16.984375 50.109375 
Q 14.75 43.453125 14.75 36.375 
Q 14.75 27.25 17.40625 20.4375 
Q 20.0625 13.625 25.671875 10.25 
Q 31.296875 6.890625 37.84375 6.890625 
Q 45.796875 6.890625 51.3125 11.46875 
Q 56.84375 16.0625 58.796875 25.09375 
z
" id="ArialMT-67"/>
       <path d="M 3.078125 15.484375 
L 11.765625 16.84375 
Q 12.5 11.625 15.84375 8.84375 
Q 19.1875 6.0625 25.203125 6.0625 
Q 31.25 6.0625 34.171875 8.515625 
Q 37.109375 10.984375 37.109375 14.3125 
Q 37.109375 17.28125 34.515625 19 
Q 32.71875 20.171875 25.53125 21.96875 
Q 15.875 24.421875 12.140625 26.203125 
Q 8.40625 27.984375 6.46875 31.125 
Q 4.546875 34.28125 4.546875 38.09375 
Q 4.546875 41.546875 6.125 44.5 
Q 7.71875 47.46875 10.453125 49.421875 
Q 12.5 50.921875 16.03125 51.96875 
Q 19.578125 53.03125 23.640625 53.03125 
Q 29.734375 53.03125 34.34375 51.265625 
Q 38.96875 49.515625 41.15625 46.5 
Q 43.359375 43.5 44.1875 38.484375 
L 35.59375 37.3125 
Q 35.015625 41.3125 32.203125 43.546875 
Q 29.390625 45.796875 24.265625 45.796875 
Q 18.21875 45.796875 15.625 43.796875 
Q 13.03125 41.796875 13.03125 39.109375 
Q 13.03125 37.40625 14.109375 36.03125 
Q 15.1875 34.625 17.484375 33.6875 
Q 18.796875 33.203125 25.25 31.453125 
Q 34.578125 28.953125 38.25 27.359375 
Q 41.9375 25.78125 44.03125 22.75 
Q 46.140625 19.734375 46.140625 15.234375 
Q 46.140625 10.84375 43.578125 6.953125 
Q 41.015625 3.078125 36.171875 0.953125 
Q 31.34375 -1.171875 25.25 -1.171875 
Q 15.140625 -1.171875 9.84375 3.03125 
Q 4.546875 7.234375 3.078125 15.484375 
z
" id="ArialMT-115"/>
      </defs>
      <use xlink:href="#ArialMT-78"/>
      <use x="72.216797" xlink:href="#ArialMT-117"/>
      <use x="127.832031" xlink:href="#ArialMT-109"/>
      <use x="211.132812" xlink:href="#ArialMT-98"/>
      <use x="266.748047" xlink:href="#ArialMT-101"/>
      <use x="322.363281" xlink:href="#ArialMT-114"/>
      <use x="355.664062" xlink:href="#ArialMT-32"/>
      <use x="383.447266" xlink:href="#ArialMT-111"/>
      <use x="439.0625" xlink:href="#ArialMT-102"/>
      <use x="466.845703" xlink:href="#ArialMT-32"/>
      <use x="494.628906" xlink:href="#ArialMT-67"/>
      <use x="566.845703" xlink:href="#ArialMT-111"/>
      <use x="622.460938" xlink:href="#ArialMT-114"/>
      <use x="655.761719" xlink:href="#ArialMT-101"/>
      <use x="711.376953" xlink:href="#ArialMT-115"/>
     </g>
    </g>
   </g>
   <g id="matplotlib.axis_4">
    <g id="ytick_7">
     <g id="line2d_37">
      <path clip-path="url(#p82b594f215)" d="M 37.68004 303.532 
L 359.88 303.532 
" style="fill:none;stroke:#cccccc;stroke-linecap:round;stroke-width:0.8;"/>
     </g>
     <g id="text_24">
      <!-- 0.00% -->
      <g style="fill:#262626;" transform="translate(4.42929 306.681437)scale(0.088 -0.088)">
       <use xlink:href="#ArialMT-48"/>
       <use x="55.615234" xlink:href="#ArialMT-46"/>
       <use x="83.398438" xlink:href="#ArialMT-48"/>
       <use x="139.013672" xlink:href="#ArialMT-48"/>
       <use x="194.628906" xlink:href="#ArialMT-37"/>
      </g>
     </g>
    </g>
    <g id="ytick_8">
     <g id="line2d_38">
      <path clip-path="url(#p82b594f215)" d="M 37.68004 278.533998 
L 359.88 278.533998 
" style="fill:none;stroke:#cccccc;stroke-linecap:round;stroke-width:0.8;"/>
     </g>
     <g id="text_25">
      <!-- 20.00% -->
      <g style="fill:#262626;" transform="translate(-0.464335 281.683435)scale(0.088 -0.088)">
       <use xlink:href="#ArialMT-50"/>
       <use x="55.615234" xlink:href="#ArialMT-48"/>
       <use x="111.230469" xlink:href="#ArialMT-46"/>
       <use x="139.013672" xlink:href="#ArialMT-48"/>
       <use x="194.628906" xlink:href="#ArialMT-48"/>
       <use x="250.244141" xlink:href="#ArialMT-37"/>
      </g>
     </g>
    </g>
    <g id="ytick_9">
     <g id="line2d_39">
      <path clip-path="url(#p82b594f215)" d="M 37.68004 253.535995 
L 359.88 253.535995 
" style="fill:none;stroke:#cccccc;stroke-linecap:round;stroke-width:0.8;"/>
     </g>
     <g id="text_26">
      <!-- 40.00% -->
      <g style="fill:#262626;" transform="translate(-0.464335 256.685433)scale(0.088 -0.088)">
       <use xlink:href="#ArialMT-52"/>
       <use x="55.615234" xlink:href="#ArialMT-48"/>
       <use x="111.230469" xlink:href="#ArialMT-46"/>
       <use x="139.013672" xlink:href="#ArialMT-48"/>
       <use x="194.628906" xlink:href="#ArialMT-48"/>
       <use x="250.244141" xlink:href="#ArialMT-37"/>
      </g>
     </g>
    </g>
    <g id="ytick_10">
     <g id="line2d_40">
      <path clip-path="url(#p82b594f215)" d="M 37.68004 228.537993 
L 359.88 228.537993 
" style="fill:none;stroke:#cccccc;stroke-linecap:round;stroke-width:0.8;"/>
     </g>
     <g id="text_27">
      <!-- 60.00% -->
      <g style="fill:#262626;" transform="translate(-0.464335 231.687431)scale(0.088 -0.088)">
       <use xlink:href="#ArialMT-54"/>
       <use x="55.615234" xlink:href="#ArialMT-48"/>
       <use x="111.230469" xlink:href="#ArialMT-46"/>
       <use x="139.013672" xlink:href="#ArialMT-48"/>
       <use x="194.628906" xlink:href="#ArialMT-48"/>
       <use x="250.244141" xlink:href="#ArialMT-37"/>
      </g>
     </g>
    </g>
    <g id="ytick_11">
     <g id="line2d_41">
      <path clip-path="url(#p82b594f215)" d="M 37.68004 203.539991 
L 359.88 203.539991 
" style="fill:none;stroke:#cccccc;stroke-linecap:round;stroke-width:0.8;"/>
     </g>
     <g id="text_28">
      <!-- 80.00% -->
      <g style="fill:#262626;" transform="translate(-0.464335 206.689428)scale(0.088 -0.088)">
       <use xlink:href="#ArialMT-56"/>
       <use x="55.615234" xlink:href="#ArialMT-48"/>
       <use x="111.230469" xlink:href="#ArialMT-46"/>
       <use x="139.013672" xlink:href="#ArialMT-48"/>
       <use x="194.628906" xlink:href="#ArialMT-48"/>
       <use x="250.244141" xlink:href="#ArialMT-37"/>
      </g>
     </g>
    </g>
    <g id="ytick_12">
     <g id="line2d_42">
      <path clip-path="url(#p82b594f215)" d="M 37.68004 178.541989 
L 359.88 178.541989 
" style="fill:none;stroke:#cccccc;stroke-linecap:round;stroke-width:0.8;"/>
     </g>
     <g id="text_29">
      <!-- 100.00% -->
      <g style="fill:#262626;" transform="translate(-5.35796 181.691426)scale(0.088 -0.088)">
       <use xlink:href="#ArialMT-49"/>
       <use x="55.615234" xlink:href="#ArialMT-48"/>
       <use x="111.230469" xlink:href="#ArialMT-48"/>
       <use x="166.845703" xlink:href="#ArialMT-46"/>
       <use x="194.628906" xlink:href="#ArialMT-48"/>
       <use x="250.244141" xlink:href="#ArialMT-48"/>
       <use x="305.859375" xlink:href="#ArialMT-37"/>
      </g>
     </g>
    </g>
    <g id="text_30">
     <!-- Abort/Total -->
     <g style="fill:#262626;" transform="translate(-11.26596 262.27475)rotate(-90)scale(0.096 -0.096)">
      <use xlink:href="#ArialMT-65"/>
      <use x="66.699219" xlink:href="#ArialMT-98"/>
      <use x="122.314453" xlink:href="#ArialMT-111"/>
      <use x="177.929688" xlink:href="#ArialMT-114"/>
      <use x="211.230469" xlink:href="#ArialMT-116"/>
      <use x="239.013672" xlink:href="#ArialMT-47"/>
      <use x="266.796875" xlink:href="#ArialMT-84"/>
      <use x="316.755859" xlink:href="#ArialMT-111"/>
      <use x="372.371094" xlink:href="#ArialMT-116"/>
      <use x="400.154297" xlink:href="#ArialMT-97"/>
      <use x="455.769531" xlink:href="#ArialMT-108"/>
     </g>
    </g>
   </g>
   <g id="line2d_43">
    <path clip-path="url(#p82b594f215)" d="M 52.325492 303.532 
L 53.346081 303.532 
L 55.387259 303.532 
L 59.469616 303.531515 
L 67.634328 303.529152 
L 75.79904 303.527047 
L 100.293177 303.505015 
L 149.281451 303.36852 
L 247.257999 233.499881 
L 345.234547 212.031647 
" style="fill:none;stroke:#f15854;stroke-linecap:round;stroke-width:1.2;"/>
    <g clip-path="url(#p82b594f215)">
     <use style="fill:#f15854;stroke:#ffffff;stroke-width:0.75;" x="52.325492" xlink:href="#m95c53c2ddf" y="303.532"/>
     <use style="fill:#f15854;stroke:#ffffff;stroke-width:0.75;" x="53.346081" xlink:href="#m95c53c2ddf" y="303.532"/>
     <use style="fill:#f15854;stroke:#ffffff;stroke-width:0.75;" x="55.387259" xlink:href="#m95c53c2ddf" y="303.532"/>
     <use style="fill:#f15854;stroke:#ffffff;stroke-width:0.75;" x="59.469616" xlink:href="#m95c53c2ddf" y="303.531515"/>
     <use style="fill:#f15854;stroke:#ffffff;stroke-width:0.75;" x="67.634328" xlink:href="#m95c53c2ddf" y="303.529152"/>
     <use style="fill:#f15854;stroke:#ffffff;stroke-width:0.75;" x="75.79904" xlink:href="#m95c53c2ddf" y="303.527047"/>
     <use style="fill:#f15854;stroke:#ffffff;stroke-width:0.75;" x="100.293177" xlink:href="#m95c53c2ddf" y="303.505015"/>
     <use style="fill:#f15854;stroke:#ffffff;stroke-width:0.75;" x="149.281451" xlink:href="#m95c53c2ddf" y="303.36852"/>
     <use style="fill:#f15854;stroke:#ffffff;stroke-width:0.75;" x="247.257999" xlink:href="#m95c53c2ddf" y="233.499881"/>
     <use style="fill:#f15854;stroke:#ffffff;stroke-width:0.75;" x="345.234547" xlink:href="#m95c53c2ddf" y="212.031647"/>
    </g>
   </g>
   <g id="line2d_44">
    <path clip-path="url(#p82b594f215)" d="M 52.325492 303.532 
L 53.346081 303.530365 
L 55.387259 303.527924 
L 59.469616 283.439282 
L 67.634328 258.931542 
L 75.79904 244.394664 
L 100.293177 214.224166 
L 149.281451 192.607143 
L 247.257999 186.759278 
L 345.234547 184.467577 
" style="fill:none;stroke:#decf3f;stroke-linecap:round;stroke-width:1.2;"/>
    <g clip-path="url(#p82b594f215)">
     <use style="fill:#decf3f;stroke:#ffffff;stroke-linejoin:miter;stroke-width:0.75;" x="52.325492" xlink:href="#mf8220a5750" y="303.532"/>
     <use style="fill:#decf3f;stroke:#ffffff;stroke-linejoin:miter;stroke-width:0.75;" x="53.346081" xlink:href="#mf8220a5750" y="303.530365"/>
     <use style="fill:#decf3f;stroke:#ffffff;stroke-linejoin:miter;stroke-width:0.75;" x="55.387259" xlink:href="#mf8220a5750" y="303.527924"/>
     <use style="fill:#decf3f;stroke:#ffffff;stroke-linejoin:miter;stroke-width:0.75;" x="59.469616" xlink:href="#mf8220a5750" y="283.439282"/>
     <use style="fill:#decf3f;stroke:#ffffff;stroke-linejoin:miter;stroke-width:0.75;" x="67.634328" xlink:href="#mf8220a5750" y="258.931542"/>
     <use style="fill:#decf3f;stroke:#ffffff;stroke-linejoin:miter;stroke-width:0.75;" x="75.79904" xlink:href="#mf8220a5750" y="244.394664"/>
     <use style="fill:#decf3f;stroke:#ffffff;stroke-linejoin:miter;stroke-width:0.75;" x="100.293177" xlink:href="#mf8220a5750" y="214.224166"/>
     <use style="fill:#decf3f;stroke:#ffffff;stroke-linejoin:miter;stroke-width:0.75;" x="149.281451" xlink:href="#mf8220a5750" y="192.607143"/>
     <use style="fill:#decf3f;stroke:#ffffff;stroke-linejoin:miter;stroke-width:0.75;" x="247.257999" xlink:href="#mf8220a5750" y="186.759278"/>
     <use style="fill:#decf3f;stroke:#ffffff;stroke-linejoin:miter;stroke-width:0.75;" x="345.234547" xlink:href="#mf8220a5750" y="184.467577"/>
    </g>
   </g>
   <g id="line2d_45">
    <path clip-path="url(#p82b594f215)" d="M 52.325492 303.532 
L 53.346081 303.530352 
L 55.387259 303.525814 
L 59.469616 280.088983 
L 67.634328 253.051273 
L 75.79904 240.441078 
L 100.293177 215.465795 
L 149.281451 186.250415 
L 247.257999 182.515355 
L 345.234547 181.24819 
" style="fill:none;stroke:#faa43a;stroke-linecap:round;stroke-width:1.2;"/>
    <g clip-path="url(#p82b594f215)">
     <use style="fill:#faa43a;stroke:#ffffff;stroke-linejoin:miter;stroke-width:0.75;" x="52.325492" xlink:href="#ma8d557e749" y="303.532"/>
     <use style="fill:#faa43a;stroke:#ffffff;stroke-linejoin:miter;stroke-width:0.75;" x="53.346081" xlink:href="#ma8d557e749" y="303.530352"/>
     <use style="fill:#faa43a;stroke:#ffffff;stroke-linejoin:miter;stroke-width:0.75;" x="55.387259" xlink:href="#ma8d557e749" y="303.525814"/>
     <use style="fill:#faa43a;stroke:#ffffff;stroke-linejoin:miter;stroke-width:0.75;" x="59.469616" xlink:href="#ma8d557e749" y="280.088983"/>
     <use style="fill:#faa43a;stroke:#ffffff;stroke-linejoin:miter;stroke-width:0.75;" x="67.634328" xlink:href="#ma8d557e749" y="253.051273"/>
     <use style="fill:#faa43a;stroke:#ffffff;stroke-linejoin:miter;stroke-width:0.75;" x="75.79904" xlink:href="#ma8d557e749" y="240.441078"/>
     <use style="fill:#faa43a;stroke:#ffffff;stroke-linejoin:miter;stroke-width:0.75;" x="100.293177" xlink:href="#ma8d557e749" y="215.465795"/>
     <use style="fill:#faa43a;stroke:#ffffff;stroke-linejoin:miter;stroke-width:0.75;" x="149.281451" xlink:href="#ma8d557e749" y="186.250415"/>
     <use style="fill:#faa43a;stroke:#ffffff;stroke-linejoin:miter;stroke-width:0.75;" x="247.257999" xlink:href="#ma8d557e749" y="182.515355"/>
     <use style="fill:#faa43a;stroke:#ffffff;stroke-linejoin:miter;stroke-width:0.75;" x="345.234547" xlink:href="#ma8d557e749" y="181.24819"/>
    </g>
   </g>
   <g id="line2d_46">
    <path clip-path="url(#p82b594f215)" d="M 52.325492 303.532 
L 53.346081 303.530356 
L 55.387259 303.530676 
L 59.469616 303.290784 
L 67.634328 300.98501 
L 75.79904 295.931834 
L 100.293177 276.946644 
L 149.281451 254.33955 
L 247.257999 235.983494 
L 345.234547 227.719531 
" style="fill:none;stroke:#5da5da;stroke-linecap:round;stroke-width:1.2;"/>
    <g clip-path="url(#p82b594f215)">
     <use style="fill:#5da5da;stroke:#ffffff;stroke-linejoin:miter;stroke-width:0.75;" x="52.325492" xlink:href="#mbb434f7012" y="303.532"/>
     <use style="fill:#5da5da;stroke:#ffffff;stroke-linejoin:miter;stroke-width:0.75;" x="53.346081" xlink:href="#mbb434f7012" y="303.530356"/>
     <use style="fill:#5da5da;stroke:#ffffff;stroke-linejoin:miter;stroke-width:0.75;" x="55.387259" xlink:href="#mbb434f7012" y="303.530676"/>
     <use style="fill:#5da5da;stroke:#ffffff;stroke-linejoin:miter;stroke-width:0.75;" x="59.469616" xlink:href="#mbb434f7012" y="303.290784"/>
     <use style="fill:#5da5da;stroke:#ffffff;stroke-linejoin:miter;stroke-width:0.75;" x="67.634328" xlink:href="#mbb434f7012" y="300.98501"/>
     <use style="fill:#5da5da;stroke:#ffffff;stroke-linejoin:miter;stroke-width:0.75;" x="75.79904" xlink:href="#mbb434f7012" y="295.931834"/>
     <use style="fill:#5da5da;stroke:#ffffff;stroke-linejoin:miter;stroke-width:0.75;" x="100.293177" xlink:href="#mbb434f7012" y="276.946644"/>
     <use style="fill:#5da5da;stroke:#ffffff;stroke-linejoin:miter;stroke-width:0.75;" x="149.281451" xlink:href="#mbb434f7012" y="254.33955"/>
     <use style="fill:#5da5da;stroke:#ffffff;stroke-linejoin:miter;stroke-width:0.75;" x="247.257999" xlink:href="#mbb434f7012" y="235.983494"/>
     <use style="fill:#5da5da;stroke:#ffffff;stroke-linejoin:miter;stroke-width:0.75;" x="345.234547" xlink:href="#mbb434f7012" y="227.719531"/>
    </g>
   </g>
   <g id="line2d_47">
    <path clip-path="url(#p82b594f215)" d="M 52.325492 303.532 
L 53.346081 303.527093 
L 55.387259 303.518067 
L 59.469616 286.283703 
L 67.634328 262.188435 
L 75.79904 246.645736 
L 100.293177 213.600731 
L 149.281451 202.132287 
L 247.257999 199.778159 
L 345.234547 199.460687 
" style="fill:none;stroke:#b276b2;stroke-linecap:round;stroke-width:1.2;"/>
    <g clip-path="url(#p82b594f215)">
     <use style="fill:#b276b2;stroke:#ffffff;stroke-width:0.75;" x="52.325492" xlink:href="#m57a6dbdf50" y="303.532"/>
     <use style="fill:#b276b2;stroke:#ffffff;stroke-width:0.75;" x="53.346081" xlink:href="#m57a6dbdf50" y="303.527093"/>
     <use style="fill:#b276b2;stroke:#ffffff;stroke-width:0.75;" x="55.387259" xlink:href="#m57a6dbdf50" y="303.518067"/>
     <use style="fill:#b276b2;stroke:#ffffff;stroke-width:0.75;" x="59.469616" xlink:href="#m57a6dbdf50" y="286.283703"/>
     <use style="fill:#b276b2;stroke:#ffffff;stroke-width:0.75;" x="67.634328" xlink:href="#m57a6dbdf50" y="262.188435"/>
     <use style="fill:#b276b2;stroke:#ffffff;stroke-width:0.75;" x="75.79904" xlink:href="#m57a6dbdf50" y="246.645736"/>
     <use style="fill:#b276b2;stroke:#ffffff;stroke-width:0.75;" x="100.293177" xlink:href="#m57a6dbdf50" y="213.600731"/>
     <use style="fill:#b276b2;stroke:#ffffff;stroke-width:0.75;" x="149.281451" xlink:href="#m57a6dbdf50" y="202.132287"/>
     <use style="fill:#b276b2;stroke:#ffffff;stroke-width:0.75;" x="247.257999" xlink:href="#m57a6dbdf50" y="199.778159"/>
     <use style="fill:#b276b2;stroke:#ffffff;stroke-width:0.75;" x="345.234547" xlink:href="#m57a6dbdf50" y="199.460687"/>
    </g>
   </g>
   <g id="line2d_48">
    <path clip-path="url(#p82b594f215)" d="M 52.325492 303.532 
L 53.346081 303.372689 
L 55.387259 302.937519 
L 59.469616 303.420309 
L 67.634328 303.505632 
L 75.79904 303.527423 
L 100.293177 303.530902 
L 149.281451 303.531817 
L 247.257999 303.531906 
L 345.234547 303.531852 
" style="fill:none;stroke:#4d4d4d;stroke-linecap:round;stroke-width:1.2;"/>
    <g clip-path="url(#p82b594f215)">
     <use style="fill:#4d4d4d;stroke:#ffffff;stroke-linejoin:miter;stroke-width:0.75;" x="52.325492" xlink:href="#m279af685a1" y="303.532"/>
     <use style="fill:#4d4d4d;stroke:#ffffff;stroke-linejoin:miter;stroke-width:0.75;" x="53.346081" xlink:href="#m279af685a1" y="303.372689"/>
     <use style="fill:#4d4d4d;stroke:#ffffff;stroke-linejoin:miter;stroke-width:0.75;" x="55.387259" xlink:href="#m279af685a1" y="302.937519"/>
     <use style="fill:#4d4d4d;stroke:#ffffff;stroke-linejoin:miter;stroke-width:0.75;" x="59.469616" xlink:href="#m279af685a1" y="303.420309"/>
     <use style="fill:#4d4d4d;stroke:#ffffff;stroke-linejoin:miter;stroke-width:0.75;" x="67.634328" xlink:href="#m279af685a1" y="303.505632"/>
     <use style="fill:#4d4d4d;stroke:#ffffff;stroke-linejoin:miter;stroke-width:0.75;" x="75.79904" xlink:href="#m279af685a1" y="303.527423"/>
     <use style="fill:#4d4d4d;stroke:#ffffff;stroke-linejoin:miter;stroke-width:0.75;" x="100.293177" xlink:href="#m279af685a1" y="303.530902"/>
     <use style="fill:#4d4d4d;stroke:#ffffff;stroke-linejoin:miter;stroke-width:0.75;" x="149.281451" xlink:href="#m279af685a1" y="303.531817"/>
     <use style="fill:#4d4d4d;stroke:#ffffff;stroke-linejoin:miter;stroke-width:0.75;" x="247.257999" xlink:href="#m279af685a1" y="303.531906"/>
     <use style="fill:#4d4d4d;stroke:#ffffff;stroke-linejoin:miter;stroke-width:0.75;" x="345.234547" xlink:href="#m279af685a1" y="303.531852"/>
    </g>
   </g>
   <g id="line2d_49">
    <path clip-path="url(#p82b594f215)" d="M 52.325492 303.532 
L 53.346081 303.527133 
L 55.387259 303.524216 
L 59.469616 287.887212 
L 67.634328 266.44401 
L 75.79904 253.823896 
L 100.293177 229.7793 
L 149.281451 207.641326 
L 247.257999 188.111984 
L 345.234547 184.984437 
" style="fill:none;stroke:#ff0080;stroke-linecap:round;stroke-width:1.2;"/>
    <g clip-path="url(#p82b594f215)">
     <use style="fill:#ff0080;stroke:#ffffff;stroke-linejoin:miter;stroke-width:0.75;" x="52.325492" xlink:href="#m151c6ade59" y="303.532"/>
     <use style="fill:#ff0080;stroke:#ffffff;stroke-linejoin:miter;stroke-width:0.75;" x="53.346081" xlink:href="#m151c6ade59" y="303.527133"/>
     <use style="fill:#ff0080;stroke:#ffffff;stroke-linejoin:miter;stroke-width:0.75;" x="55.387259" xlink:href="#m151c6ade59" y="303.524216"/>
     <use style="fill:#ff0080;stroke:#ffffff;stroke-linejoin:miter;stroke-width:0.75;" x="59.469616" xlink:href="#m151c6ade59" y="287.887212"/>
     <use style="fill:#ff0080;stroke:#ffffff;stroke-linejoin:miter;stroke-width:0.75;" x="67.634328" xlink:href="#m151c6ade59" y="266.44401"/>
     <use style="fill:#ff0080;stroke:#ffffff;stroke-linejoin:miter;stroke-width:0.75;" x="75.79904" xlink:href="#m151c6ade59" y="253.823896"/>
     <use style="fill:#ff0080;stroke:#ffffff;stroke-linejoin:miter;stroke-width:0.75;" x="100.293177" xlink:href="#m151c6ade59" y="229.7793"/>
     <use style="fill:#ff0080;stroke:#ffffff;stroke-linejoin:miter;stroke-width:0.75;" x="149.281451" xlink:href="#m151c6ade59" y="207.641326"/>
     <use style="fill:#ff0080;stroke:#ffffff;stroke-linejoin:miter;stroke-width:0.75;" x="247.257999" xlink:href="#m151c6ade59" y="188.111984"/>
     <use style="fill:#ff0080;stroke:#ffffff;stroke-linejoin:miter;stroke-width:0.75;" x="345.234547" xlink:href="#m151c6ade59" y="184.984437"/>
    </g>
   </g>
   <g id="line2d_50">
    <path clip-path="url(#p82b594f215)" d="M 52.325492 303.532 
L 53.346081 303.529701 
L 55.387259 303.52581 
L 59.469616 287.893577 
L 67.634328 266.416082 
L 75.79904 254.371859 
L 100.293177 230.675275 
L 149.281451 208.15625 
L 247.257999 188.105541 
L 345.234547 184.587607 
" style="fill:none;stroke:#a1a1a1;stroke-linecap:round;stroke-width:1.2;"/>
    <g clip-path="url(#p82b594f215)">
     <use style="fill:#a1a1a1;stroke:#ffffff;stroke-linejoin:miter;stroke-width:0.75;" x="52.325492" xlink:href="#m2dd35ca283" y="303.532"/>
     <use style="fill:#a1a1a1;stroke:#ffffff;stroke-linejoin:miter;stroke-width:0.75;" x="53.346081" xlink:href="#m2dd35ca283" y="303.529701"/>
     <use style="fill:#a1a1a1;stroke:#ffffff;stroke-linejoin:miter;stroke-width:0.75;" x="55.387259" xlink:href="#m2dd35ca283" y="303.52581"/>
     <use style="fill:#a1a1a1;stroke:#ffffff;stroke-linejoin:miter;stroke-width:0.75;" x="59.469616" xlink:href="#m2dd35ca283" y="287.893577"/>
     <use style="fill:#a1a1a1;stroke:#ffffff;stroke-linejoin:miter;stroke-width:0.75;" x="67.634328" xlink:href="#m2dd35ca283" y="266.416082"/>
     <use style="fill:#a1a1a1;stroke:#ffffff;stroke-linejoin:miter;stroke-width:0.75;" x="75.79904" xlink:href="#m2dd35ca283" y="254.371859"/>
     <use style="fill:#a1a1a1;stroke:#ffffff;stroke-linejoin:miter;stroke-width:0.75;" x="100.293177" xlink:href="#m2dd35ca283" y="230.675275"/>
     <use style="fill:#a1a1a1;stroke:#ffffff;stroke-linejoin:miter;stroke-width:0.75;" x="149.281451" xlink:href="#m2dd35ca283" y="208.15625"/>
     <use style="fill:#a1a1a1;stroke:#ffffff;stroke-linejoin:miter;stroke-width:0.75;" x="247.257999" xlink:href="#m2dd35ca283" y="188.105541"/>
     <use style="fill:#a1a1a1;stroke:#ffffff;stroke-linejoin:miter;stroke-width:0.75;" x="345.234547" xlink:href="#m2dd35ca283" y="184.587607"/>
    </g>
   </g>
   <g id="patch_8">
    <path d="M 37.68004 303.532 
L 37.68004 175.134 
" style="fill:none;stroke:#cccccc;stroke-linecap:square;stroke-linejoin:miter;"/>
   </g>
   <g id="patch_9">
    <path d="M 359.88 303.532 
L 359.88 175.134 
" style="fill:none;stroke:#cccccc;stroke-linecap:square;stroke-linejoin:miter;"/>
   </g>
   <g id="patch_10">
    <path d="M 37.68004 303.532 
L 359.88 303.532 
" style="fill:none;stroke:#cccccc;stroke-linecap:square;stroke-linejoin:miter;"/>
   </g>
   <g id="patch_11">
    <path d="M 37.68004 175.134 
L 359.88 175.134 
" style="fill:none;stroke:#cccccc;stroke-linecap:square;stroke-linejoin:miter;"/>
   </g>
   <g id="text_31">
    <!-- NewOrder &amp; Payment -->
    <g style="fill:#262626;" transform="translate(152.09927 169.134)scale(0.096 -0.096)">
     <defs>
      <path d="M 16.15625 0 
L 0.296875 51.859375 
L 9.375 51.859375 
L 17.625 21.921875 
L 20.703125 10.796875 
Q 20.90625 11.625 23.390625 21.484375 
L 31.640625 51.859375 
L 40.671875 51.859375 
L 48.4375 21.78125 
L 51.03125 11.859375 
L 54 21.875 
L 62.890625 51.859375 
L 71.4375 51.859375 
L 55.21875 0 
L 46.09375 0 
L 37.84375 31.0625 
L 35.84375 39.890625 
L 25.34375 0 
z
" id="ArialMT-119"/>
      <path d="M 4.828125 34.859375 
Q 4.828125 52.6875 14.390625 62.765625 
Q 23.96875 72.859375 39.109375 72.859375 
Q 49.03125 72.859375 56.984375 68.109375 
Q 64.9375 63.375 69.109375 54.90625 
Q 73.296875 46.4375 73.296875 35.6875 
Q 73.296875 24.8125 68.890625 16.21875 
Q 64.5 7.625 56.4375 3.203125 
Q 48.390625 -1.21875 39.0625 -1.21875 
Q 28.953125 -1.21875 20.984375 3.65625 
Q 13.03125 8.546875 8.921875 16.984375 
Q 4.828125 25.4375 4.828125 34.859375 
z
M 14.59375 34.71875 
Q 14.59375 21.78125 21.546875 14.328125 
Q 28.515625 6.890625 39.015625 6.890625 
Q 49.703125 6.890625 56.609375 14.40625 
Q 63.53125 21.921875 63.53125 35.75 
Q 63.53125 44.484375 60.578125 51 
Q 57.625 57.515625 51.921875 61.109375 
Q 46.234375 64.703125 39.15625 64.703125 
Q 29.109375 64.703125 21.84375 57.78125 
Q 14.59375 50.875 14.59375 34.71875 
z
" id="ArialMT-79"/>
      <path d="M 40.234375 0 
L 40.234375 6.546875 
Q 35.296875 -1.171875 25.734375 -1.171875 
Q 19.53125 -1.171875 14.328125 2.25 
Q 9.125 5.671875 6.265625 11.796875 
Q 3.421875 17.921875 3.421875 25.875 
Q 3.421875 33.640625 6 39.96875 
Q 8.59375 46.296875 13.765625 49.65625 
Q 18.953125 53.03125 25.34375 53.03125 
Q 30.03125 53.03125 33.6875 51.046875 
Q 37.359375 49.078125 39.65625 45.90625 
L 39.65625 71.578125 
L 48.390625 71.578125 
L 48.390625 0 
z
M 12.453125 25.875 
Q 12.453125 15.921875 16.640625 10.984375 
Q 20.84375 6.0625 26.5625 6.0625 
Q 32.328125 6.0625 36.34375 10.765625 
Q 40.375 15.484375 40.375 25.140625 
Q 40.375 35.796875 36.265625 40.765625 
Q 32.171875 45.75 26.171875 45.75 
Q 20.3125 45.75 16.375 40.96875 
Q 12.453125 36.1875 12.453125 25.875 
z
" id="ArialMT-100"/>
      <path d="M 47.515625 8.453125 
Q 43.171875 3.609375 38.03125 1.1875 
Q 32.90625 -1.21875 26.953125 -1.21875 
Q 15.96875 -1.21875 9.515625 6.203125 
Q 4.296875 12.25 4.296875 19.734375 
Q 4.296875 26.375 8.5625 31.71875 
Q 12.84375 37.0625 21.34375 41.109375 
Q 16.5 46.6875 14.890625 50.140625 
Q 13.28125 53.609375 13.28125 56.84375 
Q 13.28125 63.28125 18.328125 68.03125 
Q 23.390625 72.796875 31.0625 72.796875 
Q 38.375 72.796875 43.03125 68.296875 
Q 47.703125 63.8125 47.703125 57.515625 
Q 47.703125 47.3125 34.1875 40.09375 
L 47.015625 23.734375 
Q 49.21875 28.03125 50.4375 33.6875 
L 59.578125 31.734375 
Q 57.234375 22.359375 53.21875 16.3125 
Q 58.15625 9.765625 64.40625 5.328125 
L 58.5 -1.65625 
Q 53.171875 1.765625 47.515625 8.453125 
z
M 29.640625 45.75 
Q 35.359375 49.125 37.03125 51.65625 
Q 38.71875 54.203125 38.71875 57.28125 
Q 38.71875 60.9375 36.390625 63.25 
Q 34.078125 65.578125 30.609375 65.578125 
Q 27.046875 65.578125 24.671875 63.28125 
Q 22.3125 60.984375 22.3125 57.671875 
Q 22.3125 56 23.171875 54.171875 
Q 24.03125 52.34375 25.734375 50.296875 
z
M 42 15.375 
L 25.875 35.359375 
Q 18.75 31.109375 16.25 27.46875 
Q 13.765625 23.828125 13.765625 20.265625 
Q 13.765625 15.921875 17.234375 11.234375 
Q 20.703125 6.546875 27.046875 6.546875 
Q 31 6.546875 35.21875 9 
Q 39.453125 11.46875 42 15.375 
z
" id="ArialMT-38"/>
      <path d="M 7.71875 0 
L 7.71875 71.578125 
L 34.71875 71.578125 
Q 41.84375 71.578125 45.609375 70.90625 
Q 50.875 70.015625 54.4375 67.546875 
Q 58.015625 65.09375 60.1875 60.640625 
Q 62.359375 56.203125 62.359375 50.875 
Q 62.359375 41.75 56.546875 35.421875 
Q 50.734375 29.109375 35.546875 29.109375 
L 17.1875 29.109375 
L 17.1875 0 
z
M 17.1875 37.546875 
L 35.6875 37.546875 
Q 44.875 37.546875 48.734375 40.96875 
Q 52.59375 44.390625 52.59375 50.59375 
Q 52.59375 55.078125 50.3125 58.265625 
Q 48.046875 61.46875 44.34375 62.5 
Q 41.9375 63.140625 35.5 63.140625 
L 17.1875 63.140625 
z
" id="ArialMT-80"/>
      <path d="M 6.203125 -19.96875 
L 5.21875 -11.71875 
Q 8.109375 -12.5 10.25 -12.5 
Q 13.1875 -12.5 14.9375 -11.515625 
Q 16.703125 -10.546875 17.828125 -8.796875 
Q 18.65625 -7.46875 20.515625 -2.25 
Q 20.75 -1.515625 21.296875 -0.09375 
L 1.609375 51.859375 
L 11.078125 51.859375 
L 21.875 21.828125 
Q 23.96875 16.109375 25.640625 9.8125 
Q 27.15625 15.875 29.25 21.625 
L 40.328125 51.859375 
L 49.125 51.859375 
L 29.390625 -0.875 
Q 26.21875 -9.421875 24.46875 -12.640625 
Q 22.125 -17 19.09375 -19.015625 
Q 16.0625 -21.046875 11.859375 -21.046875 
Q 9.328125 -21.046875 6.203125 -19.96875 
z
" id="ArialMT-121"/>
     </defs>
     <use xlink:href="#ArialMT-78"/>
     <use x="72.216797" xlink:href="#ArialMT-101"/>
     <use x="127.832031" xlink:href="#ArialMT-119"/>
     <use x="200.048828" xlink:href="#ArialMT-79"/>
     <use x="277.832031" xlink:href="#ArialMT-114"/>
     <use x="311.132812" xlink:href="#ArialMT-100"/>
     <use x="366.748047" xlink:href="#ArialMT-101"/>
     <use x="422.363281" xlink:href="#ArialMT-114"/>
     <use x="455.664062" xlink:href="#ArialMT-32"/>
     <use x="483.447266" xlink:href="#ArialMT-38"/>
     <use x="550.146484" xlink:href="#ArialMT-32"/>
     <use x="577.929688" xlink:href="#ArialMT-80"/>
     <use x="644.628906" xlink:href="#ArialMT-97"/>
     <use x="700.244141" xlink:href="#ArialMT-121"/>
     <use x="750.244141" xlink:href="#ArialMT-109"/>
     <use x="833.544922" xlink:href="#ArialMT-101"/>
     <use x="889.160156" xlink:href="#ArialMT-110"/>
     <use x="944.775391" xlink:href="#ArialMT-116"/>
    </g>
   </g>
  </g>
  <g id="legend_1">
   <g id="text_32">
    <!-- CC -->
    <g style="fill:#262626;" transform="translate(392.545187 118.29025)scale(0.096 -0.096)">
     <use xlink:href="#ArialMT-67"/>
     <use x="72.216797" xlink:href="#ArialMT-67"/>
    </g>
   </g>
   <g id="line2d_51">
    <path d="M 362.876375 127.817125 
L 380.476375 127.817125 
" style="fill:none;stroke:#f15854;stroke-linecap:round;stroke-width:1.2;"/>
   </g>
   <g id="line2d_52">
    <defs>
     <path d="M 0 2.4 
C 0.636487 2.4 1.246992 2.147121 1.697056 1.697056 
C 2.147121 1.246992 2.4 0.636487 2.4 0 
C 2.4 -0.636487 2.147121 -1.246992 1.697056 -1.697056 
C 1.246992 -2.147121 0.636487 -2.4 0 -2.4 
C -0.636487 -2.4 -1.246992 -2.147121 -1.697056 -1.697056 
C -2.147121 -1.246992 -2.4 -0.636487 -2.4 0 
C -2.4 0.636487 -2.147121 1.246992 -1.697056 1.697056 
C -1.246992 2.147121 -0.636487 2.4 0 2.4 
z
" id="m86073a2319" style="stroke:#f15854;"/>
    </defs>
    <g>
     <use style="fill:#f15854;stroke:#f15854;" x="371.676375" xlink:href="#m86073a2319" y="127.817125"/>
    </g>
   </g>
   <g id="text_33">
    <!-- DL DETECT -->
    <g style="fill:#262626;" transform="translate(387.516375 130.897125)scale(0.088 -0.088)">
     <defs>
      <path d="M 7.71875 0 
L 7.71875 71.578125 
L 32.375 71.578125 
Q 40.71875 71.578125 45.125 70.5625 
Q 51.265625 69.140625 55.609375 65.4375 
Q 61.28125 60.640625 64.078125 53.1875 
Q 66.890625 45.75 66.890625 36.1875 
Q 66.890625 28.03125 64.984375 21.734375 
Q 63.09375 15.4375 60.109375 11.296875 
Q 57.125 7.171875 53.578125 4.796875 
Q 50.046875 2.4375 45.046875 1.21875 
Q 40.046875 0 33.546875 0 
z
M 17.1875 8.453125 
L 32.46875 8.453125 
Q 39.546875 8.453125 43.578125 9.765625 
Q 47.609375 11.078125 50 13.484375 
Q 53.375 16.84375 55.25 22.53125 
Q 57.125 28.21875 57.125 36.328125 
Q 57.125 47.5625 53.4375 53.59375 
Q 49.75 59.625 44.484375 61.671875 
Q 40.671875 63.140625 32.234375 63.140625 
L 17.1875 63.140625 
z
" id="ArialMT-68"/>
      <path d="M 7.328125 0 
L 7.328125 71.578125 
L 16.796875 71.578125 
L 16.796875 8.453125 
L 52.046875 8.453125 
L 52.046875 0 
z
" id="ArialMT-76"/>
      <path d="M 7.90625 0 
L 7.90625 71.578125 
L 59.671875 71.578125 
L 59.671875 63.140625 
L 17.390625 63.140625 
L 17.390625 41.21875 
L 56.984375 41.21875 
L 56.984375 32.8125 
L 17.390625 32.8125 
L 17.390625 8.453125 
L 61.328125 8.453125 
L 61.328125 0 
z
" id="ArialMT-69"/>
     </defs>
     <use xlink:href="#ArialMT-68"/>
     <use x="72.216797" xlink:href="#ArialMT-76"/>
     <use x="124.082031" xlink:href="#ArialMT-32"/>
     <use x="151.865234" xlink:href="#ArialMT-68"/>
     <use x="224.082031" xlink:href="#ArialMT-69"/>
     <use x="290.78125" xlink:href="#ArialMT-84"/>
     <use x="351.865234" xlink:href="#ArialMT-69"/>
     <use x="418.564453" xlink:href="#ArialMT-67"/>
     <use x="490.78125" xlink:href="#ArialMT-84"/>
    </g>
   </g>
   <g id="line2d_53">
    <path d="M 362.876375 140.265 
L 380.476375 140.265 
" style="fill:none;stroke:#decf3f;stroke-linecap:round;stroke-width:1.2;"/>
   </g>
   <g id="line2d_54">
    <defs>
     <path d="M -2.4 2.4 
L 2.4 2.4 
L 2.4 -2.4 
L -2.4 -2.4 
z
" id="m6c6d892c12" style="stroke:#decf3f;stroke-linejoin:miter;"/>
    </defs>
    <g>
     <use style="fill:#decf3f;stroke:#decf3f;stroke-linejoin:miter;" x="371.676375" xlink:href="#m6c6d892c12" y="140.265"/>
    </g>
   </g>
   <g id="text_34">
    <!-- WAIT DIE -->
    <g style="fill:#262626;" transform="translate(387.516375 143.345)scale(0.088 -0.088)">
     <defs>
      <path d="M 20.21875 0 
L 1.21875 71.578125 
L 10.9375 71.578125 
L 21.828125 24.65625 
Q 23.578125 17.28125 24.859375 10.015625 
Q 27.59375 21.484375 28.078125 23.25 
L 41.703125 71.578125 
L 53.125 71.578125 
L 63.375 35.359375 
Q 67.234375 21.875 68.953125 10.015625 
Q 70.3125 16.796875 72.515625 25.59375 
L 83.734375 71.578125 
L 93.265625 71.578125 
L 73.640625 0 
L 64.5 0 
L 49.421875 54.546875 
Q 47.515625 61.375 47.171875 62.9375 
Q 46.046875 58.015625 45.0625 54.546875 
L 29.890625 0 
z
" id="ArialMT-87"/>
      <path d="M 9.328125 0 
L 9.328125 71.578125 
L 18.796875 71.578125 
L 18.796875 0 
z
" id="ArialMT-73"/>
     </defs>
     <use xlink:href="#ArialMT-87"/>
     <use x="90.634766" xlink:href="#ArialMT-65"/>
     <use x="157.333984" xlink:href="#ArialMT-73"/>
     <use x="185.117188" xlink:href="#ArialMT-84"/>
     <use x="244.451172" xlink:href="#ArialMT-32"/>
     <use x="272.234375" xlink:href="#ArialMT-68"/>
     <use x="344.451172" xlink:href="#ArialMT-73"/>
     <use x="372.234375" xlink:href="#ArialMT-69"/>
    </g>
   </g>
   <g id="line2d_55">
    <path d="M 362.876375 152.712875 
L 380.476375 152.712875 
" style="fill:none;stroke:#faa43a;stroke-linecap:round;stroke-width:1.2;"/>
   </g>
   <g id="line2d_56">
    <defs>
     <path d="M 0 3.394113 
L 2.036468 0 
L 0 -3.394113 
L -2.036468 0 
z
" id="m0eb4eae4c1" style="stroke:#faa43a;stroke-linejoin:miter;"/>
    </defs>
    <g>
     <use style="fill:#faa43a;stroke:#faa43a;stroke-linejoin:miter;" x="371.676375" xlink:href="#m0eb4eae4c1" y="152.712875"/>
    </g>
   </g>
   <g id="text_35">
    <!-- NO WAIT -->
    <g style="fill:#262626;" transform="translate(387.516375 155.792875)scale(0.088 -0.088)">
     <use xlink:href="#ArialMT-78"/>
     <use x="72.216797" xlink:href="#ArialMT-79"/>
     <use x="150" xlink:href="#ArialMT-32"/>
     <use x="177.783203" xlink:href="#ArialMT-87"/>
     <use x="268.417969" xlink:href="#ArialMT-65"/>
     <use x="335.117188" xlink:href="#ArialMT-73"/>
     <use x="362.900391" xlink:href="#ArialMT-84"/>
    </g>
   </g>
   <g id="line2d_57">
    <path d="M 362.876375 165.16075 
L 380.476375 165.16075 
" style="fill:none;stroke:#5da5da;stroke-linecap:round;stroke-width:1.2;"/>
   </g>
   <g id="line2d_58">
    <defs>
     <path d="M 0 -2.4 
L -2.282536 -0.741641 
L -1.410685 1.941641 
L 1.410685 1.941641 
L 2.282536 -0.741641 
z
" id="m5f6cfc60db" style="stroke:#5da5da;stroke-linejoin:miter;"/>
    </defs>
    <g>
     <use style="fill:#5da5da;stroke:#5da5da;stroke-linejoin:miter;" x="371.676375" xlink:href="#m5f6cfc60db" y="165.16075"/>
    </g>
   </g>
   <g id="text_36">
    <!-- MVCC -->
    <g style="fill:#262626;" transform="translate(387.516375 168.24075)scale(0.088 -0.088)">
     <defs>
      <path d="M 7.421875 0 
L 7.421875 71.578125 
L 21.6875 71.578125 
L 38.625 20.90625 
Q 40.96875 13.8125 42.046875 10.296875 
Q 43.265625 14.203125 45.84375 21.78125 
L 62.984375 71.578125 
L 75.734375 71.578125 
L 75.734375 0 
L 66.609375 0 
L 66.609375 59.90625 
L 45.796875 0 
L 37.25 0 
L 16.546875 60.9375 
L 16.546875 0 
z
" id="ArialMT-77"/>
      <path d="M 28.171875 0 
L 0.4375 71.578125 
L 10.6875 71.578125 
L 29.296875 19.578125 
Q 31.546875 13.328125 33.0625 7.859375 
Q 34.71875 13.71875 36.921875 19.578125 
L 56.25 71.578125 
L 65.921875 71.578125 
L 37.890625 0 
z
" id="ArialMT-86"/>
     </defs>
     <use xlink:href="#ArialMT-77"/>
     <use x="83.300781" xlink:href="#ArialMT-86"/>
     <use x="150" xlink:href="#ArialMT-67"/>
     <use x="222.216797" xlink:href="#ArialMT-67"/>
    </g>
   </g>
   <g id="line2d_59">
    <path d="M 362.876375 177.608625 
L 380.476375 177.608625 
" style="fill:none;stroke:#b276b2;stroke-linecap:round;stroke-width:1.2;"/>
   </g>
   <g id="line2d_60">
    <defs>
     <path d="M 0 2.4 
C 0.636487 2.4 1.246992 2.147121 1.697056 1.697056 
C 2.147121 1.246992 2.4 0.636487 2.4 0 
C 2.4 -0.636487 2.147121 -1.246992 1.697056 -1.697056 
C 1.246992 -2.147121 0.636487 -2.4 0 -2.4 
C -0.636487 -2.4 -1.246992 -2.147121 -1.697056 -1.697056 
C -2.147121 -1.246992 -2.4 -0.636487 -2.4 0 
C -2.4 0.636487 -2.147121 1.246992 -1.697056 1.697056 
C -1.246992 2.147121 -0.636487 2.4 0 2.4 
z
" id="mcb28ada04e" style="stroke:#b276b2;"/>
    </defs>
    <g>
     <use style="fill:#b276b2;stroke:#b276b2;" x="371.676375" xlink:href="#mcb28ada04e" y="177.608625"/>
    </g>
   </g>
   <g id="text_37">
    <!-- OCC -->
    <g style="fill:#262626;" transform="translate(387.516375 180.688625)scale(0.088 -0.088)">
     <use xlink:href="#ArialMT-79"/>
     <use x="77.783203" xlink:href="#ArialMT-67"/>
     <use x="150" xlink:href="#ArialMT-67"/>
    </g>
   </g>
   <g id="line2d_61">
    <path d="M 362.876375 190.0565 
L 380.476375 190.0565 
" style="fill:none;stroke:#4d4d4d;stroke-linecap:round;stroke-width:1.2;"/>
   </g>
   <g id="line2d_62">
    <defs>
     <path d="M -2.4 2.4 
L 2.4 2.4 
L 2.4 -2.4 
L -2.4 -2.4 
z
" id="mc0ee1f28c7" style="stroke:#4d4d4d;stroke-linejoin:miter;"/>
    </defs>
    <g>
     <use style="fill:#4d4d4d;stroke:#4d4d4d;stroke-linejoin:miter;" x="371.676375" xlink:href="#mc0ee1f28c7" y="190.0565"/>
    </g>
   </g>
   <g id="text_38">
    <!-- HSTORE -->
    <g style="fill:#262626;" transform="translate(387.516375 193.1365)scale(0.088 -0.088)">
     <defs>
      <path d="M 8.015625 0 
L 8.015625 71.578125 
L 17.484375 71.578125 
L 17.484375 42.1875 
L 54.6875 42.1875 
L 54.6875 71.578125 
L 64.15625 71.578125 
L 64.15625 0 
L 54.6875 0 
L 54.6875 33.734375 
L 17.484375 33.734375 
L 17.484375 0 
z
" id="ArialMT-72"/>
      <path d="M 4.5 23 
L 13.421875 23.78125 
Q 14.0625 18.40625 16.375 14.96875 
Q 18.703125 11.53125 23.578125 9.40625 
Q 28.46875 7.28125 34.578125 7.28125 
Q 39.984375 7.28125 44.140625 8.890625 
Q 48.296875 10.5 50.3125 13.296875 
Q 52.34375 16.109375 52.34375 19.4375 
Q 52.34375 22.796875 50.390625 25.3125 
Q 48.4375 27.828125 43.953125 29.546875 
Q 41.0625 30.671875 31.203125 33.03125 
Q 21.34375 35.40625 17.390625 37.5 
Q 12.25 40.1875 9.734375 44.15625 
Q 7.234375 48.140625 7.234375 53.078125 
Q 7.234375 58.5 10.296875 63.203125 
Q 13.375 67.921875 19.28125 70.359375 
Q 25.203125 72.796875 32.421875 72.796875 
Q 40.375 72.796875 46.453125 70.234375 
Q 52.546875 67.671875 55.8125 62.6875 
Q 59.078125 57.71875 59.328125 51.421875 
L 50.25 50.734375 
Q 49.515625 57.515625 45.28125 60.984375 
Q 41.0625 64.453125 32.8125 64.453125 
Q 24.21875 64.453125 20.28125 61.296875 
Q 16.359375 58.15625 16.359375 53.71875 
Q 16.359375 49.859375 19.140625 47.359375 
Q 21.875 44.875 33.421875 42.265625 
Q 44.96875 39.65625 49.265625 37.703125 
Q 55.515625 34.8125 58.484375 30.390625 
Q 61.46875 25.984375 61.46875 20.21875 
Q 61.46875 14.5 58.203125 9.4375 
Q 54.9375 4.390625 48.796875 1.578125 
Q 42.671875 -1.21875 35.015625 -1.21875 
Q 25.296875 -1.21875 18.71875 1.609375 
Q 12.15625 4.4375 8.421875 10.125 
Q 4.6875 15.828125 4.5 23 
z
" id="ArialMT-83"/>
      <path d="M 7.859375 0 
L 7.859375 71.578125 
L 39.59375 71.578125 
Q 49.171875 71.578125 54.140625 69.640625 
Q 59.125 67.71875 62.109375 62.828125 
Q 65.09375 57.953125 65.09375 52.046875 
Q 65.09375 44.4375 60.15625 39.203125 
Q 55.21875 33.984375 44.921875 32.5625 
Q 48.6875 30.765625 50.640625 29 
Q 54.78125 25.203125 58.5 19.484375 
L 70.953125 0 
L 59.03125 0 
L 49.5625 14.890625 
Q 45.40625 21.34375 42.71875 24.75 
Q 40.046875 28.171875 37.921875 29.53125 
Q 35.796875 30.90625 33.59375 31.453125 
Q 31.984375 31.78125 28.328125 31.78125 
L 17.328125 31.78125 
L 17.328125 0 
z
M 17.328125 39.984375 
L 37.703125 39.984375 
Q 44.1875 39.984375 47.84375 41.328125 
Q 51.515625 42.671875 53.421875 45.625 
Q 55.328125 48.578125 55.328125 52.046875 
Q 55.328125 57.125 51.640625 60.390625 
Q 47.953125 63.671875 39.984375 63.671875 
L 17.328125 63.671875 
z
" id="ArialMT-82"/>
     </defs>
     <use xlink:href="#ArialMT-72"/>
     <use x="72.216797" xlink:href="#ArialMT-83"/>
     <use x="138.916016" xlink:href="#ArialMT-84"/>
     <use x="198.25" xlink:href="#ArialMT-79"/>
     <use x="276.033203" xlink:href="#ArialMT-82"/>
     <use x="348.25" xlink:href="#ArialMT-69"/>
    </g>
   </g>
   <g id="line2d_63">
    <path d="M 362.876375 202.504375 
L 380.476375 202.504375 
" style="fill:none;stroke:#ff0080;stroke-linecap:round;stroke-width:1.2;"/>
   </g>
   <g id="line2d_64">
    <defs>
     <path d="M 0 -2.4 
L -2.282536 -0.741641 
L -1.410685 1.941641 
L 1.410685 1.941641 
L 2.282536 -0.741641 
z
" id="md826069548" style="stroke:#ff0080;stroke-linejoin:miter;"/>
    </defs>
    <g>
     <use style="fill:#ff0080;stroke:#ff0080;stroke-linejoin:miter;" x="371.676375" xlink:href="#md826069548" y="202.504375"/>
    </g>
   </g>
   <g id="text_39">
    <!-- SILO -->
    <g style="fill:#262626;" transform="translate(387.516375 205.584375)scale(0.088 -0.088)">
     <use xlink:href="#ArialMT-83"/>
     <use x="66.699219" xlink:href="#ArialMT-73"/>
     <use x="94.482422" xlink:href="#ArialMT-76"/>
     <use x="150.097656" xlink:href="#ArialMT-79"/>
    </g>
   </g>
   <g id="line2d_65">
    <path d="M 362.876375 214.95225 
L 380.476375 214.95225 
" style="fill:none;stroke:#a1a1a1;stroke-linecap:round;stroke-width:1.2;"/>
   </g>
   <g id="line2d_66">
    <defs>
     <path d="M 0 -2.4 
L -2.4 2.4 
L 2.4 2.4 
z
" id="m283b7254c6" style="stroke:#a1a1a1;stroke-linejoin:miter;"/>
    </defs>
    <g>
     <use style="fill:#a1a1a1;stroke:#a1a1a1;stroke-linejoin:miter;" x="371.676375" xlink:href="#m283b7254c6" y="214.95225"/>
    </g>
   </g>
   <g id="text_40">
    <!-- TICTOC -->
    <g style="fill:#262626;" transform="translate(387.516375 218.03225)scale(0.088 -0.088)">
     <use xlink:href="#ArialMT-84"/>
     <use x="61.083984" xlink:href="#ArialMT-73"/>
     <use x="88.867188" xlink:href="#ArialMT-67"/>
     <use x="161.083984" xlink:href="#ArialMT-84"/>
     <use x="220.417969" xlink:href="#ArialMT-79"/>
     <use x="298.201172" xlink:href="#ArialMT-67"/>
    </g>
   </g>
  </g>
 </g>
 <defs>
  <clipPath id="p6eb524afb9">
   <rect height="128.398" width="322.19996" x="37.68004" y="23.368"/>
  </clipPath>
  <clipPath id="p82b594f215">
   <rect height="128.398" width="322.19996" x="37.68004" y="175.134"/>
  </clipPath>
 </defs>
</svg>
