<?xml version="1.0" encoding="utf-8" standalone="no"?>
<!DOCTYPE svg PUBLIC "-//W3C//DTD SVG 1.1//EN"
  "http://www.w3.org/Graphics/SVG/1.1/DTD/svg11.dtd">
<!-- Created with matplotlib (https://matplotlib.org/) -->
<svg height="331.2pt" version="1.1" viewBox="0 0 444 331.2" width="444pt" xmlns="http://www.w3.org/2000/svg" xmlns:xlink="http://www.w3.org/1999/xlink">
 <metadata>
  <rdf:RDF xmlns:cc="http://creativecommons.org/ns#" xmlns:dc="http://purl.org/dc/elements/1.1/" xmlns:rdf="http://www.w3.org/1999/02/22-rdf-syntax-ns#">
   <cc:Work>
    <dc:type rdf:resource="http://purl.org/dc/dcmitype/StillImage"/>
    <dc:date>2021-03-31T14:02:49.680537</dc:date>
    <dc:format>image/svg+xml</dc:format>
    <dc:creator>
     <cc:Agent>
      <dc:title>Matplotlib v3.3.2, https://matplotlib.org/</dc:title>
     </cc:Agent>
    </dc:creator>
   </cc:Work>
  </rdf:RDF>
 </metadata>
 <defs>
  <style type="text/css">*{stroke-linecap:butt;stroke-linejoin:round;}</style>
 </defs>
 <g id="figure_1">
  <g id="patch_1">
   <path d="M 0 331.2 
L 444 331.2 
L 444 0 
L 0 0 
z
" style="fill:#ffffff;"/>
  </g>
  <g id="axes_1">
   <g id="patch_2">
    <path d="M 40.574473 151.766 
L 359.88 151.766 
L 359.88 23.368 
L 40.574473 23.368 
z
" style="fill:#ffffff;"/>
   </g>
   <g id="matplotlib.axis_1">
    <g id="xtick_1">
     <g id="line2d_1">
      <path clip-path="url(#pd640b2fa0f)" d="M 40.574473 151.766 
L 40.574473 23.368 
" style="fill:none;stroke:#cccccc;stroke-linecap:round;stroke-width:0.8;"/>
     </g>
     <g id="text_1">
      <!-- 0 -->
      <g style="fill:#262626;" transform="translate(38.12766 159.864875)scale(0.088 -0.088)">
       <defs>
        <path d="M 4.15625 35.296875 
Q 4.15625 48 6.765625 55.734375 
Q 9.375 63.484375 14.515625 67.671875 
Q 19.671875 71.875 27.484375 71.875 
Q 33.25 71.875 37.59375 69.546875 
Q 41.9375 67.234375 44.765625 62.859375 
Q 47.609375 58.5 49.21875 52.21875 
Q 50.828125 45.953125 50.828125 35.296875 
Q 50.828125 22.703125 48.234375 14.96875 
Q 45.65625 7.234375 40.5 3 
Q 35.359375 -1.21875 27.484375 -1.21875 
Q 17.140625 -1.21875 11.234375 6.203125 
Q 4.15625 15.140625 4.15625 35.296875 
z
M 13.1875 35.296875 
Q 13.1875 17.671875 17.3125 11.828125 
Q 21.4375 6 27.484375 6 
Q 33.546875 6 37.671875 11.859375 
Q 41.796875 17.71875 41.796875 35.296875 
Q 41.796875 52.984375 37.671875 58.78125 
Q 33.546875 64.59375 27.390625 64.59375 
Q 21.34375 64.59375 17.71875 59.46875 
Q 13.1875 52.9375 13.1875 35.296875 
z
" id="ArialMT-48"/>
       </defs>
       <use xlink:href="#ArialMT-48"/>
      </g>
     </g>
    </g>
    <g id="xtick_2">
     <g id="line2d_2">
      <path clip-path="url(#pd640b2fa0f)" d="M 108.468483 151.766 
L 108.468483 23.368 
" style="fill:none;stroke:#cccccc;stroke-linecap:round;stroke-width:0.8;"/>
     </g>
     <g id="text_2">
      <!-- 50 -->
      <g style="fill:#262626;" transform="translate(103.574858 159.864875)scale(0.088 -0.088)">
       <defs>
        <path d="M 4.15625 18.75 
L 13.375 19.53125 
Q 14.40625 12.796875 18.140625 9.390625 
Q 21.875 6 27.15625 6 
Q 33.5 6 37.890625 10.78125 
Q 42.28125 15.578125 42.28125 23.484375 
Q 42.28125 31 38.0625 35.34375 
Q 33.84375 39.703125 27 39.703125 
Q 22.75 39.703125 19.328125 37.765625 
Q 15.921875 35.84375 13.96875 32.765625 
L 5.71875 33.84375 
L 12.640625 70.609375 
L 48.25 70.609375 
L 48.25 62.203125 
L 19.671875 62.203125 
L 15.828125 42.96875 
Q 22.265625 47.46875 29.34375 47.46875 
Q 38.71875 47.46875 45.15625 40.96875 
Q 51.609375 34.46875 51.609375 24.265625 
Q 51.609375 14.546875 45.953125 7.46875 
Q 39.0625 -1.21875 27.15625 -1.21875 
Q 17.390625 -1.21875 11.203125 4.25 
Q 5.03125 9.71875 4.15625 18.75 
z
" id="ArialMT-53"/>
       </defs>
       <use xlink:href="#ArialMT-53"/>
       <use x="55.615234" xlink:href="#ArialMT-48"/>
      </g>
     </g>
    </g>
    <g id="xtick_3">
     <g id="line2d_3">
      <path clip-path="url(#pd640b2fa0f)" d="M 176.362492 151.766 
L 176.362492 23.368 
" style="fill:none;stroke:#cccccc;stroke-linecap:round;stroke-width:0.8;"/>
     </g>
     <g id="text_3">
      <!-- 100 -->
      <g style="fill:#262626;" transform="translate(169.022055 159.864875)scale(0.088 -0.088)">
       <defs>
        <path d="M 37.25 0 
L 28.46875 0 
L 28.46875 56 
Q 25.296875 52.984375 20.140625 49.953125 
Q 14.984375 46.921875 10.890625 45.40625 
L 10.890625 53.90625 
Q 18.265625 57.375 23.78125 62.296875 
Q 29.296875 67.234375 31.59375 71.875 
L 37.25 71.875 
z
" id="ArialMT-49"/>
       </defs>
       <use xlink:href="#ArialMT-49"/>
       <use x="55.615234" xlink:href="#ArialMT-48"/>
       <use x="111.230469" xlink:href="#ArialMT-48"/>
      </g>
     </g>
    </g>
    <g id="xtick_4">
     <g id="line2d_4">
      <path clip-path="url(#pd640b2fa0f)" d="M 244.256502 151.766 
L 244.256502 23.368 
" style="fill:none;stroke:#cccccc;stroke-linecap:round;stroke-width:0.8;"/>
     </g>
     <g id="text_4">
      <!-- 150 -->
      <g style="fill:#262626;" transform="translate(236.916064 159.864875)scale(0.088 -0.088)">
       <use xlink:href="#ArialMT-49"/>
       <use x="55.615234" xlink:href="#ArialMT-53"/>
       <use x="111.230469" xlink:href="#ArialMT-48"/>
      </g>
     </g>
    </g>
    <g id="xtick_5">
     <g id="line2d_5">
      <path clip-path="url(#pd640b2fa0f)" d="M 312.150511 151.766 
L 312.150511 23.368 
" style="fill:none;stroke:#cccccc;stroke-linecap:round;stroke-width:0.8;"/>
     </g>
     <g id="text_5">
      <!-- 200 -->
      <g style="fill:#262626;" transform="translate(304.810074 159.864875)scale(0.088 -0.088)">
       <defs>
        <path d="M 50.34375 8.453125 
L 50.34375 0 
L 3.03125 0 
Q 2.9375 3.171875 4.046875 6.109375 
Q 5.859375 10.9375 9.828125 15.625 
Q 13.8125 20.3125 21.34375 26.46875 
Q 33.015625 36.03125 37.109375 41.625 
Q 41.21875 47.21875 41.21875 52.203125 
Q 41.21875 57.421875 37.46875 61 
Q 33.734375 64.59375 27.734375 64.59375 
Q 21.390625 64.59375 17.578125 60.78125 
Q 13.765625 56.984375 13.71875 50.25 
L 4.6875 51.171875 
Q 5.609375 61.28125 11.65625 66.578125 
Q 17.71875 71.875 27.9375 71.875 
Q 38.234375 71.875 44.234375 66.15625 
Q 50.25 60.453125 50.25 52 
Q 50.25 47.703125 48.484375 43.546875 
Q 46.734375 39.40625 42.65625 34.8125 
Q 38.578125 30.21875 29.109375 22.21875 
Q 21.1875 15.578125 18.9375 13.203125 
Q 16.703125 10.84375 15.234375 8.453125 
z
" id="ArialMT-50"/>
       </defs>
       <use xlink:href="#ArialMT-50"/>
       <use x="55.615234" xlink:href="#ArialMT-48"/>
       <use x="111.230469" xlink:href="#ArialMT-48"/>
      </g>
     </g>
    </g>
   </g>
   <g id="matplotlib.axis_2">
    <g id="ytick_1">
     <g id="line2d_6">
      <path clip-path="url(#pd640b2fa0f)" d="M 40.574473 151.766 
L 359.88 151.766 
" style="fill:none;stroke:#cccccc;stroke-linecap:round;stroke-width:0.8;"/>
     </g>
     <g id="text_6">
      <!-- 0.00 -->
      <g style="fill:#262626;" transform="translate(15.148848 154.915437)scale(0.088 -0.088)">
       <defs>
        <path d="M 9.078125 0 
L 9.078125 10.015625 
L 19.09375 10.015625 
L 19.09375 0 
z
" id="ArialMT-46"/>
       </defs>
       <use xlink:href="#ArialMT-48"/>
       <use x="55.615234" xlink:href="#ArialMT-46"/>
       <use x="83.398438" xlink:href="#ArialMT-48"/>
       <use x="139.013672" xlink:href="#ArialMT-48"/>
      </g>
     </g>
    </g>
    <g id="ytick_2">
     <g id="line2d_7">
      <path clip-path="url(#pd640b2fa0f)" d="M 40.574473 124.959357 
L 359.88 124.959357 
" style="fill:none;stroke:#cccccc;stroke-linecap:round;stroke-width:0.8;"/>
     </g>
     <g id="text_7">
      <!-- 100.00 -->
      <g style="fill:#262626;" transform="translate(5.361598 128.108794)scale(0.088 -0.088)">
       <use xlink:href="#ArialMT-49"/>
       <use x="55.615234" xlink:href="#ArialMT-48"/>
       <use x="111.230469" xlink:href="#ArialMT-48"/>
       <use x="166.845703" xlink:href="#ArialMT-46"/>
       <use x="194.628906" xlink:href="#ArialMT-48"/>
       <use x="250.244141" xlink:href="#ArialMT-48"/>
      </g>
     </g>
    </g>
    <g id="ytick_3">
     <g id="line2d_8">
      <path clip-path="url(#pd640b2fa0f)" d="M 40.574473 98.152714 
L 359.88 98.152714 
" style="fill:none;stroke:#cccccc;stroke-linecap:round;stroke-width:0.8;"/>
     </g>
     <g id="text_8">
      <!-- 200.00 -->
      <g style="fill:#262626;" transform="translate(5.361598 101.302151)scale(0.088 -0.088)">
       <use xlink:href="#ArialMT-50"/>
       <use x="55.615234" xlink:href="#ArialMT-48"/>
       <use x="111.230469" xlink:href="#ArialMT-48"/>
       <use x="166.845703" xlink:href="#ArialMT-46"/>
       <use x="194.628906" xlink:href="#ArialMT-48"/>
       <use x="250.244141" xlink:href="#ArialMT-48"/>
      </g>
     </g>
    </g>
    <g id="ytick_4">
     <g id="line2d_9">
      <path clip-path="url(#pd640b2fa0f)" d="M 40.574473 71.346071 
L 359.88 71.346071 
" style="fill:none;stroke:#cccccc;stroke-linecap:round;stroke-width:0.8;"/>
     </g>
     <g id="text_9">
      <!-- 300.00 -->
      <g style="fill:#262626;" transform="translate(5.361598 74.495508)scale(0.088 -0.088)">
       <defs>
        <path d="M 4.203125 18.890625 
L 12.984375 20.0625 
Q 14.5 12.59375 18.140625 9.296875 
Q 21.78125 6 27 6 
Q 33.203125 6 37.46875 10.296875 
Q 41.75 14.59375 41.75 20.953125 
Q 41.75 27 37.796875 30.921875 
Q 33.84375 34.859375 27.734375 34.859375 
Q 25.25 34.859375 21.53125 33.890625 
L 22.515625 41.609375 
Q 23.390625 41.5 23.921875 41.5 
Q 29.546875 41.5 34.03125 44.421875 
Q 38.53125 47.359375 38.53125 53.46875 
Q 38.53125 58.296875 35.25 61.46875 
Q 31.984375 64.65625 26.8125 64.65625 
Q 21.6875 64.65625 18.265625 61.421875 
Q 14.84375 58.203125 13.875 51.765625 
L 5.078125 53.328125 
Q 6.6875 62.15625 12.390625 67.015625 
Q 18.109375 71.875 26.609375 71.875 
Q 32.46875 71.875 37.390625 69.359375 
Q 42.328125 66.84375 44.9375 62.5 
Q 47.5625 58.15625 47.5625 53.265625 
Q 47.5625 48.640625 45.0625 44.828125 
Q 42.578125 41.015625 37.703125 38.765625 
Q 44.046875 37.3125 47.5625 32.6875 
Q 51.078125 28.078125 51.078125 21.140625 
Q 51.078125 11.765625 44.234375 5.25 
Q 37.40625 -1.265625 26.953125 -1.265625 
Q 17.53125 -1.265625 11.296875 4.34375 
Q 5.078125 9.96875 4.203125 18.890625 
z
" id="ArialMT-51"/>
       </defs>
       <use xlink:href="#ArialMT-51"/>
       <use x="55.615234" xlink:href="#ArialMT-48"/>
       <use x="111.230469" xlink:href="#ArialMT-48"/>
       <use x="166.845703" xlink:href="#ArialMT-46"/>
       <use x="194.628906" xlink:href="#ArialMT-48"/>
       <use x="250.244141" xlink:href="#ArialMT-48"/>
      </g>
     </g>
    </g>
    <g id="ytick_5">
     <g id="line2d_10">
      <path clip-path="url(#pd640b2fa0f)" d="M 40.574473 44.539428 
L 359.88 44.539428 
" style="fill:none;stroke:#cccccc;stroke-linecap:round;stroke-width:0.8;"/>
     </g>
     <g id="text_10">
      <!-- 400.00 -->
      <g style="fill:#262626;" transform="translate(5.361598 47.688865)scale(0.088 -0.088)">
       <defs>
        <path d="M 32.328125 0 
L 32.328125 17.140625 
L 1.265625 17.140625 
L 1.265625 25.203125 
L 33.9375 71.578125 
L 41.109375 71.578125 
L 41.109375 25.203125 
L 50.78125 25.203125 
L 50.78125 17.140625 
L 41.109375 17.140625 
L 41.109375 0 
z
M 32.328125 25.203125 
L 32.328125 57.46875 
L 9.90625 25.203125 
z
" id="ArialMT-52"/>
       </defs>
       <use xlink:href="#ArialMT-52"/>
       <use x="55.615234" xlink:href="#ArialMT-48"/>
       <use x="111.230469" xlink:href="#ArialMT-48"/>
       <use x="166.845703" xlink:href="#ArialMT-46"/>
       <use x="194.628906" xlink:href="#ArialMT-48"/>
       <use x="250.244141" xlink:href="#ArialMT-48"/>
      </g>
     </g>
    </g>
    <g id="text_11">
     <!-- Thousand txn/s -->
     <g style="fill:#262626;" transform="translate(-0.546402 120.384)rotate(-90)scale(0.096 -0.096)">
      <defs>
       <path d="M 25.921875 0 
L 25.921875 63.140625 
L 2.34375 63.140625 
L 2.34375 71.578125 
L 59.078125 71.578125 
L 59.078125 63.140625 
L 35.40625 63.140625 
L 35.40625 0 
z
" id="ArialMT-84"/>
       <path d="M 6.59375 0 
L 6.59375 71.578125 
L 15.375 71.578125 
L 15.375 45.90625 
Q 21.53125 53.03125 30.90625 53.03125 
Q 36.671875 53.03125 40.921875 50.75 
Q 45.171875 48.484375 47 44.484375 
Q 48.828125 40.484375 48.828125 32.859375 
L 48.828125 0 
L 40.046875 0 
L 40.046875 32.859375 
Q 40.046875 39.453125 37.1875 42.453125 
Q 34.328125 45.453125 29.109375 45.453125 
Q 25.203125 45.453125 21.75 43.421875 
Q 18.3125 41.40625 16.84375 37.9375 
Q 15.375 34.46875 15.375 28.375 
L 15.375 0 
z
" id="ArialMT-104"/>
       <path d="M 3.328125 25.921875 
Q 3.328125 40.328125 11.328125 47.265625 
Q 18.015625 53.03125 27.640625 53.03125 
Q 38.328125 53.03125 45.109375 46.015625 
Q 51.90625 39.015625 51.90625 26.65625 
Q 51.90625 16.65625 48.90625 10.90625 
Q 45.90625 5.171875 40.15625 2 
Q 34.421875 -1.171875 27.640625 -1.171875 
Q 16.75 -1.171875 10.03125 5.8125 
Q 3.328125 12.796875 3.328125 25.921875 
z
M 12.359375 25.921875 
Q 12.359375 15.96875 16.703125 11.015625 
Q 21.046875 6.0625 27.640625 6.0625 
Q 34.1875 6.0625 38.53125 11.03125 
Q 42.875 16.015625 42.875 26.21875 
Q 42.875 35.84375 38.5 40.796875 
Q 34.125 45.75 27.640625 45.75 
Q 21.046875 45.75 16.703125 40.8125 
Q 12.359375 35.890625 12.359375 25.921875 
z
" id="ArialMT-111"/>
       <path d="M 40.578125 0 
L 40.578125 7.625 
Q 34.515625 -1.171875 24.125 -1.171875 
Q 19.53125 -1.171875 15.546875 0.578125 
Q 11.578125 2.34375 9.640625 5 
Q 7.71875 7.671875 6.9375 11.53125 
Q 6.390625 14.109375 6.390625 19.734375 
L 6.390625 51.859375 
L 15.1875 51.859375 
L 15.1875 23.09375 
Q 15.1875 16.21875 15.71875 13.8125 
Q 16.546875 10.359375 19.234375 8.375 
Q 21.921875 6.390625 25.875 6.390625 
Q 29.828125 6.390625 33.296875 8.421875 
Q 36.765625 10.453125 38.203125 13.9375 
Q 39.65625 17.4375 39.65625 24.078125 
L 39.65625 51.859375 
L 48.4375 51.859375 
L 48.4375 0 
z
" id="ArialMT-117"/>
       <path d="M 3.078125 15.484375 
L 11.765625 16.84375 
Q 12.5 11.625 15.84375 8.84375 
Q 19.1875 6.0625 25.203125 6.0625 
Q 31.25 6.0625 34.171875 8.515625 
Q 37.109375 10.984375 37.109375 14.3125 
Q 37.109375 17.28125 34.515625 19 
Q 32.71875 20.171875 25.53125 21.96875 
Q 15.875 24.421875 12.140625 26.203125 
Q 8.40625 27.984375 6.46875 31.125 
Q 4.546875 34.28125 4.546875 38.09375 
Q 4.546875 41.546875 6.125 44.5 
Q 7.71875 47.46875 10.453125 49.421875 
Q 12.5 50.921875 16.03125 51.96875 
Q 19.578125 53.03125 23.640625 53.03125 
Q 29.734375 53.03125 34.34375 51.265625 
Q 38.96875 49.515625 41.15625 46.5 
Q 43.359375 43.5 44.1875 38.484375 
L 35.59375 37.3125 
Q 35.015625 41.3125 32.203125 43.546875 
Q 29.390625 45.796875 24.265625 45.796875 
Q 18.21875 45.796875 15.625 43.796875 
Q 13.03125 41.796875 13.03125 39.109375 
Q 13.03125 37.40625 14.109375 36.03125 
Q 15.1875 34.625 17.484375 33.6875 
Q 18.796875 33.203125 25.25 31.453125 
Q 34.578125 28.953125 38.25 27.359375 
Q 41.9375 25.78125 44.03125 22.75 
Q 46.140625 19.734375 46.140625 15.234375 
Q 46.140625 10.84375 43.578125 6.953125 
Q 41.015625 3.078125 36.171875 0.953125 
Q 31.34375 -1.171875 25.25 -1.171875 
Q 15.140625 -1.171875 9.84375 3.03125 
Q 4.546875 7.234375 3.078125 15.484375 
z
" id="ArialMT-115"/>
       <path d="M 40.4375 6.390625 
Q 35.546875 2.25 31.03125 0.53125 
Q 26.515625 -1.171875 21.34375 -1.171875 
Q 12.796875 -1.171875 8.203125 3 
Q 3.609375 7.171875 3.609375 13.671875 
Q 3.609375 17.484375 5.34375 20.625 
Q 7.078125 23.78125 9.890625 25.6875 
Q 12.703125 27.59375 16.21875 28.5625 
Q 18.796875 29.25 24.03125 29.890625 
Q 34.671875 31.15625 39.703125 32.90625 
Q 39.75 34.71875 39.75 35.203125 
Q 39.75 40.578125 37.25 42.78125 
Q 33.890625 45.75 27.25 45.75 
Q 21.046875 45.75 18.09375 43.578125 
Q 15.140625 41.40625 13.71875 35.890625 
L 5.125 37.0625 
Q 6.296875 42.578125 8.984375 45.96875 
Q 11.671875 49.359375 16.75 51.1875 
Q 21.828125 53.03125 28.515625 53.03125 
Q 35.15625 53.03125 39.296875 51.46875 
Q 43.453125 49.90625 45.40625 47.53125 
Q 47.359375 45.171875 48.140625 41.546875 
Q 48.578125 39.3125 48.578125 33.453125 
L 48.578125 21.734375 
Q 48.578125 9.46875 49.140625 6.21875 
Q 49.703125 2.984375 51.375 0 
L 42.1875 0 
Q 40.828125 2.734375 40.4375 6.390625 
z
M 39.703125 26.03125 
Q 34.90625 24.078125 25.34375 22.703125 
Q 19.921875 21.921875 17.671875 20.9375 
Q 15.4375 19.96875 14.203125 18.09375 
Q 12.984375 16.21875 12.984375 13.921875 
Q 12.984375 10.40625 15.640625 8.0625 
Q 18.3125 5.71875 23.4375 5.71875 
Q 28.515625 5.71875 32.46875 7.9375 
Q 36.421875 10.15625 38.28125 14.015625 
Q 39.703125 17 39.703125 22.796875 
z
" id="ArialMT-97"/>
       <path d="M 6.59375 0 
L 6.59375 51.859375 
L 14.5 51.859375 
L 14.5 44.484375 
Q 20.21875 53.03125 31 53.03125 
Q 35.6875 53.03125 39.625 51.34375 
Q 43.5625 49.65625 45.515625 46.921875 
Q 47.46875 44.1875 48.25 40.4375 
Q 48.734375 37.984375 48.734375 31.890625 
L 48.734375 0 
L 39.9375 0 
L 39.9375 31.546875 
Q 39.9375 36.921875 38.90625 39.578125 
Q 37.890625 42.234375 35.28125 43.8125 
Q 32.671875 45.40625 29.15625 45.40625 
Q 23.53125 45.40625 19.453125 41.84375 
Q 15.375 38.28125 15.375 28.328125 
L 15.375 0 
z
" id="ArialMT-110"/>
       <path d="M 40.234375 0 
L 40.234375 6.546875 
Q 35.296875 -1.171875 25.734375 -1.171875 
Q 19.53125 -1.171875 14.328125 2.25 
Q 9.125 5.671875 6.265625 11.796875 
Q 3.421875 17.921875 3.421875 25.875 
Q 3.421875 33.640625 6 39.96875 
Q 8.59375 46.296875 13.765625 49.65625 
Q 18.953125 53.03125 25.34375 53.03125 
Q 30.03125 53.03125 33.6875 51.046875 
Q 37.359375 49.078125 39.65625 45.90625 
L 39.65625 71.578125 
L 48.390625 71.578125 
L 48.390625 0 
z
M 12.453125 25.875 
Q 12.453125 15.921875 16.640625 10.984375 
Q 20.84375 6.0625 26.5625 6.0625 
Q 32.328125 6.0625 36.34375 10.765625 
Q 40.375 15.484375 40.375 25.140625 
Q 40.375 35.796875 36.265625 40.765625 
Q 32.171875 45.75 26.171875 45.75 
Q 20.3125 45.75 16.375 40.96875 
Q 12.453125 36.1875 12.453125 25.875 
z
" id="ArialMT-100"/>
       <path id="ArialMT-32"/>
       <path d="M 25.78125 7.859375 
L 27.046875 0.09375 
Q 23.34375 -0.6875 20.40625 -0.6875 
Q 15.625 -0.6875 12.984375 0.828125 
Q 10.359375 2.34375 9.28125 4.8125 
Q 8.203125 7.28125 8.203125 15.1875 
L 8.203125 45.015625 
L 1.765625 45.015625 
L 1.765625 51.859375 
L 8.203125 51.859375 
L 8.203125 64.703125 
L 16.9375 69.96875 
L 16.9375 51.859375 
L 25.78125 51.859375 
L 25.78125 45.015625 
L 16.9375 45.015625 
L 16.9375 14.703125 
Q 16.9375 10.9375 17.40625 9.859375 
Q 17.875 8.796875 18.921875 8.15625 
Q 19.96875 7.515625 21.921875 7.515625 
Q 23.390625 7.515625 25.78125 7.859375 
z
" id="ArialMT-116"/>
       <path d="M 0.734375 0 
L 19.671875 26.953125 
L 2.15625 51.859375 
L 13.140625 51.859375 
L 21.09375 39.703125 
Q 23.34375 36.234375 24.703125 33.890625 
Q 26.859375 37.109375 28.65625 39.59375 
L 37.40625 51.859375 
L 47.90625 51.859375 
L 29.984375 27.4375 
L 49.265625 0 
L 38.484375 0 
L 27.828125 16.109375 
L 25 20.453125 
L 11.375 0 
z
" id="ArialMT-120"/>
       <path d="M 0 -1.21875 
L 20.75 72.796875 
L 27.78125 72.796875 
L 7.078125 -1.21875 
z
" id="ArialMT-47"/>
      </defs>
      <use xlink:href="#ArialMT-84"/>
      <use x="61.083984" xlink:href="#ArialMT-104"/>
      <use x="116.699219" xlink:href="#ArialMT-111"/>
      <use x="172.314453" xlink:href="#ArialMT-117"/>
      <use x="227.929688" xlink:href="#ArialMT-115"/>
      <use x="277.929688" xlink:href="#ArialMT-97"/>
      <use x="333.544922" xlink:href="#ArialMT-110"/>
      <use x="389.160156" xlink:href="#ArialMT-100"/>
      <use x="444.775391" xlink:href="#ArialMT-32"/>
      <use x="472.558594" xlink:href="#ArialMT-116"/>
      <use x="500.341797" xlink:href="#ArialMT-120"/>
      <use x="550.341797" xlink:href="#ArialMT-110"/>
      <use x="605.957031" xlink:href="#ArialMT-47"/>
      <use x="633.740234" xlink:href="#ArialMT-115"/>
     </g>
    </g>
   </g>
   <g id="line2d_11">
    <path clip-path="url(#pd640b2fa0f)" d="M 41.932353 83.686674 
L 43.290233 101.598054 
L 46.005994 103.991685 
L 51.437515 111.177372 
L 62.300556 127.079039 
L 78.595118 140.701066 
L 116.615764 148.678177 
L 192.657054 151.154476 
L 344.739636 151.74706 
" style="fill:none;stroke:#f15854;stroke-linecap:round;stroke-width:1.2;"/>
    <defs>
     <path d="M 0 2.4 
C 0.636487 2.4 1.246992 2.147121 1.697056 1.697056 
C 2.147121 1.246992 2.4 0.636487 2.4 0 
C 2.4 -0.636487 2.147121 -1.246992 1.697056 -1.697056 
C 1.246992 -2.147121 0.636487 -2.4 0 -2.4 
C -0.636487 -2.4 -1.246992 -2.147121 -1.697056 -1.697056 
C -2.147121 -1.246992 -2.4 -0.636487 -2.4 0 
C -2.4 0.636487 -2.147121 1.246992 -1.697056 1.697056 
C -1.246992 2.147121 -0.636487 2.4 0 2.4 
z
" id="m3ad2bba1c1" style="stroke:#ffffff;stroke-width:0.75;"/>
    </defs>
    <g clip-path="url(#pd640b2fa0f)">
     <use style="fill:#f15854;stroke:#ffffff;stroke-width:0.75;" x="41.932353" xlink:href="#m3ad2bba1c1" y="83.686674"/>
     <use style="fill:#f15854;stroke:#ffffff;stroke-width:0.75;" x="43.290233" xlink:href="#m3ad2bba1c1" y="101.598054"/>
     <use style="fill:#f15854;stroke:#ffffff;stroke-width:0.75;" x="46.005994" xlink:href="#m3ad2bba1c1" y="103.991685"/>
     <use style="fill:#f15854;stroke:#ffffff;stroke-width:0.75;" x="51.437515" xlink:href="#m3ad2bba1c1" y="111.177372"/>
     <use style="fill:#f15854;stroke:#ffffff;stroke-width:0.75;" x="62.300556" xlink:href="#m3ad2bba1c1" y="127.079039"/>
     <use style="fill:#f15854;stroke:#ffffff;stroke-width:0.75;" x="78.595118" xlink:href="#m3ad2bba1c1" y="140.701066"/>
     <use style="fill:#f15854;stroke:#ffffff;stroke-width:0.75;" x="116.615764" xlink:href="#m3ad2bba1c1" y="148.678177"/>
     <use style="fill:#f15854;stroke:#ffffff;stroke-width:0.75;" x="192.657054" xlink:href="#m3ad2bba1c1" y="151.154476"/>
     <use style="fill:#f15854;stroke:#ffffff;stroke-width:0.75;" x="344.739636" xlink:href="#m3ad2bba1c1" y="151.74706"/>
    </g>
   </g>
   <g id="line2d_12">
    <path clip-path="url(#pd640b2fa0f)" d="M 41.932353 82.205748 
L 43.290233 102.891762 
L 46.005994 103.113171 
L 51.437515 106.526597 
L 62.300556 119.353174 
L 78.595118 130.931037 
L 116.615764 143.506086 
L 192.657054 150.999599 
L 344.739636 151.600221 
" style="fill:none;stroke:#decf3f;stroke-linecap:round;stroke-width:1.2;"/>
    <defs>
     <path d="M -2.4 2.4 
L 2.4 2.4 
L 2.4 -2.4 
L -2.4 -2.4 
z
" id="ma76017cbc9" style="stroke:#ffffff;stroke-linejoin:miter;stroke-width:0.75;"/>
    </defs>
    <g clip-path="url(#pd640b2fa0f)">
     <use style="fill:#decf3f;stroke:#ffffff;stroke-linejoin:miter;stroke-width:0.75;" x="41.932353" xlink:href="#ma76017cbc9" y="82.205748"/>
     <use style="fill:#decf3f;stroke:#ffffff;stroke-linejoin:miter;stroke-width:0.75;" x="43.290233" xlink:href="#ma76017cbc9" y="102.891762"/>
     <use style="fill:#decf3f;stroke:#ffffff;stroke-linejoin:miter;stroke-width:0.75;" x="46.005994" xlink:href="#ma76017cbc9" y="103.113171"/>
     <use style="fill:#decf3f;stroke:#ffffff;stroke-linejoin:miter;stroke-width:0.75;" x="51.437515" xlink:href="#ma76017cbc9" y="106.526597"/>
     <use style="fill:#decf3f;stroke:#ffffff;stroke-linejoin:miter;stroke-width:0.75;" x="62.300556" xlink:href="#ma76017cbc9" y="119.353174"/>
     <use style="fill:#decf3f;stroke:#ffffff;stroke-linejoin:miter;stroke-width:0.75;" x="78.595118" xlink:href="#ma76017cbc9" y="130.931037"/>
     <use style="fill:#decf3f;stroke:#ffffff;stroke-linejoin:miter;stroke-width:0.75;" x="116.615764" xlink:href="#ma76017cbc9" y="143.506086"/>
     <use style="fill:#decf3f;stroke:#ffffff;stroke-linejoin:miter;stroke-width:0.75;" x="192.657054" xlink:href="#ma76017cbc9" y="150.999599"/>
     <use style="fill:#decf3f;stroke:#ffffff;stroke-linejoin:miter;stroke-width:0.75;" x="344.739636" xlink:href="#ma76017cbc9" y="151.600221"/>
    </g>
   </g>
   <g id="line2d_13">
    <path clip-path="url(#pd640b2fa0f)" d="M 41.932353 82.098546 
L 43.290233 101.57886 
L 46.005994 101.854326 
L 51.437515 105.481859 
L 62.300556 117.244291 
L 78.595118 128.344086 
L 116.615764 146.861094 
L 192.657054 151.195365 
L 344.739636 151.646381 
" style="fill:none;stroke:#faa43a;stroke-linecap:round;stroke-width:1.2;"/>
    <defs>
     <path d="M 0 3.394113 
L 2.036468 0 
L 0 -3.394113 
L -2.036468 0 
z
" id="m478c2ac2d5" style="stroke:#ffffff;stroke-linejoin:miter;stroke-width:0.75;"/>
    </defs>
    <g clip-path="url(#pd640b2fa0f)">
     <use style="fill:#faa43a;stroke:#ffffff;stroke-linejoin:miter;stroke-width:0.75;" x="41.932353" xlink:href="#m478c2ac2d5" y="82.098546"/>
     <use style="fill:#faa43a;stroke:#ffffff;stroke-linejoin:miter;stroke-width:0.75;" x="43.290233" xlink:href="#m478c2ac2d5" y="101.57886"/>
     <use style="fill:#faa43a;stroke:#ffffff;stroke-linejoin:miter;stroke-width:0.75;" x="46.005994" xlink:href="#m478c2ac2d5" y="101.854326"/>
     <use style="fill:#faa43a;stroke:#ffffff;stroke-linejoin:miter;stroke-width:0.75;" x="51.437515" xlink:href="#m478c2ac2d5" y="105.481859"/>
     <use style="fill:#faa43a;stroke:#ffffff;stroke-linejoin:miter;stroke-width:0.75;" x="62.300556" xlink:href="#m478c2ac2d5" y="117.244291"/>
     <use style="fill:#faa43a;stroke:#ffffff;stroke-linejoin:miter;stroke-width:0.75;" x="78.595118" xlink:href="#m478c2ac2d5" y="128.344086"/>
     <use style="fill:#faa43a;stroke:#ffffff;stroke-linejoin:miter;stroke-width:0.75;" x="116.615764" xlink:href="#m478c2ac2d5" y="146.861094"/>
     <use style="fill:#faa43a;stroke:#ffffff;stroke-linejoin:miter;stroke-width:0.75;" x="192.657054" xlink:href="#m478c2ac2d5" y="151.195365"/>
     <use style="fill:#faa43a;stroke:#ffffff;stroke-linejoin:miter;stroke-width:0.75;" x="344.739636" xlink:href="#m478c2ac2d5" y="151.646381"/>
    </g>
   </g>
   <g id="line2d_14">
    <path clip-path="url(#pd640b2fa0f)" d="M 41.932353 109.760313 
L 43.290233 121.05077 
L 46.005994 122.315448 
L 51.437515 126.004197 
L 62.300556 132.064438 
L 78.595118 138.328195 
L 116.615764 145.086019 
L 192.657054 150.075979 
L 344.739636 151.286146 
" style="fill:none;stroke:#5da5da;stroke-linecap:round;stroke-width:1.2;"/>
    <defs>
     <path d="M 0 -2.4 
L -2.282536 -0.741641 
L -1.410685 1.941641 
L 1.410685 1.941641 
L 2.282536 -0.741641 
z
" id="mb3b118ee39" style="stroke:#ffffff;stroke-linejoin:miter;stroke-width:0.75;"/>
    </defs>
    <g clip-path="url(#pd640b2fa0f)">
     <use style="fill:#5da5da;stroke:#ffffff;stroke-linejoin:miter;stroke-width:0.75;" x="41.932353" xlink:href="#mb3b118ee39" y="109.760313"/>
     <use style="fill:#5da5da;stroke:#ffffff;stroke-linejoin:miter;stroke-width:0.75;" x="43.290233" xlink:href="#mb3b118ee39" y="121.05077"/>
     <use style="fill:#5da5da;stroke:#ffffff;stroke-linejoin:miter;stroke-width:0.75;" x="46.005994" xlink:href="#mb3b118ee39" y="122.315448"/>
     <use style="fill:#5da5da;stroke:#ffffff;stroke-linejoin:miter;stroke-width:0.75;" x="51.437515" xlink:href="#mb3b118ee39" y="126.004197"/>
     <use style="fill:#5da5da;stroke:#ffffff;stroke-linejoin:miter;stroke-width:0.75;" x="62.300556" xlink:href="#mb3b118ee39" y="132.064438"/>
     <use style="fill:#5da5da;stroke:#ffffff;stroke-linejoin:miter;stroke-width:0.75;" x="78.595118" xlink:href="#mb3b118ee39" y="138.328195"/>
     <use style="fill:#5da5da;stroke:#ffffff;stroke-linejoin:miter;stroke-width:0.75;" x="116.615764" xlink:href="#mb3b118ee39" y="145.086019"/>
     <use style="fill:#5da5da;stroke:#ffffff;stroke-linejoin:miter;stroke-width:0.75;" x="192.657054" xlink:href="#mb3b118ee39" y="150.075979"/>
     <use style="fill:#5da5da;stroke:#ffffff;stroke-linejoin:miter;stroke-width:0.75;" x="344.739636" xlink:href="#mb3b118ee39" y="151.286146"/>
    </g>
   </g>
   <g id="line2d_15">
    <path clip-path="url(#pd640b2fa0f)" d="M 41.932353 94.223851 
L 43.290233 112.021252 
L 46.005994 112.781979 
L 51.437515 117.645028 
L 62.300556 124.960701 
L 78.595118 131.844618 
L 116.615764 142.738836 
L 192.657054 149.277038 
L 344.739636 150.897796 
" style="fill:none;stroke:#b276b2;stroke-linecap:round;stroke-width:1.2;"/>
    <defs>
     <path d="M 0 2.4 
C 0.636487 2.4 1.246992 2.147121 1.697056 1.697056 
C 2.147121 1.246992 2.4 0.636487 2.4 0 
C 2.4 -0.636487 2.147121 -1.246992 1.697056 -1.697056 
C 1.246992 -2.147121 0.636487 -2.4 0 -2.4 
C -0.636487 -2.4 -1.246992 -2.147121 -1.697056 -1.697056 
C -2.147121 -1.246992 -2.4 -0.636487 -2.4 0 
C -2.4 0.636487 -2.147121 1.246992 -1.697056 1.697056 
C -1.246992 2.147121 -0.636487 2.4 0 2.4 
z
" id="mb82ee51851" style="stroke:#ffffff;stroke-width:0.75;"/>
    </defs>
    <g clip-path="url(#pd640b2fa0f)">
     <use style="fill:#b276b2;stroke:#ffffff;stroke-width:0.75;" x="41.932353" xlink:href="#mb82ee51851" y="94.223851"/>
     <use style="fill:#b276b2;stroke:#ffffff;stroke-width:0.75;" x="43.290233" xlink:href="#mb82ee51851" y="112.021252"/>
     <use style="fill:#b276b2;stroke:#ffffff;stroke-width:0.75;" x="46.005994" xlink:href="#mb82ee51851" y="112.781979"/>
     <use style="fill:#b276b2;stroke:#ffffff;stroke-width:0.75;" x="51.437515" xlink:href="#mb82ee51851" y="117.645028"/>
     <use style="fill:#b276b2;stroke:#ffffff;stroke-width:0.75;" x="62.300556" xlink:href="#mb82ee51851" y="124.960701"/>
     <use style="fill:#b276b2;stroke:#ffffff;stroke-width:0.75;" x="78.595118" xlink:href="#mb82ee51851" y="131.844618"/>
     <use style="fill:#b276b2;stroke:#ffffff;stroke-width:0.75;" x="116.615764" xlink:href="#mb82ee51851" y="142.738836"/>
     <use style="fill:#b276b2;stroke:#ffffff;stroke-width:0.75;" x="192.657054" xlink:href="#mb82ee51851" y="149.277038"/>
     <use style="fill:#b276b2;stroke:#ffffff;stroke-width:0.75;" x="344.739636" xlink:href="#mb82ee51851" y="150.897796"/>
    </g>
   </g>
   <g id="line2d_16">
    <path clip-path="url(#pd640b2fa0f)" d="M 41.932353 29.481289 
L 43.290233 56.562824 
L 46.005994 70.879271 
L 51.437515 115.403456 
L 62.300556 134.376945 
L 78.595118 142.49339 
L 116.615764 147.860572 
L 192.657054 150.592053 
L 344.739636 151.388077 
" style="fill:none;stroke:#4d4d4d;stroke-linecap:round;stroke-width:1.2;"/>
    <defs>
     <path d="M -2.4 2.4 
L 2.4 2.4 
L 2.4 -2.4 
L -2.4 -2.4 
z
" id="mcb2d074a2c" style="stroke:#ffffff;stroke-linejoin:miter;stroke-width:0.75;"/>
    </defs>
    <g clip-path="url(#pd640b2fa0f)">
     <use style="fill:#4d4d4d;stroke:#ffffff;stroke-linejoin:miter;stroke-width:0.75;" x="41.932353" xlink:href="#mcb2d074a2c" y="29.481289"/>
     <use style="fill:#4d4d4d;stroke:#ffffff;stroke-linejoin:miter;stroke-width:0.75;" x="43.290233" xlink:href="#mcb2d074a2c" y="56.562824"/>
     <use style="fill:#4d4d4d;stroke:#ffffff;stroke-linejoin:miter;stroke-width:0.75;" x="46.005994" xlink:href="#mcb2d074a2c" y="70.879271"/>
     <use style="fill:#4d4d4d;stroke:#ffffff;stroke-linejoin:miter;stroke-width:0.75;" x="51.437515" xlink:href="#mcb2d074a2c" y="115.403456"/>
     <use style="fill:#4d4d4d;stroke:#ffffff;stroke-linejoin:miter;stroke-width:0.75;" x="62.300556" xlink:href="#mcb2d074a2c" y="134.376945"/>
     <use style="fill:#4d4d4d;stroke:#ffffff;stroke-linejoin:miter;stroke-width:0.75;" x="78.595118" xlink:href="#mcb2d074a2c" y="142.49339"/>
     <use style="fill:#4d4d4d;stroke:#ffffff;stroke-linejoin:miter;stroke-width:0.75;" x="116.615764" xlink:href="#mcb2d074a2c" y="147.860572"/>
     <use style="fill:#4d4d4d;stroke:#ffffff;stroke-linejoin:miter;stroke-width:0.75;" x="192.657054" xlink:href="#mcb2d074a2c" y="150.592053"/>
     <use style="fill:#4d4d4d;stroke:#ffffff;stroke-linejoin:miter;stroke-width:0.75;" x="344.739636" xlink:href="#mcb2d074a2c" y="151.388077"/>
    </g>
   </g>
   <g id="line2d_17">
    <path clip-path="url(#pd640b2fa0f)" d="M 41.932353 77.567332 
L 43.290233 97.810968 
L 46.005994 99.851563 
L 51.437515 101.149501 
L 62.300556 108.242776 
L 78.595118 116.517765 
L 116.615764 129.823103 
L 192.657054 148.486705 
L 344.739636 150.902922 
" style="fill:none;stroke:#ff0080;stroke-linecap:round;stroke-width:1.2;"/>
    <defs>
     <path d="M 0 -2.4 
L -2.282536 -0.741641 
L -1.410685 1.941641 
L 1.410685 1.941641 
L 2.282536 -0.741641 
z
" id="mf4f1d4debe" style="stroke:#ffffff;stroke-linejoin:miter;stroke-width:0.75;"/>
    </defs>
    <g clip-path="url(#pd640b2fa0f)">
     <use style="fill:#ff0080;stroke:#ffffff;stroke-linejoin:miter;stroke-width:0.75;" x="41.932353" xlink:href="#mf4f1d4debe" y="77.567332"/>
     <use style="fill:#ff0080;stroke:#ffffff;stroke-linejoin:miter;stroke-width:0.75;" x="43.290233" xlink:href="#mf4f1d4debe" y="97.810968"/>
     <use style="fill:#ff0080;stroke:#ffffff;stroke-linejoin:miter;stroke-width:0.75;" x="46.005994" xlink:href="#mf4f1d4debe" y="99.851563"/>
     <use style="fill:#ff0080;stroke:#ffffff;stroke-linejoin:miter;stroke-width:0.75;" x="51.437515" xlink:href="#mf4f1d4debe" y="101.149501"/>
     <use style="fill:#ff0080;stroke:#ffffff;stroke-linejoin:miter;stroke-width:0.75;" x="62.300556" xlink:href="#mf4f1d4debe" y="108.242776"/>
     <use style="fill:#ff0080;stroke:#ffffff;stroke-linejoin:miter;stroke-width:0.75;" x="78.595118" xlink:href="#mf4f1d4debe" y="116.517765"/>
     <use style="fill:#ff0080;stroke:#ffffff;stroke-linejoin:miter;stroke-width:0.75;" x="116.615764" xlink:href="#mf4f1d4debe" y="129.823103"/>
     <use style="fill:#ff0080;stroke:#ffffff;stroke-linejoin:miter;stroke-width:0.75;" x="192.657054" xlink:href="#mf4f1d4debe" y="148.486705"/>
     <use style="fill:#ff0080;stroke:#ffffff;stroke-linejoin:miter;stroke-width:0.75;" x="344.739636" xlink:href="#mf4f1d4debe" y="150.902922"/>
    </g>
   </g>
   <g id="line2d_18">
    <path clip-path="url(#pd640b2fa0f)" d="M 41.932353 66.010538 
L 43.290233 86.204923 
L 46.005994 87.784922 
L 51.437515 91.714579 
L 62.300556 101.887547 
L 78.595118 113.200214 
L 116.615764 126.383982 
L 192.657054 147.07935 
L 344.739636 150.485062 
" style="fill:none;stroke:#a1a1a1;stroke-linecap:round;stroke-width:1.2;"/>
    <defs>
     <path d="M 0 -2.4 
L -2.4 2.4 
L 2.4 2.4 
z
" id="m1c967cc7ab" style="stroke:#ffffff;stroke-linejoin:miter;stroke-width:0.75;"/>
    </defs>
    <g clip-path="url(#pd640b2fa0f)">
     <use style="fill:#a1a1a1;stroke:#ffffff;stroke-linejoin:miter;stroke-width:0.75;" x="41.932353" xlink:href="#m1c967cc7ab" y="66.010538"/>
     <use style="fill:#a1a1a1;stroke:#ffffff;stroke-linejoin:miter;stroke-width:0.75;" x="43.290233" xlink:href="#m1c967cc7ab" y="86.204923"/>
     <use style="fill:#a1a1a1;stroke:#ffffff;stroke-linejoin:miter;stroke-width:0.75;" x="46.005994" xlink:href="#m1c967cc7ab" y="87.784922"/>
     <use style="fill:#a1a1a1;stroke:#ffffff;stroke-linejoin:miter;stroke-width:0.75;" x="51.437515" xlink:href="#m1c967cc7ab" y="91.714579"/>
     <use style="fill:#a1a1a1;stroke:#ffffff;stroke-linejoin:miter;stroke-width:0.75;" x="62.300556" xlink:href="#m1c967cc7ab" y="101.887547"/>
     <use style="fill:#a1a1a1;stroke:#ffffff;stroke-linejoin:miter;stroke-width:0.75;" x="78.595118" xlink:href="#m1c967cc7ab" y="113.200214"/>
     <use style="fill:#a1a1a1;stroke:#ffffff;stroke-linejoin:miter;stroke-width:0.75;" x="116.615764" xlink:href="#m1c967cc7ab" y="126.383982"/>
     <use style="fill:#a1a1a1;stroke:#ffffff;stroke-linejoin:miter;stroke-width:0.75;" x="192.657054" xlink:href="#m1c967cc7ab" y="147.07935"/>
     <use style="fill:#a1a1a1;stroke:#ffffff;stroke-linejoin:miter;stroke-width:0.75;" x="344.739636" xlink:href="#m1c967cc7ab" y="150.485062"/>
    </g>
   </g>
   <g id="line2d_19"/>
   <g id="line2d_20"/>
   <g id="line2d_21"/>
   <g id="line2d_22"/>
   <g id="line2d_23"/>
   <g id="line2d_24"/>
   <g id="line2d_25"/>
   <g id="line2d_26"/>
   <g id="patch_3">
    <path d="M 40.574473 151.766 
L 40.574473 23.368 
" style="fill:none;stroke:#cccccc;stroke-linecap:square;stroke-linejoin:miter;"/>
   </g>
   <g id="patch_4">
    <path d="M 359.88 151.766 
L 359.88 23.368 
" style="fill:none;stroke:#cccccc;stroke-linecap:square;stroke-linejoin:miter;"/>
   </g>
   <g id="patch_5">
    <path d="M 40.574473 151.766 
L 359.88 151.766 
" style="fill:none;stroke:#cccccc;stroke-linecap:square;stroke-linejoin:miter;"/>
   </g>
   <g id="patch_6">
    <path d="M 40.574473 23.368 
L 359.88 23.368 
" style="fill:none;stroke:#cccccc;stroke-linecap:square;stroke-linejoin:miter;"/>
   </g>
   <g id="text_12">
    <!-- NewOrder + Payment -->
    <g style="fill:#262626;" transform="translate(153.944736 17.368)scale(0.096 -0.096)">
     <defs>
      <path d="M 7.625 0 
L 7.625 71.578125 
L 17.328125 71.578125 
L 54.9375 15.375 
L 54.9375 71.578125 
L 64.015625 71.578125 
L 64.015625 0 
L 54.296875 0 
L 16.703125 56.25 
L 16.703125 0 
z
" id="ArialMT-78"/>
      <path d="M 42.09375 16.703125 
L 51.171875 15.578125 
Q 49.03125 7.625 43.21875 3.21875 
Q 37.40625 -1.171875 28.375 -1.171875 
Q 17 -1.171875 10.328125 5.828125 
Q 3.65625 12.84375 3.65625 25.484375 
Q 3.65625 38.578125 10.390625 45.796875 
Q 17.140625 53.03125 27.875 53.03125 
Q 38.28125 53.03125 44.875 45.953125 
Q 51.46875 38.875 51.46875 26.03125 
Q 51.46875 25.25 51.421875 23.6875 
L 12.75 23.6875 
Q 13.234375 15.140625 17.578125 10.59375 
Q 21.921875 6.0625 28.421875 6.0625 
Q 33.25 6.0625 36.671875 8.59375 
Q 40.09375 11.140625 42.09375 16.703125 
z
M 13.234375 30.90625 
L 42.1875 30.90625 
Q 41.609375 37.453125 38.875 40.71875 
Q 34.671875 45.796875 27.984375 45.796875 
Q 21.921875 45.796875 17.796875 41.75 
Q 13.671875 37.703125 13.234375 30.90625 
z
" id="ArialMT-101"/>
      <path d="M 16.15625 0 
L 0.296875 51.859375 
L 9.375 51.859375 
L 17.625 21.921875 
L 20.703125 10.796875 
Q 20.90625 11.625 23.390625 21.484375 
L 31.640625 51.859375 
L 40.671875 51.859375 
L 48.4375 21.78125 
L 51.03125 11.859375 
L 54 21.875 
L 62.890625 51.859375 
L 71.4375 51.859375 
L 55.21875 0 
L 46.09375 0 
L 37.84375 31.0625 
L 35.84375 39.890625 
L 25.34375 0 
z
" id="ArialMT-119"/>
      <path d="M 4.828125 34.859375 
Q 4.828125 52.6875 14.390625 62.765625 
Q 23.96875 72.859375 39.109375 72.859375 
Q 49.03125 72.859375 56.984375 68.109375 
Q 64.9375 63.375 69.109375 54.90625 
Q 73.296875 46.4375 73.296875 35.6875 
Q 73.296875 24.8125 68.890625 16.21875 
Q 64.5 7.625 56.4375 3.203125 
Q 48.390625 -1.21875 39.0625 -1.21875 
Q 28.953125 -1.21875 20.984375 3.65625 
Q 13.03125 8.546875 8.921875 16.984375 
Q 4.828125 25.4375 4.828125 34.859375 
z
M 14.59375 34.71875 
Q 14.59375 21.78125 21.546875 14.328125 
Q 28.515625 6.890625 39.015625 6.890625 
Q 49.703125 6.890625 56.609375 14.40625 
Q 63.53125 21.921875 63.53125 35.75 
Q 63.53125 44.484375 60.578125 51 
Q 57.625 57.515625 51.921875 61.109375 
Q 46.234375 64.703125 39.15625 64.703125 
Q 29.109375 64.703125 21.84375 57.78125 
Q 14.59375 50.875 14.59375 34.71875 
z
" id="ArialMT-79"/>
      <path d="M 6.5 0 
L 6.5 51.859375 
L 14.40625 51.859375 
L 14.40625 44 
Q 17.4375 49.515625 20 51.265625 
Q 22.5625 53.03125 25.640625 53.03125 
Q 30.078125 53.03125 34.671875 50.203125 
L 31.640625 42.046875 
Q 28.421875 43.953125 25.203125 43.953125 
Q 22.3125 43.953125 20.015625 42.21875 
Q 17.71875 40.484375 16.75 37.40625 
Q 15.28125 32.71875 15.28125 27.15625 
L 15.28125 0 
z
" id="ArialMT-114"/>
      <path d="M 25.046875 11.578125 
L 25.046875 31.203125 
L 5.5625 31.203125 
L 5.5625 39.40625 
L 25.046875 39.40625 
L 25.046875 58.890625 
L 33.34375 58.890625 
L 33.34375 39.40625 
L 52.828125 39.40625 
L 52.828125 31.203125 
L 33.34375 31.203125 
L 33.34375 11.578125 
z
" id="ArialMT-43"/>
      <path d="M 7.71875 0 
L 7.71875 71.578125 
L 34.71875 71.578125 
Q 41.84375 71.578125 45.609375 70.90625 
Q 50.875 70.015625 54.4375 67.546875 
Q 58.015625 65.09375 60.1875 60.640625 
Q 62.359375 56.203125 62.359375 50.875 
Q 62.359375 41.75 56.546875 35.421875 
Q 50.734375 29.109375 35.546875 29.109375 
L 17.1875 29.109375 
L 17.1875 0 
z
M 17.1875 37.546875 
L 35.6875 37.546875 
Q 44.875 37.546875 48.734375 40.96875 
Q 52.59375 44.390625 52.59375 50.59375 
Q 52.59375 55.078125 50.3125 58.265625 
Q 48.046875 61.46875 44.34375 62.5 
Q 41.9375 63.140625 35.5 63.140625 
L 17.1875 63.140625 
z
" id="ArialMT-80"/>
      <path d="M 6.203125 -19.96875 
L 5.21875 -11.71875 
Q 8.109375 -12.5 10.25 -12.5 
Q 13.1875 -12.5 14.9375 -11.515625 
Q 16.703125 -10.546875 17.828125 -8.796875 
Q 18.65625 -7.46875 20.515625 -2.25 
Q 20.75 -1.515625 21.296875 -0.09375 
L 1.609375 51.859375 
L 11.078125 51.859375 
L 21.875 21.828125 
Q 23.96875 16.109375 25.640625 9.8125 
Q 27.15625 15.875 29.25 21.625 
L 40.328125 51.859375 
L 49.125 51.859375 
L 29.390625 -0.875 
Q 26.21875 -9.421875 24.46875 -12.640625 
Q 22.125 -17 19.09375 -19.015625 
Q 16.0625 -21.046875 11.859375 -21.046875 
Q 9.328125 -21.046875 6.203125 -19.96875 
z
" id="ArialMT-121"/>
      <path d="M 6.59375 0 
L 6.59375 51.859375 
L 14.453125 51.859375 
L 14.453125 44.578125 
Q 16.890625 48.390625 20.9375 50.703125 
Q 25 53.03125 30.171875 53.03125 
Q 35.9375 53.03125 39.625 50.640625 
Q 43.3125 48.25 44.828125 43.953125 
Q 50.984375 53.03125 60.84375 53.03125 
Q 68.5625 53.03125 72.703125 48.75 
Q 76.859375 44.484375 76.859375 35.59375 
L 76.859375 0 
L 68.109375 0 
L 68.109375 32.671875 
Q 68.109375 37.9375 67.25 40.25 
Q 66.40625 42.578125 64.15625 43.984375 
Q 61.921875 45.40625 58.890625 45.40625 
Q 53.421875 45.40625 49.796875 41.765625 
Q 46.1875 38.140625 46.1875 30.125 
L 46.1875 0 
L 37.40625 0 
L 37.40625 33.6875 
Q 37.40625 39.546875 35.25 42.46875 
Q 33.109375 45.40625 28.21875 45.40625 
Q 24.515625 45.40625 21.359375 43.453125 
Q 18.21875 41.5 16.796875 37.734375 
Q 15.375 33.984375 15.375 26.90625 
L 15.375 0 
z
" id="ArialMT-109"/>
     </defs>
     <use xlink:href="#ArialMT-78"/>
     <use x="72.216797" xlink:href="#ArialMT-101"/>
     <use x="127.832031" xlink:href="#ArialMT-119"/>
     <use x="200.048828" xlink:href="#ArialMT-79"/>
     <use x="277.832031" xlink:href="#ArialMT-114"/>
     <use x="311.132812" xlink:href="#ArialMT-100"/>
     <use x="366.748047" xlink:href="#ArialMT-101"/>
     <use x="422.363281" xlink:href="#ArialMT-114"/>
     <use x="455.664062" xlink:href="#ArialMT-32"/>
     <use x="483.447266" xlink:href="#ArialMT-43"/>
     <use x="541.845703" xlink:href="#ArialMT-32"/>
     <use x="569.628906" xlink:href="#ArialMT-80"/>
     <use x="636.328125" xlink:href="#ArialMT-97"/>
     <use x="691.943359" xlink:href="#ArialMT-121"/>
     <use x="741.943359" xlink:href="#ArialMT-109"/>
     <use x="825.244141" xlink:href="#ArialMT-101"/>
     <use x="880.859375" xlink:href="#ArialMT-110"/>
     <use x="936.474609" xlink:href="#ArialMT-116"/>
    </g>
   </g>
  </g>
  <g id="axes_2">
   <g id="patch_7">
    <path d="M 40.574473 303.532 
L 359.88 303.532 
L 359.88 175.134 
L 40.574473 175.134 
z
" style="fill:#ffffff;"/>
   </g>
   <g id="matplotlib.axis_3">
    <g id="xtick_6">
     <g id="line2d_27">
      <path clip-path="url(#p5e08cc4ba7)" d="M 40.574473 303.532 
L 40.574473 175.134 
" style="fill:none;stroke:#cccccc;stroke-linecap:round;stroke-width:0.8;"/>
     </g>
     <g id="text_13">
      <!-- 0 -->
      <g style="fill:#262626;" transform="translate(38.12766 311.630875)scale(0.088 -0.088)">
       <use xlink:href="#ArialMT-48"/>
      </g>
     </g>
    </g>
    <g id="xtick_7">
     <g id="line2d_28">
      <path clip-path="url(#p5e08cc4ba7)" d="M 108.468483 303.532 
L 108.468483 175.134 
" style="fill:none;stroke:#cccccc;stroke-linecap:round;stroke-width:0.8;"/>
     </g>
     <g id="text_14">
      <!-- 50 -->
      <g style="fill:#262626;" transform="translate(103.574858 311.630875)scale(0.088 -0.088)">
       <use xlink:href="#ArialMT-53"/>
       <use x="55.615234" xlink:href="#ArialMT-48"/>
      </g>
     </g>
    </g>
    <g id="xtick_8">
     <g id="line2d_29">
      <path clip-path="url(#p5e08cc4ba7)" d="M 176.362492 303.532 
L 176.362492 175.134 
" style="fill:none;stroke:#cccccc;stroke-linecap:round;stroke-width:0.8;"/>
     </g>
     <g id="text_15">
      <!-- 100 -->
      <g style="fill:#262626;" transform="translate(169.022055 311.630875)scale(0.088 -0.088)">
       <use xlink:href="#ArialMT-49"/>
       <use x="55.615234" xlink:href="#ArialMT-48"/>
       <use x="111.230469" xlink:href="#ArialMT-48"/>
      </g>
     </g>
    </g>
    <g id="xtick_9">
     <g id="line2d_30">
      <path clip-path="url(#p5e08cc4ba7)" d="M 244.256502 303.532 
L 244.256502 175.134 
" style="fill:none;stroke:#cccccc;stroke-linecap:round;stroke-width:0.8;"/>
     </g>
     <g id="text_16">
      <!-- 150 -->
      <g style="fill:#262626;" transform="translate(236.916064 311.630875)scale(0.088 -0.088)">
       <use xlink:href="#ArialMT-49"/>
       <use x="55.615234" xlink:href="#ArialMT-53"/>
       <use x="111.230469" xlink:href="#ArialMT-48"/>
      </g>
     </g>
    </g>
    <g id="xtick_10">
     <g id="line2d_31">
      <path clip-path="url(#p5e08cc4ba7)" d="M 312.150511 303.532 
L 312.150511 175.134 
" style="fill:none;stroke:#cccccc;stroke-linecap:round;stroke-width:0.8;"/>
     </g>
     <g id="text_17">
      <!-- 200 -->
      <g style="fill:#262626;" transform="translate(304.810074 311.630875)scale(0.088 -0.088)">
       <use xlink:href="#ArialMT-50"/>
       <use x="55.615234" xlink:href="#ArialMT-48"/>
       <use x="111.230469" xlink:href="#ArialMT-48"/>
      </g>
     </g>
    </g>
    <g id="text_18">
     <!-- Number of Cores -->
     <g style="fill:#262626;" transform="translate(163.683486 324.251375)scale(0.096 -0.096)">
      <defs>
       <path d="M 14.703125 0 
L 6.546875 0 
L 6.546875 71.578125 
L 15.328125 71.578125 
L 15.328125 46.046875 
Q 20.90625 53.03125 29.546875 53.03125 
Q 34.328125 53.03125 38.59375 51.09375 
Q 42.875 49.171875 45.625 45.671875 
Q 48.390625 42.1875 49.953125 37.25 
Q 51.515625 32.328125 51.515625 26.703125 
Q 51.515625 13.375 44.921875 6.09375 
Q 38.328125 -1.171875 29.109375 -1.171875 
Q 19.921875 -1.171875 14.703125 6.5 
z
M 14.59375 26.3125 
Q 14.59375 17 17.140625 12.84375 
Q 21.296875 6.0625 28.375 6.0625 
Q 34.125 6.0625 38.328125 11.0625 
Q 42.53125 16.0625 42.53125 25.984375 
Q 42.53125 36.140625 38.5 40.96875 
Q 34.46875 45.796875 28.765625 45.796875 
Q 23 45.796875 18.796875 40.796875 
Q 14.59375 35.796875 14.59375 26.3125 
z
" id="ArialMT-98"/>
       <path d="M 8.6875 0 
L 8.6875 45.015625 
L 0.921875 45.015625 
L 0.921875 51.859375 
L 8.6875 51.859375 
L 8.6875 57.375 
Q 8.6875 62.59375 9.625 65.140625 
Q 10.890625 68.5625 14.078125 70.671875 
Q 17.28125 72.796875 23.046875 72.796875 
Q 26.765625 72.796875 31.25 71.921875 
L 29.9375 64.265625 
Q 27.203125 64.75 24.75 64.75 
Q 20.75 64.75 19.09375 63.03125 
Q 17.4375 61.328125 17.4375 56.640625 
L 17.4375 51.859375 
L 27.546875 51.859375 
L 27.546875 45.015625 
L 17.4375 45.015625 
L 17.4375 0 
z
" id="ArialMT-102"/>
       <path d="M 58.796875 25.09375 
L 68.265625 22.703125 
Q 65.28125 11.03125 57.546875 4.90625 
Q 49.8125 -1.21875 38.625 -1.21875 
Q 27.046875 -1.21875 19.796875 3.484375 
Q 12.546875 8.203125 8.765625 17.140625 
Q 4.984375 26.078125 4.984375 36.328125 
Q 4.984375 47.515625 9.25 55.828125 
Q 13.53125 64.15625 21.40625 68.46875 
Q 29.296875 72.796875 38.765625 72.796875 
Q 49.515625 72.796875 56.828125 67.328125 
Q 64.15625 61.859375 67.046875 51.953125 
L 57.71875 49.75 
Q 55.21875 57.5625 50.484375 61.125 
Q 45.75 64.703125 38.578125 64.703125 
Q 30.328125 64.703125 24.78125 60.734375 
Q 19.234375 56.78125 16.984375 50.109375 
Q 14.75 43.453125 14.75 36.375 
Q 14.75 27.25 17.40625 20.4375 
Q 20.0625 13.625 25.671875 10.25 
Q 31.296875 6.890625 37.84375 6.890625 
Q 45.796875 6.890625 51.3125 11.46875 
Q 56.84375 16.0625 58.796875 25.09375 
z
" id="ArialMT-67"/>
      </defs>
      <use xlink:href="#ArialMT-78"/>
      <use x="72.216797" xlink:href="#ArialMT-117"/>
      <use x="127.832031" xlink:href="#ArialMT-109"/>
      <use x="211.132812" xlink:href="#ArialMT-98"/>
      <use x="266.748047" xlink:href="#ArialMT-101"/>
      <use x="322.363281" xlink:href="#ArialMT-114"/>
      <use x="355.664062" xlink:href="#ArialMT-32"/>
      <use x="383.447266" xlink:href="#ArialMT-111"/>
      <use x="439.0625" xlink:href="#ArialMT-102"/>
      <use x="466.845703" xlink:href="#ArialMT-32"/>
      <use x="494.628906" xlink:href="#ArialMT-67"/>
      <use x="566.845703" xlink:href="#ArialMT-111"/>
      <use x="622.460938" xlink:href="#ArialMT-114"/>
      <use x="655.761719" xlink:href="#ArialMT-101"/>
      <use x="711.376953" xlink:href="#ArialMT-115"/>
     </g>
    </g>
   </g>
   <g id="matplotlib.axis_4">
    <g id="ytick_6">
     <g id="line2d_32">
      <path clip-path="url(#p5e08cc4ba7)" d="M 40.574473 303.532 
L 359.88 303.532 
" style="fill:none;stroke:#cccccc;stroke-linecap:round;stroke-width:0.8;"/>
     </g>
     <g id="text_19">
      <!-- 0.00 -->
      <g style="fill:#262626;" transform="translate(15.148848 306.681437)scale(0.088 -0.088)">
       <use xlink:href="#ArialMT-48"/>
       <use x="55.615234" xlink:href="#ArialMT-46"/>
       <use x="83.398438" xlink:href="#ArialMT-48"/>
       <use x="139.013672" xlink:href="#ArialMT-48"/>
      </g>
     </g>
    </g>
    <g id="ytick_7">
     <g id="line2d_33">
      <path clip-path="url(#p5e08cc4ba7)" d="M 40.574473 276.725357 
L 359.88 276.725357 
" style="fill:none;stroke:#cccccc;stroke-linecap:round;stroke-width:0.8;"/>
     </g>
     <g id="text_20">
      <!-- 100.00 -->
      <g style="fill:#262626;" transform="translate(5.361598 279.874794)scale(0.088 -0.088)">
       <use xlink:href="#ArialMT-49"/>
       <use x="55.615234" xlink:href="#ArialMT-48"/>
       <use x="111.230469" xlink:href="#ArialMT-48"/>
       <use x="166.845703" xlink:href="#ArialMT-46"/>
       <use x="194.628906" xlink:href="#ArialMT-48"/>
       <use x="250.244141" xlink:href="#ArialMT-48"/>
      </g>
     </g>
    </g>
    <g id="ytick_8">
     <g id="line2d_34">
      <path clip-path="url(#p5e08cc4ba7)" d="M 40.574473 249.918714 
L 359.88 249.918714 
" style="fill:none;stroke:#cccccc;stroke-linecap:round;stroke-width:0.8;"/>
     </g>
     <g id="text_21">
      <!-- 200.00 -->
      <g style="fill:#262626;" transform="translate(5.361598 253.068151)scale(0.088 -0.088)">
       <use xlink:href="#ArialMT-50"/>
       <use x="55.615234" xlink:href="#ArialMT-48"/>
       <use x="111.230469" xlink:href="#ArialMT-48"/>
       <use x="166.845703" xlink:href="#ArialMT-46"/>
       <use x="194.628906" xlink:href="#ArialMT-48"/>
       <use x="250.244141" xlink:href="#ArialMT-48"/>
      </g>
     </g>
    </g>
    <g id="ytick_9">
     <g id="line2d_35">
      <path clip-path="url(#p5e08cc4ba7)" d="M 40.574473 223.112071 
L 359.88 223.112071 
" style="fill:none;stroke:#cccccc;stroke-linecap:round;stroke-width:0.8;"/>
     </g>
     <g id="text_22">
      <!-- 300.00 -->
      <g style="fill:#262626;" transform="translate(5.361598 226.261508)scale(0.088 -0.088)">
       <use xlink:href="#ArialMT-51"/>
       <use x="55.615234" xlink:href="#ArialMT-48"/>
       <use x="111.230469" xlink:href="#ArialMT-48"/>
       <use x="166.845703" xlink:href="#ArialMT-46"/>
       <use x="194.628906" xlink:href="#ArialMT-48"/>
       <use x="250.244141" xlink:href="#ArialMT-48"/>
      </g>
     </g>
    </g>
    <g id="ytick_10">
     <g id="line2d_36">
      <path clip-path="url(#p5e08cc4ba7)" d="M 40.574473 196.305428 
L 359.88 196.305428 
" style="fill:none;stroke:#cccccc;stroke-linecap:round;stroke-width:0.8;"/>
     </g>
     <g id="text_23">
      <!-- 400.00 -->
      <g style="fill:#262626;" transform="translate(5.361598 199.454865)scale(0.088 -0.088)">
       <use xlink:href="#ArialMT-52"/>
       <use x="55.615234" xlink:href="#ArialMT-48"/>
       <use x="111.230469" xlink:href="#ArialMT-48"/>
       <use x="166.845703" xlink:href="#ArialMT-46"/>
       <use x="194.628906" xlink:href="#ArialMT-48"/>
       <use x="250.244141" xlink:href="#ArialMT-48"/>
      </g>
     </g>
    </g>
    <g id="text_24">
     <!-- Thousand txn/s -->
     <g style="fill:#262626;" transform="translate(-0.546402 272.15)rotate(-90)scale(0.096 -0.096)">
      <use xlink:href="#ArialMT-84"/>
      <use x="61.083984" xlink:href="#ArialMT-104"/>
      <use x="116.699219" xlink:href="#ArialMT-111"/>
      <use x="172.314453" xlink:href="#ArialMT-117"/>
      <use x="227.929688" xlink:href="#ArialMT-115"/>
      <use x="277.929688" xlink:href="#ArialMT-97"/>
      <use x="333.544922" xlink:href="#ArialMT-110"/>
      <use x="389.160156" xlink:href="#ArialMT-100"/>
      <use x="444.775391" xlink:href="#ArialMT-32"/>
      <use x="472.558594" xlink:href="#ArialMT-116"/>
      <use x="500.341797" xlink:href="#ArialMT-120"/>
      <use x="550.341797" xlink:href="#ArialMT-110"/>
      <use x="605.957031" xlink:href="#ArialMT-47"/>
      <use x="633.740234" xlink:href="#ArialMT-115"/>
     </g>
    </g>
   </g>
   <g id="line2d_37">
    <path clip-path="url(#p5e08cc4ba7)" d="M 41.932353 270.5403 
L 43.290233 280.705116 
L 46.005994 281.590953 
L 51.437515 285.923587 
L 62.300556 294.029764 
L 78.595118 299.527407 
L 116.615764 302.091589 
L 192.657054 303.208748 
L 344.739636 303.390252 
" style="fill:none;stroke:#f15854;stroke-linecap:round;stroke-width:1.2;"/>
    <g clip-path="url(#p5e08cc4ba7)">
     <use style="fill:#f15854;stroke:#ffffff;stroke-width:0.75;" x="41.932353" xlink:href="#m3ad2bba1c1" y="270.5403"/>
     <use style="fill:#f15854;stroke:#ffffff;stroke-width:0.75;" x="43.290233" xlink:href="#m3ad2bba1c1" y="280.705116"/>
     <use style="fill:#f15854;stroke:#ffffff;stroke-width:0.75;" x="46.005994" xlink:href="#m3ad2bba1c1" y="281.590953"/>
     <use style="fill:#f15854;stroke:#ffffff;stroke-width:0.75;" x="51.437515" xlink:href="#m3ad2bba1c1" y="285.923587"/>
     <use style="fill:#f15854;stroke:#ffffff;stroke-width:0.75;" x="62.300556" xlink:href="#m3ad2bba1c1" y="294.029764"/>
     <use style="fill:#f15854;stroke:#ffffff;stroke-width:0.75;" x="78.595118" xlink:href="#m3ad2bba1c1" y="299.527407"/>
     <use style="fill:#f15854;stroke:#ffffff;stroke-width:0.75;" x="116.615764" xlink:href="#m3ad2bba1c1" y="302.091589"/>
     <use style="fill:#f15854;stroke:#ffffff;stroke-width:0.75;" x="192.657054" xlink:href="#m3ad2bba1c1" y="303.208748"/>
     <use style="fill:#f15854;stroke:#ffffff;stroke-width:0.75;" x="344.739636" xlink:href="#m3ad2bba1c1" y="303.390252"/>
    </g>
   </g>
   <g id="line2d_38">
    <path clip-path="url(#p5e08cc4ba7)" d="M 41.932353 269.83173 
L 43.290233 280.541076 
L 46.005994 281.433 
L 51.437515 282.716901 
L 62.300556 286.207889 
L 78.595118 293.113926 
L 116.615764 298.431403 
L 192.657054 302.383462 
L 344.739636 303.218636 
" style="fill:none;stroke:#decf3f;stroke-linecap:round;stroke-width:1.2;"/>
    <g clip-path="url(#p5e08cc4ba7)">
     <use style="fill:#decf3f;stroke:#ffffff;stroke-linejoin:miter;stroke-width:0.75;" x="41.932353" xlink:href="#ma76017cbc9" y="269.83173"/>
     <use style="fill:#decf3f;stroke:#ffffff;stroke-linejoin:miter;stroke-width:0.75;" x="43.290233" xlink:href="#ma76017cbc9" y="280.541076"/>
     <use style="fill:#decf3f;stroke:#ffffff;stroke-linejoin:miter;stroke-width:0.75;" x="46.005994" xlink:href="#ma76017cbc9" y="281.433"/>
     <use style="fill:#decf3f;stroke:#ffffff;stroke-linejoin:miter;stroke-width:0.75;" x="51.437515" xlink:href="#ma76017cbc9" y="282.716901"/>
     <use style="fill:#decf3f;stroke:#ffffff;stroke-linejoin:miter;stroke-width:0.75;" x="62.300556" xlink:href="#ma76017cbc9" y="286.207889"/>
     <use style="fill:#decf3f;stroke:#ffffff;stroke-linejoin:miter;stroke-width:0.75;" x="78.595118" xlink:href="#ma76017cbc9" y="293.113926"/>
     <use style="fill:#decf3f;stroke:#ffffff;stroke-linejoin:miter;stroke-width:0.75;" x="116.615764" xlink:href="#ma76017cbc9" y="298.431403"/>
     <use style="fill:#decf3f;stroke:#ffffff;stroke-linejoin:miter;stroke-width:0.75;" x="192.657054" xlink:href="#ma76017cbc9" y="302.383462"/>
     <use style="fill:#decf3f;stroke:#ffffff;stroke-linejoin:miter;stroke-width:0.75;" x="344.739636" xlink:href="#ma76017cbc9" y="303.218636"/>
    </g>
   </g>
   <g id="line2d_39">
    <path clip-path="url(#p5e08cc4ba7)" d="M 41.932353 269.647896 
L 43.290233 280.121844 
L 46.005994 281.15204 
L 51.437515 282.061231 
L 62.300556 284.48929 
L 78.595118 289.47067 
L 116.615764 294.89199 
L 192.657054 302.16349 
L 344.739636 303.224432 
" style="fill:none;stroke:#faa43a;stroke-linecap:round;stroke-width:1.2;"/>
    <g clip-path="url(#p5e08cc4ba7)">
     <use style="fill:#faa43a;stroke:#ffffff;stroke-linejoin:miter;stroke-width:0.75;" x="41.932353" xlink:href="#m478c2ac2d5" y="269.647896"/>
     <use style="fill:#faa43a;stroke:#ffffff;stroke-linejoin:miter;stroke-width:0.75;" x="43.290233" xlink:href="#m478c2ac2d5" y="280.121844"/>
     <use style="fill:#faa43a;stroke:#ffffff;stroke-linejoin:miter;stroke-width:0.75;" x="46.005994" xlink:href="#m478c2ac2d5" y="281.15204"/>
     <use style="fill:#faa43a;stroke:#ffffff;stroke-linejoin:miter;stroke-width:0.75;" x="51.437515" xlink:href="#m478c2ac2d5" y="282.061231"/>
     <use style="fill:#faa43a;stroke:#ffffff;stroke-linejoin:miter;stroke-width:0.75;" x="62.300556" xlink:href="#m478c2ac2d5" y="284.48929"/>
     <use style="fill:#faa43a;stroke:#ffffff;stroke-linejoin:miter;stroke-width:0.75;" x="78.595118" xlink:href="#m478c2ac2d5" y="289.47067"/>
     <use style="fill:#faa43a;stroke:#ffffff;stroke-linejoin:miter;stroke-width:0.75;" x="116.615764" xlink:href="#m478c2ac2d5" y="294.89199"/>
     <use style="fill:#faa43a;stroke:#ffffff;stroke-linejoin:miter;stroke-width:0.75;" x="192.657054" xlink:href="#m478c2ac2d5" y="302.16349"/>
     <use style="fill:#faa43a;stroke:#ffffff;stroke-linejoin:miter;stroke-width:0.75;" x="344.739636" xlink:href="#m478c2ac2d5" y="303.224432"/>
    </g>
   </g>
   <g id="line2d_40">
    <path clip-path="url(#p5e08cc4ba7)" d="M 41.932353 280.953113 
L 43.290233 284.761466 
L 46.005994 285.720698 
L 51.437515 284.149069 
L 62.300556 286.698041 
L 78.595118 290.459781 
L 116.615764 296.088287 
L 192.657054 301.415727 
L 344.739636 302.958544 
" style="fill:none;stroke:#5da5da;stroke-linecap:round;stroke-width:1.2;"/>
    <g clip-path="url(#p5e08cc4ba7)">
     <use style="fill:#5da5da;stroke:#ffffff;stroke-linejoin:miter;stroke-width:0.75;" x="41.932353" xlink:href="#mb3b118ee39" y="280.953113"/>
     <use style="fill:#5da5da;stroke:#ffffff;stroke-linejoin:miter;stroke-width:0.75;" x="43.290233" xlink:href="#mb3b118ee39" y="284.761466"/>
     <use style="fill:#5da5da;stroke:#ffffff;stroke-linejoin:miter;stroke-width:0.75;" x="46.005994" xlink:href="#mb3b118ee39" y="285.720698"/>
     <use style="fill:#5da5da;stroke:#ffffff;stroke-linejoin:miter;stroke-width:0.75;" x="51.437515" xlink:href="#mb3b118ee39" y="284.149069"/>
     <use style="fill:#5da5da;stroke:#ffffff;stroke-linejoin:miter;stroke-width:0.75;" x="62.300556" xlink:href="#mb3b118ee39" y="286.698041"/>
     <use style="fill:#5da5da;stroke:#ffffff;stroke-linejoin:miter;stroke-width:0.75;" x="78.595118" xlink:href="#mb3b118ee39" y="290.459781"/>
     <use style="fill:#5da5da;stroke:#ffffff;stroke-linejoin:miter;stroke-width:0.75;" x="116.615764" xlink:href="#mb3b118ee39" y="296.088287"/>
     <use style="fill:#5da5da;stroke:#ffffff;stroke-linejoin:miter;stroke-width:0.75;" x="192.657054" xlink:href="#mb3b118ee39" y="301.415727"/>
     <use style="fill:#5da5da;stroke:#ffffff;stroke-linejoin:miter;stroke-width:0.75;" x="344.739636" xlink:href="#mb3b118ee39" y="302.958544"/>
    </g>
   </g>
   <g id="line2d_41">
    <path clip-path="url(#p5e08cc4ba7)" d="M 41.932353 280.104314 
L 43.290233 286.441356 
L 46.005994 286.807071 
L 51.437515 288.877874 
L 62.300556 293.583233 
L 78.595118 297.181314 
L 116.615764 300.190295 
L 192.657054 302.562509 
" style="fill:none;stroke:#b276b2;stroke-linecap:round;stroke-width:1.2;"/>
    <g clip-path="url(#p5e08cc4ba7)">
     <use style="fill:#b276b2;stroke:#ffffff;stroke-width:0.75;" x="41.932353" xlink:href="#mb82ee51851" y="280.104314"/>
     <use style="fill:#b276b2;stroke:#ffffff;stroke-width:0.75;" x="43.290233" xlink:href="#mb82ee51851" y="286.441356"/>
     <use style="fill:#b276b2;stroke:#ffffff;stroke-width:0.75;" x="46.005994" xlink:href="#mb82ee51851" y="286.807071"/>
     <use style="fill:#b276b2;stroke:#ffffff;stroke-width:0.75;" x="51.437515" xlink:href="#mb82ee51851" y="288.877874"/>
     <use style="fill:#b276b2;stroke:#ffffff;stroke-width:0.75;" x="62.300556" xlink:href="#mb82ee51851" y="293.583233"/>
     <use style="fill:#b276b2;stroke:#ffffff;stroke-width:0.75;" x="78.595118" xlink:href="#mb82ee51851" y="297.181314"/>
     <use style="fill:#b276b2;stroke:#ffffff;stroke-width:0.75;" x="116.615764" xlink:href="#mb82ee51851" y="300.190295"/>
     <use style="fill:#b276b2;stroke:#ffffff;stroke-width:0.75;" x="192.657054" xlink:href="#mb82ee51851" y="302.562509"/>
    </g>
   </g>
   <g id="line2d_42">
    <path clip-path="url(#p5e08cc4ba7)" d="M 41.932353 237.098066 
L 43.290233 251.283244 
L 46.005994 257.949162 
L 51.437515 282.817643 
L 62.300556 294.049307 
L 78.595118 298.594814 
L 116.615764 301.335261 
L 192.657054 302.772079 
L 344.739636 303.242603 
" style="fill:none;stroke:#4d4d4d;stroke-linecap:round;stroke-width:1.2;"/>
    <g clip-path="url(#p5e08cc4ba7)">
     <use style="fill:#4d4d4d;stroke:#ffffff;stroke-linejoin:miter;stroke-width:0.75;" x="41.932353" xlink:href="#mcb2d074a2c" y="237.098066"/>
     <use style="fill:#4d4d4d;stroke:#ffffff;stroke-linejoin:miter;stroke-width:0.75;" x="43.290233" xlink:href="#mcb2d074a2c" y="251.283244"/>
     <use style="fill:#4d4d4d;stroke:#ffffff;stroke-linejoin:miter;stroke-width:0.75;" x="46.005994" xlink:href="#mcb2d074a2c" y="257.949162"/>
     <use style="fill:#4d4d4d;stroke:#ffffff;stroke-linejoin:miter;stroke-width:0.75;" x="51.437515" xlink:href="#mcb2d074a2c" y="282.817643"/>
     <use style="fill:#4d4d4d;stroke:#ffffff;stroke-linejoin:miter;stroke-width:0.75;" x="62.300556" xlink:href="#mcb2d074a2c" y="294.049307"/>
     <use style="fill:#4d4d4d;stroke:#ffffff;stroke-linejoin:miter;stroke-width:0.75;" x="78.595118" xlink:href="#mcb2d074a2c" y="298.594814"/>
     <use style="fill:#4d4d4d;stroke:#ffffff;stroke-linejoin:miter;stroke-width:0.75;" x="116.615764" xlink:href="#mcb2d074a2c" y="301.335261"/>
     <use style="fill:#4d4d4d;stroke:#ffffff;stroke-linejoin:miter;stroke-width:0.75;" x="192.657054" xlink:href="#mcb2d074a2c" y="302.772079"/>
     <use style="fill:#4d4d4d;stroke:#ffffff;stroke-linejoin:miter;stroke-width:0.75;" x="344.739636" xlink:href="#mcb2d074a2c" y="303.242603"/>
    </g>
   </g>
   <g id="line2d_43">
    <path clip-path="url(#p5e08cc4ba7)" d="M 41.932353 268.085324 
L 43.290233 278.780444 
L 46.005994 279.004966 
L 51.437515 278.685469 
L 62.300556 279.398666 
L 78.595118 280.644397 
L 116.615764 285.13193 
L 192.657054 299.063955 
L 344.739636 302.438441 
" style="fill:none;stroke:#ff0080;stroke-linecap:round;stroke-width:1.2;"/>
    <g clip-path="url(#p5e08cc4ba7)">
     <use style="fill:#ff0080;stroke:#ffffff;stroke-linejoin:miter;stroke-width:0.75;" x="41.932353" xlink:href="#mf4f1d4debe" y="268.085324"/>
     <use style="fill:#ff0080;stroke:#ffffff;stroke-linejoin:miter;stroke-width:0.75;" x="43.290233" xlink:href="#mf4f1d4debe" y="278.780444"/>
     <use style="fill:#ff0080;stroke:#ffffff;stroke-linejoin:miter;stroke-width:0.75;" x="46.005994" xlink:href="#mf4f1d4debe" y="279.004966"/>
     <use style="fill:#ff0080;stroke:#ffffff;stroke-linejoin:miter;stroke-width:0.75;" x="51.437515" xlink:href="#mf4f1d4debe" y="278.685469"/>
     <use style="fill:#ff0080;stroke:#ffffff;stroke-linejoin:miter;stroke-width:0.75;" x="62.300556" xlink:href="#mf4f1d4debe" y="279.398666"/>
     <use style="fill:#ff0080;stroke:#ffffff;stroke-linejoin:miter;stroke-width:0.75;" x="78.595118" xlink:href="#mf4f1d4debe" y="280.644397"/>
     <use style="fill:#ff0080;stroke:#ffffff;stroke-linejoin:miter;stroke-width:0.75;" x="116.615764" xlink:href="#mf4f1d4debe" y="285.13193"/>
     <use style="fill:#ff0080;stroke:#ffffff;stroke-linejoin:miter;stroke-width:0.75;" x="192.657054" xlink:href="#mf4f1d4debe" y="299.063955"/>
     <use style="fill:#ff0080;stroke:#ffffff;stroke-linejoin:miter;stroke-width:0.75;" x="344.739636" xlink:href="#mf4f1d4debe" y="302.438441"/>
    </g>
   </g>
   <g id="line2d_44">
    <path clip-path="url(#p5e08cc4ba7)" d="M 41.932353 264.904163 
L 43.290233 276.918008 
L 46.005994 276.750917 
L 51.437515 276.886165 
L 62.300556 277.495436 
L 78.595118 278.943535 
L 116.615764 283.033247 
L 192.657054 297.10876 
L 344.739636 302.057605 
" style="fill:none;stroke:#a1a1a1;stroke-linecap:round;stroke-width:1.2;"/>
    <g clip-path="url(#p5e08cc4ba7)">
     <use style="fill:#a1a1a1;stroke:#ffffff;stroke-linejoin:miter;stroke-width:0.75;" x="41.932353" xlink:href="#m1c967cc7ab" y="264.904163"/>
     <use style="fill:#a1a1a1;stroke:#ffffff;stroke-linejoin:miter;stroke-width:0.75;" x="43.290233" xlink:href="#m1c967cc7ab" y="276.918008"/>
     <use style="fill:#a1a1a1;stroke:#ffffff;stroke-linejoin:miter;stroke-width:0.75;" x="46.005994" xlink:href="#m1c967cc7ab" y="276.750917"/>
     <use style="fill:#a1a1a1;stroke:#ffffff;stroke-linejoin:miter;stroke-width:0.75;" x="51.437515" xlink:href="#m1c967cc7ab" y="276.886165"/>
     <use style="fill:#a1a1a1;stroke:#ffffff;stroke-linejoin:miter;stroke-width:0.75;" x="62.300556" xlink:href="#m1c967cc7ab" y="277.495436"/>
     <use style="fill:#a1a1a1;stroke:#ffffff;stroke-linejoin:miter;stroke-width:0.75;" x="78.595118" xlink:href="#m1c967cc7ab" y="278.943535"/>
     <use style="fill:#a1a1a1;stroke:#ffffff;stroke-linejoin:miter;stroke-width:0.75;" x="116.615764" xlink:href="#m1c967cc7ab" y="283.033247"/>
     <use style="fill:#a1a1a1;stroke:#ffffff;stroke-linejoin:miter;stroke-width:0.75;" x="192.657054" xlink:href="#m1c967cc7ab" y="297.10876"/>
     <use style="fill:#a1a1a1;stroke:#ffffff;stroke-linejoin:miter;stroke-width:0.75;" x="344.739636" xlink:href="#m1c967cc7ab" y="302.057605"/>
    </g>
   </g>
   <g id="patch_8">
    <path d="M 40.574473 303.532 
L 40.574473 175.134 
" style="fill:none;stroke:#cccccc;stroke-linecap:square;stroke-linejoin:miter;"/>
   </g>
   <g id="patch_9">
    <path d="M 359.88 303.532 
L 359.88 175.134 
" style="fill:none;stroke:#cccccc;stroke-linecap:square;stroke-linejoin:miter;"/>
   </g>
   <g id="patch_10">
    <path d="M 40.574473 303.532 
L 359.88 303.532 
" style="fill:none;stroke:#cccccc;stroke-linecap:square;stroke-linejoin:miter;"/>
   </g>
   <g id="patch_11">
    <path d="M 40.574473 175.134 
L 359.88 175.134 
" style="fill:none;stroke:#cccccc;stroke-linecap:square;stroke-linejoin:miter;"/>
   </g>
   <g id="text_25">
    <!-- All Txn -->
    <g style="fill:#262626;" transform="translate(185.641986 169.134)scale(0.096 -0.096)">
     <defs>
      <path d="M -0.140625 0 
L 27.34375 71.578125 
L 37.546875 71.578125 
L 66.84375 0 
L 56.0625 0 
L 47.703125 21.6875 
L 17.78125 21.6875 
L 9.90625 0 
z
M 20.515625 29.390625 
L 44.78125 29.390625 
L 37.3125 49.21875 
Q 33.890625 58.25 32.234375 64.0625 
Q 30.859375 57.171875 28.375 50.390625 
z
" id="ArialMT-65"/>
      <path d="M 6.390625 0 
L 6.390625 71.578125 
L 15.1875 71.578125 
L 15.1875 0 
z
" id="ArialMT-108"/>
     </defs>
     <use xlink:href="#ArialMT-65"/>
     <use x="66.699219" xlink:href="#ArialMT-108"/>
     <use x="88.916016" xlink:href="#ArialMT-108"/>
     <use x="111.132812" xlink:href="#ArialMT-32"/>
     <use x="137.166016" xlink:href="#ArialMT-84"/>
     <use x="198.25" xlink:href="#ArialMT-120"/>
     <use x="248.25" xlink:href="#ArialMT-110"/>
    </g>
   </g>
  </g>
  <g id="legend_1">
   <g id="text_26">
    <!-- CC -->
    <g style="fill:#262626;" transform="translate(392.545187 118.29025)scale(0.096 -0.096)">
     <use xlink:href="#ArialMT-67"/>
     <use x="72.216797" xlink:href="#ArialMT-67"/>
    </g>
   </g>
   <g id="line2d_45">
    <path d="M 362.876375 127.817125 
L 380.476375 127.817125 
" style="fill:none;stroke:#f15854;stroke-linecap:round;stroke-width:1.2;"/>
   </g>
   <g id="line2d_46">
    <defs>
     <path d="M 0 2.4 
C 0.636487 2.4 1.246992 2.147121 1.697056 1.697056 
C 2.147121 1.246992 2.4 0.636487 2.4 0 
C 2.4 -0.636487 2.147121 -1.246992 1.697056 -1.697056 
C 1.246992 -2.147121 0.636487 -2.4 0 -2.4 
C -0.636487 -2.4 -1.246992 -2.147121 -1.697056 -1.697056 
C -2.147121 -1.246992 -2.4 -0.636487 -2.4 0 
C -2.4 0.636487 -2.147121 1.246992 -1.697056 1.697056 
C -1.246992 2.147121 -0.636487 2.4 0 2.4 
z
" id="me41aecf636" style="stroke:#f15854;"/>
    </defs>
    <g>
     <use style="fill:#f15854;stroke:#f15854;" x="371.676375" xlink:href="#me41aecf636" y="127.817125"/>
    </g>
   </g>
   <g id="text_27">
    <!-- DL DETECT -->
    <g style="fill:#262626;" transform="translate(387.516375 130.897125)scale(0.088 -0.088)">
     <defs>
      <path d="M 7.71875 0 
L 7.71875 71.578125 
L 32.375 71.578125 
Q 40.71875 71.578125 45.125 70.5625 
Q 51.265625 69.140625 55.609375 65.4375 
Q 61.28125 60.640625 64.078125 53.1875 
Q 66.890625 45.75 66.890625 36.1875 
Q 66.890625 28.03125 64.984375 21.734375 
Q 63.09375 15.4375 60.109375 11.296875 
Q 57.125 7.171875 53.578125 4.796875 
Q 50.046875 2.4375 45.046875 1.21875 
Q 40.046875 0 33.546875 0 
z
M 17.1875 8.453125 
L 32.46875 8.453125 
Q 39.546875 8.453125 43.578125 9.765625 
Q 47.609375 11.078125 50 13.484375 
Q 53.375 16.84375 55.25 22.53125 
Q 57.125 28.21875 57.125 36.328125 
Q 57.125 47.5625 53.4375 53.59375 
Q 49.75 59.625 44.484375 61.671875 
Q 40.671875 63.140625 32.234375 63.140625 
L 17.1875 63.140625 
z
" id="ArialMT-68"/>
      <path d="M 7.328125 0 
L 7.328125 71.578125 
L 16.796875 71.578125 
L 16.796875 8.453125 
L 52.046875 8.453125 
L 52.046875 0 
z
" id="ArialMT-76"/>
      <path d="M 7.90625 0 
L 7.90625 71.578125 
L 59.671875 71.578125 
L 59.671875 63.140625 
L 17.390625 63.140625 
L 17.390625 41.21875 
L 56.984375 41.21875 
L 56.984375 32.8125 
L 17.390625 32.8125 
L 17.390625 8.453125 
L 61.328125 8.453125 
L 61.328125 0 
z
" id="ArialMT-69"/>
     </defs>
     <use xlink:href="#ArialMT-68"/>
     <use x="72.216797" xlink:href="#ArialMT-76"/>
     <use x="124.082031" xlink:href="#ArialMT-32"/>
     <use x="151.865234" xlink:href="#ArialMT-68"/>
     <use x="224.082031" xlink:href="#ArialMT-69"/>
     <use x="290.78125" xlink:href="#ArialMT-84"/>
     <use x="351.865234" xlink:href="#ArialMT-69"/>
     <use x="418.564453" xlink:href="#ArialMT-67"/>
     <use x="490.78125" xlink:href="#ArialMT-84"/>
    </g>
   </g>
   <g id="line2d_47">
    <path d="M 362.876375 140.265 
L 380.476375 140.265 
" style="fill:none;stroke:#decf3f;stroke-linecap:round;stroke-width:1.2;"/>
   </g>
   <g id="line2d_48">
    <defs>
     <path d="M -2.4 2.4 
L 2.4 2.4 
L 2.4 -2.4 
L -2.4 -2.4 
z
" id="mbb36ac6ed1" style="stroke:#decf3f;stroke-linejoin:miter;"/>
    </defs>
    <g>
     <use style="fill:#decf3f;stroke:#decf3f;stroke-linejoin:miter;" x="371.676375" xlink:href="#mbb36ac6ed1" y="140.265"/>
    </g>
   </g>
   <g id="text_28">
    <!-- WAIT DIE -->
    <g style="fill:#262626;" transform="translate(387.516375 143.345)scale(0.088 -0.088)">
     <defs>
      <path d="M 20.21875 0 
L 1.21875 71.578125 
L 10.9375 71.578125 
L 21.828125 24.65625 
Q 23.578125 17.28125 24.859375 10.015625 
Q 27.59375 21.484375 28.078125 23.25 
L 41.703125 71.578125 
L 53.125 71.578125 
L 63.375 35.359375 
Q 67.234375 21.875 68.953125 10.015625 
Q 70.3125 16.796875 72.515625 25.59375 
L 83.734375 71.578125 
L 93.265625 71.578125 
L 73.640625 0 
L 64.5 0 
L 49.421875 54.546875 
Q 47.515625 61.375 47.171875 62.9375 
Q 46.046875 58.015625 45.0625 54.546875 
L 29.890625 0 
z
" id="ArialMT-87"/>
      <path d="M 9.328125 0 
L 9.328125 71.578125 
L 18.796875 71.578125 
L 18.796875 0 
z
" id="ArialMT-73"/>
     </defs>
     <use xlink:href="#ArialMT-87"/>
     <use x="90.634766" xlink:href="#ArialMT-65"/>
     <use x="157.333984" xlink:href="#ArialMT-73"/>
     <use x="185.117188" xlink:href="#ArialMT-84"/>
     <use x="244.451172" xlink:href="#ArialMT-32"/>
     <use x="272.234375" xlink:href="#ArialMT-68"/>
     <use x="344.451172" xlink:href="#ArialMT-73"/>
     <use x="372.234375" xlink:href="#ArialMT-69"/>
    </g>
   </g>
   <g id="line2d_49">
    <path d="M 362.876375 152.712875 
L 380.476375 152.712875 
" style="fill:none;stroke:#faa43a;stroke-linecap:round;stroke-width:1.2;"/>
   </g>
   <g id="line2d_50">
    <defs>
     <path d="M 0 3.394113 
L 2.036468 0 
L 0 -3.394113 
L -2.036468 0 
z
" id="mff6086d14e" style="stroke:#faa43a;stroke-linejoin:miter;"/>
    </defs>
    <g>
     <use style="fill:#faa43a;stroke:#faa43a;stroke-linejoin:miter;" x="371.676375" xlink:href="#mff6086d14e" y="152.712875"/>
    </g>
   </g>
   <g id="text_29">
    <!-- NO WAIT -->
    <g style="fill:#262626;" transform="translate(387.516375 155.792875)scale(0.088 -0.088)">
     <use xlink:href="#ArialMT-78"/>
     <use x="72.216797" xlink:href="#ArialMT-79"/>
     <use x="150" xlink:href="#ArialMT-32"/>
     <use x="177.783203" xlink:href="#ArialMT-87"/>
     <use x="268.417969" xlink:href="#ArialMT-65"/>
     <use x="335.117188" xlink:href="#ArialMT-73"/>
     <use x="362.900391" xlink:href="#ArialMT-84"/>
    </g>
   </g>
   <g id="line2d_51">
    <path d="M 362.876375 165.16075 
L 380.476375 165.16075 
" style="fill:none;stroke:#5da5da;stroke-linecap:round;stroke-width:1.2;"/>
   </g>
   <g id="line2d_52">
    <defs>
     <path d="M 0 -2.4 
L -2.282536 -0.741641 
L -1.410685 1.941641 
L 1.410685 1.941641 
L 2.282536 -0.741641 
z
" id="m5dfbe6b0a1" style="stroke:#5da5da;stroke-linejoin:miter;"/>
    </defs>
    <g>
     <use style="fill:#5da5da;stroke:#5da5da;stroke-linejoin:miter;" x="371.676375" xlink:href="#m5dfbe6b0a1" y="165.16075"/>
    </g>
   </g>
   <g id="text_30">
    <!-- MVCC -->
    <g style="fill:#262626;" transform="translate(387.516375 168.24075)scale(0.088 -0.088)">
     <defs>
      <path d="M 7.421875 0 
L 7.421875 71.578125 
L 21.6875 71.578125 
L 38.625 20.90625 
Q 40.96875 13.8125 42.046875 10.296875 
Q 43.265625 14.203125 45.84375 21.78125 
L 62.984375 71.578125 
L 75.734375 71.578125 
L 75.734375 0 
L 66.609375 0 
L 66.609375 59.90625 
L 45.796875 0 
L 37.25 0 
L 16.546875 60.9375 
L 16.546875 0 
z
" id="ArialMT-77"/>
      <path d="M 28.171875 0 
L 0.4375 71.578125 
L 10.6875 71.578125 
L 29.296875 19.578125 
Q 31.546875 13.328125 33.0625 7.859375 
Q 34.71875 13.71875 36.921875 19.578125 
L 56.25 71.578125 
L 65.921875 71.578125 
L 37.890625 0 
z
" id="ArialMT-86"/>
     </defs>
     <use xlink:href="#ArialMT-77"/>
     <use x="83.300781" xlink:href="#ArialMT-86"/>
     <use x="150" xlink:href="#ArialMT-67"/>
     <use x="222.216797" xlink:href="#ArialMT-67"/>
    </g>
   </g>
   <g id="line2d_53">
    <path d="M 362.876375 177.608625 
L 380.476375 177.608625 
" style="fill:none;stroke:#b276b2;stroke-linecap:round;stroke-width:1.2;"/>
   </g>
   <g id="line2d_54">
    <defs>
     <path d="M 0 2.4 
C 0.636487 2.4 1.246992 2.147121 1.697056 1.697056 
C 2.147121 1.246992 2.4 0.636487 2.4 0 
C 2.4 -0.636487 2.147121 -1.246992 1.697056 -1.697056 
C 1.246992 -2.147121 0.636487 -2.4 0 -2.4 
C -0.636487 -2.4 -1.246992 -2.147121 -1.697056 -1.697056 
C -2.147121 -1.246992 -2.4 -0.636487 -2.4 0 
C -2.4 0.636487 -2.147121 1.246992 -1.697056 1.697056 
C -1.246992 2.147121 -0.636487 2.4 0 2.4 
z
" id="me1e50b01f7" style="stroke:#b276b2;"/>
    </defs>
    <g>
     <use style="fill:#b276b2;stroke:#b276b2;" x="371.676375" xlink:href="#me1e50b01f7" y="177.608625"/>
    </g>
   </g>
   <g id="text_31">
    <!-- OCC -->
    <g style="fill:#262626;" transform="translate(387.516375 180.688625)scale(0.088 -0.088)">
     <use xlink:href="#ArialMT-79"/>
     <use x="77.783203" xlink:href="#ArialMT-67"/>
     <use x="150" xlink:href="#ArialMT-67"/>
    </g>
   </g>
   <g id="line2d_55">
    <path d="M 362.876375 190.0565 
L 380.476375 190.0565 
" style="fill:none;stroke:#4d4d4d;stroke-linecap:round;stroke-width:1.2;"/>
   </g>
   <g id="line2d_56">
    <defs>
     <path d="M -2.4 2.4 
L 2.4 2.4 
L 2.4 -2.4 
L -2.4 -2.4 
z
" id="m3204bedca5" style="stroke:#4d4d4d;stroke-linejoin:miter;"/>
    </defs>
    <g>
     <use style="fill:#4d4d4d;stroke:#4d4d4d;stroke-linejoin:miter;" x="371.676375" xlink:href="#m3204bedca5" y="190.0565"/>
    </g>
   </g>
   <g id="text_32">
    <!-- HSTORE -->
    <g style="fill:#262626;" transform="translate(387.516375 193.1365)scale(0.088 -0.088)">
     <defs>
      <path d="M 8.015625 0 
L 8.015625 71.578125 
L 17.484375 71.578125 
L 17.484375 42.1875 
L 54.6875 42.1875 
L 54.6875 71.578125 
L 64.15625 71.578125 
L 64.15625 0 
L 54.6875 0 
L 54.6875 33.734375 
L 17.484375 33.734375 
L 17.484375 0 
z
" id="ArialMT-72"/>
      <path d="M 4.5 23 
L 13.421875 23.78125 
Q 14.0625 18.40625 16.375 14.96875 
Q 18.703125 11.53125 23.578125 9.40625 
Q 28.46875 7.28125 34.578125 7.28125 
Q 39.984375 7.28125 44.140625 8.890625 
Q 48.296875 10.5 50.3125 13.296875 
Q 52.34375 16.109375 52.34375 19.4375 
Q 52.34375 22.796875 50.390625 25.3125 
Q 48.4375 27.828125 43.953125 29.546875 
Q 41.0625 30.671875 31.203125 33.03125 
Q 21.34375 35.40625 17.390625 37.5 
Q 12.25 40.1875 9.734375 44.15625 
Q 7.234375 48.140625 7.234375 53.078125 
Q 7.234375 58.5 10.296875 63.203125 
Q 13.375 67.921875 19.28125 70.359375 
Q 25.203125 72.796875 32.421875 72.796875 
Q 40.375 72.796875 46.453125 70.234375 
Q 52.546875 67.671875 55.8125 62.6875 
Q 59.078125 57.71875 59.328125 51.421875 
L 50.25 50.734375 
Q 49.515625 57.515625 45.28125 60.984375 
Q 41.0625 64.453125 32.8125 64.453125 
Q 24.21875 64.453125 20.28125 61.296875 
Q 16.359375 58.15625 16.359375 53.71875 
Q 16.359375 49.859375 19.140625 47.359375 
Q 21.875 44.875 33.421875 42.265625 
Q 44.96875 39.65625 49.265625 37.703125 
Q 55.515625 34.8125 58.484375 30.390625 
Q 61.46875 25.984375 61.46875 20.21875 
Q 61.46875 14.5 58.203125 9.4375 
Q 54.9375 4.390625 48.796875 1.578125 
Q 42.671875 -1.21875 35.015625 -1.21875 
Q 25.296875 -1.21875 18.71875 1.609375 
Q 12.15625 4.4375 8.421875 10.125 
Q 4.6875 15.828125 4.5 23 
z
" id="ArialMT-83"/>
      <path d="M 7.859375 0 
L 7.859375 71.578125 
L 39.59375 71.578125 
Q 49.171875 71.578125 54.140625 69.640625 
Q 59.125 67.71875 62.109375 62.828125 
Q 65.09375 57.953125 65.09375 52.046875 
Q 65.09375 44.4375 60.15625 39.203125 
Q 55.21875 33.984375 44.921875 32.5625 
Q 48.6875 30.765625 50.640625 29 
Q 54.78125 25.203125 58.5 19.484375 
L 70.953125 0 
L 59.03125 0 
L 49.5625 14.890625 
Q 45.40625 21.34375 42.71875 24.75 
Q 40.046875 28.171875 37.921875 29.53125 
Q 35.796875 30.90625 33.59375 31.453125 
Q 31.984375 31.78125 28.328125 31.78125 
L 17.328125 31.78125 
L 17.328125 0 
z
M 17.328125 39.984375 
L 37.703125 39.984375 
Q 44.1875 39.984375 47.84375 41.328125 
Q 51.515625 42.671875 53.421875 45.625 
Q 55.328125 48.578125 55.328125 52.046875 
Q 55.328125 57.125 51.640625 60.390625 
Q 47.953125 63.671875 39.984375 63.671875 
L 17.328125 63.671875 
z
" id="ArialMT-82"/>
     </defs>
     <use xlink:href="#ArialMT-72"/>
     <use x="72.216797" xlink:href="#ArialMT-83"/>
     <use x="138.916016" xlink:href="#ArialMT-84"/>
     <use x="198.25" xlink:href="#ArialMT-79"/>
     <use x="276.033203" xlink:href="#ArialMT-82"/>
     <use x="348.25" xlink:href="#ArialMT-69"/>
    </g>
   </g>
   <g id="line2d_57">
    <path d="M 362.876375 202.504375 
L 380.476375 202.504375 
" style="fill:none;stroke:#ff0080;stroke-linecap:round;stroke-width:1.2;"/>
   </g>
   <g id="line2d_58">
    <defs>
     <path d="M 0 -2.4 
L -2.282536 -0.741641 
L -1.410685 1.941641 
L 1.410685 1.941641 
L 2.282536 -0.741641 
z
" id="me3fe16874d" style="stroke:#ff0080;stroke-linejoin:miter;"/>
    </defs>
    <g>
     <use style="fill:#ff0080;stroke:#ff0080;stroke-linejoin:miter;" x="371.676375" xlink:href="#me3fe16874d" y="202.504375"/>
    </g>
   </g>
   <g id="text_33">
    <!-- SILO -->
    <g style="fill:#262626;" transform="translate(387.516375 205.584375)scale(0.088 -0.088)">
     <use xlink:href="#ArialMT-83"/>
     <use x="66.699219" xlink:href="#ArialMT-73"/>
     <use x="94.482422" xlink:href="#ArialMT-76"/>
     <use x="150.097656" xlink:href="#ArialMT-79"/>
    </g>
   </g>
   <g id="line2d_59">
    <path d="M 362.876375 214.95225 
L 380.476375 214.95225 
" style="fill:none;stroke:#a1a1a1;stroke-linecap:round;stroke-width:1.2;"/>
   </g>
   <g id="line2d_60">
    <defs>
     <path d="M 0 -2.4 
L -2.4 2.4 
L 2.4 2.4 
z
" id="mc6e4dd2f00" style="stroke:#a1a1a1;stroke-linejoin:miter;"/>
    </defs>
    <g>
     <use style="fill:#a1a1a1;stroke:#a1a1a1;stroke-linejoin:miter;" x="371.676375" xlink:href="#mc6e4dd2f00" y="214.95225"/>
    </g>
   </g>
   <g id="text_34">
    <!-- TICTOC -->
    <g style="fill:#262626;" transform="translate(387.516375 218.03225)scale(0.088 -0.088)">
     <use xlink:href="#ArialMT-84"/>
     <use x="61.083984" xlink:href="#ArialMT-73"/>
     <use x="88.867188" xlink:href="#ArialMT-67"/>
     <use x="161.083984" xlink:href="#ArialMT-84"/>
     <use x="220.417969" xlink:href="#ArialMT-79"/>
     <use x="298.201172" xlink:href="#ArialMT-67"/>
    </g>
   </g>
  </g>
 </g>
 <defs>
  <clipPath id="pd640b2fa0f">
   <rect height="128.398" width="319.305527" x="40.574473" y="23.368"/>
  </clipPath>
  <clipPath id="p5e08cc4ba7">
   <rect height="128.398" width="319.305527" x="40.574473" y="175.134"/>
  </clipPath>
 </defs>
</svg>
