<?xml version="1.0" encoding="utf-8" standalone="no"?>
<!DOCTYPE svg PUBLIC "-//W3C//DTD SVG 1.1//EN"
  "http://www.w3.org/Graphics/SVG/1.1/DTD/svg11.dtd">
<!-- Created with matplotlib (https://matplotlib.org/) -->
<svg height="165.6pt" version="1.1" viewBox="0 0 1153.625 165.6" width="1153.625pt" xmlns="http://www.w3.org/2000/svg" xmlns:xlink="http://www.w3.org/1999/xlink">
 <metadata>
  <rdf:RDF xmlns:cc="http://creativecommons.org/ns#" xmlns:dc="http://purl.org/dc/elements/1.1/" xmlns:rdf="http://www.w3.org/1999/02/22-rdf-syntax-ns#">
   <cc:Work>
    <dc:type rdf:resource="http://purl.org/dc/dcmitype/StillImage"/>
    <dc:date>2021-03-19T16:08:32.272324</dc:date>
    <dc:format>image/svg+xml</dc:format>
    <dc:creator>
     <cc:Agent>
      <dc:title>Matplotlib v3.3.2, https://matplotlib.org/</dc:title>
     </cc:Agent>
    </dc:creator>
   </cc:Work>
  </rdf:RDF>
 </metadata>
 <defs>
  <style type="text/css">*{stroke-linecap:butt;stroke-linejoin:round;}</style>
 </defs>
 <g id="figure_1">
  <g id="patch_1">
   <path d="M 0 165.6 
L 1153.625 165.6 
L 1153.625 0 
L 0 0 
z
" style="fill:#ffffff;"/>
  </g>
  <g id="axes_1">
   <g id="patch_2">
    <path d="M 32.634111 137.932 
L 375.337614 137.932 
L 375.337614 23.368 
L 32.634111 23.368 
z
" style="fill:#ffffff;"/>
   </g>
   <g id="matplotlib.axis_1">
    <g id="xtick_1">
     <g id="line2d_1">
      <path clip-path="url(#p535d7483be)" d="M 46.814464 137.932 
L 46.814464 23.368 
" style="fill:none;stroke:#cccccc;stroke-linecap:round;stroke-width:0.8;"/>
     </g>
     <g id="text_1">
      <!-- 0 -->
      <g style="fill:#262626;" transform="translate(44.367651 146.030875)scale(0.088 -0.088)">
       <defs>
        <path d="M 4.15625 35.296875 
Q 4.15625 48 6.765625 55.734375 
Q 9.375 63.484375 14.515625 67.671875 
Q 19.671875 71.875 27.484375 71.875 
Q 33.25 71.875 37.59375 69.546875 
Q 41.9375 67.234375 44.765625 62.859375 
Q 47.609375 58.5 49.21875 52.21875 
Q 50.828125 45.953125 50.828125 35.296875 
Q 50.828125 22.703125 48.234375 14.96875 
Q 45.65625 7.234375 40.5 3 
Q 35.359375 -1.21875 27.484375 -1.21875 
Q 17.140625 -1.21875 11.234375 6.203125 
Q 4.15625 15.140625 4.15625 35.296875 
z
M 13.1875 35.296875 
Q 13.1875 17.671875 17.3125 11.828125 
Q 21.4375 6 27.484375 6 
Q 33.546875 6 37.671875 11.859375 
Q 41.796875 17.71875 41.796875 35.296875 
Q 41.796875 52.984375 37.671875 58.78125 
Q 33.546875 64.59375 27.390625 64.59375 
Q 21.34375 64.59375 17.71875 59.46875 
Q 13.1875 52.9375 13.1875 35.296875 
z
" id="ArialMT-48"/>
       </defs>
       <use xlink:href="#ArialMT-48"/>
      </g>
     </g>
    </g>
    <g id="xtick_2">
     <g id="line2d_2">
      <path clip-path="url(#p535d7483be)" d="M 116.668419 137.932 
L 116.668419 23.368 
" style="fill:none;stroke:#cccccc;stroke-linecap:round;stroke-width:0.8;"/>
     </g>
     <g id="text_2">
      <!-- 50 -->
      <g style="fill:#262626;" transform="translate(111.774794 146.030875)scale(0.088 -0.088)">
       <defs>
        <path d="M 4.15625 18.75 
L 13.375 19.53125 
Q 14.40625 12.796875 18.140625 9.390625 
Q 21.875 6 27.15625 6 
Q 33.5 6 37.890625 10.78125 
Q 42.28125 15.578125 42.28125 23.484375 
Q 42.28125 31 38.0625 35.34375 
Q 33.84375 39.703125 27 39.703125 
Q 22.75 39.703125 19.328125 37.765625 
Q 15.921875 35.84375 13.96875 32.765625 
L 5.71875 33.84375 
L 12.640625 70.609375 
L 48.25 70.609375 
L 48.25 62.203125 
L 19.671875 62.203125 
L 15.828125 42.96875 
Q 22.265625 47.46875 29.34375 47.46875 
Q 38.71875 47.46875 45.15625 40.96875 
Q 51.609375 34.46875 51.609375 24.265625 
Q 51.609375 14.546875 45.953125 7.46875 
Q 39.0625 -1.21875 27.15625 -1.21875 
Q 17.390625 -1.21875 11.203125 4.25 
Q 5.03125 9.71875 4.15625 18.75 
z
" id="ArialMT-53"/>
       </defs>
       <use xlink:href="#ArialMT-53"/>
       <use x="55.615234" xlink:href="#ArialMT-48"/>
      </g>
     </g>
    </g>
    <g id="xtick_3">
     <g id="line2d_3">
      <path clip-path="url(#p535d7483be)" d="M 186.522374 137.932 
L 186.522374 23.368 
" style="fill:none;stroke:#cccccc;stroke-linecap:round;stroke-width:0.8;"/>
     </g>
     <g id="text_3">
      <!-- 100 -->
      <g style="fill:#262626;" transform="translate(179.181936 146.030875)scale(0.088 -0.088)">
       <defs>
        <path d="M 37.25 0 
L 28.46875 0 
L 28.46875 56 
Q 25.296875 52.984375 20.140625 49.953125 
Q 14.984375 46.921875 10.890625 45.40625 
L 10.890625 53.90625 
Q 18.265625 57.375 23.78125 62.296875 
Q 29.296875 67.234375 31.59375 71.875 
L 37.25 71.875 
z
" id="ArialMT-49"/>
       </defs>
       <use xlink:href="#ArialMT-49"/>
       <use x="55.615234" xlink:href="#ArialMT-48"/>
       <use x="111.230469" xlink:href="#ArialMT-48"/>
      </g>
     </g>
    </g>
    <g id="xtick_4">
     <g id="line2d_4">
      <path clip-path="url(#p535d7483be)" d="M 256.376329 137.932 
L 256.376329 23.368 
" style="fill:none;stroke:#cccccc;stroke-linecap:round;stroke-width:0.8;"/>
     </g>
     <g id="text_4">
      <!-- 150 -->
      <g style="fill:#262626;" transform="translate(249.035891 146.030875)scale(0.088 -0.088)">
       <use xlink:href="#ArialMT-49"/>
       <use x="55.615234" xlink:href="#ArialMT-53"/>
       <use x="111.230469" xlink:href="#ArialMT-48"/>
      </g>
     </g>
    </g>
    <g id="xtick_5">
     <g id="line2d_5">
      <path clip-path="url(#p535d7483be)" d="M 326.230284 137.932 
L 326.230284 23.368 
" style="fill:none;stroke:#cccccc;stroke-linecap:round;stroke-width:0.8;"/>
     </g>
     <g id="text_5">
      <!-- 200 -->
      <g style="fill:#262626;" transform="translate(318.889846 146.030875)scale(0.088 -0.088)">
       <defs>
        <path d="M 50.34375 8.453125 
L 50.34375 0 
L 3.03125 0 
Q 2.9375 3.171875 4.046875 6.109375 
Q 5.859375 10.9375 9.828125 15.625 
Q 13.8125 20.3125 21.34375 26.46875 
Q 33.015625 36.03125 37.109375 41.625 
Q 41.21875 47.21875 41.21875 52.203125 
Q 41.21875 57.421875 37.46875 61 
Q 33.734375 64.59375 27.734375 64.59375 
Q 21.390625 64.59375 17.578125 60.78125 
Q 13.765625 56.984375 13.71875 50.25 
L 4.6875 51.171875 
Q 5.609375 61.28125 11.65625 66.578125 
Q 17.71875 71.875 27.9375 71.875 
Q 38.234375 71.875 44.234375 66.15625 
Q 50.25 60.453125 50.25 52 
Q 50.25 47.703125 48.484375 43.546875 
Q 46.734375 39.40625 42.65625 34.8125 
Q 38.578125 30.21875 29.109375 22.21875 
Q 21.1875 15.578125 18.9375 13.203125 
Q 16.703125 10.84375 15.234375 8.453125 
z
" id="ArialMT-50"/>
       </defs>
       <use xlink:href="#ArialMT-50"/>
       <use x="55.615234" xlink:href="#ArialMT-48"/>
       <use x="111.230469" xlink:href="#ArialMT-48"/>
      </g>
     </g>
    </g>
    <g id="text_6">
     <!-- Number of Cores -->
     <g style="fill:#262626;" transform="translate(167.442113 158.651375)scale(0.096 -0.096)">
      <defs>
       <path d="M 7.625 0 
L 7.625 71.578125 
L 17.328125 71.578125 
L 54.9375 15.375 
L 54.9375 71.578125 
L 64.015625 71.578125 
L 64.015625 0 
L 54.296875 0 
L 16.703125 56.25 
L 16.703125 0 
z
" id="ArialMT-78"/>
       <path d="M 40.578125 0 
L 40.578125 7.625 
Q 34.515625 -1.171875 24.125 -1.171875 
Q 19.53125 -1.171875 15.546875 0.578125 
Q 11.578125 2.34375 9.640625 5 
Q 7.71875 7.671875 6.9375 11.53125 
Q 6.390625 14.109375 6.390625 19.734375 
L 6.390625 51.859375 
L 15.1875 51.859375 
L 15.1875 23.09375 
Q 15.1875 16.21875 15.71875 13.8125 
Q 16.546875 10.359375 19.234375 8.375 
Q 21.921875 6.390625 25.875 6.390625 
Q 29.828125 6.390625 33.296875 8.421875 
Q 36.765625 10.453125 38.203125 13.9375 
Q 39.65625 17.4375 39.65625 24.078125 
L 39.65625 51.859375 
L 48.4375 51.859375 
L 48.4375 0 
z
" id="ArialMT-117"/>
       <path d="M 6.59375 0 
L 6.59375 51.859375 
L 14.453125 51.859375 
L 14.453125 44.578125 
Q 16.890625 48.390625 20.9375 50.703125 
Q 25 53.03125 30.171875 53.03125 
Q 35.9375 53.03125 39.625 50.640625 
Q 43.3125 48.25 44.828125 43.953125 
Q 50.984375 53.03125 60.84375 53.03125 
Q 68.5625 53.03125 72.703125 48.75 
Q 76.859375 44.484375 76.859375 35.59375 
L 76.859375 0 
L 68.109375 0 
L 68.109375 32.671875 
Q 68.109375 37.9375 67.25 40.25 
Q 66.40625 42.578125 64.15625 43.984375 
Q 61.921875 45.40625 58.890625 45.40625 
Q 53.421875 45.40625 49.796875 41.765625 
Q 46.1875 38.140625 46.1875 30.125 
L 46.1875 0 
L 37.40625 0 
L 37.40625 33.6875 
Q 37.40625 39.546875 35.25 42.46875 
Q 33.109375 45.40625 28.21875 45.40625 
Q 24.515625 45.40625 21.359375 43.453125 
Q 18.21875 41.5 16.796875 37.734375 
Q 15.375 33.984375 15.375 26.90625 
L 15.375 0 
z
" id="ArialMT-109"/>
       <path d="M 14.703125 0 
L 6.546875 0 
L 6.546875 71.578125 
L 15.328125 71.578125 
L 15.328125 46.046875 
Q 20.90625 53.03125 29.546875 53.03125 
Q 34.328125 53.03125 38.59375 51.09375 
Q 42.875 49.171875 45.625 45.671875 
Q 48.390625 42.1875 49.953125 37.25 
Q 51.515625 32.328125 51.515625 26.703125 
Q 51.515625 13.375 44.921875 6.09375 
Q 38.328125 -1.171875 29.109375 -1.171875 
Q 19.921875 -1.171875 14.703125 6.5 
z
M 14.59375 26.3125 
Q 14.59375 17 17.140625 12.84375 
Q 21.296875 6.0625 28.375 6.0625 
Q 34.125 6.0625 38.328125 11.0625 
Q 42.53125 16.0625 42.53125 25.984375 
Q 42.53125 36.140625 38.5 40.96875 
Q 34.46875 45.796875 28.765625 45.796875 
Q 23 45.796875 18.796875 40.796875 
Q 14.59375 35.796875 14.59375 26.3125 
z
" id="ArialMT-98"/>
       <path d="M 42.09375 16.703125 
L 51.171875 15.578125 
Q 49.03125 7.625 43.21875 3.21875 
Q 37.40625 -1.171875 28.375 -1.171875 
Q 17 -1.171875 10.328125 5.828125 
Q 3.65625 12.84375 3.65625 25.484375 
Q 3.65625 38.578125 10.390625 45.796875 
Q 17.140625 53.03125 27.875 53.03125 
Q 38.28125 53.03125 44.875 45.953125 
Q 51.46875 38.875 51.46875 26.03125 
Q 51.46875 25.25 51.421875 23.6875 
L 12.75 23.6875 
Q 13.234375 15.140625 17.578125 10.59375 
Q 21.921875 6.0625 28.421875 6.0625 
Q 33.25 6.0625 36.671875 8.59375 
Q 40.09375 11.140625 42.09375 16.703125 
z
M 13.234375 30.90625 
L 42.1875 30.90625 
Q 41.609375 37.453125 38.875 40.71875 
Q 34.671875 45.796875 27.984375 45.796875 
Q 21.921875 45.796875 17.796875 41.75 
Q 13.671875 37.703125 13.234375 30.90625 
z
" id="ArialMT-101"/>
       <path d="M 6.5 0 
L 6.5 51.859375 
L 14.40625 51.859375 
L 14.40625 44 
Q 17.4375 49.515625 20 51.265625 
Q 22.5625 53.03125 25.640625 53.03125 
Q 30.078125 53.03125 34.671875 50.203125 
L 31.640625 42.046875 
Q 28.421875 43.953125 25.203125 43.953125 
Q 22.3125 43.953125 20.015625 42.21875 
Q 17.71875 40.484375 16.75 37.40625 
Q 15.28125 32.71875 15.28125 27.15625 
L 15.28125 0 
z
" id="ArialMT-114"/>
       <path id="ArialMT-32"/>
       <path d="M 3.328125 25.921875 
Q 3.328125 40.328125 11.328125 47.265625 
Q 18.015625 53.03125 27.640625 53.03125 
Q 38.328125 53.03125 45.109375 46.015625 
Q 51.90625 39.015625 51.90625 26.65625 
Q 51.90625 16.65625 48.90625 10.90625 
Q 45.90625 5.171875 40.15625 2 
Q 34.421875 -1.171875 27.640625 -1.171875 
Q 16.75 -1.171875 10.03125 5.8125 
Q 3.328125 12.796875 3.328125 25.921875 
z
M 12.359375 25.921875 
Q 12.359375 15.96875 16.703125 11.015625 
Q 21.046875 6.0625 27.640625 6.0625 
Q 34.1875 6.0625 38.53125 11.03125 
Q 42.875 16.015625 42.875 26.21875 
Q 42.875 35.84375 38.5 40.796875 
Q 34.125 45.75 27.640625 45.75 
Q 21.046875 45.75 16.703125 40.8125 
Q 12.359375 35.890625 12.359375 25.921875 
z
" id="ArialMT-111"/>
       <path d="M 8.6875 0 
L 8.6875 45.015625 
L 0.921875 45.015625 
L 0.921875 51.859375 
L 8.6875 51.859375 
L 8.6875 57.375 
Q 8.6875 62.59375 9.625 65.140625 
Q 10.890625 68.5625 14.078125 70.671875 
Q 17.28125 72.796875 23.046875 72.796875 
Q 26.765625 72.796875 31.25 71.921875 
L 29.9375 64.265625 
Q 27.203125 64.75 24.75 64.75 
Q 20.75 64.75 19.09375 63.03125 
Q 17.4375 61.328125 17.4375 56.640625 
L 17.4375 51.859375 
L 27.546875 51.859375 
L 27.546875 45.015625 
L 17.4375 45.015625 
L 17.4375 0 
z
" id="ArialMT-102"/>
       <path d="M 58.796875 25.09375 
L 68.265625 22.703125 
Q 65.28125 11.03125 57.546875 4.90625 
Q 49.8125 -1.21875 38.625 -1.21875 
Q 27.046875 -1.21875 19.796875 3.484375 
Q 12.546875 8.203125 8.765625 17.140625 
Q 4.984375 26.078125 4.984375 36.328125 
Q 4.984375 47.515625 9.25 55.828125 
Q 13.53125 64.15625 21.40625 68.46875 
Q 29.296875 72.796875 38.765625 72.796875 
Q 49.515625 72.796875 56.828125 67.328125 
Q 64.15625 61.859375 67.046875 51.953125 
L 57.71875 49.75 
Q 55.21875 57.5625 50.484375 61.125 
Q 45.75 64.703125 38.578125 64.703125 
Q 30.328125 64.703125 24.78125 60.734375 
Q 19.234375 56.78125 16.984375 50.109375 
Q 14.75 43.453125 14.75 36.375 
Q 14.75 27.25 17.40625 20.4375 
Q 20.0625 13.625 25.671875 10.25 
Q 31.296875 6.890625 37.84375 6.890625 
Q 45.796875 6.890625 51.3125 11.46875 
Q 56.84375 16.0625 58.796875 25.09375 
z
" id="ArialMT-67"/>
       <path d="M 3.078125 15.484375 
L 11.765625 16.84375 
Q 12.5 11.625 15.84375 8.84375 
Q 19.1875 6.0625 25.203125 6.0625 
Q 31.25 6.0625 34.171875 8.515625 
Q 37.109375 10.984375 37.109375 14.3125 
Q 37.109375 17.28125 34.515625 19 
Q 32.71875 20.171875 25.53125 21.96875 
Q 15.875 24.421875 12.140625 26.203125 
Q 8.40625 27.984375 6.46875 31.125 
Q 4.546875 34.28125 4.546875 38.09375 
Q 4.546875 41.546875 6.125 44.5 
Q 7.71875 47.46875 10.453125 49.421875 
Q 12.5 50.921875 16.03125 51.96875 
Q 19.578125 53.03125 23.640625 53.03125 
Q 29.734375 53.03125 34.34375 51.265625 
Q 38.96875 49.515625 41.15625 46.5 
Q 43.359375 43.5 44.1875 38.484375 
L 35.59375 37.3125 
Q 35.015625 41.3125 32.203125 43.546875 
Q 29.390625 45.796875 24.265625 45.796875 
Q 18.21875 45.796875 15.625 43.796875 
Q 13.03125 41.796875 13.03125 39.109375 
Q 13.03125 37.40625 14.109375 36.03125 
Q 15.1875 34.625 17.484375 33.6875 
Q 18.796875 33.203125 25.25 31.453125 
Q 34.578125 28.953125 38.25 27.359375 
Q 41.9375 25.78125 44.03125 22.75 
Q 46.140625 19.734375 46.140625 15.234375 
Q 46.140625 10.84375 43.578125 6.953125 
Q 41.015625 3.078125 36.171875 0.953125 
Q 31.34375 -1.171875 25.25 -1.171875 
Q 15.140625 -1.171875 9.84375 3.03125 
Q 4.546875 7.234375 3.078125 15.484375 
z
" id="ArialMT-115"/>
      </defs>
      <use xlink:href="#ArialMT-78"/>
      <use x="72.216797" xlink:href="#ArialMT-117"/>
      <use x="127.832031" xlink:href="#ArialMT-109"/>
      <use x="211.132812" xlink:href="#ArialMT-98"/>
      <use x="266.748047" xlink:href="#ArialMT-101"/>
      <use x="322.363281" xlink:href="#ArialMT-114"/>
      <use x="355.664062" xlink:href="#ArialMT-32"/>
      <use x="383.447266" xlink:href="#ArialMT-111"/>
      <use x="439.0625" xlink:href="#ArialMT-102"/>
      <use x="466.845703" xlink:href="#ArialMT-32"/>
      <use x="494.628906" xlink:href="#ArialMT-67"/>
      <use x="566.845703" xlink:href="#ArialMT-111"/>
      <use x="622.460938" xlink:href="#ArialMT-114"/>
      <use x="655.761719" xlink:href="#ArialMT-101"/>
      <use x="711.376953" xlink:href="#ArialMT-115"/>
     </g>
    </g>
   </g>
   <g id="matplotlib.axis_2">
    <g id="ytick_1">
     <g id="line2d_6">
      <path clip-path="url(#p535d7483be)" d="M 32.634111 132.724545 
L 375.337614 132.724545 
" style="fill:none;stroke:#cccccc;stroke-linecap:round;stroke-width:0.8;"/>
     </g>
     <g id="text_7">
      <!-- 0.00% -->
      <g style="fill:#262626;" transform="translate(-0.616639 135.873983)scale(0.088 -0.088)">
       <defs>
        <path d="M 9.078125 0 
L 9.078125 10.015625 
L 19.09375 10.015625 
L 19.09375 0 
z
" id="ArialMT-46"/>
        <path d="M 5.8125 54.390625 
Q 5.8125 62.0625 9.671875 67.421875 
Q 13.53125 72.796875 20.84375 72.796875 
Q 27.59375 72.796875 32 67.984375 
Q 36.421875 63.1875 36.421875 53.859375 
Q 36.421875 44.78125 31.953125 39.875 
Q 27.484375 34.96875 20.953125 34.96875 
Q 14.453125 34.96875 10.125 39.796875 
Q 5.8125 44.625 5.8125 54.390625 
z
M 21.09375 66.75 
Q 17.828125 66.75 15.65625 63.90625 
Q 13.484375 61.078125 13.484375 53.515625 
Q 13.484375 46.625 15.671875 43.8125 
Q 17.875 41.015625 21.09375 41.015625 
Q 24.421875 41.015625 26.59375 43.84375 
Q 28.765625 46.6875 28.765625 54.203125 
Q 28.765625 61.140625 26.5625 63.9375 
Q 24.359375 66.75 21.09375 66.75 
z
M 21.140625 -2.640625 
L 60.296875 72.796875 
L 67.4375 72.796875 
L 28.421875 -2.640625 
z
M 52.09375 16.796875 
Q 52.09375 24.515625 55.953125 29.859375 
Q 59.8125 35.203125 67.1875 35.203125 
Q 73.921875 35.203125 78.34375 30.390625 
Q 82.765625 25.59375 82.765625 16.265625 
Q 82.765625 7.171875 78.296875 2.265625 
Q 73.828125 -2.640625 67.234375 -2.640625 
Q 60.75 -2.640625 56.421875 2.21875 
Q 52.09375 7.078125 52.09375 16.796875 
z
M 67.4375 29.15625 
Q 64.109375 29.15625 61.9375 26.3125 
Q 59.765625 23.484375 59.765625 15.921875 
Q 59.765625 9.078125 61.953125 6.25 
Q 64.15625 3.421875 67.390625 3.421875 
Q 70.75 3.421875 72.921875 6.25 
Q 75.09375 9.078125 75.09375 16.609375 
Q 75.09375 23.53125 72.890625 26.34375 
Q 70.703125 29.15625 67.4375 29.15625 
z
" id="ArialMT-37"/>
       </defs>
       <use xlink:href="#ArialMT-48"/>
       <use x="55.615234" xlink:href="#ArialMT-46"/>
       <use x="83.398438" xlink:href="#ArialMT-48"/>
       <use x="139.013672" xlink:href="#ArialMT-48"/>
       <use x="194.628906" xlink:href="#ArialMT-37"/>
      </g>
     </g>
    </g>
    <g id="ytick_2">
     <g id="line2d_7">
      <path clip-path="url(#p535d7483be)" d="M 32.634111 111.203101 
L 375.337614 111.203101 
" style="fill:none;stroke:#cccccc;stroke-linecap:round;stroke-width:0.8;"/>
     </g>
     <g id="text_8">
      <!-- 20.00% -->
      <g style="fill:#262626;" transform="translate(-5.510264 114.352539)scale(0.088 -0.088)">
       <use xlink:href="#ArialMT-50"/>
       <use x="55.615234" xlink:href="#ArialMT-48"/>
       <use x="111.230469" xlink:href="#ArialMT-46"/>
       <use x="139.013672" xlink:href="#ArialMT-48"/>
       <use x="194.628906" xlink:href="#ArialMT-48"/>
       <use x="250.244141" xlink:href="#ArialMT-37"/>
      </g>
     </g>
    </g>
    <g id="ytick_3">
     <g id="line2d_8">
      <path clip-path="url(#p535d7483be)" d="M 32.634111 89.681657 
L 375.337614 89.681657 
" style="fill:none;stroke:#cccccc;stroke-linecap:round;stroke-width:0.8;"/>
     </g>
     <g id="text_9">
      <!-- 40.00% -->
      <g style="fill:#262626;" transform="translate(-5.510264 92.831094)scale(0.088 -0.088)">
       <defs>
        <path d="M 32.328125 0 
L 32.328125 17.140625 
L 1.265625 17.140625 
L 1.265625 25.203125 
L 33.9375 71.578125 
L 41.109375 71.578125 
L 41.109375 25.203125 
L 50.78125 25.203125 
L 50.78125 17.140625 
L 41.109375 17.140625 
L 41.109375 0 
z
M 32.328125 25.203125 
L 32.328125 57.46875 
L 9.90625 25.203125 
z
" id="ArialMT-52"/>
       </defs>
       <use xlink:href="#ArialMT-52"/>
       <use x="55.615234" xlink:href="#ArialMT-48"/>
       <use x="111.230469" xlink:href="#ArialMT-46"/>
       <use x="139.013672" xlink:href="#ArialMT-48"/>
       <use x="194.628906" xlink:href="#ArialMT-48"/>
       <use x="250.244141" xlink:href="#ArialMT-37"/>
      </g>
     </g>
    </g>
    <g id="ytick_4">
     <g id="line2d_9">
      <path clip-path="url(#p535d7483be)" d="M 32.634111 68.160212 
L 375.337614 68.160212 
" style="fill:none;stroke:#cccccc;stroke-linecap:round;stroke-width:0.8;"/>
     </g>
     <g id="text_10">
      <!-- 60.00% -->
      <g style="fill:#262626;" transform="translate(-5.510264 71.30965)scale(0.088 -0.088)">
       <defs>
        <path d="M 49.75 54.046875 
L 41.015625 53.375 
Q 39.84375 58.546875 37.703125 60.890625 
Q 34.125 64.65625 28.90625 64.65625 
Q 24.703125 64.65625 21.53125 62.3125 
Q 17.390625 59.28125 14.984375 53.46875 
Q 12.59375 47.65625 12.5 36.921875 
Q 15.671875 41.75 20.265625 44.09375 
Q 24.859375 46.4375 29.890625 46.4375 
Q 38.671875 46.4375 44.84375 39.96875 
Q 51.03125 33.5 51.03125 23.25 
Q 51.03125 16.5 48.125 10.71875 
Q 45.21875 4.9375 40.140625 1.859375 
Q 35.0625 -1.21875 28.609375 -1.21875 
Q 17.625 -1.21875 10.6875 6.859375 
Q 3.765625 14.9375 3.765625 33.5 
Q 3.765625 54.25 11.421875 63.671875 
Q 18.109375 71.875 29.4375 71.875 
Q 37.890625 71.875 43.28125 67.140625 
Q 48.6875 62.40625 49.75 54.046875 
z
M 13.875 23.1875 
Q 13.875 18.65625 15.796875 14.5 
Q 17.71875 10.359375 21.1875 8.171875 
Q 24.65625 6 28.46875 6 
Q 34.03125 6 38.03125 10.484375 
Q 42.046875 14.984375 42.046875 22.703125 
Q 42.046875 30.125 38.078125 34.390625 
Q 34.125 38.671875 28.125 38.671875 
Q 22.171875 38.671875 18.015625 34.390625 
Q 13.875 30.125 13.875 23.1875 
z
" id="ArialMT-54"/>
       </defs>
       <use xlink:href="#ArialMT-54"/>
       <use x="55.615234" xlink:href="#ArialMT-48"/>
       <use x="111.230469" xlink:href="#ArialMT-46"/>
       <use x="139.013672" xlink:href="#ArialMT-48"/>
       <use x="194.628906" xlink:href="#ArialMT-48"/>
       <use x="250.244141" xlink:href="#ArialMT-37"/>
      </g>
     </g>
    </g>
    <g id="ytick_5">
     <g id="line2d_10">
      <path clip-path="url(#p535d7483be)" d="M 32.634111 46.638768 
L 375.337614 46.638768 
" style="fill:none;stroke:#cccccc;stroke-linecap:round;stroke-width:0.8;"/>
     </g>
     <g id="text_11">
      <!-- 80.00% -->
      <g style="fill:#262626;" transform="translate(-5.510264 49.788206)scale(0.088 -0.088)">
       <defs>
        <path d="M 17.671875 38.8125 
Q 12.203125 40.828125 9.5625 44.53125 
Q 6.9375 48.25 6.9375 53.421875 
Q 6.9375 61.234375 12.546875 66.546875 
Q 18.171875 71.875 27.484375 71.875 
Q 36.859375 71.875 42.578125 66.421875 
Q 48.296875 60.984375 48.296875 53.171875 
Q 48.296875 48.1875 45.671875 44.5 
Q 43.0625 40.828125 37.75 38.8125 
Q 44.34375 36.671875 47.78125 31.875 
Q 51.21875 27.09375 51.21875 20.453125 
Q 51.21875 11.28125 44.71875 5.03125 
Q 38.234375 -1.21875 27.640625 -1.21875 
Q 17.046875 -1.21875 10.546875 5.046875 
Q 4.046875 11.328125 4.046875 20.703125 
Q 4.046875 27.6875 7.59375 32.390625 
Q 11.140625 37.109375 17.671875 38.8125 
z
M 15.921875 53.71875 
Q 15.921875 48.640625 19.1875 45.40625 
Q 22.46875 42.1875 27.6875 42.1875 
Q 32.765625 42.1875 36.015625 45.375 
Q 39.265625 48.578125 39.265625 53.21875 
Q 39.265625 58.0625 35.90625 61.359375 
Q 32.5625 64.65625 27.59375 64.65625 
Q 22.5625 64.65625 19.234375 61.421875 
Q 15.921875 58.203125 15.921875 53.71875 
z
M 13.09375 20.65625 
Q 13.09375 16.890625 14.875 13.375 
Q 16.65625 9.859375 20.171875 7.921875 
Q 23.6875 6 27.734375 6 
Q 34.03125 6 38.125 10.046875 
Q 42.234375 14.109375 42.234375 20.359375 
Q 42.234375 26.703125 38.015625 30.859375 
Q 33.796875 35.015625 27.4375 35.015625 
Q 21.234375 35.015625 17.15625 30.90625 
Q 13.09375 26.8125 13.09375 20.65625 
z
" id="ArialMT-56"/>
       </defs>
       <use xlink:href="#ArialMT-56"/>
       <use x="55.615234" xlink:href="#ArialMT-48"/>
       <use x="111.230469" xlink:href="#ArialMT-46"/>
       <use x="139.013672" xlink:href="#ArialMT-48"/>
       <use x="194.628906" xlink:href="#ArialMT-48"/>
       <use x="250.244141" xlink:href="#ArialMT-37"/>
      </g>
     </g>
    </g>
    <g id="ytick_6">
     <g id="line2d_11">
      <path clip-path="url(#p535d7483be)" d="M 32.634111 25.117324 
L 375.337614 25.117324 
" style="fill:none;stroke:#cccccc;stroke-linecap:round;stroke-width:0.8;"/>
     </g>
     <g id="text_12">
      <!-- 100.00% -->
      <g style="fill:#262626;" transform="translate(-10.403889 28.266761)scale(0.088 -0.088)">
       <use xlink:href="#ArialMT-49"/>
       <use x="55.615234" xlink:href="#ArialMT-48"/>
       <use x="111.230469" xlink:href="#ArialMT-48"/>
       <use x="166.845703" xlink:href="#ArialMT-46"/>
       <use x="194.628906" xlink:href="#ArialMT-48"/>
       <use x="250.244141" xlink:href="#ArialMT-48"/>
       <use x="305.859375" xlink:href="#ArialMT-37"/>
      </g>
     </g>
    </g>
    <g id="text_13">
     <!-- Abort Ratio (Abort/Total) -->
     <g style="fill:#262626;" transform="translate(-16.424389 132.13225)rotate(-90)scale(0.096 -0.096)">
      <defs>
       <path d="M -0.140625 0 
L 27.34375 71.578125 
L 37.546875 71.578125 
L 66.84375 0 
L 56.0625 0 
L 47.703125 21.6875 
L 17.78125 21.6875 
L 9.90625 0 
z
M 20.515625 29.390625 
L 44.78125 29.390625 
L 37.3125 49.21875 
Q 33.890625 58.25 32.234375 64.0625 
Q 30.859375 57.171875 28.375 50.390625 
z
" id="ArialMT-65"/>
       <path d="M 25.78125 7.859375 
L 27.046875 0.09375 
Q 23.34375 -0.6875 20.40625 -0.6875 
Q 15.625 -0.6875 12.984375 0.828125 
Q 10.359375 2.34375 9.28125 4.8125 
Q 8.203125 7.28125 8.203125 15.1875 
L 8.203125 45.015625 
L 1.765625 45.015625 
L 1.765625 51.859375 
L 8.203125 51.859375 
L 8.203125 64.703125 
L 16.9375 69.96875 
L 16.9375 51.859375 
L 25.78125 51.859375 
L 25.78125 45.015625 
L 16.9375 45.015625 
L 16.9375 14.703125 
Q 16.9375 10.9375 17.40625 9.859375 
Q 17.875 8.796875 18.921875 8.15625 
Q 19.96875 7.515625 21.921875 7.515625 
Q 23.390625 7.515625 25.78125 7.859375 
z
" id="ArialMT-116"/>
       <path d="M 7.859375 0 
L 7.859375 71.578125 
L 39.59375 71.578125 
Q 49.171875 71.578125 54.140625 69.640625 
Q 59.125 67.71875 62.109375 62.828125 
Q 65.09375 57.953125 65.09375 52.046875 
Q 65.09375 44.4375 60.15625 39.203125 
Q 55.21875 33.984375 44.921875 32.5625 
Q 48.6875 30.765625 50.640625 29 
Q 54.78125 25.203125 58.5 19.484375 
L 70.953125 0 
L 59.03125 0 
L 49.5625 14.890625 
Q 45.40625 21.34375 42.71875 24.75 
Q 40.046875 28.171875 37.921875 29.53125 
Q 35.796875 30.90625 33.59375 31.453125 
Q 31.984375 31.78125 28.328125 31.78125 
L 17.328125 31.78125 
L 17.328125 0 
z
M 17.328125 39.984375 
L 37.703125 39.984375 
Q 44.1875 39.984375 47.84375 41.328125 
Q 51.515625 42.671875 53.421875 45.625 
Q 55.328125 48.578125 55.328125 52.046875 
Q 55.328125 57.125 51.640625 60.390625 
Q 47.953125 63.671875 39.984375 63.671875 
L 17.328125 63.671875 
z
" id="ArialMT-82"/>
       <path d="M 40.4375 6.390625 
Q 35.546875 2.25 31.03125 0.53125 
Q 26.515625 -1.171875 21.34375 -1.171875 
Q 12.796875 -1.171875 8.203125 3 
Q 3.609375 7.171875 3.609375 13.671875 
Q 3.609375 17.484375 5.34375 20.625 
Q 7.078125 23.78125 9.890625 25.6875 
Q 12.703125 27.59375 16.21875 28.5625 
Q 18.796875 29.25 24.03125 29.890625 
Q 34.671875 31.15625 39.703125 32.90625 
Q 39.75 34.71875 39.75 35.203125 
Q 39.75 40.578125 37.25 42.78125 
Q 33.890625 45.75 27.25 45.75 
Q 21.046875 45.75 18.09375 43.578125 
Q 15.140625 41.40625 13.71875 35.890625 
L 5.125 37.0625 
Q 6.296875 42.578125 8.984375 45.96875 
Q 11.671875 49.359375 16.75 51.1875 
Q 21.828125 53.03125 28.515625 53.03125 
Q 35.15625 53.03125 39.296875 51.46875 
Q 43.453125 49.90625 45.40625 47.53125 
Q 47.359375 45.171875 48.140625 41.546875 
Q 48.578125 39.3125 48.578125 33.453125 
L 48.578125 21.734375 
Q 48.578125 9.46875 49.140625 6.21875 
Q 49.703125 2.984375 51.375 0 
L 42.1875 0 
Q 40.828125 2.734375 40.4375 6.390625 
z
M 39.703125 26.03125 
Q 34.90625 24.078125 25.34375 22.703125 
Q 19.921875 21.921875 17.671875 20.9375 
Q 15.4375 19.96875 14.203125 18.09375 
Q 12.984375 16.21875 12.984375 13.921875 
Q 12.984375 10.40625 15.640625 8.0625 
Q 18.3125 5.71875 23.4375 5.71875 
Q 28.515625 5.71875 32.46875 7.9375 
Q 36.421875 10.15625 38.28125 14.015625 
Q 39.703125 17 39.703125 22.796875 
z
" id="ArialMT-97"/>
       <path d="M 6.640625 61.46875 
L 6.640625 71.578125 
L 15.4375 71.578125 
L 15.4375 61.46875 
z
M 6.640625 0 
L 6.640625 51.859375 
L 15.4375 51.859375 
L 15.4375 0 
z
" id="ArialMT-105"/>
       <path d="M 23.390625 -21.046875 
Q 16.109375 -11.859375 11.078125 0.4375 
Q 6.0625 12.75 6.0625 25.921875 
Q 6.0625 37.546875 9.8125 48.1875 
Q 14.203125 60.546875 23.390625 72.796875 
L 29.6875 72.796875 
Q 23.78125 62.640625 21.875 58.296875 
Q 18.890625 51.5625 17.1875 44.234375 
Q 15.09375 35.109375 15.09375 25.875 
Q 15.09375 2.390625 29.6875 -21.046875 
z
" id="ArialMT-40"/>
       <path d="M 0 -1.21875 
L 20.75 72.796875 
L 27.78125 72.796875 
L 7.078125 -1.21875 
z
" id="ArialMT-47"/>
       <path d="M 25.921875 0 
L 25.921875 63.140625 
L 2.34375 63.140625 
L 2.34375 71.578125 
L 59.078125 71.578125 
L 59.078125 63.140625 
L 35.40625 63.140625 
L 35.40625 0 
z
" id="ArialMT-84"/>
       <path d="M 6.390625 0 
L 6.390625 71.578125 
L 15.1875 71.578125 
L 15.1875 0 
z
" id="ArialMT-108"/>
       <path d="M 12.359375 -21.046875 
L 6.0625 -21.046875 
Q 20.65625 2.390625 20.65625 25.875 
Q 20.65625 35.0625 18.5625 44.09375 
Q 16.890625 51.421875 13.921875 58.15625 
Q 12.015625 62.546875 6.0625 72.796875 
L 12.359375 72.796875 
Q 21.53125 60.546875 25.921875 48.1875 
Q 29.6875 37.546875 29.6875 25.921875 
Q 29.6875 12.75 24.625 0.4375 
Q 19.578125 -11.859375 12.359375 -21.046875 
z
" id="ArialMT-41"/>
      </defs>
      <use xlink:href="#ArialMT-65"/>
      <use x="66.699219" xlink:href="#ArialMT-98"/>
      <use x="122.314453" xlink:href="#ArialMT-111"/>
      <use x="177.929688" xlink:href="#ArialMT-114"/>
      <use x="211.230469" xlink:href="#ArialMT-116"/>
      <use x="239.013672" xlink:href="#ArialMT-32"/>
      <use x="266.796875" xlink:href="#ArialMT-82"/>
      <use x="339.013672" xlink:href="#ArialMT-97"/>
      <use x="394.628906" xlink:href="#ArialMT-116"/>
      <use x="422.412109" xlink:href="#ArialMT-105"/>
      <use x="444.628906" xlink:href="#ArialMT-111"/>
      <use x="500.244141" xlink:href="#ArialMT-32"/>
      <use x="528.027344" xlink:href="#ArialMT-40"/>
      <use x="561.328125" xlink:href="#ArialMT-65"/>
      <use x="628.027344" xlink:href="#ArialMT-98"/>
      <use x="683.642578" xlink:href="#ArialMT-111"/>
      <use x="739.257812" xlink:href="#ArialMT-114"/>
      <use x="772.558594" xlink:href="#ArialMT-116"/>
      <use x="800.341797" xlink:href="#ArialMT-47"/>
      <use x="828.125" xlink:href="#ArialMT-84"/>
      <use x="878.083984" xlink:href="#ArialMT-111"/>
      <use x="933.699219" xlink:href="#ArialMT-116"/>
      <use x="961.482422" xlink:href="#ArialMT-97"/>
      <use x="1017.097656" xlink:href="#ArialMT-108"/>
      <use x="1039.314453" xlink:href="#ArialMT-41"/>
     </g>
    </g>
   </g>
   <g id="LineCollection_1">
    <path clip-path="url(#p535d7483be)" d="M 52.40278 132.722908 
L 52.40278 132.721816 
" style="fill:none;stroke:#e4b8b8;stroke-linecap:round;stroke-width:1.2;"/>
    <path clip-path="url(#p535d7483be)" d="M 69.167729 112.986875 
L 69.167729 112.841355 
" style="fill:none;stroke:#e4b8b8;stroke-linecap:round;stroke-width:1.2;"/>
    <path clip-path="url(#p535d7483be)" d="M 85.932679 91.99124 
L 85.932679 91.963605 
" style="fill:none;stroke:#e4b8b8;stroke-linecap:round;stroke-width:1.2;"/>
    <path clip-path="url(#p535d7483be)" d="M 125.050893 73.401087 
L 125.050893 73.21476 
" style="fill:none;stroke:#e4b8b8;stroke-linecap:round;stroke-width:1.2;"/>
    <path clip-path="url(#p535d7483be)" d="M 203.287323 41.447727 
L 203.287323 41.140582 
" style="fill:none;stroke:#e4b8b8;stroke-linecap:round;stroke-width:1.2;"/>
    <path clip-path="url(#p535d7483be)" d="M 359.760182 31.365756 
L 359.760182 31.3249 
" style="fill:none;stroke:#e4b8b8;stroke-linecap:round;stroke-width:1.2;"/>
   </g>
   <g id="LineCollection_2">
    <path clip-path="url(#p535d7483be)" d="M 52.40278 132.723997 
L 52.40278 132.688822 
" style="fill:none;stroke:#d79ea9;stroke-linecap:round;stroke-width:1.2;"/>
    <path clip-path="url(#p535d7483be)" d="M 69.167729 132.717634 
L 69.167729 132.707644 
" style="fill:none;stroke:#d79ea9;stroke-linecap:round;stroke-width:1.2;"/>
    <path clip-path="url(#p535d7483be)" d="M 85.932679 114.7322 
L 85.932679 114.652589 
" style="fill:none;stroke:#d79ea9;stroke-linecap:round;stroke-width:1.2;"/>
    <path clip-path="url(#p535d7483be)" d="M 125.050893 89.918863 
L 125.050893 89.78842 
" style="fill:none;stroke:#d79ea9;stroke-linecap:round;stroke-width:1.2;"/>
    <path clip-path="url(#p535d7483be)" d="M 203.287323 59.339887 
L 203.287323 58.434432 
" style="fill:none;stroke:#d79ea9;stroke-linecap:round;stroke-width:1.2;"/>
    <path clip-path="url(#p535d7483be)" d="M 359.760182 35.865263 
L 359.760182 35.771936 
" style="fill:none;stroke:#d79ea9;stroke-linecap:round;stroke-width:1.2;"/>
   </g>
   <g id="line2d_12">
    <path clip-path="url(#p535d7483be)" d="M 48.211543 132.724545 
L 49.608622 132.720125 
L 52.40278 132.718275 
L 57.991096 112.509535 
L 69.167729 87.936638 
L 85.932679 73.324498 
L 125.050893 41.387439 
L 203.287323 31.596521 
L 359.760182 28.575455 
" style="fill:none;stroke:#edd1cb;stroke-linecap:round;stroke-width:1.2;"/>
    <defs>
     <path d="M 0 2.4 
C 0.636487 2.4 1.246992 2.147121 1.697056 1.697056 
C 2.147121 1.246992 2.4 0.636487 2.4 0 
C 2.4 -0.636487 2.147121 -1.246992 1.697056 -1.697056 
C 1.246992 -2.147121 0.636487 -2.4 0 -2.4 
C -0.636487 -2.4 -1.246992 -2.147121 -1.697056 -1.697056 
C -2.147121 -1.246992 -2.4 -0.636487 -2.4 0 
C -2.4 0.636487 -2.147121 1.246992 -1.697056 1.697056 
C -1.246992 2.147121 -0.636487 2.4 0 2.4 
z
" id="mc358d09836" style="stroke:#ffffff;stroke-width:0.75;"/>
    </defs>
    <g clip-path="url(#p535d7483be)">
     <use style="fill:#edd1cb;stroke:#ffffff;stroke-width:0.75;" x="48.211543" xlink:href="#mc358d09836" y="132.724545"/>
     <use style="fill:#edd1cb;stroke:#ffffff;stroke-width:0.75;" x="49.608622" xlink:href="#mc358d09836" y="132.720125"/>
     <use style="fill:#edd1cb;stroke:#ffffff;stroke-width:0.75;" x="52.40278" xlink:href="#mc358d09836" y="132.718275"/>
     <use style="fill:#edd1cb;stroke:#ffffff;stroke-width:0.75;" x="57.991096" xlink:href="#mc358d09836" y="112.509535"/>
     <use style="fill:#edd1cb;stroke:#ffffff;stroke-width:0.75;" x="69.167729" xlink:href="#mc358d09836" y="87.936638"/>
     <use style="fill:#edd1cb;stroke:#ffffff;stroke-width:0.75;" x="85.932679" xlink:href="#mc358d09836" y="73.324498"/>
     <use style="fill:#edd1cb;stroke:#ffffff;stroke-width:0.75;" x="125.050893" xlink:href="#mc358d09836" y="41.387439"/>
     <use style="fill:#edd1cb;stroke:#ffffff;stroke-width:0.75;" x="203.287323" xlink:href="#mc358d09836" y="31.596521"/>
     <use style="fill:#edd1cb;stroke:#ffffff;stroke-width:0.75;" x="359.760182" xlink:href="#mc358d09836" y="28.575455"/>
    </g>
   </g>
   <g id="line2d_13">
    <path clip-path="url(#p535d7483be)" d="M 52.40278 132.722085 
L 69.167729 112.898641 
L 85.932679 91.987361 
L 125.050893 73.231911 
L 203.287323 41.316176 
L 359.760182 31.326539 
" style="fill:none;stroke:#e4b8b8;stroke-linecap:round;stroke-width:1.2;"/>
    <defs>
     <path d="M -2.4 2.4 
L 2.4 2.4 
L 2.4 -2.4 
L -2.4 -2.4 
z
" id="m8ab92c1643" style="stroke:#ffffff;stroke-linejoin:miter;stroke-width:0.75;"/>
    </defs>
    <g clip-path="url(#p535d7483be)">
     <use style="fill:#e4b8b8;stroke:#ffffff;stroke-linejoin:miter;stroke-width:0.75;" x="52.40278" xlink:href="#m8ab92c1643" y="132.722085"/>
     <use style="fill:#e4b8b8;stroke:#ffffff;stroke-linejoin:miter;stroke-width:0.75;" x="69.167729" xlink:href="#m8ab92c1643" y="112.898641"/>
     <use style="fill:#e4b8b8;stroke:#ffffff;stroke-linejoin:miter;stroke-width:0.75;" x="85.932679" xlink:href="#m8ab92c1643" y="91.987361"/>
     <use style="fill:#e4b8b8;stroke:#ffffff;stroke-linejoin:miter;stroke-width:0.75;" x="125.050893" xlink:href="#m8ab92c1643" y="73.231911"/>
     <use style="fill:#e4b8b8;stroke:#ffffff;stroke-linejoin:miter;stroke-width:0.75;" x="203.287323" xlink:href="#m8ab92c1643" y="41.316176"/>
     <use style="fill:#e4b8b8;stroke:#ffffff;stroke-linejoin:miter;stroke-width:0.75;" x="359.760182" xlink:href="#m8ab92c1643" y="31.326539"/>
    </g>
   </g>
   <g id="line2d_14">
    <path clip-path="url(#p535d7483be)" d="M 52.40278 132.722362 
L 69.167729 132.716237 
L 85.932679 114.659684 
L 125.050893 89.81002 
L 203.287323 58.721023 
L 359.760182 35.781806 
" style="fill:none;stroke:#d79ea9;stroke-linecap:round;stroke-width:1.2;"/>
    <defs>
     <path d="M 0 3.394113 
L 2.036468 0 
L 0 -3.394113 
L -2.036468 0 
z
" id="m843471973b" style="stroke:#ffffff;stroke-linejoin:miter;stroke-width:0.75;"/>
    </defs>
    <g clip-path="url(#p535d7483be)">
     <use style="fill:#d79ea9;stroke:#ffffff;stroke-linejoin:miter;stroke-width:0.75;" x="52.40278" xlink:href="#m843471973b" y="132.722362"/>
     <use style="fill:#d79ea9;stroke:#ffffff;stroke-linejoin:miter;stroke-width:0.75;" x="69.167729" xlink:href="#m843471973b" y="132.716237"/>
     <use style="fill:#d79ea9;stroke:#ffffff;stroke-linejoin:miter;stroke-width:0.75;" x="85.932679" xlink:href="#m843471973b" y="114.659684"/>
     <use style="fill:#d79ea9;stroke:#ffffff;stroke-linejoin:miter;stroke-width:0.75;" x="125.050893" xlink:href="#m843471973b" y="89.81002"/>
     <use style="fill:#d79ea9;stroke:#ffffff;stroke-linejoin:miter;stroke-width:0.75;" x="203.287323" xlink:href="#m843471973b" y="58.721023"/>
     <use style="fill:#d79ea9;stroke:#ffffff;stroke-linejoin:miter;stroke-width:0.75;" x="359.760182" xlink:href="#m843471973b" y="35.781806"/>
    </g>
   </g>
   <g id="line2d_15">
    <path clip-path="url(#p535d7483be)" d="M 52.40278 132.723999 
L 69.167729 132.721839 
L 85.932679 132.717875 
L 125.050893 114.111135 
L 203.287323 81.709819 
L 359.760182 44.764724 
" style="fill:none;stroke:#c6859d;stroke-linecap:round;stroke-width:1.2;"/>
    <defs>
     <path d="M 0 -2.4 
L -2.4 2.4 
L 2.4 2.4 
z
" id="m80a9b50026" style="stroke:#ffffff;stroke-linejoin:miter;stroke-width:0.75;"/>
    </defs>
    <g clip-path="url(#p535d7483be)">
     <use style="fill:#c6859d;stroke:#ffffff;stroke-linejoin:miter;stroke-width:0.75;" x="52.40278" xlink:href="#m80a9b50026" y="132.723999"/>
     <use style="fill:#c6859d;stroke:#ffffff;stroke-linejoin:miter;stroke-width:0.75;" x="69.167729" xlink:href="#m80a9b50026" y="132.721839"/>
     <use style="fill:#c6859d;stroke:#ffffff;stroke-linejoin:miter;stroke-width:0.75;" x="85.932679" xlink:href="#m80a9b50026" y="132.717875"/>
     <use style="fill:#c6859d;stroke:#ffffff;stroke-linejoin:miter;stroke-width:0.75;" x="125.050893" xlink:href="#m80a9b50026" y="114.111135"/>
     <use style="fill:#c6859d;stroke:#ffffff;stroke-linejoin:miter;stroke-width:0.75;" x="203.287323" xlink:href="#m80a9b50026" y="81.709819"/>
     <use style="fill:#c6859d;stroke:#ffffff;stroke-linejoin:miter;stroke-width:0.75;" x="359.760182" xlink:href="#m80a9b50026" y="44.764724"/>
    </g>
   </g>
   <g id="line2d_16">
    <path clip-path="url(#p535d7483be)" d="M 69.167729 132.72322 
L 85.932679 132.721095 
L 125.050893 132.717507 
L 203.287323 114.043282 
L 359.760182 75.652861 
" style="fill:none;stroke:#b16e92;stroke-linecap:round;stroke-width:1.2;"/>
    <defs>
     <path d="M 0 -2.4 
L -2.282536 -0.741641 
L -1.410685 1.941641 
L 1.410685 1.941641 
L 2.282536 -0.741641 
z
" id="m9218f1ae18" style="stroke:#ffffff;stroke-linejoin:miter;stroke-width:0.75;"/>
    </defs>
    <g clip-path="url(#p535d7483be)">
     <use style="fill:#b16e92;stroke:#ffffff;stroke-linejoin:miter;stroke-width:0.75;" x="69.167729" xlink:href="#m9218f1ae18" y="132.72322"/>
     <use style="fill:#b16e92;stroke:#ffffff;stroke-linejoin:miter;stroke-width:0.75;" x="85.932679" xlink:href="#m9218f1ae18" y="132.721095"/>
     <use style="fill:#b16e92;stroke:#ffffff;stroke-linejoin:miter;stroke-width:0.75;" x="125.050893" xlink:href="#m9218f1ae18" y="132.717507"/>
     <use style="fill:#b16e92;stroke:#ffffff;stroke-linejoin:miter;stroke-width:0.75;" x="203.287323" xlink:href="#m9218f1ae18" y="114.043282"/>
     <use style="fill:#b16e92;stroke:#ffffff;stroke-linejoin:miter;stroke-width:0.75;" x="359.760182" xlink:href="#m9218f1ae18" y="75.652861"/>
    </g>
   </g>
   <g id="line2d_17">
    <path clip-path="url(#p535d7483be)" d="M 69.167729 132.723512 
L 85.932679 132.722697 
L 125.050893 132.72113 
L 203.287323 132.718206 
L 359.760182 113.754318 
" style="fill:none;stroke:#985987;stroke-linecap:round;stroke-width:1.2;"/>
    <defs>
     <path d="M 0 2.4 
C 0.636487 2.4 1.246992 2.147121 1.697056 1.697056 
C 2.147121 1.246992 2.4 0.636487 2.4 0 
C 2.4 -0.636487 2.147121 -1.246992 1.697056 -1.697056 
C 1.246992 -2.147121 0.636487 -2.4 0 -2.4 
C -0.636487 -2.4 -1.246992 -2.147121 -1.697056 -1.697056 
C -2.147121 -1.246992 -2.4 -0.636487 -2.4 0 
C -2.4 0.636487 -2.147121 1.246992 -1.697056 1.697056 
C -1.246992 2.147121 -0.636487 2.4 0 2.4 
z
" id="m4dc2834ecd" style="stroke:#ffffff;stroke-width:0.75;"/>
    </defs>
    <g clip-path="url(#p535d7483be)">
     <use style="fill:#985987;stroke:#ffffff;stroke-width:0.75;" x="69.167729" xlink:href="#m4dc2834ecd" y="132.723512"/>
     <use style="fill:#985987;stroke:#ffffff;stroke-width:0.75;" x="85.932679" xlink:href="#m4dc2834ecd" y="132.722697"/>
     <use style="fill:#985987;stroke:#ffffff;stroke-width:0.75;" x="125.050893" xlink:href="#m4dc2834ecd" y="132.72113"/>
     <use style="fill:#985987;stroke:#ffffff;stroke-width:0.75;" x="203.287323" xlink:href="#m4dc2834ecd" y="132.718206"/>
     <use style="fill:#985987;stroke:#ffffff;stroke-width:0.75;" x="359.760182" xlink:href="#m4dc2834ecd" y="113.754318"/>
    </g>
   </g>
   <g id="line2d_18">
    <path clip-path="url(#p535d7483be)" d="M 85.932679 132.723644 
L 125.050893 132.723135 
L 203.287323 132.721078 
L 359.760182 132.717975 
" style="fill:none;stroke:#7b4779;stroke-linecap:round;stroke-width:1.2;"/>
    <defs>
     <path d="M -2.4 2.4 
L 2.4 2.4 
L 2.4 -2.4 
L -2.4 -2.4 
z
" id="m0d7c7cff53" style="stroke:#ffffff;stroke-linejoin:miter;stroke-width:0.75;"/>
    </defs>
    <g clip-path="url(#p535d7483be)">
     <use style="fill:#7b4779;stroke:#ffffff;stroke-linejoin:miter;stroke-width:0.75;" x="85.932679" xlink:href="#m0d7c7cff53" y="132.723644"/>
     <use style="fill:#7b4779;stroke:#ffffff;stroke-linejoin:miter;stroke-width:0.75;" x="125.050893" xlink:href="#m0d7c7cff53" y="132.723135"/>
     <use style="fill:#7b4779;stroke:#ffffff;stroke-linejoin:miter;stroke-width:0.75;" x="203.287323" xlink:href="#m0d7c7cff53" y="132.721078"/>
     <use style="fill:#7b4779;stroke:#ffffff;stroke-linejoin:miter;stroke-width:0.75;" x="359.760182" xlink:href="#m0d7c7cff53" y="132.717975"/>
    </g>
   </g>
   <g id="line2d_19">
    <path clip-path="url(#p535d7483be)" d="M 85.932679 132.724428 
L 125.050893 132.724015 
L 203.287323 132.724116 
L 281.523753 132.723648 
L 359.760182 132.723012 
" style="fill:none;stroke:#2d1e3e;stroke-linecap:round;stroke-width:1.2;"/>
    <defs>
     <path d="M 0 -2.4 
L -2.282536 -0.741641 
L -1.410685 1.941641 
L 1.410685 1.941641 
L 2.282536 -0.741641 
z
" id="mc59cecd44a" style="stroke:#ffffff;stroke-linejoin:miter;stroke-width:0.75;"/>
    </defs>
    <g clip-path="url(#p535d7483be)">
     <use style="fill:#2d1e3e;stroke:#ffffff;stroke-linejoin:miter;stroke-width:0.75;" x="85.932679" xlink:href="#mc59cecd44a" y="132.724428"/>
     <use style="fill:#2d1e3e;stroke:#ffffff;stroke-linejoin:miter;stroke-width:0.75;" x="125.050893" xlink:href="#mc59cecd44a" y="132.724015"/>
     <use style="fill:#2d1e3e;stroke:#ffffff;stroke-linejoin:miter;stroke-width:0.75;" x="203.287323" xlink:href="#mc59cecd44a" y="132.724116"/>
     <use style="fill:#2d1e3e;stroke:#ffffff;stroke-linejoin:miter;stroke-width:0.75;" x="281.523753" xlink:href="#mc59cecd44a" y="132.723648"/>
     <use style="fill:#2d1e3e;stroke:#ffffff;stroke-linejoin:miter;stroke-width:0.75;" x="359.760182" xlink:href="#mc59cecd44a" y="132.723012"/>
    </g>
   </g>
   <g id="line2d_20"/>
   <g id="line2d_21"/>
   <g id="line2d_22"/>
   <g id="line2d_23"/>
   <g id="line2d_24"/>
   <g id="line2d_25"/>
   <g id="line2d_26"/>
   <g id="line2d_27"/>
   <g id="line2d_28"/>
   <g id="line2d_29"/>
   <g id="patch_3">
    <path d="M 32.634111 137.932 
L 32.634111 23.368 
" style="fill:none;stroke:#cccccc;stroke-linecap:square;stroke-linejoin:miter;"/>
   </g>
   <g id="patch_4">
    <path d="M 375.337614 137.932 
L 375.337614 23.368 
" style="fill:none;stroke:#cccccc;stroke-linecap:square;stroke-linejoin:miter;"/>
   </g>
   <g id="patch_5">
    <path d="M 32.634111 137.932 
L 375.337614 137.932 
" style="fill:none;stroke:#cccccc;stroke-linecap:square;stroke-linejoin:miter;"/>
   </g>
   <g id="patch_6">
    <path d="M 32.634111 23.368 
L 375.337614 23.368 
" style="fill:none;stroke:#cccccc;stroke-linecap:square;stroke-linejoin:miter;"/>
   </g>
   <g id="text_14">
    <!-- CC = NO WAIT -->
    <g style="fill:#262626;" transform="translate(171.231113 17.368)scale(0.096 -0.096)">
     <defs>
      <path d="M 52.828125 42.09375 
L 5.5625 42.09375 
L 5.5625 50.296875 
L 52.828125 50.296875 
z
M 52.828125 20.359375 
L 5.5625 20.359375 
L 5.5625 28.5625 
L 52.828125 28.5625 
z
" id="ArialMT-61"/>
      <path d="M 4.828125 34.859375 
Q 4.828125 52.6875 14.390625 62.765625 
Q 23.96875 72.859375 39.109375 72.859375 
Q 49.03125 72.859375 56.984375 68.109375 
Q 64.9375 63.375 69.109375 54.90625 
Q 73.296875 46.4375 73.296875 35.6875 
Q 73.296875 24.8125 68.890625 16.21875 
Q 64.5 7.625 56.4375 3.203125 
Q 48.390625 -1.21875 39.0625 -1.21875 
Q 28.953125 -1.21875 20.984375 3.65625 
Q 13.03125 8.546875 8.921875 16.984375 
Q 4.828125 25.4375 4.828125 34.859375 
z
M 14.59375 34.71875 
Q 14.59375 21.78125 21.546875 14.328125 
Q 28.515625 6.890625 39.015625 6.890625 
Q 49.703125 6.890625 56.609375 14.40625 
Q 63.53125 21.921875 63.53125 35.75 
Q 63.53125 44.484375 60.578125 51 
Q 57.625 57.515625 51.921875 61.109375 
Q 46.234375 64.703125 39.15625 64.703125 
Q 29.109375 64.703125 21.84375 57.78125 
Q 14.59375 50.875 14.59375 34.71875 
z
" id="ArialMT-79"/>
      <path d="M 20.21875 0 
L 1.21875 71.578125 
L 10.9375 71.578125 
L 21.828125 24.65625 
Q 23.578125 17.28125 24.859375 10.015625 
Q 27.59375 21.484375 28.078125 23.25 
L 41.703125 71.578125 
L 53.125 71.578125 
L 63.375 35.359375 
Q 67.234375 21.875 68.953125 10.015625 
Q 70.3125 16.796875 72.515625 25.59375 
L 83.734375 71.578125 
L 93.265625 71.578125 
L 73.640625 0 
L 64.5 0 
L 49.421875 54.546875 
Q 47.515625 61.375 47.171875 62.9375 
Q 46.046875 58.015625 45.0625 54.546875 
L 29.890625 0 
z
" id="ArialMT-87"/>
      <path d="M 9.328125 0 
L 9.328125 71.578125 
L 18.796875 71.578125 
L 18.796875 0 
z
" id="ArialMT-73"/>
     </defs>
     <use xlink:href="#ArialMT-67"/>
     <use x="72.216797" xlink:href="#ArialMT-67"/>
     <use x="144.433594" xlink:href="#ArialMT-32"/>
     <use x="172.216797" xlink:href="#ArialMT-61"/>
     <use x="230.615234" xlink:href="#ArialMT-32"/>
     <use x="258.398438" xlink:href="#ArialMT-78"/>
     <use x="330.615234" xlink:href="#ArialMT-79"/>
     <use x="408.398438" xlink:href="#ArialMT-32"/>
     <use x="436.181641" xlink:href="#ArialMT-87"/>
     <use x="526.816406" xlink:href="#ArialMT-65"/>
     <use x="593.515625" xlink:href="#ArialMT-73"/>
     <use x="621.298828" xlink:href="#ArialMT-84"/>
    </g>
   </g>
  </g>
  <g id="axes_2">
   <g id="patch_7">
    <path d="M 385.677179 137.932 
L 728.380682 137.932 
L 728.380682 23.368 
L 385.677179 23.368 
z
" style="fill:#ffffff;"/>
   </g>
   <g id="matplotlib.axis_3">
    <g id="xtick_6">
     <g id="line2d_30">
      <path clip-path="url(#p9d8c39e513)" d="M 399.857532 137.932 
L 399.857532 23.368 
" style="fill:none;stroke:#cccccc;stroke-linecap:round;stroke-width:0.8;"/>
     </g>
     <g id="text_15">
      <!-- 0 -->
      <g style="fill:#262626;" transform="translate(397.410719 146.030875)scale(0.088 -0.088)">
       <use xlink:href="#ArialMT-48"/>
      </g>
     </g>
    </g>
    <g id="xtick_7">
     <g id="line2d_31">
      <path clip-path="url(#p9d8c39e513)" d="M 469.711487 137.932 
L 469.711487 23.368 
" style="fill:none;stroke:#cccccc;stroke-linecap:round;stroke-width:0.8;"/>
     </g>
     <g id="text_16">
      <!-- 50 -->
      <g style="fill:#262626;" transform="translate(464.817862 146.030875)scale(0.088 -0.088)">
       <use xlink:href="#ArialMT-53"/>
       <use x="55.615234" xlink:href="#ArialMT-48"/>
      </g>
     </g>
    </g>
    <g id="xtick_8">
     <g id="line2d_32">
      <path clip-path="url(#p9d8c39e513)" d="M 539.565442 137.932 
L 539.565442 23.368 
" style="fill:none;stroke:#cccccc;stroke-linecap:round;stroke-width:0.8;"/>
     </g>
     <g id="text_17">
      <!-- 100 -->
      <g style="fill:#262626;" transform="translate(532.225004 146.030875)scale(0.088 -0.088)">
       <use xlink:href="#ArialMT-49"/>
       <use x="55.615234" xlink:href="#ArialMT-48"/>
       <use x="111.230469" xlink:href="#ArialMT-48"/>
      </g>
     </g>
    </g>
    <g id="xtick_9">
     <g id="line2d_33">
      <path clip-path="url(#p9d8c39e513)" d="M 609.419397 137.932 
L 609.419397 23.368 
" style="fill:none;stroke:#cccccc;stroke-linecap:round;stroke-width:0.8;"/>
     </g>
     <g id="text_18">
      <!-- 150 -->
      <g style="fill:#262626;" transform="translate(602.078959 146.030875)scale(0.088 -0.088)">
       <use xlink:href="#ArialMT-49"/>
       <use x="55.615234" xlink:href="#ArialMT-53"/>
       <use x="111.230469" xlink:href="#ArialMT-48"/>
      </g>
     </g>
    </g>
    <g id="xtick_10">
     <g id="line2d_34">
      <path clip-path="url(#p9d8c39e513)" d="M 679.273352 137.932 
L 679.273352 23.368 
" style="fill:none;stroke:#cccccc;stroke-linecap:round;stroke-width:0.8;"/>
     </g>
     <g id="text_19">
      <!-- 200 -->
      <g style="fill:#262626;" transform="translate(671.932914 146.030875)scale(0.088 -0.088)">
       <use xlink:href="#ArialMT-50"/>
       <use x="55.615234" xlink:href="#ArialMT-48"/>
       <use x="111.230469" xlink:href="#ArialMT-48"/>
      </g>
     </g>
    </g>
    <g id="text_20">
     <!-- Number of Cores -->
     <g style="fill:#262626;" transform="translate(520.48518 158.651375)scale(0.096 -0.096)">
      <use xlink:href="#ArialMT-78"/>
      <use x="72.216797" xlink:href="#ArialMT-117"/>
      <use x="127.832031" xlink:href="#ArialMT-109"/>
      <use x="211.132812" xlink:href="#ArialMT-98"/>
      <use x="266.748047" xlink:href="#ArialMT-101"/>
      <use x="322.363281" xlink:href="#ArialMT-114"/>
      <use x="355.664062" xlink:href="#ArialMT-32"/>
      <use x="383.447266" xlink:href="#ArialMT-111"/>
      <use x="439.0625" xlink:href="#ArialMT-102"/>
      <use x="466.845703" xlink:href="#ArialMT-32"/>
      <use x="494.628906" xlink:href="#ArialMT-67"/>
      <use x="566.845703" xlink:href="#ArialMT-111"/>
      <use x="622.460938" xlink:href="#ArialMT-114"/>
      <use x="655.761719" xlink:href="#ArialMT-101"/>
      <use x="711.376953" xlink:href="#ArialMT-115"/>
     </g>
    </g>
   </g>
   <g id="matplotlib.axis_4">
    <g id="ytick_7">
     <g id="line2d_35">
      <path clip-path="url(#p9d8c39e513)" d="M 385.677179 132.724545 
L 728.380682 132.724545 
" style="fill:none;stroke:#cccccc;stroke-linecap:round;stroke-width:0.8;"/>
     </g>
    </g>
    <g id="ytick_8">
     <g id="line2d_36">
      <path clip-path="url(#p9d8c39e513)" d="M 385.677179 111.203101 
L 728.380682 111.203101 
" style="fill:none;stroke:#cccccc;stroke-linecap:round;stroke-width:0.8;"/>
     </g>
    </g>
    <g id="ytick_9">
     <g id="line2d_37">
      <path clip-path="url(#p9d8c39e513)" d="M 385.677179 89.681657 
L 728.380682 89.681657 
" style="fill:none;stroke:#cccccc;stroke-linecap:round;stroke-width:0.8;"/>
     </g>
    </g>
    <g id="ytick_10">
     <g id="line2d_38">
      <path clip-path="url(#p9d8c39e513)" d="M 385.677179 68.160212 
L 728.380682 68.160212 
" style="fill:none;stroke:#cccccc;stroke-linecap:round;stroke-width:0.8;"/>
     </g>
    </g>
    <g id="ytick_11">
     <g id="line2d_39">
      <path clip-path="url(#p9d8c39e513)" d="M 385.677179 46.638768 
L 728.380682 46.638768 
" style="fill:none;stroke:#cccccc;stroke-linecap:round;stroke-width:0.8;"/>
     </g>
    </g>
    <g id="ytick_12">
     <g id="line2d_40">
      <path clip-path="url(#p9d8c39e513)" d="M 385.677179 25.117324 
L 728.380682 25.117324 
" style="fill:none;stroke:#cccccc;stroke-linecap:round;stroke-width:0.8;"/>
     </g>
    </g>
   </g>
   <g id="LineCollection_3">
    <path clip-path="url(#p9d8c39e513)" d="M 405.445848 132.541695 
L 405.445848 132.529226 
" style="fill:none;stroke:#e4b8b8;stroke-linecap:round;stroke-width:1.2;"/>
    <path clip-path="url(#p9d8c39e513)" d="M 422.210797 132.724139 
L 422.210797 132.723595 
" style="fill:none;stroke:#e4b8b8;stroke-linecap:round;stroke-width:1.2;"/>
    <path clip-path="url(#p9d8c39e513)" d="M 438.975746 132.724545 
L 438.975746 132.724461 
" style="fill:none;stroke:#e4b8b8;stroke-linecap:round;stroke-width:1.2;"/>
    <path clip-path="url(#p9d8c39e513)" d="M 478.093961 132.724526 
L 478.093961 132.724526 
" style="fill:none;stroke:#e4b8b8;stroke-linecap:round;stroke-width:1.2;"/>
    <path clip-path="url(#p9d8c39e513)" d="M 556.330391 132.724545 
L 556.330391 132.724526 
" style="fill:none;stroke:#e4b8b8;stroke-linecap:round;stroke-width:1.2;"/>
    <path clip-path="url(#p9d8c39e513)" d="M 712.80325 132.724545 
L 712.80325 132.724545 
" style="fill:none;stroke:#e4b8b8;stroke-linecap:round;stroke-width:1.2;"/>
   </g>
   <g id="LineCollection_4">
    <path clip-path="url(#p9d8c39e513)" d="M 405.445848 132.64617 
L 405.445848 132.634012 
" style="fill:none;stroke:#d79ea9;stroke-linecap:round;stroke-width:1.2;"/>
    <path clip-path="url(#p9d8c39e513)" d="M 422.210797 132.390187 
L 422.210797 132.377656 
" style="fill:none;stroke:#d79ea9;stroke-linecap:round;stroke-width:1.2;"/>
    <path clip-path="url(#p9d8c39e513)" d="M 438.975746 132.641225 
L 438.975746 132.635803 
" style="fill:none;stroke:#d79ea9;stroke-linecap:round;stroke-width:1.2;"/>
    <path clip-path="url(#p9d8c39e513)" d="M 478.093961 132.724545 
L 478.093961 132.724482 
" style="fill:none;stroke:#d79ea9;stroke-linecap:round;stroke-width:1.2;"/>
    <path clip-path="url(#p9d8c39e513)" d="M 556.330391 132.724536 
L 556.330391 132.724516 
" style="fill:none;stroke:#d79ea9;stroke-linecap:round;stroke-width:1.2;"/>
    <path clip-path="url(#p9d8c39e513)" d="M 712.80325 132.724545 
L 712.80325 132.724541 
" style="fill:none;stroke:#d79ea9;stroke-linecap:round;stroke-width:1.2;"/>
   </g>
   <g id="line2d_41">
    <path clip-path="url(#p9d8c39e513)" d="M 401.254611 132.724545 
L 402.65169 132.571095 
L 405.445848 132.295111 
L 411.034164 132.721154 
L 422.210797 132.724207 
L 438.975746 132.724391 
L 478.093961 132.724391 
L 556.330391 132.724545 
L 712.80325 132.724545 
" style="fill:none;stroke:#edd1cb;stroke-linecap:round;stroke-width:1.2;"/>
    <g clip-path="url(#p9d8c39e513)">
     <use style="fill:#edd1cb;stroke:#ffffff;stroke-width:0.75;" x="401.254611" xlink:href="#mc358d09836" y="132.724545"/>
     <use style="fill:#edd1cb;stroke:#ffffff;stroke-width:0.75;" x="402.65169" xlink:href="#mc358d09836" y="132.571095"/>
     <use style="fill:#edd1cb;stroke:#ffffff;stroke-width:0.75;" x="405.445848" xlink:href="#mc358d09836" y="132.295111"/>
     <use style="fill:#edd1cb;stroke:#ffffff;stroke-width:0.75;" x="411.034164" xlink:href="#mc358d09836" y="132.721154"/>
     <use style="fill:#edd1cb;stroke:#ffffff;stroke-width:0.75;" x="422.210797" xlink:href="#mc358d09836" y="132.724207"/>
     <use style="fill:#edd1cb;stroke:#ffffff;stroke-width:0.75;" x="438.975746" xlink:href="#mc358d09836" y="132.724391"/>
     <use style="fill:#edd1cb;stroke:#ffffff;stroke-width:0.75;" x="478.093961" xlink:href="#mc358d09836" y="132.724391"/>
     <use style="fill:#edd1cb;stroke:#ffffff;stroke-width:0.75;" x="556.330391" xlink:href="#mc358d09836" y="132.724545"/>
     <use style="fill:#edd1cb;stroke:#ffffff;stroke-width:0.75;" x="712.80325" xlink:href="#mc358d09836" y="132.724545"/>
    </g>
   </g>
   <g id="line2d_42">
    <path clip-path="url(#p9d8c39e513)" d="M 405.445848 132.536958 
L 422.210797 132.724002 
L 438.975746 132.724545 
L 478.093961 132.724526 
L 556.330391 132.724536 
L 712.80325 132.724545 
" style="fill:none;stroke:#e4b8b8;stroke-linecap:round;stroke-width:1.2;"/>
    <g clip-path="url(#p9d8c39e513)">
     <use style="fill:#e4b8b8;stroke:#ffffff;stroke-linejoin:miter;stroke-width:0.75;" x="405.445848" xlink:href="#m8ab92c1643" y="132.536958"/>
     <use style="fill:#e4b8b8;stroke:#ffffff;stroke-linejoin:miter;stroke-width:0.75;" x="422.210797" xlink:href="#m8ab92c1643" y="132.724002"/>
     <use style="fill:#e4b8b8;stroke:#ffffff;stroke-linejoin:miter;stroke-width:0.75;" x="438.975746" xlink:href="#m8ab92c1643" y="132.724545"/>
     <use style="fill:#e4b8b8;stroke:#ffffff;stroke-linejoin:miter;stroke-width:0.75;" x="478.093961" xlink:href="#m8ab92c1643" y="132.724526"/>
     <use style="fill:#e4b8b8;stroke:#ffffff;stroke-linejoin:miter;stroke-width:0.75;" x="556.330391" xlink:href="#m8ab92c1643" y="132.724536"/>
     <use style="fill:#e4b8b8;stroke:#ffffff;stroke-linejoin:miter;stroke-width:0.75;" x="712.80325" xlink:href="#m8ab92c1643" y="132.724545"/>
    </g>
   </g>
   <g id="line2d_43">
    <path clip-path="url(#p9d8c39e513)" d="M 405.445848 132.635685 
L 422.210797 132.385316 
L 438.975746 132.636703 
L 478.093961 132.724524 
L 556.330391 132.724536 
L 712.80325 132.724545 
" style="fill:none;stroke:#d79ea9;stroke-linecap:round;stroke-width:1.2;"/>
    <g clip-path="url(#p9d8c39e513)">
     <use style="fill:#d79ea9;stroke:#ffffff;stroke-linejoin:miter;stroke-width:0.75;" x="405.445848" xlink:href="#m843471973b" y="132.635685"/>
     <use style="fill:#d79ea9;stroke:#ffffff;stroke-linejoin:miter;stroke-width:0.75;" x="422.210797" xlink:href="#m843471973b" y="132.385316"/>
     <use style="fill:#d79ea9;stroke:#ffffff;stroke-linejoin:miter;stroke-width:0.75;" x="438.975746" xlink:href="#m843471973b" y="132.636703"/>
     <use style="fill:#d79ea9;stroke:#ffffff;stroke-linejoin:miter;stroke-width:0.75;" x="478.093961" xlink:href="#m843471973b" y="132.724524"/>
     <use style="fill:#d79ea9;stroke:#ffffff;stroke-linejoin:miter;stroke-width:0.75;" x="556.330391" xlink:href="#m843471973b" y="132.724536"/>
     <use style="fill:#d79ea9;stroke:#ffffff;stroke-linejoin:miter;stroke-width:0.75;" x="712.80325" xlink:href="#m843471973b" y="132.724545"/>
    </g>
   </g>
   <g id="line2d_44">
    <path clip-path="url(#p9d8c39e513)" d="M 405.445848 132.678578 
L 422.210797 132.530911 
L 438.975746 132.424775 
L 478.093961 132.645659 
L 556.330391 132.724523 
L 712.80325 132.724531 
" style="fill:none;stroke:#c6859d;stroke-linecap:round;stroke-width:1.2;"/>
    <g clip-path="url(#p9d8c39e513)">
     <use style="fill:#c6859d;stroke:#ffffff;stroke-linejoin:miter;stroke-width:0.75;" x="405.445848" xlink:href="#m80a9b50026" y="132.678578"/>
     <use style="fill:#c6859d;stroke:#ffffff;stroke-linejoin:miter;stroke-width:0.75;" x="422.210797" xlink:href="#m80a9b50026" y="132.530911"/>
     <use style="fill:#c6859d;stroke:#ffffff;stroke-linejoin:miter;stroke-width:0.75;" x="438.975746" xlink:href="#m80a9b50026" y="132.424775"/>
     <use style="fill:#c6859d;stroke:#ffffff;stroke-linejoin:miter;stroke-width:0.75;" x="478.093961" xlink:href="#m80a9b50026" y="132.645659"/>
     <use style="fill:#c6859d;stroke:#ffffff;stroke-linejoin:miter;stroke-width:0.75;" x="556.330391" xlink:href="#m80a9b50026" y="132.724523"/>
     <use style="fill:#c6859d;stroke:#ffffff;stroke-linejoin:miter;stroke-width:0.75;" x="712.80325" xlink:href="#m80a9b50026" y="132.724531"/>
    </g>
   </g>
   <g id="line2d_45">
    <path clip-path="url(#p9d8c39e513)" d="M 422.210797 132.629481 
L 438.975746 132.560184 
L 478.093961 132.448919 
L 556.330391 132.579796 
L 712.80325 132.724501 
" style="fill:none;stroke:#b16e92;stroke-linecap:round;stroke-width:1.2;"/>
    <g clip-path="url(#p9d8c39e513)">
     <use style="fill:#b16e92;stroke:#ffffff;stroke-linejoin:miter;stroke-width:0.75;" x="422.210797" xlink:href="#m9218f1ae18" y="132.629481"/>
     <use style="fill:#b16e92;stroke:#ffffff;stroke-linejoin:miter;stroke-width:0.75;" x="438.975746" xlink:href="#m9218f1ae18" y="132.560184"/>
     <use style="fill:#b16e92;stroke:#ffffff;stroke-linejoin:miter;stroke-width:0.75;" x="478.093961" xlink:href="#m9218f1ae18" y="132.448919"/>
     <use style="fill:#b16e92;stroke:#ffffff;stroke-linejoin:miter;stroke-width:0.75;" x="556.330391" xlink:href="#m9218f1ae18" y="132.579796"/>
     <use style="fill:#b16e92;stroke:#ffffff;stroke-linejoin:miter;stroke-width:0.75;" x="712.80325" xlink:href="#m9218f1ae18" y="132.724501"/>
    </g>
   </g>
   <g id="line2d_46">
    <path clip-path="url(#p9d8c39e513)" d="M 422.210797 132.671415 
L 438.975746 132.630548 
L 478.093961 132.563544 
L 556.330391 132.351774 
L 712.80325 132.565971 
" style="fill:none;stroke:#985987;stroke-linecap:round;stroke-width:1.2;"/>
    <g clip-path="url(#p9d8c39e513)">
     <use style="fill:#985987;stroke:#ffffff;stroke-width:0.75;" x="422.210797" xlink:href="#m4dc2834ecd" y="132.671415"/>
     <use style="fill:#985987;stroke:#ffffff;stroke-width:0.75;" x="438.975746" xlink:href="#m4dc2834ecd" y="132.630548"/>
     <use style="fill:#985987;stroke:#ffffff;stroke-width:0.75;" x="478.093961" xlink:href="#m4dc2834ecd" y="132.563544"/>
     <use style="fill:#985987;stroke:#ffffff;stroke-width:0.75;" x="556.330391" xlink:href="#m4dc2834ecd" y="132.351774"/>
     <use style="fill:#985987;stroke:#ffffff;stroke-width:0.75;" x="712.80325" xlink:href="#m4dc2834ecd" y="132.565971"/>
    </g>
   </g>
   <g id="line2d_47">
    <path clip-path="url(#p9d8c39e513)" d="M 438.975746 132.681677 
L 478.093961 132.640917 
L 556.330391 132.533796 
L 712.80325 132.346828 
" style="fill:none;stroke:#7b4779;stroke-linecap:round;stroke-width:1.2;"/>
    <g clip-path="url(#p9d8c39e513)">
     <use style="fill:#7b4779;stroke:#ffffff;stroke-linejoin:miter;stroke-width:0.75;" x="438.975746" xlink:href="#m0d7c7cff53" y="132.681677"/>
     <use style="fill:#7b4779;stroke:#ffffff;stroke-linejoin:miter;stroke-width:0.75;" x="478.093961" xlink:href="#m0d7c7cff53" y="132.640917"/>
     <use style="fill:#7b4779;stroke:#ffffff;stroke-linejoin:miter;stroke-width:0.75;" x="556.330391" xlink:href="#m0d7c7cff53" y="132.533796"/>
     <use style="fill:#7b4779;stroke:#ffffff;stroke-linejoin:miter;stroke-width:0.75;" x="712.80325" xlink:href="#m0d7c7cff53" y="132.346828"/>
    </g>
   </g>
   <g id="line2d_48">
    <path clip-path="url(#p9d8c39e513)" d="M 438.975746 132.715976 
L 478.093961 132.701654 
L 556.330391 132.681047 
L 634.566821 132.663491 
L 712.80325 132.64904 
" style="fill:none;stroke:#2d1e3e;stroke-linecap:round;stroke-width:1.2;"/>
    <g clip-path="url(#p9d8c39e513)">
     <use style="fill:#2d1e3e;stroke:#ffffff;stroke-linejoin:miter;stroke-width:0.75;" x="438.975746" xlink:href="#mc59cecd44a" y="132.715976"/>
     <use style="fill:#2d1e3e;stroke:#ffffff;stroke-linejoin:miter;stroke-width:0.75;" x="478.093961" xlink:href="#mc59cecd44a" y="132.701654"/>
     <use style="fill:#2d1e3e;stroke:#ffffff;stroke-linejoin:miter;stroke-width:0.75;" x="556.330391" xlink:href="#mc59cecd44a" y="132.681047"/>
     <use style="fill:#2d1e3e;stroke:#ffffff;stroke-linejoin:miter;stroke-width:0.75;" x="634.566821" xlink:href="#mc59cecd44a" y="132.663491"/>
     <use style="fill:#2d1e3e;stroke:#ffffff;stroke-linejoin:miter;stroke-width:0.75;" x="712.80325" xlink:href="#mc59cecd44a" y="132.64904"/>
    </g>
   </g>
   <g id="line2d_49"/>
   <g id="line2d_50"/>
   <g id="patch_8">
    <path d="M 385.677179 137.932 
L 385.677179 23.368 
" style="fill:none;stroke:#cccccc;stroke-linecap:square;stroke-linejoin:miter;"/>
   </g>
   <g id="patch_9">
    <path d="M 728.380682 137.932 
L 728.380682 23.368 
" style="fill:none;stroke:#cccccc;stroke-linecap:square;stroke-linejoin:miter;"/>
   </g>
   <g id="patch_10">
    <path d="M 385.677179 137.932 
L 728.380682 137.932 
" style="fill:none;stroke:#cccccc;stroke-linecap:square;stroke-linejoin:miter;"/>
   </g>
   <g id="patch_11">
    <path d="M 385.677179 23.368 
L 728.380682 23.368 
" style="fill:none;stroke:#cccccc;stroke-linecap:square;stroke-linejoin:miter;"/>
   </g>
   <g id="text_21">
    <!-- CC = HSTORE -->
    <g style="fill:#262626;" transform="translate(524.70768 17.368)scale(0.096 -0.096)">
     <defs>
      <path d="M 8.015625 0 
L 8.015625 71.578125 
L 17.484375 71.578125 
L 17.484375 42.1875 
L 54.6875 42.1875 
L 54.6875 71.578125 
L 64.15625 71.578125 
L 64.15625 0 
L 54.6875 0 
L 54.6875 33.734375 
L 17.484375 33.734375 
L 17.484375 0 
z
" id="ArialMT-72"/>
      <path d="M 4.5 23 
L 13.421875 23.78125 
Q 14.0625 18.40625 16.375 14.96875 
Q 18.703125 11.53125 23.578125 9.40625 
Q 28.46875 7.28125 34.578125 7.28125 
Q 39.984375 7.28125 44.140625 8.890625 
Q 48.296875 10.5 50.3125 13.296875 
Q 52.34375 16.109375 52.34375 19.4375 
Q 52.34375 22.796875 50.390625 25.3125 
Q 48.4375 27.828125 43.953125 29.546875 
Q 41.0625 30.671875 31.203125 33.03125 
Q 21.34375 35.40625 17.390625 37.5 
Q 12.25 40.1875 9.734375 44.15625 
Q 7.234375 48.140625 7.234375 53.078125 
Q 7.234375 58.5 10.296875 63.203125 
Q 13.375 67.921875 19.28125 70.359375 
Q 25.203125 72.796875 32.421875 72.796875 
Q 40.375 72.796875 46.453125 70.234375 
Q 52.546875 67.671875 55.8125 62.6875 
Q 59.078125 57.71875 59.328125 51.421875 
L 50.25 50.734375 
Q 49.515625 57.515625 45.28125 60.984375 
Q 41.0625 64.453125 32.8125 64.453125 
Q 24.21875 64.453125 20.28125 61.296875 
Q 16.359375 58.15625 16.359375 53.71875 
Q 16.359375 49.859375 19.140625 47.359375 
Q 21.875 44.875 33.421875 42.265625 
Q 44.96875 39.65625 49.265625 37.703125 
Q 55.515625 34.8125 58.484375 30.390625 
Q 61.46875 25.984375 61.46875 20.21875 
Q 61.46875 14.5 58.203125 9.4375 
Q 54.9375 4.390625 48.796875 1.578125 
Q 42.671875 -1.21875 35.015625 -1.21875 
Q 25.296875 -1.21875 18.71875 1.609375 
Q 12.15625 4.4375 8.421875 10.125 
Q 4.6875 15.828125 4.5 23 
z
" id="ArialMT-83"/>
      <path d="M 7.90625 0 
L 7.90625 71.578125 
L 59.671875 71.578125 
L 59.671875 63.140625 
L 17.390625 63.140625 
L 17.390625 41.21875 
L 56.984375 41.21875 
L 56.984375 32.8125 
L 17.390625 32.8125 
L 17.390625 8.453125 
L 61.328125 8.453125 
L 61.328125 0 
z
" id="ArialMT-69"/>
     </defs>
     <use xlink:href="#ArialMT-67"/>
     <use x="72.216797" xlink:href="#ArialMT-67"/>
     <use x="144.433594" xlink:href="#ArialMT-32"/>
     <use x="172.216797" xlink:href="#ArialMT-61"/>
     <use x="230.615234" xlink:href="#ArialMT-32"/>
     <use x="258.398438" xlink:href="#ArialMT-72"/>
     <use x="330.615234" xlink:href="#ArialMT-83"/>
     <use x="397.314453" xlink:href="#ArialMT-84"/>
     <use x="456.648438" xlink:href="#ArialMT-79"/>
     <use x="534.431641" xlink:href="#ArialMT-82"/>
     <use x="606.648438" xlink:href="#ArialMT-69"/>
    </g>
   </g>
  </g>
  <g id="axes_3">
   <g id="patch_12">
    <path d="M 738.720246 137.932 
L 1081.42375 137.932 
L 1081.42375 23.368 
L 738.720246 23.368 
z
" style="fill:#ffffff;"/>
   </g>
   <g id="matplotlib.axis_5">
    <g id="xtick_11">
     <g id="line2d_51">
      <path clip-path="url(#p23d66eb801)" d="M 752.900599 137.932 
L 752.900599 23.368 
" style="fill:none;stroke:#cccccc;stroke-linecap:round;stroke-width:0.8;"/>
     </g>
     <g id="text_22">
      <!-- 0 -->
      <g style="fill:#262626;" transform="translate(750.453787 146.030875)scale(0.088 -0.088)">
       <use xlink:href="#ArialMT-48"/>
      </g>
     </g>
    </g>
    <g id="xtick_12">
     <g id="line2d_52">
      <path clip-path="url(#p23d66eb801)" d="M 822.754554 137.932 
L 822.754554 23.368 
" style="fill:none;stroke:#cccccc;stroke-linecap:round;stroke-width:0.8;"/>
     </g>
     <g id="text_23">
      <!-- 50 -->
      <g style="fill:#262626;" transform="translate(817.860929 146.030875)scale(0.088 -0.088)">
       <use xlink:href="#ArialMT-53"/>
       <use x="55.615234" xlink:href="#ArialMT-48"/>
      </g>
     </g>
    </g>
    <g id="xtick_13">
     <g id="line2d_53">
      <path clip-path="url(#p23d66eb801)" d="M 892.608509 137.932 
L 892.608509 23.368 
" style="fill:none;stroke:#cccccc;stroke-linecap:round;stroke-width:0.8;"/>
     </g>
     <g id="text_24">
      <!-- 100 -->
      <g style="fill:#262626;" transform="translate(885.268072 146.030875)scale(0.088 -0.088)">
       <use xlink:href="#ArialMT-49"/>
       <use x="55.615234" xlink:href="#ArialMT-48"/>
       <use x="111.230469" xlink:href="#ArialMT-48"/>
      </g>
     </g>
    </g>
    <g id="xtick_14">
     <g id="line2d_54">
      <path clip-path="url(#p23d66eb801)" d="M 962.462465 137.932 
L 962.462465 23.368 
" style="fill:none;stroke:#cccccc;stroke-linecap:round;stroke-width:0.8;"/>
     </g>
     <g id="text_25">
      <!-- 150 -->
      <g style="fill:#262626;" transform="translate(955.122027 146.030875)scale(0.088 -0.088)">
       <use xlink:href="#ArialMT-49"/>
       <use x="55.615234" xlink:href="#ArialMT-53"/>
       <use x="111.230469" xlink:href="#ArialMT-48"/>
      </g>
     </g>
    </g>
    <g id="xtick_15">
     <g id="line2d_55">
      <path clip-path="url(#p23d66eb801)" d="M 1032.31642 137.932 
L 1032.31642 23.368 
" style="fill:none;stroke:#cccccc;stroke-linecap:round;stroke-width:0.8;"/>
     </g>
     <g id="text_26">
      <!-- 200 -->
      <g style="fill:#262626;" transform="translate(1024.975982 146.030875)scale(0.088 -0.088)">
       <use xlink:href="#ArialMT-50"/>
       <use x="55.615234" xlink:href="#ArialMT-48"/>
       <use x="111.230469" xlink:href="#ArialMT-48"/>
      </g>
     </g>
    </g>
    <g id="text_27">
     <!-- Number of Cores -->
     <g style="fill:#262626;" transform="translate(873.528248 158.651375)scale(0.096 -0.096)">
      <use xlink:href="#ArialMT-78"/>
      <use x="72.216797" xlink:href="#ArialMT-117"/>
      <use x="127.832031" xlink:href="#ArialMT-109"/>
      <use x="211.132812" xlink:href="#ArialMT-98"/>
      <use x="266.748047" xlink:href="#ArialMT-101"/>
      <use x="322.363281" xlink:href="#ArialMT-114"/>
      <use x="355.664062" xlink:href="#ArialMT-32"/>
      <use x="383.447266" xlink:href="#ArialMT-111"/>
      <use x="439.0625" xlink:href="#ArialMT-102"/>
      <use x="466.845703" xlink:href="#ArialMT-32"/>
      <use x="494.628906" xlink:href="#ArialMT-67"/>
      <use x="566.845703" xlink:href="#ArialMT-111"/>
      <use x="622.460938" xlink:href="#ArialMT-114"/>
      <use x="655.761719" xlink:href="#ArialMT-101"/>
      <use x="711.376953" xlink:href="#ArialMT-115"/>
     </g>
    </g>
   </g>
   <g id="matplotlib.axis_6">
    <g id="ytick_13">
     <g id="line2d_56">
      <path clip-path="url(#p23d66eb801)" d="M 738.720246 132.724545 
L 1081.42375 132.724545 
" style="fill:none;stroke:#cccccc;stroke-linecap:round;stroke-width:0.8;"/>
     </g>
    </g>
    <g id="ytick_14">
     <g id="line2d_57">
      <path clip-path="url(#p23d66eb801)" d="M 738.720246 111.203101 
L 1081.42375 111.203101 
" style="fill:none;stroke:#cccccc;stroke-linecap:round;stroke-width:0.8;"/>
     </g>
    </g>
    <g id="ytick_15">
     <g id="line2d_58">
      <path clip-path="url(#p23d66eb801)" d="M 738.720246 89.681657 
L 1081.42375 89.681657 
" style="fill:none;stroke:#cccccc;stroke-linecap:round;stroke-width:0.8;"/>
     </g>
    </g>
    <g id="ytick_16">
     <g id="line2d_59">
      <path clip-path="url(#p23d66eb801)" d="M 738.720246 68.160212 
L 1081.42375 68.160212 
" style="fill:none;stroke:#cccccc;stroke-linecap:round;stroke-width:0.8;"/>
     </g>
    </g>
    <g id="ytick_17">
     <g id="line2d_60">
      <path clip-path="url(#p23d66eb801)" d="M 738.720246 46.638768 
L 1081.42375 46.638768 
" style="fill:none;stroke:#cccccc;stroke-linecap:round;stroke-width:0.8;"/>
     </g>
    </g>
    <g id="ytick_18">
     <g id="line2d_61">
      <path clip-path="url(#p23d66eb801)" d="M 738.720246 25.117324 
L 1081.42375 25.117324 
" style="fill:none;stroke:#cccccc;stroke-linecap:round;stroke-width:0.8;"/>
     </g>
    </g>
   </g>
   <g id="LineCollection_5">
    <path clip-path="url(#p23d66eb801)" d="M 758.488916 132.722919 
L 758.488916 132.721829 
" style="fill:none;stroke:#e4b8b8;stroke-linecap:round;stroke-width:1.2;"/>
    <path clip-path="url(#p23d66eb801)" d="M 775.253865 119.180214 
L 775.253865 119.100523 
" style="fill:none;stroke:#e4b8b8;stroke-linecap:round;stroke-width:1.2;"/>
    <path clip-path="url(#p23d66eb801)" d="M 792.018814 104.253802 
L 792.018814 104.21173 
" style="fill:none;stroke:#e4b8b8;stroke-linecap:round;stroke-width:1.2;"/>
    <path clip-path="url(#p23d66eb801)" d="M 831.137029 87.635779 
L 831.137029 87.473379 
" style="fill:none;stroke:#e4b8b8;stroke-linecap:round;stroke-width:1.2;"/>
    <path clip-path="url(#p23d66eb801)" d="M 909.373459 55.863631 
L 909.373459 55.086209 
" style="fill:none;stroke:#e4b8b8;stroke-linecap:round;stroke-width:1.2;"/>
    <path clip-path="url(#p23d66eb801)" d="M 1065.846318 38.785657 
L 1065.846318 38.334145 
" style="fill:none;stroke:#e4b8b8;stroke-linecap:round;stroke-width:1.2;"/>
   </g>
   <g id="LineCollection_6">
    <path clip-path="url(#p23d66eb801)" d="M 758.488916 132.723733 
L 758.488916 132.723459 
" style="fill:none;stroke:#d79ea9;stroke-linecap:round;stroke-width:1.2;"/>
    <path clip-path="url(#p23d66eb801)" d="M 775.253865 132.719435 
L 775.253865 132.718475 
" style="fill:none;stroke:#d79ea9;stroke-linecap:round;stroke-width:1.2;"/>
    <path clip-path="url(#p23d66eb801)" d="M 792.018814 120.843543 
L 792.018814 120.782715 
" style="fill:none;stroke:#d79ea9;stroke-linecap:round;stroke-width:1.2;"/>
    <path clip-path="url(#p23d66eb801)" d="M 831.137029 104.150392 
L 831.137029 104.063419 
" style="fill:none;stroke:#d79ea9;stroke-linecap:round;stroke-width:1.2;"/>
    <path clip-path="url(#p23d66eb801)" d="M 909.373459 85.715454 
L 909.373459 84.965255 
" style="fill:none;stroke:#d79ea9;stroke-linecap:round;stroke-width:1.2;"/>
    <path clip-path="url(#p23d66eb801)" d="M 1065.846318 60.534953 
L 1065.846318 57.043856 
" style="fill:none;stroke:#d79ea9;stroke-linecap:round;stroke-width:1.2;"/>
   </g>
   <g id="line2d_62">
    <path clip-path="url(#p23d66eb801)" d="M 754.297678 132.724545 
L 755.694758 132.722378 
L 758.488916 132.718258 
L 764.077232 118.956051 
L 775.253865 101.193198 
L 792.018814 89.264439 
L 831.137029 76.651512 
L 909.373459 40.624887 
L 1065.846318 34.790278 
" style="fill:none;stroke:#edd1cb;stroke-linecap:round;stroke-width:1.2;"/>
    <g clip-path="url(#p23d66eb801)">
     <use style="fill:#edd1cb;stroke:#ffffff;stroke-width:0.75;" x="754.297678" xlink:href="#mc358d09836" y="132.724545"/>
     <use style="fill:#edd1cb;stroke:#ffffff;stroke-width:0.75;" x="755.694758" xlink:href="#mc358d09836" y="132.722378"/>
     <use style="fill:#edd1cb;stroke:#ffffff;stroke-width:0.75;" x="758.488916" xlink:href="#mc358d09836" y="132.718258"/>
     <use style="fill:#edd1cb;stroke:#ffffff;stroke-width:0.75;" x="764.077232" xlink:href="#mc358d09836" y="118.956051"/>
     <use style="fill:#edd1cb;stroke:#ffffff;stroke-width:0.75;" x="775.253865" xlink:href="#mc358d09836" y="101.193198"/>
     <use style="fill:#edd1cb;stroke:#ffffff;stroke-width:0.75;" x="792.018814" xlink:href="#mc358d09836" y="89.264439"/>
     <use style="fill:#edd1cb;stroke:#ffffff;stroke-width:0.75;" x="831.137029" xlink:href="#mc358d09836" y="76.651512"/>
     <use style="fill:#edd1cb;stroke:#ffffff;stroke-width:0.75;" x="909.373459" xlink:href="#mc358d09836" y="40.624887"/>
     <use style="fill:#edd1cb;stroke:#ffffff;stroke-width:0.75;" x="1065.846318" xlink:href="#mc358d09836" y="34.790278"/>
    </g>
   </g>
   <g id="line2d_63">
    <path clip-path="url(#p23d66eb801)" d="M 758.488916 132.722383 
L 775.253865 119.161406 
L 792.018814 104.212407 
L 831.137029 87.479789 
L 909.373459 55.226006 
L 1065.846318 38.513157 
" style="fill:none;stroke:#e4b8b8;stroke-linecap:round;stroke-width:1.2;"/>
    <g clip-path="url(#p23d66eb801)">
     <use style="fill:#e4b8b8;stroke:#ffffff;stroke-linejoin:miter;stroke-width:0.75;" x="758.488916" xlink:href="#m8ab92c1643" y="132.722383"/>
     <use style="fill:#e4b8b8;stroke:#ffffff;stroke-linejoin:miter;stroke-width:0.75;" x="775.253865" xlink:href="#m8ab92c1643" y="119.161406"/>
     <use style="fill:#e4b8b8;stroke:#ffffff;stroke-linejoin:miter;stroke-width:0.75;" x="792.018814" xlink:href="#m8ab92c1643" y="104.212407"/>
     <use style="fill:#e4b8b8;stroke:#ffffff;stroke-linejoin:miter;stroke-width:0.75;" x="831.137029" xlink:href="#m8ab92c1643" y="87.479789"/>
     <use style="fill:#e4b8b8;stroke:#ffffff;stroke-linejoin:miter;stroke-width:0.75;" x="909.373459" xlink:href="#m8ab92c1643" y="55.226006"/>
     <use style="fill:#e4b8b8;stroke:#ffffff;stroke-linejoin:miter;stroke-width:0.75;" x="1065.846318" xlink:href="#m8ab92c1643" y="38.513157"/>
    </g>
   </g>
   <g id="line2d_64">
    <path clip-path="url(#p23d66eb801)" d="M 758.488916 132.723462 
L 775.253865 132.718602 
L 792.018814 120.805186 
L 831.137029 104.073114 
L 909.373459 85.088607 
L 1065.846318 57.85746 
" style="fill:none;stroke:#d79ea9;stroke-linecap:round;stroke-width:1.2;"/>
    <g clip-path="url(#p23d66eb801)">
     <use style="fill:#d79ea9;stroke:#ffffff;stroke-linejoin:miter;stroke-width:0.75;" x="758.488916" xlink:href="#m843471973b" y="132.723462"/>
     <use style="fill:#d79ea9;stroke:#ffffff;stroke-linejoin:miter;stroke-width:0.75;" x="775.253865" xlink:href="#m843471973b" y="132.718602"/>
     <use style="fill:#d79ea9;stroke:#ffffff;stroke-linejoin:miter;stroke-width:0.75;" x="792.018814" xlink:href="#m843471973b" y="120.805186"/>
     <use style="fill:#d79ea9;stroke:#ffffff;stroke-linejoin:miter;stroke-width:0.75;" x="831.137029" xlink:href="#m843471973b" y="104.073114"/>
     <use style="fill:#d79ea9;stroke:#ffffff;stroke-linejoin:miter;stroke-width:0.75;" x="909.373459" xlink:href="#m843471973b" y="85.088607"/>
     <use style="fill:#d79ea9;stroke:#ffffff;stroke-linejoin:miter;stroke-width:0.75;" x="1065.846318" xlink:href="#m843471973b" y="57.85746"/>
    </g>
   </g>
   <g id="line2d_65">
    <path clip-path="url(#p23d66eb801)" d="M 758.488916 132.724545 
L 775.253865 132.722092 
L 792.018814 132.719984 
L 831.137029 120.679273 
L 909.373459 105.025983 
L 1065.846318 86.475468 
" style="fill:none;stroke:#c6859d;stroke-linecap:round;stroke-width:1.2;"/>
    <g clip-path="url(#p23d66eb801)">
     <use style="fill:#c6859d;stroke:#ffffff;stroke-linejoin:miter;stroke-width:0.75;" x="758.488916" xlink:href="#m80a9b50026" y="132.724545"/>
     <use style="fill:#c6859d;stroke:#ffffff;stroke-linejoin:miter;stroke-width:0.75;" x="775.253865" xlink:href="#m80a9b50026" y="132.722092"/>
     <use style="fill:#c6859d;stroke:#ffffff;stroke-linejoin:miter;stroke-width:0.75;" x="792.018814" xlink:href="#m80a9b50026" y="132.719984"/>
     <use style="fill:#c6859d;stroke:#ffffff;stroke-linejoin:miter;stroke-width:0.75;" x="831.137029" xlink:href="#m80a9b50026" y="120.679273"/>
     <use style="fill:#c6859d;stroke:#ffffff;stroke-linejoin:miter;stroke-width:0.75;" x="909.373459" xlink:href="#m80a9b50026" y="105.025983"/>
     <use style="fill:#c6859d;stroke:#ffffff;stroke-linejoin:miter;stroke-width:0.75;" x="1065.846318" xlink:href="#m80a9b50026" y="86.475468"/>
    </g>
   </g>
   <g id="line2d_66">
    <path clip-path="url(#p23d66eb801)" d="M 775.253865 132.723109 
L 792.018814 132.722437 
L 831.137029 132.719379 
L 909.373459 121.974059 
L 1065.846318 105.580421 
" style="fill:none;stroke:#b16e92;stroke-linecap:round;stroke-width:1.2;"/>
    <g clip-path="url(#p23d66eb801)">
     <use style="fill:#b16e92;stroke:#ffffff;stroke-linejoin:miter;stroke-width:0.75;" x="775.253865" xlink:href="#m9218f1ae18" y="132.723109"/>
     <use style="fill:#b16e92;stroke:#ffffff;stroke-linejoin:miter;stroke-width:0.75;" x="792.018814" xlink:href="#m9218f1ae18" y="132.722437"/>
     <use style="fill:#b16e92;stroke:#ffffff;stroke-linejoin:miter;stroke-width:0.75;" x="831.137029" xlink:href="#m9218f1ae18" y="132.719379"/>
     <use style="fill:#b16e92;stroke:#ffffff;stroke-linejoin:miter;stroke-width:0.75;" x="909.373459" xlink:href="#m9218f1ae18" y="121.974059"/>
     <use style="fill:#b16e92;stroke:#ffffff;stroke-linejoin:miter;stroke-width:0.75;" x="1065.846318" xlink:href="#m9218f1ae18" y="105.580421"/>
    </g>
   </g>
   <g id="line2d_67">
    <path clip-path="url(#p23d66eb801)" d="M 775.253865 132.723724 
L 792.018814 132.723337 
L 831.137029 132.722042 
L 909.373459 132.719398 
L 1065.846318 121.990699 
" style="fill:none;stroke:#985987;stroke-linecap:round;stroke-width:1.2;"/>
    <g clip-path="url(#p23d66eb801)">
     <use style="fill:#985987;stroke:#ffffff;stroke-width:0.75;" x="775.253865" xlink:href="#m4dc2834ecd" y="132.723724"/>
     <use style="fill:#985987;stroke:#ffffff;stroke-width:0.75;" x="792.018814" xlink:href="#m4dc2834ecd" y="132.723337"/>
     <use style="fill:#985987;stroke:#ffffff;stroke-width:0.75;" x="831.137029" xlink:href="#m4dc2834ecd" y="132.722042"/>
     <use style="fill:#985987;stroke:#ffffff;stroke-width:0.75;" x="909.373459" xlink:href="#m4dc2834ecd" y="132.719398"/>
     <use style="fill:#985987;stroke:#ffffff;stroke-width:0.75;" x="1065.846318" xlink:href="#m4dc2834ecd" y="121.990699"/>
    </g>
   </g>
   <g id="line2d_68">
    <path clip-path="url(#p23d66eb801)" d="M 792.018814 132.723963 
L 831.137029 132.723201 
L 909.373459 132.722165 
L 1065.846318 132.719732 
" style="fill:none;stroke:#7b4779;stroke-linecap:round;stroke-width:1.2;"/>
    <g clip-path="url(#p23d66eb801)">
     <use style="fill:#7b4779;stroke:#ffffff;stroke-linejoin:miter;stroke-width:0.75;" x="792.018814" xlink:href="#m0d7c7cff53" y="132.723963"/>
     <use style="fill:#7b4779;stroke:#ffffff;stroke-linejoin:miter;stroke-width:0.75;" x="831.137029" xlink:href="#m0d7c7cff53" y="132.723201"/>
     <use style="fill:#7b4779;stroke:#ffffff;stroke-linejoin:miter;stroke-width:0.75;" x="909.373459" xlink:href="#m0d7c7cff53" y="132.722165"/>
     <use style="fill:#7b4779;stroke:#ffffff;stroke-linejoin:miter;stroke-width:0.75;" x="1065.846318" xlink:href="#m0d7c7cff53" y="132.719732"/>
    </g>
   </g>
   <g id="line2d_69">
    <path clip-path="url(#p23d66eb801)" d="M 831.137029 132.724407 
L 909.373459 132.72421 
L 987.609888 132.723901 
L 1065.846318 132.723895 
" style="fill:none;stroke:#2d1e3e;stroke-linecap:round;stroke-width:1.2;"/>
    <g clip-path="url(#p23d66eb801)">
     <use style="fill:#2d1e3e;stroke:#ffffff;stroke-linejoin:miter;stroke-width:0.75;" x="831.137029" xlink:href="#mc59cecd44a" y="132.724407"/>
     <use style="fill:#2d1e3e;stroke:#ffffff;stroke-linejoin:miter;stroke-width:0.75;" x="909.373459" xlink:href="#mc59cecd44a" y="132.72421"/>
     <use style="fill:#2d1e3e;stroke:#ffffff;stroke-linejoin:miter;stroke-width:0.75;" x="987.609888" xlink:href="#mc59cecd44a" y="132.723901"/>
     <use style="fill:#2d1e3e;stroke:#ffffff;stroke-linejoin:miter;stroke-width:0.75;" x="1065.846318" xlink:href="#mc59cecd44a" y="132.723895"/>
    </g>
   </g>
   <g id="line2d_70"/>
   <g id="line2d_71"/>
   <g id="patch_13">
    <path d="M 738.720246 137.932 
L 738.720246 23.368 
" style="fill:none;stroke:#cccccc;stroke-linecap:square;stroke-linejoin:miter;"/>
   </g>
   <g id="patch_14">
    <path d="M 1081.42375 137.932 
L 1081.42375 23.368 
" style="fill:none;stroke:#cccccc;stroke-linecap:square;stroke-linejoin:miter;"/>
   </g>
   <g id="patch_15">
    <path d="M 738.720246 137.932 
L 1081.42375 137.932 
" style="fill:none;stroke:#cccccc;stroke-linecap:square;stroke-linejoin:miter;"/>
   </g>
   <g id="patch_16">
    <path d="M 738.720246 23.368 
L 1081.42375 23.368 
" style="fill:none;stroke:#cccccc;stroke-linecap:square;stroke-linejoin:miter;"/>
   </g>
   <g id="text_28">
    <!-- CC = TICTOC -->
    <g style="fill:#262626;" transform="translate(879.972998 17.368)scale(0.096 -0.096)">
     <use xlink:href="#ArialMT-67"/>
     <use x="72.216797" xlink:href="#ArialMT-67"/>
     <use x="144.433594" xlink:href="#ArialMT-32"/>
     <use x="172.216797" xlink:href="#ArialMT-61"/>
     <use x="230.615234" xlink:href="#ArialMT-32"/>
     <use x="256.648438" xlink:href="#ArialMT-84"/>
     <use x="317.732422" xlink:href="#ArialMT-73"/>
     <use x="345.515625" xlink:href="#ArialMT-67"/>
     <use x="417.732422" xlink:href="#ArialMT-84"/>
     <use x="477.066406" xlink:href="#ArialMT-79"/>
     <use x="554.849609" xlink:href="#ArialMT-67"/>
    </g>
   </g>
  </g>
  <g id="legend_1">
   <g id="text_29">
    <!-- Warehouses -->
    <g style="fill:#262626;" transform="translate(1092.176 35.49025)scale(0.096 -0.096)">
     <defs>
      <path d="M 6.59375 0 
L 6.59375 71.578125 
L 15.375 71.578125 
L 15.375 45.90625 
Q 21.53125 53.03125 30.90625 53.03125 
Q 36.671875 53.03125 40.921875 50.75 
Q 45.171875 48.484375 47 44.484375 
Q 48.828125 40.484375 48.828125 32.859375 
L 48.828125 0 
L 40.046875 0 
L 40.046875 32.859375 
Q 40.046875 39.453125 37.1875 42.453125 
Q 34.328125 45.453125 29.109375 45.453125 
Q 25.203125 45.453125 21.75 43.421875 
Q 18.3125 41.40625 16.84375 37.9375 
Q 15.375 34.46875 15.375 28.375 
L 15.375 0 
z
" id="ArialMT-104"/>
     </defs>
     <use xlink:href="#ArialMT-87"/>
     <use x="90.634766" xlink:href="#ArialMT-97"/>
     <use x="146.25" xlink:href="#ArialMT-114"/>
     <use x="179.550781" xlink:href="#ArialMT-101"/>
     <use x="235.166016" xlink:href="#ArialMT-104"/>
     <use x="290.78125" xlink:href="#ArialMT-111"/>
     <use x="346.396484" xlink:href="#ArialMT-117"/>
     <use x="402.011719" xlink:href="#ArialMT-115"/>
     <use x="452.011719" xlink:href="#ArialMT-101"/>
     <use x="507.626953" xlink:href="#ArialMT-115"/>
    </g>
   </g>
   <g id="line2d_72">
    <path d="M 1096.83325 45.017125 
L 1114.43325 45.017125 
" style="fill:none;stroke:#edd1cb;stroke-linecap:round;stroke-width:1.2;"/>
   </g>
   <g id="line2d_73">
    <defs>
     <path d="M 0 2.4 
C 0.636487 2.4 1.246992 2.147121 1.697056 1.697056 
C 2.147121 1.246992 2.4 0.636487 2.4 0 
C 2.4 -0.636487 2.147121 -1.246992 1.697056 -1.697056 
C 1.246992 -2.147121 0.636487 -2.4 0 -2.4 
C -0.636487 -2.4 -1.246992 -2.147121 -1.697056 -1.697056 
C -2.147121 -1.246992 -2.4 -0.636487 -2.4 0 
C -2.4 0.636487 -2.147121 1.246992 -1.697056 1.697056 
C -1.246992 2.147121 -0.636487 2.4 0 2.4 
z
" id="m6e42e8f1bb" style="stroke:#edd1cb;"/>
    </defs>
    <g>
     <use style="fill:#edd1cb;stroke:#edd1cb;" x="1105.63325" xlink:href="#m6e42e8f1bb" y="45.017125"/>
    </g>
   </g>
   <g id="text_30">
    <!-- 4 -->
    <g style="fill:#262626;" transform="translate(1121.47325 48.097125)scale(0.088 -0.088)">
     <use xlink:href="#ArialMT-52"/>
    </g>
   </g>
   <g id="line2d_74">
    <path d="M 1096.83325 57.465 
L 1114.43325 57.465 
" style="fill:none;stroke:#e4b8b8;stroke-linecap:round;stroke-width:1.2;"/>
   </g>
   <g id="line2d_75">
    <defs>
     <path d="M -2.4 2.4 
L 2.4 2.4 
L 2.4 -2.4 
L -2.4 -2.4 
z
" id="me98f312582" style="stroke:#e4b8b8;stroke-linejoin:miter;"/>
    </defs>
    <g>
     <use style="fill:#e4b8b8;stroke:#e4b8b8;stroke-linejoin:miter;" x="1105.63325" xlink:href="#me98f312582" y="57.465"/>
    </g>
   </g>
   <g id="text_31">
    <!-- 8 -->
    <g style="fill:#262626;" transform="translate(1121.47325 60.545)scale(0.088 -0.088)">
     <use xlink:href="#ArialMT-56"/>
    </g>
   </g>
   <g id="line2d_76">
    <path d="M 1096.83325 69.912875 
L 1114.43325 69.912875 
" style="fill:none;stroke:#d79ea9;stroke-linecap:round;stroke-width:1.2;"/>
   </g>
   <g id="line2d_77">
    <defs>
     <path d="M 0 3.394113 
L 2.036468 0 
L 0 -3.394113 
L -2.036468 0 
z
" id="m23181798ff" style="stroke:#d79ea9;stroke-linejoin:miter;"/>
    </defs>
    <g>
     <use style="fill:#d79ea9;stroke:#d79ea9;stroke-linejoin:miter;" x="1105.63325" xlink:href="#m23181798ff" y="69.912875"/>
    </g>
   </g>
   <g id="text_32">
    <!-- 16 -->
    <g style="fill:#262626;" transform="translate(1121.47325 72.992875)scale(0.088 -0.088)">
     <use xlink:href="#ArialMT-49"/>
     <use x="55.615234" xlink:href="#ArialMT-54"/>
    </g>
   </g>
   <g id="line2d_78">
    <path d="M 1096.83325 82.36075 
L 1114.43325 82.36075 
" style="fill:none;stroke:#c6859d;stroke-linecap:round;stroke-width:1.2;"/>
   </g>
   <g id="line2d_79">
    <defs>
     <path d="M 0 -2.4 
L -2.4 2.4 
L 2.4 2.4 
z
" id="m8460f32d07" style="stroke:#c6859d;stroke-linejoin:miter;"/>
    </defs>
    <g>
     <use style="fill:#c6859d;stroke:#c6859d;stroke-linejoin:miter;" x="1105.63325" xlink:href="#m8460f32d07" y="82.36075"/>
    </g>
   </g>
   <g id="text_33">
    <!-- 32 -->
    <g style="fill:#262626;" transform="translate(1121.47325 85.44075)scale(0.088 -0.088)">
     <defs>
      <path d="M 4.203125 18.890625 
L 12.984375 20.0625 
Q 14.5 12.59375 18.140625 9.296875 
Q 21.78125 6 27 6 
Q 33.203125 6 37.46875 10.296875 
Q 41.75 14.59375 41.75 20.953125 
Q 41.75 27 37.796875 30.921875 
Q 33.84375 34.859375 27.734375 34.859375 
Q 25.25 34.859375 21.53125 33.890625 
L 22.515625 41.609375 
Q 23.390625 41.5 23.921875 41.5 
Q 29.546875 41.5 34.03125 44.421875 
Q 38.53125 47.359375 38.53125 53.46875 
Q 38.53125 58.296875 35.25 61.46875 
Q 31.984375 64.65625 26.8125 64.65625 
Q 21.6875 64.65625 18.265625 61.421875 
Q 14.84375 58.203125 13.875 51.765625 
L 5.078125 53.328125 
Q 6.6875 62.15625 12.390625 67.015625 
Q 18.109375 71.875 26.609375 71.875 
Q 32.46875 71.875 37.390625 69.359375 
Q 42.328125 66.84375 44.9375 62.5 
Q 47.5625 58.15625 47.5625 53.265625 
Q 47.5625 48.640625 45.0625 44.828125 
Q 42.578125 41.015625 37.703125 38.765625 
Q 44.046875 37.3125 47.5625 32.6875 
Q 51.078125 28.078125 51.078125 21.140625 
Q 51.078125 11.765625 44.234375 5.25 
Q 37.40625 -1.265625 26.953125 -1.265625 
Q 17.53125 -1.265625 11.296875 4.34375 
Q 5.078125 9.96875 4.203125 18.890625 
z
" id="ArialMT-51"/>
     </defs>
     <use xlink:href="#ArialMT-51"/>
     <use x="55.615234" xlink:href="#ArialMT-50"/>
    </g>
   </g>
   <g id="line2d_80">
    <path d="M 1096.83325 94.808625 
L 1114.43325 94.808625 
" style="fill:none;stroke:#b16e92;stroke-linecap:round;stroke-width:1.2;"/>
   </g>
   <g id="line2d_81">
    <defs>
     <path d="M 0 -2.4 
L -2.282536 -0.741641 
L -1.410685 1.941641 
L 1.410685 1.941641 
L 2.282536 -0.741641 
z
" id="mc1a85705e3" style="stroke:#b16e92;stroke-linejoin:miter;"/>
    </defs>
    <g>
     <use style="fill:#b16e92;stroke:#b16e92;stroke-linejoin:miter;" x="1105.63325" xlink:href="#mc1a85705e3" y="94.808625"/>
    </g>
   </g>
   <g id="text_34">
    <!-- 64 -->
    <g style="fill:#262626;" transform="translate(1121.47325 97.888625)scale(0.088 -0.088)">
     <use xlink:href="#ArialMT-54"/>
     <use x="55.615234" xlink:href="#ArialMT-52"/>
    </g>
   </g>
   <g id="line2d_82">
    <path d="M 1096.83325 107.2565 
L 1114.43325 107.2565 
" style="fill:none;stroke:#985987;stroke-linecap:round;stroke-width:1.2;"/>
   </g>
   <g id="line2d_83">
    <defs>
     <path d="M 0 2.4 
C 0.636487 2.4 1.246992 2.147121 1.697056 1.697056 
C 2.147121 1.246992 2.4 0.636487 2.4 0 
C 2.4 -0.636487 2.147121 -1.246992 1.697056 -1.697056 
C 1.246992 -2.147121 0.636487 -2.4 0 -2.4 
C -0.636487 -2.4 -1.246992 -2.147121 -1.697056 -1.697056 
C -2.147121 -1.246992 -2.4 -0.636487 -2.4 0 
C -2.4 0.636487 -2.147121 1.246992 -1.697056 1.697056 
C -1.246992 2.147121 -0.636487 2.4 0 2.4 
z
" id="md53f829355" style="stroke:#985987;"/>
    </defs>
    <g>
     <use style="fill:#985987;stroke:#985987;" x="1105.63325" xlink:href="#md53f829355" y="107.2565"/>
    </g>
   </g>
   <g id="text_35">
    <!-- 128 -->
    <g style="fill:#262626;" transform="translate(1121.47325 110.3365)scale(0.088 -0.088)">
     <use xlink:href="#ArialMT-49"/>
     <use x="55.615234" xlink:href="#ArialMT-50"/>
     <use x="111.230469" xlink:href="#ArialMT-56"/>
    </g>
   </g>
   <g id="line2d_84">
    <path d="M 1096.83325 119.704375 
L 1114.43325 119.704375 
" style="fill:none;stroke:#7b4779;stroke-linecap:round;stroke-width:1.2;"/>
   </g>
   <g id="line2d_85">
    <defs>
     <path d="M -2.4 2.4 
L 2.4 2.4 
L 2.4 -2.4 
L -2.4 -2.4 
z
" id="m253fc9ccbd" style="stroke:#7b4779;stroke-linejoin:miter;"/>
    </defs>
    <g>
     <use style="fill:#7b4779;stroke:#7b4779;stroke-linejoin:miter;" x="1105.63325" xlink:href="#m253fc9ccbd" y="119.704375"/>
    </g>
   </g>
   <g id="text_36">
    <!-- 256 -->
    <g style="fill:#262626;" transform="translate(1121.47325 122.784375)scale(0.088 -0.088)">
     <use xlink:href="#ArialMT-50"/>
     <use x="55.615234" xlink:href="#ArialMT-53"/>
     <use x="111.230469" xlink:href="#ArialMT-54"/>
    </g>
   </g>
   <g id="line2d_86">
    <path d="M 1096.83325 132.15225 
L 1114.43325 132.15225 
" style="fill:none;stroke:#2d1e3e;stroke-linecap:round;stroke-width:1.2;"/>
   </g>
   <g id="line2d_87">
    <defs>
     <path d="M 0 -2.4 
L -2.282536 -0.741641 
L -1.410685 1.941641 
L 1.410685 1.941641 
L 2.282536 -0.741641 
z
" id="m15c83e47f9" style="stroke:#2d1e3e;stroke-linejoin:miter;"/>
    </defs>
    <g>
     <use style="fill:#2d1e3e;stroke:#2d1e3e;stroke-linejoin:miter;" x="1105.63325" xlink:href="#m15c83e47f9" y="132.15225"/>
    </g>
   </g>
   <g id="text_37">
    <!-- 1568 -->
    <g style="fill:#262626;" transform="translate(1121.47325 135.23225)scale(0.088 -0.088)">
     <use xlink:href="#ArialMT-49"/>
     <use x="55.615234" xlink:href="#ArialMT-53"/>
     <use x="111.230469" xlink:href="#ArialMT-54"/>
     <use x="166.845703" xlink:href="#ArialMT-56"/>
    </g>
   </g>
  </g>
 </g>
 <defs>
  <clipPath id="p535d7483be">
   <rect height="114.564" width="342.703504" x="32.634111" y="23.368"/>
  </clipPath>
  <clipPath id="p9d8c39e513">
   <rect height="114.564" width="342.703504" x="385.677179" y="23.368"/>
  </clipPath>
  <clipPath id="p23d66eb801">
   <rect height="114.564" width="342.703504" x="738.720246" y="23.368"/>
  </clipPath>
 </defs>
</svg>
