<?xml version="1.0" encoding="utf-8" standalone="no"?>
<!DOCTYPE svg PUBLIC "-//W3C//DTD SVG 1.1//EN"
  "http://www.w3.org/Graphics/SVG/1.1/DTD/svg11.dtd">
<!-- Created with matplotlib (https://matplotlib.org/) -->
<svg height="165.6pt" version="1.1" viewBox="0 0 444.375 165.6" width="444.375pt" xmlns="http://www.w3.org/2000/svg" xmlns:xlink="http://www.w3.org/1999/xlink">
 <defs>
  <style type="text/css">
*{stroke-linecap:butt;stroke-linejoin:round;}
  </style>
 </defs>
 <g id="figure_1">
  <g id="patch_1">
   <path d="M 0 165.6 
L 444.375 165.6 
L 444.375 0 
L 0 0 
z
" style="fill:#ffffff;"/>
  </g>
  <g id="axes_1">
   <g id="patch_2">
    <path d="M 83.452044 124.932 
L 359.87625 124.932 
L 359.87625 23.368 
L 83.452044 23.368 
z
" style="fill:#ffffff;"/>
   </g>
   <g id="matplotlib.axis_1">
    <g id="xtick_1">
     <g id="line2d_1">
      <path clip-path="url(#p9d1d5be958)" d="M 83.452044 124.932 
L 83.452044 23.368 
" style="fill:none;stroke:#cccccc;stroke-linecap:round;stroke-width:0.8;"/>
     </g>
     <g id="text_1">
      <!-- 0 -->
      <defs>
       <path d="M 4.15625 35.296875 
Q 4.15625 48 6.765625 55.734375 
Q 9.375 63.484375 14.515625 67.671875 
Q 19.671875 71.875 27.484375 71.875 
Q 33.25 71.875 37.59375 69.546875 
Q 41.9375 67.234375 44.765625 62.859375 
Q 47.609375 58.5 49.21875 52.21875 
Q 50.828125 45.953125 50.828125 35.296875 
Q 50.828125 22.703125 48.234375 14.96875 
Q 45.65625 7.234375 40.5 3 
Q 35.359375 -1.21875 27.484375 -1.21875 
Q 17.140625 -1.21875 11.234375 6.203125 
Q 4.15625 15.140625 4.15625 35.296875 
z
M 13.1875 35.296875 
Q 13.1875 17.671875 17.3125 11.828125 
Q 21.4375 6 27.484375 6 
Q 33.546875 6 37.671875 11.859375 
Q 41.796875 17.71875 41.796875 35.296875 
Q 41.796875 52.984375 37.671875 58.78125 
Q 33.546875 64.59375 27.390625 64.59375 
Q 21.34375 64.59375 17.71875 59.46875 
Q 13.1875 52.9375 13.1875 35.296875 
z
" id="ArialMT-48"/>
      </defs>
      <g style="fill:#262626;" transform="translate(81.005232 133.030875)scale(0.088 -0.088)">
       <use xlink:href="#ArialMT-48"/>
      </g>
     </g>
    </g>
    <g id="xtick_2">
     <g id="line2d_2">
      <path clip-path="url(#p9d1d5be958)" d="M 130.47096 124.932 
L 130.47096 23.368 
" style="fill:none;stroke:#cccccc;stroke-linecap:round;stroke-width:0.8;"/>
     </g>
     <g id="text_2">
      <!-- 50 -->
      <defs>
       <path d="M 4.15625 18.75 
L 13.375 19.53125 
Q 14.40625 12.796875 18.140625 9.390625 
Q 21.875 6 27.15625 6 
Q 33.5 6 37.890625 10.78125 
Q 42.28125 15.578125 42.28125 23.484375 
Q 42.28125 31 38.0625 35.34375 
Q 33.84375 39.703125 27 39.703125 
Q 22.75 39.703125 19.328125 37.765625 
Q 15.921875 35.84375 13.96875 32.765625 
L 5.71875 33.84375 
L 12.640625 70.609375 
L 48.25 70.609375 
L 48.25 62.203125 
L 19.671875 62.203125 
L 15.828125 42.96875 
Q 22.265625 47.46875 29.34375 47.46875 
Q 38.71875 47.46875 45.15625 40.96875 
Q 51.609375 34.46875 51.609375 24.265625 
Q 51.609375 14.546875 45.953125 7.46875 
Q 39.0625 -1.21875 27.15625 -1.21875 
Q 17.390625 -1.21875 11.203125 4.25 
Q 5.03125 9.71875 4.15625 18.75 
z
" id="ArialMT-53"/>
      </defs>
      <g style="fill:#262626;" transform="translate(125.577335 133.030875)scale(0.088 -0.088)">
       <use xlink:href="#ArialMT-53"/>
       <use x="55.615234" xlink:href="#ArialMT-48"/>
      </g>
     </g>
    </g>
    <g id="xtick_3">
     <g id="line2d_3">
      <path clip-path="url(#p9d1d5be958)" d="M 177.489876 124.932 
L 177.489876 23.368 
" style="fill:none;stroke:#cccccc;stroke-linecap:round;stroke-width:0.8;"/>
     </g>
     <g id="text_3">
      <!-- 100 -->
      <defs>
       <path d="M 37.25 0 
L 28.46875 0 
L 28.46875 56 
Q 25.296875 52.984375 20.140625 49.953125 
Q 14.984375 46.921875 10.890625 45.40625 
L 10.890625 53.90625 
Q 18.265625 57.375 23.78125 62.296875 
Q 29.296875 67.234375 31.59375 71.875 
L 37.25 71.875 
z
" id="ArialMT-49"/>
      </defs>
      <g style="fill:#262626;" transform="translate(170.149438 133.030875)scale(0.088 -0.088)">
       <use xlink:href="#ArialMT-49"/>
       <use x="55.615234" xlink:href="#ArialMT-48"/>
       <use x="111.230469" xlink:href="#ArialMT-48"/>
      </g>
     </g>
    </g>
    <g id="xtick_4">
     <g id="line2d_4">
      <path clip-path="url(#p9d1d5be958)" d="M 224.508792 124.932 
L 224.508792 23.368 
" style="fill:none;stroke:#cccccc;stroke-linecap:round;stroke-width:0.8;"/>
     </g>
     <g id="text_4">
      <!-- 150 -->
      <g style="fill:#262626;" transform="translate(217.168354 133.030875)scale(0.088 -0.088)">
       <use xlink:href="#ArialMT-49"/>
       <use x="55.615234" xlink:href="#ArialMT-53"/>
       <use x="111.230469" xlink:href="#ArialMT-48"/>
      </g>
     </g>
    </g>
    <g id="xtick_5">
     <g id="line2d_5">
      <path clip-path="url(#p9d1d5be958)" d="M 271.527707 124.932 
L 271.527707 23.368 
" style="fill:none;stroke:#cccccc;stroke-linecap:round;stroke-width:0.8;"/>
     </g>
     <g id="text_5">
      <!-- 200 -->
      <defs>
       <path d="M 50.34375 8.453125 
L 50.34375 0 
L 3.03125 0 
Q 2.9375 3.171875 4.046875 6.109375 
Q 5.859375 10.9375 9.828125 15.625 
Q 13.8125 20.3125 21.34375 26.46875 
Q 33.015625 36.03125 37.109375 41.625 
Q 41.21875 47.21875 41.21875 52.203125 
Q 41.21875 57.421875 37.46875 61 
Q 33.734375 64.59375 27.734375 64.59375 
Q 21.390625 64.59375 17.578125 60.78125 
Q 13.765625 56.984375 13.71875 50.25 
L 4.6875 51.171875 
Q 5.609375 61.28125 11.65625 66.578125 
Q 17.71875 71.875 27.9375 71.875 
Q 38.234375 71.875 44.234375 66.15625 
Q 50.25 60.453125 50.25 52 
Q 50.25 47.703125 48.484375 43.546875 
Q 46.734375 39.40625 42.65625 34.8125 
Q 38.578125 30.21875 29.109375 22.21875 
Q 21.1875 15.578125 18.9375 13.203125 
Q 16.703125 10.84375 15.234375 8.453125 
z
" id="ArialMT-50"/>
      </defs>
      <g style="fill:#262626;" transform="translate(264.18727 133.030875)scale(0.088 -0.088)">
       <use xlink:href="#ArialMT-50"/>
       <use x="55.615234" xlink:href="#ArialMT-48"/>
       <use x="111.230469" xlink:href="#ArialMT-48"/>
      </g>
     </g>
    </g>
    <g id="xtick_6">
     <g id="line2d_6">
      <path clip-path="url(#p9d1d5be958)" d="M 318.546623 124.932 
L 318.546623 23.368 
" style="fill:none;stroke:#cccccc;stroke-linecap:round;stroke-width:0.8;"/>
     </g>
     <g id="text_6">
      <!-- 250 -->
      <g style="fill:#262626;" transform="translate(311.206186 133.030875)scale(0.088 -0.088)">
       <use xlink:href="#ArialMT-50"/>
       <use x="55.615234" xlink:href="#ArialMT-53"/>
       <use x="111.230469" xlink:href="#ArialMT-48"/>
      </g>
     </g>
    </g>
    <g id="text_7">
     <!-- Number of Cores -->
     <defs>
      <path d="M 7.625 0 
L 7.625 71.578125 
L 17.328125 71.578125 
L 54.9375 15.375 
L 54.9375 71.578125 
L 64.015625 71.578125 
L 64.015625 0 
L 54.296875 0 
L 16.703125 56.25 
L 16.703125 0 
z
" id="ArialMT-78"/>
      <path d="M 40.578125 0 
L 40.578125 7.625 
Q 34.515625 -1.171875 24.125 -1.171875 
Q 19.53125 -1.171875 15.546875 0.578125 
Q 11.578125 2.34375 9.640625 5 
Q 7.71875 7.671875 6.9375 11.53125 
Q 6.390625 14.109375 6.390625 19.734375 
L 6.390625 51.859375 
L 15.1875 51.859375 
L 15.1875 23.09375 
Q 15.1875 16.21875 15.71875 13.8125 
Q 16.546875 10.359375 19.234375 8.375 
Q 21.921875 6.390625 25.875 6.390625 
Q 29.828125 6.390625 33.296875 8.421875 
Q 36.765625 10.453125 38.203125 13.9375 
Q 39.65625 17.4375 39.65625 24.078125 
L 39.65625 51.859375 
L 48.4375 51.859375 
L 48.4375 0 
z
" id="ArialMT-117"/>
      <path d="M 6.59375 0 
L 6.59375 51.859375 
L 14.453125 51.859375 
L 14.453125 44.578125 
Q 16.890625 48.390625 20.9375 50.703125 
Q 25 53.03125 30.171875 53.03125 
Q 35.9375 53.03125 39.625 50.640625 
Q 43.3125 48.25 44.828125 43.953125 
Q 50.984375 53.03125 60.84375 53.03125 
Q 68.5625 53.03125 72.703125 48.75 
Q 76.859375 44.484375 76.859375 35.59375 
L 76.859375 0 
L 68.109375 0 
L 68.109375 32.671875 
Q 68.109375 37.9375 67.25 40.25 
Q 66.40625 42.578125 64.15625 43.984375 
Q 61.921875 45.40625 58.890625 45.40625 
Q 53.421875 45.40625 49.796875 41.765625 
Q 46.1875 38.140625 46.1875 30.125 
L 46.1875 0 
L 37.40625 0 
L 37.40625 33.6875 
Q 37.40625 39.546875 35.25 42.46875 
Q 33.109375 45.40625 28.21875 45.40625 
Q 24.515625 45.40625 21.359375 43.453125 
Q 18.21875 41.5 16.796875 37.734375 
Q 15.375 33.984375 15.375 26.90625 
L 15.375 0 
z
" id="ArialMT-109"/>
      <path d="M 14.703125 0 
L 6.546875 0 
L 6.546875 71.578125 
L 15.328125 71.578125 
L 15.328125 46.046875 
Q 20.90625 53.03125 29.546875 53.03125 
Q 34.328125 53.03125 38.59375 51.09375 
Q 42.875 49.171875 45.625 45.671875 
Q 48.390625 42.1875 49.953125 37.25 
Q 51.515625 32.328125 51.515625 26.703125 
Q 51.515625 13.375 44.921875 6.09375 
Q 38.328125 -1.171875 29.109375 -1.171875 
Q 19.921875 -1.171875 14.703125 6.5 
z
M 14.59375 26.3125 
Q 14.59375 17 17.140625 12.84375 
Q 21.296875 6.0625 28.375 6.0625 
Q 34.125 6.0625 38.328125 11.0625 
Q 42.53125 16.0625 42.53125 25.984375 
Q 42.53125 36.140625 38.5 40.96875 
Q 34.46875 45.796875 28.765625 45.796875 
Q 23 45.796875 18.796875 40.796875 
Q 14.59375 35.796875 14.59375 26.3125 
z
" id="ArialMT-98"/>
      <path d="M 42.09375 16.703125 
L 51.171875 15.578125 
Q 49.03125 7.625 43.21875 3.21875 
Q 37.40625 -1.171875 28.375 -1.171875 
Q 17 -1.171875 10.328125 5.828125 
Q 3.65625 12.84375 3.65625 25.484375 
Q 3.65625 38.578125 10.390625 45.796875 
Q 17.140625 53.03125 27.875 53.03125 
Q 38.28125 53.03125 44.875 45.953125 
Q 51.46875 38.875 51.46875 26.03125 
Q 51.46875 25.25 51.421875 23.6875 
L 12.75 23.6875 
Q 13.234375 15.140625 17.578125 10.59375 
Q 21.921875 6.0625 28.421875 6.0625 
Q 33.25 6.0625 36.671875 8.59375 
Q 40.09375 11.140625 42.09375 16.703125 
z
M 13.234375 30.90625 
L 42.1875 30.90625 
Q 41.609375 37.453125 38.875 40.71875 
Q 34.671875 45.796875 27.984375 45.796875 
Q 21.921875 45.796875 17.796875 41.75 
Q 13.671875 37.703125 13.234375 30.90625 
z
" id="ArialMT-101"/>
      <path d="M 6.5 0 
L 6.5 51.859375 
L 14.40625 51.859375 
L 14.40625 44 
Q 17.4375 49.515625 20 51.265625 
Q 22.5625 53.03125 25.640625 53.03125 
Q 30.078125 53.03125 34.671875 50.203125 
L 31.640625 42.046875 
Q 28.421875 43.953125 25.203125 43.953125 
Q 22.3125 43.953125 20.015625 42.21875 
Q 17.71875 40.484375 16.75 37.40625 
Q 15.28125 32.71875 15.28125 27.15625 
L 15.28125 0 
z
" id="ArialMT-114"/>
      <path id="ArialMT-32"/>
      <path d="M 3.328125 25.921875 
Q 3.328125 40.328125 11.328125 47.265625 
Q 18.015625 53.03125 27.640625 53.03125 
Q 38.328125 53.03125 45.109375 46.015625 
Q 51.90625 39.015625 51.90625 26.65625 
Q 51.90625 16.65625 48.90625 10.90625 
Q 45.90625 5.171875 40.15625 2 
Q 34.421875 -1.171875 27.640625 -1.171875 
Q 16.75 -1.171875 10.03125 5.8125 
Q 3.328125 12.796875 3.328125 25.921875 
z
M 12.359375 25.921875 
Q 12.359375 15.96875 16.703125 11.015625 
Q 21.046875 6.0625 27.640625 6.0625 
Q 34.1875 6.0625 38.53125 11.03125 
Q 42.875 16.015625 42.875 26.21875 
Q 42.875 35.84375 38.5 40.796875 
Q 34.125 45.75 27.640625 45.75 
Q 21.046875 45.75 16.703125 40.8125 
Q 12.359375 35.890625 12.359375 25.921875 
z
" id="ArialMT-111"/>
      <path d="M 8.6875 0 
L 8.6875 45.015625 
L 0.921875 45.015625 
L 0.921875 51.859375 
L 8.6875 51.859375 
L 8.6875 57.375 
Q 8.6875 62.59375 9.625 65.140625 
Q 10.890625 68.5625 14.078125 70.671875 
Q 17.28125 72.796875 23.046875 72.796875 
Q 26.765625 72.796875 31.25 71.921875 
L 29.9375 64.265625 
Q 27.203125 64.75 24.75 64.75 
Q 20.75 64.75 19.09375 63.03125 
Q 17.4375 61.328125 17.4375 56.640625 
L 17.4375 51.859375 
L 27.546875 51.859375 
L 27.546875 45.015625 
L 17.4375 45.015625 
L 17.4375 0 
z
" id="ArialMT-102"/>
      <path d="M 58.796875 25.09375 
L 68.265625 22.703125 
Q 65.28125 11.03125 57.546875 4.90625 
Q 49.8125 -1.21875 38.625 -1.21875 
Q 27.046875 -1.21875 19.796875 3.484375 
Q 12.546875 8.203125 8.765625 17.140625 
Q 4.984375 26.078125 4.984375 36.328125 
Q 4.984375 47.515625 9.25 55.828125 
Q 13.53125 64.15625 21.40625 68.46875 
Q 29.296875 72.796875 38.765625 72.796875 
Q 49.515625 72.796875 56.828125 67.328125 
Q 64.15625 61.859375 67.046875 51.953125 
L 57.71875 49.75 
Q 55.21875 57.5625 50.484375 61.125 
Q 45.75 64.703125 38.578125 64.703125 
Q 30.328125 64.703125 24.78125 60.734375 
Q 19.234375 56.78125 16.984375 50.109375 
Q 14.75 43.453125 14.75 36.375 
Q 14.75 27.25 17.40625 20.4375 
Q 20.0625 13.625 25.671875 10.25 
Q 31.296875 6.890625 37.84375 6.890625 
Q 45.796875 6.890625 51.3125 11.46875 
Q 56.84375 16.0625 58.796875 25.09375 
z
" id="ArialMT-67"/>
      <path d="M 3.078125 15.484375 
L 11.765625 16.84375 
Q 12.5 11.625 15.84375 8.84375 
Q 19.1875 6.0625 25.203125 6.0625 
Q 31.25 6.0625 34.171875 8.515625 
Q 37.109375 10.984375 37.109375 14.3125 
Q 37.109375 17.28125 34.515625 19 
Q 32.71875 20.171875 25.53125 21.96875 
Q 15.875 24.421875 12.140625 26.203125 
Q 8.40625 27.984375 6.46875 31.125 
Q 4.546875 34.28125 4.546875 38.09375 
Q 4.546875 41.546875 6.125 44.5 
Q 7.71875 47.46875 10.453125 49.421875 
Q 12.5 50.921875 16.03125 51.96875 
Q 19.578125 53.03125 23.640625 53.03125 
Q 29.734375 53.03125 34.34375 51.265625 
Q 38.96875 49.515625 41.15625 46.5 
Q 43.359375 43.5 44.1875 38.484375 
L 35.59375 37.3125 
Q 35.015625 41.3125 32.203125 43.546875 
Q 29.390625 45.796875 24.265625 45.796875 
Q 18.21875 45.796875 15.625 43.796875 
Q 13.03125 41.796875 13.03125 39.109375 
Q 13.03125 37.40625 14.109375 36.03125 
Q 15.1875 34.625 17.484375 33.6875 
Q 18.796875 33.203125 25.25 31.453125 
Q 34.578125 28.953125 38.25 27.359375 
Q 41.9375 25.78125 44.03125 22.75 
Q 46.140625 19.734375 46.140625 15.234375 
Q 46.140625 10.84375 43.578125 6.953125 
Q 41.015625 3.078125 36.171875 0.953125 
Q 31.34375 -1.171875 25.25 -1.171875 
Q 15.140625 -1.171875 9.84375 3.03125 
Q 4.546875 7.234375 3.078125 15.484375 
z
" id="ArialMT-115"/>
     </defs>
     <g style="fill:#262626;" transform="translate(185.120397 145.651375)scale(0.096 -0.096)">
      <use xlink:href="#ArialMT-78"/>
      <use x="72.216797" xlink:href="#ArialMT-117"/>
      <use x="127.832031" xlink:href="#ArialMT-109"/>
      <use x="211.132812" xlink:href="#ArialMT-98"/>
      <use x="266.748047" xlink:href="#ArialMT-101"/>
      <use x="322.363281" xlink:href="#ArialMT-114"/>
      <use x="355.664062" xlink:href="#ArialMT-32"/>
      <use x="383.447266" xlink:href="#ArialMT-111"/>
      <use x="439.0625" xlink:href="#ArialMT-102"/>
      <use x="466.845703" xlink:href="#ArialMT-32"/>
      <use x="494.628906" xlink:href="#ArialMT-67"/>
      <use x="566.845703" xlink:href="#ArialMT-111"/>
      <use x="622.460938" xlink:href="#ArialMT-114"/>
      <use x="655.761719" xlink:href="#ArialMT-101"/>
      <use x="711.376953" xlink:href="#ArialMT-115"/>
     </g>
    </g>
   </g>
   <g id="matplotlib.axis_2">
    <g id="ytick_1">
     <g id="line2d_7">
      <path clip-path="url(#p9d1d5be958)" d="M 83.452044 81.078933 
L 359.87625 81.078933 
" style="fill:none;stroke:#cccccc;stroke-linecap:round;stroke-width:0.8;"/>
     </g>
     <g id="text_8">
      <!-- $\mathdefault{10^{-6}}$ -->
      <defs>
       <path d="M 52.828125 31.203125 
L 5.5625 31.203125 
L 5.5625 39.40625 
L 52.828125 39.40625 
z
" id="ArialMT-8722"/>
       <path d="M 49.75 54.046875 
L 41.015625 53.375 
Q 39.84375 58.546875 37.703125 60.890625 
Q 34.125 64.65625 28.90625 64.65625 
Q 24.703125 64.65625 21.53125 62.3125 
Q 17.390625 59.28125 14.984375 53.46875 
Q 12.59375 47.65625 12.5 36.921875 
Q 15.671875 41.75 20.265625 44.09375 
Q 24.859375 46.4375 29.890625 46.4375 
Q 38.671875 46.4375 44.84375 39.96875 
Q 51.03125 33.5 51.03125 23.25 
Q 51.03125 16.5 48.125 10.71875 
Q 45.21875 4.9375 40.140625 1.859375 
Q 35.0625 -1.21875 28.609375 -1.21875 
Q 17.625 -1.21875 10.6875 6.859375 
Q 3.765625 14.9375 3.765625 33.5 
Q 3.765625 54.25 11.421875 63.671875 
Q 18.109375 71.875 29.4375 71.875 
Q 37.890625 71.875 43.28125 67.140625 
Q 48.6875 62.40625 49.75 54.046875 
z
M 13.875 23.1875 
Q 13.875 18.65625 15.796875 14.5 
Q 17.71875 10.359375 21.1875 8.171875 
Q 24.65625 6 28.46875 6 
Q 34.03125 6 38.03125 10.484375 
Q 42.046875 14.984375 42.046875 22.703125 
Q 42.046875 30.125 38.078125 34.390625 
Q 34.125 38.671875 28.125 38.671875 
Q 22.171875 38.671875 18.015625 34.390625 
Q 13.875 30.125 13.875 23.1875 
z
" id="ArialMT-54"/>
      </defs>
      <g style="fill:#262626;" transform="translate(57.728044 85.616433)scale(0.088 -0.088)">
       <use transform="translate(0 0.99375)" xlink:href="#ArialMT-49"/>
       <use transform="translate(55.615234 0.99375)" xlink:href="#ArialMT-48"/>
       <use transform="translate(112.972813 70.6875)scale(0.7)" xlink:href="#ArialMT-8722"/>
       <use transform="translate(153.851719 70.6875)scale(0.7)" xlink:href="#ArialMT-54"/>
      </g>
     </g>
    </g>
    <g id="ytick_2">
     <g id="line2d_8">
      <path clip-path="url(#p9d1d5be958)" d="M 83.452044 115.315766 
L 359.87625 115.315766 
" style="fill:none;stroke:#cccccc;stroke-linecap:round;stroke-width:0.8;"/>
     </g>
    </g>
    <g id="ytick_3">
     <g id="line2d_9">
      <path clip-path="url(#p9d1d5be958)" d="M 83.452044 107.13508 
L 359.87625 107.13508 
" style="fill:none;stroke:#cccccc;stroke-linecap:round;stroke-width:0.8;"/>
     </g>
    </g>
    <g id="ytick_4">
     <g id="line2d_10">
      <path clip-path="url(#p9d1d5be958)" d="M 83.452044 100.789648 
L 359.87625 100.789648 
" style="fill:none;stroke:#cccccc;stroke-linecap:round;stroke-width:0.8;"/>
     </g>
    </g>
    <g id="ytick_5">
     <g id="line2d_11">
      <path clip-path="url(#p9d1d5be958)" d="M 83.452044 95.605052 
L 359.87625 95.605052 
" style="fill:none;stroke:#cccccc;stroke-linecap:round;stroke-width:0.8;"/>
     </g>
    </g>
    <g id="ytick_6">
     <g id="line2d_12">
      <path clip-path="url(#p9d1d5be958)" d="M 83.452044 91.221538 
L 359.87625 91.221538 
" style="fill:none;stroke:#cccccc;stroke-linecap:round;stroke-width:0.8;"/>
     </g>
    </g>
    <g id="ytick_7">
     <g id="line2d_13">
      <path clip-path="url(#p9d1d5be958)" d="M 83.452044 87.424366 
L 359.87625 87.424366 
" style="fill:none;stroke:#cccccc;stroke-linecap:round;stroke-width:0.8;"/>
     </g>
    </g>
    <g id="ytick_8">
     <g id="line2d_14">
      <path clip-path="url(#p9d1d5be958)" d="M 83.452044 84.075023 
L 359.87625 84.075023 
" style="fill:none;stroke:#cccccc;stroke-linecap:round;stroke-width:0.8;"/>
     </g>
    </g>
    <g id="ytick_9">
     <g id="line2d_15">
      <path clip-path="url(#p9d1d5be958)" d="M 83.452044 61.368219 
L 359.87625 61.368219 
" style="fill:none;stroke:#cccccc;stroke-linecap:round;stroke-width:0.8;"/>
     </g>
    </g>
    <g id="ytick_10">
     <g id="line2d_16">
      <path clip-path="url(#p9d1d5be958)" d="M 83.452044 49.838191 
L 359.87625 49.838191 
" style="fill:none;stroke:#cccccc;stroke-linecap:round;stroke-width:0.8;"/>
     </g>
    </g>
    <g id="ytick_11">
     <g id="line2d_17">
      <path clip-path="url(#p9d1d5be958)" d="M 83.452044 41.657505 
L 359.87625 41.657505 
" style="fill:none;stroke:#cccccc;stroke-linecap:round;stroke-width:0.8;"/>
     </g>
    </g>
    <g id="ytick_12">
     <g id="line2d_18">
      <path clip-path="url(#p9d1d5be958)" d="M 83.452044 35.312073 
L 359.87625 35.312073 
" style="fill:none;stroke:#cccccc;stroke-linecap:round;stroke-width:0.8;"/>
     </g>
    </g>
    <g id="ytick_13">
     <g id="line2d_19">
      <path clip-path="url(#p9d1d5be958)" d="M 83.452044 30.127477 
L 359.87625 30.127477 
" style="fill:none;stroke:#cccccc;stroke-linecap:round;stroke-width:0.8;"/>
     </g>
    </g>
    <g id="ytick_14">
     <g id="line2d_20">
      <path clip-path="url(#p9d1d5be958)" d="M 83.452044 25.743963 
L 359.87625 25.743963 
" style="fill:none;stroke:#cccccc;stroke-linecap:round;stroke-width:0.8;"/>
     </g>
    </g>
    <g id="text_9">
     <!-- time_index / Txn -->
     <defs>
      <path d="M 25.78125 7.859375 
L 27.046875 0.09375 
Q 23.34375 -0.6875 20.40625 -0.6875 
Q 15.625 -0.6875 12.984375 0.828125 
Q 10.359375 2.34375 9.28125 4.8125 
Q 8.203125 7.28125 8.203125 15.1875 
L 8.203125 45.015625 
L 1.765625 45.015625 
L 1.765625 51.859375 
L 8.203125 51.859375 
L 8.203125 64.703125 
L 16.9375 69.96875 
L 16.9375 51.859375 
L 25.78125 51.859375 
L 25.78125 45.015625 
L 16.9375 45.015625 
L 16.9375 14.703125 
Q 16.9375 10.9375 17.40625 9.859375 
Q 17.875 8.796875 18.921875 8.15625 
Q 19.96875 7.515625 21.921875 7.515625 
Q 23.390625 7.515625 25.78125 7.859375 
z
" id="ArialMT-116"/>
      <path d="M 6.640625 61.46875 
L 6.640625 71.578125 
L 15.4375 71.578125 
L 15.4375 61.46875 
z
M 6.640625 0 
L 6.640625 51.859375 
L 15.4375 51.859375 
L 15.4375 0 
z
" id="ArialMT-105"/>
      <path d="M -1.515625 -19.875 
L -1.515625 -13.53125 
L 56.734375 -13.53125 
L 56.734375 -19.875 
z
" id="ArialMT-95"/>
      <path d="M 6.59375 0 
L 6.59375 51.859375 
L 14.5 51.859375 
L 14.5 44.484375 
Q 20.21875 53.03125 31 53.03125 
Q 35.6875 53.03125 39.625 51.34375 
Q 43.5625 49.65625 45.515625 46.921875 
Q 47.46875 44.1875 48.25 40.4375 
Q 48.734375 37.984375 48.734375 31.890625 
L 48.734375 0 
L 39.9375 0 
L 39.9375 31.546875 
Q 39.9375 36.921875 38.90625 39.578125 
Q 37.890625 42.234375 35.28125 43.8125 
Q 32.671875 45.40625 29.15625 45.40625 
Q 23.53125 45.40625 19.453125 41.84375 
Q 15.375 38.28125 15.375 28.328125 
L 15.375 0 
z
" id="ArialMT-110"/>
      <path d="M 40.234375 0 
L 40.234375 6.546875 
Q 35.296875 -1.171875 25.734375 -1.171875 
Q 19.53125 -1.171875 14.328125 2.25 
Q 9.125 5.671875 6.265625 11.796875 
Q 3.421875 17.921875 3.421875 25.875 
Q 3.421875 33.640625 6 39.96875 
Q 8.59375 46.296875 13.765625 49.65625 
Q 18.953125 53.03125 25.34375 53.03125 
Q 30.03125 53.03125 33.6875 51.046875 
Q 37.359375 49.078125 39.65625 45.90625 
L 39.65625 71.578125 
L 48.390625 71.578125 
L 48.390625 0 
z
M 12.453125 25.875 
Q 12.453125 15.921875 16.640625 10.984375 
Q 20.84375 6.0625 26.5625 6.0625 
Q 32.328125 6.0625 36.34375 10.765625 
Q 40.375 15.484375 40.375 25.140625 
Q 40.375 35.796875 36.265625 40.765625 
Q 32.171875 45.75 26.171875 45.75 
Q 20.3125 45.75 16.375 40.96875 
Q 12.453125 36.1875 12.453125 25.875 
z
" id="ArialMT-100"/>
      <path d="M 0.734375 0 
L 19.671875 26.953125 
L 2.15625 51.859375 
L 13.140625 51.859375 
L 21.09375 39.703125 
Q 23.34375 36.234375 24.703125 33.890625 
Q 26.859375 37.109375 28.65625 39.59375 
L 37.40625 51.859375 
L 47.90625 51.859375 
L 29.984375 27.4375 
L 49.265625 0 
L 38.484375 0 
L 27.828125 16.109375 
L 25 20.453125 
L 11.375 0 
z
" id="ArialMT-120"/>
      <path d="M 0 -1.21875 
L 20.75 72.796875 
L 27.78125 72.796875 
L 7.078125 -1.21875 
z
" id="ArialMT-47"/>
      <path d="M 25.921875 0 
L 25.921875 63.140625 
L 2.34375 63.140625 
L 2.34375 71.578125 
L 59.078125 71.578125 
L 59.078125 63.140625 
L 35.40625 63.140625 
L 35.40625 0 
z
" id="ArialMT-84"/>
     </defs>
     <g style="fill:#262626;" transform="translate(51.820044 109.36175)rotate(-90)scale(0.096 -0.096)">
      <use xlink:href="#ArialMT-116"/>
      <use x="27.783203" xlink:href="#ArialMT-105"/>
      <use x="50" xlink:href="#ArialMT-109"/>
      <use x="133.300781" xlink:href="#ArialMT-101"/>
      <use x="188.916016" xlink:href="#ArialMT-95"/>
      <use x="244.53125" xlink:href="#ArialMT-105"/>
      <use x="266.748047" xlink:href="#ArialMT-110"/>
      <use x="322.363281" xlink:href="#ArialMT-100"/>
      <use x="377.978516" xlink:href="#ArialMT-101"/>
      <use x="433.59375" xlink:href="#ArialMT-120"/>
      <use x="483.59375" xlink:href="#ArialMT-32"/>
      <use x="511.376953" xlink:href="#ArialMT-47"/>
      <use x="539.160156" xlink:href="#ArialMT-32"/>
      <use x="566.927734" xlink:href="#ArialMT-84"/>
      <use x="628.011719" xlink:href="#ArialMT-120"/>
      <use x="678.011719" xlink:href="#ArialMT-110"/>
     </g>
    </g>
   </g>
   <g id="LineCollection_1">
    <path clip-path="url(#p9d1d5be958)" d="M 84.392423 117.373311 
L 84.392423 113.006398 
" style="fill:none;stroke:#f15854;stroke-linecap:round;stroke-width:1.2;"/>
    <path clip-path="url(#p9d1d5be958)" d="M 87.213557 98.729997 
L 87.213557 98.38854 
" style="fill:none;stroke:#f15854;stroke-linecap:round;stroke-width:1.2;"/>
    <path clip-path="url(#p9d1d5be958)" d="M 90.975071 99.050172 
L 90.975071 99.012285 
" style="fill:none;stroke:#f15854;stroke-linecap:round;stroke-width:1.2;"/>
    <path clip-path="url(#p9d1d5be958)" d="M 98.498097 96.66412 
L 98.498097 96.416601 
" style="fill:none;stroke:#f15854;stroke-linecap:round;stroke-width:1.2;"/>
    <path clip-path="url(#p9d1d5be958)" d="M 109.782637 87.955342 
L 109.782637 87.812793 
" style="fill:none;stroke:#f15854;stroke-linecap:round;stroke-width:1.2;"/>
    <path clip-path="url(#p9d1d5be958)" d="M 136.11323 76.77942 
L 136.11323 76.286731 
" style="fill:none;stroke:#f15854;stroke-linecap:round;stroke-width:1.2;"/>
    <path clip-path="url(#p9d1d5be958)" d="M 188.774416 45.100735 
L 188.774416 43.344673 
" style="fill:none;stroke:#f15854;stroke-linecap:round;stroke-width:1.2;"/>
    <path clip-path="url(#p9d1d5be958)" d="M 241.435601 43.427389 
L 241.435601 43.285025 
" style="fill:none;stroke:#f15854;stroke-linecap:round;stroke-width:1.2;"/>
    <path clip-path="url(#p9d1d5be958)" d="M 294.096787 36.572135 
L 294.096787 33.700887 
" style="fill:none;stroke:#f15854;stroke-linecap:round;stroke-width:1.2;"/>
    <path clip-path="url(#p9d1d5be958)" d="M 346.757973 31.211195 
L 346.757973 27.984545 
" style="fill:none;stroke:#f15854;stroke-linecap:round;stroke-width:1.2;"/>
   </g>
   <g id="LineCollection_2">
    <path clip-path="url(#p9d1d5be958)" d="M 84.392423 117.728093 
L 84.392423 117.402878 
" style="fill:none;stroke:#decf3f;stroke-linecap:round;stroke-width:1.2;"/>
    <path clip-path="url(#p9d1d5be958)" d="M 87.213557 98.40046 
L 87.213557 98.21111 
" style="fill:none;stroke:#decf3f;stroke-linecap:round;stroke-width:1.2;"/>
    <path clip-path="url(#p9d1d5be958)" d="M 90.975071 102.615374 
L 90.975071 102.316295 
" style="fill:none;stroke:#decf3f;stroke-linecap:round;stroke-width:1.2;"/>
    <path clip-path="url(#p9d1d5be958)" d="M 98.498097 106.43123 
L 98.498097 106.280255 
" style="fill:none;stroke:#decf3f;stroke-linecap:round;stroke-width:1.2;"/>
    <path clip-path="url(#p9d1d5be958)" d="M 109.782637 106.983378 
L 109.782637 106.893469 
" style="fill:none;stroke:#decf3f;stroke-linecap:round;stroke-width:1.2;"/>
    <path clip-path="url(#p9d1d5be958)" d="M 136.11323 108.603831 
L 136.11323 108.481634 
" style="fill:none;stroke:#decf3f;stroke-linecap:round;stroke-width:1.2;"/>
    <path clip-path="url(#p9d1d5be958)" d="M 188.774416 101.390165 
L 188.774416 101.253557 
" style="fill:none;stroke:#decf3f;stroke-linecap:round;stroke-width:1.2;"/>
    <path clip-path="url(#p9d1d5be958)" d="M 241.435601 100.689076 
L 241.435601 100.032514 
" style="fill:none;stroke:#decf3f;stroke-linecap:round;stroke-width:1.2;"/>
    <path clip-path="url(#p9d1d5be958)" d="M 294.096787 98.447308 
L 294.096787 98.270458 
" style="fill:none;stroke:#decf3f;stroke-linecap:round;stroke-width:1.2;"/>
    <path clip-path="url(#p9d1d5be958)" d="M 346.757973 92.868404 
L 346.757973 92.50374 
" style="fill:none;stroke:#decf3f;stroke-linecap:round;stroke-width:1.2;"/>
   </g>
   <g id="LineCollection_3">
    <path clip-path="url(#p9d1d5be958)" d="M 84.392423 118.329765 
L 84.392423 117.225937 
" style="fill:none;stroke:#faa43a;stroke-linecap:round;stroke-width:1.2;"/>
    <path clip-path="url(#p9d1d5be958)" d="M 87.213557 98.604072 
L 87.213557 98.348983 
" style="fill:none;stroke:#faa43a;stroke-linecap:round;stroke-width:1.2;"/>
    <path clip-path="url(#p9d1d5be958)" d="M 90.975071 103.156247 
L 90.975071 102.879717 
" style="fill:none;stroke:#faa43a;stroke-linecap:round;stroke-width:1.2;"/>
    <path clip-path="url(#p9d1d5be958)" d="M 98.498097 107.969514 
L 98.498097 107.408032 
" style="fill:none;stroke:#faa43a;stroke-linecap:round;stroke-width:1.2;"/>
    <path clip-path="url(#p9d1d5be958)" d="M 109.782637 110.717739 
L 109.782637 110.613209 
" style="fill:none;stroke:#faa43a;stroke-linecap:round;stroke-width:1.2;"/>
    <path clip-path="url(#p9d1d5be958)" d="M 136.11323 113.237316 
L 136.11323 113.150307 
" style="fill:none;stroke:#faa43a;stroke-linecap:round;stroke-width:1.2;"/>
    <path clip-path="url(#p9d1d5be958)" d="M 188.774416 106.674235 
L 188.774416 106.146001 
" style="fill:none;stroke:#faa43a;stroke-linecap:round;stroke-width:1.2;"/>
    <path clip-path="url(#p9d1d5be958)" d="M 241.435601 104.566811 
L 241.435601 104.075682 
" style="fill:none;stroke:#faa43a;stroke-linecap:round;stroke-width:1.2;"/>
    <path clip-path="url(#p9d1d5be958)" d="M 294.096787 103.162081 
L 294.096787 103.003002 
" style="fill:none;stroke:#faa43a;stroke-linecap:round;stroke-width:1.2;"/>
    <path clip-path="url(#p9d1d5be958)" d="M 346.757973 99.463068 
L 346.757973 99.094343 
" style="fill:none;stroke:#faa43a;stroke-linecap:round;stroke-width:1.2;"/>
   </g>
   <g id="LineCollection_4">
    <path clip-path="url(#p9d1d5be958)" d="M 84.392423 106.713801 
L 84.392423 106.628473 
" style="fill:none;stroke:#5da5da;stroke-linecap:round;stroke-width:1.2;"/>
    <path clip-path="url(#p9d1d5be958)" d="M 87.213557 96.295102 
L 87.213557 95.825513 
" style="fill:none;stroke:#5da5da;stroke-linecap:round;stroke-width:1.2;"/>
    <path clip-path="url(#p9d1d5be958)" d="M 90.975071 96.130776 
L 90.975071 95.896303 
" style="fill:none;stroke:#5da5da;stroke-linecap:round;stroke-width:1.2;"/>
    <path clip-path="url(#p9d1d5be958)" d="M 98.498097 96.272303 
L 98.498097 96.10491 
" style="fill:none;stroke:#5da5da;stroke-linecap:round;stroke-width:1.2;"/>
    <path clip-path="url(#p9d1d5be958)" d="M 109.782637 95.821689 
L 109.782637 95.385658 
" style="fill:none;stroke:#5da5da;stroke-linecap:round;stroke-width:1.2;"/>
    <path clip-path="url(#p9d1d5be958)" d="M 136.11323 98.525496 
L 136.11323 98.26194 
" style="fill:none;stroke:#5da5da;stroke-linecap:round;stroke-width:1.2;"/>
    <path clip-path="url(#p9d1d5be958)" d="M 188.774416 90.555211 
L 188.774416 90.064747 
" style="fill:none;stroke:#5da5da;stroke-linecap:round;stroke-width:1.2;"/>
    <path clip-path="url(#p9d1d5be958)" d="M 241.435601 87.642998 
L 241.435601 87.238401 
" style="fill:none;stroke:#5da5da;stroke-linecap:round;stroke-width:1.2;"/>
    <path clip-path="url(#p9d1d5be958)" d="M 294.096787 86.196822 
L 294.096787 86.108664 
" style="fill:none;stroke:#5da5da;stroke-linecap:round;stroke-width:1.2;"/>
    <path clip-path="url(#p9d1d5be958)" d="M 346.757973 75.185976 
L 346.757973 73.847167 
" style="fill:none;stroke:#5da5da;stroke-linecap:round;stroke-width:1.2;"/>
   </g>
   <g id="LineCollection_5">
    <path clip-path="url(#p9d1d5be958)" d="M 84.392423 116.213208 
L 84.392423 116.093134 
" style="fill:none;stroke:#b276b2;stroke-linecap:round;stroke-width:1.2;"/>
    <path clip-path="url(#p9d1d5be958)" d="M 87.213557 101.769038 
L 87.213557 101.440908 
" style="fill:none;stroke:#b276b2;stroke-linecap:round;stroke-width:1.2;"/>
    <path clip-path="url(#p9d1d5be958)" d="M 90.975071 106.005436 
L 90.975071 105.356961 
" style="fill:none;stroke:#b276b2;stroke-linecap:round;stroke-width:1.2;"/>
    <path clip-path="url(#p9d1d5be958)" d="M 98.498097 114.017133 
L 98.498097 113.67978 
" style="fill:none;stroke:#b276b2;stroke-linecap:round;stroke-width:1.2;"/>
    <path clip-path="url(#p9d1d5be958)" d="M 109.782637 115.478009 
L 109.782637 115.077375 
" style="fill:none;stroke:#b276b2;stroke-linecap:round;stroke-width:1.2;"/>
    <path clip-path="url(#p9d1d5be958)" d="M 136.11323 120.315455 
L 136.11323 120.281583 
" style="fill:none;stroke:#b276b2;stroke-linecap:round;stroke-width:1.2;"/>
    <path clip-path="url(#p9d1d5be958)" d="M 188.774416 119.805103 
L 188.774416 119.769955 
" style="fill:none;stroke:#b276b2;stroke-linecap:round;stroke-width:1.2;"/>
    <path clip-path="url(#p9d1d5be958)" d="M 241.435601 119.825654 
L 241.435601 119.718409 
" style="fill:none;stroke:#b276b2;stroke-linecap:round;stroke-width:1.2;"/>
    <path clip-path="url(#p9d1d5be958)" d="M 294.096787 119.988388 
L 294.096787 119.556366 
" style="fill:none;stroke:#b276b2;stroke-linecap:round;stroke-width:1.2;"/>
    <path clip-path="url(#p9d1d5be958)" d="M 346.757973 118.824665 
L 346.757973 118.670979 
" style="fill:none;stroke:#b276b2;stroke-linecap:round;stroke-width:1.2;"/>
   </g>
   <g id="LineCollection_6">
    <path clip-path="url(#p9d1d5be958)" d="M 84.392423 95.517507 
L 84.392423 95.376113 
" style="fill:none;stroke:#4d4d4d;stroke-linecap:round;stroke-width:1.2;"/>
    <path clip-path="url(#p9d1d5be958)" d="M 87.213557 95.681043 
L 87.213557 93.936839 
" style="fill:none;stroke:#4d4d4d;stroke-linecap:round;stroke-width:1.2;"/>
    <path clip-path="url(#p9d1d5be958)" d="M 90.975071 94.180758 
L 90.975071 93.962325 
" style="fill:none;stroke:#4d4d4d;stroke-linecap:round;stroke-width:1.2;"/>
    <path clip-path="url(#p9d1d5be958)" d="M 98.498097 92.866984 
L 98.498097 92.50038 
" style="fill:none;stroke:#4d4d4d;stroke-linecap:round;stroke-width:1.2;"/>
    <path clip-path="url(#p9d1d5be958)" d="M 109.782637 92.182269 
L 109.782637 91.658315 
" style="fill:none;stroke:#4d4d4d;stroke-linecap:round;stroke-width:1.2;"/>
    <path clip-path="url(#p9d1d5be958)" d="M 136.11323 91.4138 
L 136.11323 91.344577 
" style="fill:none;stroke:#4d4d4d;stroke-linecap:round;stroke-width:1.2;"/>
    <path clip-path="url(#p9d1d5be958)" d="M 188.774416 74.29494 
L 188.774416 74.005731 
" style="fill:none;stroke:#4d4d4d;stroke-linecap:round;stroke-width:1.2;"/>
    <path clip-path="url(#p9d1d5be958)" d="M 241.435601 68.209091 
L 241.435601 67.018932 
" style="fill:none;stroke:#4d4d4d;stroke-linecap:round;stroke-width:1.2;"/>
    <path clip-path="url(#p9d1d5be958)" d="M 294.096787 63.251087 
L 294.096787 63.143471 
" style="fill:none;stroke:#4d4d4d;stroke-linecap:round;stroke-width:1.2;"/>
    <path clip-path="url(#p9d1d5be958)" d="M 346.757973 52.323774 
L 346.757973 51.820907 
" style="fill:none;stroke:#4d4d4d;stroke-linecap:round;stroke-width:1.2;"/>
   </g>
   <g id="line2d_21">
    <path clip-path="url(#p9d1d5be958)" d="M 84.392423 117.165177 
L 87.213557 98.508664 
L 90.975071 99.047453 
L 98.498097 96.542028 
L 109.782637 87.825625 
L 136.11323 76.287249 
L 188.774416 44.23554 
L 241.435601 43.352372 
L 294.096787 36.498848 
L 346.757973 29.953529 
" style="fill:none;stroke:#f15854;stroke-linecap:round;stroke-width:1.2;"/>
    <defs>
     <path d="M 0 2.4 
C 0.636487 2.4 1.246992 2.147121 1.697056 1.697056 
C 2.147121 1.246992 2.4 0.636487 2.4 0 
C 2.4 -0.636487 2.147121 -1.246992 1.697056 -1.697056 
C 1.246992 -2.147121 0.636487 -2.4 0 -2.4 
C -0.636487 -2.4 -1.246992 -2.147121 -1.697056 -1.697056 
C -2.147121 -1.246992 -2.4 -0.636487 -2.4 0 
C -2.4 0.636487 -2.147121 1.246992 -1.697056 1.697056 
C -1.246992 2.147121 -0.636487 2.4 0 2.4 
z
" id="m923ef8d1f0" style="stroke:#ffffff;stroke-width:0.75;"/>
    </defs>
    <g clip-path="url(#p9d1d5be958)">
     <use style="fill:#f15854;stroke:#ffffff;stroke-width:0.75;" x="84.392423" xlink:href="#m923ef8d1f0" y="117.165177"/>
     <use style="fill:#f15854;stroke:#ffffff;stroke-width:0.75;" x="87.213557" xlink:href="#m923ef8d1f0" y="98.508664"/>
     <use style="fill:#f15854;stroke:#ffffff;stroke-width:0.75;" x="90.975071" xlink:href="#m923ef8d1f0" y="99.047453"/>
     <use style="fill:#f15854;stroke:#ffffff;stroke-width:0.75;" x="98.498097" xlink:href="#m923ef8d1f0" y="96.542028"/>
     <use style="fill:#f15854;stroke:#ffffff;stroke-width:0.75;" x="109.782637" xlink:href="#m923ef8d1f0" y="87.825625"/>
     <use style="fill:#f15854;stroke:#ffffff;stroke-width:0.75;" x="136.11323" xlink:href="#m923ef8d1f0" y="76.287249"/>
     <use style="fill:#f15854;stroke:#ffffff;stroke-width:0.75;" x="188.774416" xlink:href="#m923ef8d1f0" y="44.23554"/>
     <use style="fill:#f15854;stroke:#ffffff;stroke-width:0.75;" x="241.435601" xlink:href="#m923ef8d1f0" y="43.352372"/>
     <use style="fill:#f15854;stroke:#ffffff;stroke-width:0.75;" x="294.096787" xlink:href="#m923ef8d1f0" y="36.498848"/>
     <use style="fill:#f15854;stroke:#ffffff;stroke-width:0.75;" x="346.757973" xlink:href="#m923ef8d1f0" y="29.953529"/>
    </g>
   </g>
   <g id="line2d_22">
    <path clip-path="url(#p9d1d5be958)" d="M 84.392423 117.598382 
L 87.213557 98.224941 
L 90.975071 102.441513 
L 98.498097 106.282786 
L 109.782637 106.969965 
L 136.11323 108.542667 
L 188.774416 101.324607 
L 241.435601 100.141646 
L 294.096787 98.372617 
L 346.757973 92.605965 
" style="fill:none;stroke:#decf3f;stroke-linecap:round;stroke-width:1.2;"/>
    <defs>
     <path d="M -2.4 2.4 
L 2.4 2.4 
L 2.4 -2.4 
L -2.4 -2.4 
z
" id="m1c79eacd51" style="stroke:#ffffff;stroke-linejoin:miter;stroke-width:0.75;"/>
    </defs>
    <g clip-path="url(#p9d1d5be958)">
     <use style="fill:#decf3f;stroke:#ffffff;stroke-linejoin:miter;stroke-width:0.75;" x="84.392423" xlink:href="#m1c79eacd51" y="117.598382"/>
     <use style="fill:#decf3f;stroke:#ffffff;stroke-linejoin:miter;stroke-width:0.75;" x="87.213557" xlink:href="#m1c79eacd51" y="98.224941"/>
     <use style="fill:#decf3f;stroke:#ffffff;stroke-linejoin:miter;stroke-width:0.75;" x="90.975071" xlink:href="#m1c79eacd51" y="102.441513"/>
     <use style="fill:#decf3f;stroke:#ffffff;stroke-linejoin:miter;stroke-width:0.75;" x="98.498097" xlink:href="#m1c79eacd51" y="106.282786"/>
     <use style="fill:#decf3f;stroke:#ffffff;stroke-linejoin:miter;stroke-width:0.75;" x="109.782637" xlink:href="#m1c79eacd51" y="106.969965"/>
     <use style="fill:#decf3f;stroke:#ffffff;stroke-linejoin:miter;stroke-width:0.75;" x="136.11323" xlink:href="#m1c79eacd51" y="108.542667"/>
     <use style="fill:#decf3f;stroke:#ffffff;stroke-linejoin:miter;stroke-width:0.75;" x="188.774416" xlink:href="#m1c79eacd51" y="101.324607"/>
     <use style="fill:#decf3f;stroke:#ffffff;stroke-linejoin:miter;stroke-width:0.75;" x="241.435601" xlink:href="#m1c79eacd51" y="100.141646"/>
     <use style="fill:#decf3f;stroke:#ffffff;stroke-linejoin:miter;stroke-width:0.75;" x="294.096787" xlink:href="#m1c79eacd51" y="98.372617"/>
     <use style="fill:#decf3f;stroke:#ffffff;stroke-linejoin:miter;stroke-width:0.75;" x="346.757973" xlink:href="#m1c79eacd51" y="92.605965"/>
    </g>
   </g>
   <g id="line2d_23">
    <path clip-path="url(#p9d1d5be958)" d="M 84.392423 118.164787 
L 87.213557 98.456914 
L 90.975071 102.986711 
L 98.498097 107.733293 
L 109.782637 110.687718 
L 136.11323 113.227626 
L 188.774416 106.180577 
L 241.435601 104.54804 
L 294.096787 103.050743 
L 346.757973 99.225168 
" style="fill:none;stroke:#faa43a;stroke-linecap:round;stroke-width:1.2;"/>
    <defs>
     <path d="M 0 3.394113 
L 2.036468 0 
L 0 -3.394113 
L -2.036468 0 
z
" id="me7db307c91" style="stroke:#ffffff;stroke-linejoin:miter;stroke-width:0.75;"/>
    </defs>
    <g clip-path="url(#p9d1d5be958)">
     <use style="fill:#faa43a;stroke:#ffffff;stroke-linejoin:miter;stroke-width:0.75;" x="84.392423" xlink:href="#me7db307c91" y="118.164787"/>
     <use style="fill:#faa43a;stroke:#ffffff;stroke-linejoin:miter;stroke-width:0.75;" x="87.213557" xlink:href="#me7db307c91" y="98.456914"/>
     <use style="fill:#faa43a;stroke:#ffffff;stroke-linejoin:miter;stroke-width:0.75;" x="90.975071" xlink:href="#me7db307c91" y="102.986711"/>
     <use style="fill:#faa43a;stroke:#ffffff;stroke-linejoin:miter;stroke-width:0.75;" x="98.498097" xlink:href="#me7db307c91" y="107.733293"/>
     <use style="fill:#faa43a;stroke:#ffffff;stroke-linejoin:miter;stroke-width:0.75;" x="109.782637" xlink:href="#me7db307c91" y="110.687718"/>
     <use style="fill:#faa43a;stroke:#ffffff;stroke-linejoin:miter;stroke-width:0.75;" x="136.11323" xlink:href="#me7db307c91" y="113.227626"/>
     <use style="fill:#faa43a;stroke:#ffffff;stroke-linejoin:miter;stroke-width:0.75;" x="188.774416" xlink:href="#me7db307c91" y="106.180577"/>
     <use style="fill:#faa43a;stroke:#ffffff;stroke-linejoin:miter;stroke-width:0.75;" x="241.435601" xlink:href="#me7db307c91" y="104.54804"/>
     <use style="fill:#faa43a;stroke:#ffffff;stroke-linejoin:miter;stroke-width:0.75;" x="294.096787" xlink:href="#me7db307c91" y="103.050743"/>
     <use style="fill:#faa43a;stroke:#ffffff;stroke-linejoin:miter;stroke-width:0.75;" x="346.757973" xlink:href="#me7db307c91" y="99.225168"/>
    </g>
   </g>
   <g id="line2d_24">
    <path clip-path="url(#p9d1d5be958)" d="M 84.392423 106.694195 
L 87.213557 96.014454 
L 90.975071 96.037633 
L 98.498097 96.113639 
L 109.782637 95.734229 
L 136.11323 98.479837 
L 188.774416 90.289173 
L 241.435601 87.306363 
L 294.096787 86.177279 
L 346.757973 74.464027 
" style="fill:none;stroke:#5da5da;stroke-linecap:round;stroke-width:1.2;"/>
    <defs>
     <path d="M 0 -2.4 
L -2.282536 -0.741641 
L -1.410685 1.941641 
L 1.410685 1.941641 
L 2.282536 -0.741641 
z
" id="m1430adcdce" style="stroke:#ffffff;stroke-linejoin:miter;stroke-width:0.75;"/>
    </defs>
    <g clip-path="url(#p9d1d5be958)">
     <use style="fill:#5da5da;stroke:#ffffff;stroke-linejoin:miter;stroke-width:0.75;" x="84.392423" xlink:href="#m1430adcdce" y="106.694195"/>
     <use style="fill:#5da5da;stroke:#ffffff;stroke-linejoin:miter;stroke-width:0.75;" x="87.213557" xlink:href="#m1430adcdce" y="96.014454"/>
     <use style="fill:#5da5da;stroke:#ffffff;stroke-linejoin:miter;stroke-width:0.75;" x="90.975071" xlink:href="#m1430adcdce" y="96.037633"/>
     <use style="fill:#5da5da;stroke:#ffffff;stroke-linejoin:miter;stroke-width:0.75;" x="98.498097" xlink:href="#m1430adcdce" y="96.113639"/>
     <use style="fill:#5da5da;stroke:#ffffff;stroke-linejoin:miter;stroke-width:0.75;" x="109.782637" xlink:href="#m1430adcdce" y="95.734229"/>
     <use style="fill:#5da5da;stroke:#ffffff;stroke-linejoin:miter;stroke-width:0.75;" x="136.11323" xlink:href="#m1430adcdce" y="98.479837"/>
     <use style="fill:#5da5da;stroke:#ffffff;stroke-linejoin:miter;stroke-width:0.75;" x="188.774416" xlink:href="#m1430adcdce" y="90.289173"/>
     <use style="fill:#5da5da;stroke:#ffffff;stroke-linejoin:miter;stroke-width:0.75;" x="241.435601" xlink:href="#m1430adcdce" y="87.306363"/>
     <use style="fill:#5da5da;stroke:#ffffff;stroke-linejoin:miter;stroke-width:0.75;" x="294.096787" xlink:href="#m1430adcdce" y="86.177279"/>
     <use style="fill:#5da5da;stroke:#ffffff;stroke-linejoin:miter;stroke-width:0.75;" x="346.757973" xlink:href="#m1430adcdce" y="74.464027"/>
    </g>
   </g>
   <g id="line2d_25">
    <path clip-path="url(#p9d1d5be958)" d="M 84.392423 116.16043 
L 87.213557 101.723523 
L 90.975071 105.380559 
L 98.498097 113.765488 
L 109.782637 115.44781 
L 136.11323 120.310884 
L 188.774416 119.792541 
L 241.435601 119.819481 
L 294.096787 119.789097 
L 346.757973 118.743911 
" style="fill:none;stroke:#b276b2;stroke-linecap:round;stroke-width:1.2;"/>
    <defs>
     <path d="M 0 2.4 
C 0.636487 2.4 1.246992 2.147121 1.697056 1.697056 
C 2.147121 1.246992 2.4 0.636487 2.4 0 
C 2.4 -0.636487 2.147121 -1.246992 1.697056 -1.697056 
C 1.246992 -2.147121 0.636487 -2.4 0 -2.4 
C -0.636487 -2.4 -1.246992 -2.147121 -1.697056 -1.697056 
C -2.147121 -1.246992 -2.4 -0.636487 -2.4 0 
C -2.4 0.636487 -2.147121 1.246992 -1.697056 1.697056 
C -1.246992 2.147121 -0.636487 2.4 0 2.4 
z
" id="mfa7f9ea5c8" style="stroke:#ffffff;stroke-width:0.75;"/>
    </defs>
    <g clip-path="url(#p9d1d5be958)">
     <use style="fill:#b276b2;stroke:#ffffff;stroke-width:0.75;" x="84.392423" xlink:href="#mfa7f9ea5c8" y="116.16043"/>
     <use style="fill:#b276b2;stroke:#ffffff;stroke-width:0.75;" x="87.213557" xlink:href="#mfa7f9ea5c8" y="101.723523"/>
     <use style="fill:#b276b2;stroke:#ffffff;stroke-width:0.75;" x="90.975071" xlink:href="#mfa7f9ea5c8" y="105.380559"/>
     <use style="fill:#b276b2;stroke:#ffffff;stroke-width:0.75;" x="98.498097" xlink:href="#mfa7f9ea5c8" y="113.765488"/>
     <use style="fill:#b276b2;stroke:#ffffff;stroke-width:0.75;" x="109.782637" xlink:href="#mfa7f9ea5c8" y="115.44781"/>
     <use style="fill:#b276b2;stroke:#ffffff;stroke-width:0.75;" x="136.11323" xlink:href="#mfa7f9ea5c8" y="120.310884"/>
     <use style="fill:#b276b2;stroke:#ffffff;stroke-width:0.75;" x="188.774416" xlink:href="#mfa7f9ea5c8" y="119.792541"/>
     <use style="fill:#b276b2;stroke:#ffffff;stroke-width:0.75;" x="241.435601" xlink:href="#mfa7f9ea5c8" y="119.819481"/>
     <use style="fill:#b276b2;stroke:#ffffff;stroke-width:0.75;" x="294.096787" xlink:href="#mfa7f9ea5c8" y="119.789097"/>
     <use style="fill:#b276b2;stroke:#ffffff;stroke-width:0.75;" x="346.757973" xlink:href="#mfa7f9ea5c8" y="118.743911"/>
    </g>
   </g>
   <g id="line2d_26">
    <path clip-path="url(#p9d1d5be958)" d="M 84.392423 95.479261 
L 87.213557 95.589743 
L 90.975071 93.972864 
L 98.498097 92.506113 
L 109.782637 91.922793 
L 136.11323 91.384959 
L 188.774416 74.182498 
L 241.435601 68.189264 
L 294.096787 63.192066 
L 346.757973 51.855923 
" style="fill:none;stroke:#4d4d4d;stroke-linecap:round;stroke-width:1.2;"/>
    <defs>
     <path d="M -2.4 2.4 
L 2.4 2.4 
L 2.4 -2.4 
L -2.4 -2.4 
z
" id="m7996405a81" style="stroke:#ffffff;stroke-linejoin:miter;stroke-width:0.75;"/>
    </defs>
    <g clip-path="url(#p9d1d5be958)">
     <use style="fill:#4d4d4d;stroke:#ffffff;stroke-linejoin:miter;stroke-width:0.75;" x="84.392423" xlink:href="#m7996405a81" y="95.479261"/>
     <use style="fill:#4d4d4d;stroke:#ffffff;stroke-linejoin:miter;stroke-width:0.75;" x="87.213557" xlink:href="#m7996405a81" y="95.589743"/>
     <use style="fill:#4d4d4d;stroke:#ffffff;stroke-linejoin:miter;stroke-width:0.75;" x="90.975071" xlink:href="#m7996405a81" y="93.972864"/>
     <use style="fill:#4d4d4d;stroke:#ffffff;stroke-linejoin:miter;stroke-width:0.75;" x="98.498097" xlink:href="#m7996405a81" y="92.506113"/>
     <use style="fill:#4d4d4d;stroke:#ffffff;stroke-linejoin:miter;stroke-width:0.75;" x="109.782637" xlink:href="#m7996405a81" y="91.922793"/>
     <use style="fill:#4d4d4d;stroke:#ffffff;stroke-linejoin:miter;stroke-width:0.75;" x="136.11323" xlink:href="#m7996405a81" y="91.384959"/>
     <use style="fill:#4d4d4d;stroke:#ffffff;stroke-linejoin:miter;stroke-width:0.75;" x="188.774416" xlink:href="#m7996405a81" y="74.182498"/>
     <use style="fill:#4d4d4d;stroke:#ffffff;stroke-linejoin:miter;stroke-width:0.75;" x="241.435601" xlink:href="#m7996405a81" y="68.189264"/>
     <use style="fill:#4d4d4d;stroke:#ffffff;stroke-linejoin:miter;stroke-width:0.75;" x="294.096787" xlink:href="#m7996405a81" y="63.192066"/>
     <use style="fill:#4d4d4d;stroke:#ffffff;stroke-linejoin:miter;stroke-width:0.75;" x="346.757973" xlink:href="#m7996405a81" y="51.855923"/>
    </g>
   </g>
   <g id="line2d_27"/>
   <g id="line2d_28"/>
   <g id="line2d_29"/>
   <g id="line2d_30"/>
   <g id="line2d_31"/>
   <g id="line2d_32"/>
   <g id="line2d_33"/>
   <g id="line2d_34"/>
   <g id="line2d_35"/>
   <g id="line2d_36"/>
   <g id="line2d_37"/>
   <g id="line2d_38"/>
   <g id="line2d_39"/>
   <g id="patch_3">
    <path d="M 83.452044 124.932 
L 83.452044 23.368 
" style="fill:none;stroke:#cccccc;stroke-linecap:square;stroke-linejoin:miter;"/>
   </g>
   <g id="patch_4">
    <path d="M 359.87625 124.932 
L 359.87625 23.368 
" style="fill:none;stroke:#cccccc;stroke-linecap:square;stroke-linejoin:miter;"/>
   </g>
   <g id="patch_5">
    <path d="M 83.452044 124.932 
L 359.87625 124.932 
" style="fill:none;stroke:#cccccc;stroke-linecap:square;stroke-linejoin:miter;"/>
   </g>
   <g id="patch_6">
    <path d="M 83.452044 23.368 
L 359.87625 23.368 
" style="fill:none;stroke:#cccccc;stroke-linecap:square;stroke-linejoin:miter;"/>
   </g>
   <g id="text_10">
    <!-- True -->
    <g style="fill:#262626;" transform="translate(211.797897 17.368)scale(0.096 -0.096)">
     <use xlink:href="#ArialMT-84"/>
     <use x="61.037109" xlink:href="#ArialMT-114"/>
     <use x="94.337891" xlink:href="#ArialMT-117"/>
     <use x="149.953125" xlink:href="#ArialMT-101"/>
    </g>
   </g>
  </g>
  <g id="legend_1">
   <g id="line2d_40">
    <path d="M 362.9255 44.651313 
L 380.5255 44.651313 
" style="fill:none;"/>
   </g>
   <g id="line2d_41"/>
   <g id="text_11">
    <!-- CC -->
    <g style="fill:#262626;" transform="translate(387.5655 47.731313)scale(0.088 -0.088)">
     <use xlink:href="#ArialMT-67"/>
     <use x="72.216797" xlink:href="#ArialMT-67"/>
    </g>
   </g>
   <g id="line2d_42">
    <path d="M 362.9255 57.099188 
L 380.5255 57.099188 
" style="fill:none;stroke:#f15854;stroke-linecap:round;stroke-width:1.2;"/>
   </g>
   <g id="line2d_43">
    <defs>
     <path d="M 0 2.4 
C 0.636487 2.4 1.246992 2.147121 1.697056 1.697056 
C 2.147121 1.246992 2.4 0.636487 2.4 0 
C 2.4 -0.636487 2.147121 -1.246992 1.697056 -1.697056 
C 1.246992 -2.147121 0.636487 -2.4 0 -2.4 
C -0.636487 -2.4 -1.246992 -2.147121 -1.697056 -1.697056 
C -2.147121 -1.246992 -2.4 -0.636487 -2.4 0 
C -2.4 0.636487 -2.147121 1.246992 -1.697056 1.697056 
C -1.246992 2.147121 -0.636487 2.4 0 2.4 
z
" id="mf42bd7c778" style="stroke:#f15854;"/>
    </defs>
    <g>
     <use style="fill:#f15854;stroke:#f15854;" x="371.7255" xlink:href="#mf42bd7c778" y="57.099188"/>
    </g>
   </g>
   <g id="text_12">
    <!-- DL DETECT -->
    <defs>
     <path d="M 7.71875 0 
L 7.71875 71.578125 
L 32.375 71.578125 
Q 40.71875 71.578125 45.125 70.5625 
Q 51.265625 69.140625 55.609375 65.4375 
Q 61.28125 60.640625 64.078125 53.1875 
Q 66.890625 45.75 66.890625 36.1875 
Q 66.890625 28.03125 64.984375 21.734375 
Q 63.09375 15.4375 60.109375 11.296875 
Q 57.125 7.171875 53.578125 4.796875 
Q 50.046875 2.4375 45.046875 1.21875 
Q 40.046875 0 33.546875 0 
z
M 17.1875 8.453125 
L 32.46875 8.453125 
Q 39.546875 8.453125 43.578125 9.765625 
Q 47.609375 11.078125 50 13.484375 
Q 53.375 16.84375 55.25 22.53125 
Q 57.125 28.21875 57.125 36.328125 
Q 57.125 47.5625 53.4375 53.59375 
Q 49.75 59.625 44.484375 61.671875 
Q 40.671875 63.140625 32.234375 63.140625 
L 17.1875 63.140625 
z
" id="ArialMT-68"/>
     <path d="M 7.328125 0 
L 7.328125 71.578125 
L 16.796875 71.578125 
L 16.796875 8.453125 
L 52.046875 8.453125 
L 52.046875 0 
z
" id="ArialMT-76"/>
     <path d="M 7.90625 0 
L 7.90625 71.578125 
L 59.671875 71.578125 
L 59.671875 63.140625 
L 17.390625 63.140625 
L 17.390625 41.21875 
L 56.984375 41.21875 
L 56.984375 32.8125 
L 17.390625 32.8125 
L 17.390625 8.453125 
L 61.328125 8.453125 
L 61.328125 0 
z
" id="ArialMT-69"/>
    </defs>
    <g style="fill:#262626;" transform="translate(387.5655 60.179188)scale(0.088 -0.088)">
     <use xlink:href="#ArialMT-68"/>
     <use x="72.216797" xlink:href="#ArialMT-76"/>
     <use x="127.785156" xlink:href="#ArialMT-32"/>
     <use x="155.568359" xlink:href="#ArialMT-68"/>
     <use x="227.785156" xlink:href="#ArialMT-69"/>
     <use x="294.484375" xlink:href="#ArialMT-84"/>
     <use x="355.568359" xlink:href="#ArialMT-69"/>
     <use x="422.267578" xlink:href="#ArialMT-67"/>
     <use x="494.484375" xlink:href="#ArialMT-84"/>
    </g>
   </g>
   <g id="line2d_44">
    <path d="M 362.9255 69.547063 
L 380.5255 69.547063 
" style="fill:none;stroke:#decf3f;stroke-linecap:round;stroke-width:1.2;"/>
   </g>
   <g id="line2d_45">
    <defs>
     <path d="M -2.4 2.4 
L 2.4 2.4 
L 2.4 -2.4 
L -2.4 -2.4 
z
" id="mf03d0809a4" style="stroke:#decf3f;stroke-linejoin:miter;"/>
    </defs>
    <g>
     <use style="fill:#decf3f;stroke:#decf3f;stroke-linejoin:miter;" x="371.7255" xlink:href="#mf03d0809a4" y="69.547063"/>
    </g>
   </g>
   <g id="text_13">
    <!-- WAIT DIE -->
    <defs>
     <path d="M 20.21875 0 
L 1.21875 71.578125 
L 10.9375 71.578125 
L 21.828125 24.65625 
Q 23.578125 17.28125 24.859375 10.015625 
Q 27.59375 21.484375 28.078125 23.25 
L 41.703125 71.578125 
L 53.125 71.578125 
L 63.375 35.359375 
Q 67.234375 21.875 68.953125 10.015625 
Q 70.3125 16.796875 72.515625 25.59375 
L 83.734375 71.578125 
L 93.265625 71.578125 
L 73.640625 0 
L 64.5 0 
L 49.421875 54.546875 
Q 47.515625 61.375 47.171875 62.9375 
Q 46.046875 58.015625 45.0625 54.546875 
L 29.890625 0 
z
" id="ArialMT-87"/>
     <path d="M -0.140625 0 
L 27.34375 71.578125 
L 37.546875 71.578125 
L 66.84375 0 
L 56.0625 0 
L 47.703125 21.6875 
L 17.78125 21.6875 
L 9.90625 0 
z
M 20.515625 29.390625 
L 44.78125 29.390625 
L 37.3125 49.21875 
Q 33.890625 58.25 32.234375 64.0625 
Q 30.859375 57.171875 28.375 50.390625 
z
" id="ArialMT-65"/>
     <path d="M 9.328125 0 
L 9.328125 71.578125 
L 18.796875 71.578125 
L 18.796875 0 
z
" id="ArialMT-73"/>
    </defs>
    <g style="fill:#262626;" transform="translate(387.5655 72.627063)scale(0.088 -0.088)">
     <use xlink:href="#ArialMT-87"/>
     <use x="94.337891" xlink:href="#ArialMT-65"/>
     <use x="161.037109" xlink:href="#ArialMT-73"/>
     <use x="188.820312" xlink:href="#ArialMT-84"/>
     <use x="249.888672" xlink:href="#ArialMT-32"/>
     <use x="277.671875" xlink:href="#ArialMT-68"/>
     <use x="349.888672" xlink:href="#ArialMT-73"/>
     <use x="377.671875" xlink:href="#ArialMT-69"/>
    </g>
   </g>
   <g id="line2d_46">
    <path d="M 362.9255 81.994938 
L 380.5255 81.994938 
" style="fill:none;stroke:#faa43a;stroke-linecap:round;stroke-width:1.2;"/>
   </g>
   <g id="line2d_47">
    <defs>
     <path d="M 0 3.394113 
L 2.036468 0 
L 0 -3.394113 
L -2.036468 0 
z
" id="m180c7d93f2" style="stroke:#faa43a;stroke-linejoin:miter;"/>
    </defs>
    <g>
     <use style="fill:#faa43a;stroke:#faa43a;stroke-linejoin:miter;" x="371.7255" xlink:href="#m180c7d93f2" y="81.994938"/>
    </g>
   </g>
   <g id="text_14">
    <!-- NO WAIT -->
    <defs>
     <path d="M 4.828125 34.859375 
Q 4.828125 52.6875 14.390625 62.765625 
Q 23.96875 72.859375 39.109375 72.859375 
Q 49.03125 72.859375 56.984375 68.109375 
Q 64.9375 63.375 69.109375 54.90625 
Q 73.296875 46.4375 73.296875 35.6875 
Q 73.296875 24.8125 68.890625 16.21875 
Q 64.5 7.625 56.4375 3.203125 
Q 48.390625 -1.21875 39.0625 -1.21875 
Q 28.953125 -1.21875 20.984375 3.65625 
Q 13.03125 8.546875 8.921875 16.984375 
Q 4.828125 25.4375 4.828125 34.859375 
z
M 14.59375 34.71875 
Q 14.59375 21.78125 21.546875 14.328125 
Q 28.515625 6.890625 39.015625 6.890625 
Q 49.703125 6.890625 56.609375 14.40625 
Q 63.53125 21.921875 63.53125 35.75 
Q 63.53125 44.484375 60.578125 51 
Q 57.625 57.515625 51.921875 61.109375 
Q 46.234375 64.703125 39.15625 64.703125 
Q 29.109375 64.703125 21.84375 57.78125 
Q 14.59375 50.875 14.59375 34.71875 
z
" id="ArialMT-79"/>
    </defs>
    <g style="fill:#262626;" transform="translate(387.5655 85.074938)scale(0.088 -0.088)">
     <use xlink:href="#ArialMT-78"/>
     <use x="72.216797" xlink:href="#ArialMT-79"/>
     <use x="150" xlink:href="#ArialMT-32"/>
     <use x="177.783203" xlink:href="#ArialMT-87"/>
     <use x="272.121094" xlink:href="#ArialMT-65"/>
     <use x="338.820312" xlink:href="#ArialMT-73"/>
     <use x="366.603516" xlink:href="#ArialMT-84"/>
    </g>
   </g>
   <g id="line2d_48">
    <path d="M 362.9255 94.442813 
L 380.5255 94.442813 
" style="fill:none;stroke:#5da5da;stroke-linecap:round;stroke-width:1.2;"/>
   </g>
   <g id="line2d_49">
    <defs>
     <path d="M 0 -2.4 
L -2.282536 -0.741641 
L -1.410685 1.941641 
L 1.410685 1.941641 
L 2.282536 -0.741641 
z
" id="mde1694cfcd" style="stroke:#5da5da;stroke-linejoin:miter;"/>
    </defs>
    <g>
     <use style="fill:#5da5da;stroke:#5da5da;stroke-linejoin:miter;" x="371.7255" xlink:href="#mde1694cfcd" y="94.442813"/>
    </g>
   </g>
   <g id="text_15">
    <!-- MVCC -->
    <defs>
     <path d="M 7.421875 0 
L 7.421875 71.578125 
L 21.6875 71.578125 
L 38.625 20.90625 
Q 40.96875 13.8125 42.046875 10.296875 
Q 43.265625 14.203125 45.84375 21.78125 
L 62.984375 71.578125 
L 75.734375 71.578125 
L 75.734375 0 
L 66.609375 0 
L 66.609375 59.90625 
L 45.796875 0 
L 37.25 0 
L 16.546875 60.9375 
L 16.546875 0 
z
" id="ArialMT-77"/>
     <path d="M 28.171875 0 
L 0.4375 71.578125 
L 10.6875 71.578125 
L 29.296875 19.578125 
Q 31.546875 13.328125 33.0625 7.859375 
Q 34.71875 13.71875 36.921875 19.578125 
L 56.25 71.578125 
L 65.921875 71.578125 
L 37.890625 0 
z
" id="ArialMT-86"/>
    </defs>
    <g style="fill:#262626;" transform="translate(387.5655 97.522813)scale(0.088 -0.088)">
     <use xlink:href="#ArialMT-77"/>
     <use x="83.300781" xlink:href="#ArialMT-86"/>
     <use x="150" xlink:href="#ArialMT-67"/>
     <use x="222.216797" xlink:href="#ArialMT-67"/>
    </g>
   </g>
   <g id="line2d_50">
    <path d="M 362.9255 106.890688 
L 380.5255 106.890688 
" style="fill:none;stroke:#b276b2;stroke-linecap:round;stroke-width:1.2;"/>
   </g>
   <g id="line2d_51">
    <defs>
     <path d="M 0 2.4 
C 0.636487 2.4 1.246992 2.147121 1.697056 1.697056 
C 2.147121 1.246992 2.4 0.636487 2.4 0 
C 2.4 -0.636487 2.147121 -1.246992 1.697056 -1.697056 
C 1.246992 -2.147121 0.636487 -2.4 0 -2.4 
C -0.636487 -2.4 -1.246992 -2.147121 -1.697056 -1.697056 
C -2.147121 -1.246992 -2.4 -0.636487 -2.4 0 
C -2.4 0.636487 -2.147121 1.246992 -1.697056 1.697056 
C -1.246992 2.147121 -0.636487 2.4 0 2.4 
z
" id="mb01dde9ba7" style="stroke:#b276b2;"/>
    </defs>
    <g>
     <use style="fill:#b276b2;stroke:#b276b2;" x="371.7255" xlink:href="#mb01dde9ba7" y="106.890688"/>
    </g>
   </g>
   <g id="text_16">
    <!-- OCC -->
    <g style="fill:#262626;" transform="translate(387.5655 109.970688)scale(0.088 -0.088)">
     <use xlink:href="#ArialMT-79"/>
     <use x="77.783203" xlink:href="#ArialMT-67"/>
     <use x="150" xlink:href="#ArialMT-67"/>
    </g>
   </g>
   <g id="line2d_52">
    <path d="M 362.9255 119.338563 
L 380.5255 119.338563 
" style="fill:none;stroke:#4d4d4d;stroke-linecap:round;stroke-width:1.2;"/>
   </g>
   <g id="line2d_53">
    <defs>
     <path d="M -2.4 2.4 
L 2.4 2.4 
L 2.4 -2.4 
L -2.4 -2.4 
z
" id="m0cf600f7e5" style="stroke:#4d4d4d;stroke-linejoin:miter;"/>
    </defs>
    <g>
     <use style="fill:#4d4d4d;stroke:#4d4d4d;stroke-linejoin:miter;" x="371.7255" xlink:href="#m0cf600f7e5" y="119.338563"/>
    </g>
   </g>
   <g id="text_17">
    <!-- HSTORE -->
    <defs>
     <path d="M 8.015625 0 
L 8.015625 71.578125 
L 17.484375 71.578125 
L 17.484375 42.1875 
L 54.6875 42.1875 
L 54.6875 71.578125 
L 64.15625 71.578125 
L 64.15625 0 
L 54.6875 0 
L 54.6875 33.734375 
L 17.484375 33.734375 
L 17.484375 0 
z
" id="ArialMT-72"/>
     <path d="M 4.5 23 
L 13.421875 23.78125 
Q 14.0625 18.40625 16.375 14.96875 
Q 18.703125 11.53125 23.578125 9.40625 
Q 28.46875 7.28125 34.578125 7.28125 
Q 39.984375 7.28125 44.140625 8.890625 
Q 48.296875 10.5 50.3125 13.296875 
Q 52.34375 16.109375 52.34375 19.4375 
Q 52.34375 22.796875 50.390625 25.3125 
Q 48.4375 27.828125 43.953125 29.546875 
Q 41.0625 30.671875 31.203125 33.03125 
Q 21.34375 35.40625 17.390625 37.5 
Q 12.25 40.1875 9.734375 44.15625 
Q 7.234375 48.140625 7.234375 53.078125 
Q 7.234375 58.5 10.296875 63.203125 
Q 13.375 67.921875 19.28125 70.359375 
Q 25.203125 72.796875 32.421875 72.796875 
Q 40.375 72.796875 46.453125 70.234375 
Q 52.546875 67.671875 55.8125 62.6875 
Q 59.078125 57.71875 59.328125 51.421875 
L 50.25 50.734375 
Q 49.515625 57.515625 45.28125 60.984375 
Q 41.0625 64.453125 32.8125 64.453125 
Q 24.21875 64.453125 20.28125 61.296875 
Q 16.359375 58.15625 16.359375 53.71875 
Q 16.359375 49.859375 19.140625 47.359375 
Q 21.875 44.875 33.421875 42.265625 
Q 44.96875 39.65625 49.265625 37.703125 
Q 55.515625 34.8125 58.484375 30.390625 
Q 61.46875 25.984375 61.46875 20.21875 
Q 61.46875 14.5 58.203125 9.4375 
Q 54.9375 4.390625 48.796875 1.578125 
Q 42.671875 -1.21875 35.015625 -1.21875 
Q 25.296875 -1.21875 18.71875 1.609375 
Q 12.15625 4.4375 8.421875 10.125 
Q 4.6875 15.828125 4.5 23 
z
" id="ArialMT-83"/>
     <path d="M 7.859375 0 
L 7.859375 71.578125 
L 39.59375 71.578125 
Q 49.171875 71.578125 54.140625 69.640625 
Q 59.125 67.71875 62.109375 62.828125 
Q 65.09375 57.953125 65.09375 52.046875 
Q 65.09375 44.4375 60.15625 39.203125 
Q 55.21875 33.984375 44.921875 32.5625 
Q 48.6875 30.765625 50.640625 29 
Q 54.78125 25.203125 58.5 19.484375 
L 70.953125 0 
L 59.03125 0 
L 49.5625 14.890625 
Q 45.40625 21.34375 42.71875 24.75 
Q 40.046875 28.171875 37.921875 29.53125 
Q 35.796875 30.90625 33.59375 31.453125 
Q 31.984375 31.78125 28.328125 31.78125 
L 17.328125 31.78125 
L 17.328125 0 
z
M 17.328125 39.984375 
L 37.703125 39.984375 
Q 44.1875 39.984375 47.84375 41.328125 
Q 51.515625 42.671875 53.421875 45.625 
Q 55.328125 48.578125 55.328125 52.046875 
Q 55.328125 57.125 51.640625 60.390625 
Q 47.953125 63.671875 39.984375 63.671875 
L 17.328125 63.671875 
z
" id="ArialMT-82"/>
    </defs>
    <g style="fill:#262626;" transform="translate(387.5655 122.418563)scale(0.088 -0.088)">
     <use xlink:href="#ArialMT-72"/>
     <use x="72.216797" xlink:href="#ArialMT-83"/>
     <use x="138.916016" xlink:href="#ArialMT-84"/>
     <use x="199.984375" xlink:href="#ArialMT-79"/>
     <use x="277.767578" xlink:href="#ArialMT-82"/>
     <use x="349.984375" xlink:href="#ArialMT-69"/>
    </g>
   </g>
  </g>
 </g>
 <defs>
  <clipPath id="p9d1d5be958">
   <rect height="101.564" width="276.424206" x="83.452044" y="23.368"/>
  </clipPath>
 </defs>
</svg>
