<?xml version="1.0" encoding="utf-8" standalone="no"?>
<!DOCTYPE svg PUBLIC "-//W3C//DTD SVG 1.1//EN"
  "http://www.w3.org/Graphics/SVG/1.1/DTD/svg11.dtd">
<!-- Created with matplotlib (https://matplotlib.org/) -->
<svg height="165.6pt" version="1.1" viewBox="0 0 444.375 165.6" width="444.375pt" xmlns="http://www.w3.org/2000/svg" xmlns:xlink="http://www.w3.org/1999/xlink">
 <defs>
  <style type="text/css">
*{stroke-linecap:butt;stroke-linejoin:round;}
  </style>
 </defs>
 <g id="figure_1">
  <g id="patch_1">
   <path d="M 0 165.6 
L 444.375 165.6 
L 444.375 0 
L 0 0 
z
" style="fill:#ffffff;"/>
  </g>
  <g id="axes_1">
   <g id="patch_2">
    <path d="M 71.559597 124.932 
L 359.87625 124.932 
L 359.87625 23.368 
L 71.559597 23.368 
z
" style="fill:#ffffff;"/>
   </g>
   <g id="matplotlib.axis_1">
    <g id="xtick_1">
     <g id="line2d_1">
      <path clip-path="url(#p3ac52126e5)" d="M 71.559597 124.932 
L 71.559597 23.368 
" style="fill:none;stroke:#cccccc;stroke-linecap:round;stroke-width:0.8;"/>
     </g>
     <g id="text_1">
      <!-- 0 -->
      <defs>
       <path d="M 4.15625 35.296875 
Q 4.15625 48 6.765625 55.734375 
Q 9.375 63.484375 14.515625 67.671875 
Q 19.671875 71.875 27.484375 71.875 
Q 33.25 71.875 37.59375 69.546875 
Q 41.9375 67.234375 44.765625 62.859375 
Q 47.609375 58.5 49.21875 52.21875 
Q 50.828125 45.953125 50.828125 35.296875 
Q 50.828125 22.703125 48.234375 14.96875 
Q 45.65625 7.234375 40.5 3 
Q 35.359375 -1.21875 27.484375 -1.21875 
Q 17.140625 -1.21875 11.234375 6.203125 
Q 4.15625 15.140625 4.15625 35.296875 
z
M 13.1875 35.296875 
Q 13.1875 17.671875 17.3125 11.828125 
Q 21.4375 6 27.484375 6 
Q 33.546875 6 37.671875 11.859375 
Q 41.796875 17.71875 41.796875 35.296875 
Q 41.796875 52.984375 37.671875 58.78125 
Q 33.546875 64.59375 27.390625 64.59375 
Q 21.34375 64.59375 17.71875 59.46875 
Q 13.1875 52.9375 13.1875 35.296875 
z
" id="ArialMT-48"/>
      </defs>
      <g style="fill:#262626;" transform="translate(69.112785 133.030875)scale(0.088 -0.088)">
       <use xlink:href="#ArialMT-48"/>
      </g>
     </g>
    </g>
    <g id="xtick_2">
     <g id="line2d_2">
      <path clip-path="url(#p3ac52126e5)" d="M 120.601382 124.932 
L 120.601382 23.368 
" style="fill:none;stroke:#cccccc;stroke-linecap:round;stroke-width:0.8;"/>
     </g>
     <g id="text_2">
      <!-- 50 -->
      <defs>
       <path d="M 4.15625 18.75 
L 13.375 19.53125 
Q 14.40625 12.796875 18.140625 9.390625 
Q 21.875 6 27.15625 6 
Q 33.5 6 37.890625 10.78125 
Q 42.28125 15.578125 42.28125 23.484375 
Q 42.28125 31 38.0625 35.34375 
Q 33.84375 39.703125 27 39.703125 
Q 22.75 39.703125 19.328125 37.765625 
Q 15.921875 35.84375 13.96875 32.765625 
L 5.71875 33.84375 
L 12.640625 70.609375 
L 48.25 70.609375 
L 48.25 62.203125 
L 19.671875 62.203125 
L 15.828125 42.96875 
Q 22.265625 47.46875 29.34375 47.46875 
Q 38.71875 47.46875 45.15625 40.96875 
Q 51.609375 34.46875 51.609375 24.265625 
Q 51.609375 14.546875 45.953125 7.46875 
Q 39.0625 -1.21875 27.15625 -1.21875 
Q 17.390625 -1.21875 11.203125 4.25 
Q 5.03125 9.71875 4.15625 18.75 
z
" id="ArialMT-53"/>
      </defs>
      <g style="fill:#262626;" transform="translate(115.707757 133.030875)scale(0.088 -0.088)">
       <use xlink:href="#ArialMT-53"/>
       <use x="55.615234" xlink:href="#ArialMT-48"/>
      </g>
     </g>
    </g>
    <g id="xtick_3">
     <g id="line2d_3">
      <path clip-path="url(#p3ac52126e5)" d="M 169.643167 124.932 
L 169.643167 23.368 
" style="fill:none;stroke:#cccccc;stroke-linecap:round;stroke-width:0.8;"/>
     </g>
     <g id="text_3">
      <!-- 100 -->
      <defs>
       <path d="M 37.25 0 
L 28.46875 0 
L 28.46875 56 
Q 25.296875 52.984375 20.140625 49.953125 
Q 14.984375 46.921875 10.890625 45.40625 
L 10.890625 53.90625 
Q 18.265625 57.375 23.78125 62.296875 
Q 29.296875 67.234375 31.59375 71.875 
L 37.25 71.875 
z
" id="ArialMT-49"/>
      </defs>
      <g style="fill:#262626;" transform="translate(162.302729 133.030875)scale(0.088 -0.088)">
       <use xlink:href="#ArialMT-49"/>
       <use x="55.615234" xlink:href="#ArialMT-48"/>
       <use x="111.230469" xlink:href="#ArialMT-48"/>
      </g>
     </g>
    </g>
    <g id="xtick_4">
     <g id="line2d_4">
      <path clip-path="url(#p3ac52126e5)" d="M 218.684952 124.932 
L 218.684952 23.368 
" style="fill:none;stroke:#cccccc;stroke-linecap:round;stroke-width:0.8;"/>
     </g>
     <g id="text_4">
      <!-- 150 -->
      <g style="fill:#262626;" transform="translate(211.344514 133.030875)scale(0.088 -0.088)">
       <use xlink:href="#ArialMT-49"/>
       <use x="55.615234" xlink:href="#ArialMT-53"/>
       <use x="111.230469" xlink:href="#ArialMT-48"/>
      </g>
     </g>
    </g>
    <g id="xtick_5">
     <g id="line2d_5">
      <path clip-path="url(#p3ac52126e5)" d="M 267.726736 124.932 
L 267.726736 23.368 
" style="fill:none;stroke:#cccccc;stroke-linecap:round;stroke-width:0.8;"/>
     </g>
     <g id="text_5">
      <!-- 200 -->
      <defs>
       <path d="M 50.34375 8.453125 
L 50.34375 0 
L 3.03125 0 
Q 2.9375 3.171875 4.046875 6.109375 
Q 5.859375 10.9375 9.828125 15.625 
Q 13.8125 20.3125 21.34375 26.46875 
Q 33.015625 36.03125 37.109375 41.625 
Q 41.21875 47.21875 41.21875 52.203125 
Q 41.21875 57.421875 37.46875 61 
Q 33.734375 64.59375 27.734375 64.59375 
Q 21.390625 64.59375 17.578125 60.78125 
Q 13.765625 56.984375 13.71875 50.25 
L 4.6875 51.171875 
Q 5.609375 61.28125 11.65625 66.578125 
Q 17.71875 71.875 27.9375 71.875 
Q 38.234375 71.875 44.234375 66.15625 
Q 50.25 60.453125 50.25 52 
Q 50.25 47.703125 48.484375 43.546875 
Q 46.734375 39.40625 42.65625 34.8125 
Q 38.578125 30.21875 29.109375 22.21875 
Q 21.1875 15.578125 18.9375 13.203125 
Q 16.703125 10.84375 15.234375 8.453125 
z
" id="ArialMT-50"/>
      </defs>
      <g style="fill:#262626;" transform="translate(260.386299 133.030875)scale(0.088 -0.088)">
       <use xlink:href="#ArialMT-50"/>
       <use x="55.615234" xlink:href="#ArialMT-48"/>
       <use x="111.230469" xlink:href="#ArialMT-48"/>
      </g>
     </g>
    </g>
    <g id="xtick_6">
     <g id="line2d_6">
      <path clip-path="url(#p3ac52126e5)" d="M 316.768521 124.932 
L 316.768521 23.368 
" style="fill:none;stroke:#cccccc;stroke-linecap:round;stroke-width:0.8;"/>
     </g>
     <g id="text_6">
      <!-- 250 -->
      <g style="fill:#262626;" transform="translate(309.428084 133.030875)scale(0.088 -0.088)">
       <use xlink:href="#ArialMT-50"/>
       <use x="55.615234" xlink:href="#ArialMT-53"/>
       <use x="111.230469" xlink:href="#ArialMT-48"/>
      </g>
     </g>
    </g>
    <g id="text_7">
     <!-- Number of Cores -->
     <defs>
      <path d="M 7.625 0 
L 7.625 71.578125 
L 17.328125 71.578125 
L 54.9375 15.375 
L 54.9375 71.578125 
L 64.015625 71.578125 
L 64.015625 0 
L 54.296875 0 
L 16.703125 56.25 
L 16.703125 0 
z
" id="ArialMT-78"/>
      <path d="M 40.578125 0 
L 40.578125 7.625 
Q 34.515625 -1.171875 24.125 -1.171875 
Q 19.53125 -1.171875 15.546875 0.578125 
Q 11.578125 2.34375 9.640625 5 
Q 7.71875 7.671875 6.9375 11.53125 
Q 6.390625 14.109375 6.390625 19.734375 
L 6.390625 51.859375 
L 15.1875 51.859375 
L 15.1875 23.09375 
Q 15.1875 16.21875 15.71875 13.8125 
Q 16.546875 10.359375 19.234375 8.375 
Q 21.921875 6.390625 25.875 6.390625 
Q 29.828125 6.390625 33.296875 8.421875 
Q 36.765625 10.453125 38.203125 13.9375 
Q 39.65625 17.4375 39.65625 24.078125 
L 39.65625 51.859375 
L 48.4375 51.859375 
L 48.4375 0 
z
" id="ArialMT-117"/>
      <path d="M 6.59375 0 
L 6.59375 51.859375 
L 14.453125 51.859375 
L 14.453125 44.578125 
Q 16.890625 48.390625 20.9375 50.703125 
Q 25 53.03125 30.171875 53.03125 
Q 35.9375 53.03125 39.625 50.640625 
Q 43.3125 48.25 44.828125 43.953125 
Q 50.984375 53.03125 60.84375 53.03125 
Q 68.5625 53.03125 72.703125 48.75 
Q 76.859375 44.484375 76.859375 35.59375 
L 76.859375 0 
L 68.109375 0 
L 68.109375 32.671875 
Q 68.109375 37.9375 67.25 40.25 
Q 66.40625 42.578125 64.15625 43.984375 
Q 61.921875 45.40625 58.890625 45.40625 
Q 53.421875 45.40625 49.796875 41.765625 
Q 46.1875 38.140625 46.1875 30.125 
L 46.1875 0 
L 37.40625 0 
L 37.40625 33.6875 
Q 37.40625 39.546875 35.25 42.46875 
Q 33.109375 45.40625 28.21875 45.40625 
Q 24.515625 45.40625 21.359375 43.453125 
Q 18.21875 41.5 16.796875 37.734375 
Q 15.375 33.984375 15.375 26.90625 
L 15.375 0 
z
" id="ArialMT-109"/>
      <path d="M 14.703125 0 
L 6.546875 0 
L 6.546875 71.578125 
L 15.328125 71.578125 
L 15.328125 46.046875 
Q 20.90625 53.03125 29.546875 53.03125 
Q 34.328125 53.03125 38.59375 51.09375 
Q 42.875 49.171875 45.625 45.671875 
Q 48.390625 42.1875 49.953125 37.25 
Q 51.515625 32.328125 51.515625 26.703125 
Q 51.515625 13.375 44.921875 6.09375 
Q 38.328125 -1.171875 29.109375 -1.171875 
Q 19.921875 -1.171875 14.703125 6.5 
z
M 14.59375 26.3125 
Q 14.59375 17 17.140625 12.84375 
Q 21.296875 6.0625 28.375 6.0625 
Q 34.125 6.0625 38.328125 11.0625 
Q 42.53125 16.0625 42.53125 25.984375 
Q 42.53125 36.140625 38.5 40.96875 
Q 34.46875 45.796875 28.765625 45.796875 
Q 23 45.796875 18.796875 40.796875 
Q 14.59375 35.796875 14.59375 26.3125 
z
" id="ArialMT-98"/>
      <path d="M 42.09375 16.703125 
L 51.171875 15.578125 
Q 49.03125 7.625 43.21875 3.21875 
Q 37.40625 -1.171875 28.375 -1.171875 
Q 17 -1.171875 10.328125 5.828125 
Q 3.65625 12.84375 3.65625 25.484375 
Q 3.65625 38.578125 10.390625 45.796875 
Q 17.140625 53.03125 27.875 53.03125 
Q 38.28125 53.03125 44.875 45.953125 
Q 51.46875 38.875 51.46875 26.03125 
Q 51.46875 25.25 51.421875 23.6875 
L 12.75 23.6875 
Q 13.234375 15.140625 17.578125 10.59375 
Q 21.921875 6.0625 28.421875 6.0625 
Q 33.25 6.0625 36.671875 8.59375 
Q 40.09375 11.140625 42.09375 16.703125 
z
M 13.234375 30.90625 
L 42.1875 30.90625 
Q 41.609375 37.453125 38.875 40.71875 
Q 34.671875 45.796875 27.984375 45.796875 
Q 21.921875 45.796875 17.796875 41.75 
Q 13.671875 37.703125 13.234375 30.90625 
z
" id="ArialMT-101"/>
      <path d="M 6.5 0 
L 6.5 51.859375 
L 14.40625 51.859375 
L 14.40625 44 
Q 17.4375 49.515625 20 51.265625 
Q 22.5625 53.03125 25.640625 53.03125 
Q 30.078125 53.03125 34.671875 50.203125 
L 31.640625 42.046875 
Q 28.421875 43.953125 25.203125 43.953125 
Q 22.3125 43.953125 20.015625 42.21875 
Q 17.71875 40.484375 16.75 37.40625 
Q 15.28125 32.71875 15.28125 27.15625 
L 15.28125 0 
z
" id="ArialMT-114"/>
      <path id="ArialMT-32"/>
      <path d="M 3.328125 25.921875 
Q 3.328125 40.328125 11.328125 47.265625 
Q 18.015625 53.03125 27.640625 53.03125 
Q 38.328125 53.03125 45.109375 46.015625 
Q 51.90625 39.015625 51.90625 26.65625 
Q 51.90625 16.65625 48.90625 10.90625 
Q 45.90625 5.171875 40.15625 2 
Q 34.421875 -1.171875 27.640625 -1.171875 
Q 16.75 -1.171875 10.03125 5.8125 
Q 3.328125 12.796875 3.328125 25.921875 
z
M 12.359375 25.921875 
Q 12.359375 15.96875 16.703125 11.015625 
Q 21.046875 6.0625 27.640625 6.0625 
Q 34.1875 6.0625 38.53125 11.03125 
Q 42.875 16.015625 42.875 26.21875 
Q 42.875 35.84375 38.5 40.796875 
Q 34.125 45.75 27.640625 45.75 
Q 21.046875 45.75 16.703125 40.8125 
Q 12.359375 35.890625 12.359375 25.921875 
z
" id="ArialMT-111"/>
      <path d="M 8.6875 0 
L 8.6875 45.015625 
L 0.921875 45.015625 
L 0.921875 51.859375 
L 8.6875 51.859375 
L 8.6875 57.375 
Q 8.6875 62.59375 9.625 65.140625 
Q 10.890625 68.5625 14.078125 70.671875 
Q 17.28125 72.796875 23.046875 72.796875 
Q 26.765625 72.796875 31.25 71.921875 
L 29.9375 64.265625 
Q 27.203125 64.75 24.75 64.75 
Q 20.75 64.75 19.09375 63.03125 
Q 17.4375 61.328125 17.4375 56.640625 
L 17.4375 51.859375 
L 27.546875 51.859375 
L 27.546875 45.015625 
L 17.4375 45.015625 
L 17.4375 0 
z
" id="ArialMT-102"/>
      <path d="M 58.796875 25.09375 
L 68.265625 22.703125 
Q 65.28125 11.03125 57.546875 4.90625 
Q 49.8125 -1.21875 38.625 -1.21875 
Q 27.046875 -1.21875 19.796875 3.484375 
Q 12.546875 8.203125 8.765625 17.140625 
Q 4.984375 26.078125 4.984375 36.328125 
Q 4.984375 47.515625 9.25 55.828125 
Q 13.53125 64.15625 21.40625 68.46875 
Q 29.296875 72.796875 38.765625 72.796875 
Q 49.515625 72.796875 56.828125 67.328125 
Q 64.15625 61.859375 67.046875 51.953125 
L 57.71875 49.75 
Q 55.21875 57.5625 50.484375 61.125 
Q 45.75 64.703125 38.578125 64.703125 
Q 30.328125 64.703125 24.78125 60.734375 
Q 19.234375 56.78125 16.984375 50.109375 
Q 14.75 43.453125 14.75 36.375 
Q 14.75 27.25 17.40625 20.4375 
Q 20.0625 13.625 25.671875 10.25 
Q 31.296875 6.890625 37.84375 6.890625 
Q 45.796875 6.890625 51.3125 11.46875 
Q 56.84375 16.0625 58.796875 25.09375 
z
" id="ArialMT-67"/>
      <path d="M 3.078125 15.484375 
L 11.765625 16.84375 
Q 12.5 11.625 15.84375 8.84375 
Q 19.1875 6.0625 25.203125 6.0625 
Q 31.25 6.0625 34.171875 8.515625 
Q 37.109375 10.984375 37.109375 14.3125 
Q 37.109375 17.28125 34.515625 19 
Q 32.71875 20.171875 25.53125 21.96875 
Q 15.875 24.421875 12.140625 26.203125 
Q 8.40625 27.984375 6.46875 31.125 
Q 4.546875 34.28125 4.546875 38.09375 
Q 4.546875 41.546875 6.125 44.5 
Q 7.71875 47.46875 10.453125 49.421875 
Q 12.5 50.921875 16.03125 51.96875 
Q 19.578125 53.03125 23.640625 53.03125 
Q 29.734375 53.03125 34.34375 51.265625 
Q 38.96875 49.515625 41.15625 46.5 
Q 43.359375 43.5 44.1875 38.484375 
L 35.59375 37.3125 
Q 35.015625 41.3125 32.203125 43.546875 
Q 29.390625 45.796875 24.265625 45.796875 
Q 18.21875 45.796875 15.625 43.796875 
Q 13.03125 41.796875 13.03125 39.109375 
Q 13.03125 37.40625 14.109375 36.03125 
Q 15.1875 34.625 17.484375 33.6875 
Q 18.796875 33.203125 25.25 31.453125 
Q 34.578125 28.953125 38.25 27.359375 
Q 41.9375 25.78125 44.03125 22.75 
Q 46.140625 19.734375 46.140625 15.234375 
Q 46.140625 10.84375 43.578125 6.953125 
Q 41.015625 3.078125 36.171875 0.953125 
Q 31.34375 -1.171875 25.25 -1.171875 
Q 15.140625 -1.171875 9.84375 3.03125 
Q 4.546875 7.234375 3.078125 15.484375 
z
" id="ArialMT-115"/>
     </defs>
     <g style="fill:#262626;" transform="translate(179.174174 145.651375)scale(0.096 -0.096)">
      <use xlink:href="#ArialMT-78"/>
      <use x="72.216797" xlink:href="#ArialMT-117"/>
      <use x="127.832031" xlink:href="#ArialMT-109"/>
      <use x="211.132812" xlink:href="#ArialMT-98"/>
      <use x="266.748047" xlink:href="#ArialMT-101"/>
      <use x="322.363281" xlink:href="#ArialMT-114"/>
      <use x="355.664062" xlink:href="#ArialMT-32"/>
      <use x="383.447266" xlink:href="#ArialMT-111"/>
      <use x="439.0625" xlink:href="#ArialMT-102"/>
      <use x="466.845703" xlink:href="#ArialMT-32"/>
      <use x="494.628906" xlink:href="#ArialMT-67"/>
      <use x="566.845703" xlink:href="#ArialMT-111"/>
      <use x="622.460938" xlink:href="#ArialMT-114"/>
      <use x="655.761719" xlink:href="#ArialMT-101"/>
      <use x="711.376953" xlink:href="#ArialMT-115"/>
     </g>
    </g>
   </g>
   <g id="matplotlib.axis_2">
    <g id="ytick_1">
     <g id="line2d_7">
      <path clip-path="url(#p3ac52126e5)" d="M 71.559597 99.135302 
L 359.87625 99.135302 
" style="fill:none;stroke:#cccccc;stroke-linecap:round;stroke-width:0.8;"/>
     </g>
     <g id="text_8">
      <!-- $\mathdefault{10^{-6}}$ -->
      <defs>
       <path d="M 52.828125 31.203125 
L 5.5625 31.203125 
L 5.5625 39.40625 
L 52.828125 39.40625 
z
" id="ArialMT-8722"/>
       <path d="M 49.75 54.046875 
L 41.015625 53.375 
Q 39.84375 58.546875 37.703125 60.890625 
Q 34.125 64.65625 28.90625 64.65625 
Q 24.703125 64.65625 21.53125 62.3125 
Q 17.390625 59.28125 14.984375 53.46875 
Q 12.59375 47.65625 12.5 36.921875 
Q 15.671875 41.75 20.265625 44.09375 
Q 24.859375 46.4375 29.890625 46.4375 
Q 38.671875 46.4375 44.84375 39.96875 
Q 51.03125 33.5 51.03125 23.25 
Q 51.03125 16.5 48.125 10.71875 
Q 45.21875 4.9375 40.140625 1.859375 
Q 35.0625 -1.21875 28.609375 -1.21875 
Q 17.625 -1.21875 10.6875 6.859375 
Q 3.765625 14.9375 3.765625 33.5 
Q 3.765625 54.25 11.421875 63.671875 
Q 18.109375 71.875 29.4375 71.875 
Q 37.890625 71.875 43.28125 67.140625 
Q 48.6875 62.40625 49.75 54.046875 
z
M 13.875 23.1875 
Q 13.875 18.65625 15.796875 14.5 
Q 17.71875 10.359375 21.1875 8.171875 
Q 24.65625 6 28.46875 6 
Q 34.03125 6 38.03125 10.484375 
Q 42.046875 14.984375 42.046875 22.703125 
Q 42.046875 30.125 38.078125 34.390625 
Q 34.125 38.671875 28.125 38.671875 
Q 22.171875 38.671875 18.015625 34.390625 
Q 13.875 30.125 13.875 23.1875 
z
" id="ArialMT-54"/>
      </defs>
      <g style="fill:#262626;" transform="translate(45.835597 103.672802)scale(0.088 -0.088)">
       <use transform="translate(0 0.99375)" xlink:href="#ArialMT-49"/>
       <use transform="translate(55.615234 0.99375)" xlink:href="#ArialMT-48"/>
       <use transform="translate(112.972813 70.6875)scale(0.7)" xlink:href="#ArialMT-8722"/>
       <use transform="translate(153.851719 70.6875)scale(0.7)" xlink:href="#ArialMT-54"/>
      </g>
     </g>
    </g>
    <g id="ytick_2">
     <g id="line2d_8">
      <path clip-path="url(#p3ac52126e5)" d="M 71.559597 72.450433 
L 359.87625 72.450433 
" style="fill:none;stroke:#cccccc;stroke-linecap:round;stroke-width:0.8;"/>
     </g>
     <g id="text_9">
      <!-- $\mathdefault{10^{-5}}$ -->
      <g style="fill:#262626;" transform="translate(45.835597 76.943933)scale(0.088 -0.088)">
       <use transform="translate(0 0.879688)" xlink:href="#ArialMT-49"/>
       <use transform="translate(55.615234 0.879688)" xlink:href="#ArialMT-48"/>
       <use transform="translate(112.972813 70.573438)scale(0.7)" xlink:href="#ArialMT-8722"/>
       <use transform="translate(153.851719 70.573438)scale(0.7)" xlink:href="#ArialMT-53"/>
      </g>
     </g>
    </g>
    <g id="ytick_3">
     <g id="line2d_9">
      <path clip-path="url(#p3ac52126e5)" d="M 71.559597 45.765565 
L 359.87625 45.765565 
" style="fill:none;stroke:#cccccc;stroke-linecap:round;stroke-width:0.8;"/>
     </g>
     <g id="text_10">
      <!-- $\mathdefault{10^{-4}}$ -->
      <defs>
       <path d="M 32.328125 0 
L 32.328125 17.140625 
L 1.265625 17.140625 
L 1.265625 25.203125 
L 33.9375 71.578125 
L 41.109375 71.578125 
L 41.109375 25.203125 
L 50.78125 25.203125 
L 50.78125 17.140625 
L 41.109375 17.140625 
L 41.109375 0 
z
M 32.328125 25.203125 
L 32.328125 57.46875 
L 9.90625 25.203125 
z
" id="ArialMT-52"/>
      </defs>
      <g style="fill:#262626;" transform="translate(45.835597 50.259065)scale(0.088 -0.088)">
       <use transform="translate(0 0.201563)" xlink:href="#ArialMT-49"/>
       <use transform="translate(55.615234 0.201563)" xlink:href="#ArialMT-48"/>
       <use transform="translate(112.972813 69.895313)scale(0.7)" xlink:href="#ArialMT-8722"/>
       <use transform="translate(153.851719 69.895313)scale(0.7)" xlink:href="#ArialMT-52"/>
      </g>
     </g>
    </g>
    <g id="ytick_4">
     <g id="line2d_10">
      <path clip-path="url(#p3ac52126e5)" d="M 71.559597 117.787225 
L 359.87625 117.787225 
" style="fill:none;stroke:#cccccc;stroke-linecap:round;stroke-width:0.8;"/>
     </g>
    </g>
    <g id="ytick_5">
     <g id="line2d_11">
      <path clip-path="url(#p3ac52126e5)" d="M 71.559597 113.088253 
L 359.87625 113.088253 
" style="fill:none;stroke:#cccccc;stroke-linecap:round;stroke-width:0.8;"/>
     </g>
    </g>
    <g id="ytick_6">
     <g id="line2d_12">
      <path clip-path="url(#p3ac52126e5)" d="M 71.559597 109.754279 
L 359.87625 109.754279 
" style="fill:none;stroke:#cccccc;stroke-linecap:round;stroke-width:0.8;"/>
     </g>
    </g>
    <g id="ytick_7">
     <g id="line2d_13">
      <path clip-path="url(#p3ac52126e5)" d="M 71.559597 107.168248 
L 359.87625 107.168248 
" style="fill:none;stroke:#cccccc;stroke-linecap:round;stroke-width:0.8;"/>
     </g>
    </g>
    <g id="ytick_8">
     <g id="line2d_14">
      <path clip-path="url(#p3ac52126e5)" d="M 71.559597 105.055307 
L 359.87625 105.055307 
" style="fill:none;stroke:#cccccc;stroke-linecap:round;stroke-width:0.8;"/>
     </g>
    </g>
    <g id="ytick_9">
     <g id="line2d_15">
      <path clip-path="url(#p3ac52126e5)" d="M 71.559597 103.26884 
L 359.87625 103.26884 
" style="fill:none;stroke:#cccccc;stroke-linecap:round;stroke-width:0.8;"/>
     </g>
    </g>
    <g id="ytick_10">
     <g id="line2d_16">
      <path clip-path="url(#p3ac52126e5)" d="M 71.559597 101.721333 
L 359.87625 101.721333 
" style="fill:none;stroke:#cccccc;stroke-linecap:round;stroke-width:0.8;"/>
     </g>
    </g>
    <g id="ytick_11">
     <g id="line2d_17">
      <path clip-path="url(#p3ac52126e5)" d="M 71.559597 100.356335 
L 359.87625 100.356335 
" style="fill:none;stroke:#cccccc;stroke-linecap:round;stroke-width:0.8;"/>
     </g>
    </g>
    <g id="ytick_12">
     <g id="line2d_18">
      <path clip-path="url(#p3ac52126e5)" d="M 71.559597 91.102356 
L 359.87625 91.102356 
" style="fill:none;stroke:#cccccc;stroke-linecap:round;stroke-width:0.8;"/>
     </g>
    </g>
    <g id="ytick_13">
     <g id="line2d_19">
      <path clip-path="url(#p3ac52126e5)" d="M 71.559597 86.403384 
L 359.87625 86.403384 
" style="fill:none;stroke:#cccccc;stroke-linecap:round;stroke-width:0.8;"/>
     </g>
    </g>
    <g id="ytick_14">
     <g id="line2d_20">
      <path clip-path="url(#p3ac52126e5)" d="M 71.559597 83.06941 
L 359.87625 83.06941 
" style="fill:none;stroke:#cccccc;stroke-linecap:round;stroke-width:0.8;"/>
     </g>
    </g>
    <g id="ytick_15">
     <g id="line2d_21">
      <path clip-path="url(#p3ac52126e5)" d="M 71.559597 80.483379 
L 359.87625 80.483379 
" style="fill:none;stroke:#cccccc;stroke-linecap:round;stroke-width:0.8;"/>
     </g>
    </g>
    <g id="ytick_16">
     <g id="line2d_22">
      <path clip-path="url(#p3ac52126e5)" d="M 71.559597 78.370438 
L 359.87625 78.370438 
" style="fill:none;stroke:#cccccc;stroke-linecap:round;stroke-width:0.8;"/>
     </g>
    </g>
    <g id="ytick_17">
     <g id="line2d_23">
      <path clip-path="url(#p3ac52126e5)" d="M 71.559597 76.583972 
L 359.87625 76.583972 
" style="fill:none;stroke:#cccccc;stroke-linecap:round;stroke-width:0.8;"/>
     </g>
    </g>
    <g id="ytick_18">
     <g id="line2d_24">
      <path clip-path="url(#p3ac52126e5)" d="M 71.559597 75.036464 
L 359.87625 75.036464 
" style="fill:none;stroke:#cccccc;stroke-linecap:round;stroke-width:0.8;"/>
     </g>
    </g>
    <g id="ytick_19">
     <g id="line2d_25">
      <path clip-path="url(#p3ac52126e5)" d="M 71.559597 73.671466 
L 359.87625 73.671466 
" style="fill:none;stroke:#cccccc;stroke-linecap:round;stroke-width:0.8;"/>
     </g>
    </g>
    <g id="ytick_20">
     <g id="line2d_26">
      <path clip-path="url(#p3ac52126e5)" d="M 71.559597 64.417487 
L 359.87625 64.417487 
" style="fill:none;stroke:#cccccc;stroke-linecap:round;stroke-width:0.8;"/>
     </g>
    </g>
    <g id="ytick_21">
     <g id="line2d_27">
      <path clip-path="url(#p3ac52126e5)" d="M 71.559597 59.718515 
L 359.87625 59.718515 
" style="fill:none;stroke:#cccccc;stroke-linecap:round;stroke-width:0.8;"/>
     </g>
    </g>
    <g id="ytick_22">
     <g id="line2d_28">
      <path clip-path="url(#p3ac52126e5)" d="M 71.559597 56.384541 
L 359.87625 56.384541 
" style="fill:none;stroke:#cccccc;stroke-linecap:round;stroke-width:0.8;"/>
     </g>
    </g>
    <g id="ytick_23">
     <g id="line2d_29">
      <path clip-path="url(#p3ac52126e5)" d="M 71.559597 53.79851 
L 359.87625 53.79851 
" style="fill:none;stroke:#cccccc;stroke-linecap:round;stroke-width:0.8;"/>
     </g>
    </g>
    <g id="ytick_24">
     <g id="line2d_30">
      <path clip-path="url(#p3ac52126e5)" d="M 71.559597 51.685569 
L 359.87625 51.685569 
" style="fill:none;stroke:#cccccc;stroke-linecap:round;stroke-width:0.8;"/>
     </g>
    </g>
    <g id="ytick_25">
     <g id="line2d_31">
      <path clip-path="url(#p3ac52126e5)" d="M 71.559597 49.899103 
L 359.87625 49.899103 
" style="fill:none;stroke:#cccccc;stroke-linecap:round;stroke-width:0.8;"/>
     </g>
    </g>
    <g id="ytick_26">
     <g id="line2d_32">
      <path clip-path="url(#p3ac52126e5)" d="M 71.559597 48.351596 
L 359.87625 48.351596 
" style="fill:none;stroke:#cccccc;stroke-linecap:round;stroke-width:0.8;"/>
     </g>
    </g>
    <g id="ytick_27">
     <g id="line2d_33">
      <path clip-path="url(#p3ac52126e5)" d="M 71.559597 46.986597 
L 359.87625 46.986597 
" style="fill:none;stroke:#cccccc;stroke-linecap:round;stroke-width:0.8;"/>
     </g>
    </g>
    <g id="ytick_28">
     <g id="line2d_34">
      <path clip-path="url(#p3ac52126e5)" d="M 71.559597 37.732619 
L 359.87625 37.732619 
" style="fill:none;stroke:#cccccc;stroke-linecap:round;stroke-width:0.8;"/>
     </g>
    </g>
    <g id="ytick_29">
     <g id="line2d_35">
      <path clip-path="url(#p3ac52126e5)" d="M 71.559597 33.033647 
L 359.87625 33.033647 
" style="fill:none;stroke:#cccccc;stroke-linecap:round;stroke-width:0.8;"/>
     </g>
    </g>
    <g id="ytick_30">
     <g id="line2d_36">
      <path clip-path="url(#p3ac52126e5)" d="M 71.559597 29.699673 
L 359.87625 29.699673 
" style="fill:none;stroke:#cccccc;stroke-linecap:round;stroke-width:0.8;"/>
     </g>
    </g>
    <g id="ytick_31">
     <g id="line2d_37">
      <path clip-path="url(#p3ac52126e5)" d="M 71.559597 27.113642 
L 359.87625 27.113642 
" style="fill:none;stroke:#cccccc;stroke-linecap:round;stroke-width:0.8;"/>
     </g>
    </g>
    <g id="ytick_32">
     <g id="line2d_38">
      <path clip-path="url(#p3ac52126e5)" d="M 71.559597 25.000701 
L 359.87625 25.000701 
" style="fill:none;stroke:#cccccc;stroke-linecap:round;stroke-width:0.8;"/>
     </g>
    </g>
    <g id="text_11">
     <!-- time_man / Txn -->
     <defs>
      <path d="M 25.78125 7.859375 
L 27.046875 0.09375 
Q 23.34375 -0.6875 20.40625 -0.6875 
Q 15.625 -0.6875 12.984375 0.828125 
Q 10.359375 2.34375 9.28125 4.8125 
Q 8.203125 7.28125 8.203125 15.1875 
L 8.203125 45.015625 
L 1.765625 45.015625 
L 1.765625 51.859375 
L 8.203125 51.859375 
L 8.203125 64.703125 
L 16.9375 69.96875 
L 16.9375 51.859375 
L 25.78125 51.859375 
L 25.78125 45.015625 
L 16.9375 45.015625 
L 16.9375 14.703125 
Q 16.9375 10.9375 17.40625 9.859375 
Q 17.875 8.796875 18.921875 8.15625 
Q 19.96875 7.515625 21.921875 7.515625 
Q 23.390625 7.515625 25.78125 7.859375 
z
" id="ArialMT-116"/>
      <path d="M 6.640625 61.46875 
L 6.640625 71.578125 
L 15.4375 71.578125 
L 15.4375 61.46875 
z
M 6.640625 0 
L 6.640625 51.859375 
L 15.4375 51.859375 
L 15.4375 0 
z
" id="ArialMT-105"/>
      <path d="M -1.515625 -19.875 
L -1.515625 -13.53125 
L 56.734375 -13.53125 
L 56.734375 -19.875 
z
" id="ArialMT-95"/>
      <path d="M 40.4375 6.390625 
Q 35.546875 2.25 31.03125 0.53125 
Q 26.515625 -1.171875 21.34375 -1.171875 
Q 12.796875 -1.171875 8.203125 3 
Q 3.609375 7.171875 3.609375 13.671875 
Q 3.609375 17.484375 5.34375 20.625 
Q 7.078125 23.78125 9.890625 25.6875 
Q 12.703125 27.59375 16.21875 28.5625 
Q 18.796875 29.25 24.03125 29.890625 
Q 34.671875 31.15625 39.703125 32.90625 
Q 39.75 34.71875 39.75 35.203125 
Q 39.75 40.578125 37.25 42.78125 
Q 33.890625 45.75 27.25 45.75 
Q 21.046875 45.75 18.09375 43.578125 
Q 15.140625 41.40625 13.71875 35.890625 
L 5.125 37.0625 
Q 6.296875 42.578125 8.984375 45.96875 
Q 11.671875 49.359375 16.75 51.1875 
Q 21.828125 53.03125 28.515625 53.03125 
Q 35.15625 53.03125 39.296875 51.46875 
Q 43.453125 49.90625 45.40625 47.53125 
Q 47.359375 45.171875 48.140625 41.546875 
Q 48.578125 39.3125 48.578125 33.453125 
L 48.578125 21.734375 
Q 48.578125 9.46875 49.140625 6.21875 
Q 49.703125 2.984375 51.375 0 
L 42.1875 0 
Q 40.828125 2.734375 40.4375 6.390625 
z
M 39.703125 26.03125 
Q 34.90625 24.078125 25.34375 22.703125 
Q 19.921875 21.921875 17.671875 20.9375 
Q 15.4375 19.96875 14.203125 18.09375 
Q 12.984375 16.21875 12.984375 13.921875 
Q 12.984375 10.40625 15.640625 8.0625 
Q 18.3125 5.71875 23.4375 5.71875 
Q 28.515625 5.71875 32.46875 7.9375 
Q 36.421875 10.15625 38.28125 14.015625 
Q 39.703125 17 39.703125 22.796875 
z
" id="ArialMT-97"/>
      <path d="M 6.59375 0 
L 6.59375 51.859375 
L 14.5 51.859375 
L 14.5 44.484375 
Q 20.21875 53.03125 31 53.03125 
Q 35.6875 53.03125 39.625 51.34375 
Q 43.5625 49.65625 45.515625 46.921875 
Q 47.46875 44.1875 48.25 40.4375 
Q 48.734375 37.984375 48.734375 31.890625 
L 48.734375 0 
L 39.9375 0 
L 39.9375 31.546875 
Q 39.9375 36.921875 38.90625 39.578125 
Q 37.890625 42.234375 35.28125 43.8125 
Q 32.671875 45.40625 29.15625 45.40625 
Q 23.53125 45.40625 19.453125 41.84375 
Q 15.375 38.28125 15.375 28.328125 
L 15.375 0 
z
" id="ArialMT-110"/>
      <path d="M 0 -1.21875 
L 20.75 72.796875 
L 27.78125 72.796875 
L 7.078125 -1.21875 
z
" id="ArialMT-47"/>
      <path d="M 25.921875 0 
L 25.921875 63.140625 
L 2.34375 63.140625 
L 2.34375 71.578125 
L 59.078125 71.578125 
L 59.078125 63.140625 
L 35.40625 63.140625 
L 35.40625 0 
z
" id="ArialMT-84"/>
      <path d="M 0.734375 0 
L 19.671875 26.953125 
L 2.15625 51.859375 
L 13.140625 51.859375 
L 21.09375 39.703125 
Q 23.34375 36.234375 24.703125 33.890625 
Q 26.859375 37.109375 28.65625 39.59375 
L 37.40625 51.859375 
L 47.90625 51.859375 
L 29.984375 27.4375 
L 49.265625 0 
L 38.484375 0 
L 27.828125 16.109375 
L 25 20.453125 
L 11.375 0 
z
" id="ArialMT-120"/>
     </defs>
     <g style="fill:#262626;" transform="translate(39.927597 107.22425)rotate(-90)scale(0.096 -0.096)">
      <use xlink:href="#ArialMT-116"/>
      <use x="27.783203" xlink:href="#ArialMT-105"/>
      <use x="50" xlink:href="#ArialMT-109"/>
      <use x="133.300781" xlink:href="#ArialMT-101"/>
      <use x="188.916016" xlink:href="#ArialMT-95"/>
      <use x="244.53125" xlink:href="#ArialMT-109"/>
      <use x="327.832031" xlink:href="#ArialMT-97"/>
      <use x="383.447266" xlink:href="#ArialMT-110"/>
      <use x="439.0625" xlink:href="#ArialMT-32"/>
      <use x="466.845703" xlink:href="#ArialMT-47"/>
      <use x="494.628906" xlink:href="#ArialMT-32"/>
      <use x="522.396484" xlink:href="#ArialMT-84"/>
      <use x="583.480469" xlink:href="#ArialMT-120"/>
      <use x="633.480469" xlink:href="#ArialMT-110"/>
     </g>
    </g>
   </g>
   <g id="LineCollection_1">
    <path clip-path="url(#p3ac52126e5)" d="M 72.540433 88.293195 
L 72.540433 87.167078 
" style="fill:none;stroke:#f15854;stroke-linecap:round;stroke-width:1.2;"/>
    <path clip-path="url(#p3ac52126e5)" d="M 75.48294 82.704267 
L 75.48294 82.603704 
" style="fill:none;stroke:#f15854;stroke-linecap:round;stroke-width:1.2;"/>
    <path clip-path="url(#p3ac52126e5)" d="M 79.406283 80.726898 
L 79.406283 80.570764 
" style="fill:none;stroke:#f15854;stroke-linecap:round;stroke-width:1.2;"/>
    <path clip-path="url(#p3ac52126e5)" d="M 87.252968 74.155114 
L 87.252968 73.990506 
" style="fill:none;stroke:#f15854;stroke-linecap:round;stroke-width:1.2;"/>
    <path clip-path="url(#p3ac52126e5)" d="M 99.022997 68.235231 
L 99.022997 68.04366 
" style="fill:none;stroke:#f15854;stroke-linecap:round;stroke-width:1.2;"/>
    <path clip-path="url(#p3ac52126e5)" d="M 126.486396 61.797514 
L 126.486396 61.772953 
" style="fill:none;stroke:#f15854;stroke-linecap:round;stroke-width:1.2;"/>
    <path clip-path="url(#p3ac52126e5)" d="M 181.413195 46.391472 
L 181.413195 45.910606 
" style="fill:none;stroke:#f15854;stroke-linecap:round;stroke-width:1.2;"/>
    <path clip-path="url(#p3ac52126e5)" d="M 236.339994 44.658559 
L 236.339994 44.155205 
" style="fill:none;stroke:#f15854;stroke-linecap:round;stroke-width:1.2;"/>
    <path clip-path="url(#p3ac52126e5)" d="M 291.266793 34.803526 
L 291.266793 32.525126 
" style="fill:none;stroke:#f15854;stroke-linecap:round;stroke-width:1.2;"/>
    <path clip-path="url(#p3ac52126e5)" d="M 346.193592 29.201743 
L 346.193592 27.984545 
" style="fill:none;stroke:#f15854;stroke-linecap:round;stroke-width:1.2;"/>
   </g>
   <g id="LineCollection_2">
    <path clip-path="url(#p3ac52126e5)" d="M 72.540433 88.009359 
L 72.540433 87.982678 
" style="fill:none;stroke:#decf3f;stroke-linecap:round;stroke-width:1.2;"/>
    <path clip-path="url(#p3ac52126e5)" d="M 75.48294 83.118144 
L 75.48294 83.095778 
" style="fill:none;stroke:#decf3f;stroke-linecap:round;stroke-width:1.2;"/>
    <path clip-path="url(#p3ac52126e5)" d="M 79.406283 83.372589 
L 79.406283 83.329363 
" style="fill:none;stroke:#decf3f;stroke-linecap:round;stroke-width:1.2;"/>
    <path clip-path="url(#p3ac52126e5)" d="M 87.252968 83.610269 
L 87.252968 83.52743 
" style="fill:none;stroke:#decf3f;stroke-linecap:round;stroke-width:1.2;"/>
    <path clip-path="url(#p3ac52126e5)" d="M 99.022997 83.105061 
L 99.022997 82.98147 
" style="fill:none;stroke:#decf3f;stroke-linecap:round;stroke-width:1.2;"/>
    <path clip-path="url(#p3ac52126e5)" d="M 126.486396 80.479198 
L 126.486396 80.38449 
" style="fill:none;stroke:#decf3f;stroke-linecap:round;stroke-width:1.2;"/>
    <path clip-path="url(#p3ac52126e5)" d="M 181.413195 57.471931 
L 181.413195 57.434446 
" style="fill:none;stroke:#decf3f;stroke-linecap:round;stroke-width:1.2;"/>
    <path clip-path="url(#p3ac52126e5)" d="M 236.339994 51.579898 
L 236.339994 51.320674 
" style="fill:none;stroke:#decf3f;stroke-linecap:round;stroke-width:1.2;"/>
    <path clip-path="url(#p3ac52126e5)" d="M 291.266793 47.381972 
L 291.266793 46.953038 
" style="fill:none;stroke:#decf3f;stroke-linecap:round;stroke-width:1.2;"/>
    <path clip-path="url(#p3ac52126e5)" d="M 346.193592 42.184072 
L 346.193592 42.140683 
" style="fill:none;stroke:#decf3f;stroke-linecap:round;stroke-width:1.2;"/>
   </g>
   <g id="LineCollection_3">
    <path clip-path="url(#p3ac52126e5)" d="M 72.540433 88.012022 
L 72.540433 87.576827 
" style="fill:none;stroke:#faa43a;stroke-linecap:round;stroke-width:1.2;"/>
    <path clip-path="url(#p3ac52126e5)" d="M 75.48294 83.011667 
L 75.48294 82.840842 
" style="fill:none;stroke:#faa43a;stroke-linecap:round;stroke-width:1.2;"/>
    <path clip-path="url(#p3ac52126e5)" d="M 79.406283 84.101709 
L 79.406283 84.031525 
" style="fill:none;stroke:#faa43a;stroke-linecap:round;stroke-width:1.2;"/>
    <path clip-path="url(#p3ac52126e5)" d="M 87.252968 84.982535 
L 87.252968 84.913381 
" style="fill:none;stroke:#faa43a;stroke-linecap:round;stroke-width:1.2;"/>
    <path clip-path="url(#p3ac52126e5)" d="M 99.022997 85.255311 
L 99.022997 85.242082 
" style="fill:none;stroke:#faa43a;stroke-linecap:round;stroke-width:1.2;"/>
    <path clip-path="url(#p3ac52126e5)" d="M 126.486396 84.767007 
L 126.486396 84.746093 
" style="fill:none;stroke:#faa43a;stroke-linecap:round;stroke-width:1.2;"/>
    <path clip-path="url(#p3ac52126e5)" d="M 181.413195 57.909778 
L 181.413195 57.780317 
" style="fill:none;stroke:#faa43a;stroke-linecap:round;stroke-width:1.2;"/>
    <path clip-path="url(#p3ac52126e5)" d="M 236.339994 49.969987 
L 236.339994 49.870376 
" style="fill:none;stroke:#faa43a;stroke-linecap:round;stroke-width:1.2;"/>
    <path clip-path="url(#p3ac52126e5)" d="M 291.266793 44.465876 
L 291.266793 44.405296 
" style="fill:none;stroke:#faa43a;stroke-linecap:round;stroke-width:1.2;"/>
    <path clip-path="url(#p3ac52126e5)" d="M 346.193592 37.682768 
L 346.193592 37.511554 
" style="fill:none;stroke:#faa43a;stroke-linecap:round;stroke-width:1.2;"/>
   </g>
   <g id="LineCollection_4">
    <path clip-path="url(#p3ac52126e5)" d="M 72.540433 87.325277 
L 72.540433 86.904434 
" style="fill:none;stroke:#5da5da;stroke-linecap:round;stroke-width:1.2;"/>
    <path clip-path="url(#p3ac52126e5)" d="M 75.48294 83.851844 
L 75.48294 83.712582 
" style="fill:none;stroke:#5da5da;stroke-linecap:round;stroke-width:1.2;"/>
    <path clip-path="url(#p3ac52126e5)" d="M 79.406283 83.1307 
L 79.406283 82.81892 
" style="fill:none;stroke:#5da5da;stroke-linecap:round;stroke-width:1.2;"/>
    <path clip-path="url(#p3ac52126e5)" d="M 87.252968 82.454071 
L 87.252968 82.2332 
" style="fill:none;stroke:#5da5da;stroke-linecap:round;stroke-width:1.2;"/>
    <path clip-path="url(#p3ac52126e5)" d="M 99.022997 82.188091 
L 99.022997 81.759459 
" style="fill:none;stroke:#5da5da;stroke-linecap:round;stroke-width:1.2;"/>
    <path clip-path="url(#p3ac52126e5)" d="M 126.486396 81.027964 
L 126.486396 80.890666 
" style="fill:none;stroke:#5da5da;stroke-linecap:round;stroke-width:1.2;"/>
    <path clip-path="url(#p3ac52126e5)" d="M 181.413195 74.10707 
L 181.413195 73.86565 
" style="fill:none;stroke:#5da5da;stroke-linecap:round;stroke-width:1.2;"/>
    <path clip-path="url(#p3ac52126e5)" d="M 236.339994 71.148188 
L 236.339994 70.855685 
" style="fill:none;stroke:#5da5da;stroke-linecap:round;stroke-width:1.2;"/>
    <path clip-path="url(#p3ac52126e5)" d="M 291.266793 69.689869 
L 291.266793 69.32558 
" style="fill:none;stroke:#5da5da;stroke-linecap:round;stroke-width:1.2;"/>
    <path clip-path="url(#p3ac52126e5)" d="M 346.193592 64.395946 
L 346.193592 63.623223 
" style="fill:none;stroke:#5da5da;stroke-linecap:round;stroke-width:1.2;"/>
   </g>
   <g id="LineCollection_5">
    <path clip-path="url(#p3ac52126e5)" d="M 72.540433 80.627137 
L 72.540433 79.686612 
" style="fill:none;stroke:#b276b2;stroke-linecap:round;stroke-width:1.2;"/>
    <path clip-path="url(#p3ac52126e5)" d="M 75.48294 71.048114 
L 75.48294 70.99937 
" style="fill:none;stroke:#b276b2;stroke-linecap:round;stroke-width:1.2;"/>
    <path clip-path="url(#p3ac52126e5)" d="M 79.406283 66.642422 
L 79.406283 66.509582 
" style="fill:none;stroke:#b276b2;stroke-linecap:round;stroke-width:1.2;"/>
    <path clip-path="url(#p3ac52126e5)" d="M 87.252968 62.811339 
L 87.252968 62.772283 
" style="fill:none;stroke:#b276b2;stroke-linecap:round;stroke-width:1.2;"/>
    <path clip-path="url(#p3ac52126e5)" d="M 99.022997 61.826704 
L 99.022997 61.775151 
" style="fill:none;stroke:#b276b2;stroke-linecap:round;stroke-width:1.2;"/>
    <path clip-path="url(#p3ac52126e5)" d="M 126.486396 63.93496 
L 126.486396 63.911587 
" style="fill:none;stroke:#b276b2;stroke-linecap:round;stroke-width:1.2;"/>
    <path clip-path="url(#p3ac52126e5)" d="M 181.413195 60.561911 
L 181.413195 60.506228 
" style="fill:none;stroke:#b276b2;stroke-linecap:round;stroke-width:1.2;"/>
    <path clip-path="url(#p3ac52126e5)" d="M 236.339994 59.073781 
L 236.339994 56.819463 
" style="fill:none;stroke:#b276b2;stroke-linecap:round;stroke-width:1.2;"/>
    <path clip-path="url(#p3ac52126e5)" d="M 291.266793 55.776441 
L 291.266793 53.591654 
" style="fill:none;stroke:#b276b2;stroke-linecap:round;stroke-width:1.2;"/>
    <path clip-path="url(#p3ac52126e5)" d="M 346.193592 53.819125 
L 346.193592 50.647262 
" style="fill:none;stroke:#b276b2;stroke-linecap:round;stroke-width:1.2;"/>
   </g>
   <g id="LineCollection_6">
    <path clip-path="url(#p3ac52126e5)" d="M 72.540433 120.315455 
L 72.540433 120.224283 
" style="fill:none;stroke:#4d4d4d;stroke-linecap:round;stroke-width:1.2;"/>
    <path clip-path="url(#p3ac52126e5)" d="M 75.48294 111.566387 
L 75.48294 110.658187 
" style="fill:none;stroke:#4d4d4d;stroke-linecap:round;stroke-width:1.2;"/>
    <path clip-path="url(#p3ac52126e5)" d="M 79.406283 104.454922 
L 79.406283 103.752308 
" style="fill:none;stroke:#4d4d4d;stroke-linecap:round;stroke-width:1.2;"/>
    <path clip-path="url(#p3ac52126e5)" d="M 87.252968 103.342836 
L 87.252968 103.051135 
" style="fill:none;stroke:#4d4d4d;stroke-linecap:round;stroke-width:1.2;"/>
    <path clip-path="url(#p3ac52126e5)" d="M 99.022997 102.037961 
L 99.022997 101.976503 
" style="fill:none;stroke:#4d4d4d;stroke-linecap:round;stroke-width:1.2;"/>
    <path clip-path="url(#p3ac52126e5)" d="M 126.486396 99.542511 
L 126.486396 98.740717 
" style="fill:none;stroke:#4d4d4d;stroke-linecap:round;stroke-width:1.2;"/>
    <path clip-path="url(#p3ac52126e5)" d="M 181.413195 88.046183 
L 181.413195 87.810649 
" style="fill:none;stroke:#4d4d4d;stroke-linecap:round;stroke-width:1.2;"/>
    <path clip-path="url(#p3ac52126e5)" d="M 236.339994 83.815553 
L 236.339994 83.311151 
" style="fill:none;stroke:#4d4d4d;stroke-linecap:round;stroke-width:1.2;"/>
    <path clip-path="url(#p3ac52126e5)" d="M 291.266793 79.769514 
L 291.266793 79.743491 
" style="fill:none;stroke:#4d4d4d;stroke-linecap:round;stroke-width:1.2;"/>
    <path clip-path="url(#p3ac52126e5)" d="M 346.193592 74.49516 
L 346.193592 74.259159 
" style="fill:none;stroke:#4d4d4d;stroke-linecap:round;stroke-width:1.2;"/>
   </g>
   <g id="line2d_39">
    <path clip-path="url(#p3ac52126e5)" d="M 72.540433 87.637429 
L 75.48294 82.684025 
L 79.406283 80.629436 
L 87.252968 74.142312 
L 99.022997 68.064934 
L 126.486396 61.773096 
L 181.413195 46.177235 
L 236.339994 44.156484 
L 291.266793 34.001103 
L 346.193592 28.463883 
" style="fill:none;stroke:#f15854;stroke-linecap:round;stroke-width:1.2;"/>
    <defs>
     <path d="M 0 2.4 
C 0.636487 2.4 1.246992 2.147121 1.697056 1.697056 
C 2.147121 1.246992 2.4 0.636487 2.4 0 
C 2.4 -0.636487 2.147121 -1.246992 1.697056 -1.697056 
C 1.246992 -2.147121 0.636487 -2.4 0 -2.4 
C -0.636487 -2.4 -1.246992 -2.147121 -1.697056 -1.697056 
C -2.147121 -1.246992 -2.4 -0.636487 -2.4 0 
C -2.4 0.636487 -2.147121 1.246992 -1.697056 1.697056 
C -1.246992 2.147121 -0.636487 2.4 0 2.4 
z
" id="mb238d5313b" style="stroke:#ffffff;stroke-width:0.75;"/>
    </defs>
    <g clip-path="url(#p3ac52126e5)">
     <use style="fill:#f15854;stroke:#ffffff;stroke-width:0.75;" x="72.540433" xlink:href="#mb238d5313b" y="87.637429"/>
     <use style="fill:#f15854;stroke:#ffffff;stroke-width:0.75;" x="75.48294" xlink:href="#mb238d5313b" y="82.684025"/>
     <use style="fill:#f15854;stroke:#ffffff;stroke-width:0.75;" x="79.406283" xlink:href="#mb238d5313b" y="80.629436"/>
     <use style="fill:#f15854;stroke:#ffffff;stroke-width:0.75;" x="87.252968" xlink:href="#mb238d5313b" y="74.142312"/>
     <use style="fill:#f15854;stroke:#ffffff;stroke-width:0.75;" x="99.022997" xlink:href="#mb238d5313b" y="68.064934"/>
     <use style="fill:#f15854;stroke:#ffffff;stroke-width:0.75;" x="126.486396" xlink:href="#mb238d5313b" y="61.773096"/>
     <use style="fill:#f15854;stroke:#ffffff;stroke-width:0.75;" x="181.413195" xlink:href="#mb238d5313b" y="46.177235"/>
     <use style="fill:#f15854;stroke:#ffffff;stroke-width:0.75;" x="236.339994" xlink:href="#mb238d5313b" y="44.156484"/>
     <use style="fill:#f15854;stroke:#ffffff;stroke-width:0.75;" x="291.266793" xlink:href="#mb238d5313b" y="34.001103"/>
     <use style="fill:#f15854;stroke:#ffffff;stroke-width:0.75;" x="346.193592" xlink:href="#mb238d5313b" y="28.463883"/>
    </g>
   </g>
   <g id="line2d_40">
    <path clip-path="url(#p3ac52126e5)" d="M 72.540433 87.99508 
L 75.48294 83.104285 
L 79.406283 83.329497 
L 87.252968 83.587159 
L 99.022997 83.012681 
L 126.486396 80.431747 
L 181.413195 57.453984 
L 236.339994 51.539257 
L 291.266793 47.26305 
L 346.193592 42.147013 
" style="fill:none;stroke:#decf3f;stroke-linecap:round;stroke-width:1.2;"/>
    <defs>
     <path d="M -2.4 2.4 
L 2.4 2.4 
L 2.4 -2.4 
L -2.4 -2.4 
z
" id="mc2ffa1c48d" style="stroke:#ffffff;stroke-linejoin:miter;stroke-width:0.75;"/>
    </defs>
    <g clip-path="url(#p3ac52126e5)">
     <use style="fill:#decf3f;stroke:#ffffff;stroke-linejoin:miter;stroke-width:0.75;" x="72.540433" xlink:href="#mc2ffa1c48d" y="87.99508"/>
     <use style="fill:#decf3f;stroke:#ffffff;stroke-linejoin:miter;stroke-width:0.75;" x="75.48294" xlink:href="#mc2ffa1c48d" y="83.104285"/>
     <use style="fill:#decf3f;stroke:#ffffff;stroke-linejoin:miter;stroke-width:0.75;" x="79.406283" xlink:href="#mc2ffa1c48d" y="83.329497"/>
     <use style="fill:#decf3f;stroke:#ffffff;stroke-linejoin:miter;stroke-width:0.75;" x="87.252968" xlink:href="#mc2ffa1c48d" y="83.587159"/>
     <use style="fill:#decf3f;stroke:#ffffff;stroke-linejoin:miter;stroke-width:0.75;" x="99.022997" xlink:href="#mc2ffa1c48d" y="83.012681"/>
     <use style="fill:#decf3f;stroke:#ffffff;stroke-linejoin:miter;stroke-width:0.75;" x="126.486396" xlink:href="#mc2ffa1c48d" y="80.431747"/>
     <use style="fill:#decf3f;stroke:#ffffff;stroke-linejoin:miter;stroke-width:0.75;" x="181.413195" xlink:href="#mc2ffa1c48d" y="57.453984"/>
     <use style="fill:#decf3f;stroke:#ffffff;stroke-linejoin:miter;stroke-width:0.75;" x="236.339994" xlink:href="#mc2ffa1c48d" y="51.539257"/>
     <use style="fill:#decf3f;stroke:#ffffff;stroke-linejoin:miter;stroke-width:0.75;" x="291.266793" xlink:href="#mc2ffa1c48d" y="47.26305"/>
     <use style="fill:#decf3f;stroke:#ffffff;stroke-linejoin:miter;stroke-width:0.75;" x="346.193592" xlink:href="#mc2ffa1c48d" y="42.147013"/>
    </g>
   </g>
   <g id="line2d_41">
    <path clip-path="url(#p3ac52126e5)" d="M 72.540433 87.95672 
L 75.48294 82.935191 
L 79.406283 84.057391 
L 87.252968 84.931447 
L 99.022997 85.247449 
L 126.486396 84.766877 
L 181.413195 57.819942 
L 236.339994 49.892783 
L 291.266793 44.410793 
L 346.193592 37.518713 
" style="fill:none;stroke:#faa43a;stroke-linecap:round;stroke-width:1.2;"/>
    <defs>
     <path d="M 0 3.394113 
L 2.036468 0 
L 0 -3.394113 
L -2.036468 0 
z
" id="mcd35305246" style="stroke:#ffffff;stroke-linejoin:miter;stroke-width:0.75;"/>
    </defs>
    <g clip-path="url(#p3ac52126e5)">
     <use style="fill:#faa43a;stroke:#ffffff;stroke-linejoin:miter;stroke-width:0.75;" x="72.540433" xlink:href="#mcd35305246" y="87.95672"/>
     <use style="fill:#faa43a;stroke:#ffffff;stroke-linejoin:miter;stroke-width:0.75;" x="75.48294" xlink:href="#mcd35305246" y="82.935191"/>
     <use style="fill:#faa43a;stroke:#ffffff;stroke-linejoin:miter;stroke-width:0.75;" x="79.406283" xlink:href="#mcd35305246" y="84.057391"/>
     <use style="fill:#faa43a;stroke:#ffffff;stroke-linejoin:miter;stroke-width:0.75;" x="87.252968" xlink:href="#mcd35305246" y="84.931447"/>
     <use style="fill:#faa43a;stroke:#ffffff;stroke-linejoin:miter;stroke-width:0.75;" x="99.022997" xlink:href="#mcd35305246" y="85.247449"/>
     <use style="fill:#faa43a;stroke:#ffffff;stroke-linejoin:miter;stroke-width:0.75;" x="126.486396" xlink:href="#mcd35305246" y="84.766877"/>
     <use style="fill:#faa43a;stroke:#ffffff;stroke-linejoin:miter;stroke-width:0.75;" x="181.413195" xlink:href="#mcd35305246" y="57.819942"/>
     <use style="fill:#faa43a;stroke:#ffffff;stroke-linejoin:miter;stroke-width:0.75;" x="236.339994" xlink:href="#mcd35305246" y="49.892783"/>
     <use style="fill:#faa43a;stroke:#ffffff;stroke-linejoin:miter;stroke-width:0.75;" x="291.266793" xlink:href="#mcd35305246" y="44.410793"/>
     <use style="fill:#faa43a;stroke:#ffffff;stroke-linejoin:miter;stroke-width:0.75;" x="346.193592" xlink:href="#mcd35305246" y="37.518713"/>
    </g>
   </g>
   <g id="line2d_42">
    <path clip-path="url(#p3ac52126e5)" d="M 72.540433 86.958126 
L 75.48294 83.751069 
L 79.406283 83.014687 
L 87.252968 82.329346 
L 99.022997 82.082684 
L 126.486396 80.947378 
L 181.413195 74.064037 
L 236.339994 70.894002 
L 291.266793 69.354372 
L 346.193592 63.97744 
" style="fill:none;stroke:#5da5da;stroke-linecap:round;stroke-width:1.2;"/>
    <defs>
     <path d="M 0 -2.4 
L -2.282536 -0.741641 
L -1.410685 1.941641 
L 1.410685 1.941641 
L 2.282536 -0.741641 
z
" id="m865680f9f9" style="stroke:#ffffff;stroke-linejoin:miter;stroke-width:0.75;"/>
    </defs>
    <g clip-path="url(#p3ac52126e5)">
     <use style="fill:#5da5da;stroke:#ffffff;stroke-linejoin:miter;stroke-width:0.75;" x="72.540433" xlink:href="#m865680f9f9" y="86.958126"/>
     <use style="fill:#5da5da;stroke:#ffffff;stroke-linejoin:miter;stroke-width:0.75;" x="75.48294" xlink:href="#m865680f9f9" y="83.751069"/>
     <use style="fill:#5da5da;stroke:#ffffff;stroke-linejoin:miter;stroke-width:0.75;" x="79.406283" xlink:href="#m865680f9f9" y="83.014687"/>
     <use style="fill:#5da5da;stroke:#ffffff;stroke-linejoin:miter;stroke-width:0.75;" x="87.252968" xlink:href="#m865680f9f9" y="82.329346"/>
     <use style="fill:#5da5da;stroke:#ffffff;stroke-linejoin:miter;stroke-width:0.75;" x="99.022997" xlink:href="#m865680f9f9" y="82.082684"/>
     <use style="fill:#5da5da;stroke:#ffffff;stroke-linejoin:miter;stroke-width:0.75;" x="126.486396" xlink:href="#m865680f9f9" y="80.947378"/>
     <use style="fill:#5da5da;stroke:#ffffff;stroke-linejoin:miter;stroke-width:0.75;" x="181.413195" xlink:href="#m865680f9f9" y="74.064037"/>
     <use style="fill:#5da5da;stroke:#ffffff;stroke-linejoin:miter;stroke-width:0.75;" x="236.339994" xlink:href="#m865680f9f9" y="70.894002"/>
     <use style="fill:#5da5da;stroke:#ffffff;stroke-linejoin:miter;stroke-width:0.75;" x="291.266793" xlink:href="#m865680f9f9" y="69.354372"/>
     <use style="fill:#5da5da;stroke:#ffffff;stroke-linejoin:miter;stroke-width:0.75;" x="346.193592" xlink:href="#m865680f9f9" y="63.97744"/>
    </g>
   </g>
   <g id="line2d_43">
    <path clip-path="url(#p3ac52126e5)" d="M 72.540433 80.039527 
L 75.48294 71.018269 
L 79.406283 66.567227 
L 87.252968 62.799014 
L 99.022997 61.787435 
L 126.486396 63.915045 
L 181.413195 60.516594 
L 236.339994 57.937074 
L 291.266793 53.666437 
L 346.193592 52.480606 
" style="fill:none;stroke:#b276b2;stroke-linecap:round;stroke-width:1.2;"/>
    <defs>
     <path d="M 0 2.4 
C 0.636487 2.4 1.246992 2.147121 1.697056 1.697056 
C 2.147121 1.246992 2.4 0.636487 2.4 0 
C 2.4 -0.636487 2.147121 -1.246992 1.697056 -1.697056 
C 1.246992 -2.147121 0.636487 -2.4 0 -2.4 
C -0.636487 -2.4 -1.246992 -2.147121 -1.697056 -1.697056 
C -2.147121 -1.246992 -2.4 -0.636487 -2.4 0 
C -2.4 0.636487 -2.147121 1.246992 -1.697056 1.697056 
C -1.246992 2.147121 -0.636487 2.4 0 2.4 
z
" id="mb34e74e3d6" style="stroke:#ffffff;stroke-width:0.75;"/>
    </defs>
    <g clip-path="url(#p3ac52126e5)">
     <use style="fill:#b276b2;stroke:#ffffff;stroke-width:0.75;" x="72.540433" xlink:href="#mb34e74e3d6" y="80.039527"/>
     <use style="fill:#b276b2;stroke:#ffffff;stroke-width:0.75;" x="75.48294" xlink:href="#mb34e74e3d6" y="71.018269"/>
     <use style="fill:#b276b2;stroke:#ffffff;stroke-width:0.75;" x="79.406283" xlink:href="#mb34e74e3d6" y="66.567227"/>
     <use style="fill:#b276b2;stroke:#ffffff;stroke-width:0.75;" x="87.252968" xlink:href="#mb34e74e3d6" y="62.799014"/>
     <use style="fill:#b276b2;stroke:#ffffff;stroke-width:0.75;" x="99.022997" xlink:href="#mb34e74e3d6" y="61.787435"/>
     <use style="fill:#b276b2;stroke:#ffffff;stroke-width:0.75;" x="126.486396" xlink:href="#mb34e74e3d6" y="63.915045"/>
     <use style="fill:#b276b2;stroke:#ffffff;stroke-width:0.75;" x="181.413195" xlink:href="#mb34e74e3d6" y="60.516594"/>
     <use style="fill:#b276b2;stroke:#ffffff;stroke-width:0.75;" x="236.339994" xlink:href="#mb34e74e3d6" y="57.937074"/>
     <use style="fill:#b276b2;stroke:#ffffff;stroke-width:0.75;" x="291.266793" xlink:href="#mb34e74e3d6" y="53.666437"/>
     <use style="fill:#b276b2;stroke:#ffffff;stroke-width:0.75;" x="346.193592" xlink:href="#mb34e74e3d6" y="52.480606"/>
    </g>
   </g>
   <g id="line2d_44">
    <path clip-path="url(#p3ac52126e5)" d="M 72.540433 120.273728 
L 75.48294 111.377012 
L 79.406283 104.43342 
L 87.252968 103.118451 
L 99.022997 101.990829 
L 126.486396 99.513512 
L 181.413195 87.992998 
L 236.339994 83.624305 
L 291.266793 79.766596 
L 346.193592 74.414919 
" style="fill:none;stroke:#4d4d4d;stroke-linecap:round;stroke-width:1.2;"/>
    <defs>
     <path d="M -2.4 2.4 
L 2.4 2.4 
L 2.4 -2.4 
L -2.4 -2.4 
z
" id="me55fd668b2" style="stroke:#ffffff;stroke-linejoin:miter;stroke-width:0.75;"/>
    </defs>
    <g clip-path="url(#p3ac52126e5)">
     <use style="fill:#4d4d4d;stroke:#ffffff;stroke-linejoin:miter;stroke-width:0.75;" x="72.540433" xlink:href="#me55fd668b2" y="120.273728"/>
     <use style="fill:#4d4d4d;stroke:#ffffff;stroke-linejoin:miter;stroke-width:0.75;" x="75.48294" xlink:href="#me55fd668b2" y="111.377012"/>
     <use style="fill:#4d4d4d;stroke:#ffffff;stroke-linejoin:miter;stroke-width:0.75;" x="79.406283" xlink:href="#me55fd668b2" y="104.43342"/>
     <use style="fill:#4d4d4d;stroke:#ffffff;stroke-linejoin:miter;stroke-width:0.75;" x="87.252968" xlink:href="#me55fd668b2" y="103.118451"/>
     <use style="fill:#4d4d4d;stroke:#ffffff;stroke-linejoin:miter;stroke-width:0.75;" x="99.022997" xlink:href="#me55fd668b2" y="101.990829"/>
     <use style="fill:#4d4d4d;stroke:#ffffff;stroke-linejoin:miter;stroke-width:0.75;" x="126.486396" xlink:href="#me55fd668b2" y="99.513512"/>
     <use style="fill:#4d4d4d;stroke:#ffffff;stroke-linejoin:miter;stroke-width:0.75;" x="181.413195" xlink:href="#me55fd668b2" y="87.992998"/>
     <use style="fill:#4d4d4d;stroke:#ffffff;stroke-linejoin:miter;stroke-width:0.75;" x="236.339994" xlink:href="#me55fd668b2" y="83.624305"/>
     <use style="fill:#4d4d4d;stroke:#ffffff;stroke-linejoin:miter;stroke-width:0.75;" x="291.266793" xlink:href="#me55fd668b2" y="79.766596"/>
     <use style="fill:#4d4d4d;stroke:#ffffff;stroke-linejoin:miter;stroke-width:0.75;" x="346.193592" xlink:href="#me55fd668b2" y="74.414919"/>
    </g>
   </g>
   <g id="line2d_45"/>
   <g id="line2d_46"/>
   <g id="line2d_47"/>
   <g id="line2d_48"/>
   <g id="line2d_49"/>
   <g id="line2d_50"/>
   <g id="line2d_51"/>
   <g id="line2d_52"/>
   <g id="line2d_53"/>
   <g id="line2d_54"/>
   <g id="line2d_55"/>
   <g id="line2d_56"/>
   <g id="line2d_57"/>
   <g id="patch_3">
    <path d="M 71.559597 124.932 
L 71.559597 23.368 
" style="fill:none;stroke:#cccccc;stroke-linecap:square;stroke-linejoin:miter;"/>
   </g>
   <g id="patch_4">
    <path d="M 359.87625 124.932 
L 359.87625 23.368 
" style="fill:none;stroke:#cccccc;stroke-linecap:square;stroke-linejoin:miter;"/>
   </g>
   <g id="patch_5">
    <path d="M 71.559597 124.932 
L 359.87625 124.932 
" style="fill:none;stroke:#cccccc;stroke-linecap:square;stroke-linejoin:miter;"/>
   </g>
   <g id="patch_6">
    <path d="M 71.559597 23.368 
L 359.87625 23.368 
" style="fill:none;stroke:#cccccc;stroke-linecap:square;stroke-linejoin:miter;"/>
   </g>
   <g id="text_12">
    <!-- True -->
    <g style="fill:#262626;" transform="translate(205.851674 17.368)scale(0.096 -0.096)">
     <use xlink:href="#ArialMT-84"/>
     <use x="61.037109" xlink:href="#ArialMT-114"/>
     <use x="94.337891" xlink:href="#ArialMT-117"/>
     <use x="149.953125" xlink:href="#ArialMT-101"/>
    </g>
   </g>
  </g>
  <g id="legend_1">
   <g id="line2d_58">
    <path d="M 362.9255 44.651313 
L 380.5255 44.651313 
" style="fill:none;"/>
   </g>
   <g id="line2d_59"/>
   <g id="text_13">
    <!-- CC -->
    <g style="fill:#262626;" transform="translate(387.5655 47.731313)scale(0.088 -0.088)">
     <use xlink:href="#ArialMT-67"/>
     <use x="72.216797" xlink:href="#ArialMT-67"/>
    </g>
   </g>
   <g id="line2d_60">
    <path d="M 362.9255 57.099188 
L 380.5255 57.099188 
" style="fill:none;stroke:#f15854;stroke-linecap:round;stroke-width:1.2;"/>
   </g>
   <g id="line2d_61">
    <defs>
     <path d="M 0 2.4 
C 0.636487 2.4 1.246992 2.147121 1.697056 1.697056 
C 2.147121 1.246992 2.4 0.636487 2.4 0 
C 2.4 -0.636487 2.147121 -1.246992 1.697056 -1.697056 
C 1.246992 -2.147121 0.636487 -2.4 0 -2.4 
C -0.636487 -2.4 -1.246992 -2.147121 -1.697056 -1.697056 
C -2.147121 -1.246992 -2.4 -0.636487 -2.4 0 
C -2.4 0.636487 -2.147121 1.246992 -1.697056 1.697056 
C -1.246992 2.147121 -0.636487 2.4 0 2.4 
z
" id="mc3b93db0ec" style="stroke:#f15854;"/>
    </defs>
    <g>
     <use style="fill:#f15854;stroke:#f15854;" x="371.7255" xlink:href="#mc3b93db0ec" y="57.099188"/>
    </g>
   </g>
   <g id="text_14">
    <!-- DL DETECT -->
    <defs>
     <path d="M 7.71875 0 
L 7.71875 71.578125 
L 32.375 71.578125 
Q 40.71875 71.578125 45.125 70.5625 
Q 51.265625 69.140625 55.609375 65.4375 
Q 61.28125 60.640625 64.078125 53.1875 
Q 66.890625 45.75 66.890625 36.1875 
Q 66.890625 28.03125 64.984375 21.734375 
Q 63.09375 15.4375 60.109375 11.296875 
Q 57.125 7.171875 53.578125 4.796875 
Q 50.046875 2.4375 45.046875 1.21875 
Q 40.046875 0 33.546875 0 
z
M 17.1875 8.453125 
L 32.46875 8.453125 
Q 39.546875 8.453125 43.578125 9.765625 
Q 47.609375 11.078125 50 13.484375 
Q 53.375 16.84375 55.25 22.53125 
Q 57.125 28.21875 57.125 36.328125 
Q 57.125 47.5625 53.4375 53.59375 
Q 49.75 59.625 44.484375 61.671875 
Q 40.671875 63.140625 32.234375 63.140625 
L 17.1875 63.140625 
z
" id="ArialMT-68"/>
     <path d="M 7.328125 0 
L 7.328125 71.578125 
L 16.796875 71.578125 
L 16.796875 8.453125 
L 52.046875 8.453125 
L 52.046875 0 
z
" id="ArialMT-76"/>
     <path d="M 7.90625 0 
L 7.90625 71.578125 
L 59.671875 71.578125 
L 59.671875 63.140625 
L 17.390625 63.140625 
L 17.390625 41.21875 
L 56.984375 41.21875 
L 56.984375 32.8125 
L 17.390625 32.8125 
L 17.390625 8.453125 
L 61.328125 8.453125 
L 61.328125 0 
z
" id="ArialMT-69"/>
    </defs>
    <g style="fill:#262626;" transform="translate(387.5655 60.179188)scale(0.088 -0.088)">
     <use xlink:href="#ArialMT-68"/>
     <use x="72.216797" xlink:href="#ArialMT-76"/>
     <use x="127.785156" xlink:href="#ArialMT-32"/>
     <use x="155.568359" xlink:href="#ArialMT-68"/>
     <use x="227.785156" xlink:href="#ArialMT-69"/>
     <use x="294.484375" xlink:href="#ArialMT-84"/>
     <use x="355.568359" xlink:href="#ArialMT-69"/>
     <use x="422.267578" xlink:href="#ArialMT-67"/>
     <use x="494.484375" xlink:href="#ArialMT-84"/>
    </g>
   </g>
   <g id="line2d_62">
    <path d="M 362.9255 69.547063 
L 380.5255 69.547063 
" style="fill:none;stroke:#decf3f;stroke-linecap:round;stroke-width:1.2;"/>
   </g>
   <g id="line2d_63">
    <defs>
     <path d="M -2.4 2.4 
L 2.4 2.4 
L 2.4 -2.4 
L -2.4 -2.4 
z
" id="m34099d2436" style="stroke:#decf3f;stroke-linejoin:miter;"/>
    </defs>
    <g>
     <use style="fill:#decf3f;stroke:#decf3f;stroke-linejoin:miter;" x="371.7255" xlink:href="#m34099d2436" y="69.547063"/>
    </g>
   </g>
   <g id="text_15">
    <!-- WAIT DIE -->
    <defs>
     <path d="M 20.21875 0 
L 1.21875 71.578125 
L 10.9375 71.578125 
L 21.828125 24.65625 
Q 23.578125 17.28125 24.859375 10.015625 
Q 27.59375 21.484375 28.078125 23.25 
L 41.703125 71.578125 
L 53.125 71.578125 
L 63.375 35.359375 
Q 67.234375 21.875 68.953125 10.015625 
Q 70.3125 16.796875 72.515625 25.59375 
L 83.734375 71.578125 
L 93.265625 71.578125 
L 73.640625 0 
L 64.5 0 
L 49.421875 54.546875 
Q 47.515625 61.375 47.171875 62.9375 
Q 46.046875 58.015625 45.0625 54.546875 
L 29.890625 0 
z
" id="ArialMT-87"/>
     <path d="M -0.140625 0 
L 27.34375 71.578125 
L 37.546875 71.578125 
L 66.84375 0 
L 56.0625 0 
L 47.703125 21.6875 
L 17.78125 21.6875 
L 9.90625 0 
z
M 20.515625 29.390625 
L 44.78125 29.390625 
L 37.3125 49.21875 
Q 33.890625 58.25 32.234375 64.0625 
Q 30.859375 57.171875 28.375 50.390625 
z
" id="ArialMT-65"/>
     <path d="M 9.328125 0 
L 9.328125 71.578125 
L 18.796875 71.578125 
L 18.796875 0 
z
" id="ArialMT-73"/>
    </defs>
    <g style="fill:#262626;" transform="translate(387.5655 72.627063)scale(0.088 -0.088)">
     <use xlink:href="#ArialMT-87"/>
     <use x="94.337891" xlink:href="#ArialMT-65"/>
     <use x="161.037109" xlink:href="#ArialMT-73"/>
     <use x="188.820312" xlink:href="#ArialMT-84"/>
     <use x="249.888672" xlink:href="#ArialMT-32"/>
     <use x="277.671875" xlink:href="#ArialMT-68"/>
     <use x="349.888672" xlink:href="#ArialMT-73"/>
     <use x="377.671875" xlink:href="#ArialMT-69"/>
    </g>
   </g>
   <g id="line2d_64">
    <path d="M 362.9255 81.994938 
L 380.5255 81.994938 
" style="fill:none;stroke:#faa43a;stroke-linecap:round;stroke-width:1.2;"/>
   </g>
   <g id="line2d_65">
    <defs>
     <path d="M 0 3.394113 
L 2.036468 0 
L 0 -3.394113 
L -2.036468 0 
z
" id="m89d02cd448" style="stroke:#faa43a;stroke-linejoin:miter;"/>
    </defs>
    <g>
     <use style="fill:#faa43a;stroke:#faa43a;stroke-linejoin:miter;" x="371.7255" xlink:href="#m89d02cd448" y="81.994938"/>
    </g>
   </g>
   <g id="text_16">
    <!-- NO WAIT -->
    <defs>
     <path d="M 4.828125 34.859375 
Q 4.828125 52.6875 14.390625 62.765625 
Q 23.96875 72.859375 39.109375 72.859375 
Q 49.03125 72.859375 56.984375 68.109375 
Q 64.9375 63.375 69.109375 54.90625 
Q 73.296875 46.4375 73.296875 35.6875 
Q 73.296875 24.8125 68.890625 16.21875 
Q 64.5 7.625 56.4375 3.203125 
Q 48.390625 -1.21875 39.0625 -1.21875 
Q 28.953125 -1.21875 20.984375 3.65625 
Q 13.03125 8.546875 8.921875 16.984375 
Q 4.828125 25.4375 4.828125 34.859375 
z
M 14.59375 34.71875 
Q 14.59375 21.78125 21.546875 14.328125 
Q 28.515625 6.890625 39.015625 6.890625 
Q 49.703125 6.890625 56.609375 14.40625 
Q 63.53125 21.921875 63.53125 35.75 
Q 63.53125 44.484375 60.578125 51 
Q 57.625 57.515625 51.921875 61.109375 
Q 46.234375 64.703125 39.15625 64.703125 
Q 29.109375 64.703125 21.84375 57.78125 
Q 14.59375 50.875 14.59375 34.71875 
z
" id="ArialMT-79"/>
    </defs>
    <g style="fill:#262626;" transform="translate(387.5655 85.074938)scale(0.088 -0.088)">
     <use xlink:href="#ArialMT-78"/>
     <use x="72.216797" xlink:href="#ArialMT-79"/>
     <use x="150" xlink:href="#ArialMT-32"/>
     <use x="177.783203" xlink:href="#ArialMT-87"/>
     <use x="272.121094" xlink:href="#ArialMT-65"/>
     <use x="338.820312" xlink:href="#ArialMT-73"/>
     <use x="366.603516" xlink:href="#ArialMT-84"/>
    </g>
   </g>
   <g id="line2d_66">
    <path d="M 362.9255 94.442813 
L 380.5255 94.442813 
" style="fill:none;stroke:#5da5da;stroke-linecap:round;stroke-width:1.2;"/>
   </g>
   <g id="line2d_67">
    <defs>
     <path d="M 0 -2.4 
L -2.282536 -0.741641 
L -1.410685 1.941641 
L 1.410685 1.941641 
L 2.282536 -0.741641 
z
" id="me93d8b6d70" style="stroke:#5da5da;stroke-linejoin:miter;"/>
    </defs>
    <g>
     <use style="fill:#5da5da;stroke:#5da5da;stroke-linejoin:miter;" x="371.7255" xlink:href="#me93d8b6d70" y="94.442813"/>
    </g>
   </g>
   <g id="text_17">
    <!-- MVCC -->
    <defs>
     <path d="M 7.421875 0 
L 7.421875 71.578125 
L 21.6875 71.578125 
L 38.625 20.90625 
Q 40.96875 13.8125 42.046875 10.296875 
Q 43.265625 14.203125 45.84375 21.78125 
L 62.984375 71.578125 
L 75.734375 71.578125 
L 75.734375 0 
L 66.609375 0 
L 66.609375 59.90625 
L 45.796875 0 
L 37.25 0 
L 16.546875 60.9375 
L 16.546875 0 
z
" id="ArialMT-77"/>
     <path d="M 28.171875 0 
L 0.4375 71.578125 
L 10.6875 71.578125 
L 29.296875 19.578125 
Q 31.546875 13.328125 33.0625 7.859375 
Q 34.71875 13.71875 36.921875 19.578125 
L 56.25 71.578125 
L 65.921875 71.578125 
L 37.890625 0 
z
" id="ArialMT-86"/>
    </defs>
    <g style="fill:#262626;" transform="translate(387.5655 97.522813)scale(0.088 -0.088)">
     <use xlink:href="#ArialMT-77"/>
     <use x="83.300781" xlink:href="#ArialMT-86"/>
     <use x="150" xlink:href="#ArialMT-67"/>
     <use x="222.216797" xlink:href="#ArialMT-67"/>
    </g>
   </g>
   <g id="line2d_68">
    <path d="M 362.9255 106.890688 
L 380.5255 106.890688 
" style="fill:none;stroke:#b276b2;stroke-linecap:round;stroke-width:1.2;"/>
   </g>
   <g id="line2d_69">
    <defs>
     <path d="M 0 2.4 
C 0.636487 2.4 1.246992 2.147121 1.697056 1.697056 
C 2.147121 1.246992 2.4 0.636487 2.4 0 
C 2.4 -0.636487 2.147121 -1.246992 1.697056 -1.697056 
C 1.246992 -2.147121 0.636487 -2.4 0 -2.4 
C -0.636487 -2.4 -1.246992 -2.147121 -1.697056 -1.697056 
C -2.147121 -1.246992 -2.4 -0.636487 -2.4 0 
C -2.4 0.636487 -2.147121 1.246992 -1.697056 1.697056 
C -1.246992 2.147121 -0.636487 2.4 0 2.4 
z
" id="m4fd9ec1be4" style="stroke:#b276b2;"/>
    </defs>
    <g>
     <use style="fill:#b276b2;stroke:#b276b2;" x="371.7255" xlink:href="#m4fd9ec1be4" y="106.890688"/>
    </g>
   </g>
   <g id="text_18">
    <!-- OCC -->
    <g style="fill:#262626;" transform="translate(387.5655 109.970688)scale(0.088 -0.088)">
     <use xlink:href="#ArialMT-79"/>
     <use x="77.783203" xlink:href="#ArialMT-67"/>
     <use x="150" xlink:href="#ArialMT-67"/>
    </g>
   </g>
   <g id="line2d_70">
    <path d="M 362.9255 119.338563 
L 380.5255 119.338563 
" style="fill:none;stroke:#4d4d4d;stroke-linecap:round;stroke-width:1.2;"/>
   </g>
   <g id="line2d_71">
    <defs>
     <path d="M -2.4 2.4 
L 2.4 2.4 
L 2.4 -2.4 
L -2.4 -2.4 
z
" id="mc4f10ed341" style="stroke:#4d4d4d;stroke-linejoin:miter;"/>
    </defs>
    <g>
     <use style="fill:#4d4d4d;stroke:#4d4d4d;stroke-linejoin:miter;" x="371.7255" xlink:href="#mc4f10ed341" y="119.338563"/>
    </g>
   </g>
   <g id="text_19">
    <!-- HSTORE -->
    <defs>
     <path d="M 8.015625 0 
L 8.015625 71.578125 
L 17.484375 71.578125 
L 17.484375 42.1875 
L 54.6875 42.1875 
L 54.6875 71.578125 
L 64.15625 71.578125 
L 64.15625 0 
L 54.6875 0 
L 54.6875 33.734375 
L 17.484375 33.734375 
L 17.484375 0 
z
" id="ArialMT-72"/>
     <path d="M 4.5 23 
L 13.421875 23.78125 
Q 14.0625 18.40625 16.375 14.96875 
Q 18.703125 11.53125 23.578125 9.40625 
Q 28.46875 7.28125 34.578125 7.28125 
Q 39.984375 7.28125 44.140625 8.890625 
Q 48.296875 10.5 50.3125 13.296875 
Q 52.34375 16.109375 52.34375 19.4375 
Q 52.34375 22.796875 50.390625 25.3125 
Q 48.4375 27.828125 43.953125 29.546875 
Q 41.0625 30.671875 31.203125 33.03125 
Q 21.34375 35.40625 17.390625 37.5 
Q 12.25 40.1875 9.734375 44.15625 
Q 7.234375 48.140625 7.234375 53.078125 
Q 7.234375 58.5 10.296875 63.203125 
Q 13.375 67.921875 19.28125 70.359375 
Q 25.203125 72.796875 32.421875 72.796875 
Q 40.375 72.796875 46.453125 70.234375 
Q 52.546875 67.671875 55.8125 62.6875 
Q 59.078125 57.71875 59.328125 51.421875 
L 50.25 50.734375 
Q 49.515625 57.515625 45.28125 60.984375 
Q 41.0625 64.453125 32.8125 64.453125 
Q 24.21875 64.453125 20.28125 61.296875 
Q 16.359375 58.15625 16.359375 53.71875 
Q 16.359375 49.859375 19.140625 47.359375 
Q 21.875 44.875 33.421875 42.265625 
Q 44.96875 39.65625 49.265625 37.703125 
Q 55.515625 34.8125 58.484375 30.390625 
Q 61.46875 25.984375 61.46875 20.21875 
Q 61.46875 14.5 58.203125 9.4375 
Q 54.9375 4.390625 48.796875 1.578125 
Q 42.671875 -1.21875 35.015625 -1.21875 
Q 25.296875 -1.21875 18.71875 1.609375 
Q 12.15625 4.4375 8.421875 10.125 
Q 4.6875 15.828125 4.5 23 
z
" id="ArialMT-83"/>
     <path d="M 7.859375 0 
L 7.859375 71.578125 
L 39.59375 71.578125 
Q 49.171875 71.578125 54.140625 69.640625 
Q 59.125 67.71875 62.109375 62.828125 
Q 65.09375 57.953125 65.09375 52.046875 
Q 65.09375 44.4375 60.15625 39.203125 
Q 55.21875 33.984375 44.921875 32.5625 
Q 48.6875 30.765625 50.640625 29 
Q 54.78125 25.203125 58.5 19.484375 
L 70.953125 0 
L 59.03125 0 
L 49.5625 14.890625 
Q 45.40625 21.34375 42.71875 24.75 
Q 40.046875 28.171875 37.921875 29.53125 
Q 35.796875 30.90625 33.59375 31.453125 
Q 31.984375 31.78125 28.328125 31.78125 
L 17.328125 31.78125 
L 17.328125 0 
z
M 17.328125 39.984375 
L 37.703125 39.984375 
Q 44.1875 39.984375 47.84375 41.328125 
Q 51.515625 42.671875 53.421875 45.625 
Q 55.328125 48.578125 55.328125 52.046875 
Q 55.328125 57.125 51.640625 60.390625 
Q 47.953125 63.671875 39.984375 63.671875 
L 17.328125 63.671875 
z
" id="ArialMT-82"/>
    </defs>
    <g style="fill:#262626;" transform="translate(387.5655 122.418563)scale(0.088 -0.088)">
     <use xlink:href="#ArialMT-72"/>
     <use x="72.216797" xlink:href="#ArialMT-83"/>
     <use x="138.916016" xlink:href="#ArialMT-84"/>
     <use x="199.984375" xlink:href="#ArialMT-79"/>
     <use x="277.767578" xlink:href="#ArialMT-82"/>
     <use x="349.984375" xlink:href="#ArialMT-69"/>
    </g>
   </g>
  </g>
 </g>
 <defs>
  <clipPath id="p3ac52126e5">
   <rect height="101.564" width="288.316653" x="71.559597" y="23.368"/>
  </clipPath>
 </defs>
</svg>
