<?xml version="1.0" encoding="utf-8" standalone="no"?>
<!DOCTYPE svg PUBLIC "-//W3C//DTD SVG 1.1//EN"
  "http://www.w3.org/Graphics/SVG/1.1/DTD/svg11.dtd">
<!-- Created with matplotlib (https://matplotlib.org/) -->
<svg height="165.6pt" version="1.1" viewBox="0 0 1153.625 165.6" width="1153.625pt" xmlns="http://www.w3.org/2000/svg" xmlns:xlink="http://www.w3.org/1999/xlink">
 <metadata>
  <rdf:RDF xmlns:cc="http://creativecommons.org/ns#" xmlns:dc="http://purl.org/dc/elements/1.1/" xmlns:rdf="http://www.w3.org/1999/02/22-rdf-syntax-ns#">
   <cc:Work>
    <dc:type rdf:resource="http://purl.org/dc/dcmitype/StillImage"/>
    <dc:date>2021-03-29T16:14:40.883369</dc:date>
    <dc:format>image/svg+xml</dc:format>
    <dc:creator>
     <cc:Agent>
      <dc:title>Matplotlib v3.3.2, https://matplotlib.org/</dc:title>
     </cc:Agent>
    </dc:creator>
   </cc:Work>
  </rdf:RDF>
 </metadata>
 <defs>
  <style type="text/css">*{stroke-linecap:butt;stroke-linejoin:round;}</style>
 </defs>
 <g id="figure_1">
  <g id="patch_1">
   <path d="M 0 165.6 
L 1153.625 165.6 
L 1153.625 0 
L 0 0 
z
" style="fill:#ffffff;"/>
  </g>
  <g id="axes_1">
   <g id="patch_2">
    <path d="M 32.634111 137.932 
L 372.079511 137.932 
L 372.079511 23.368 
L 32.634111 23.368 
z
" style="fill:#ffffff;"/>
   </g>
   <g id="matplotlib.axis_1">
    <g id="xtick_1">
     <g id="line2d_1">
      <path clip-path="url(#p60e7c14330)" d="M 32.634111 137.932 
L 32.634111 23.368 
" style="fill:none;stroke:#cccccc;stroke-linecap:round;stroke-width:0.8;"/>
     </g>
     <g id="text_1">
      <!-- 0 -->
      <g style="fill:#262626;" transform="translate(30.187298 146.030875)scale(0.088 -0.088)">
       <defs>
        <path d="M 4.15625 35.296875 
Q 4.15625 48 6.765625 55.734375 
Q 9.375 63.484375 14.515625 67.671875 
Q 19.671875 71.875 27.484375 71.875 
Q 33.25 71.875 37.59375 69.546875 
Q 41.9375 67.234375 44.765625 62.859375 
Q 47.609375 58.5 49.21875 52.21875 
Q 50.828125 45.953125 50.828125 35.296875 
Q 50.828125 22.703125 48.234375 14.96875 
Q 45.65625 7.234375 40.5 3 
Q 35.359375 -1.21875 27.484375 -1.21875 
Q 17.140625 -1.21875 11.234375 6.203125 
Q 4.15625 15.140625 4.15625 35.296875 
z
M 13.1875 35.296875 
Q 13.1875 17.671875 17.3125 11.828125 
Q 21.4375 6 27.484375 6 
Q 33.546875 6 37.671875 11.859375 
Q 41.796875 17.71875 41.796875 35.296875 
Q 41.796875 52.984375 37.671875 58.78125 
Q 33.546875 64.59375 27.390625 64.59375 
Q 21.34375 64.59375 17.71875 59.46875 
Q 13.1875 52.9375 13.1875 35.296875 
z
" id="ArialMT-48"/>
       </defs>
       <use xlink:href="#ArialMT-48"/>
      </g>
     </g>
    </g>
    <g id="xtick_2">
     <g id="line2d_2">
      <path clip-path="url(#p60e7c14330)" d="M 88.768624 137.932 
L 88.768624 23.368 
" style="fill:none;stroke:#cccccc;stroke-linecap:round;stroke-width:0.8;"/>
     </g>
     <g id="text_2">
      <!-- 50 -->
      <g style="fill:#262626;" transform="translate(83.874999 146.030875)scale(0.088 -0.088)">
       <defs>
        <path d="M 4.15625 18.75 
L 13.375 19.53125 
Q 14.40625 12.796875 18.140625 9.390625 
Q 21.875 6 27.15625 6 
Q 33.5 6 37.890625 10.78125 
Q 42.28125 15.578125 42.28125 23.484375 
Q 42.28125 31 38.0625 35.34375 
Q 33.84375 39.703125 27 39.703125 
Q 22.75 39.703125 19.328125 37.765625 
Q 15.921875 35.84375 13.96875 32.765625 
L 5.71875 33.84375 
L 12.640625 70.609375 
L 48.25 70.609375 
L 48.25 62.203125 
L 19.671875 62.203125 
L 15.828125 42.96875 
Q 22.265625 47.46875 29.34375 47.46875 
Q 38.71875 47.46875 45.15625 40.96875 
Q 51.609375 34.46875 51.609375 24.265625 
Q 51.609375 14.546875 45.953125 7.46875 
Q 39.0625 -1.21875 27.15625 -1.21875 
Q 17.390625 -1.21875 11.203125 4.25 
Q 5.03125 9.71875 4.15625 18.75 
z
" id="ArialMT-53"/>
       </defs>
       <use xlink:href="#ArialMT-53"/>
       <use x="55.615234" xlink:href="#ArialMT-48"/>
      </g>
     </g>
    </g>
    <g id="xtick_3">
     <g id="line2d_3">
      <path clip-path="url(#p60e7c14330)" d="M 144.903137 137.932 
L 144.903137 23.368 
" style="fill:none;stroke:#cccccc;stroke-linecap:round;stroke-width:0.8;"/>
     </g>
     <g id="text_3">
      <!-- 100 -->
      <g style="fill:#262626;" transform="translate(137.562699 146.030875)scale(0.088 -0.088)">
       <defs>
        <path d="M 37.25 0 
L 28.46875 0 
L 28.46875 56 
Q 25.296875 52.984375 20.140625 49.953125 
Q 14.984375 46.921875 10.890625 45.40625 
L 10.890625 53.90625 
Q 18.265625 57.375 23.78125 62.296875 
Q 29.296875 67.234375 31.59375 71.875 
L 37.25 71.875 
z
" id="ArialMT-49"/>
       </defs>
       <use xlink:href="#ArialMT-49"/>
       <use x="55.615234" xlink:href="#ArialMT-48"/>
       <use x="111.230469" xlink:href="#ArialMT-48"/>
      </g>
     </g>
    </g>
    <g id="xtick_4">
     <g id="line2d_4">
      <path clip-path="url(#p60e7c14330)" d="M 201.03765 137.932 
L 201.03765 23.368 
" style="fill:none;stroke:#cccccc;stroke-linecap:round;stroke-width:0.8;"/>
     </g>
     <g id="text_4">
      <!-- 150 -->
      <g style="fill:#262626;" transform="translate(193.697212 146.030875)scale(0.088 -0.088)">
       <use xlink:href="#ArialMT-49"/>
       <use x="55.615234" xlink:href="#ArialMT-53"/>
       <use x="111.230469" xlink:href="#ArialMT-48"/>
      </g>
     </g>
    </g>
    <g id="xtick_5">
     <g id="line2d_5">
      <path clip-path="url(#p60e7c14330)" d="M 257.172163 137.932 
L 257.172163 23.368 
" style="fill:none;stroke:#cccccc;stroke-linecap:round;stroke-width:0.8;"/>
     </g>
     <g id="text_5">
      <!-- 200 -->
      <g style="fill:#262626;" transform="translate(249.831725 146.030875)scale(0.088 -0.088)">
       <defs>
        <path d="M 50.34375 8.453125 
L 50.34375 0 
L 3.03125 0 
Q 2.9375 3.171875 4.046875 6.109375 
Q 5.859375 10.9375 9.828125 15.625 
Q 13.8125 20.3125 21.34375 26.46875 
Q 33.015625 36.03125 37.109375 41.625 
Q 41.21875 47.21875 41.21875 52.203125 
Q 41.21875 57.421875 37.46875 61 
Q 33.734375 64.59375 27.734375 64.59375 
Q 21.390625 64.59375 17.578125 60.78125 
Q 13.765625 56.984375 13.71875 50.25 
L 4.6875 51.171875 
Q 5.609375 61.28125 11.65625 66.578125 
Q 17.71875 71.875 27.9375 71.875 
Q 38.234375 71.875 44.234375 66.15625 
Q 50.25 60.453125 50.25 52 
Q 50.25 47.703125 48.484375 43.546875 
Q 46.734375 39.40625 42.65625 34.8125 
Q 38.578125 30.21875 29.109375 22.21875 
Q 21.1875 15.578125 18.9375 13.203125 
Q 16.703125 10.84375 15.234375 8.453125 
z
" id="ArialMT-50"/>
       </defs>
       <use xlink:href="#ArialMT-50"/>
       <use x="55.615234" xlink:href="#ArialMT-48"/>
       <use x="111.230469" xlink:href="#ArialMT-48"/>
      </g>
     </g>
    </g>
    <g id="xtick_6">
     <g id="line2d_6">
      <path clip-path="url(#p60e7c14330)" d="M 313.306676 137.932 
L 313.306676 23.368 
" style="fill:none;stroke:#cccccc;stroke-linecap:round;stroke-width:0.8;"/>
     </g>
     <g id="text_6">
      <!-- 250 -->
      <g style="fill:#262626;" transform="translate(305.966239 146.030875)scale(0.088 -0.088)">
       <use xlink:href="#ArialMT-50"/>
       <use x="55.615234" xlink:href="#ArialMT-53"/>
       <use x="111.230469" xlink:href="#ArialMT-48"/>
      </g>
     </g>
    </g>
    <g id="xtick_7">
     <g id="line2d_7">
      <path clip-path="url(#p60e7c14330)" d="M 369.441189 137.932 
L 369.441189 23.368 
" style="fill:none;stroke:#cccccc;stroke-linecap:round;stroke-width:0.8;"/>
     </g>
     <g id="text_7">
      <!-- 300 -->
      <g style="fill:#262626;" transform="translate(362.100752 146.030875)scale(0.088 -0.088)">
       <defs>
        <path d="M 4.203125 18.890625 
L 12.984375 20.0625 
Q 14.5 12.59375 18.140625 9.296875 
Q 21.78125 6 27 6 
Q 33.203125 6 37.46875 10.296875 
Q 41.75 14.59375 41.75 20.953125 
Q 41.75 27 37.796875 30.921875 
Q 33.84375 34.859375 27.734375 34.859375 
Q 25.25 34.859375 21.53125 33.890625 
L 22.515625 41.609375 
Q 23.390625 41.5 23.921875 41.5 
Q 29.546875 41.5 34.03125 44.421875 
Q 38.53125 47.359375 38.53125 53.46875 
Q 38.53125 58.296875 35.25 61.46875 
Q 31.984375 64.65625 26.8125 64.65625 
Q 21.6875 64.65625 18.265625 61.421875 
Q 14.84375 58.203125 13.875 51.765625 
L 5.078125 53.328125 
Q 6.6875 62.15625 12.390625 67.015625 
Q 18.109375 71.875 26.609375 71.875 
Q 32.46875 71.875 37.390625 69.359375 
Q 42.328125 66.84375 44.9375 62.5 
Q 47.5625 58.15625 47.5625 53.265625 
Q 47.5625 48.640625 45.0625 44.828125 
Q 42.578125 41.015625 37.703125 38.765625 
Q 44.046875 37.3125 47.5625 32.6875 
Q 51.078125 28.078125 51.078125 21.140625 
Q 51.078125 11.765625 44.234375 5.25 
Q 37.40625 -1.265625 26.953125 -1.265625 
Q 17.53125 -1.265625 11.296875 4.34375 
Q 5.078125 9.96875 4.203125 18.890625 
z
" id="ArialMT-51"/>
       </defs>
       <use xlink:href="#ArialMT-51"/>
       <use x="55.615234" xlink:href="#ArialMT-48"/>
       <use x="111.230469" xlink:href="#ArialMT-48"/>
      </g>
     </g>
    </g>
    <g id="text_8">
     <!-- Number of Cores -->
     <g style="fill:#262626;" transform="translate(165.813061 158.651375)scale(0.096 -0.096)">
      <defs>
       <path d="M 7.625 0 
L 7.625 71.578125 
L 17.328125 71.578125 
L 54.9375 15.375 
L 54.9375 71.578125 
L 64.015625 71.578125 
L 64.015625 0 
L 54.296875 0 
L 16.703125 56.25 
L 16.703125 0 
z
" id="ArialMT-78"/>
       <path d="M 40.578125 0 
L 40.578125 7.625 
Q 34.515625 -1.171875 24.125 -1.171875 
Q 19.53125 -1.171875 15.546875 0.578125 
Q 11.578125 2.34375 9.640625 5 
Q 7.71875 7.671875 6.9375 11.53125 
Q 6.390625 14.109375 6.390625 19.734375 
L 6.390625 51.859375 
L 15.1875 51.859375 
L 15.1875 23.09375 
Q 15.1875 16.21875 15.71875 13.8125 
Q 16.546875 10.359375 19.234375 8.375 
Q 21.921875 6.390625 25.875 6.390625 
Q 29.828125 6.390625 33.296875 8.421875 
Q 36.765625 10.453125 38.203125 13.9375 
Q 39.65625 17.4375 39.65625 24.078125 
L 39.65625 51.859375 
L 48.4375 51.859375 
L 48.4375 0 
z
" id="ArialMT-117"/>
       <path d="M 6.59375 0 
L 6.59375 51.859375 
L 14.453125 51.859375 
L 14.453125 44.578125 
Q 16.890625 48.390625 20.9375 50.703125 
Q 25 53.03125 30.171875 53.03125 
Q 35.9375 53.03125 39.625 50.640625 
Q 43.3125 48.25 44.828125 43.953125 
Q 50.984375 53.03125 60.84375 53.03125 
Q 68.5625 53.03125 72.703125 48.75 
Q 76.859375 44.484375 76.859375 35.59375 
L 76.859375 0 
L 68.109375 0 
L 68.109375 32.671875 
Q 68.109375 37.9375 67.25 40.25 
Q 66.40625 42.578125 64.15625 43.984375 
Q 61.921875 45.40625 58.890625 45.40625 
Q 53.421875 45.40625 49.796875 41.765625 
Q 46.1875 38.140625 46.1875 30.125 
L 46.1875 0 
L 37.40625 0 
L 37.40625 33.6875 
Q 37.40625 39.546875 35.25 42.46875 
Q 33.109375 45.40625 28.21875 45.40625 
Q 24.515625 45.40625 21.359375 43.453125 
Q 18.21875 41.5 16.796875 37.734375 
Q 15.375 33.984375 15.375 26.90625 
L 15.375 0 
z
" id="ArialMT-109"/>
       <path d="M 14.703125 0 
L 6.546875 0 
L 6.546875 71.578125 
L 15.328125 71.578125 
L 15.328125 46.046875 
Q 20.90625 53.03125 29.546875 53.03125 
Q 34.328125 53.03125 38.59375 51.09375 
Q 42.875 49.171875 45.625 45.671875 
Q 48.390625 42.1875 49.953125 37.25 
Q 51.515625 32.328125 51.515625 26.703125 
Q 51.515625 13.375 44.921875 6.09375 
Q 38.328125 -1.171875 29.109375 -1.171875 
Q 19.921875 -1.171875 14.703125 6.5 
z
M 14.59375 26.3125 
Q 14.59375 17 17.140625 12.84375 
Q 21.296875 6.0625 28.375 6.0625 
Q 34.125 6.0625 38.328125 11.0625 
Q 42.53125 16.0625 42.53125 25.984375 
Q 42.53125 36.140625 38.5 40.96875 
Q 34.46875 45.796875 28.765625 45.796875 
Q 23 45.796875 18.796875 40.796875 
Q 14.59375 35.796875 14.59375 26.3125 
z
" id="ArialMT-98"/>
       <path d="M 42.09375 16.703125 
L 51.171875 15.578125 
Q 49.03125 7.625 43.21875 3.21875 
Q 37.40625 -1.171875 28.375 -1.171875 
Q 17 -1.171875 10.328125 5.828125 
Q 3.65625 12.84375 3.65625 25.484375 
Q 3.65625 38.578125 10.390625 45.796875 
Q 17.140625 53.03125 27.875 53.03125 
Q 38.28125 53.03125 44.875 45.953125 
Q 51.46875 38.875 51.46875 26.03125 
Q 51.46875 25.25 51.421875 23.6875 
L 12.75 23.6875 
Q 13.234375 15.140625 17.578125 10.59375 
Q 21.921875 6.0625 28.421875 6.0625 
Q 33.25 6.0625 36.671875 8.59375 
Q 40.09375 11.140625 42.09375 16.703125 
z
M 13.234375 30.90625 
L 42.1875 30.90625 
Q 41.609375 37.453125 38.875 40.71875 
Q 34.671875 45.796875 27.984375 45.796875 
Q 21.921875 45.796875 17.796875 41.75 
Q 13.671875 37.703125 13.234375 30.90625 
z
" id="ArialMT-101"/>
       <path d="M 6.5 0 
L 6.5 51.859375 
L 14.40625 51.859375 
L 14.40625 44 
Q 17.4375 49.515625 20 51.265625 
Q 22.5625 53.03125 25.640625 53.03125 
Q 30.078125 53.03125 34.671875 50.203125 
L 31.640625 42.046875 
Q 28.421875 43.953125 25.203125 43.953125 
Q 22.3125 43.953125 20.015625 42.21875 
Q 17.71875 40.484375 16.75 37.40625 
Q 15.28125 32.71875 15.28125 27.15625 
L 15.28125 0 
z
" id="ArialMT-114"/>
       <path id="ArialMT-32"/>
       <path d="M 3.328125 25.921875 
Q 3.328125 40.328125 11.328125 47.265625 
Q 18.015625 53.03125 27.640625 53.03125 
Q 38.328125 53.03125 45.109375 46.015625 
Q 51.90625 39.015625 51.90625 26.65625 
Q 51.90625 16.65625 48.90625 10.90625 
Q 45.90625 5.171875 40.15625 2 
Q 34.421875 -1.171875 27.640625 -1.171875 
Q 16.75 -1.171875 10.03125 5.8125 
Q 3.328125 12.796875 3.328125 25.921875 
z
M 12.359375 25.921875 
Q 12.359375 15.96875 16.703125 11.015625 
Q 21.046875 6.0625 27.640625 6.0625 
Q 34.1875 6.0625 38.53125 11.03125 
Q 42.875 16.015625 42.875 26.21875 
Q 42.875 35.84375 38.5 40.796875 
Q 34.125 45.75 27.640625 45.75 
Q 21.046875 45.75 16.703125 40.8125 
Q 12.359375 35.890625 12.359375 25.921875 
z
" id="ArialMT-111"/>
       <path d="M 8.6875 0 
L 8.6875 45.015625 
L 0.921875 45.015625 
L 0.921875 51.859375 
L 8.6875 51.859375 
L 8.6875 57.375 
Q 8.6875 62.59375 9.625 65.140625 
Q 10.890625 68.5625 14.078125 70.671875 
Q 17.28125 72.796875 23.046875 72.796875 
Q 26.765625 72.796875 31.25 71.921875 
L 29.9375 64.265625 
Q 27.203125 64.75 24.75 64.75 
Q 20.75 64.75 19.09375 63.03125 
Q 17.4375 61.328125 17.4375 56.640625 
L 17.4375 51.859375 
L 27.546875 51.859375 
L 27.546875 45.015625 
L 17.4375 45.015625 
L 17.4375 0 
z
" id="ArialMT-102"/>
       <path d="M 58.796875 25.09375 
L 68.265625 22.703125 
Q 65.28125 11.03125 57.546875 4.90625 
Q 49.8125 -1.21875 38.625 -1.21875 
Q 27.046875 -1.21875 19.796875 3.484375 
Q 12.546875 8.203125 8.765625 17.140625 
Q 4.984375 26.078125 4.984375 36.328125 
Q 4.984375 47.515625 9.25 55.828125 
Q 13.53125 64.15625 21.40625 68.46875 
Q 29.296875 72.796875 38.765625 72.796875 
Q 49.515625 72.796875 56.828125 67.328125 
Q 64.15625 61.859375 67.046875 51.953125 
L 57.71875 49.75 
Q 55.21875 57.5625 50.484375 61.125 
Q 45.75 64.703125 38.578125 64.703125 
Q 30.328125 64.703125 24.78125 60.734375 
Q 19.234375 56.78125 16.984375 50.109375 
Q 14.75 43.453125 14.75 36.375 
Q 14.75 27.25 17.40625 20.4375 
Q 20.0625 13.625 25.671875 10.25 
Q 31.296875 6.890625 37.84375 6.890625 
Q 45.796875 6.890625 51.3125 11.46875 
Q 56.84375 16.0625 58.796875 25.09375 
z
" id="ArialMT-67"/>
       <path d="M 3.078125 15.484375 
L 11.765625 16.84375 
Q 12.5 11.625 15.84375 8.84375 
Q 19.1875 6.0625 25.203125 6.0625 
Q 31.25 6.0625 34.171875 8.515625 
Q 37.109375 10.984375 37.109375 14.3125 
Q 37.109375 17.28125 34.515625 19 
Q 32.71875 20.171875 25.53125 21.96875 
Q 15.875 24.421875 12.140625 26.203125 
Q 8.40625 27.984375 6.46875 31.125 
Q 4.546875 34.28125 4.546875 38.09375 
Q 4.546875 41.546875 6.125 44.5 
Q 7.71875 47.46875 10.453125 49.421875 
Q 12.5 50.921875 16.03125 51.96875 
Q 19.578125 53.03125 23.640625 53.03125 
Q 29.734375 53.03125 34.34375 51.265625 
Q 38.96875 49.515625 41.15625 46.5 
Q 43.359375 43.5 44.1875 38.484375 
L 35.59375 37.3125 
Q 35.015625 41.3125 32.203125 43.546875 
Q 29.390625 45.796875 24.265625 45.796875 
Q 18.21875 45.796875 15.625 43.796875 
Q 13.03125 41.796875 13.03125 39.109375 
Q 13.03125 37.40625 14.109375 36.03125 
Q 15.1875 34.625 17.484375 33.6875 
Q 18.796875 33.203125 25.25 31.453125 
Q 34.578125 28.953125 38.25 27.359375 
Q 41.9375 25.78125 44.03125 22.75 
Q 46.140625 19.734375 46.140625 15.234375 
Q 46.140625 10.84375 43.578125 6.953125 
Q 41.015625 3.078125 36.171875 0.953125 
Q 31.34375 -1.171875 25.25 -1.171875 
Q 15.140625 -1.171875 9.84375 3.03125 
Q 4.546875 7.234375 3.078125 15.484375 
z
" id="ArialMT-115"/>
      </defs>
      <use xlink:href="#ArialMT-78"/>
      <use x="72.216797" xlink:href="#ArialMT-117"/>
      <use x="127.832031" xlink:href="#ArialMT-109"/>
      <use x="211.132812" xlink:href="#ArialMT-98"/>
      <use x="266.748047" xlink:href="#ArialMT-101"/>
      <use x="322.363281" xlink:href="#ArialMT-114"/>
      <use x="355.664062" xlink:href="#ArialMT-32"/>
      <use x="383.447266" xlink:href="#ArialMT-111"/>
      <use x="439.0625" xlink:href="#ArialMT-102"/>
      <use x="466.845703" xlink:href="#ArialMT-32"/>
      <use x="494.628906" xlink:href="#ArialMT-67"/>
      <use x="566.845703" xlink:href="#ArialMT-111"/>
      <use x="622.460938" xlink:href="#ArialMT-114"/>
      <use x="655.761719" xlink:href="#ArialMT-101"/>
      <use x="711.376953" xlink:href="#ArialMT-115"/>
     </g>
    </g>
   </g>
   <g id="matplotlib.axis_2">
    <g id="ytick_1">
     <g id="line2d_8">
      <path clip-path="url(#p60e7c14330)" d="M 32.634111 137.932 
L 372.079511 137.932 
" style="fill:none;stroke:#cccccc;stroke-linecap:round;stroke-width:0.8;"/>
     </g>
     <g id="text_9">
      <!-- 0.00% -->
      <g style="fill:#262626;" transform="translate(-0.616639 141.081437)scale(0.088 -0.088)">
       <defs>
        <path d="M 9.078125 0 
L 9.078125 10.015625 
L 19.09375 10.015625 
L 19.09375 0 
z
" id="ArialMT-46"/>
        <path d="M 5.8125 54.390625 
Q 5.8125 62.0625 9.671875 67.421875 
Q 13.53125 72.796875 20.84375 72.796875 
Q 27.59375 72.796875 32 67.984375 
Q 36.421875 63.1875 36.421875 53.859375 
Q 36.421875 44.78125 31.953125 39.875 
Q 27.484375 34.96875 20.953125 34.96875 
Q 14.453125 34.96875 10.125 39.796875 
Q 5.8125 44.625 5.8125 54.390625 
z
M 21.09375 66.75 
Q 17.828125 66.75 15.65625 63.90625 
Q 13.484375 61.078125 13.484375 53.515625 
Q 13.484375 46.625 15.671875 43.8125 
Q 17.875 41.015625 21.09375 41.015625 
Q 24.421875 41.015625 26.59375 43.84375 
Q 28.765625 46.6875 28.765625 54.203125 
Q 28.765625 61.140625 26.5625 63.9375 
Q 24.359375 66.75 21.09375 66.75 
z
M 21.140625 -2.640625 
L 60.296875 72.796875 
L 67.4375 72.796875 
L 28.421875 -2.640625 
z
M 52.09375 16.796875 
Q 52.09375 24.515625 55.953125 29.859375 
Q 59.8125 35.203125 67.1875 35.203125 
Q 73.921875 35.203125 78.34375 30.390625 
Q 82.765625 25.59375 82.765625 16.265625 
Q 82.765625 7.171875 78.296875 2.265625 
Q 73.828125 -2.640625 67.234375 -2.640625 
Q 60.75 -2.640625 56.421875 2.21875 
Q 52.09375 7.078125 52.09375 16.796875 
z
M 67.4375 29.15625 
Q 64.109375 29.15625 61.9375 26.3125 
Q 59.765625 23.484375 59.765625 15.921875 
Q 59.765625 9.078125 61.953125 6.25 
Q 64.15625 3.421875 67.390625 3.421875 
Q 70.75 3.421875 72.921875 6.25 
Q 75.09375 9.078125 75.09375 16.609375 
Q 75.09375 23.53125 72.890625 26.34375 
Q 70.703125 29.15625 67.4375 29.15625 
z
" id="ArialMT-37"/>
       </defs>
       <use xlink:href="#ArialMT-48"/>
       <use x="55.615234" xlink:href="#ArialMT-46"/>
       <use x="83.398438" xlink:href="#ArialMT-48"/>
       <use x="139.013672" xlink:href="#ArialMT-48"/>
       <use x="194.628906" xlink:href="#ArialMT-37"/>
      </g>
     </g>
    </g>
    <g id="ytick_2">
     <g id="line2d_9">
      <path clip-path="url(#p60e7c14330)" d="M 32.634111 115.62736 
L 372.079511 115.62736 
" style="fill:none;stroke:#cccccc;stroke-linecap:round;stroke-width:0.8;"/>
     </g>
     <g id="text_10">
      <!-- 20.00% -->
      <g style="fill:#262626;" transform="translate(-5.510264 118.776798)scale(0.088 -0.088)">
       <use xlink:href="#ArialMT-50"/>
       <use x="55.615234" xlink:href="#ArialMT-48"/>
       <use x="111.230469" xlink:href="#ArialMT-46"/>
       <use x="139.013672" xlink:href="#ArialMT-48"/>
       <use x="194.628906" xlink:href="#ArialMT-48"/>
       <use x="250.244141" xlink:href="#ArialMT-37"/>
      </g>
     </g>
    </g>
    <g id="ytick_3">
     <g id="line2d_10">
      <path clip-path="url(#p60e7c14330)" d="M 32.634111 93.322721 
L 372.079511 93.322721 
" style="fill:none;stroke:#cccccc;stroke-linecap:round;stroke-width:0.8;"/>
     </g>
     <g id="text_11">
      <!-- 40.00% -->
      <g style="fill:#262626;" transform="translate(-5.510264 96.472158)scale(0.088 -0.088)">
       <defs>
        <path d="M 32.328125 0 
L 32.328125 17.140625 
L 1.265625 17.140625 
L 1.265625 25.203125 
L 33.9375 71.578125 
L 41.109375 71.578125 
L 41.109375 25.203125 
L 50.78125 25.203125 
L 50.78125 17.140625 
L 41.109375 17.140625 
L 41.109375 0 
z
M 32.328125 25.203125 
L 32.328125 57.46875 
L 9.90625 25.203125 
z
" id="ArialMT-52"/>
       </defs>
       <use xlink:href="#ArialMT-52"/>
       <use x="55.615234" xlink:href="#ArialMT-48"/>
       <use x="111.230469" xlink:href="#ArialMT-46"/>
       <use x="139.013672" xlink:href="#ArialMT-48"/>
       <use x="194.628906" xlink:href="#ArialMT-48"/>
       <use x="250.244141" xlink:href="#ArialMT-37"/>
      </g>
     </g>
    </g>
    <g id="ytick_4">
     <g id="line2d_11">
      <path clip-path="url(#p60e7c14330)" d="M 32.634111 71.018081 
L 372.079511 71.018081 
" style="fill:none;stroke:#cccccc;stroke-linecap:round;stroke-width:0.8;"/>
     </g>
     <g id="text_12">
      <!-- 60.00% -->
      <g style="fill:#262626;" transform="translate(-5.510264 74.167518)scale(0.088 -0.088)">
       <defs>
        <path d="M 49.75 54.046875 
L 41.015625 53.375 
Q 39.84375 58.546875 37.703125 60.890625 
Q 34.125 64.65625 28.90625 64.65625 
Q 24.703125 64.65625 21.53125 62.3125 
Q 17.390625 59.28125 14.984375 53.46875 
Q 12.59375 47.65625 12.5 36.921875 
Q 15.671875 41.75 20.265625 44.09375 
Q 24.859375 46.4375 29.890625 46.4375 
Q 38.671875 46.4375 44.84375 39.96875 
Q 51.03125 33.5 51.03125 23.25 
Q 51.03125 16.5 48.125 10.71875 
Q 45.21875 4.9375 40.140625 1.859375 
Q 35.0625 -1.21875 28.609375 -1.21875 
Q 17.625 -1.21875 10.6875 6.859375 
Q 3.765625 14.9375 3.765625 33.5 
Q 3.765625 54.25 11.421875 63.671875 
Q 18.109375 71.875 29.4375 71.875 
Q 37.890625 71.875 43.28125 67.140625 
Q 48.6875 62.40625 49.75 54.046875 
z
M 13.875 23.1875 
Q 13.875 18.65625 15.796875 14.5 
Q 17.71875 10.359375 21.1875 8.171875 
Q 24.65625 6 28.46875 6 
Q 34.03125 6 38.03125 10.484375 
Q 42.046875 14.984375 42.046875 22.703125 
Q 42.046875 30.125 38.078125 34.390625 
Q 34.125 38.671875 28.125 38.671875 
Q 22.171875 38.671875 18.015625 34.390625 
Q 13.875 30.125 13.875 23.1875 
z
" id="ArialMT-54"/>
       </defs>
       <use xlink:href="#ArialMT-54"/>
       <use x="55.615234" xlink:href="#ArialMT-48"/>
       <use x="111.230469" xlink:href="#ArialMT-46"/>
       <use x="139.013672" xlink:href="#ArialMT-48"/>
       <use x="194.628906" xlink:href="#ArialMT-48"/>
       <use x="250.244141" xlink:href="#ArialMT-37"/>
      </g>
     </g>
    </g>
    <g id="ytick_5">
     <g id="line2d_12">
      <path clip-path="url(#p60e7c14330)" d="M 32.634111 48.713441 
L 372.079511 48.713441 
" style="fill:none;stroke:#cccccc;stroke-linecap:round;stroke-width:0.8;"/>
     </g>
     <g id="text_13">
      <!-- 80.00% -->
      <g style="fill:#262626;" transform="translate(-5.510264 51.862879)scale(0.088 -0.088)">
       <defs>
        <path d="M 17.671875 38.8125 
Q 12.203125 40.828125 9.5625 44.53125 
Q 6.9375 48.25 6.9375 53.421875 
Q 6.9375 61.234375 12.546875 66.546875 
Q 18.171875 71.875 27.484375 71.875 
Q 36.859375 71.875 42.578125 66.421875 
Q 48.296875 60.984375 48.296875 53.171875 
Q 48.296875 48.1875 45.671875 44.5 
Q 43.0625 40.828125 37.75 38.8125 
Q 44.34375 36.671875 47.78125 31.875 
Q 51.21875 27.09375 51.21875 20.453125 
Q 51.21875 11.28125 44.71875 5.03125 
Q 38.234375 -1.21875 27.640625 -1.21875 
Q 17.046875 -1.21875 10.546875 5.046875 
Q 4.046875 11.328125 4.046875 20.703125 
Q 4.046875 27.6875 7.59375 32.390625 
Q 11.140625 37.109375 17.671875 38.8125 
z
M 15.921875 53.71875 
Q 15.921875 48.640625 19.1875 45.40625 
Q 22.46875 42.1875 27.6875 42.1875 
Q 32.765625 42.1875 36.015625 45.375 
Q 39.265625 48.578125 39.265625 53.21875 
Q 39.265625 58.0625 35.90625 61.359375 
Q 32.5625 64.65625 27.59375 64.65625 
Q 22.5625 64.65625 19.234375 61.421875 
Q 15.921875 58.203125 15.921875 53.71875 
z
M 13.09375 20.65625 
Q 13.09375 16.890625 14.875 13.375 
Q 16.65625 9.859375 20.171875 7.921875 
Q 23.6875 6 27.734375 6 
Q 34.03125 6 38.125 10.046875 
Q 42.234375 14.109375 42.234375 20.359375 
Q 42.234375 26.703125 38.015625 30.859375 
Q 33.796875 35.015625 27.4375 35.015625 
Q 21.234375 35.015625 17.15625 30.90625 
Q 13.09375 26.8125 13.09375 20.65625 
z
" id="ArialMT-56"/>
       </defs>
       <use xlink:href="#ArialMT-56"/>
       <use x="55.615234" xlink:href="#ArialMT-48"/>
       <use x="111.230469" xlink:href="#ArialMT-46"/>
       <use x="139.013672" xlink:href="#ArialMT-48"/>
       <use x="194.628906" xlink:href="#ArialMT-48"/>
       <use x="250.244141" xlink:href="#ArialMT-37"/>
      </g>
     </g>
    </g>
    <g id="ytick_6">
     <g id="line2d_13">
      <path clip-path="url(#p60e7c14330)" d="M 32.634111 26.408801 
L 372.079511 26.408801 
" style="fill:none;stroke:#cccccc;stroke-linecap:round;stroke-width:0.8;"/>
     </g>
     <g id="text_14">
      <!-- 100.00% -->
      <g style="fill:#262626;" transform="translate(-10.403889 29.558239)scale(0.088 -0.088)">
       <use xlink:href="#ArialMT-49"/>
       <use x="55.615234" xlink:href="#ArialMT-48"/>
       <use x="111.230469" xlink:href="#ArialMT-48"/>
       <use x="166.845703" xlink:href="#ArialMT-46"/>
       <use x="194.628906" xlink:href="#ArialMT-48"/>
       <use x="250.244141" xlink:href="#ArialMT-48"/>
       <use x="305.859375" xlink:href="#ArialMT-37"/>
      </g>
     </g>
    </g>
    <g id="text_15">
     <!-- Abort/Total -->
     <g style="fill:#262626;" transform="translate(-16.311889 103.59175)rotate(-90)scale(0.096 -0.096)">
      <defs>
       <path d="M -0.140625 0 
L 27.34375 71.578125 
L 37.546875 71.578125 
L 66.84375 0 
L 56.0625 0 
L 47.703125 21.6875 
L 17.78125 21.6875 
L 9.90625 0 
z
M 20.515625 29.390625 
L 44.78125 29.390625 
L 37.3125 49.21875 
Q 33.890625 58.25 32.234375 64.0625 
Q 30.859375 57.171875 28.375 50.390625 
z
" id="ArialMT-65"/>
       <path d="M 25.78125 7.859375 
L 27.046875 0.09375 
Q 23.34375 -0.6875 20.40625 -0.6875 
Q 15.625 -0.6875 12.984375 0.828125 
Q 10.359375 2.34375 9.28125 4.8125 
Q 8.203125 7.28125 8.203125 15.1875 
L 8.203125 45.015625 
L 1.765625 45.015625 
L 1.765625 51.859375 
L 8.203125 51.859375 
L 8.203125 64.703125 
L 16.9375 69.96875 
L 16.9375 51.859375 
L 25.78125 51.859375 
L 25.78125 45.015625 
L 16.9375 45.015625 
L 16.9375 14.703125 
Q 16.9375 10.9375 17.40625 9.859375 
Q 17.875 8.796875 18.921875 8.15625 
Q 19.96875 7.515625 21.921875 7.515625 
Q 23.390625 7.515625 25.78125 7.859375 
z
" id="ArialMT-116"/>
       <path d="M 0 -1.21875 
L 20.75 72.796875 
L 27.78125 72.796875 
L 7.078125 -1.21875 
z
" id="ArialMT-47"/>
       <path d="M 25.921875 0 
L 25.921875 63.140625 
L 2.34375 63.140625 
L 2.34375 71.578125 
L 59.078125 71.578125 
L 59.078125 63.140625 
L 35.40625 63.140625 
L 35.40625 0 
z
" id="ArialMT-84"/>
       <path d="M 40.4375 6.390625 
Q 35.546875 2.25 31.03125 0.53125 
Q 26.515625 -1.171875 21.34375 -1.171875 
Q 12.796875 -1.171875 8.203125 3 
Q 3.609375 7.171875 3.609375 13.671875 
Q 3.609375 17.484375 5.34375 20.625 
Q 7.078125 23.78125 9.890625 25.6875 
Q 12.703125 27.59375 16.21875 28.5625 
Q 18.796875 29.25 24.03125 29.890625 
Q 34.671875 31.15625 39.703125 32.90625 
Q 39.75 34.71875 39.75 35.203125 
Q 39.75 40.578125 37.25 42.78125 
Q 33.890625 45.75 27.25 45.75 
Q 21.046875 45.75 18.09375 43.578125 
Q 15.140625 41.40625 13.71875 35.890625 
L 5.125 37.0625 
Q 6.296875 42.578125 8.984375 45.96875 
Q 11.671875 49.359375 16.75 51.1875 
Q 21.828125 53.03125 28.515625 53.03125 
Q 35.15625 53.03125 39.296875 51.46875 
Q 43.453125 49.90625 45.40625 47.53125 
Q 47.359375 45.171875 48.140625 41.546875 
Q 48.578125 39.3125 48.578125 33.453125 
L 48.578125 21.734375 
Q 48.578125 9.46875 49.140625 6.21875 
Q 49.703125 2.984375 51.375 0 
L 42.1875 0 
Q 40.828125 2.734375 40.4375 6.390625 
z
M 39.703125 26.03125 
Q 34.90625 24.078125 25.34375 22.703125 
Q 19.921875 21.921875 17.671875 20.9375 
Q 15.4375 19.96875 14.203125 18.09375 
Q 12.984375 16.21875 12.984375 13.921875 
Q 12.984375 10.40625 15.640625 8.0625 
Q 18.3125 5.71875 23.4375 5.71875 
Q 28.515625 5.71875 32.46875 7.9375 
Q 36.421875 10.15625 38.28125 14.015625 
Q 39.703125 17 39.703125 22.796875 
z
" id="ArialMT-97"/>
       <path d="M 6.390625 0 
L 6.390625 71.578125 
L 15.1875 71.578125 
L 15.1875 0 
z
" id="ArialMT-108"/>
      </defs>
      <use xlink:href="#ArialMT-65"/>
      <use x="66.699219" xlink:href="#ArialMT-98"/>
      <use x="122.314453" xlink:href="#ArialMT-111"/>
      <use x="177.929688" xlink:href="#ArialMT-114"/>
      <use x="211.230469" xlink:href="#ArialMT-116"/>
      <use x="239.013672" xlink:href="#ArialMT-47"/>
      <use x="266.796875" xlink:href="#ArialMT-84"/>
      <use x="316.755859" xlink:href="#ArialMT-111"/>
      <use x="372.371094" xlink:href="#ArialMT-116"/>
      <use x="400.154297" xlink:href="#ArialMT-97"/>
      <use x="455.769531" xlink:href="#ArialMT-108"/>
     </g>
    </g>
   </g>
   <g id="line2d_14">
    <path clip-path="url(#p60e7c14330)" d="M 33.756801 137.932 
L 34.879491 137.930529 
L 37.124872 137.92648 
L 41.615633 117.014807 
L 50.597155 92.890224 
L 59.578677 81.63869 
L 86.523243 59.354322 
L 140.412376 33.286698 
L 248.190641 29.954065 
L 355.968906 28.823429 
" style="fill:none;stroke:#edd1cb;stroke-linecap:round;stroke-width:1.2;"/>
    <defs>
     <path d="M 0 2.4 
C 0.636487 2.4 1.246992 2.147121 1.697056 1.697056 
C 2.147121 1.246992 2.4 0.636487 2.4 0 
C 2.4 -0.636487 2.147121 -1.246992 1.697056 -1.697056 
C 1.246992 -2.147121 0.636487 -2.4 0 -2.4 
C -0.636487 -2.4 -1.246992 -2.147121 -1.697056 -1.697056 
C -2.147121 -1.246992 -2.4 -0.636487 -2.4 0 
C -2.4 0.636487 -2.147121 1.246992 -1.697056 1.697056 
C -1.246992 2.147121 -0.636487 2.4 0 2.4 
z
" id="m329ac713fe" style="stroke:#ffffff;stroke-width:0.75;"/>
    </defs>
    <g clip-path="url(#p60e7c14330)">
     <use style="fill:#edd1cb;stroke:#ffffff;stroke-width:0.75;" x="33.756801" xlink:href="#m329ac713fe" y="137.932"/>
     <use style="fill:#edd1cb;stroke:#ffffff;stroke-width:0.75;" x="34.879491" xlink:href="#m329ac713fe" y="137.930529"/>
     <use style="fill:#edd1cb;stroke:#ffffff;stroke-width:0.75;" x="37.124872" xlink:href="#m329ac713fe" y="137.92648"/>
     <use style="fill:#edd1cb;stroke:#ffffff;stroke-width:0.75;" x="41.615633" xlink:href="#m329ac713fe" y="117.014807"/>
     <use style="fill:#edd1cb;stroke:#ffffff;stroke-width:0.75;" x="50.597155" xlink:href="#m329ac713fe" y="92.890224"/>
     <use style="fill:#edd1cb;stroke:#ffffff;stroke-width:0.75;" x="59.578677" xlink:href="#m329ac713fe" y="81.63869"/>
     <use style="fill:#edd1cb;stroke:#ffffff;stroke-width:0.75;" x="86.523243" xlink:href="#m329ac713fe" y="59.354322"/>
     <use style="fill:#edd1cb;stroke:#ffffff;stroke-width:0.75;" x="140.412376" xlink:href="#m329ac713fe" y="33.286698"/>
     <use style="fill:#edd1cb;stroke:#ffffff;stroke-width:0.75;" x="248.190641" xlink:href="#m329ac713fe" y="29.954065"/>
     <use style="fill:#edd1cb;stroke:#ffffff;stroke-width:0.75;" x="355.968906" xlink:href="#m329ac713fe" y="28.823429"/>
    </g>
   </g>
   <g id="line2d_15">
    <path clip-path="url(#p60e7c14330)" d="M 50.597155 116.183937 
L 59.578677 100.588493 
L 86.523243 76.066715 
L 140.412376 53.760522 
L 248.190641 32.905465 
" style="fill:none;stroke:#e4b8b8;stroke-linecap:round;stroke-width:1.2;"/>
    <defs>
     <path d="M -2.4 2.4 
L 2.4 2.4 
L 2.4 -2.4 
L -2.4 -2.4 
z
" id="m61f3cf708f" style="stroke:#ffffff;stroke-linejoin:miter;stroke-width:0.75;"/>
    </defs>
    <g clip-path="url(#p60e7c14330)">
     <use style="fill:#e4b8b8;stroke:#ffffff;stroke-linejoin:miter;stroke-width:0.75;" x="50.597155" xlink:href="#m61f3cf708f" y="116.183937"/>
     <use style="fill:#e4b8b8;stroke:#ffffff;stroke-linejoin:miter;stroke-width:0.75;" x="59.578677" xlink:href="#m61f3cf708f" y="100.588493"/>
     <use style="fill:#e4b8b8;stroke:#ffffff;stroke-linejoin:miter;stroke-width:0.75;" x="86.523243" xlink:href="#m61f3cf708f" y="76.066715"/>
     <use style="fill:#e4b8b8;stroke:#ffffff;stroke-linejoin:miter;stroke-width:0.75;" x="140.412376" xlink:href="#m61f3cf708f" y="53.760522"/>
     <use style="fill:#e4b8b8;stroke:#ffffff;stroke-linejoin:miter;stroke-width:0.75;" x="248.190641" xlink:href="#m61f3cf708f" y="32.905465"/>
    </g>
   </g>
   <g id="line2d_16">
    <path clip-path="url(#p60e7c14330)" d="M 50.597155 137.926408 
L 59.578677 122.099547 
L 86.523243 97.427576 
L 140.412376 69.014307 
L 248.190641 39.452459 
" style="fill:none;stroke:#d79ea9;stroke-linecap:round;stroke-width:1.2;"/>
    <defs>
     <path d="M 0 3.394113 
L 2.036468 0 
L 0 -3.394113 
L -2.036468 0 
z
" id="m0d3d7ab359" style="stroke:#ffffff;stroke-linejoin:miter;stroke-width:0.75;"/>
    </defs>
    <g clip-path="url(#p60e7c14330)">
     <use style="fill:#d79ea9;stroke:#ffffff;stroke-linejoin:miter;stroke-width:0.75;" x="50.597155" xlink:href="#m0d3d7ab359" y="137.926408"/>
     <use style="fill:#d79ea9;stroke:#ffffff;stroke-linejoin:miter;stroke-width:0.75;" x="59.578677" xlink:href="#m0d3d7ab359" y="122.099547"/>
     <use style="fill:#d79ea9;stroke:#ffffff;stroke-linejoin:miter;stroke-width:0.75;" x="86.523243" xlink:href="#m0d3d7ab359" y="97.427576"/>
     <use style="fill:#d79ea9;stroke:#ffffff;stroke-linejoin:miter;stroke-width:0.75;" x="140.412376" xlink:href="#m0d3d7ab359" y="69.014307"/>
     <use style="fill:#d79ea9;stroke:#ffffff;stroke-linejoin:miter;stroke-width:0.75;" x="248.190641" xlink:href="#m0d3d7ab359" y="39.452459"/>
    </g>
   </g>
   <g id="line2d_17">
    <path clip-path="url(#p60e7c14330)" d="M 50.597155 137.929401 
L 59.578677 137.928443 
L 86.523243 122.004403 
L 140.412376 94.497399 
L 248.190641 60.271161 
" style="fill:none;stroke:#c6859d;stroke-linecap:round;stroke-width:1.2;"/>
    <defs>
     <path d="M 0 -2.4 
L -2.4 2.4 
L 2.4 2.4 
z
" id="me309558743" style="stroke:#ffffff;stroke-linejoin:miter;stroke-width:0.75;"/>
    </defs>
    <g clip-path="url(#p60e7c14330)">
     <use style="fill:#c6859d;stroke:#ffffff;stroke-linejoin:miter;stroke-width:0.75;" x="50.597155" xlink:href="#me309558743" y="137.929401"/>
     <use style="fill:#c6859d;stroke:#ffffff;stroke-linejoin:miter;stroke-width:0.75;" x="59.578677" xlink:href="#me309558743" y="137.928443"/>
     <use style="fill:#c6859d;stroke:#ffffff;stroke-linejoin:miter;stroke-width:0.75;" x="86.523243" xlink:href="#me309558743" y="122.004403"/>
     <use style="fill:#c6859d;stroke:#ffffff;stroke-linejoin:miter;stroke-width:0.75;" x="140.412376" xlink:href="#me309558743" y="94.497399"/>
     <use style="fill:#c6859d;stroke:#ffffff;stroke-linejoin:miter;stroke-width:0.75;" x="248.190641" xlink:href="#me309558743" y="60.271161"/>
    </g>
   </g>
   <g id="line2d_18">
    <path clip-path="url(#p60e7c14330)" d="M 50.597155 137.930858 
L 59.578677 137.930274 
L 86.523243 137.928027 
L 140.412376 121.799437 
L 248.190641 88.108583 
" style="fill:none;stroke:#b16e92;stroke-linecap:round;stroke-width:1.2;"/>
    <defs>
     <path d="M 0 -2.4 
L -2.282536 -0.741641 
L -1.410685 1.941641 
L 1.410685 1.941641 
L 2.282536 -0.741641 
z
" id="m48f17d09ed" style="stroke:#ffffff;stroke-linejoin:miter;stroke-width:0.75;"/>
    </defs>
    <g clip-path="url(#p60e7c14330)">
     <use style="fill:#b16e92;stroke:#ffffff;stroke-linejoin:miter;stroke-width:0.75;" x="50.597155" xlink:href="#m48f17d09ed" y="137.930858"/>
     <use style="fill:#b16e92;stroke:#ffffff;stroke-linejoin:miter;stroke-width:0.75;" x="59.578677" xlink:href="#m48f17d09ed" y="137.930274"/>
     <use style="fill:#b16e92;stroke:#ffffff;stroke-linejoin:miter;stroke-width:0.75;" x="86.523243" xlink:href="#m48f17d09ed" y="137.928027"/>
     <use style="fill:#b16e92;stroke:#ffffff;stroke-linejoin:miter;stroke-width:0.75;" x="140.412376" xlink:href="#m48f17d09ed" y="121.799437"/>
     <use style="fill:#b16e92;stroke:#ffffff;stroke-linejoin:miter;stroke-width:0.75;" x="248.190641" xlink:href="#m48f17d09ed" y="88.108583"/>
    </g>
   </g>
   <g id="line2d_19">
    <path clip-path="url(#p60e7c14330)" d="M 50.597155 137.931074 
L 59.578677 137.930889 
L 86.523243 137.929962 
L 140.412376 137.927281 
L 248.190641 121.311748 
" style="fill:none;stroke:#985987;stroke-linecap:round;stroke-width:1.2;"/>
    <defs>
     <path d="M 0 2.4 
C 0.636487 2.4 1.246992 2.147121 1.697056 1.697056 
C 2.147121 1.246992 2.4 0.636487 2.4 0 
C 2.4 -0.636487 2.147121 -1.246992 1.697056 -1.697056 
C 1.246992 -2.147121 0.636487 -2.4 0 -2.4 
C -0.636487 -2.4 -1.246992 -2.147121 -1.697056 -1.697056 
C -2.147121 -1.246992 -2.4 -0.636487 -2.4 0 
C -2.4 0.636487 -2.147121 1.246992 -1.697056 1.697056 
C -1.246992 2.147121 -0.636487 2.4 0 2.4 
z
" id="m0e9f958d02" style="stroke:#ffffff;stroke-width:0.75;"/>
    </defs>
    <g clip-path="url(#p60e7c14330)">
     <use style="fill:#985987;stroke:#ffffff;stroke-width:0.75;" x="50.597155" xlink:href="#m0e9f958d02" y="137.931074"/>
     <use style="fill:#985987;stroke:#ffffff;stroke-width:0.75;" x="59.578677" xlink:href="#m0e9f958d02" y="137.930889"/>
     <use style="fill:#985987;stroke:#ffffff;stroke-width:0.75;" x="86.523243" xlink:href="#m0e9f958d02" y="137.929962"/>
     <use style="fill:#985987;stroke:#ffffff;stroke-width:0.75;" x="140.412376" xlink:href="#m0e9f958d02" y="137.927281"/>
     <use style="fill:#985987;stroke:#ffffff;stroke-width:0.75;" x="248.190641" xlink:href="#m0e9f958d02" y="121.311748"/>
    </g>
   </g>
   <g id="line2d_20">
    <path clip-path="url(#p60e7c14330)" d="M 50.597155 137.931464 
L 59.578677 137.931384 
L 86.523243 137.93104 
L 140.412376 137.929792 
L 248.190641 137.927635 
" style="fill:none;stroke:#7b4779;stroke-linecap:round;stroke-width:1.2;"/>
    <defs>
     <path d="M -2.4 2.4 
L 2.4 2.4 
L 2.4 -2.4 
L -2.4 -2.4 
z
" id="ma2416c5552" style="stroke:#ffffff;stroke-linejoin:miter;stroke-width:0.75;"/>
    </defs>
    <g clip-path="url(#p60e7c14330)">
     <use style="fill:#7b4779;stroke:#ffffff;stroke-linejoin:miter;stroke-width:0.75;" x="50.597155" xlink:href="#ma2416c5552" y="137.931464"/>
     <use style="fill:#7b4779;stroke:#ffffff;stroke-linejoin:miter;stroke-width:0.75;" x="59.578677" xlink:href="#ma2416c5552" y="137.931384"/>
     <use style="fill:#7b4779;stroke:#ffffff;stroke-linejoin:miter;stroke-width:0.75;" x="86.523243" xlink:href="#ma2416c5552" y="137.93104"/>
     <use style="fill:#7b4779;stroke:#ffffff;stroke-linejoin:miter;stroke-width:0.75;" x="140.412376" xlink:href="#ma2416c5552" y="137.929792"/>
     <use style="fill:#7b4779;stroke:#ffffff;stroke-linejoin:miter;stroke-width:0.75;" x="248.190641" xlink:href="#ma2416c5552" y="137.927635"/>
    </g>
   </g>
   <g id="line2d_21">
    <path clip-path="url(#p60e7c14330)" d="M 59.578677 137.931953 
L 86.523243 137.931882 
L 140.412376 137.931693 
L 248.190641 137.931236 
" style="fill:none;stroke:#2d1e3e;stroke-linecap:round;stroke-width:1.2;"/>
    <defs>
     <path d="M 0 -2.4 
L -2.282536 -0.741641 
L -1.410685 1.941641 
L 1.410685 1.941641 
L 2.282536 -0.741641 
z
" id="ma5a150549e" style="stroke:#ffffff;stroke-linejoin:miter;stroke-width:0.75;"/>
    </defs>
    <g clip-path="url(#p60e7c14330)">
     <use style="fill:#2d1e3e;stroke:#ffffff;stroke-linejoin:miter;stroke-width:0.75;" x="59.578677" xlink:href="#ma5a150549e" y="137.931953"/>
     <use style="fill:#2d1e3e;stroke:#ffffff;stroke-linejoin:miter;stroke-width:0.75;" x="86.523243" xlink:href="#ma5a150549e" y="137.931882"/>
     <use style="fill:#2d1e3e;stroke:#ffffff;stroke-linejoin:miter;stroke-width:0.75;" x="140.412376" xlink:href="#ma5a150549e" y="137.931693"/>
     <use style="fill:#2d1e3e;stroke:#ffffff;stroke-linejoin:miter;stroke-width:0.75;" x="248.190641" xlink:href="#ma5a150549e" y="137.931236"/>
    </g>
   </g>
   <g id="line2d_22"/>
   <g id="line2d_23"/>
   <g id="line2d_24"/>
   <g id="line2d_25"/>
   <g id="line2d_26"/>
   <g id="line2d_27"/>
   <g id="line2d_28"/>
   <g id="line2d_29"/>
   <g id="patch_3">
    <path d="M 32.634111 137.932 
L 32.634111 23.368 
" style="fill:none;stroke:#cccccc;stroke-linecap:square;stroke-linejoin:miter;"/>
   </g>
   <g id="patch_4">
    <path d="M 372.079511 137.932 
L 372.079511 23.368 
" style="fill:none;stroke:#cccccc;stroke-linecap:square;stroke-linejoin:miter;"/>
   </g>
   <g id="patch_5">
    <path d="M 32.634111 137.932 
L 372.079511 137.932 
" style="fill:none;stroke:#cccccc;stroke-linecap:square;stroke-linejoin:miter;"/>
   </g>
   <g id="patch_6">
    <path d="M 32.634111 23.368 
L 372.079511 23.368 
" style="fill:none;stroke:#cccccc;stroke-linecap:square;stroke-linejoin:miter;"/>
   </g>
   <g id="text_16">
    <!-- CC = NO WAIT -->
    <g style="fill:#262626;" transform="translate(169.602061 17.368)scale(0.096 -0.096)">
     <defs>
      <path d="M 52.828125 42.09375 
L 5.5625 42.09375 
L 5.5625 50.296875 
L 52.828125 50.296875 
z
M 52.828125 20.359375 
L 5.5625 20.359375 
L 5.5625 28.5625 
L 52.828125 28.5625 
z
" id="ArialMT-61"/>
      <path d="M 4.828125 34.859375 
Q 4.828125 52.6875 14.390625 62.765625 
Q 23.96875 72.859375 39.109375 72.859375 
Q 49.03125 72.859375 56.984375 68.109375 
Q 64.9375 63.375 69.109375 54.90625 
Q 73.296875 46.4375 73.296875 35.6875 
Q 73.296875 24.8125 68.890625 16.21875 
Q 64.5 7.625 56.4375 3.203125 
Q 48.390625 -1.21875 39.0625 -1.21875 
Q 28.953125 -1.21875 20.984375 3.65625 
Q 13.03125 8.546875 8.921875 16.984375 
Q 4.828125 25.4375 4.828125 34.859375 
z
M 14.59375 34.71875 
Q 14.59375 21.78125 21.546875 14.328125 
Q 28.515625 6.890625 39.015625 6.890625 
Q 49.703125 6.890625 56.609375 14.40625 
Q 63.53125 21.921875 63.53125 35.75 
Q 63.53125 44.484375 60.578125 51 
Q 57.625 57.515625 51.921875 61.109375 
Q 46.234375 64.703125 39.15625 64.703125 
Q 29.109375 64.703125 21.84375 57.78125 
Q 14.59375 50.875 14.59375 34.71875 
z
" id="ArialMT-79"/>
      <path d="M 20.21875 0 
L 1.21875 71.578125 
L 10.9375 71.578125 
L 21.828125 24.65625 
Q 23.578125 17.28125 24.859375 10.015625 
Q 27.59375 21.484375 28.078125 23.25 
L 41.703125 71.578125 
L 53.125 71.578125 
L 63.375 35.359375 
Q 67.234375 21.875 68.953125 10.015625 
Q 70.3125 16.796875 72.515625 25.59375 
L 83.734375 71.578125 
L 93.265625 71.578125 
L 73.640625 0 
L 64.5 0 
L 49.421875 54.546875 
Q 47.515625 61.375 47.171875 62.9375 
Q 46.046875 58.015625 45.0625 54.546875 
L 29.890625 0 
z
" id="ArialMT-87"/>
      <path d="M 9.328125 0 
L 9.328125 71.578125 
L 18.796875 71.578125 
L 18.796875 0 
z
" id="ArialMT-73"/>
     </defs>
     <use xlink:href="#ArialMT-67"/>
     <use x="72.216797" xlink:href="#ArialMT-67"/>
     <use x="144.433594" xlink:href="#ArialMT-32"/>
     <use x="172.216797" xlink:href="#ArialMT-61"/>
     <use x="230.615234" xlink:href="#ArialMT-32"/>
     <use x="258.398438" xlink:href="#ArialMT-78"/>
     <use x="330.615234" xlink:href="#ArialMT-79"/>
     <use x="408.398438" xlink:href="#ArialMT-32"/>
     <use x="436.181641" xlink:href="#ArialMT-87"/>
     <use x="526.816406" xlink:href="#ArialMT-65"/>
     <use x="593.515625" xlink:href="#ArialMT-73"/>
     <use x="621.298828" xlink:href="#ArialMT-84"/>
    </g>
   </g>
  </g>
  <g id="axes_2">
   <g id="patch_7">
    <path d="M 387.30623 137.932 
L 726.751631 137.932 
L 726.751631 23.368 
L 387.30623 23.368 
z
" style="fill:#ffffff;"/>
   </g>
   <g id="matplotlib.axis_3">
    <g id="xtick_8">
     <g id="line2d_30">
      <path clip-path="url(#pfc3339112b)" d="M 387.30623 137.932 
L 387.30623 23.368 
" style="fill:none;stroke:#cccccc;stroke-linecap:round;stroke-width:0.8;"/>
     </g>
     <g id="text_17">
      <!-- 0 -->
      <g style="fill:#262626;" transform="translate(384.859418 146.030875)scale(0.088 -0.088)">
       <use xlink:href="#ArialMT-48"/>
      </g>
     </g>
    </g>
    <g id="xtick_9">
     <g id="line2d_31">
      <path clip-path="url(#pfc3339112b)" d="M 443.440743 137.932 
L 443.440743 23.368 
" style="fill:none;stroke:#cccccc;stroke-linecap:round;stroke-width:0.8;"/>
     </g>
     <g id="text_18">
      <!-- 50 -->
      <g style="fill:#262626;" transform="translate(438.547118 146.030875)scale(0.088 -0.088)">
       <use xlink:href="#ArialMT-53"/>
       <use x="55.615234" xlink:href="#ArialMT-48"/>
      </g>
     </g>
    </g>
    <g id="xtick_10">
     <g id="line2d_32">
      <path clip-path="url(#pfc3339112b)" d="M 499.575256 137.932 
L 499.575256 23.368 
" style="fill:none;stroke:#cccccc;stroke-linecap:round;stroke-width:0.8;"/>
     </g>
     <g id="text_19">
      <!-- 100 -->
      <g style="fill:#262626;" transform="translate(492.234819 146.030875)scale(0.088 -0.088)">
       <use xlink:href="#ArialMT-49"/>
       <use x="55.615234" xlink:href="#ArialMT-48"/>
       <use x="111.230469" xlink:href="#ArialMT-48"/>
      </g>
     </g>
    </g>
    <g id="xtick_11">
     <g id="line2d_33">
      <path clip-path="url(#pfc3339112b)" d="M 555.709769 137.932 
L 555.709769 23.368 
" style="fill:none;stroke:#cccccc;stroke-linecap:round;stroke-width:0.8;"/>
     </g>
     <g id="text_20">
      <!-- 150 -->
      <g style="fill:#262626;" transform="translate(548.369332 146.030875)scale(0.088 -0.088)">
       <use xlink:href="#ArialMT-49"/>
       <use x="55.615234" xlink:href="#ArialMT-53"/>
       <use x="111.230469" xlink:href="#ArialMT-48"/>
      </g>
     </g>
    </g>
    <g id="xtick_12">
     <g id="line2d_34">
      <path clip-path="url(#pfc3339112b)" d="M 611.844282 137.932 
L 611.844282 23.368 
" style="fill:none;stroke:#cccccc;stroke-linecap:round;stroke-width:0.8;"/>
     </g>
     <g id="text_21">
      <!-- 200 -->
      <g style="fill:#262626;" transform="translate(604.503845 146.030875)scale(0.088 -0.088)">
       <use xlink:href="#ArialMT-50"/>
       <use x="55.615234" xlink:href="#ArialMT-48"/>
       <use x="111.230469" xlink:href="#ArialMT-48"/>
      </g>
     </g>
    </g>
    <g id="xtick_13">
     <g id="line2d_35">
      <path clip-path="url(#pfc3339112b)" d="M 667.978795 137.932 
L 667.978795 23.368 
" style="fill:none;stroke:#cccccc;stroke-linecap:round;stroke-width:0.8;"/>
     </g>
     <g id="text_22">
      <!-- 250 -->
      <g style="fill:#262626;" transform="translate(660.638358 146.030875)scale(0.088 -0.088)">
       <use xlink:href="#ArialMT-50"/>
       <use x="55.615234" xlink:href="#ArialMT-53"/>
       <use x="111.230469" xlink:href="#ArialMT-48"/>
      </g>
     </g>
    </g>
    <g id="xtick_14">
     <g id="line2d_36">
      <path clip-path="url(#pfc3339112b)" d="M 724.113308 137.932 
L 724.113308 23.368 
" style="fill:none;stroke:#cccccc;stroke-linecap:round;stroke-width:0.8;"/>
     </g>
     <g id="text_23">
      <!-- 300 -->
      <g style="fill:#262626;" transform="translate(716.772871 146.030875)scale(0.088 -0.088)">
       <use xlink:href="#ArialMT-51"/>
       <use x="55.615234" xlink:href="#ArialMT-48"/>
       <use x="111.230469" xlink:href="#ArialMT-48"/>
      </g>
     </g>
    </g>
    <g id="text_24">
     <!-- Number of Cores -->
     <g style="fill:#262626;" transform="translate(520.48518 158.651375)scale(0.096 -0.096)">
      <use xlink:href="#ArialMT-78"/>
      <use x="72.216797" xlink:href="#ArialMT-117"/>
      <use x="127.832031" xlink:href="#ArialMT-109"/>
      <use x="211.132812" xlink:href="#ArialMT-98"/>
      <use x="266.748047" xlink:href="#ArialMT-101"/>
      <use x="322.363281" xlink:href="#ArialMT-114"/>
      <use x="355.664062" xlink:href="#ArialMT-32"/>
      <use x="383.447266" xlink:href="#ArialMT-111"/>
      <use x="439.0625" xlink:href="#ArialMT-102"/>
      <use x="466.845703" xlink:href="#ArialMT-32"/>
      <use x="494.628906" xlink:href="#ArialMT-67"/>
      <use x="566.845703" xlink:href="#ArialMT-111"/>
      <use x="622.460938" xlink:href="#ArialMT-114"/>
      <use x="655.761719" xlink:href="#ArialMT-101"/>
      <use x="711.376953" xlink:href="#ArialMT-115"/>
     </g>
    </g>
   </g>
   <g id="matplotlib.axis_4">
    <g id="ytick_7">
     <g id="line2d_37">
      <path clip-path="url(#pfc3339112b)" d="M 387.30623 137.932 
L 726.751631 137.932 
" style="fill:none;stroke:#cccccc;stroke-linecap:round;stroke-width:0.8;"/>
     </g>
    </g>
    <g id="ytick_8">
     <g id="line2d_38">
      <path clip-path="url(#pfc3339112b)" d="M 387.30623 115.62736 
L 726.751631 115.62736 
" style="fill:none;stroke:#cccccc;stroke-linecap:round;stroke-width:0.8;"/>
     </g>
    </g>
    <g id="ytick_9">
     <g id="line2d_39">
      <path clip-path="url(#pfc3339112b)" d="M 387.30623 93.322721 
L 726.751631 93.322721 
" style="fill:none;stroke:#cccccc;stroke-linecap:round;stroke-width:0.8;"/>
     </g>
    </g>
    <g id="ytick_10">
     <g id="line2d_40">
      <path clip-path="url(#pfc3339112b)" d="M 387.30623 71.018081 
L 726.751631 71.018081 
" style="fill:none;stroke:#cccccc;stroke-linecap:round;stroke-width:0.8;"/>
     </g>
    </g>
    <g id="ytick_11">
     <g id="line2d_41">
      <path clip-path="url(#pfc3339112b)" d="M 387.30623 48.713441 
L 726.751631 48.713441 
" style="fill:none;stroke:#cccccc;stroke-linecap:round;stroke-width:0.8;"/>
     </g>
    </g>
    <g id="ytick_12">
     <g id="line2d_42">
      <path clip-path="url(#pfc3339112b)" d="M 387.30623 26.408801 
L 726.751631 26.408801 
" style="fill:none;stroke:#cccccc;stroke-linecap:round;stroke-width:0.8;"/>
     </g>
    </g>
   </g>
   <g id="line2d_43">
    <path clip-path="url(#pfc3339112b)" d="M 388.42892 137.932 
L 389.551611 137.789854 
L 391.796991 137.401571 
L 396.287752 137.832343 
L 405.269274 137.908473 
L 414.250796 137.927916 
L 441.195363 137.931021 
L 495.084495 137.931837 
L 602.86276 137.931916 
L 710.641025 137.931868 
" style="fill:none;stroke:#edd1cb;stroke-linecap:round;stroke-width:1.2;"/>
    <g clip-path="url(#pfc3339112b)">
     <use style="fill:#edd1cb;stroke:#ffffff;stroke-width:0.75;" x="388.42892" xlink:href="#m329ac713fe" y="137.932"/>
     <use style="fill:#edd1cb;stroke:#ffffff;stroke-width:0.75;" x="389.551611" xlink:href="#m329ac713fe" y="137.789854"/>
     <use style="fill:#edd1cb;stroke:#ffffff;stroke-width:0.75;" x="391.796991" xlink:href="#m329ac713fe" y="137.401571"/>
     <use style="fill:#edd1cb;stroke:#ffffff;stroke-width:0.75;" x="396.287752" xlink:href="#m329ac713fe" y="137.832343"/>
     <use style="fill:#edd1cb;stroke:#ffffff;stroke-width:0.75;" x="405.269274" xlink:href="#m329ac713fe" y="137.908473"/>
     <use style="fill:#edd1cb;stroke:#ffffff;stroke-width:0.75;" x="414.250796" xlink:href="#m329ac713fe" y="137.927916"/>
     <use style="fill:#edd1cb;stroke:#ffffff;stroke-width:0.75;" x="441.195363" xlink:href="#m329ac713fe" y="137.931021"/>
     <use style="fill:#edd1cb;stroke:#ffffff;stroke-width:0.75;" x="495.084495" xlink:href="#m329ac713fe" y="137.931837"/>
     <use style="fill:#edd1cb;stroke:#ffffff;stroke-width:0.75;" x="602.86276" xlink:href="#m329ac713fe" y="137.931916"/>
     <use style="fill:#edd1cb;stroke:#ffffff;stroke-width:0.75;" x="710.641025" xlink:href="#m329ac713fe" y="137.931868"/>
    </g>
   </g>
   <g id="line2d_44">
    <path clip-path="url(#pfc3339112b)" d="M 405.269274 137.856512 
L 414.250796 137.882168 
L 441.195363 137.925206 
L 495.084495 137.930753 
L 602.86276 137.93186 
" style="fill:none;stroke:#e4b8b8;stroke-linecap:round;stroke-width:1.2;"/>
    <g clip-path="url(#pfc3339112b)">
     <use style="fill:#e4b8b8;stroke:#ffffff;stroke-linejoin:miter;stroke-width:0.75;" x="405.269274" xlink:href="#m61f3cf708f" y="137.856512"/>
     <use style="fill:#e4b8b8;stroke:#ffffff;stroke-linejoin:miter;stroke-width:0.75;" x="414.250796" xlink:href="#m61f3cf708f" y="137.882168"/>
     <use style="fill:#e4b8b8;stroke:#ffffff;stroke-linejoin:miter;stroke-width:0.75;" x="441.195363" xlink:href="#m61f3cf708f" y="137.925206"/>
     <use style="fill:#e4b8b8;stroke:#ffffff;stroke-linejoin:miter;stroke-width:0.75;" x="495.084495" xlink:href="#m61f3cf708f" y="137.930753"/>
     <use style="fill:#e4b8b8;stroke:#ffffff;stroke-linejoin:miter;stroke-width:0.75;" x="602.86276" xlink:href="#m61f3cf708f" y="137.93186"/>
    </g>
   </g>
   <g id="line2d_45">
    <path clip-path="url(#pfc3339112b)" d="M 405.269274 137.392556 
L 414.250796 137.592719 
L 441.195363 137.912274 
L 495.084495 137.926329 
L 602.86276 137.931761 
" style="fill:none;stroke:#d79ea9;stroke-linecap:round;stroke-width:1.2;"/>
    <g clip-path="url(#pfc3339112b)">
     <use style="fill:#d79ea9;stroke:#ffffff;stroke-linejoin:miter;stroke-width:0.75;" x="405.269274" xlink:href="#m0d3d7ab359" y="137.392556"/>
     <use style="fill:#d79ea9;stroke:#ffffff;stroke-linejoin:miter;stroke-width:0.75;" x="414.250796" xlink:href="#m0d3d7ab359" y="137.592719"/>
     <use style="fill:#d79ea9;stroke:#ffffff;stroke-linejoin:miter;stroke-width:0.75;" x="441.195363" xlink:href="#m0d3d7ab359" y="137.912274"/>
     <use style="fill:#d79ea9;stroke:#ffffff;stroke-linejoin:miter;stroke-width:0.75;" x="495.084495" xlink:href="#m0d3d7ab359" y="137.926329"/>
     <use style="fill:#d79ea9;stroke:#ffffff;stroke-linejoin:miter;stroke-width:0.75;" x="602.86276" xlink:href="#m0d3d7ab359" y="137.931761"/>
    </g>
   </g>
   <g id="line2d_46">
    <path clip-path="url(#pfc3339112b)" d="M 405.269274 137.620808 
L 414.250796 137.469431 
L 441.195363 137.67591 
L 495.084495 137.919532 
L 602.86276 137.929708 
" style="fill:none;stroke:#c6859d;stroke-linecap:round;stroke-width:1.2;"/>
    <g clip-path="url(#pfc3339112b)">
     <use style="fill:#c6859d;stroke:#ffffff;stroke-linejoin:miter;stroke-width:0.75;" x="405.269274" xlink:href="#me309558743" y="137.620808"/>
     <use style="fill:#c6859d;stroke:#ffffff;stroke-linejoin:miter;stroke-width:0.75;" x="414.250796" xlink:href="#me309558743" y="137.469431"/>
     <use style="fill:#c6859d;stroke:#ffffff;stroke-linejoin:miter;stroke-width:0.75;" x="441.195363" xlink:href="#me309558743" y="137.67591"/>
     <use style="fill:#c6859d;stroke:#ffffff;stroke-linejoin:miter;stroke-width:0.75;" x="495.084495" xlink:href="#me309558743" y="137.919532"/>
     <use style="fill:#c6859d;stroke:#ffffff;stroke-linejoin:miter;stroke-width:0.75;" x="602.86276" xlink:href="#me309558743" y="137.929708"/>
    </g>
   </g>
   <g id="line2d_47">
    <path clip-path="url(#pfc3339112b)" d="M 405.269274 137.763038 
L 414.250796 137.654447 
L 441.195363 137.598988 
L 495.084495 137.714026 
L 602.86276 137.89848 
" style="fill:none;stroke:#b16e92;stroke-linecap:round;stroke-width:1.2;"/>
    <g clip-path="url(#pfc3339112b)">
     <use style="fill:#b16e92;stroke:#ffffff;stroke-linejoin:miter;stroke-width:0.75;" x="405.269274" xlink:href="#m48f17d09ed" y="137.763038"/>
     <use style="fill:#b16e92;stroke:#ffffff;stroke-linejoin:miter;stroke-width:0.75;" x="414.250796" xlink:href="#m48f17d09ed" y="137.654447"/>
     <use style="fill:#b16e92;stroke:#ffffff;stroke-linejoin:miter;stroke-width:0.75;" x="441.195363" xlink:href="#m48f17d09ed" y="137.598988"/>
     <use style="fill:#b16e92;stroke:#ffffff;stroke-linejoin:miter;stroke-width:0.75;" x="495.084495" xlink:href="#m48f17d09ed" y="137.714026"/>
     <use style="fill:#b16e92;stroke:#ffffff;stroke-linejoin:miter;stroke-width:0.75;" x="602.86276" xlink:href="#m48f17d09ed" y="137.89848"/>
    </g>
   </g>
   <g id="line2d_48">
    <path clip-path="url(#pfc3339112b)" d="M 405.269274 137.844506 
L 414.250796 137.790744 
L 441.195363 137.726719 
L 495.084495 137.571155 
L 602.86276 137.56944 
" style="fill:none;stroke:#985987;stroke-linecap:round;stroke-width:1.2;"/>
    <g clip-path="url(#pfc3339112b)">
     <use style="fill:#985987;stroke:#ffffff;stroke-width:0.75;" x="405.269274" xlink:href="#m0e9f958d02" y="137.844506"/>
     <use style="fill:#985987;stroke:#ffffff;stroke-width:0.75;" x="414.250796" xlink:href="#m0e9f958d02" y="137.790744"/>
     <use style="fill:#985987;stroke:#ffffff;stroke-width:0.75;" x="441.195363" xlink:href="#m0e9f958d02" y="137.726719"/>
     <use style="fill:#985987;stroke:#ffffff;stroke-width:0.75;" x="495.084495" xlink:href="#m0e9f958d02" y="137.571155"/>
     <use style="fill:#985987;stroke:#ffffff;stroke-width:0.75;" x="602.86276" xlink:href="#m0e9f958d02" y="137.56944"/>
    </g>
   </g>
   <g id="line2d_49">
    <path clip-path="url(#pfc3339112b)" d="M 405.269274 137.885376 
L 414.250796 137.860533 
L 441.195363 137.818109 
L 495.084495 137.724246 
L 602.86276 137.409433 
" style="fill:none;stroke:#7b4779;stroke-linecap:round;stroke-width:1.2;"/>
    <g clip-path="url(#pfc3339112b)">
     <use style="fill:#7b4779;stroke:#ffffff;stroke-linejoin:miter;stroke-width:0.75;" x="405.269274" xlink:href="#ma2416c5552" y="137.885376"/>
     <use style="fill:#7b4779;stroke:#ffffff;stroke-linejoin:miter;stroke-width:0.75;" x="414.250796" xlink:href="#ma2416c5552" y="137.860533"/>
     <use style="fill:#7b4779;stroke:#ffffff;stroke-linejoin:miter;stroke-width:0.75;" x="441.195363" xlink:href="#ma2416c5552" y="137.818109"/>
     <use style="fill:#7b4779;stroke:#ffffff;stroke-linejoin:miter;stroke-width:0.75;" x="495.084495" xlink:href="#ma2416c5552" y="137.724246"/>
     <use style="fill:#7b4779;stroke:#ffffff;stroke-linejoin:miter;stroke-width:0.75;" x="602.86276" xlink:href="#ma2416c5552" y="137.409433"/>
    </g>
   </g>
   <g id="line2d_50">
    <path clip-path="url(#pfc3339112b)" d="M 414.250796 137.918362 
L 441.195363 137.911078 
L 495.084495 137.890761 
L 602.86276 137.840143 
" style="fill:none;stroke:#2d1e3e;stroke-linecap:round;stroke-width:1.2;"/>
    <g clip-path="url(#pfc3339112b)">
     <use style="fill:#2d1e3e;stroke:#ffffff;stroke-linejoin:miter;stroke-width:0.75;" x="414.250796" xlink:href="#ma5a150549e" y="137.918362"/>
     <use style="fill:#2d1e3e;stroke:#ffffff;stroke-linejoin:miter;stroke-width:0.75;" x="441.195363" xlink:href="#ma5a150549e" y="137.911078"/>
     <use style="fill:#2d1e3e;stroke:#ffffff;stroke-linejoin:miter;stroke-width:0.75;" x="495.084495" xlink:href="#ma5a150549e" y="137.890761"/>
     <use style="fill:#2d1e3e;stroke:#ffffff;stroke-linejoin:miter;stroke-width:0.75;" x="602.86276" xlink:href="#ma5a150549e" y="137.840143"/>
    </g>
   </g>
   <g id="patch_8">
    <path d="M 387.30623 137.932 
L 387.30623 23.368 
" style="fill:none;stroke:#cccccc;stroke-linecap:square;stroke-linejoin:miter;"/>
   </g>
   <g id="patch_9">
    <path d="M 726.751631 137.932 
L 726.751631 23.368 
" style="fill:none;stroke:#cccccc;stroke-linecap:square;stroke-linejoin:miter;"/>
   </g>
   <g id="patch_10">
    <path d="M 387.30623 137.932 
L 726.751631 137.932 
" style="fill:none;stroke:#cccccc;stroke-linecap:square;stroke-linejoin:miter;"/>
   </g>
   <g id="patch_11">
    <path d="M 387.30623 23.368 
L 726.751631 23.368 
" style="fill:none;stroke:#cccccc;stroke-linecap:square;stroke-linejoin:miter;"/>
   </g>
   <g id="text_25">
    <!-- CC = HSTORE -->
    <g style="fill:#262626;" transform="translate(524.70768 17.368)scale(0.096 -0.096)">
     <defs>
      <path d="M 8.015625 0 
L 8.015625 71.578125 
L 17.484375 71.578125 
L 17.484375 42.1875 
L 54.6875 42.1875 
L 54.6875 71.578125 
L 64.15625 71.578125 
L 64.15625 0 
L 54.6875 0 
L 54.6875 33.734375 
L 17.484375 33.734375 
L 17.484375 0 
z
" id="ArialMT-72"/>
      <path d="M 4.5 23 
L 13.421875 23.78125 
Q 14.0625 18.40625 16.375 14.96875 
Q 18.703125 11.53125 23.578125 9.40625 
Q 28.46875 7.28125 34.578125 7.28125 
Q 39.984375 7.28125 44.140625 8.890625 
Q 48.296875 10.5 50.3125 13.296875 
Q 52.34375 16.109375 52.34375 19.4375 
Q 52.34375 22.796875 50.390625 25.3125 
Q 48.4375 27.828125 43.953125 29.546875 
Q 41.0625 30.671875 31.203125 33.03125 
Q 21.34375 35.40625 17.390625 37.5 
Q 12.25 40.1875 9.734375 44.15625 
Q 7.234375 48.140625 7.234375 53.078125 
Q 7.234375 58.5 10.296875 63.203125 
Q 13.375 67.921875 19.28125 70.359375 
Q 25.203125 72.796875 32.421875 72.796875 
Q 40.375 72.796875 46.453125 70.234375 
Q 52.546875 67.671875 55.8125 62.6875 
Q 59.078125 57.71875 59.328125 51.421875 
L 50.25 50.734375 
Q 49.515625 57.515625 45.28125 60.984375 
Q 41.0625 64.453125 32.8125 64.453125 
Q 24.21875 64.453125 20.28125 61.296875 
Q 16.359375 58.15625 16.359375 53.71875 
Q 16.359375 49.859375 19.140625 47.359375 
Q 21.875 44.875 33.421875 42.265625 
Q 44.96875 39.65625 49.265625 37.703125 
Q 55.515625 34.8125 58.484375 30.390625 
Q 61.46875 25.984375 61.46875 20.21875 
Q 61.46875 14.5 58.203125 9.4375 
Q 54.9375 4.390625 48.796875 1.578125 
Q 42.671875 -1.21875 35.015625 -1.21875 
Q 25.296875 -1.21875 18.71875 1.609375 
Q 12.15625 4.4375 8.421875 10.125 
Q 4.6875 15.828125 4.5 23 
z
" id="ArialMT-83"/>
      <path d="M 7.859375 0 
L 7.859375 71.578125 
L 39.59375 71.578125 
Q 49.171875 71.578125 54.140625 69.640625 
Q 59.125 67.71875 62.109375 62.828125 
Q 65.09375 57.953125 65.09375 52.046875 
Q 65.09375 44.4375 60.15625 39.203125 
Q 55.21875 33.984375 44.921875 32.5625 
Q 48.6875 30.765625 50.640625 29 
Q 54.78125 25.203125 58.5 19.484375 
L 70.953125 0 
L 59.03125 0 
L 49.5625 14.890625 
Q 45.40625 21.34375 42.71875 24.75 
Q 40.046875 28.171875 37.921875 29.53125 
Q 35.796875 30.90625 33.59375 31.453125 
Q 31.984375 31.78125 28.328125 31.78125 
L 17.328125 31.78125 
L 17.328125 0 
z
M 17.328125 39.984375 
L 37.703125 39.984375 
Q 44.1875 39.984375 47.84375 41.328125 
Q 51.515625 42.671875 53.421875 45.625 
Q 55.328125 48.578125 55.328125 52.046875 
Q 55.328125 57.125 51.640625 60.390625 
Q 47.953125 63.671875 39.984375 63.671875 
L 17.328125 63.671875 
z
" id="ArialMT-82"/>
      <path d="M 7.90625 0 
L 7.90625 71.578125 
L 59.671875 71.578125 
L 59.671875 63.140625 
L 17.390625 63.140625 
L 17.390625 41.21875 
L 56.984375 41.21875 
L 56.984375 32.8125 
L 17.390625 32.8125 
L 17.390625 8.453125 
L 61.328125 8.453125 
L 61.328125 0 
z
" id="ArialMT-69"/>
     </defs>
     <use xlink:href="#ArialMT-67"/>
     <use x="72.216797" xlink:href="#ArialMT-67"/>
     <use x="144.433594" xlink:href="#ArialMT-32"/>
     <use x="172.216797" xlink:href="#ArialMT-61"/>
     <use x="230.615234" xlink:href="#ArialMT-32"/>
     <use x="258.398438" xlink:href="#ArialMT-72"/>
     <use x="330.615234" xlink:href="#ArialMT-83"/>
     <use x="397.314453" xlink:href="#ArialMT-84"/>
     <use x="456.648438" xlink:href="#ArialMT-79"/>
     <use x="534.431641" xlink:href="#ArialMT-82"/>
     <use x="606.648438" xlink:href="#ArialMT-69"/>
    </g>
   </g>
  </g>
  <g id="axes_3">
   <g id="patch_12">
    <path d="M 741.97835 137.932 
L 1081.42375 137.932 
L 1081.42375 23.368 
L 741.97835 23.368 
z
" style="fill:#ffffff;"/>
   </g>
   <g id="matplotlib.axis_5">
    <g id="xtick_15">
     <g id="line2d_51">
      <path clip-path="url(#p82e33eacd3)" d="M 741.97835 137.932 
L 741.97835 23.368 
" style="fill:none;stroke:#cccccc;stroke-linecap:round;stroke-width:0.8;"/>
     </g>
     <g id="text_26">
      <!-- 0 -->
      <g style="fill:#262626;" transform="translate(739.531537 146.030875)scale(0.088 -0.088)">
       <use xlink:href="#ArialMT-48"/>
      </g>
     </g>
    </g>
    <g id="xtick_16">
     <g id="line2d_52">
      <path clip-path="url(#p82e33eacd3)" d="M 798.112863 137.932 
L 798.112863 23.368 
" style="fill:none;stroke:#cccccc;stroke-linecap:round;stroke-width:0.8;"/>
     </g>
     <g id="text_27">
      <!-- 50 -->
      <g style="fill:#262626;" transform="translate(793.219238 146.030875)scale(0.088 -0.088)">
       <use xlink:href="#ArialMT-53"/>
       <use x="55.615234" xlink:href="#ArialMT-48"/>
      </g>
     </g>
    </g>
    <g id="xtick_17">
     <g id="line2d_53">
      <path clip-path="url(#p82e33eacd3)" d="M 854.247376 137.932 
L 854.247376 23.368 
" style="fill:none;stroke:#cccccc;stroke-linecap:round;stroke-width:0.8;"/>
     </g>
     <g id="text_28">
      <!-- 100 -->
      <g style="fill:#262626;" transform="translate(846.906938 146.030875)scale(0.088 -0.088)">
       <use xlink:href="#ArialMT-49"/>
       <use x="55.615234" xlink:href="#ArialMT-48"/>
       <use x="111.230469" xlink:href="#ArialMT-48"/>
      </g>
     </g>
    </g>
    <g id="xtick_18">
     <g id="line2d_54">
      <path clip-path="url(#p82e33eacd3)" d="M 910.381889 137.932 
L 910.381889 23.368 
" style="fill:none;stroke:#cccccc;stroke-linecap:round;stroke-width:0.8;"/>
     </g>
     <g id="text_29">
      <!-- 150 -->
      <g style="fill:#262626;" transform="translate(903.041451 146.030875)scale(0.088 -0.088)">
       <use xlink:href="#ArialMT-49"/>
       <use x="55.615234" xlink:href="#ArialMT-53"/>
       <use x="111.230469" xlink:href="#ArialMT-48"/>
      </g>
     </g>
    </g>
    <g id="xtick_19">
     <g id="line2d_55">
      <path clip-path="url(#p82e33eacd3)" d="M 966.516402 137.932 
L 966.516402 23.368 
" style="fill:none;stroke:#cccccc;stroke-linecap:round;stroke-width:0.8;"/>
     </g>
     <g id="text_30">
      <!-- 200 -->
      <g style="fill:#262626;" transform="translate(959.175964 146.030875)scale(0.088 -0.088)">
       <use xlink:href="#ArialMT-50"/>
       <use x="55.615234" xlink:href="#ArialMT-48"/>
       <use x="111.230469" xlink:href="#ArialMT-48"/>
      </g>
     </g>
    </g>
    <g id="xtick_20">
     <g id="line2d_56">
      <path clip-path="url(#p82e33eacd3)" d="M 1022.650915 137.932 
L 1022.650915 23.368 
" style="fill:none;stroke:#cccccc;stroke-linecap:round;stroke-width:0.8;"/>
     </g>
     <g id="text_31">
      <!-- 250 -->
      <g style="fill:#262626;" transform="translate(1015.310477 146.030875)scale(0.088 -0.088)">
       <use xlink:href="#ArialMT-50"/>
       <use x="55.615234" xlink:href="#ArialMT-53"/>
       <use x="111.230469" xlink:href="#ArialMT-48"/>
      </g>
     </g>
    </g>
    <g id="xtick_21">
     <g id="line2d_57">
      <path clip-path="url(#p82e33eacd3)" d="M 1078.785428 137.932 
L 1078.785428 23.368 
" style="fill:none;stroke:#cccccc;stroke-linecap:round;stroke-width:0.8;"/>
     </g>
     <g id="text_32">
      <!-- 300 -->
      <g style="fill:#262626;" transform="translate(1071.44499 146.030875)scale(0.088 -0.088)">
       <use xlink:href="#ArialMT-51"/>
       <use x="55.615234" xlink:href="#ArialMT-48"/>
       <use x="111.230469" xlink:href="#ArialMT-48"/>
      </g>
     </g>
    </g>
    <g id="text_33">
     <!-- Number of Cores -->
     <g style="fill:#262626;" transform="translate(875.1573 158.651375)scale(0.096 -0.096)">
      <use xlink:href="#ArialMT-78"/>
      <use x="72.216797" xlink:href="#ArialMT-117"/>
      <use x="127.832031" xlink:href="#ArialMT-109"/>
      <use x="211.132812" xlink:href="#ArialMT-98"/>
      <use x="266.748047" xlink:href="#ArialMT-101"/>
      <use x="322.363281" xlink:href="#ArialMT-114"/>
      <use x="355.664062" xlink:href="#ArialMT-32"/>
      <use x="383.447266" xlink:href="#ArialMT-111"/>
      <use x="439.0625" xlink:href="#ArialMT-102"/>
      <use x="466.845703" xlink:href="#ArialMT-32"/>
      <use x="494.628906" xlink:href="#ArialMT-67"/>
      <use x="566.845703" xlink:href="#ArialMT-111"/>
      <use x="622.460938" xlink:href="#ArialMT-114"/>
      <use x="655.761719" xlink:href="#ArialMT-101"/>
      <use x="711.376953" xlink:href="#ArialMT-115"/>
     </g>
    </g>
   </g>
   <g id="matplotlib.axis_6">
    <g id="ytick_13">
     <g id="line2d_58">
      <path clip-path="url(#p82e33eacd3)" d="M 741.97835 137.932 
L 1081.42375 137.932 
" style="fill:none;stroke:#cccccc;stroke-linecap:round;stroke-width:0.8;"/>
     </g>
    </g>
    <g id="ytick_14">
     <g id="line2d_59">
      <path clip-path="url(#p82e33eacd3)" d="M 741.97835 115.62736 
L 1081.42375 115.62736 
" style="fill:none;stroke:#cccccc;stroke-linecap:round;stroke-width:0.8;"/>
     </g>
    </g>
    <g id="ytick_15">
     <g id="line2d_60">
      <path clip-path="url(#p82e33eacd3)" d="M 741.97835 93.322721 
L 1081.42375 93.322721 
" style="fill:none;stroke:#cccccc;stroke-linecap:round;stroke-width:0.8;"/>
     </g>
    </g>
    <g id="ytick_16">
     <g id="line2d_61">
      <path clip-path="url(#p82e33eacd3)" d="M 741.97835 71.018081 
L 1081.42375 71.018081 
" style="fill:none;stroke:#cccccc;stroke-linecap:round;stroke-width:0.8;"/>
     </g>
    </g>
    <g id="ytick_17">
     <g id="line2d_62">
      <path clip-path="url(#p82e33eacd3)" d="M 741.97835 48.713441 
L 1081.42375 48.713441 
" style="fill:none;stroke:#cccccc;stroke-linecap:round;stroke-width:0.8;"/>
     </g>
    </g>
    <g id="ytick_18">
     <g id="line2d_63">
      <path clip-path="url(#p82e33eacd3)" d="M 741.97835 26.408801 
L 1081.42375 26.408801 
" style="fill:none;stroke:#cccccc;stroke-linecap:round;stroke-width:0.8;"/>
     </g>
    </g>
   </g>
   <g id="line2d_64">
    <path clip-path="url(#p82e33eacd3)" d="M 743.10104 137.932 
L 744.22373 137.929949 
L 746.469111 137.926477 
L 750.959872 123.978509 
L 759.941394 104.815067 
L 768.922916 94.068525 
L 795.867482 72.925085 
L 849.756615 52.83233 
L 957.53488 34.941947 
L 1065.313145 31.803046 
" style="fill:none;stroke:#edd1cb;stroke-linecap:round;stroke-width:1.2;"/>
    <g clip-path="url(#p82e33eacd3)">
     <use style="fill:#edd1cb;stroke:#ffffff;stroke-width:0.75;" x="743.10104" xlink:href="#m329ac713fe" y="137.932"/>
     <use style="fill:#edd1cb;stroke:#ffffff;stroke-width:0.75;" x="744.22373" xlink:href="#m329ac713fe" y="137.929949"/>
     <use style="fill:#edd1cb;stroke:#ffffff;stroke-width:0.75;" x="746.469111" xlink:href="#m329ac713fe" y="137.926477"/>
     <use style="fill:#edd1cb;stroke:#ffffff;stroke-width:0.75;" x="750.959872" xlink:href="#m329ac713fe" y="123.978509"/>
     <use style="fill:#edd1cb;stroke:#ffffff;stroke-width:0.75;" x="759.941394" xlink:href="#m329ac713fe" y="104.815067"/>
     <use style="fill:#edd1cb;stroke:#ffffff;stroke-width:0.75;" x="768.922916" xlink:href="#m329ac713fe" y="94.068525"/>
     <use style="fill:#edd1cb;stroke:#ffffff;stroke-width:0.75;" x="795.867482" xlink:href="#m329ac713fe" y="72.925085"/>
     <use style="fill:#edd1cb;stroke:#ffffff;stroke-width:0.75;" x="849.756615" xlink:href="#m329ac713fe" y="52.83233"/>
     <use style="fill:#edd1cb;stroke:#ffffff;stroke-width:0.75;" x="957.53488" xlink:href="#m329ac713fe" y="34.941947"/>
     <use style="fill:#edd1cb;stroke:#ffffff;stroke-width:0.75;" x="1065.313145" xlink:href="#m329ac713fe" y="31.803046"/>
    </g>
   </g>
   <g id="line2d_65">
    <path clip-path="url(#p82e33eacd3)" d="M 759.941394 123.583285 
L 768.922916 112.616354 
L 795.867482 91.212338 
L 849.756615 69.045967 
L 957.53488 46.26669 
" style="fill:none;stroke:#e4b8b8;stroke-linecap:round;stroke-width:1.2;"/>
    <g clip-path="url(#p82e33eacd3)">
     <use style="fill:#e4b8b8;stroke:#ffffff;stroke-linejoin:miter;stroke-width:0.75;" x="759.941394" xlink:href="#m61f3cf708f" y="123.583285"/>
     <use style="fill:#e4b8b8;stroke:#ffffff;stroke-linejoin:miter;stroke-width:0.75;" x="768.922916" xlink:href="#m61f3cf708f" y="112.616354"/>
     <use style="fill:#e4b8b8;stroke:#ffffff;stroke-linejoin:miter;stroke-width:0.75;" x="795.867482" xlink:href="#m61f3cf708f" y="91.212338"/>
     <use style="fill:#e4b8b8;stroke:#ffffff;stroke-linejoin:miter;stroke-width:0.75;" x="849.756615" xlink:href="#m61f3cf708f" y="69.045967"/>
     <use style="fill:#e4b8b8;stroke:#ffffff;stroke-linejoin:miter;stroke-width:0.75;" x="957.53488" xlink:href="#m61f3cf708f" y="46.26669"/>
    </g>
   </g>
   <g id="line2d_66">
    <path clip-path="url(#p82e33eacd3)" d="M 759.941394 137.926968 
L 768.922916 128.087733 
L 795.867482 112.13864 
L 849.756615 89.559069 
L 957.53488 65.553573 
" style="fill:none;stroke:#d79ea9;stroke-linecap:round;stroke-width:1.2;"/>
    <g clip-path="url(#p82e33eacd3)">
     <use style="fill:#d79ea9;stroke:#ffffff;stroke-linejoin:miter;stroke-width:0.75;" x="759.941394" xlink:href="#m0d3d7ab359" y="137.926968"/>
     <use style="fill:#d79ea9;stroke:#ffffff;stroke-linejoin:miter;stroke-width:0.75;" x="768.922916" xlink:href="#m0d3d7ab359" y="128.087733"/>
     <use style="fill:#d79ea9;stroke:#ffffff;stroke-linejoin:miter;stroke-width:0.75;" x="795.867482" xlink:href="#m0d3d7ab359" y="112.13864"/>
     <use style="fill:#d79ea9;stroke:#ffffff;stroke-linejoin:miter;stroke-width:0.75;" x="849.756615" xlink:href="#m0d3d7ab359" y="89.559069"/>
     <use style="fill:#d79ea9;stroke:#ffffff;stroke-linejoin:miter;stroke-width:0.75;" x="957.53488" xlink:href="#m0d3d7ab359" y="65.553573"/>
    </g>
   </g>
   <g id="line2d_67">
    <path clip-path="url(#p82e33eacd3)" d="M 759.941394 137.928678 
L 768.922916 137.928231 
L 795.867482 127.944572 
L 849.756615 111.959336 
L 957.53488 91.868011 
" style="fill:none;stroke:#c6859d;stroke-linecap:round;stroke-width:1.2;"/>
    <g clip-path="url(#p82e33eacd3)">
     <use style="fill:#c6859d;stroke:#ffffff;stroke-linejoin:miter;stroke-width:0.75;" x="759.941394" xlink:href="#me309558743" y="137.928678"/>
     <use style="fill:#c6859d;stroke:#ffffff;stroke-linejoin:miter;stroke-width:0.75;" x="768.922916" xlink:href="#me309558743" y="137.928231"/>
     <use style="fill:#c6859d;stroke:#ffffff;stroke-linejoin:miter;stroke-width:0.75;" x="795.867482" xlink:href="#me309558743" y="127.944572"/>
     <use style="fill:#c6859d;stroke:#ffffff;stroke-linejoin:miter;stroke-width:0.75;" x="849.756615" xlink:href="#me309558743" y="111.959336"/>
     <use style="fill:#c6859d;stroke:#ffffff;stroke-linejoin:miter;stroke-width:0.75;" x="957.53488" xlink:href="#me309558743" y="91.868011"/>
    </g>
   </g>
   <g id="line2d_68">
    <path clip-path="url(#p82e33eacd3)" d="M 759.941394 137.930569 
L 768.922916 137.930075 
L 795.867482 137.927829 
L 849.756615 127.921672 
L 957.53488 112.102274 
" style="fill:none;stroke:#b16e92;stroke-linecap:round;stroke-width:1.2;"/>
    <g clip-path="url(#p82e33eacd3)">
     <use style="fill:#b16e92;stroke:#ffffff;stroke-linejoin:miter;stroke-width:0.75;" x="759.941394" xlink:href="#m48f17d09ed" y="137.930569"/>
     <use style="fill:#b16e92;stroke:#ffffff;stroke-linejoin:miter;stroke-width:0.75;" x="768.922916" xlink:href="#m48f17d09ed" y="137.930075"/>
     <use style="fill:#b16e92;stroke:#ffffff;stroke-linejoin:miter;stroke-width:0.75;" x="795.867482" xlink:href="#m48f17d09ed" y="137.927829"/>
     <use style="fill:#b16e92;stroke:#ffffff;stroke-linejoin:miter;stroke-width:0.75;" x="849.756615" xlink:href="#m48f17d09ed" y="127.921672"/>
     <use style="fill:#b16e92;stroke:#ffffff;stroke-linejoin:miter;stroke-width:0.75;" x="957.53488" xlink:href="#m48f17d09ed" y="112.102274"/>
    </g>
   </g>
   <g id="line2d_69">
    <path clip-path="url(#p82e33eacd3)" d="M 759.941394 137.931323 
L 768.922916 137.930792 
L 795.867482 137.930315 
L 849.756615 137.928067 
L 957.53488 128.67342 
" style="fill:none;stroke:#985987;stroke-linecap:round;stroke-width:1.2;"/>
    <g clip-path="url(#p82e33eacd3)">
     <use style="fill:#985987;stroke:#ffffff;stroke-width:0.75;" x="759.941394" xlink:href="#m0e9f958d02" y="137.931323"/>
     <use style="fill:#985987;stroke:#ffffff;stroke-width:0.75;" x="768.922916" xlink:href="#m0e9f958d02" y="137.930792"/>
     <use style="fill:#985987;stroke:#ffffff;stroke-width:0.75;" x="795.867482" xlink:href="#m0e9f958d02" y="137.930315"/>
     <use style="fill:#985987;stroke:#ffffff;stroke-width:0.75;" x="849.756615" xlink:href="#m0e9f958d02" y="137.928067"/>
     <use style="fill:#985987;stroke:#ffffff;stroke-width:0.75;" x="957.53488" xlink:href="#m0e9f958d02" y="128.67342"/>
    </g>
   </g>
   <g id="line2d_70">
    <path clip-path="url(#p82e33eacd3)" d="M 759.941394 137.931929 
L 768.922916 137.931382 
L 795.867482 137.931127 
L 849.756615 137.930071 
L 957.53488 137.928015 
" style="fill:none;stroke:#7b4779;stroke-linecap:round;stroke-width:1.2;"/>
    <g clip-path="url(#p82e33eacd3)">
     <use style="fill:#7b4779;stroke:#ffffff;stroke-linejoin:miter;stroke-width:0.75;" x="759.941394" xlink:href="#ma2416c5552" y="137.931929"/>
     <use style="fill:#7b4779;stroke:#ffffff;stroke-linejoin:miter;stroke-width:0.75;" x="768.922916" xlink:href="#ma2416c5552" y="137.931382"/>
     <use style="fill:#7b4779;stroke:#ffffff;stroke-linejoin:miter;stroke-width:0.75;" x="795.867482" xlink:href="#ma2416c5552" y="137.931127"/>
     <use style="fill:#7b4779;stroke:#ffffff;stroke-linejoin:miter;stroke-width:0.75;" x="849.756615" xlink:href="#ma2416c5552" y="137.930071"/>
     <use style="fill:#7b4779;stroke:#ffffff;stroke-linejoin:miter;stroke-width:0.75;" x="957.53488" xlink:href="#ma2416c5552" y="137.928015"/>
    </g>
   </g>
   <g id="line2d_71">
    <path clip-path="url(#p82e33eacd3)" d="M 768.922916 137.931929 
L 795.867482 137.931881 
L 849.756615 137.93162 
L 957.53488 137.931321 
" style="fill:none;stroke:#2d1e3e;stroke-linecap:round;stroke-width:1.2;"/>
    <g clip-path="url(#p82e33eacd3)">
     <use style="fill:#2d1e3e;stroke:#ffffff;stroke-linejoin:miter;stroke-width:0.75;" x="768.922916" xlink:href="#ma5a150549e" y="137.931929"/>
     <use style="fill:#2d1e3e;stroke:#ffffff;stroke-linejoin:miter;stroke-width:0.75;" x="795.867482" xlink:href="#ma5a150549e" y="137.931881"/>
     <use style="fill:#2d1e3e;stroke:#ffffff;stroke-linejoin:miter;stroke-width:0.75;" x="849.756615" xlink:href="#ma5a150549e" y="137.93162"/>
     <use style="fill:#2d1e3e;stroke:#ffffff;stroke-linejoin:miter;stroke-width:0.75;" x="957.53488" xlink:href="#ma5a150549e" y="137.931321"/>
    </g>
   </g>
   <g id="patch_13">
    <path d="M 741.97835 137.932 
L 741.97835 23.368 
" style="fill:none;stroke:#cccccc;stroke-linecap:square;stroke-linejoin:miter;"/>
   </g>
   <g id="patch_14">
    <path d="M 1081.42375 137.932 
L 1081.42375 23.368 
" style="fill:none;stroke:#cccccc;stroke-linecap:square;stroke-linejoin:miter;"/>
   </g>
   <g id="patch_15">
    <path d="M 741.97835 137.932 
L 1081.42375 137.932 
" style="fill:none;stroke:#cccccc;stroke-linecap:square;stroke-linejoin:miter;"/>
   </g>
   <g id="patch_16">
    <path d="M 741.97835 23.368 
L 1081.42375 23.368 
" style="fill:none;stroke:#cccccc;stroke-linecap:square;stroke-linejoin:miter;"/>
   </g>
   <g id="text_34">
    <!-- CC = TICTOC -->
    <g style="fill:#262626;" transform="translate(881.60205 17.368)scale(0.096 -0.096)">
     <use xlink:href="#ArialMT-67"/>
     <use x="72.216797" xlink:href="#ArialMT-67"/>
     <use x="144.433594" xlink:href="#ArialMT-32"/>
     <use x="172.216797" xlink:href="#ArialMT-61"/>
     <use x="230.615234" xlink:href="#ArialMT-32"/>
     <use x="256.648438" xlink:href="#ArialMT-84"/>
     <use x="317.732422" xlink:href="#ArialMT-73"/>
     <use x="345.515625" xlink:href="#ArialMT-67"/>
     <use x="417.732422" xlink:href="#ArialMT-84"/>
     <use x="477.066406" xlink:href="#ArialMT-79"/>
     <use x="554.849609" xlink:href="#ArialMT-67"/>
    </g>
   </g>
  </g>
  <g id="legend_1">
   <g id="text_35">
    <!-- Warehouses -->
    <g style="fill:#262626;" transform="translate(1092.176 35.49025)scale(0.096 -0.096)">
     <defs>
      <path d="M 6.59375 0 
L 6.59375 71.578125 
L 15.375 71.578125 
L 15.375 45.90625 
Q 21.53125 53.03125 30.90625 53.03125 
Q 36.671875 53.03125 40.921875 50.75 
Q 45.171875 48.484375 47 44.484375 
Q 48.828125 40.484375 48.828125 32.859375 
L 48.828125 0 
L 40.046875 0 
L 40.046875 32.859375 
Q 40.046875 39.453125 37.1875 42.453125 
Q 34.328125 45.453125 29.109375 45.453125 
Q 25.203125 45.453125 21.75 43.421875 
Q 18.3125 41.40625 16.84375 37.9375 
Q 15.375 34.46875 15.375 28.375 
L 15.375 0 
z
" id="ArialMT-104"/>
     </defs>
     <use xlink:href="#ArialMT-87"/>
     <use x="90.634766" xlink:href="#ArialMT-97"/>
     <use x="146.25" xlink:href="#ArialMT-114"/>
     <use x="179.550781" xlink:href="#ArialMT-101"/>
     <use x="235.166016" xlink:href="#ArialMT-104"/>
     <use x="290.78125" xlink:href="#ArialMT-111"/>
     <use x="346.396484" xlink:href="#ArialMT-117"/>
     <use x="402.011719" xlink:href="#ArialMT-115"/>
     <use x="452.011719" xlink:href="#ArialMT-101"/>
     <use x="507.626953" xlink:href="#ArialMT-115"/>
    </g>
   </g>
   <g id="line2d_72">
    <path d="M 1096.83325 45.017125 
L 1114.43325 45.017125 
" style="fill:none;stroke:#edd1cb;stroke-linecap:round;stroke-width:1.2;"/>
   </g>
   <g id="line2d_73">
    <defs>
     <path d="M 0 2.4 
C 0.636487 2.4 1.246992 2.147121 1.697056 1.697056 
C 2.147121 1.246992 2.4 0.636487 2.4 0 
C 2.4 -0.636487 2.147121 -1.246992 1.697056 -1.697056 
C 1.246992 -2.147121 0.636487 -2.4 0 -2.4 
C -0.636487 -2.4 -1.246992 -2.147121 -1.697056 -1.697056 
C -2.147121 -1.246992 -2.4 -0.636487 -2.4 0 
C -2.4 0.636487 -2.147121 1.246992 -1.697056 1.697056 
C -1.246992 2.147121 -0.636487 2.4 0 2.4 
z
" id="m0301078263" style="stroke:#edd1cb;"/>
    </defs>
    <g>
     <use style="fill:#edd1cb;stroke:#edd1cb;" x="1105.63325" xlink:href="#m0301078263" y="45.017125"/>
    </g>
   </g>
   <g id="text_36">
    <!-- 4 -->
    <g style="fill:#262626;" transform="translate(1121.47325 48.097125)scale(0.088 -0.088)">
     <use xlink:href="#ArialMT-52"/>
    </g>
   </g>
   <g id="line2d_74">
    <path d="M 1096.83325 57.465 
L 1114.43325 57.465 
" style="fill:none;stroke:#e4b8b8;stroke-linecap:round;stroke-width:1.2;"/>
   </g>
   <g id="line2d_75">
    <defs>
     <path d="M -2.4 2.4 
L 2.4 2.4 
L 2.4 -2.4 
L -2.4 -2.4 
z
" id="m0b1ba2abe0" style="stroke:#e4b8b8;stroke-linejoin:miter;"/>
    </defs>
    <g>
     <use style="fill:#e4b8b8;stroke:#e4b8b8;stroke-linejoin:miter;" x="1105.63325" xlink:href="#m0b1ba2abe0" y="57.465"/>
    </g>
   </g>
   <g id="text_37">
    <!-- 8 -->
    <g style="fill:#262626;" transform="translate(1121.47325 60.545)scale(0.088 -0.088)">
     <use xlink:href="#ArialMT-56"/>
    </g>
   </g>
   <g id="line2d_76">
    <path d="M 1096.83325 69.912875 
L 1114.43325 69.912875 
" style="fill:none;stroke:#d79ea9;stroke-linecap:round;stroke-width:1.2;"/>
   </g>
   <g id="line2d_77">
    <defs>
     <path d="M 0 3.394113 
L 2.036468 0 
L 0 -3.394113 
L -2.036468 0 
z
" id="mf9d6805d05" style="stroke:#d79ea9;stroke-linejoin:miter;"/>
    </defs>
    <g>
     <use style="fill:#d79ea9;stroke:#d79ea9;stroke-linejoin:miter;" x="1105.63325" xlink:href="#mf9d6805d05" y="69.912875"/>
    </g>
   </g>
   <g id="text_38">
    <!-- 16 -->
    <g style="fill:#262626;" transform="translate(1121.47325 72.992875)scale(0.088 -0.088)">
     <use xlink:href="#ArialMT-49"/>
     <use x="55.615234" xlink:href="#ArialMT-54"/>
    </g>
   </g>
   <g id="line2d_78">
    <path d="M 1096.83325 82.36075 
L 1114.43325 82.36075 
" style="fill:none;stroke:#c6859d;stroke-linecap:round;stroke-width:1.2;"/>
   </g>
   <g id="line2d_79">
    <defs>
     <path d="M 0 -2.4 
L -2.4 2.4 
L 2.4 2.4 
z
" id="m05df7e161c" style="stroke:#c6859d;stroke-linejoin:miter;"/>
    </defs>
    <g>
     <use style="fill:#c6859d;stroke:#c6859d;stroke-linejoin:miter;" x="1105.63325" xlink:href="#m05df7e161c" y="82.36075"/>
    </g>
   </g>
   <g id="text_39">
    <!-- 32 -->
    <g style="fill:#262626;" transform="translate(1121.47325 85.44075)scale(0.088 -0.088)">
     <use xlink:href="#ArialMT-51"/>
     <use x="55.615234" xlink:href="#ArialMT-50"/>
    </g>
   </g>
   <g id="line2d_80">
    <path d="M 1096.83325 94.808625 
L 1114.43325 94.808625 
" style="fill:none;stroke:#b16e92;stroke-linecap:round;stroke-width:1.2;"/>
   </g>
   <g id="line2d_81">
    <defs>
     <path d="M 0 -2.4 
L -2.282536 -0.741641 
L -1.410685 1.941641 
L 1.410685 1.941641 
L 2.282536 -0.741641 
z
" id="mc202d628b3" style="stroke:#b16e92;stroke-linejoin:miter;"/>
    </defs>
    <g>
     <use style="fill:#b16e92;stroke:#b16e92;stroke-linejoin:miter;" x="1105.63325" xlink:href="#mc202d628b3" y="94.808625"/>
    </g>
   </g>
   <g id="text_40">
    <!-- 64 -->
    <g style="fill:#262626;" transform="translate(1121.47325 97.888625)scale(0.088 -0.088)">
     <use xlink:href="#ArialMT-54"/>
     <use x="55.615234" xlink:href="#ArialMT-52"/>
    </g>
   </g>
   <g id="line2d_82">
    <path d="M 1096.83325 107.2565 
L 1114.43325 107.2565 
" style="fill:none;stroke:#985987;stroke-linecap:round;stroke-width:1.2;"/>
   </g>
   <g id="line2d_83">
    <defs>
     <path d="M 0 2.4 
C 0.636487 2.4 1.246992 2.147121 1.697056 1.697056 
C 2.147121 1.246992 2.4 0.636487 2.4 0 
C 2.4 -0.636487 2.147121 -1.246992 1.697056 -1.697056 
C 1.246992 -2.147121 0.636487 -2.4 0 -2.4 
C -0.636487 -2.4 -1.246992 -2.147121 -1.697056 -1.697056 
C -2.147121 -1.246992 -2.4 -0.636487 -2.4 0 
C -2.4 0.636487 -2.147121 1.246992 -1.697056 1.697056 
C -1.246992 2.147121 -0.636487 2.4 0 2.4 
z
" id="m0896a4db44" style="stroke:#985987;"/>
    </defs>
    <g>
     <use style="fill:#985987;stroke:#985987;" x="1105.63325" xlink:href="#m0896a4db44" y="107.2565"/>
    </g>
   </g>
   <g id="text_41">
    <!-- 128 -->
    <g style="fill:#262626;" transform="translate(1121.47325 110.3365)scale(0.088 -0.088)">
     <use xlink:href="#ArialMT-49"/>
     <use x="55.615234" xlink:href="#ArialMT-50"/>
     <use x="111.230469" xlink:href="#ArialMT-56"/>
    </g>
   </g>
   <g id="line2d_84">
    <path d="M 1096.83325 119.704375 
L 1114.43325 119.704375 
" style="fill:none;stroke:#7b4779;stroke-linecap:round;stroke-width:1.2;"/>
   </g>
   <g id="line2d_85">
    <defs>
     <path d="M -2.4 2.4 
L 2.4 2.4 
L 2.4 -2.4 
L -2.4 -2.4 
z
" id="ma978b42159" style="stroke:#7b4779;stroke-linejoin:miter;"/>
    </defs>
    <g>
     <use style="fill:#7b4779;stroke:#7b4779;stroke-linejoin:miter;" x="1105.63325" xlink:href="#ma978b42159" y="119.704375"/>
    </g>
   </g>
   <g id="text_42">
    <!-- 256 -->
    <g style="fill:#262626;" transform="translate(1121.47325 122.784375)scale(0.088 -0.088)">
     <use xlink:href="#ArialMT-50"/>
     <use x="55.615234" xlink:href="#ArialMT-53"/>
     <use x="111.230469" xlink:href="#ArialMT-54"/>
    </g>
   </g>
   <g id="line2d_86">
    <path d="M 1096.83325 132.15225 
L 1114.43325 132.15225 
" style="fill:none;stroke:#2d1e3e;stroke-linecap:round;stroke-width:1.2;"/>
   </g>
   <g id="line2d_87">
    <defs>
     <path d="M 0 -2.4 
L -2.282536 -0.741641 
L -1.410685 1.941641 
L 1.410685 1.941641 
L 2.282536 -0.741641 
z
" id="m4f03f6fc47" style="stroke:#2d1e3e;stroke-linejoin:miter;"/>
    </defs>
    <g>
     <use style="fill:#2d1e3e;stroke:#2d1e3e;stroke-linejoin:miter;" x="1105.63325" xlink:href="#m4f03f6fc47" y="132.15225"/>
    </g>
   </g>
   <g id="text_43">
    <!-- 1568 -->
    <g style="fill:#262626;" transform="translate(1121.47325 135.23225)scale(0.088 -0.088)">
     <use xlink:href="#ArialMT-49"/>
     <use x="55.615234" xlink:href="#ArialMT-53"/>
     <use x="111.230469" xlink:href="#ArialMT-54"/>
     <use x="166.845703" xlink:href="#ArialMT-56"/>
    </g>
   </g>
  </g>
 </g>
 <defs>
  <clipPath id="p60e7c14330">
   <rect height="114.564" width="339.4454" x="32.634111" y="23.368"/>
  </clipPath>
  <clipPath id="pfc3339112b">
   <rect height="114.564" width="339.4454" x="387.30623" y="23.368"/>
  </clipPath>
  <clipPath id="p82e33eacd3">
   <rect height="114.564" width="339.4454" x="741.97835" y="23.368"/>
  </clipPath>
 </defs>
</svg>
