<?xml version="1.0" encoding="utf-8" standalone="no"?>
<!DOCTYPE svg PUBLIC "-//W3C//DTD SVG 1.1//EN"
  "http://www.w3.org/Graphics/SVG/1.1/DTD/svg11.dtd">
<!-- Created with matplotlib (https://matplotlib.org/) -->
<svg height="165.6pt" version="1.1" viewBox="0 0 1153.625 165.6" width="1153.625pt" xmlns="http://www.w3.org/2000/svg" xmlns:xlink="http://www.w3.org/1999/xlink">
 <metadata>
  <rdf:RDF xmlns:cc="http://creativecommons.org/ns#" xmlns:dc="http://purl.org/dc/elements/1.1/" xmlns:rdf="http://www.w3.org/1999/02/22-rdf-syntax-ns#">
   <cc:Work>
    <dc:type rdf:resource="http://purl.org/dc/dcmitype/StillImage"/>
    <dc:date>2021-03-29T16:14:30.549436</dc:date>
    <dc:format>image/svg+xml</dc:format>
    <dc:creator>
     <cc:Agent>
      <dc:title>Matplotlib v3.3.2, https://matplotlib.org/</dc:title>
     </cc:Agent>
    </dc:creator>
   </cc:Work>
  </rdf:RDF>
 </metadata>
 <defs>
  <style type="text/css">*{stroke-linecap:butt;stroke-linejoin:round;}</style>
 </defs>
 <g id="figure_1">
  <g id="patch_1">
   <path d="M 0 165.6 
L 1153.625 165.6 
L 1153.625 0 
L 0 0 
z
" style="fill:#ffffff;"/>
  </g>
  <g id="axes_1">
   <g id="patch_2">
    <path d="M 29.995348 137.932 
L 370.319041 137.932 
L 370.319041 23.368 
L 29.995348 23.368 
z
" style="fill:#ffffff;"/>
   </g>
   <g id="matplotlib.axis_1">
    <g id="xtick_1">
     <g id="line2d_1">
      <path clip-path="url(#pc02a05dcc8)" d="M 29.995348 137.932 
L 29.995348 23.368 
" style="fill:none;stroke:#cccccc;stroke-linecap:round;stroke-width:0.8;"/>
     </g>
     <g id="text_1">
      <!-- 0 -->
      <g style="fill:#262626;" transform="translate(27.548535 146.030875)scale(0.088 -0.088)">
       <defs>
        <path d="M 4.15625 35.296875 
Q 4.15625 48 6.765625 55.734375 
Q 9.375 63.484375 14.515625 67.671875 
Q 19.671875 71.875 27.484375 71.875 
Q 33.25 71.875 37.59375 69.546875 
Q 41.9375 67.234375 44.765625 62.859375 
Q 47.609375 58.5 49.21875 52.21875 
Q 50.828125 45.953125 50.828125 35.296875 
Q 50.828125 22.703125 48.234375 14.96875 
Q 45.65625 7.234375 40.5 3 
Q 35.359375 -1.21875 27.484375 -1.21875 
Q 17.140625 -1.21875 11.234375 6.203125 
Q 4.15625 15.140625 4.15625 35.296875 
z
M 13.1875 35.296875 
Q 13.1875 17.671875 17.3125 11.828125 
Q 21.4375 6 27.484375 6 
Q 33.546875 6 37.671875 11.859375 
Q 41.796875 17.71875 41.796875 35.296875 
Q 41.796875 52.984375 37.671875 58.78125 
Q 33.546875 64.59375 27.390625 64.59375 
Q 21.34375 64.59375 17.71875 59.46875 
Q 13.1875 52.9375 13.1875 35.296875 
z
" id="ArialMT-48"/>
       </defs>
       <use xlink:href="#ArialMT-48"/>
      </g>
     </g>
    </g>
    <g id="xtick_2">
     <g id="line2d_2">
      <path clip-path="url(#pc02a05dcc8)" d="M 86.275105 137.932 
L 86.275105 23.368 
" style="fill:none;stroke:#cccccc;stroke-linecap:round;stroke-width:0.8;"/>
     </g>
     <g id="text_2">
      <!-- 50 -->
      <g style="fill:#262626;" transform="translate(81.38148 146.030875)scale(0.088 -0.088)">
       <defs>
        <path d="M 4.15625 18.75 
L 13.375 19.53125 
Q 14.40625 12.796875 18.140625 9.390625 
Q 21.875 6 27.15625 6 
Q 33.5 6 37.890625 10.78125 
Q 42.28125 15.578125 42.28125 23.484375 
Q 42.28125 31 38.0625 35.34375 
Q 33.84375 39.703125 27 39.703125 
Q 22.75 39.703125 19.328125 37.765625 
Q 15.921875 35.84375 13.96875 32.765625 
L 5.71875 33.84375 
L 12.640625 70.609375 
L 48.25 70.609375 
L 48.25 62.203125 
L 19.671875 62.203125 
L 15.828125 42.96875 
Q 22.265625 47.46875 29.34375 47.46875 
Q 38.71875 47.46875 45.15625 40.96875 
Q 51.609375 34.46875 51.609375 24.265625 
Q 51.609375 14.546875 45.953125 7.46875 
Q 39.0625 -1.21875 27.15625 -1.21875 
Q 17.390625 -1.21875 11.203125 4.25 
Q 5.03125 9.71875 4.15625 18.75 
z
" id="ArialMT-53"/>
       </defs>
       <use xlink:href="#ArialMT-53"/>
       <use x="55.615234" xlink:href="#ArialMT-48"/>
      </g>
     </g>
    </g>
    <g id="xtick_3">
     <g id="line2d_3">
      <path clip-path="url(#pc02a05dcc8)" d="M 142.554863 137.932 
L 142.554863 23.368 
" style="fill:none;stroke:#cccccc;stroke-linecap:round;stroke-width:0.8;"/>
     </g>
     <g id="text_3">
      <!-- 100 -->
      <g style="fill:#262626;" transform="translate(135.214425 146.030875)scale(0.088 -0.088)">
       <defs>
        <path d="M 37.25 0 
L 28.46875 0 
L 28.46875 56 
Q 25.296875 52.984375 20.140625 49.953125 
Q 14.984375 46.921875 10.890625 45.40625 
L 10.890625 53.90625 
Q 18.265625 57.375 23.78125 62.296875 
Q 29.296875 67.234375 31.59375 71.875 
L 37.25 71.875 
z
" id="ArialMT-49"/>
       </defs>
       <use xlink:href="#ArialMT-49"/>
       <use x="55.615234" xlink:href="#ArialMT-48"/>
       <use x="111.230469" xlink:href="#ArialMT-48"/>
      </g>
     </g>
    </g>
    <g id="xtick_4">
     <g id="line2d_4">
      <path clip-path="url(#pc02a05dcc8)" d="M 198.83462 137.932 
L 198.83462 23.368 
" style="fill:none;stroke:#cccccc;stroke-linecap:round;stroke-width:0.8;"/>
     </g>
     <g id="text_4">
      <!-- 150 -->
      <g style="fill:#262626;" transform="translate(191.494182 146.030875)scale(0.088 -0.088)">
       <use xlink:href="#ArialMT-49"/>
       <use x="55.615234" xlink:href="#ArialMT-53"/>
       <use x="111.230469" xlink:href="#ArialMT-48"/>
      </g>
     </g>
    </g>
    <g id="xtick_5">
     <g id="line2d_5">
      <path clip-path="url(#pc02a05dcc8)" d="M 255.114377 137.932 
L 255.114377 23.368 
" style="fill:none;stroke:#cccccc;stroke-linecap:round;stroke-width:0.8;"/>
     </g>
     <g id="text_5">
      <!-- 200 -->
      <g style="fill:#262626;" transform="translate(247.77394 146.030875)scale(0.088 -0.088)">
       <defs>
        <path d="M 50.34375 8.453125 
L 50.34375 0 
L 3.03125 0 
Q 2.9375 3.171875 4.046875 6.109375 
Q 5.859375 10.9375 9.828125 15.625 
Q 13.8125 20.3125 21.34375 26.46875 
Q 33.015625 36.03125 37.109375 41.625 
Q 41.21875 47.21875 41.21875 52.203125 
Q 41.21875 57.421875 37.46875 61 
Q 33.734375 64.59375 27.734375 64.59375 
Q 21.390625 64.59375 17.578125 60.78125 
Q 13.765625 56.984375 13.71875 50.25 
L 4.6875 51.171875 
Q 5.609375 61.28125 11.65625 66.578125 
Q 17.71875 71.875 27.9375 71.875 
Q 38.234375 71.875 44.234375 66.15625 
Q 50.25 60.453125 50.25 52 
Q 50.25 47.703125 48.484375 43.546875 
Q 46.734375 39.40625 42.65625 34.8125 
Q 38.578125 30.21875 29.109375 22.21875 
Q 21.1875 15.578125 18.9375 13.203125 
Q 16.703125 10.84375 15.234375 8.453125 
z
" id="ArialMT-50"/>
       </defs>
       <use xlink:href="#ArialMT-50"/>
       <use x="55.615234" xlink:href="#ArialMT-48"/>
       <use x="111.230469" xlink:href="#ArialMT-48"/>
      </g>
     </g>
    </g>
    <g id="xtick_6">
     <g id="line2d_6">
      <path clip-path="url(#pc02a05dcc8)" d="M 311.394135 137.932 
L 311.394135 23.368 
" style="fill:none;stroke:#cccccc;stroke-linecap:round;stroke-width:0.8;"/>
     </g>
     <g id="text_6">
      <!-- 250 -->
      <g style="fill:#262626;" transform="translate(304.053697 146.030875)scale(0.088 -0.088)">
       <use xlink:href="#ArialMT-50"/>
       <use x="55.615234" xlink:href="#ArialMT-53"/>
       <use x="111.230469" xlink:href="#ArialMT-48"/>
      </g>
     </g>
    </g>
    <g id="xtick_7">
     <g id="line2d_7">
      <path clip-path="url(#pc02a05dcc8)" d="M 367.673892 137.932 
L 367.673892 23.368 
" style="fill:none;stroke:#cccccc;stroke-linecap:round;stroke-width:0.8;"/>
     </g>
     <g id="text_7">
      <!-- 300 -->
      <g style="fill:#262626;" transform="translate(360.333455 146.030875)scale(0.088 -0.088)">
       <defs>
        <path d="M 4.203125 18.890625 
L 12.984375 20.0625 
Q 14.5 12.59375 18.140625 9.296875 
Q 21.78125 6 27 6 
Q 33.203125 6 37.46875 10.296875 
Q 41.75 14.59375 41.75 20.953125 
Q 41.75 27 37.796875 30.921875 
Q 33.84375 34.859375 27.734375 34.859375 
Q 25.25 34.859375 21.53125 33.890625 
L 22.515625 41.609375 
Q 23.390625 41.5 23.921875 41.5 
Q 29.546875 41.5 34.03125 44.421875 
Q 38.53125 47.359375 38.53125 53.46875 
Q 38.53125 58.296875 35.25 61.46875 
Q 31.984375 64.65625 26.8125 64.65625 
Q 21.6875 64.65625 18.265625 61.421875 
Q 14.84375 58.203125 13.875 51.765625 
L 5.078125 53.328125 
Q 6.6875 62.15625 12.390625 67.015625 
Q 18.109375 71.875 26.609375 71.875 
Q 32.46875 71.875 37.390625 69.359375 
Q 42.328125 66.84375 44.9375 62.5 
Q 47.5625 58.15625 47.5625 53.265625 
Q 47.5625 48.640625 45.0625 44.828125 
Q 42.578125 41.015625 37.703125 38.765625 
Q 44.046875 37.3125 47.5625 32.6875 
Q 51.078125 28.078125 51.078125 21.140625 
Q 51.078125 11.765625 44.234375 5.25 
Q 37.40625 -1.265625 26.953125 -1.265625 
Q 17.53125 -1.265625 11.296875 4.34375 
Q 5.078125 9.96875 4.203125 18.890625 
z
" id="ArialMT-51"/>
       </defs>
       <use xlink:href="#ArialMT-51"/>
       <use x="55.615234" xlink:href="#ArialMT-48"/>
       <use x="111.230469" xlink:href="#ArialMT-48"/>
      </g>
     </g>
    </g>
    <g id="text_8">
     <!-- Number of Cores -->
     <g style="fill:#262626;" transform="translate(163.613444 158.651375)scale(0.096 -0.096)">
      <defs>
       <path d="M 7.625 0 
L 7.625 71.578125 
L 17.328125 71.578125 
L 54.9375 15.375 
L 54.9375 71.578125 
L 64.015625 71.578125 
L 64.015625 0 
L 54.296875 0 
L 16.703125 56.25 
L 16.703125 0 
z
" id="ArialMT-78"/>
       <path d="M 40.578125 0 
L 40.578125 7.625 
Q 34.515625 -1.171875 24.125 -1.171875 
Q 19.53125 -1.171875 15.546875 0.578125 
Q 11.578125 2.34375 9.640625 5 
Q 7.71875 7.671875 6.9375 11.53125 
Q 6.390625 14.109375 6.390625 19.734375 
L 6.390625 51.859375 
L 15.1875 51.859375 
L 15.1875 23.09375 
Q 15.1875 16.21875 15.71875 13.8125 
Q 16.546875 10.359375 19.234375 8.375 
Q 21.921875 6.390625 25.875 6.390625 
Q 29.828125 6.390625 33.296875 8.421875 
Q 36.765625 10.453125 38.203125 13.9375 
Q 39.65625 17.4375 39.65625 24.078125 
L 39.65625 51.859375 
L 48.4375 51.859375 
L 48.4375 0 
z
" id="ArialMT-117"/>
       <path d="M 6.59375 0 
L 6.59375 51.859375 
L 14.453125 51.859375 
L 14.453125 44.578125 
Q 16.890625 48.390625 20.9375 50.703125 
Q 25 53.03125 30.171875 53.03125 
Q 35.9375 53.03125 39.625 50.640625 
Q 43.3125 48.25 44.828125 43.953125 
Q 50.984375 53.03125 60.84375 53.03125 
Q 68.5625 53.03125 72.703125 48.75 
Q 76.859375 44.484375 76.859375 35.59375 
L 76.859375 0 
L 68.109375 0 
L 68.109375 32.671875 
Q 68.109375 37.9375 67.25 40.25 
Q 66.40625 42.578125 64.15625 43.984375 
Q 61.921875 45.40625 58.890625 45.40625 
Q 53.421875 45.40625 49.796875 41.765625 
Q 46.1875 38.140625 46.1875 30.125 
L 46.1875 0 
L 37.40625 0 
L 37.40625 33.6875 
Q 37.40625 39.546875 35.25 42.46875 
Q 33.109375 45.40625 28.21875 45.40625 
Q 24.515625 45.40625 21.359375 43.453125 
Q 18.21875 41.5 16.796875 37.734375 
Q 15.375 33.984375 15.375 26.90625 
L 15.375 0 
z
" id="ArialMT-109"/>
       <path d="M 14.703125 0 
L 6.546875 0 
L 6.546875 71.578125 
L 15.328125 71.578125 
L 15.328125 46.046875 
Q 20.90625 53.03125 29.546875 53.03125 
Q 34.328125 53.03125 38.59375 51.09375 
Q 42.875 49.171875 45.625 45.671875 
Q 48.390625 42.1875 49.953125 37.25 
Q 51.515625 32.328125 51.515625 26.703125 
Q 51.515625 13.375 44.921875 6.09375 
Q 38.328125 -1.171875 29.109375 -1.171875 
Q 19.921875 -1.171875 14.703125 6.5 
z
M 14.59375 26.3125 
Q 14.59375 17 17.140625 12.84375 
Q 21.296875 6.0625 28.375 6.0625 
Q 34.125 6.0625 38.328125 11.0625 
Q 42.53125 16.0625 42.53125 25.984375 
Q 42.53125 36.140625 38.5 40.96875 
Q 34.46875 45.796875 28.765625 45.796875 
Q 23 45.796875 18.796875 40.796875 
Q 14.59375 35.796875 14.59375 26.3125 
z
" id="ArialMT-98"/>
       <path d="M 42.09375 16.703125 
L 51.171875 15.578125 
Q 49.03125 7.625 43.21875 3.21875 
Q 37.40625 -1.171875 28.375 -1.171875 
Q 17 -1.171875 10.328125 5.828125 
Q 3.65625 12.84375 3.65625 25.484375 
Q 3.65625 38.578125 10.390625 45.796875 
Q 17.140625 53.03125 27.875 53.03125 
Q 38.28125 53.03125 44.875 45.953125 
Q 51.46875 38.875 51.46875 26.03125 
Q 51.46875 25.25 51.421875 23.6875 
L 12.75 23.6875 
Q 13.234375 15.140625 17.578125 10.59375 
Q 21.921875 6.0625 28.421875 6.0625 
Q 33.25 6.0625 36.671875 8.59375 
Q 40.09375 11.140625 42.09375 16.703125 
z
M 13.234375 30.90625 
L 42.1875 30.90625 
Q 41.609375 37.453125 38.875 40.71875 
Q 34.671875 45.796875 27.984375 45.796875 
Q 21.921875 45.796875 17.796875 41.75 
Q 13.671875 37.703125 13.234375 30.90625 
z
" id="ArialMT-101"/>
       <path d="M 6.5 0 
L 6.5 51.859375 
L 14.40625 51.859375 
L 14.40625 44 
Q 17.4375 49.515625 20 51.265625 
Q 22.5625 53.03125 25.640625 53.03125 
Q 30.078125 53.03125 34.671875 50.203125 
L 31.640625 42.046875 
Q 28.421875 43.953125 25.203125 43.953125 
Q 22.3125 43.953125 20.015625 42.21875 
Q 17.71875 40.484375 16.75 37.40625 
Q 15.28125 32.71875 15.28125 27.15625 
L 15.28125 0 
z
" id="ArialMT-114"/>
       <path id="ArialMT-32"/>
       <path d="M 3.328125 25.921875 
Q 3.328125 40.328125 11.328125 47.265625 
Q 18.015625 53.03125 27.640625 53.03125 
Q 38.328125 53.03125 45.109375 46.015625 
Q 51.90625 39.015625 51.90625 26.65625 
Q 51.90625 16.65625 48.90625 10.90625 
Q 45.90625 5.171875 40.15625 2 
Q 34.421875 -1.171875 27.640625 -1.171875 
Q 16.75 -1.171875 10.03125 5.8125 
Q 3.328125 12.796875 3.328125 25.921875 
z
M 12.359375 25.921875 
Q 12.359375 15.96875 16.703125 11.015625 
Q 21.046875 6.0625 27.640625 6.0625 
Q 34.1875 6.0625 38.53125 11.03125 
Q 42.875 16.015625 42.875 26.21875 
Q 42.875 35.84375 38.5 40.796875 
Q 34.125 45.75 27.640625 45.75 
Q 21.046875 45.75 16.703125 40.8125 
Q 12.359375 35.890625 12.359375 25.921875 
z
" id="ArialMT-111"/>
       <path d="M 8.6875 0 
L 8.6875 45.015625 
L 0.921875 45.015625 
L 0.921875 51.859375 
L 8.6875 51.859375 
L 8.6875 57.375 
Q 8.6875 62.59375 9.625 65.140625 
Q 10.890625 68.5625 14.078125 70.671875 
Q 17.28125 72.796875 23.046875 72.796875 
Q 26.765625 72.796875 31.25 71.921875 
L 29.9375 64.265625 
Q 27.203125 64.75 24.75 64.75 
Q 20.75 64.75 19.09375 63.03125 
Q 17.4375 61.328125 17.4375 56.640625 
L 17.4375 51.859375 
L 27.546875 51.859375 
L 27.546875 45.015625 
L 17.4375 45.015625 
L 17.4375 0 
z
" id="ArialMT-102"/>
       <path d="M 58.796875 25.09375 
L 68.265625 22.703125 
Q 65.28125 11.03125 57.546875 4.90625 
Q 49.8125 -1.21875 38.625 -1.21875 
Q 27.046875 -1.21875 19.796875 3.484375 
Q 12.546875 8.203125 8.765625 17.140625 
Q 4.984375 26.078125 4.984375 36.328125 
Q 4.984375 47.515625 9.25 55.828125 
Q 13.53125 64.15625 21.40625 68.46875 
Q 29.296875 72.796875 38.765625 72.796875 
Q 49.515625 72.796875 56.828125 67.328125 
Q 64.15625 61.859375 67.046875 51.953125 
L 57.71875 49.75 
Q 55.21875 57.5625 50.484375 61.125 
Q 45.75 64.703125 38.578125 64.703125 
Q 30.328125 64.703125 24.78125 60.734375 
Q 19.234375 56.78125 16.984375 50.109375 
Q 14.75 43.453125 14.75 36.375 
Q 14.75 27.25 17.40625 20.4375 
Q 20.0625 13.625 25.671875 10.25 
Q 31.296875 6.890625 37.84375 6.890625 
Q 45.796875 6.890625 51.3125 11.46875 
Q 56.84375 16.0625 58.796875 25.09375 
z
" id="ArialMT-67"/>
       <path d="M 3.078125 15.484375 
L 11.765625 16.84375 
Q 12.5 11.625 15.84375 8.84375 
Q 19.1875 6.0625 25.203125 6.0625 
Q 31.25 6.0625 34.171875 8.515625 
Q 37.109375 10.984375 37.109375 14.3125 
Q 37.109375 17.28125 34.515625 19 
Q 32.71875 20.171875 25.53125 21.96875 
Q 15.875 24.421875 12.140625 26.203125 
Q 8.40625 27.984375 6.46875 31.125 
Q 4.546875 34.28125 4.546875 38.09375 
Q 4.546875 41.546875 6.125 44.5 
Q 7.71875 47.46875 10.453125 49.421875 
Q 12.5 50.921875 16.03125 51.96875 
Q 19.578125 53.03125 23.640625 53.03125 
Q 29.734375 53.03125 34.34375 51.265625 
Q 38.96875 49.515625 41.15625 46.5 
Q 43.359375 43.5 44.1875 38.484375 
L 35.59375 37.3125 
Q 35.015625 41.3125 32.203125 43.546875 
Q 29.390625 45.796875 24.265625 45.796875 
Q 18.21875 45.796875 15.625 43.796875 
Q 13.03125 41.796875 13.03125 39.109375 
Q 13.03125 37.40625 14.109375 36.03125 
Q 15.1875 34.625 17.484375 33.6875 
Q 18.796875 33.203125 25.25 31.453125 
Q 34.578125 28.953125 38.25 27.359375 
Q 41.9375 25.78125 44.03125 22.75 
Q 46.140625 19.734375 46.140625 15.234375 
Q 46.140625 10.84375 43.578125 6.953125 
Q 41.015625 3.078125 36.171875 0.953125 
Q 31.34375 -1.171875 25.25 -1.171875 
Q 15.140625 -1.171875 9.84375 3.03125 
Q 4.546875 7.234375 3.078125 15.484375 
z
" id="ArialMT-115"/>
      </defs>
      <use xlink:href="#ArialMT-78"/>
      <use x="72.216797" xlink:href="#ArialMT-117"/>
      <use x="127.832031" xlink:href="#ArialMT-109"/>
      <use x="211.132812" xlink:href="#ArialMT-98"/>
      <use x="266.748047" xlink:href="#ArialMT-101"/>
      <use x="322.363281" xlink:href="#ArialMT-114"/>
      <use x="355.664062" xlink:href="#ArialMT-32"/>
      <use x="383.447266" xlink:href="#ArialMT-111"/>
      <use x="439.0625" xlink:href="#ArialMT-102"/>
      <use x="466.845703" xlink:href="#ArialMT-32"/>
      <use x="494.628906" xlink:href="#ArialMT-67"/>
      <use x="566.845703" xlink:href="#ArialMT-111"/>
      <use x="622.460938" xlink:href="#ArialMT-114"/>
      <use x="655.761719" xlink:href="#ArialMT-101"/>
      <use x="711.376953" xlink:href="#ArialMT-115"/>
     </g>
    </g>
   </g>
   <g id="matplotlib.axis_2">
    <g id="ytick_1">
     <g id="line2d_8">
      <path clip-path="url(#pc02a05dcc8)" d="M 29.995348 137.932 
L 370.319041 137.932 
" style="fill:none;stroke:#cccccc;stroke-linecap:round;stroke-width:0.8;"/>
     </g>
     <g id="text_9">
      <!-- 0 -->
      <g style="fill:#262626;" transform="translate(16.801723 141.081437)scale(0.088 -0.088)">
       <use xlink:href="#ArialMT-48"/>
      </g>
     </g>
    </g>
    <g id="ytick_2">
     <g id="line2d_9">
      <path clip-path="url(#pc02a05dcc8)" d="M 29.995348 100.382126 
L 370.319041 100.382126 
" style="fill:none;stroke:#cccccc;stroke-linecap:round;stroke-width:0.8;"/>
     </g>
     <g id="text_10">
      <!-- 20 -->
      <g style="fill:#262626;" transform="translate(11.908098 103.531564)scale(0.088 -0.088)">
       <use xlink:href="#ArialMT-50"/>
       <use x="55.615234" xlink:href="#ArialMT-48"/>
      </g>
     </g>
    </g>
    <g id="ytick_3">
     <g id="line2d_10">
      <path clip-path="url(#pc02a05dcc8)" d="M 29.995348 62.832252 
L 370.319041 62.832252 
" style="fill:none;stroke:#cccccc;stroke-linecap:round;stroke-width:0.8;"/>
     </g>
     <g id="text_11">
      <!-- 40 -->
      <g style="fill:#262626;" transform="translate(11.908098 65.98169)scale(0.088 -0.088)">
       <defs>
        <path d="M 32.328125 0 
L 32.328125 17.140625 
L 1.265625 17.140625 
L 1.265625 25.203125 
L 33.9375 71.578125 
L 41.109375 71.578125 
L 41.109375 25.203125 
L 50.78125 25.203125 
L 50.78125 17.140625 
L 41.109375 17.140625 
L 41.109375 0 
z
M 32.328125 25.203125 
L 32.328125 57.46875 
L 9.90625 25.203125 
z
" id="ArialMT-52"/>
       </defs>
       <use xlink:href="#ArialMT-52"/>
       <use x="55.615234" xlink:href="#ArialMT-48"/>
      </g>
     </g>
    </g>
    <g id="ytick_4">
     <g id="line2d_11">
      <path clip-path="url(#pc02a05dcc8)" d="M 29.995348 25.282378 
L 370.319041 25.282378 
" style="fill:none;stroke:#cccccc;stroke-linecap:round;stroke-width:0.8;"/>
     </g>
     <g id="text_12">
      <!-- 60 -->
      <g style="fill:#262626;" transform="translate(11.908098 28.431816)scale(0.088 -0.088)">
       <defs>
        <path d="M 49.75 54.046875 
L 41.015625 53.375 
Q 39.84375 58.546875 37.703125 60.890625 
Q 34.125 64.65625 28.90625 64.65625 
Q 24.703125 64.65625 21.53125 62.3125 
Q 17.390625 59.28125 14.984375 53.46875 
Q 12.59375 47.65625 12.5 36.921875 
Q 15.671875 41.75 20.265625 44.09375 
Q 24.859375 46.4375 29.890625 46.4375 
Q 38.671875 46.4375 44.84375 39.96875 
Q 51.03125 33.5 51.03125 23.25 
Q 51.03125 16.5 48.125 10.71875 
Q 45.21875 4.9375 40.140625 1.859375 
Q 35.0625 -1.21875 28.609375 -1.21875 
Q 17.625 -1.21875 10.6875 6.859375 
Q 3.765625 14.9375 3.765625 33.5 
Q 3.765625 54.25 11.421875 63.671875 
Q 18.109375 71.875 29.4375 71.875 
Q 37.890625 71.875 43.28125 67.140625 
Q 48.6875 62.40625 49.75 54.046875 
z
M 13.875 23.1875 
Q 13.875 18.65625 15.796875 14.5 
Q 17.71875 10.359375 21.1875 8.171875 
Q 24.65625 6 28.46875 6 
Q 34.03125 6 38.03125 10.484375 
Q 42.046875 14.984375 42.046875 22.703125 
Q 42.046875 30.125 38.078125 34.390625 
Q 34.125 38.671875 28.125 38.671875 
Q 22.171875 38.671875 18.015625 34.390625 
Q 13.875 30.125 13.875 23.1875 
z
" id="ArialMT-54"/>
       </defs>
       <use xlink:href="#ArialMT-54"/>
       <use x="55.615234" xlink:href="#ArialMT-48"/>
      </g>
     </g>
    </g>
    <g id="text_13">
     <!-- Speedup -->
     <g style="fill:#262626;" transform="translate(6.000098 99.86725)rotate(-90)scale(0.096 -0.096)">
      <defs>
       <path d="M 4.5 23 
L 13.421875 23.78125 
Q 14.0625 18.40625 16.375 14.96875 
Q 18.703125 11.53125 23.578125 9.40625 
Q 28.46875 7.28125 34.578125 7.28125 
Q 39.984375 7.28125 44.140625 8.890625 
Q 48.296875 10.5 50.3125 13.296875 
Q 52.34375 16.109375 52.34375 19.4375 
Q 52.34375 22.796875 50.390625 25.3125 
Q 48.4375 27.828125 43.953125 29.546875 
Q 41.0625 30.671875 31.203125 33.03125 
Q 21.34375 35.40625 17.390625 37.5 
Q 12.25 40.1875 9.734375 44.15625 
Q 7.234375 48.140625 7.234375 53.078125 
Q 7.234375 58.5 10.296875 63.203125 
Q 13.375 67.921875 19.28125 70.359375 
Q 25.203125 72.796875 32.421875 72.796875 
Q 40.375 72.796875 46.453125 70.234375 
Q 52.546875 67.671875 55.8125 62.6875 
Q 59.078125 57.71875 59.328125 51.421875 
L 50.25 50.734375 
Q 49.515625 57.515625 45.28125 60.984375 
Q 41.0625 64.453125 32.8125 64.453125 
Q 24.21875 64.453125 20.28125 61.296875 
Q 16.359375 58.15625 16.359375 53.71875 
Q 16.359375 49.859375 19.140625 47.359375 
Q 21.875 44.875 33.421875 42.265625 
Q 44.96875 39.65625 49.265625 37.703125 
Q 55.515625 34.8125 58.484375 30.390625 
Q 61.46875 25.984375 61.46875 20.21875 
Q 61.46875 14.5 58.203125 9.4375 
Q 54.9375 4.390625 48.796875 1.578125 
Q 42.671875 -1.21875 35.015625 -1.21875 
Q 25.296875 -1.21875 18.71875 1.609375 
Q 12.15625 4.4375 8.421875 10.125 
Q 4.6875 15.828125 4.5 23 
z
" id="ArialMT-83"/>
       <path d="M 6.59375 -19.875 
L 6.59375 51.859375 
L 14.59375 51.859375 
L 14.59375 45.125 
Q 17.4375 49.078125 21 51.046875 
Q 24.5625 53.03125 29.640625 53.03125 
Q 36.28125 53.03125 41.359375 49.609375 
Q 46.4375 46.1875 49.015625 39.953125 
Q 51.609375 33.734375 51.609375 26.3125 
Q 51.609375 18.359375 48.75 11.984375 
Q 45.90625 5.609375 40.453125 2.21875 
Q 35.015625 -1.171875 29 -1.171875 
Q 24.609375 -1.171875 21.109375 0.6875 
Q 17.625 2.546875 15.375 5.375 
L 15.375 -19.875 
z
M 14.546875 25.640625 
Q 14.546875 15.625 18.59375 10.84375 
Q 22.65625 6.0625 28.421875 6.0625 
Q 34.28125 6.0625 38.453125 11.015625 
Q 42.625 15.96875 42.625 26.375 
Q 42.625 36.28125 38.546875 41.203125 
Q 34.46875 46.140625 28.8125 46.140625 
Q 23.1875 46.140625 18.859375 40.890625 
Q 14.546875 35.640625 14.546875 25.640625 
z
" id="ArialMT-112"/>
       <path d="M 40.234375 0 
L 40.234375 6.546875 
Q 35.296875 -1.171875 25.734375 -1.171875 
Q 19.53125 -1.171875 14.328125 2.25 
Q 9.125 5.671875 6.265625 11.796875 
Q 3.421875 17.921875 3.421875 25.875 
Q 3.421875 33.640625 6 39.96875 
Q 8.59375 46.296875 13.765625 49.65625 
Q 18.953125 53.03125 25.34375 53.03125 
Q 30.03125 53.03125 33.6875 51.046875 
Q 37.359375 49.078125 39.65625 45.90625 
L 39.65625 71.578125 
L 48.390625 71.578125 
L 48.390625 0 
z
M 12.453125 25.875 
Q 12.453125 15.921875 16.640625 10.984375 
Q 20.84375 6.0625 26.5625 6.0625 
Q 32.328125 6.0625 36.34375 10.765625 
Q 40.375 15.484375 40.375 25.140625 
Q 40.375 35.796875 36.265625 40.765625 
Q 32.171875 45.75 26.171875 45.75 
Q 20.3125 45.75 16.375 40.96875 
Q 12.453125 36.1875 12.453125 25.875 
z
" id="ArialMT-100"/>
      </defs>
      <use xlink:href="#ArialMT-83"/>
      <use x="66.699219" xlink:href="#ArialMT-112"/>
      <use x="122.314453" xlink:href="#ArialMT-101"/>
      <use x="177.929688" xlink:href="#ArialMT-101"/>
      <use x="233.544922" xlink:href="#ArialMT-100"/>
      <use x="289.160156" xlink:href="#ArialMT-117"/>
      <use x="344.775391" xlink:href="#ArialMT-112"/>
     </g>
    </g>
   </g>
   <g id="line2d_12">
    <path clip-path="url(#pc02a05dcc8)" d="M 31.120943 136.054506 
L 32.246538 134.587974 
L 34.497728 131.436115 
L 39.000109 126.02713 
L 48.00487 121.317492 
L 57.009631 119.511971 
L 84.023915 121.238176 
L 138.052482 135.651813 
L 246.109616 137.385489 
L 354.16675 137.646161 
" style="fill:none;stroke:#edd1cb;stroke-linecap:round;stroke-width:1.2;"/>
    <defs>
     <path d="M 0 2.4 
C 0.636487 2.4 1.246992 2.147121 1.697056 1.697056 
C 2.147121 1.246992 2.4 0.636487 2.4 0 
C 2.4 -0.636487 2.147121 -1.246992 1.697056 -1.697056 
C 1.246992 -2.147121 0.636487 -2.4 0 -2.4 
C -0.636487 -2.4 -1.246992 -2.147121 -1.697056 -1.697056 
C -2.147121 -1.246992 -2.4 -0.636487 -2.4 0 
C -2.4 0.636487 -2.147121 1.246992 -1.697056 1.697056 
C -1.246992 2.147121 -0.636487 2.4 0 2.4 
z
" id="m98fdc8512c" style="stroke:#ffffff;stroke-width:0.75;"/>
    </defs>
    <g clip-path="url(#pc02a05dcc8)">
     <use style="fill:#edd1cb;stroke:#ffffff;stroke-width:0.75;" x="31.120943" xlink:href="#m98fdc8512c" y="136.054506"/>
     <use style="fill:#edd1cb;stroke:#ffffff;stroke-width:0.75;" x="32.246538" xlink:href="#m98fdc8512c" y="134.587974"/>
     <use style="fill:#edd1cb;stroke:#ffffff;stroke-width:0.75;" x="34.497728" xlink:href="#m98fdc8512c" y="131.436115"/>
     <use style="fill:#edd1cb;stroke:#ffffff;stroke-width:0.75;" x="39.000109" xlink:href="#m98fdc8512c" y="126.02713"/>
     <use style="fill:#edd1cb;stroke:#ffffff;stroke-width:0.75;" x="48.00487" xlink:href="#m98fdc8512c" y="121.317492"/>
     <use style="fill:#edd1cb;stroke:#ffffff;stroke-width:0.75;" x="57.009631" xlink:href="#m98fdc8512c" y="119.511971"/>
     <use style="fill:#edd1cb;stroke:#ffffff;stroke-width:0.75;" x="84.023915" xlink:href="#m98fdc8512c" y="121.238176"/>
     <use style="fill:#edd1cb;stroke:#ffffff;stroke-width:0.75;" x="138.052482" xlink:href="#m98fdc8512c" y="135.651813"/>
     <use style="fill:#edd1cb;stroke:#ffffff;stroke-width:0.75;" x="246.109616" xlink:href="#m98fdc8512c" y="137.385489"/>
     <use style="fill:#edd1cb;stroke:#ffffff;stroke-width:0.75;" x="354.16675" xlink:href="#m98fdc8512c" y="137.646161"/>
    </g>
   </g>
   <g id="line2d_13">
    <path clip-path="url(#pc02a05dcc8)" d="M 48.00487 115.275256 
L 57.009631 109.522879 
L 84.023915 108.406216 
L 138.052482 112.281484 
L 246.109616 134.928354 
" style="fill:none;stroke:#e4b8b8;stroke-linecap:round;stroke-width:1.2;"/>
    <defs>
     <path d="M -2.4 2.4 
L 2.4 2.4 
L 2.4 -2.4 
L -2.4 -2.4 
z
" id="m1f1e6f27ad" style="stroke:#ffffff;stroke-linejoin:miter;stroke-width:0.75;"/>
    </defs>
    <g clip-path="url(#pc02a05dcc8)">
     <use style="fill:#e4b8b8;stroke:#ffffff;stroke-linejoin:miter;stroke-width:0.75;" x="48.00487" xlink:href="#m1f1e6f27ad" y="115.275256"/>
     <use style="fill:#e4b8b8;stroke:#ffffff;stroke-linejoin:miter;stroke-width:0.75;" x="57.009631" xlink:href="#m1f1e6f27ad" y="109.522879"/>
     <use style="fill:#e4b8b8;stroke:#ffffff;stroke-linejoin:miter;stroke-width:0.75;" x="84.023915" xlink:href="#m1f1e6f27ad" y="108.406216"/>
     <use style="fill:#e4b8b8;stroke:#ffffff;stroke-linejoin:miter;stroke-width:0.75;" x="138.052482" xlink:href="#m1f1e6f27ad" y="112.281484"/>
     <use style="fill:#e4b8b8;stroke:#ffffff;stroke-linejoin:miter;stroke-width:0.75;" x="246.109616" xlink:href="#m1f1e6f27ad" y="134.928354"/>
    </g>
   </g>
   <g id="line2d_14">
    <path clip-path="url(#pc02a05dcc8)" d="M 48.00487 114.419575 
L 57.009631 104.66094 
L 84.023915 95.2501 
L 138.052482 94.072421 
L 246.109616 123.308384 
" style="fill:none;stroke:#d79ea9;stroke-linecap:round;stroke-width:1.2;"/>
    <defs>
     <path d="M 0 3.394113 
L 2.036468 0 
L 0 -3.394113 
L -2.036468 0 
z
" id="m793f20321e" style="stroke:#ffffff;stroke-linejoin:miter;stroke-width:0.75;"/>
    </defs>
    <g clip-path="url(#pc02a05dcc8)">
     <use style="fill:#d79ea9;stroke:#ffffff;stroke-linejoin:miter;stroke-width:0.75;" x="48.00487" xlink:href="#m793f20321e" y="114.419575"/>
     <use style="fill:#d79ea9;stroke:#ffffff;stroke-linejoin:miter;stroke-width:0.75;" x="57.009631" xlink:href="#m793f20321e" y="104.66094"/>
     <use style="fill:#d79ea9;stroke:#ffffff;stroke-linejoin:miter;stroke-width:0.75;" x="84.023915" xlink:href="#m793f20321e" y="95.2501"/>
     <use style="fill:#d79ea9;stroke:#ffffff;stroke-linejoin:miter;stroke-width:0.75;" x="138.052482" xlink:href="#m793f20321e" y="94.072421"/>
     <use style="fill:#d79ea9;stroke:#ffffff;stroke-linejoin:miter;stroke-width:0.75;" x="246.109616" xlink:href="#m793f20321e" y="123.308384"/>
    </g>
   </g>
   <g id="line2d_15">
    <path clip-path="url(#pc02a05dcc8)" d="M 48.00487 114.351557 
L 57.009631 103.719389 
L 84.023915 91.606198 
L 138.052482 78.17043 
L 246.109616 78.146317 
" style="fill:none;stroke:#c6859d;stroke-linecap:round;stroke-width:1.2;"/>
    <defs>
     <path d="M 0 -2.4 
L -2.4 2.4 
L 2.4 2.4 
z
" id="m03a6e5ed62" style="stroke:#ffffff;stroke-linejoin:miter;stroke-width:0.75;"/>
    </defs>
    <g clip-path="url(#pc02a05dcc8)">
     <use style="fill:#c6859d;stroke:#ffffff;stroke-linejoin:miter;stroke-width:0.75;" x="48.00487" xlink:href="#m03a6e5ed62" y="114.351557"/>
     <use style="fill:#c6859d;stroke:#ffffff;stroke-linejoin:miter;stroke-width:0.75;" x="57.009631" xlink:href="#m03a6e5ed62" y="103.719389"/>
     <use style="fill:#c6859d;stroke:#ffffff;stroke-linejoin:miter;stroke-width:0.75;" x="84.023915" xlink:href="#m03a6e5ed62" y="91.606198"/>
     <use style="fill:#c6859d;stroke:#ffffff;stroke-linejoin:miter;stroke-width:0.75;" x="138.052482" xlink:href="#m03a6e5ed62" y="78.17043"/>
     <use style="fill:#c6859d;stroke:#ffffff;stroke-linejoin:miter;stroke-width:0.75;" x="246.109616" xlink:href="#m03a6e5ed62" y="78.146317"/>
    </g>
   </g>
   <g id="line2d_16">
    <path clip-path="url(#pc02a05dcc8)" d="M 48.00487 114.671641 
L 57.009631 103.925012 
L 84.023915 90.655049 
L 138.052482 76.03615 
L 246.109616 70.666138 
" style="fill:none;stroke:#b16e92;stroke-linecap:round;stroke-width:1.2;"/>
    <defs>
     <path d="M 0 -2.4 
L -2.282536 -0.741641 
L -1.410685 1.941641 
L 1.410685 1.941641 
L 2.282536 -0.741641 
z
" id="m82b7b149d6" style="stroke:#ffffff;stroke-linejoin:miter;stroke-width:0.75;"/>
    </defs>
    <g clip-path="url(#pc02a05dcc8)">
     <use style="fill:#b16e92;stroke:#ffffff;stroke-linejoin:miter;stroke-width:0.75;" x="48.00487" xlink:href="#m82b7b149d6" y="114.671641"/>
     <use style="fill:#b16e92;stroke:#ffffff;stroke-linejoin:miter;stroke-width:0.75;" x="57.009631" xlink:href="#m82b7b149d6" y="103.925012"/>
     <use style="fill:#b16e92;stroke:#ffffff;stroke-linejoin:miter;stroke-width:0.75;" x="84.023915" xlink:href="#m82b7b149d6" y="90.655049"/>
     <use style="fill:#b16e92;stroke:#ffffff;stroke-linejoin:miter;stroke-width:0.75;" x="138.052482" xlink:href="#m82b7b149d6" y="76.03615"/>
     <use style="fill:#b16e92;stroke:#ffffff;stroke-linejoin:miter;stroke-width:0.75;" x="246.109616" xlink:href="#m82b7b149d6" y="70.666138"/>
    </g>
   </g>
   <g id="line2d_17">
    <path clip-path="url(#pc02a05dcc8)" d="M 48.00487 114.614599 
L 57.009631 103.896689 
L 84.023915 90.743463 
L 138.052482 75.616101 
L 246.109616 39.108093 
" style="fill:none;stroke:#985987;stroke-linecap:round;stroke-width:1.2;"/>
    <defs>
     <path d="M 0 2.4 
C 0.636487 2.4 1.246992 2.147121 1.697056 1.697056 
C 2.147121 1.246992 2.4 0.636487 2.4 0 
C 2.4 -0.636487 2.147121 -1.246992 1.697056 -1.697056 
C 1.246992 -2.147121 0.636487 -2.4 0 -2.4 
C -0.636487 -2.4 -1.246992 -2.147121 -1.697056 -1.697056 
C -2.147121 -1.246992 -2.4 -0.636487 -2.4 0 
C -2.4 0.636487 -2.147121 1.246992 -1.697056 1.697056 
C -1.246992 2.147121 -0.636487 2.4 0 2.4 
z
" id="m54739a0835" style="stroke:#ffffff;stroke-width:0.75;"/>
    </defs>
    <g clip-path="url(#pc02a05dcc8)">
     <use style="fill:#985987;stroke:#ffffff;stroke-width:0.75;" x="48.00487" xlink:href="#m54739a0835" y="114.614599"/>
     <use style="fill:#985987;stroke:#ffffff;stroke-width:0.75;" x="57.009631" xlink:href="#m54739a0835" y="103.896689"/>
     <use style="fill:#985987;stroke:#ffffff;stroke-width:0.75;" x="84.023915" xlink:href="#m54739a0835" y="90.743463"/>
     <use style="fill:#985987;stroke:#ffffff;stroke-width:0.75;" x="138.052482" xlink:href="#m54739a0835" y="75.616101"/>
     <use style="fill:#985987;stroke:#ffffff;stroke-width:0.75;" x="246.109616" xlink:href="#m54739a0835" y="39.108093"/>
    </g>
   </g>
   <g id="line2d_18">
    <path clip-path="url(#pc02a05dcc8)" d="M 48.00487 114.929176 
L 57.009631 104.088257 
L 84.023915 90.443306 
L 138.052482 75.027664 
L 246.109616 28.809817 
" style="fill:none;stroke:#7b4779;stroke-linecap:round;stroke-width:1.2;"/>
    <defs>
     <path d="M -2.4 2.4 
L 2.4 2.4 
L 2.4 -2.4 
L -2.4 -2.4 
z
" id="m3b25b76b6c" style="stroke:#ffffff;stroke-linejoin:miter;stroke-width:0.75;"/>
    </defs>
    <g clip-path="url(#pc02a05dcc8)">
     <use style="fill:#7b4779;stroke:#ffffff;stroke-linejoin:miter;stroke-width:0.75;" x="48.00487" xlink:href="#m3b25b76b6c" y="114.929176"/>
     <use style="fill:#7b4779;stroke:#ffffff;stroke-linejoin:miter;stroke-width:0.75;" x="57.009631" xlink:href="#m3b25b76b6c" y="104.088257"/>
     <use style="fill:#7b4779;stroke:#ffffff;stroke-linejoin:miter;stroke-width:0.75;" x="84.023915" xlink:href="#m3b25b76b6c" y="90.443306"/>
     <use style="fill:#7b4779;stroke:#ffffff;stroke-linejoin:miter;stroke-width:0.75;" x="138.052482" xlink:href="#m3b25b76b6c" y="75.027664"/>
     <use style="fill:#7b4779;stroke:#ffffff;stroke-linejoin:miter;stroke-width:0.75;" x="246.109616" xlink:href="#m3b25b76b6c" y="28.809817"/>
    </g>
   </g>
   <g id="line2d_19">
    <path clip-path="url(#pc02a05dcc8)" d="M 57.009631 104.26261 
L 84.023915 89.900132 
L 138.052482 74.256795 
L 246.109616 50.77444 
" style="fill:none;stroke:#2d1e3e;stroke-linecap:round;stroke-width:1.2;"/>
    <defs>
     <path d="M 0 -2.4 
L -2.282536 -0.741641 
L -1.410685 1.941641 
L 1.410685 1.941641 
L 2.282536 -0.741641 
z
" id="m257180a9b2" style="stroke:#ffffff;stroke-linejoin:miter;stroke-width:0.75;"/>
    </defs>
    <g clip-path="url(#pc02a05dcc8)">
     <use style="fill:#2d1e3e;stroke:#ffffff;stroke-linejoin:miter;stroke-width:0.75;" x="57.009631" xlink:href="#m257180a9b2" y="104.26261"/>
     <use style="fill:#2d1e3e;stroke:#ffffff;stroke-linejoin:miter;stroke-width:0.75;" x="84.023915" xlink:href="#m257180a9b2" y="89.900132"/>
     <use style="fill:#2d1e3e;stroke:#ffffff;stroke-linejoin:miter;stroke-width:0.75;" x="138.052482" xlink:href="#m257180a9b2" y="74.256795"/>
     <use style="fill:#2d1e3e;stroke:#ffffff;stroke-linejoin:miter;stroke-width:0.75;" x="246.109616" xlink:href="#m257180a9b2" y="50.77444"/>
    </g>
   </g>
   <g id="line2d_20"/>
   <g id="line2d_21"/>
   <g id="line2d_22"/>
   <g id="line2d_23"/>
   <g id="line2d_24"/>
   <g id="line2d_25"/>
   <g id="line2d_26"/>
   <g id="line2d_27"/>
   <g id="patch_3">
    <path d="M 29.995348 137.932 
L 29.995348 23.368 
" style="fill:none;stroke:#cccccc;stroke-linecap:square;stroke-linejoin:miter;"/>
   </g>
   <g id="patch_4">
    <path d="M 370.319041 137.932 
L 370.319041 23.368 
" style="fill:none;stroke:#cccccc;stroke-linecap:square;stroke-linejoin:miter;"/>
   </g>
   <g id="patch_5">
    <path d="M 29.995348 137.932 
L 370.319041 137.932 
" style="fill:none;stroke:#cccccc;stroke-linecap:square;stroke-linejoin:miter;"/>
   </g>
   <g id="patch_6">
    <path d="M 29.995348 23.368 
L 370.319041 23.368 
" style="fill:none;stroke:#cccccc;stroke-linecap:square;stroke-linejoin:miter;"/>
   </g>
   <g id="text_14">
    <!-- CC = NO WAIT -->
    <g style="fill:#262626;" transform="translate(167.402444 17.368)scale(0.096 -0.096)">
     <defs>
      <path d="M 52.828125 42.09375 
L 5.5625 42.09375 
L 5.5625 50.296875 
L 52.828125 50.296875 
z
M 52.828125 20.359375 
L 5.5625 20.359375 
L 5.5625 28.5625 
L 52.828125 28.5625 
z
" id="ArialMT-61"/>
      <path d="M 4.828125 34.859375 
Q 4.828125 52.6875 14.390625 62.765625 
Q 23.96875 72.859375 39.109375 72.859375 
Q 49.03125 72.859375 56.984375 68.109375 
Q 64.9375 63.375 69.109375 54.90625 
Q 73.296875 46.4375 73.296875 35.6875 
Q 73.296875 24.8125 68.890625 16.21875 
Q 64.5 7.625 56.4375 3.203125 
Q 48.390625 -1.21875 39.0625 -1.21875 
Q 28.953125 -1.21875 20.984375 3.65625 
Q 13.03125 8.546875 8.921875 16.984375 
Q 4.828125 25.4375 4.828125 34.859375 
z
M 14.59375 34.71875 
Q 14.59375 21.78125 21.546875 14.328125 
Q 28.515625 6.890625 39.015625 6.890625 
Q 49.703125 6.890625 56.609375 14.40625 
Q 63.53125 21.921875 63.53125 35.75 
Q 63.53125 44.484375 60.578125 51 
Q 57.625 57.515625 51.921875 61.109375 
Q 46.234375 64.703125 39.15625 64.703125 
Q 29.109375 64.703125 21.84375 57.78125 
Q 14.59375 50.875 14.59375 34.71875 
z
" id="ArialMT-79"/>
      <path d="M 20.21875 0 
L 1.21875 71.578125 
L 10.9375 71.578125 
L 21.828125 24.65625 
Q 23.578125 17.28125 24.859375 10.015625 
Q 27.59375 21.484375 28.078125 23.25 
L 41.703125 71.578125 
L 53.125 71.578125 
L 63.375 35.359375 
Q 67.234375 21.875 68.953125 10.015625 
Q 70.3125 16.796875 72.515625 25.59375 
L 83.734375 71.578125 
L 93.265625 71.578125 
L 73.640625 0 
L 64.5 0 
L 49.421875 54.546875 
Q 47.515625 61.375 47.171875 62.9375 
Q 46.046875 58.015625 45.0625 54.546875 
L 29.890625 0 
z
" id="ArialMT-87"/>
      <path d="M -0.140625 0 
L 27.34375 71.578125 
L 37.546875 71.578125 
L 66.84375 0 
L 56.0625 0 
L 47.703125 21.6875 
L 17.78125 21.6875 
L 9.90625 0 
z
M 20.515625 29.390625 
L 44.78125 29.390625 
L 37.3125 49.21875 
Q 33.890625 58.25 32.234375 64.0625 
Q 30.859375 57.171875 28.375 50.390625 
z
" id="ArialMT-65"/>
      <path d="M 9.328125 0 
L 9.328125 71.578125 
L 18.796875 71.578125 
L 18.796875 0 
z
" id="ArialMT-73"/>
      <path d="M 25.921875 0 
L 25.921875 63.140625 
L 2.34375 63.140625 
L 2.34375 71.578125 
L 59.078125 71.578125 
L 59.078125 63.140625 
L 35.40625 63.140625 
L 35.40625 0 
z
" id="ArialMT-84"/>
     </defs>
     <use xlink:href="#ArialMT-67"/>
     <use x="72.216797" xlink:href="#ArialMT-67"/>
     <use x="144.433594" xlink:href="#ArialMT-32"/>
     <use x="172.216797" xlink:href="#ArialMT-61"/>
     <use x="230.615234" xlink:href="#ArialMT-32"/>
     <use x="258.398438" xlink:href="#ArialMT-78"/>
     <use x="330.615234" xlink:href="#ArialMT-79"/>
     <use x="408.398438" xlink:href="#ArialMT-32"/>
     <use x="436.181641" xlink:href="#ArialMT-87"/>
     <use x="526.816406" xlink:href="#ArialMT-65"/>
     <use x="593.515625" xlink:href="#ArialMT-73"/>
     <use x="621.298828" xlink:href="#ArialMT-84"/>
    </g>
   </g>
  </g>
  <g id="axes_2">
   <g id="patch_7">
    <path d="M 385.547702 137.932 
L 725.871395 137.932 
L 725.871395 23.368 
L 385.547702 23.368 
z
" style="fill:#ffffff;"/>
   </g>
   <g id="matplotlib.axis_3">
    <g id="xtick_8">
     <g id="line2d_28">
      <path clip-path="url(#pb397cffeed)" d="M 385.547702 137.932 
L 385.547702 23.368 
" style="fill:none;stroke:#cccccc;stroke-linecap:round;stroke-width:0.8;"/>
     </g>
     <g id="text_15">
      <!-- 0 -->
      <g style="fill:#262626;" transform="translate(383.10089 146.030875)scale(0.088 -0.088)">
       <use xlink:href="#ArialMT-48"/>
      </g>
     </g>
    </g>
    <g id="xtick_9">
     <g id="line2d_29">
      <path clip-path="url(#pb397cffeed)" d="M 441.82746 137.932 
L 441.82746 23.368 
" style="fill:none;stroke:#cccccc;stroke-linecap:round;stroke-width:0.8;"/>
     </g>
     <g id="text_16">
      <!-- 50 -->
      <g style="fill:#262626;" transform="translate(436.933835 146.030875)scale(0.088 -0.088)">
       <use xlink:href="#ArialMT-53"/>
       <use x="55.615234" xlink:href="#ArialMT-48"/>
      </g>
     </g>
    </g>
    <g id="xtick_10">
     <g id="line2d_30">
      <path clip-path="url(#pb397cffeed)" d="M 498.107217 137.932 
L 498.107217 23.368 
" style="fill:none;stroke:#cccccc;stroke-linecap:round;stroke-width:0.8;"/>
     </g>
     <g id="text_17">
      <!-- 100 -->
      <g style="fill:#262626;" transform="translate(490.76678 146.030875)scale(0.088 -0.088)">
       <use xlink:href="#ArialMT-49"/>
       <use x="55.615234" xlink:href="#ArialMT-48"/>
       <use x="111.230469" xlink:href="#ArialMT-48"/>
      </g>
     </g>
    </g>
    <g id="xtick_11">
     <g id="line2d_31">
      <path clip-path="url(#pb397cffeed)" d="M 554.386975 137.932 
L 554.386975 23.368 
" style="fill:none;stroke:#cccccc;stroke-linecap:round;stroke-width:0.8;"/>
     </g>
     <g id="text_18">
      <!-- 150 -->
      <g style="fill:#262626;" transform="translate(547.046537 146.030875)scale(0.088 -0.088)">
       <use xlink:href="#ArialMT-49"/>
       <use x="55.615234" xlink:href="#ArialMT-53"/>
       <use x="111.230469" xlink:href="#ArialMT-48"/>
      </g>
     </g>
    </g>
    <g id="xtick_12">
     <g id="line2d_32">
      <path clip-path="url(#pb397cffeed)" d="M 610.666732 137.932 
L 610.666732 23.368 
" style="fill:none;stroke:#cccccc;stroke-linecap:round;stroke-width:0.8;"/>
     </g>
     <g id="text_19">
      <!-- 200 -->
      <g style="fill:#262626;" transform="translate(603.326294 146.030875)scale(0.088 -0.088)">
       <use xlink:href="#ArialMT-50"/>
       <use x="55.615234" xlink:href="#ArialMT-48"/>
       <use x="111.230469" xlink:href="#ArialMT-48"/>
      </g>
     </g>
    </g>
    <g id="xtick_13">
     <g id="line2d_33">
      <path clip-path="url(#pb397cffeed)" d="M 666.946489 137.932 
L 666.946489 23.368 
" style="fill:none;stroke:#cccccc;stroke-linecap:round;stroke-width:0.8;"/>
     </g>
     <g id="text_20">
      <!-- 250 -->
      <g style="fill:#262626;" transform="translate(659.606052 146.030875)scale(0.088 -0.088)">
       <use xlink:href="#ArialMT-50"/>
       <use x="55.615234" xlink:href="#ArialMT-53"/>
       <use x="111.230469" xlink:href="#ArialMT-48"/>
      </g>
     </g>
    </g>
    <g id="xtick_14">
     <g id="line2d_34">
      <path clip-path="url(#pb397cffeed)" d="M 723.226247 137.932 
L 723.226247 23.368 
" style="fill:none;stroke:#cccccc;stroke-linecap:round;stroke-width:0.8;"/>
     </g>
     <g id="text_21">
      <!-- 300 -->
      <g style="fill:#262626;" transform="translate(715.885809 146.030875)scale(0.088 -0.088)">
       <use xlink:href="#ArialMT-51"/>
       <use x="55.615234" xlink:href="#ArialMT-48"/>
       <use x="111.230469" xlink:href="#ArialMT-48"/>
      </g>
     </g>
    </g>
    <g id="text_22">
     <!-- Number of Cores -->
     <g style="fill:#262626;" transform="translate(519.165799 158.651375)scale(0.096 -0.096)">
      <use xlink:href="#ArialMT-78"/>
      <use x="72.216797" xlink:href="#ArialMT-117"/>
      <use x="127.832031" xlink:href="#ArialMT-109"/>
      <use x="211.132812" xlink:href="#ArialMT-98"/>
      <use x="266.748047" xlink:href="#ArialMT-101"/>
      <use x="322.363281" xlink:href="#ArialMT-114"/>
      <use x="355.664062" xlink:href="#ArialMT-32"/>
      <use x="383.447266" xlink:href="#ArialMT-111"/>
      <use x="439.0625" xlink:href="#ArialMT-102"/>
      <use x="466.845703" xlink:href="#ArialMT-32"/>
      <use x="494.628906" xlink:href="#ArialMT-67"/>
      <use x="566.845703" xlink:href="#ArialMT-111"/>
      <use x="622.460938" xlink:href="#ArialMT-114"/>
      <use x="655.761719" xlink:href="#ArialMT-101"/>
      <use x="711.376953" xlink:href="#ArialMT-115"/>
     </g>
    </g>
   </g>
   <g id="matplotlib.axis_4">
    <g id="ytick_5">
     <g id="line2d_35">
      <path clip-path="url(#pb397cffeed)" d="M 385.547702 137.932 
L 725.871395 137.932 
" style="fill:none;stroke:#cccccc;stroke-linecap:round;stroke-width:0.8;"/>
     </g>
    </g>
    <g id="ytick_6">
     <g id="line2d_36">
      <path clip-path="url(#pb397cffeed)" d="M 385.547702 100.382126 
L 725.871395 100.382126 
" style="fill:none;stroke:#cccccc;stroke-linecap:round;stroke-width:0.8;"/>
     </g>
    </g>
    <g id="ytick_7">
     <g id="line2d_37">
      <path clip-path="url(#pb397cffeed)" d="M 385.547702 62.832252 
L 725.871395 62.832252 
" style="fill:none;stroke:#cccccc;stroke-linecap:round;stroke-width:0.8;"/>
     </g>
    </g>
    <g id="ytick_8">
     <g id="line2d_38">
      <path clip-path="url(#pb397cffeed)" d="M 385.547702 25.282378 
L 725.871395 25.282378 
" style="fill:none;stroke:#cccccc;stroke-linecap:round;stroke-width:0.8;"/>
     </g>
    </g>
   </g>
   <g id="line2d_39">
    <path clip-path="url(#pb397cffeed)" d="M 386.673297 136.054506 
L 387.798893 134.707292 
L 390.050083 132.798347 
L 394.552464 132.853027 
L 403.557225 133.048116 
L 412.561986 133.271767 
L 439.576269 134.302173 
L 493.604837 134.962315 
L 601.661971 135.841203 
L 709.719105 135.97539 
" style="fill:none;stroke:#edd1cb;stroke-linecap:round;stroke-width:1.2;"/>
    <g clip-path="url(#pb397cffeed)">
     <use style="fill:#edd1cb;stroke:#ffffff;stroke-width:0.75;" x="386.673297" xlink:href="#m98fdc8512c" y="136.054506"/>
     <use style="fill:#edd1cb;stroke:#ffffff;stroke-width:0.75;" x="387.798893" xlink:href="#m98fdc8512c" y="134.707292"/>
     <use style="fill:#edd1cb;stroke:#ffffff;stroke-width:0.75;" x="390.050083" xlink:href="#m98fdc8512c" y="132.798347"/>
     <use style="fill:#edd1cb;stroke:#ffffff;stroke-width:0.75;" x="394.552464" xlink:href="#m98fdc8512c" y="132.853027"/>
     <use style="fill:#edd1cb;stroke:#ffffff;stroke-width:0.75;" x="403.557225" xlink:href="#m98fdc8512c" y="133.048116"/>
     <use style="fill:#edd1cb;stroke:#ffffff;stroke-width:0.75;" x="412.561986" xlink:href="#m98fdc8512c" y="133.271767"/>
     <use style="fill:#edd1cb;stroke:#ffffff;stroke-width:0.75;" x="439.576269" xlink:href="#m98fdc8512c" y="134.302173"/>
     <use style="fill:#edd1cb;stroke:#ffffff;stroke-width:0.75;" x="493.604837" xlink:href="#m98fdc8512c" y="134.962315"/>
     <use style="fill:#edd1cb;stroke:#ffffff;stroke-width:0.75;" x="601.661971" xlink:href="#m98fdc8512c" y="135.841203"/>
     <use style="fill:#edd1cb;stroke:#ffffff;stroke-width:0.75;" x="709.719105" xlink:href="#m98fdc8512c" y="135.97539"/>
    </g>
   </g>
   <g id="line2d_40">
    <path clip-path="url(#pb397cffeed)" d="M 403.557225 129.385861 
L 412.561986 129.021161 
L 439.576269 130.954387 
L 493.604837 132.549886 
L 601.661971 134.399391 
" style="fill:none;stroke:#e4b8b8;stroke-linecap:round;stroke-width:1.2;"/>
    <g clip-path="url(#pb397cffeed)">
     <use style="fill:#e4b8b8;stroke:#ffffff;stroke-linejoin:miter;stroke-width:0.75;" x="403.557225" xlink:href="#m1f1e6f27ad" y="129.385861"/>
     <use style="fill:#e4b8b8;stroke:#ffffff;stroke-linejoin:miter;stroke-width:0.75;" x="412.561986" xlink:href="#m1f1e6f27ad" y="129.021161"/>
     <use style="fill:#e4b8b8;stroke:#ffffff;stroke-linejoin:miter;stroke-width:0.75;" x="439.576269" xlink:href="#m1f1e6f27ad" y="130.954387"/>
     <use style="fill:#e4b8b8;stroke:#ffffff;stroke-linejoin:miter;stroke-width:0.75;" x="493.604837" xlink:href="#m1f1e6f27ad" y="132.549886"/>
     <use style="fill:#e4b8b8;stroke:#ffffff;stroke-linejoin:miter;stroke-width:0.75;" x="601.661971" xlink:href="#m1f1e6f27ad" y="134.399391"/>
    </g>
   </g>
   <g id="line2d_41">
    <path clip-path="url(#pb397cffeed)" d="M 403.557225 120.439892 
L 412.561986 120.950906 
L 439.576269 124.75089 
L 493.604837 127.498639 
L 601.661971 131.54931 
" style="fill:none;stroke:#d79ea9;stroke-linecap:round;stroke-width:1.2;"/>
    <g clip-path="url(#pb397cffeed)">
     <use style="fill:#d79ea9;stroke:#ffffff;stroke-linejoin:miter;stroke-width:0.75;" x="403.557225" xlink:href="#m793f20321e" y="120.439892"/>
     <use style="fill:#d79ea9;stroke:#ffffff;stroke-linejoin:miter;stroke-width:0.75;" x="412.561986" xlink:href="#m793f20321e" y="120.950906"/>
     <use style="fill:#d79ea9;stroke:#ffffff;stroke-linejoin:miter;stroke-width:0.75;" x="439.576269" xlink:href="#m793f20321e" y="124.75089"/>
     <use style="fill:#d79ea9;stroke:#ffffff;stroke-linejoin:miter;stroke-width:0.75;" x="493.604837" xlink:href="#m793f20321e" y="127.498639"/>
     <use style="fill:#d79ea9;stroke:#ffffff;stroke-linejoin:miter;stroke-width:0.75;" x="601.661971" xlink:href="#m793f20321e" y="131.54931"/>
    </g>
   </g>
   <g id="line2d_42">
    <path clip-path="url(#pb397cffeed)" d="M 403.557225 119.108838 
L 412.561986 112.100628 
L 439.576269 112.740434 
L 493.604837 116.981887 
L 601.661971 124.724636 
" style="fill:none;stroke:#c6859d;stroke-linecap:round;stroke-width:1.2;"/>
    <g clip-path="url(#pb397cffeed)">
     <use style="fill:#c6859d;stroke:#ffffff;stroke-linejoin:miter;stroke-width:0.75;" x="403.557225" xlink:href="#m03a6e5ed62" y="119.108838"/>
     <use style="fill:#c6859d;stroke:#ffffff;stroke-linejoin:miter;stroke-width:0.75;" x="412.561986" xlink:href="#m03a6e5ed62" y="112.100628"/>
     <use style="fill:#c6859d;stroke:#ffffff;stroke-linejoin:miter;stroke-width:0.75;" x="439.576269" xlink:href="#m03a6e5ed62" y="112.740434"/>
     <use style="fill:#c6859d;stroke:#ffffff;stroke-linejoin:miter;stroke-width:0.75;" x="493.604837" xlink:href="#m03a6e5ed62" y="116.981887"/>
     <use style="fill:#c6859d;stroke:#ffffff;stroke-linejoin:miter;stroke-width:0.75;" x="601.661971" xlink:href="#m03a6e5ed62" y="124.724636"/>
    </g>
   </g>
   <g id="line2d_43">
    <path clip-path="url(#pb397cffeed)" d="M 403.557225 118.460564 
L 412.561986 111.43601 
L 439.576269 99.376258 
L 493.604837 98.844816 
L 601.661971 108.859336 
" style="fill:none;stroke:#b16e92;stroke-linecap:round;stroke-width:1.2;"/>
    <g clip-path="url(#pb397cffeed)">
     <use style="fill:#b16e92;stroke:#ffffff;stroke-linejoin:miter;stroke-width:0.75;" x="403.557225" xlink:href="#m82b7b149d6" y="118.460564"/>
     <use style="fill:#b16e92;stroke:#ffffff;stroke-linejoin:miter;stroke-width:0.75;" x="412.561986" xlink:href="#m82b7b149d6" y="111.43601"/>
     <use style="fill:#b16e92;stroke:#ffffff;stroke-linejoin:miter;stroke-width:0.75;" x="439.576269" xlink:href="#m82b7b149d6" y="99.376258"/>
     <use style="fill:#b16e92;stroke:#ffffff;stroke-linejoin:miter;stroke-width:0.75;" x="493.604837" xlink:href="#m82b7b149d6" y="98.844816"/>
     <use style="fill:#b16e92;stroke:#ffffff;stroke-linejoin:miter;stroke-width:0.75;" x="601.661971" xlink:href="#m82b7b149d6" y="108.859336"/>
    </g>
   </g>
   <g id="line2d_44">
    <path clip-path="url(#pb397cffeed)" d="M 403.557225 118.498307 
L 412.561986 110.791986 
L 439.576269 97.41313 
L 493.604837 81.015599 
L 601.661971 77.470361 
" style="fill:none;stroke:#985987;stroke-linecap:round;stroke-width:1.2;"/>
    <g clip-path="url(#pb397cffeed)">
     <use style="fill:#985987;stroke:#ffffff;stroke-width:0.75;" x="403.557225" xlink:href="#m54739a0835" y="118.498307"/>
     <use style="fill:#985987;stroke:#ffffff;stroke-width:0.75;" x="412.561986" xlink:href="#m54739a0835" y="110.791986"/>
     <use style="fill:#985987;stroke:#ffffff;stroke-width:0.75;" x="439.576269" xlink:href="#m54739a0835" y="97.41313"/>
     <use style="fill:#985987;stroke:#ffffff;stroke-width:0.75;" x="493.604837" xlink:href="#m54739a0835" y="81.015599"/>
     <use style="fill:#985987;stroke:#ffffff;stroke-width:0.75;" x="601.661971" xlink:href="#m54739a0835" y="77.470361"/>
    </g>
   </g>
   <g id="line2d_45">
    <path clip-path="url(#pb397cffeed)" d="M 403.557225 118.571651 
L 412.561986 110.270555 
L 439.576269 96.37191 
L 493.604837 78.594445 
L 601.661971 49.942172 
" style="fill:none;stroke:#7b4779;stroke-linecap:round;stroke-width:1.2;"/>
    <g clip-path="url(#pb397cffeed)">
     <use style="fill:#7b4779;stroke:#ffffff;stroke-linejoin:miter;stroke-width:0.75;" x="403.557225" xlink:href="#m3b25b76b6c" y="118.571651"/>
     <use style="fill:#7b4779;stroke:#ffffff;stroke-linejoin:miter;stroke-width:0.75;" x="412.561986" xlink:href="#m3b25b76b6c" y="110.270555"/>
     <use style="fill:#7b4779;stroke:#ffffff;stroke-linejoin:miter;stroke-width:0.75;" x="439.576269" xlink:href="#m3b25b76b6c" y="96.37191"/>
     <use style="fill:#7b4779;stroke:#ffffff;stroke-linejoin:miter;stroke-width:0.75;" x="493.604837" xlink:href="#m3b25b76b6c" y="78.594445"/>
     <use style="fill:#7b4779;stroke:#ffffff;stroke-linejoin:miter;stroke-width:0.75;" x="601.661971" xlink:href="#m3b25b76b6c" y="49.942172"/>
    </g>
   </g>
   <g id="line2d_46">
    <path clip-path="url(#pb397cffeed)" d="M 412.561986 110.068067 
L 439.576269 96.201198 
L 493.604837 76.282533 
L 601.661971 63.720331 
" style="fill:none;stroke:#2d1e3e;stroke-linecap:round;stroke-width:1.2;"/>
    <g clip-path="url(#pb397cffeed)">
     <use style="fill:#2d1e3e;stroke:#ffffff;stroke-linejoin:miter;stroke-width:0.75;" x="412.561986" xlink:href="#m257180a9b2" y="110.068067"/>
     <use style="fill:#2d1e3e;stroke:#ffffff;stroke-linejoin:miter;stroke-width:0.75;" x="439.576269" xlink:href="#m257180a9b2" y="96.201198"/>
     <use style="fill:#2d1e3e;stroke:#ffffff;stroke-linejoin:miter;stroke-width:0.75;" x="493.604837" xlink:href="#m257180a9b2" y="76.282533"/>
     <use style="fill:#2d1e3e;stroke:#ffffff;stroke-linejoin:miter;stroke-width:0.75;" x="601.661971" xlink:href="#m257180a9b2" y="63.720331"/>
    </g>
   </g>
   <g id="patch_8">
    <path d="M 385.547702 137.932 
L 385.547702 23.368 
" style="fill:none;stroke:#cccccc;stroke-linecap:square;stroke-linejoin:miter;"/>
   </g>
   <g id="patch_9">
    <path d="M 725.871395 137.932 
L 725.871395 23.368 
" style="fill:none;stroke:#cccccc;stroke-linecap:square;stroke-linejoin:miter;"/>
   </g>
   <g id="patch_10">
    <path d="M 385.547702 137.932 
L 725.871395 137.932 
" style="fill:none;stroke:#cccccc;stroke-linecap:square;stroke-linejoin:miter;"/>
   </g>
   <g id="patch_11">
    <path d="M 385.547702 23.368 
L 725.871395 23.368 
" style="fill:none;stroke:#cccccc;stroke-linecap:square;stroke-linejoin:miter;"/>
   </g>
   <g id="text_23">
    <!-- CC = HSTORE -->
    <g style="fill:#262626;" transform="translate(523.388299 17.368)scale(0.096 -0.096)">
     <defs>
      <path d="M 8.015625 0 
L 8.015625 71.578125 
L 17.484375 71.578125 
L 17.484375 42.1875 
L 54.6875 42.1875 
L 54.6875 71.578125 
L 64.15625 71.578125 
L 64.15625 0 
L 54.6875 0 
L 54.6875 33.734375 
L 17.484375 33.734375 
L 17.484375 0 
z
" id="ArialMT-72"/>
      <path d="M 7.859375 0 
L 7.859375 71.578125 
L 39.59375 71.578125 
Q 49.171875 71.578125 54.140625 69.640625 
Q 59.125 67.71875 62.109375 62.828125 
Q 65.09375 57.953125 65.09375 52.046875 
Q 65.09375 44.4375 60.15625 39.203125 
Q 55.21875 33.984375 44.921875 32.5625 
Q 48.6875 30.765625 50.640625 29 
Q 54.78125 25.203125 58.5 19.484375 
L 70.953125 0 
L 59.03125 0 
L 49.5625 14.890625 
Q 45.40625 21.34375 42.71875 24.75 
Q 40.046875 28.171875 37.921875 29.53125 
Q 35.796875 30.90625 33.59375 31.453125 
Q 31.984375 31.78125 28.328125 31.78125 
L 17.328125 31.78125 
L 17.328125 0 
z
M 17.328125 39.984375 
L 37.703125 39.984375 
Q 44.1875 39.984375 47.84375 41.328125 
Q 51.515625 42.671875 53.421875 45.625 
Q 55.328125 48.578125 55.328125 52.046875 
Q 55.328125 57.125 51.640625 60.390625 
Q 47.953125 63.671875 39.984375 63.671875 
L 17.328125 63.671875 
z
" id="ArialMT-82"/>
      <path d="M 7.90625 0 
L 7.90625 71.578125 
L 59.671875 71.578125 
L 59.671875 63.140625 
L 17.390625 63.140625 
L 17.390625 41.21875 
L 56.984375 41.21875 
L 56.984375 32.8125 
L 17.390625 32.8125 
L 17.390625 8.453125 
L 61.328125 8.453125 
L 61.328125 0 
z
" id="ArialMT-69"/>
     </defs>
     <use xlink:href="#ArialMT-67"/>
     <use x="72.216797" xlink:href="#ArialMT-67"/>
     <use x="144.433594" xlink:href="#ArialMT-32"/>
     <use x="172.216797" xlink:href="#ArialMT-61"/>
     <use x="230.615234" xlink:href="#ArialMT-32"/>
     <use x="258.398438" xlink:href="#ArialMT-72"/>
     <use x="330.615234" xlink:href="#ArialMT-83"/>
     <use x="397.314453" xlink:href="#ArialMT-84"/>
     <use x="456.648438" xlink:href="#ArialMT-79"/>
     <use x="534.431641" xlink:href="#ArialMT-82"/>
     <use x="606.648438" xlink:href="#ArialMT-69"/>
    </g>
   </g>
  </g>
  <g id="axes_3">
   <g id="patch_12">
    <path d="M 741.100057 137.932 
L 1081.42375 137.932 
L 1081.42375 23.368 
L 741.100057 23.368 
z
" style="fill:#ffffff;"/>
   </g>
   <g id="matplotlib.axis_5">
    <g id="xtick_15">
     <g id="line2d_47">
      <path clip-path="url(#p6cfc85f67d)" d="M 741.100057 137.932 
L 741.100057 23.368 
" style="fill:none;stroke:#cccccc;stroke-linecap:round;stroke-width:0.8;"/>
     </g>
     <g id="text_24">
      <!-- 0 -->
      <g style="fill:#262626;" transform="translate(738.653244 146.030875)scale(0.088 -0.088)">
       <use xlink:href="#ArialMT-48"/>
      </g>
     </g>
    </g>
    <g id="xtick_16">
     <g id="line2d_48">
      <path clip-path="url(#p6cfc85f67d)" d="M 797.379814 137.932 
L 797.379814 23.368 
" style="fill:none;stroke:#cccccc;stroke-linecap:round;stroke-width:0.8;"/>
     </g>
     <g id="text_25">
      <!-- 50 -->
      <g style="fill:#262626;" transform="translate(792.486189 146.030875)scale(0.088 -0.088)">
       <use xlink:href="#ArialMT-53"/>
       <use x="55.615234" xlink:href="#ArialMT-48"/>
      </g>
     </g>
    </g>
    <g id="xtick_17">
     <g id="line2d_49">
      <path clip-path="url(#p6cfc85f67d)" d="M 853.659572 137.932 
L 853.659572 23.368 
" style="fill:none;stroke:#cccccc;stroke-linecap:round;stroke-width:0.8;"/>
     </g>
     <g id="text_26">
      <!-- 100 -->
      <g style="fill:#262626;" transform="translate(846.319134 146.030875)scale(0.088 -0.088)">
       <use xlink:href="#ArialMT-49"/>
       <use x="55.615234" xlink:href="#ArialMT-48"/>
       <use x="111.230469" xlink:href="#ArialMT-48"/>
      </g>
     </g>
    </g>
    <g id="xtick_18">
     <g id="line2d_50">
      <path clip-path="url(#p6cfc85f67d)" d="M 909.939329 137.932 
L 909.939329 23.368 
" style="fill:none;stroke:#cccccc;stroke-linecap:round;stroke-width:0.8;"/>
     </g>
     <g id="text_27">
      <!-- 150 -->
      <g style="fill:#262626;" transform="translate(902.598892 146.030875)scale(0.088 -0.088)">
       <use xlink:href="#ArialMT-49"/>
       <use x="55.615234" xlink:href="#ArialMT-53"/>
       <use x="111.230469" xlink:href="#ArialMT-48"/>
      </g>
     </g>
    </g>
    <g id="xtick_19">
     <g id="line2d_51">
      <path clip-path="url(#p6cfc85f67d)" d="M 966.219087 137.932 
L 966.219087 23.368 
" style="fill:none;stroke:#cccccc;stroke-linecap:round;stroke-width:0.8;"/>
     </g>
     <g id="text_28">
      <!-- 200 -->
      <g style="fill:#262626;" transform="translate(958.878649 146.030875)scale(0.088 -0.088)">
       <use xlink:href="#ArialMT-50"/>
       <use x="55.615234" xlink:href="#ArialMT-48"/>
       <use x="111.230469" xlink:href="#ArialMT-48"/>
      </g>
     </g>
    </g>
    <g id="xtick_20">
     <g id="line2d_52">
      <path clip-path="url(#p6cfc85f67d)" d="M 1022.498844 137.932 
L 1022.498844 23.368 
" style="fill:none;stroke:#cccccc;stroke-linecap:round;stroke-width:0.8;"/>
     </g>
     <g id="text_29">
      <!-- 250 -->
      <g style="fill:#262626;" transform="translate(1015.158406 146.030875)scale(0.088 -0.088)">
       <use xlink:href="#ArialMT-50"/>
       <use x="55.615234" xlink:href="#ArialMT-53"/>
       <use x="111.230469" xlink:href="#ArialMT-48"/>
      </g>
     </g>
    </g>
    <g id="xtick_21">
     <g id="line2d_53">
      <path clip-path="url(#p6cfc85f67d)" d="M 1078.778601 137.932 
L 1078.778601 23.368 
" style="fill:none;stroke:#cccccc;stroke-linecap:round;stroke-width:0.8;"/>
     </g>
     <g id="text_30">
      <!-- 300 -->
      <g style="fill:#262626;" transform="translate(1071.438164 146.030875)scale(0.088 -0.088)">
       <use xlink:href="#ArialMT-51"/>
       <use x="55.615234" xlink:href="#ArialMT-48"/>
       <use x="111.230469" xlink:href="#ArialMT-48"/>
      </g>
     </g>
    </g>
    <g id="text_31">
     <!-- Number of Cores -->
     <g style="fill:#262626;" transform="translate(874.718153 158.651375)scale(0.096 -0.096)">
      <use xlink:href="#ArialMT-78"/>
      <use x="72.216797" xlink:href="#ArialMT-117"/>
      <use x="127.832031" xlink:href="#ArialMT-109"/>
      <use x="211.132812" xlink:href="#ArialMT-98"/>
      <use x="266.748047" xlink:href="#ArialMT-101"/>
      <use x="322.363281" xlink:href="#ArialMT-114"/>
      <use x="355.664062" xlink:href="#ArialMT-32"/>
      <use x="383.447266" xlink:href="#ArialMT-111"/>
      <use x="439.0625" xlink:href="#ArialMT-102"/>
      <use x="466.845703" xlink:href="#ArialMT-32"/>
      <use x="494.628906" xlink:href="#ArialMT-67"/>
      <use x="566.845703" xlink:href="#ArialMT-111"/>
      <use x="622.460938" xlink:href="#ArialMT-114"/>
      <use x="655.761719" xlink:href="#ArialMT-101"/>
      <use x="711.376953" xlink:href="#ArialMT-115"/>
     </g>
    </g>
   </g>
   <g id="matplotlib.axis_6">
    <g id="ytick_9">
     <g id="line2d_54">
      <path clip-path="url(#p6cfc85f67d)" d="M 741.100057 137.932 
L 1081.42375 137.932 
" style="fill:none;stroke:#cccccc;stroke-linecap:round;stroke-width:0.8;"/>
     </g>
    </g>
    <g id="ytick_10">
     <g id="line2d_55">
      <path clip-path="url(#p6cfc85f67d)" d="M 741.100057 100.382126 
L 1081.42375 100.382126 
" style="fill:none;stroke:#cccccc;stroke-linecap:round;stroke-width:0.8;"/>
     </g>
    </g>
    <g id="ytick_11">
     <g id="line2d_56">
      <path clip-path="url(#p6cfc85f67d)" d="M 741.100057 62.832252 
L 1081.42375 62.832252 
" style="fill:none;stroke:#cccccc;stroke-linecap:round;stroke-width:0.8;"/>
     </g>
    </g>
    <g id="ytick_12">
     <g id="line2d_57">
      <path clip-path="url(#p6cfc85f67d)" d="M 741.100057 25.282378 
L 1081.42375 25.282378 
" style="fill:none;stroke:#cccccc;stroke-linecap:round;stroke-width:0.8;"/>
     </g>
    </g>
   </g>
   <g id="line2d_58">
    <path clip-path="url(#p6cfc85f67d)" d="M 742.225652 136.054506 
L 743.351247 134.495877 
L 745.602438 131.271434 
L 750.104818 126.575427 
L 759.109579 119.522914 
L 768.11434 115.662027 
L 795.128624 114.745977 
L 849.157191 116.193939 
L 957.214325 126.553204 
L 1065.27146 129.516849 
" style="fill:none;stroke:#edd1cb;stroke-linecap:round;stroke-width:1.2;"/>
    <g clip-path="url(#p6cfc85f67d)">
     <use style="fill:#edd1cb;stroke:#ffffff;stroke-width:0.75;" x="742.225652" xlink:href="#m98fdc8512c" y="136.054506"/>
     <use style="fill:#edd1cb;stroke:#ffffff;stroke-width:0.75;" x="743.351247" xlink:href="#m98fdc8512c" y="134.495877"/>
     <use style="fill:#edd1cb;stroke:#ffffff;stroke-width:0.75;" x="745.602438" xlink:href="#m98fdc8512c" y="131.271434"/>
     <use style="fill:#edd1cb;stroke:#ffffff;stroke-width:0.75;" x="750.104818" xlink:href="#m98fdc8512c" y="126.575427"/>
     <use style="fill:#edd1cb;stroke:#ffffff;stroke-width:0.75;" x="759.109579" xlink:href="#m98fdc8512c" y="119.522914"/>
     <use style="fill:#edd1cb;stroke:#ffffff;stroke-width:0.75;" x="768.11434" xlink:href="#m98fdc8512c" y="115.662027"/>
     <use style="fill:#edd1cb;stroke:#ffffff;stroke-width:0.75;" x="795.128624" xlink:href="#m98fdc8512c" y="114.745977"/>
     <use style="fill:#edd1cb;stroke:#ffffff;stroke-width:0.75;" x="849.157191" xlink:href="#m98fdc8512c" y="116.193939"/>
     <use style="fill:#edd1cb;stroke:#ffffff;stroke-width:0.75;" x="957.214325" xlink:href="#m98fdc8512c" y="126.553204"/>
     <use style="fill:#edd1cb;stroke:#ffffff;stroke-width:0.75;" x="1065.27146" xlink:href="#m98fdc8512c" y="129.516849"/>
    </g>
   </g>
   <g id="line2d_59">
    <path clip-path="url(#p6cfc85f67d)" d="M 759.109579 116.365845 
L 768.11434 108.763941 
L 795.128624 102.787994 
L 849.157191 100.109691 
L 957.214325 107.604595 
" style="fill:none;stroke:#e4b8b8;stroke-linecap:round;stroke-width:1.2;"/>
    <g clip-path="url(#p6cfc85f67d)">
     <use style="fill:#e4b8b8;stroke:#ffffff;stroke-linejoin:miter;stroke-width:0.75;" x="759.109579" xlink:href="#m1f1e6f27ad" y="116.365845"/>
     <use style="fill:#e4b8b8;stroke:#ffffff;stroke-linejoin:miter;stroke-width:0.75;" x="768.11434" xlink:href="#m1f1e6f27ad" y="108.763941"/>
     <use style="fill:#e4b8b8;stroke:#ffffff;stroke-linejoin:miter;stroke-width:0.75;" x="795.128624" xlink:href="#m1f1e6f27ad" y="102.787994"/>
     <use style="fill:#e4b8b8;stroke:#ffffff;stroke-linejoin:miter;stroke-width:0.75;" x="849.157191" xlink:href="#m1f1e6f27ad" y="100.109691"/>
     <use style="fill:#e4b8b8;stroke:#ffffff;stroke-linejoin:miter;stroke-width:0.75;" x="957.214325" xlink:href="#m1f1e6f27ad" y="107.604595"/>
    </g>
   </g>
   <g id="line2d_60">
    <path clip-path="url(#p6cfc85f67d)" d="M 759.109579 113.623107 
L 768.11434 105.2812 
L 795.128624 96.311918 
L 849.157191 85.314239 
L 957.214325 81.409538 
" style="fill:none;stroke:#d79ea9;stroke-linecap:round;stroke-width:1.2;"/>
    <g clip-path="url(#p6cfc85f67d)">
     <use style="fill:#d79ea9;stroke:#ffffff;stroke-linejoin:miter;stroke-width:0.75;" x="759.109579" xlink:href="#m793f20321e" y="113.623107"/>
     <use style="fill:#d79ea9;stroke:#ffffff;stroke-linejoin:miter;stroke-width:0.75;" x="768.11434" xlink:href="#m793f20321e" y="105.2812"/>
     <use style="fill:#d79ea9;stroke:#ffffff;stroke-linejoin:miter;stroke-width:0.75;" x="795.128624" xlink:href="#m793f20321e" y="96.311918"/>
     <use style="fill:#d79ea9;stroke:#ffffff;stroke-linejoin:miter;stroke-width:0.75;" x="849.157191" xlink:href="#m793f20321e" y="85.314239"/>
     <use style="fill:#d79ea9;stroke:#ffffff;stroke-linejoin:miter;stroke-width:0.75;" x="957.214325" xlink:href="#m793f20321e" y="81.409538"/>
    </g>
   </g>
   <g id="line2d_61">
    <path clip-path="url(#p6cfc85f67d)" d="M 759.109579 113.634631 
L 768.11434 102.967659 
L 795.128624 91.973817 
L 849.157191 78.266937 
L 957.214325 84.42686 
" style="fill:none;stroke:#c6859d;stroke-linecap:round;stroke-width:1.2;"/>
    <g clip-path="url(#p6cfc85f67d)">
     <use style="fill:#c6859d;stroke:#ffffff;stroke-linejoin:miter;stroke-width:0.75;" x="759.109579" xlink:href="#m03a6e5ed62" y="113.634631"/>
     <use style="fill:#c6859d;stroke:#ffffff;stroke-linejoin:miter;stroke-width:0.75;" x="768.11434" xlink:href="#m03a6e5ed62" y="102.967659"/>
     <use style="fill:#c6859d;stroke:#ffffff;stroke-linejoin:miter;stroke-width:0.75;" x="795.128624" xlink:href="#m03a6e5ed62" y="91.973817"/>
     <use style="fill:#c6859d;stroke:#ffffff;stroke-linejoin:miter;stroke-width:0.75;" x="849.157191" xlink:href="#m03a6e5ed62" y="78.266937"/>
     <use style="fill:#c6859d;stroke:#ffffff;stroke-linejoin:miter;stroke-width:0.75;" x="957.214325" xlink:href="#m03a6e5ed62" y="84.42686"/>
    </g>
   </g>
   <g id="line2d_62">
    <path clip-path="url(#p6cfc85f67d)" d="M 759.109579 113.791533 
L 768.11434 103.079778 
L 795.128624 90.133775 
L 849.157191 73.655683 
L 957.214325 84.525858 
" style="fill:none;stroke:#b16e92;stroke-linecap:round;stroke-width:1.2;"/>
    <g clip-path="url(#p6cfc85f67d)">
     <use style="fill:#b16e92;stroke:#ffffff;stroke-linejoin:miter;stroke-width:0.75;" x="759.109579" xlink:href="#m82b7b149d6" y="113.791533"/>
     <use style="fill:#b16e92;stroke:#ffffff;stroke-linejoin:miter;stroke-width:0.75;" x="768.11434" xlink:href="#m82b7b149d6" y="103.079778"/>
     <use style="fill:#b16e92;stroke:#ffffff;stroke-linejoin:miter;stroke-width:0.75;" x="795.128624" xlink:href="#m82b7b149d6" y="90.133775"/>
     <use style="fill:#b16e92;stroke:#ffffff;stroke-linejoin:miter;stroke-width:0.75;" x="849.157191" xlink:href="#m82b7b149d6" y="73.655683"/>
     <use style="fill:#b16e92;stroke:#ffffff;stroke-linejoin:miter;stroke-width:0.75;" x="957.214325" xlink:href="#m82b7b149d6" y="84.525858"/>
    </g>
   </g>
   <g id="line2d_63">
    <path clip-path="url(#p6cfc85f67d)" d="M 759.109579 114.034977 
L 768.11434 103.067869 
L 795.128624 90.390122 
L 849.157191 70.579215 
L 957.214325 46.986267 
" style="fill:none;stroke:#985987;stroke-linecap:round;stroke-width:1.2;"/>
    <g clip-path="url(#p6cfc85f67d)">
     <use style="fill:#985987;stroke:#ffffff;stroke-width:0.75;" x="759.109579" xlink:href="#m54739a0835" y="114.034977"/>
     <use style="fill:#985987;stroke:#ffffff;stroke-width:0.75;" x="768.11434" xlink:href="#m54739a0835" y="103.067869"/>
     <use style="fill:#985987;stroke:#ffffff;stroke-width:0.75;" x="795.128624" xlink:href="#m54739a0835" y="90.390122"/>
     <use style="fill:#985987;stroke:#ffffff;stroke-width:0.75;" x="849.157191" xlink:href="#m54739a0835" y="70.579215"/>
     <use style="fill:#985987;stroke:#ffffff;stroke-width:0.75;" x="957.214325" xlink:href="#m54739a0835" y="46.986267"/>
    </g>
   </g>
   <g id="line2d_64">
    <path clip-path="url(#p6cfc85f67d)" d="M 759.109579 113.954868 
L 768.11434 103.35457 
L 795.128624 90.296315 
L 849.157191 70.744678 
L 957.214325 29.252731 
" style="fill:none;stroke:#7b4779;stroke-linecap:round;stroke-width:1.2;"/>
    <g clip-path="url(#p6cfc85f67d)">
     <use style="fill:#7b4779;stroke:#ffffff;stroke-linejoin:miter;stroke-width:0.75;" x="759.109579" xlink:href="#m3b25b76b6c" y="113.954868"/>
     <use style="fill:#7b4779;stroke:#ffffff;stroke-linejoin:miter;stroke-width:0.75;" x="768.11434" xlink:href="#m3b25b76b6c" y="103.35457"/>
     <use style="fill:#7b4779;stroke:#ffffff;stroke-linejoin:miter;stroke-width:0.75;" x="795.128624" xlink:href="#m3b25b76b6c" y="90.296315"/>
     <use style="fill:#7b4779;stroke:#ffffff;stroke-linejoin:miter;stroke-width:0.75;" x="849.157191" xlink:href="#m3b25b76b6c" y="70.744678"/>
     <use style="fill:#7b4779;stroke:#ffffff;stroke-linejoin:miter;stroke-width:0.75;" x="957.214325" xlink:href="#m3b25b76b6c" y="29.252731"/>
    </g>
   </g>
   <g id="line2d_65">
    <path clip-path="url(#p6cfc85f67d)" d="M 768.11434 102.987053 
L 795.128624 88.856473 
L 849.157191 70.500092 
L 957.214325 63.469752 
" style="fill:none;stroke:#2d1e3e;stroke-linecap:round;stroke-width:1.2;"/>
    <g clip-path="url(#p6cfc85f67d)">
     <use style="fill:#2d1e3e;stroke:#ffffff;stroke-linejoin:miter;stroke-width:0.75;" x="768.11434" xlink:href="#m257180a9b2" y="102.987053"/>
     <use style="fill:#2d1e3e;stroke:#ffffff;stroke-linejoin:miter;stroke-width:0.75;" x="795.128624" xlink:href="#m257180a9b2" y="88.856473"/>
     <use style="fill:#2d1e3e;stroke:#ffffff;stroke-linejoin:miter;stroke-width:0.75;" x="849.157191" xlink:href="#m257180a9b2" y="70.500092"/>
     <use style="fill:#2d1e3e;stroke:#ffffff;stroke-linejoin:miter;stroke-width:0.75;" x="957.214325" xlink:href="#m257180a9b2" y="63.469752"/>
    </g>
   </g>
   <g id="patch_13">
    <path d="M 741.100057 137.932 
L 741.100057 23.368 
" style="fill:none;stroke:#cccccc;stroke-linecap:square;stroke-linejoin:miter;"/>
   </g>
   <g id="patch_14">
    <path d="M 1081.42375 137.932 
L 1081.42375 23.368 
" style="fill:none;stroke:#cccccc;stroke-linecap:square;stroke-linejoin:miter;"/>
   </g>
   <g id="patch_15">
    <path d="M 741.100057 137.932 
L 1081.42375 137.932 
" style="fill:none;stroke:#cccccc;stroke-linecap:square;stroke-linejoin:miter;"/>
   </g>
   <g id="patch_16">
    <path d="M 741.100057 23.368 
L 1081.42375 23.368 
" style="fill:none;stroke:#cccccc;stroke-linecap:square;stroke-linejoin:miter;"/>
   </g>
   <g id="text_32">
    <!-- CC = TICTOC -->
    <g style="fill:#262626;" transform="translate(881.162903 17.368)scale(0.096 -0.096)">
     <use xlink:href="#ArialMT-67"/>
     <use x="72.216797" xlink:href="#ArialMT-67"/>
     <use x="144.433594" xlink:href="#ArialMT-32"/>
     <use x="172.216797" xlink:href="#ArialMT-61"/>
     <use x="230.615234" xlink:href="#ArialMT-32"/>
     <use x="256.648438" xlink:href="#ArialMT-84"/>
     <use x="317.732422" xlink:href="#ArialMT-73"/>
     <use x="345.515625" xlink:href="#ArialMT-67"/>
     <use x="417.732422" xlink:href="#ArialMT-84"/>
     <use x="477.066406" xlink:href="#ArialMT-79"/>
     <use x="554.849609" xlink:href="#ArialMT-67"/>
    </g>
   </g>
  </g>
  <g id="legend_1">
   <g id="text_33">
    <!-- Warehouses -->
    <g style="fill:#262626;" transform="translate(1092.176 35.49025)scale(0.096 -0.096)">
     <defs>
      <path d="M 40.4375 6.390625 
Q 35.546875 2.25 31.03125 0.53125 
Q 26.515625 -1.171875 21.34375 -1.171875 
Q 12.796875 -1.171875 8.203125 3 
Q 3.609375 7.171875 3.609375 13.671875 
Q 3.609375 17.484375 5.34375 20.625 
Q 7.078125 23.78125 9.890625 25.6875 
Q 12.703125 27.59375 16.21875 28.5625 
Q 18.796875 29.25 24.03125 29.890625 
Q 34.671875 31.15625 39.703125 32.90625 
Q 39.75 34.71875 39.75 35.203125 
Q 39.75 40.578125 37.25 42.78125 
Q 33.890625 45.75 27.25 45.75 
Q 21.046875 45.75 18.09375 43.578125 
Q 15.140625 41.40625 13.71875 35.890625 
L 5.125 37.0625 
Q 6.296875 42.578125 8.984375 45.96875 
Q 11.671875 49.359375 16.75 51.1875 
Q 21.828125 53.03125 28.515625 53.03125 
Q 35.15625 53.03125 39.296875 51.46875 
Q 43.453125 49.90625 45.40625 47.53125 
Q 47.359375 45.171875 48.140625 41.546875 
Q 48.578125 39.3125 48.578125 33.453125 
L 48.578125 21.734375 
Q 48.578125 9.46875 49.140625 6.21875 
Q 49.703125 2.984375 51.375 0 
L 42.1875 0 
Q 40.828125 2.734375 40.4375 6.390625 
z
M 39.703125 26.03125 
Q 34.90625 24.078125 25.34375 22.703125 
Q 19.921875 21.921875 17.671875 20.9375 
Q 15.4375 19.96875 14.203125 18.09375 
Q 12.984375 16.21875 12.984375 13.921875 
Q 12.984375 10.40625 15.640625 8.0625 
Q 18.3125 5.71875 23.4375 5.71875 
Q 28.515625 5.71875 32.46875 7.9375 
Q 36.421875 10.15625 38.28125 14.015625 
Q 39.703125 17 39.703125 22.796875 
z
" id="ArialMT-97"/>
      <path d="M 6.59375 0 
L 6.59375 71.578125 
L 15.375 71.578125 
L 15.375 45.90625 
Q 21.53125 53.03125 30.90625 53.03125 
Q 36.671875 53.03125 40.921875 50.75 
Q 45.171875 48.484375 47 44.484375 
Q 48.828125 40.484375 48.828125 32.859375 
L 48.828125 0 
L 40.046875 0 
L 40.046875 32.859375 
Q 40.046875 39.453125 37.1875 42.453125 
Q 34.328125 45.453125 29.109375 45.453125 
Q 25.203125 45.453125 21.75 43.421875 
Q 18.3125 41.40625 16.84375 37.9375 
Q 15.375 34.46875 15.375 28.375 
L 15.375 0 
z
" id="ArialMT-104"/>
     </defs>
     <use xlink:href="#ArialMT-87"/>
     <use x="90.634766" xlink:href="#ArialMT-97"/>
     <use x="146.25" xlink:href="#ArialMT-114"/>
     <use x="179.550781" xlink:href="#ArialMT-101"/>
     <use x="235.166016" xlink:href="#ArialMT-104"/>
     <use x="290.78125" xlink:href="#ArialMT-111"/>
     <use x="346.396484" xlink:href="#ArialMT-117"/>
     <use x="402.011719" xlink:href="#ArialMT-115"/>
     <use x="452.011719" xlink:href="#ArialMT-101"/>
     <use x="507.626953" xlink:href="#ArialMT-115"/>
    </g>
   </g>
   <g id="line2d_66">
    <path d="M 1096.83325 45.017125 
L 1114.43325 45.017125 
" style="fill:none;stroke:#edd1cb;stroke-linecap:round;stroke-width:1.2;"/>
   </g>
   <g id="line2d_67">
    <defs>
     <path d="M 0 2.4 
C 0.636487 2.4 1.246992 2.147121 1.697056 1.697056 
C 2.147121 1.246992 2.4 0.636487 2.4 0 
C 2.4 -0.636487 2.147121 -1.246992 1.697056 -1.697056 
C 1.246992 -2.147121 0.636487 -2.4 0 -2.4 
C -0.636487 -2.4 -1.246992 -2.147121 -1.697056 -1.697056 
C -2.147121 -1.246992 -2.4 -0.636487 -2.4 0 
C -2.4 0.636487 -2.147121 1.246992 -1.697056 1.697056 
C -1.246992 2.147121 -0.636487 2.4 0 2.4 
z
" id="m7f2ce106dc" style="stroke:#edd1cb;"/>
    </defs>
    <g>
     <use style="fill:#edd1cb;stroke:#edd1cb;" x="1105.63325" xlink:href="#m7f2ce106dc" y="45.017125"/>
    </g>
   </g>
   <g id="text_34">
    <!-- 4 -->
    <g style="fill:#262626;" transform="translate(1121.47325 48.097125)scale(0.088 -0.088)">
     <use xlink:href="#ArialMT-52"/>
    </g>
   </g>
   <g id="line2d_68">
    <path d="M 1096.83325 57.465 
L 1114.43325 57.465 
" style="fill:none;stroke:#e4b8b8;stroke-linecap:round;stroke-width:1.2;"/>
   </g>
   <g id="line2d_69">
    <defs>
     <path d="M -2.4 2.4 
L 2.4 2.4 
L 2.4 -2.4 
L -2.4 -2.4 
z
" id="m0447abeee2" style="stroke:#e4b8b8;stroke-linejoin:miter;"/>
    </defs>
    <g>
     <use style="fill:#e4b8b8;stroke:#e4b8b8;stroke-linejoin:miter;" x="1105.63325" xlink:href="#m0447abeee2" y="57.465"/>
    </g>
   </g>
   <g id="text_35">
    <!-- 8 -->
    <g style="fill:#262626;" transform="translate(1121.47325 60.545)scale(0.088 -0.088)">
     <defs>
      <path d="M 17.671875 38.8125 
Q 12.203125 40.828125 9.5625 44.53125 
Q 6.9375 48.25 6.9375 53.421875 
Q 6.9375 61.234375 12.546875 66.546875 
Q 18.171875 71.875 27.484375 71.875 
Q 36.859375 71.875 42.578125 66.421875 
Q 48.296875 60.984375 48.296875 53.171875 
Q 48.296875 48.1875 45.671875 44.5 
Q 43.0625 40.828125 37.75 38.8125 
Q 44.34375 36.671875 47.78125 31.875 
Q 51.21875 27.09375 51.21875 20.453125 
Q 51.21875 11.28125 44.71875 5.03125 
Q 38.234375 -1.21875 27.640625 -1.21875 
Q 17.046875 -1.21875 10.546875 5.046875 
Q 4.046875 11.328125 4.046875 20.703125 
Q 4.046875 27.6875 7.59375 32.390625 
Q 11.140625 37.109375 17.671875 38.8125 
z
M 15.921875 53.71875 
Q 15.921875 48.640625 19.1875 45.40625 
Q 22.46875 42.1875 27.6875 42.1875 
Q 32.765625 42.1875 36.015625 45.375 
Q 39.265625 48.578125 39.265625 53.21875 
Q 39.265625 58.0625 35.90625 61.359375 
Q 32.5625 64.65625 27.59375 64.65625 
Q 22.5625 64.65625 19.234375 61.421875 
Q 15.921875 58.203125 15.921875 53.71875 
z
M 13.09375 20.65625 
Q 13.09375 16.890625 14.875 13.375 
Q 16.65625 9.859375 20.171875 7.921875 
Q 23.6875 6 27.734375 6 
Q 34.03125 6 38.125 10.046875 
Q 42.234375 14.109375 42.234375 20.359375 
Q 42.234375 26.703125 38.015625 30.859375 
Q 33.796875 35.015625 27.4375 35.015625 
Q 21.234375 35.015625 17.15625 30.90625 
Q 13.09375 26.8125 13.09375 20.65625 
z
" id="ArialMT-56"/>
     </defs>
     <use xlink:href="#ArialMT-56"/>
    </g>
   </g>
   <g id="line2d_70">
    <path d="M 1096.83325 69.912875 
L 1114.43325 69.912875 
" style="fill:none;stroke:#d79ea9;stroke-linecap:round;stroke-width:1.2;"/>
   </g>
   <g id="line2d_71">
    <defs>
     <path d="M 0 3.394113 
L 2.036468 0 
L 0 -3.394113 
L -2.036468 0 
z
" id="m83c567ea9b" style="stroke:#d79ea9;stroke-linejoin:miter;"/>
    </defs>
    <g>
     <use style="fill:#d79ea9;stroke:#d79ea9;stroke-linejoin:miter;" x="1105.63325" xlink:href="#m83c567ea9b" y="69.912875"/>
    </g>
   </g>
   <g id="text_36">
    <!-- 16 -->
    <g style="fill:#262626;" transform="translate(1121.47325 72.992875)scale(0.088 -0.088)">
     <use xlink:href="#ArialMT-49"/>
     <use x="55.615234" xlink:href="#ArialMT-54"/>
    </g>
   </g>
   <g id="line2d_72">
    <path d="M 1096.83325 82.36075 
L 1114.43325 82.36075 
" style="fill:none;stroke:#c6859d;stroke-linecap:round;stroke-width:1.2;"/>
   </g>
   <g id="line2d_73">
    <defs>
     <path d="M 0 -2.4 
L -2.4 2.4 
L 2.4 2.4 
z
" id="mc7c9eaf98f" style="stroke:#c6859d;stroke-linejoin:miter;"/>
    </defs>
    <g>
     <use style="fill:#c6859d;stroke:#c6859d;stroke-linejoin:miter;" x="1105.63325" xlink:href="#mc7c9eaf98f" y="82.36075"/>
    </g>
   </g>
   <g id="text_37">
    <!-- 32 -->
    <g style="fill:#262626;" transform="translate(1121.47325 85.44075)scale(0.088 -0.088)">
     <use xlink:href="#ArialMT-51"/>
     <use x="55.615234" xlink:href="#ArialMT-50"/>
    </g>
   </g>
   <g id="line2d_74">
    <path d="M 1096.83325 94.808625 
L 1114.43325 94.808625 
" style="fill:none;stroke:#b16e92;stroke-linecap:round;stroke-width:1.2;"/>
   </g>
   <g id="line2d_75">
    <defs>
     <path d="M 0 -2.4 
L -2.282536 -0.741641 
L -1.410685 1.941641 
L 1.410685 1.941641 
L 2.282536 -0.741641 
z
" id="mb6d21be146" style="stroke:#b16e92;stroke-linejoin:miter;"/>
    </defs>
    <g>
     <use style="fill:#b16e92;stroke:#b16e92;stroke-linejoin:miter;" x="1105.63325" xlink:href="#mb6d21be146" y="94.808625"/>
    </g>
   </g>
   <g id="text_38">
    <!-- 64 -->
    <g style="fill:#262626;" transform="translate(1121.47325 97.888625)scale(0.088 -0.088)">
     <use xlink:href="#ArialMT-54"/>
     <use x="55.615234" xlink:href="#ArialMT-52"/>
    </g>
   </g>
   <g id="line2d_76">
    <path d="M 1096.83325 107.2565 
L 1114.43325 107.2565 
" style="fill:none;stroke:#985987;stroke-linecap:round;stroke-width:1.2;"/>
   </g>
   <g id="line2d_77">
    <defs>
     <path d="M 0 2.4 
C 0.636487 2.4 1.246992 2.147121 1.697056 1.697056 
C 2.147121 1.246992 2.4 0.636487 2.4 0 
C 2.4 -0.636487 2.147121 -1.246992 1.697056 -1.697056 
C 1.246992 -2.147121 0.636487 -2.4 0 -2.4 
C -0.636487 -2.4 -1.246992 -2.147121 -1.697056 -1.697056 
C -2.147121 -1.246992 -2.4 -0.636487 -2.4 0 
C -2.4 0.636487 -2.147121 1.246992 -1.697056 1.697056 
C -1.246992 2.147121 -0.636487 2.4 0 2.4 
z
" id="m0a87edb4ff" style="stroke:#985987;"/>
    </defs>
    <g>
     <use style="fill:#985987;stroke:#985987;" x="1105.63325" xlink:href="#m0a87edb4ff" y="107.2565"/>
    </g>
   </g>
   <g id="text_39">
    <!-- 128 -->
    <g style="fill:#262626;" transform="translate(1121.47325 110.3365)scale(0.088 -0.088)">
     <use xlink:href="#ArialMT-49"/>
     <use x="55.615234" xlink:href="#ArialMT-50"/>
     <use x="111.230469" xlink:href="#ArialMT-56"/>
    </g>
   </g>
   <g id="line2d_78">
    <path d="M 1096.83325 119.704375 
L 1114.43325 119.704375 
" style="fill:none;stroke:#7b4779;stroke-linecap:round;stroke-width:1.2;"/>
   </g>
   <g id="line2d_79">
    <defs>
     <path d="M -2.4 2.4 
L 2.4 2.4 
L 2.4 -2.4 
L -2.4 -2.4 
z
" id="m9d593bb6d9" style="stroke:#7b4779;stroke-linejoin:miter;"/>
    </defs>
    <g>
     <use style="fill:#7b4779;stroke:#7b4779;stroke-linejoin:miter;" x="1105.63325" xlink:href="#m9d593bb6d9" y="119.704375"/>
    </g>
   </g>
   <g id="text_40">
    <!-- 256 -->
    <g style="fill:#262626;" transform="translate(1121.47325 122.784375)scale(0.088 -0.088)">
     <use xlink:href="#ArialMT-50"/>
     <use x="55.615234" xlink:href="#ArialMT-53"/>
     <use x="111.230469" xlink:href="#ArialMT-54"/>
    </g>
   </g>
   <g id="line2d_80">
    <path d="M 1096.83325 132.15225 
L 1114.43325 132.15225 
" style="fill:none;stroke:#2d1e3e;stroke-linecap:round;stroke-width:1.2;"/>
   </g>
   <g id="line2d_81">
    <defs>
     <path d="M 0 -2.4 
L -2.282536 -0.741641 
L -1.410685 1.941641 
L 1.410685 1.941641 
L 2.282536 -0.741641 
z
" id="m9777f43746" style="stroke:#2d1e3e;stroke-linejoin:miter;"/>
    </defs>
    <g>
     <use style="fill:#2d1e3e;stroke:#2d1e3e;stroke-linejoin:miter;" x="1105.63325" xlink:href="#m9777f43746" y="132.15225"/>
    </g>
   </g>
   <g id="text_41">
    <!-- 1568 -->
    <g style="fill:#262626;" transform="translate(1121.47325 135.23225)scale(0.088 -0.088)">
     <use xlink:href="#ArialMT-49"/>
     <use x="55.615234" xlink:href="#ArialMT-53"/>
     <use x="111.230469" xlink:href="#ArialMT-54"/>
     <use x="166.845703" xlink:href="#ArialMT-56"/>
    </g>
   </g>
  </g>
 </g>
 <defs>
  <clipPath id="pc02a05dcc8">
   <rect height="114.564" width="340.323693" x="29.995348" y="23.368"/>
  </clipPath>
  <clipPath id="pb397cffeed">
   <rect height="114.564" width="340.323693" x="385.547702" y="23.368"/>
  </clipPath>
  <clipPath id="p6cfc85f67d">
   <rect height="114.564" width="340.323693" x="741.100057" y="23.368"/>
  </clipPath>
 </defs>
</svg>
